<?xml version="1.0" encoding="utf-8"?>
<!-- Generator: Adobe Illustrator 27.3.1, SVG Export Plug-In . SVG Version: 6.00 Build 0)  -->
<svg version="1.1" id="Layer_1" xmlns="http://www.w3.org/2000/svg" xmlns:xlink="http://www.w3.org/1999/xlink" x="0px" y="0px"
	 viewBox="0 0 400 400" style="enable-background:new 0 0 400 400;" xml:space="preserve">
<style type="text/css">
	.st0{fill-rule:evenodd;clip-rule:evenodd;fill:#1B1C1C;}
	.st1{fill:#EE4041;}
	.st2{fill-rule:evenodd;clip-rule:evenodd;fill:#FFFFFF;}
</style>
<g>
	<path class="st0" d="M234.9,356.6c86.5,0,156.6-70.1,156.6-156.6c0-86.5-70.1-156.6-156.6-156.6c-25.9,0-50.3,6.3-71.8,17.4
		c5.3,4.4,12.8,12.1,18.6,22c16.2-7.4,34.2-11.5,53.2-11.5c71.1,0,128.7,57.6,128.7,128.7c0,71.1-57.6,128.7-128.7,128.7
		c-56.4,0-104.4-36.3-121.7-86.8c-6.7,1.2-21,2.8-29,0.7C102.6,308.4,163.1,356.6,234.9,356.6z"/>
	<circle class="st1" cx="93.8" cy="138" r="85.3"/>
	<path d="M189.7,160c2.1-4.4,4-8.8,6.2-13c1.8-3.6,4-7.1,5.9-10.8c3-5.9,8-8.5,14.4-9.5c10.2-1.5,20.4-1.9,30.6-1.9
		c12.9-0.1,25.8-0.2,38.7,1.2c3.1,0.3,6.1,1,9.2,1.5c4,0.7,7.2,2.7,9.2,6.3c4.1,7.5,8,15.1,12,22.6c0.6,1.1,1,2.2,1.5,3.3
		c0.2,0,0.4,0,0.4-0.1c2.9-3.5,6.7-4.4,11-4c2,0.2,4.1,0,6.1,0.1c3.1,0.1,5.4,2.1,5.8,5c0.4,3.1-1.3,5.7-4.3,6.5
		c-3.8,1.1-7.6,2.1-11.7,3.2c0.5,0.6,0.8,1.1,1.2,1.6c2.2,2.5,4.4,5,6.6,7.6c3.5,4.1,5.3,8.8,5.3,14.2c0,18,0,36,0,54
		c0,3.8-1.8,5.6-5.6,5.6c-6,0-12,0-18.1,0c-3.4,0-5.3-1.9-5.3-5.3c0-3,0-6,0-9.1c-36.8,0-73.5,0-110.5,0c0,2.9,0,5.8,0,8.7
		c0,3.9-1.9,5.7-5.7,5.7c-6,0-11.9,0-17.9,0c-3.6,0-5.4-1.8-5.4-5.4c0-18.1,0-36.1,0-54.2c0-5.5,1.9-10.3,5.5-14.4
		c2.1-2.5,4.3-5,6.5-7.5c0.3-0.4,0.7-0.8,1.1-1.4c-3.9-1.1-7.6-2.1-11.2-3.1c-3.4-1-5.2-3.5-4.7-6.7c0.4-2.9,2.9-4.9,6.3-4.9
		c2.6,0,5.2,0.1,7.8,0c3-0.2,5.6,0.7,7.7,3C188.6,159.2,189.1,159.6,189.7,160z M195.7,167c38.8-4,77.1-4,115.6,0
		c-0.6-1.3-1.1-2.4-1.6-3.4c-4.2-8.1-8.4-16.2-12.5-24.3c-1.2-2.3-2.9-3.6-5.5-3.9c-6.2-0.6-12.4-1.7-18.7-1.8
		c-12.8-0.3-25.7-0.3-38.5,0c-6.4,0.1-12.8,1.2-19.2,1.8c-2.4,0.3-4.2,1.5-5.3,3.8c-2.2,4.2-4.5,8.3-6.7,12.4
		C200.8,156.6,198.4,161.6,195.7,167z M253.6,220.5C253.6,220.5,253.6,220.5,253.6,220.5c5.6,0,11.3,0,16.9,0c2.5,0,3.1-0.5,3.1-3
		c0-1.7,0-3.5,0-5.2c0-1.6-0.8-2.4-2.4-2.4c-11.7,0-23.4,0-35.2,0c-1.7,0-2.5,0.9-2.5,2.5c0,1.7,0,3.5,0,5.2c0,2.2,0.6,2.8,2.9,2.8
		C242.1,220.5,247.9,220.5,253.6,220.5z M195,205.2c0.5,0,1.6,0,2.6-0.2c4.9-0.7,8-3.7,7.8-7.9c-0.2-8.1-6.6-14.1-14.7-13.7
		c-4.3,0.2-8.4,3.3-9.7,7.5c-1.4,4.4,0.1,8.7,3.9,11.5C187.8,204.5,191.1,205.1,195,205.2z M312.9,205.7c2.8-0.9,5.6-1.4,8.1-2.6
		c4.2-2.1,6.1-6.1,5.5-10.5c-0.6-4.4-3.9-7.9-8.3-8.9c-8.5-1.9-17.2,5.7-16.4,14.3c0.2,2.5,1.3,4.5,3.6,5.5
		C307.7,204.5,310.3,205,312.9,205.7z"/>
	<path class="st2" d="M78.7,82.8c-5.4,0-9.7,4.3-9.7,9.7v57.1c0,2.8,1.2,5.3,3,7c0.6,0.6,1.2,1.2,2,1.6l42.5,26.2
		c4.6,2.8,10.5,1.4,13.3-3.2c2.8-4.6,1.4-10.5-3.2-13.3l-38.3-23.6V92.5C88.4,87.1,84,82.8,78.7,82.8z"/>
</g>
</svg>
