<?xml version="1.0" encoding="utf-8"?>
<!-- Generator: Adobe Illustrator 27.3.1, SVG Export Plug-In . SVG Version: 6.00 Build 0)  -->
<svg version="1.1" id="Layer_1" xmlns="http://www.w3.org/2000/svg" xmlns:xlink="http://www.w3.org/1999/xlink" x="0px" y="0px"
	 viewBox="0 0 400 400" style="enable-background:new 0 0 400 400;" xml:space="preserve">
<style type="text/css">
	.st0{fill:#EE4041;}
	.st1{fill-rule:evenodd;clip-rule:evenodd;fill:#FFFFFF;}
</style>
<g>
	<g>
		<path d="M353.4,240.4c-4-49.9-8.7-99.7-13.2-149.5c-1.6-17.4-10.5-25.7-28-25.8c-39.1-0.1-78.2-0.1-117.3,0
			c-17.6,0-26.5,9.1-27.8,26.6c-1.7,22.5-4,44.9-6.1,68.1c-2.6,0-4.5,0-6.5,0c-14.1,0-28.3-0.1-42.4,0c-12.5,0.1-19.4,8.7-17.3,20.9
			c3,17.2,5.9,34.4,8.7,51.6c2.6,15.8,15,26.6,31,26.8c5.6,0.1,11.3,0,16.4,0c0,16.4-0.1,32,0,47.7c0.1,14.1,9.7,25.6,23.5,27.5
			c5.6,0.8,11.4,0.6,17,0.2c14.6-1.1,25.2-12.8,25.3-27.4c0-8,0-16,0-24c24.9,0,49.1,0,73.8,0c0,8.3-0.1,16.1,0,23.9
			c0.2,13.6,8.5,24.1,21.8,27c4.7,1,9.8,1,14.6,0.8c18.7-0.7,29.6-11.7,29.2-30.3C355.8,283.1,355.1,261.7,353.4,240.4z
			 M154.2,235.5c-7,0-13.6,0.5-20.2-0.3c-2.4-0.3-6-3.3-6.5-5.6c-3-15-5.3-30.1-7.9-45.6c13.3,0,26.2,0,39.4,0
			C157.3,201.2,155.8,218.1,154.2,235.5z M188.8,116.5c0.7-7.6,1.4-15.2,2-22.9c0.2-3,1-4.6,4.5-4.6c39.7,0.1,79.4,0.1,119.1,0.2
			c0.4,0,0.7,0.2,1.9,0.6c2.1,22.8,4.1,46,6.3,69.6c-6.7,0-12.9,0-19.9,0c0-7.8,0-15.4,0-23c0-16.2-8.1-24.2-24.2-24.3
			c-16.9,0-33.8-0.1-50.7,0c-14.4,0.1-22.6,8.3-22.7,22.7c0,8,0,16.1,0,24.6c-7.1,0-13.3,0-20,0C186.3,145,187.5,130.8,188.8,116.5z
			 M278.4,136.8c0,7.2,0,14.4,0,22.2c-16.4,0-32.7,0-49.6,0c0-7.6,0-14.6,0-22.2C245.3,136.8,261.6,136.8,278.4,136.8z M187.5,311.1
			c-0.2,0-0.4,0-0.6,0c-11.5,0.6-11.9,0.2-11.9-11.1c0-4.9,0-9.8,0.1-14.7c0-0.6,0.2-1.2,0.3-2.2c5.7,0,11.4,0,17.8,0
			c0,7.8-0.1,15,0,22.3C193.3,309.5,191.3,311,187.5,311.1z M176.1,258.7c0.9-10.2,1.7-20.1,2.6-30.6c11.2,0,21.9,0,33,0
			c0-8.2,0-15.8,0-24.1c-10.1,0-20,0-30.7,0c0.6-7.1,1.1-13.5,1.7-20.1c47.3,0,94.4,0,141.9,0c0.6,6.6,1.2,12.9,1.8,20
			c-10.8,0-21.1,0-31.7,0c0,8.3,0,15.9,0,23.9c11.1,0,22.1,0,33.7,0c1,10.4,1.9,20.4,2.9,30.8C279.4,258.7,228.2,258.7,176.1,258.7z
			 M332.3,306.9c-0.1,1.4-2,3.6-3.4,3.8c-3.4,0.6-7.1,0.6-10.5,0c-1.5-0.3-3.6-2.6-3.7-4.1c-0.4-7.8-0.2-15.5-0.2-23.8
			c6.4,0,11.8,0,17.9,0C332.4,291,332.6,299,332.3,306.9z"/>
		<path d="M102.3,236.6c-5.1-22.1-7.3-44.9-11.5-67.2c-3.5-18.4-22.3-30.8-40-27.5c-20.2,3.8-33.3,21.4-30.2,40.9
			c2.9,17.8,5.5,35.7,9,53.3c2.5,12.3,2.3,23.8-3.1,35.4c-9.4,20.1-5.1,41.5-6.4,63c8.3,0,15.8,0,24.1,0c0-5.7,0.2-11.2,0-16.6
			c-0.9-18.1,2.2-35.5,9.4-52.1c0.7-1.7,2.3-4,3.8-4.3c8.2-1.7,16.5-2.9,25.5-4.4c7.4,25.9,14.6,51.5,22.2,77.8c4.7,0,10.6,0,16.4,0
			c1.7,0,3.4-0.2,6.6-0.5c-1.7-8.3-2.7-15.9-4.7-23.2C116.4,286.3,108.1,261.8,102.3,236.6z M53.7,237.5
			c-3.3-20.1-6.6-39.6-9.6-59.1c-0.9-6.2,3.6-11.6,9.7-12.8c6.5-1.2,12.4,2.1,13.7,8.9c2.7,13.9,4.8,27.8,7.1,41.7
			c0.9,5.7,1.8,11.4,2.8,17.6C69,235.2,61.5,236.3,53.7,237.5z"/>
		<path d="M49.9,137.4c17.7,0.1,32.7-14.8,32.7-32.6C82.6,87,67.9,72.1,50.1,72c-17.7-0.1-32.5,14.6-32.6,32.6
			C17.4,122.5,32.1,137.3,49.9,137.4z M50,96.2c4.9,0,8.5,3.7,8.5,8.6c0,4.9-3.7,8.6-8.6,8.5c-4.8-0.1-8.5-3.8-8.5-8.6
			C41.4,99.8,45.1,96.1,50,96.2z"/>
	</g>
	<g>
		<circle class="st0" cx="332.5" cy="222.7" r="50"/>
		<path class="st1" d="M323.6,190.3c-3.1,0-5.7,2.5-5.7,5.7v33.5c0,1.6,0.7,3.1,1.8,4.1c0.3,0.4,0.7,0.7,1.2,1l24.9,15.4
			c2.7,1.6,6.2,0.8,7.8-1.9c1.6-2.7,0.8-6.2-1.9-7.8l-22.5-13.8V196C329.3,192.9,326.7,190.3,323.6,190.3z"/>
	</g>
</g>
</svg>
