<?xml version="1.0" encoding="utf-8"?>
<!-- Generator: Adobe Illustrator 27.3.1, SVG Export Plug-In . SVG Version: 6.00 Build 0)  -->
<svg version="1.1" id="Layer_1" xmlns="http://www.w3.org/2000/svg" xmlns:xlink="http://www.w3.org/1999/xlink" x="0px" y="0px"
	 viewBox="0 0 400 400" style="enable-background:new 0 0 400 400;" xml:space="preserve">
<style type="text/css">
	.st0{fill:#F16522;}
	.st1{fill-rule:evenodd;clip-rule:evenodd;fill:#FFFFFF;}
</style>
<g>
	<path d="M355.6,300.7c0,4.6,0,9,0,13.4c-0.1,5.7-2.6,8.8-8.2,8.9c-7.3,0.2-14.6,0.2-21.9,0c-5.4-0.2-7.9-3-8.1-8.5
		c-0.1-4.2,0-8.5,0-13c-41.2,0-81.9,0-123.3,0c0,4.1,0.1,8.2,0,12.2c-0.2,6.6-2.7,9.2-9.3,9.3c-6.5,0.1-13,0.1-19.5,0
		c-6.7-0.1-9.4-3-9.5-9.7c0-1-0.1-1.9,0-2.9c0.6-6.1,0-10.5-7.1-13.5c-7.1-3-10.9-10.1-11.1-18.1c-0.3-13-0.4-26,0-39
		c0.1-4.2,1.9-8.6,3.5-12.6c2.2-5.4,5.1-10.4,8-16.3c-6,0-11.3-0.1-16.6,0c-3.8,0.1-5.6-1.4-5.5-5.3c0.1-4.8,0.1-9.5,0-14.3
		c-0.1-3.5,1.7-4.9,5-4.9c5.7,0,11.4,0,17.1,0c3.1,0,5,1.4,5.9,4.4c0.4,1.3,1.1,2.5,2,4.3c5.7-13.3,11.4-26,16.6-38.9
		c4.9-12,13.7-17.5,26.5-17.5c37.1,0.1,74.2,0.1,111.3,0c12.7,0,21.3,5.5,26.2,17.3c5.3,12.8,10.9,25.5,16.7,39
		c0.8-1.6,1.4-2.5,1.7-3.5c1.1-3.8,3.5-5.3,7.4-5.2c5.2,0.2,10.5,0.1,15.7,0c3.5,0,5.3,1.5,5.3,5.2c-0.1,4.8,0,9.5,0,14.3
		c0,3.6-1.6,5.2-5.2,5.1c-5.4-0.1-10.7,0-16.9,0c2.7,5.3,5,10.2,7.5,14.8c3.2,6,4.6,12.4,4.6,19.1c-0.1,8.7-0.3,17.4,0,26.2
		C374.9,285.3,370.1,296,355.6,300.7z M327.8,200.9c-5.7-13.3-10.9-25.8-16.4-38.2c-0.4-1-2.5-1.7-3.8-1.7
		c-34.4-0.1-68.8,0-103.2-0.1c-2.7,0-3.9,0.9-4.9,3.3c-4.7,11.2-9.5,22.4-14.3,33.6c-0.4,0.9-0.5,2-0.8,3.1
		C232.2,200.9,279.5,200.9,327.8,200.9z M189.7,262.5c5.4,0,10.8-0.1,16.1,0c3.1,0.1,4.8-1.2,4.9-4.3c0-4.3,0-8.5,0-12.8
		c0-2.9-1.5-4.3-4.5-4.3c-10.8,0-21.5,0-32.3,0c-3.1,0-4.7,1.4-4.7,4.6c0,4,0,7.9,0,11.9c0,3.6,1.6,5.1,5.2,5
		C179.6,262.4,184.6,262.5,189.7,262.5z M321.4,262.5c5.4,0,10.8-0.1,16.1,0c3.4,0.1,4.9-1.5,4.9-4.8c-0.1-4.1,0-8.2,0-12.3
		c0-2.7-1.3-4.2-4-4.2c-11.1,0-22.1,0-33.2,0c-2.7,0-4,1.4-4,4.1c0,4.3,0.1,8.5,0,12.8c0,3.2,1.4,4.6,4.6,4.5
		C310.9,262.4,316.1,262.5,321.4,262.5z"/>
	<path d="M77.8,199.5c-1.4,5.6-2.7,10.4-3.7,15.3c-1.5,7-4.6,13-9.8,18.1c-1.3,1.3-1.9,3.9-1.9,5.9c-0.1,21.9,0,43.7-0.1,65.6
		c0,10.4-5.1,17.2-13.7,19.1c-11.2,2.4-21-5.7-21.1-17.7c-0.1-22-0.1-44,0-66.1c0-3.3-0.7-5.7-3.3-8.2c-7.9-7.6-10.2-17.3-7.8-27.9
		c2.6-11.9,5.5-23.7,8.4-35.5c5.5-22.3,29.2-31.2,47-17.5c3.3,2.5,5.9,6.2,7.9,9.8c7.8,13.8,15.2,27.8,27.3,38.5
		c2.6,2.3,6,4,9.4,5.1c6,2,9.7,6.8,8.8,12.3c-1.1,6.1-5.8,9.8-12.3,9.3c-11.5-0.8-19.3-8-26.6-15.9C83.5,206.6,81,203.3,77.8,199.5z
		"/>
	<path d="M110.4,110.7c0.2,19-15.1,34.6-34,34.7c-19.3,0.2-34.7-14.9-35.1-34.2c-0.4-18.7,15.7-34.9,34.6-35
		C94.6,76.2,110.2,91.7,110.4,110.7z"/>
	<g>
		<circle class="st0" cx="255.8" cy="125.9" r="49.7"/>
	</g>
	<path class="st1" d="M249.9,98.2c-2.9,0-5.2,2.3-5.2,5.2v30.7c0,1.5,0.6,2.8,1.6,3.8c0.3,0.3,0.7,0.6,1.1,0.9l22.8,14
		c2.4,1.5,5.7,0.7,7.2-1.7c1.5-2.4,0.7-5.7-1.7-7.2l-20.5-12.7v-27.8C255.1,100.6,252.8,98.2,249.9,98.2z"/>
</g>
</svg>
