<?xml version="1.0" encoding="utf-8"?>
<!-- Generator: Adobe Illustrator 27.3.1, SVG Export Plug-In . SVG Version: 6.00 Build 0)  -->
<svg version="1.1" id="Layer_1" xmlns="http://www.w3.org/2000/svg" xmlns:xlink="http://www.w3.org/1999/xlink" x="0px" y="0px"
	 viewBox="0 0 400 400" style="enable-background:new 0 0 400 400;" xml:space="preserve">
<style type="text/css">
	.st0{fill:none;stroke:#000000;stroke-miterlimit:10;}
	.st1{stroke:#000000;stroke-miterlimit:10;}
</style>
<g>
	<path class="st0" d="M177.8,140c21.3-11,38.5-26.7,53.2-45.4c2.9-3.8,6.8-3.8,9.7,0.1c1.8,2.3,3.5,4.7,5.4,6.8
		c10,11.4,20.1,22.7,30.1,34c1.4,1.5,2.8,3.1,4.4,4.9c0.2-2.7,0.4-5,0.6-7.3c1.1-11.7,1-23.4-0.4-35.1c-1.1-9.7-3.1-19.1-6.8-28.2
		c-3.7-9.3-9-17.4-16.8-23.8c-10-8.2-21.8-11.3-34.4-11.8c-11-0.5-21.8,1.5-32.6,3c-12.5,1.7-24.6,5.3-36,10.9
		c-11.8,5.7-22.1,13.3-30,23.9c-9.5,12.9-13.5,27.5-13.5,43.3c0,7.2,0.6,14.5,1.9,21.6c1.6,8.9,4.1,17.6,6.2,26.3
		c0.2-0.1,0.5-0.1,0.7-0.2c4.6-7,10.9-9.1,17.4-10C151.3,150.9,164.9,146.7,177.8,140z"/>
	<path class="st0" d="M121.9,58.2c11.2-11.7,24.7-19.6,39.8-24.8c8.5-2.9,17.2-4.9,25.8-7.3c-1.1-0.7-2.5-1.5-3.9-2.3
		c-0.4-0.2-0.9-0.3-1.3-0.4c-11-2.8-22.2-3.4-33.5-2c-12.1,1.5-23.7,4.7-34.6,10.2C100.8,38.3,94,49.5,92.7,64.2
		c-0.9,9.7,0.1,19.4,0.9,29c0.8,10.3,1.8,20.5,0.3,30.7c-1,7.1-3.2,13.8-7.6,19.6c-4.8,6.5-10.4,12.2-18.4,15.4
		c5.6,3.2,11.4,5,17.7,4.8c7.1-0.3,13.4-3.1,19.2-6.9c0.9-0.6,1-1.1,0.8-2.1c-1.3-5.9-2.8-11.9-3.8-17.9c-2.4-13.2-2.6-26.4,0-39.6
		C104.8,82.4,111.3,69.3,121.9,58.2z"/>
	<path class="st0" d="M218.1,234.9c16.7-2.5,29.5-11.1,38.7-25c10.8-16.2,15.4-34.4,16.6-53.5c0.5-7.8,0.2-7.7-5.2-13.7
		c-10.9-12.1-21.8-24.3-32.8-36.5c-0.9,1-1.9,2.1-2.8,3.3c-10.8,12.5-23,23.5-36.9,32.6c-17.6,11.4-36.7,18.6-57.4,21.7
		c-8.7,1.3-11.2,4.6-10.7,12.6c0.4,5.6,2.3,10.9,4.8,15.9c6.6,13.2,16.6,23.4,29,31.1C178.8,234,197.8,238,218.1,234.9z"/>
	<path class="st0" d="M335.9,299.8c-7.3-6.9-16-11.5-25.4-14.7c-16.2-5.6-33.1-7.3-50.1-7.5c-2.1,0-4.2,0.1-6.3-0.2
		c-5-0.6-8.4-3.7-11.1-7.8c-3.2-4.9-4.9-10.4-6.3-16.1c-0.9-3.9-1.7-7.8-2.5-11.7c-23.3,7.7-46,5.8-68.3-3.9
		c-0.8,4.6-1.5,9.1-2.5,13.6c-1.5,6.9-3.5,13.6-7.7,19.4c-3.1,4.2-7.2,6.4-12.6,6.6c-8.6,0.3-17.2,0.8-25.8,1.6
		c-11.2,1.1-22.1,3.8-32.5,8.3c-14.6,6.4-25.9,16.3-32.8,30.8c-4.5,9.4-6.8,19.4-7.8,29.7c-1,10.4-0.8,20.7,0.1,31.1
		c103.8,0,207.4,0,311.1,0c0.2-3,0.3-5.8,0.5-8.6c0.8-13,0.4-25.9-2.5-38.7C350.6,319.6,345.2,308.6,335.9,299.8z"/>
	<path class="st1" d="M363.4,327.3c-4.7-18.3-14.5-33.1-30.6-43.4c-8.8-5.6-18.4-9.3-28.4-11.8c-15-3.8-30.3-5.3-45.7-5.1
		c-3.8,0-5.9-1.4-7.4-4.6c-0.3-0.7-0.7-1.4-1-2.1c-3.1-7.1-4.3-14.7-5.5-22.3c-0.1-0.6,0.5-1.6,1-2c2.7-2.2,5.7-4.1,8.3-6.4
		c10.4-9.4,17.4-21.2,22.3-34.3c4.8-12.9,7.4-26.3,8-40.1c4-0.8,5.4-2,5.8-6c0.9-8.5,1.9-17,2.3-25.5c0.6-10.9-0.2-21.8-1.8-32.7
		c-1.7-11.5-4.8-22.6-10.3-32.9c-6.5-12.4-15.7-22-28.4-28c-12.3-5.8-25.3-7.3-38.7-6.3c-3.8,0.3-7.4,0.1-10.8-1.8
		c-4.4-2.4-8.7-4.9-13.1-7.3c-1-0.6-2.1-1.1-3.2-1.4c-13.1-3.4-26.4-4.1-39.7-2.4c-12.3,1.6-24.2,5-35.4,10.3
		c-10.6,5.1-19,12.4-24.1,23.3c-3.8,8.1-5.1,16.7-5.1,25.5c0,8.1,0.8,16.2,1.2,24.3c0.4,7.4,1,14.7,0.9,22.1
		c-0.1,10.9-3.9,20.4-12.3,27.8c-6.2,5.5-12.7,8.1-19.9,1.4c-0.3-0.3-0.7-0.6-1.2-0.7c-1.1-0.2-2.4-0.7-3.4-0.4
		c-4.5,1-5.7,5.8-2.4,9.4c5.1,5.5,10.7,10.5,17.3,14.2c10.9,6.3,22.5,8.5,34.7,4.5c4.3-1.4,8.4-3.5,12.6-5.4
		c1.3,3.5,2.5,7.3,4.1,10.8c0.6,1.4,2.2,2.5,3.3,3.7c0.4,0.5,1.1,1,1.2,1.5c4,16.6,13.6,29.4,26.2,40.4c3.7,3.2,7.8,6,11.7,9
		c-0.2,0.9-0.4,1.9-0.6,2.9c-0.8,4.9-1.4,9.9-2.5,14.7c-1.1,5.1-2.6,10.2-5.8,14.5c-1,1.3-2.2,1.9-3.8,2c-7.8,0.3-15.7,0.5-23.5,1.2
		c-13.4,1.2-26.4,4.1-38.8,9.5c-17.2,7.5-30.3,19.2-38.5,36.3c-6.7,14.1-9.1,29.2-9.3,44.6c-0.1,8.8,0.7,17.6,1.1,26.4
		c0.2,3,2.4,5,5.5,5c9.2,0,18.5,0,27.7,0c97.4,0,194.9,0,292.3,0c3.7,0,5.8-2,6.1-5.7c0.3-4.4,0.7-8.8,0.9-13.2
		C367.5,356.3,367,341.7,363.4,327.3z M101.8,136.9c1.1,6,2.5,11.9,3.8,17.9c0.2,1,0.1,1.5-0.8,2.1c-5.9,3.8-12.1,6.7-19.2,6.9
		c-6.3,0.2-12-1.5-17.7-4.8c7.9-3.2,13.5-8.9,18.4-15.4c4.3-5.8,6.5-12.5,7.6-19.6c1.5-10.3,0.5-20.5-0.3-30.7
		c-0.8-9.6-1.8-19.3-0.9-29c1.3-14.8,8.1-25.9,21.5-32.6c10.9-5.4,22.5-8.7,34.6-10.2c11.3-1.4,22.5-0.8,33.5,2
		c0.4,0.1,0.9,0.2,1.3,0.4c1.4,0.8,2.8,1.7,3.9,2.3c-8.6,2.4-17.3,4.5-25.8,7.3c-15.1,5.1-28.7,13.1-39.8,24.8
		c-10.6,11-17.1,24.1-20.1,39.1C99.1,110.5,99.4,123.7,101.8,136.9z M119.5,163c-0.2,0.1-0.5,0.1-0.7,0.2
		c-2.1-8.8-4.6-17.5-6.2-26.3c-1.3-7.1-1.8-14.4-1.9-21.6c0-15.8,4-30.4,13.5-43.3c7.9-10.6,18.2-18.2,30-23.9
		c11.4-5.6,23.5-9.2,36-10.9c10.8-1.5,21.6-3.4,32.6-3c12.6,0.5,24.4,3.6,34.4,11.8c7.8,6.4,13,14.5,16.8,23.8
		c3.6,9.1,5.6,18.5,6.8,28.2c1.4,11.7,1.4,23.4,0.4,35.1c-0.2,2.3-0.4,4.6-0.6,7.3c-1.6-1.8-3-3.3-4.4-4.9
		c-10.1-11.3-20.1-22.7-30.1-34c-1.9-2.2-3.6-4.5-5.4-6.8c-2.9-3.8-6.7-3.8-9.7-0.1c-14.7,18.7-32,34.4-53.2,45.4
		c-12.9,6.7-26.5,10.9-40.9,13C130.5,153.9,124.1,156,119.5,163z M132.4,192.2c-2.5-5-4.4-10.3-4.8-15.9c-0.5-8,1.9-11.3,10.7-12.6
		c20.7-3.1,39.8-10.3,57.4-21.7c13.9-9,26.1-20,36.9-32.6c1-1.1,2-2.3,2.8-3.3c11,12.2,21.8,24.4,32.8,36.5c5.4,6,5.7,5.9,5.2,13.7
		c-1.2,19.2-5.9,37.3-16.6,53.5c-9.3,13.9-22,22.4-38.7,25c-20.3,3.1-39.3-0.9-56.7-11.7C149,215.6,139.1,205.4,132.4,192.2z
		 M356,370.6c-0.2,2.8-0.3,5.7-0.5,8.6c-103.7,0-207.3,0-311.1,0c-0.9-10.5-1-20.8-0.1-31.1c1-10.4,3.3-20.3,7.8-29.7
		c6.9-14.5,18.2-24.4,32.8-30.8c10.4-4.5,21.2-7.3,32.5-8.3c8.6-0.8,17.2-1.3,25.8-1.6c5.4-0.2,9.5-2.4,12.6-6.6
		c4.2-5.8,6.2-12.6,7.7-19.4c1-4.5,1.7-9,2.5-13.6c22.3,9.6,45,11.6,68.3,3.9c0.8,3.9,1.5,7.8,2.5,11.7c1.4,5.6,3.1,11.1,6.3,16.1
		c2.6,4.1,6,7.2,11.1,7.8c2.1,0.3,4.2,0.1,6.3,0.2c17,0.3,33.9,1.9,50.1,7.5c9.4,3.2,18.1,7.9,25.4,14.7c9.3,8.8,14.7,19.7,17.6,32
		C356.4,344.6,356.8,357.6,356,370.6z"/>
</g>
</svg>
