<?xml version="1.0" encoding="utf-8"?>
<!-- Generator: Adobe Illustrator 27.3.1, SVG Export Plug-In . SVG Version: 6.00 Build 0)  -->
<svg version="1.1" id="Layer_1" xmlns="http://www.w3.org/2000/svg" xmlns:xlink="http://www.w3.org/1999/xlink" x="0px" y="0px"
	 viewBox="0 0 400 400" style="enable-background:new 0 0 400 400;" xml:space="preserve">
<g>
	<path d="M256.2,341.4c0-2.3,0-4.1,0-5.9c0-12.7,0.1-25.5,0-38.2c-0.1-6.3-3.8-9.7-9.4-8.8c-4.2,0.6-6.7,3.8-6.7,9.2
		c-0.1,12.9,0,25.8,0,38.7c0,1.7,0,3.5,0,5.1c-46.8,0-92.8,0-139.2,0c0-2.3,0-4.3,0-6.3c0-12.2,0.1-24.5,0-36.7c0-6.5-3-10-8.1-10
		c-5.1,0-8.1,3.5-8.2,9.9c-0.1,11.7,0,23.5,0,35.2c0,2.6,0,5.2,0,8c-8.8,0-16.9,0-25.5,0c0-1.6,0-2.9,0-4.2c0-18.3,0-36.5,0-54.8
		c0-12.1,6-19.5,17.6-22.3c7.8-1.9,15.6-3.7,23.3-5.8c3.5-1,6.1-0.5,9.1,1.8c17.5,13.8,35.2,27.3,52.8,40.9c8,6.1,9.4,6.1,17.4-0.1
		c17.9-13.8,35.8-27.7,53.7-41.4c1.3-1,3.5-2.1,4.7-1.7c14.5,4.7,31.6,3,42.4,18.7c0.4-3.8,0.8-6.3,0.8-8.7c-0.1-7-0.5-14-0.6-21
		c-0.3-37.5,0.9-75-4.3-112.2c-3.2-22.6-7.7-44.8-17.2-65.7c-9.7-21.5-23.5-39.4-45.6-49.5c-15.1-6.9-31.1-8.7-47.5-8.4
		c-38.6,0.9-66.2,18.5-82.7,53.5C71.6,84.9,66.7,111,63.2,137.4c-4.9,36.2-6.4,72.7-6.5,109.2c0,2.6-1.5,5.7-3.3,7.7
		c-5.7,6.2-10.3,13.1-10.5,21.7c-0.5,22.8-0.7,45.5-0.4,68.3c0.1,8.2,6.3,13.3,14.6,13.4c8.5,0.1,17.1,0,25.6,0
		c59.1,0,118.3,0,177.4-0.1c1.7,0,4.1,0,5-1.1c4.4-4.9,8.5-10.1,12.7-15.2C271,341.4,263.8,341.4,256.2,341.4z M170,283.4
		c-14.9-11.6-29.7-23-45.7-35.3c15.1-3.9,25.8-11.1,24.5-29c14.5,7.5,27.9,7.4,42.5,1c-1.6,17.5,9.2,24.1,24.5,27.9
		C199.9,260.3,185.1,271.7,170,283.4z M112.4,144.5c-0.4-1.5-0.1-3.9,0.8-5c9.5-11,15.2-24,19.7-37.5c1.2-3.7,2.9-5.1,6.7-4.6
		c3,0.4,6,0.3,9,0.5c17.4,1.1,34.9,2.2,51.2,8.7c9.7,3.8,18.7,9.5,27.8,14.7c1.4,0.8,2.5,3.5,2.4,5.2c-2.4,24.9-11.5,47-28.1,65.7
		c-7.2,8.1-15.7,14.4-27,16.2c-8.4,1.4-15.7-1.1-22.3-5.6C132,188.3,119.3,168.3,112.4,144.5z M262.8,158.8
		c0.5,27.6,1,55.2,1.4,82.8c0,0.4-0.3,0.9-0.6,1.6c-8.6-2.1-17.2-4.2-25.8-6.3c-7.2-1.8-14.6-3.2-21.5-5.8c-10.5-4-12.8-17.7-5-25.8
		c16.8-17.4,26.9-38.5,32.5-61.8c0.4-1.8,0.8-3.5,1.5-6c5.8,6.3,11,12,16.1,17.7C262.2,156.1,262.8,157.6,262.8,158.8z M83.1,115.3
		c3.5-14.4,6.8-29.1,12.3-42.8c15.6-38.5,43.8-51.8,83.4-49.1c30.9,2.1,51.5,18.3,64.3,45.7c8.2,17.6,12.7,36.2,15.9,55.2
		c0.1,0.8,0,1.6,0,2.6c-6.1-5.7-11.6-11.4-17.8-16.5c-21.6-17.8-47-25.7-74.4-27.9c-11.5-0.9-23.1-1.4-34.6-1.9
		c-7.6-0.3-9.5,1.3-11.9,8.7c-1.5,4.4-3.2,8.8-4.6,13.2c-6.3,19.3-19.2,32.9-37.7,43C79.7,135.1,80.7,125,83.1,115.3z M73.1,219.8
		c0.5-14.1,1-28.1,2.1-42.1c0.3-3.5,2-7.5,4.4-10.1C85,162,91.1,157,96.5,152.1c5.8,11.2,10.6,22,16.9,32
		c4.8,7.7,11.5,14.3,17.2,21.5c1.4,1.8,2.6,4.3,2.6,6.5c-0.1,15-6.1,20.9-23.1,24.1c-10.5,2-20.9,4.4-31.3,6.7
		c-1.8,0.4-3.6,0.8-5.7,1.3C73.1,235.8,72.8,227.8,73.1,219.8z"/>
	<path d="M357.5,279.7c-0.1-11.1-9.6-21-20.3-22.3c-4.3-0.5-8.7-0.3-13-0.4c-8.5,0-17,0-25.8,0c0-12.1,0-23.5,0-35.8
		c4.2,0,7.9,0,11.5,0c3.3,0,5.9-1,5.8-4.6c-0.1-3.5-2.8-4.6-6-4.6c-5,0-10.1,0.1-15.1,0c-4.1-0.1-5.6,2-5.6,5.9
		c-0.1,18.7-0.4,37.5-0.5,56.2c-0.1,23.6,0,47.2,0.1,70.9c0,2.7-0.8,4-3.5,5c-8.9,3.3-14.2,9.9-14.8,19.6c-0.6,9.3,4.6,17.6,13,21.3
		c8.9,3.9,16.9,2.1,24.3-4c1.8-1.5,4.6-2.5,7-2.7c7.7-0.4,15.4,0.1,23.1-0.4c10.8-0.6,19.8-9.5,19.9-20.3
		C357.8,335.7,357.8,307.7,357.5,279.7z M292.2,382c-6.2,0-11.1-4.8-11.2-11.1c-0.1-6.2,4.8-11.2,11-11.2
		c6.1-0.1,11.2,4.9,11.2,11.1C303.3,377.1,298.5,382,292.2,382z M346.5,361.3c0,6-4.3,11.1-9.9,11.5c-7.3,0.4-14.6,0.1-22.2,0.1
		c0-10.3-4-18-13.2-22.6c-0.9-0.5-1.8-2-1.8-3.1c-0.1-25.8,0-51.5,0-77.3c0-0.5,0.3-0.9,0.7-1.9c10.2,0,20.5-0.1,30.9,0.1
		c3.1,0.1,6.4,0.4,9.1,1.8c4.2,2.2,6.4,6.2,6.4,11.2C346.6,307.8,346.6,334.5,346.5,361.3z"/>
</g>
</svg>
