<?xml version="1.0" encoding="utf-8"?>
<!-- Generator: Adobe Illustrator 27.3.1, SVG Export Plug-In . SVG Version: 6.00 Build 0)  -->
<svg version="1.1" id="Layer_1" xmlns="http://www.w3.org/2000/svg" xmlns:xlink="http://www.w3.org/1999/xlink" x="0px" y="0px"
	 viewBox="0 0 400 400" style="enable-background:new 0 0 400 400;" xml:space="preserve">
<style type="text/css">
	.st0{fill:#EE4041;}
	.st1{fill:#FFFFFF;}
</style>
<g>
	<path d="M360.3,303.7c0,4.7,0,9.2,0,13.8c-0.1,5.9-2.7,9-8.4,9.2c-7.5,0.2-15,0.2-22.5,0c-5.6-0.2-8.2-3.1-8.3-8.8
		c-0.1-4.4,0-8.7,0-13.3c-42.4,0-84.3,0-127,0c0,4.2,0.1,8.4,0,12.6c-0.2,6.8-2.8,9.4-9.6,9.6c-6.7,0.1-13.4,0.1-20.1,0
		c-6.9-0.1-9.6-3-9.7-10c0-1-0.1-2,0-2.9c0.7-6.3,0-10.8-7.3-13.9c-7.3-3.1-11.2-10.4-11.4-18.7c-0.3-13.4-0.4-26.8,0-40.1
		c0.1-4.4,1.9-8.8,3.6-13c2.3-5.5,5.2-10.7,8.2-16.8c-6.2,0-11.7-0.1-17.1,0c-3.9,0.1-5.8-1.4-5.7-5.4c0.1-4.9,0.1-9.8,0-14.7
		c-0.1-3.6,1.8-5.1,5.1-5.1c5.9,0,11.8,0,17.6,0c3.2,0,5.2,1.4,6.1,4.5c0.4,1.3,1.2,2.6,2,4.4c5.9-13.7,11.7-26.8,17.1-40
		c5-12.4,14.1-18.1,27.3-18c38.2,0.1,76.4,0.1,114.6,0c13.1,0,22,5.6,27,17.8c5.4,13.2,11.2,26.3,17.2,40.1c0.8-1.7,1.5-2.6,1.7-3.6
		c1.1-3.9,3.6-5.5,7.6-5.3c5.4,0.2,10.8,0.1,16.2,0.1c3.6,0,5.5,1.6,5.4,5.3c-0.1,4.9,0,9.8,0,14.7c0,3.7-1.7,5.3-5.4,5.2
		c-5.5-0.1-11,0-17.4,0c2.8,5.5,5.1,10.5,7.7,15.3c3.3,6.2,4.8,12.7,4.7,19.7c-0.1,9-0.3,18,0,26.9
		C380.1,287.9,375.2,298.8,360.3,303.7z M331.6,200.9c-5.8-13.7-11.2-26.5-16.9-39.3c-0.4-1-2.6-1.8-3.9-1.8
		c-35.4-0.1-70.9,0-106.3-0.1c-2.7,0-4,0.9-5.1,3.4c-4.8,11.6-9.8,23.1-14.7,34.6c-0.4,0.9-0.5,2-0.8,3.2
		C233.1,200.9,281.9,200.9,331.6,200.9z M189.4,264.3c5.5,0,11.1-0.1,16.6,0c3.2,0.1,5-1.2,5-4.5c0-4.4,0-8.8,0-13.2
		c0-3-1.6-4.4-4.6-4.4c-11.1,0-22.2,0-33.2,0c-3.2,0-4.8,1.4-4.8,4.7c0,4.1,0,8.1,0,12.2c0,3.7,1.7,5.3,5.4,5.1
		C178.9,264.2,184.2,264.3,189.4,264.3z M325,264.3c5.5,0,11.1-0.1,16.6,0c3.5,0.1,5.1-1.5,5-5c-0.1-4.2,0-8.5,0-12.7
		c0-2.8-1.3-4.3-4.1-4.3c-11.4,0-22.8,0-34.2,0c-2.8,0-4.2,1.4-4.1,4.2c0,4.4,0.1,8.8,0,13.2c-0.1,3.3,1.5,4.7,4.8,4.6
		C314.2,264.3,319.6,264.3,325,264.3z"/>
	<path d="M74.1,199.5c-1.4,5.8-2.8,10.7-3.9,15.7c-1.6,7.2-4.7,13.4-10.1,18.6c-1.4,1.3-2,4-2,6c-0.1,22.5,0,45-0.1,67.5
		c0,10.7-5.2,17.8-14.1,19.7c-11.5,2.5-21.6-5.9-21.7-18.2c-0.1-22.7-0.1-45.4,0-68c0-3.4-0.7-5.9-3.4-8.5
		c-8.2-7.9-10.5-17.8-8.1-28.7c2.7-12.2,5.6-24.4,8.6-36.6c5.7-23,30-32.1,48.4-18c3.4,2.6,6.1,6.4,8.2,10.1
		c8.1,14.2,15.7,28.7,28.1,39.7c2.7,2.4,6.2,4.1,9.6,5.3c6.1,2.1,10,7,9,12.6c-1.1,6.3-5.9,10.1-12.6,9.6
		c-11.8-0.9-19.9-8.2-27.4-16.4C80,206.8,77.4,203.4,74.1,199.5z"/>
	<path d="M107.7,108c0.2,19.6-15.5,35.6-35.1,35.8c-19.9,0.2-35.8-15.3-36.2-35.3c-0.4-19.2,16.2-36,35.6-36
		C91.5,72.5,107.5,88.5,107.7,108z"/>
	<g>
		<circle class="st0" cx="257.5" cy="123.7" r="51.2"/>
		<path class="st1" d="M251.4,138.6h11.6l3.3-33c0-10.4-5.1-12.1-9.3-12.1c-7.1,0-8.7,8.2-8.4,12.1L251.4,138.6z"/>
		<rect x="251.9" y="144.2" class="st1" width="11.2" height="10.2"/>
	</g>
</g>
</svg>
