<?xml version="1.0" encoding="utf-8"?>
<!-- Generator: Adobe Illustrator 27.3.1, SVG Export Plug-In . SVG Version: 6.00 Build 0)  -->
<svg version="1.1" id="Layer_1" xmlns="http://www.w3.org/2000/svg" xmlns:xlink="http://www.w3.org/1999/xlink" x="0px" y="0px"
	 viewBox="0 0 400 400" style="enable-background:new 0 0 400 400;" xml:space="preserve">
<g>
	<path d="M301.4,71.1c-15.5-24.5-37.1-41.4-64.7-50.2c-8-2.5-16.3-3.8-24.5-5.6c-6.3-0.1-12.5-0.3-18.8-0.4
		c-5.7,0.9-11.4,1.5-17,2.7c-27.8,5.9-50.8,19.9-68.8,42c-13.2,16.2-21.5,34.6-24.9,55.2c-3.7,22.6-1.4,44.5,7.2,65.8
		c6.4,16,16.8,29.3,28.4,41.9c17.9,19.4,31.4,41.6,41.4,66c10.1,24.8,14.8,50.7,16.5,77.2c0.7,10.5,7.9,18.6,17.5,19.4
		c10.5,0.8,18.8-5.3,21-16.1c1.3-6.6,1.9-13.3,2.9-20c5-34.9,17.9-66.6,38.1-95.5c9.6-13.8,21.5-25.6,32.9-37.8
		c17.9-19.3,28.1-42.4,30.6-68.6C321.8,119.8,316.1,94.3,301.4,71.1z M306.9,148.2c-3.1,26.2-15.2,48-34,66.4
		c-30.5,29.9-51.3,65.6-62,106.9c-3.7,14.4-5.4,29.3-7.9,43.9c-0.9,5-3.4,7.5-7.7,7.4c-4.1-0.1-6.6-2.8-7-7.6
		c-1.8-21-4.4-41.8-10.6-62c-10.5-33.8-27.4-64-51.6-90c-12.8-13.8-23.2-28.8-28.6-47c-3.2-10.9-4.7-22.1-4.5-33.4
		c0.9-51.4,37.9-94.8,88.8-104c43.4-7.9,88.4,13,110.9,51.2C305.2,101.1,309.7,124,306.9,148.2z"/>
	<path d="M202.5,39c-52.7-1.2-96.4,40.7-97.6,93.4c-1.1,52.7,40.8,96.4,93.5,97.5c52.7,1.1,96.4-40.9,97.4-93.6
		C296.8,83.7,255,40.2,202.5,39z M198.7,217.9c-45.8-0.8-82.9-39.4-81.7-85.3c1.1-46.1,39-82.4,85-81.5c46,0.9,82.3,38.5,81.8,84.8
		C283.2,181.7,244.8,218.7,198.7,217.9z"/>
	<path d="M233.6,84.1c-22.6-13.3-46-12.9-68.3,1c-19.6,12.2-29.4,30.6-30.8,53.9c4.3,0.1,8.1,0.2,12,0.2
		c1.7-31.3,26.2-52.4,54.1-52.4c26.7,0,53.3,21.3,53.6,54.6c3.8,0.1,7.6,0.2,12,0.2C265.3,116.4,255.1,96.7,233.6,84.1z"/>
	<path d="M223.2,105.6c-14.6-9.5-30-9.7-44.9-0.7c-12.7,7.7-19,19.5-20,34.5c4.2,0.1,8,0.2,12,0.2c1.9-18.6,14.9-28.8,30.2-29
		c6.5-0.1,12.5,2,17.7,6.1c7.8,6.1,11.4,14.3,11.8,24.1c4.1,0.1,7.9,0.2,12.1,0.2C241.7,126,235.9,113.8,223.2,105.6z"/>
	<path d="M200.4,122.5c-9.9-0.1-18.1,7.9-18.2,17.7c-0.1,9.9,7.8,17.9,17.8,18c9.9,0.1,18.1-7.8,18.2-17.6
		C218.3,130.8,210.2,122.6,200.4,122.5z M199.6,146.1c-3.2-0.3-5.5-3-5.2-6.2c0.3-3.1,3.2-5.6,6.2-5.3c3.1,0.2,5.6,3,5.4,6.1
		C205.8,144,203,146.4,199.6,146.1z"/>
</g>
</svg>
