<?xml version="1.0" encoding="utf-8"?>
<!-- Generator: Adobe Illustrator 27.3.1, SVG Export Plug-In . SVG Version: 6.00 Build 0)  -->
<svg version="1.1" id="Layer_1" xmlns="http://www.w3.org/2000/svg" xmlns:xlink="http://www.w3.org/1999/xlink" x="0px" y="0px"
	 viewBox="0 0 400 400" style="enable-background:new 0 0 400 400;" xml:space="preserve">
<g>
	<path d="M380.9,37.6c1.2-1.2,2.4-2.3,3.4-3.6c5.5-7.1,2.5-17.6-6-20.3c-5.6-1.8-10.3-0.1-14.4,4.1C341,40.7,318,63.6,295.2,86.4
		c-1,1-2.1,2-3.3,3.2c-11.4-9.4-23.7-16.8-37.1-22.3c-13.3-5.5-27.3-8.8-41.8-10.3c0-10.7,0.1-21.1,0-31.4
		c-0.1-7.1-5.8-12.5-12.9-12.5c-7.1,0-12.7,5.4-13,12.5c-0.1,2.2,0,4.3,0,6.5c0,8.3,0,16.5,0,24.8c-4.9,0.8-9.3,1.3-13.7,2.1
		c-26.1,4.9-49.1,16.3-68.9,34c-3.5,3.1-5.1,7-4.3,11.7c1.5,9.9,13.4,15,22.6,7c29.2-25,62.9-33.8,100.6-26.7
		c18.5,3.5,35,11.4,50.1,23.4c-12.5,12.6-24.8,25-36.9,37.3c-30-18.4-62.1-11.6-81.6,7.2c-9.8,9.4-16.2,20.7-18.8,34
		c-3.5,17.6-0.1,33.9,9.2,48.7c-12.5,12.6-24.8,24.9-37.1,37.2c-0.1-0.1-0.4-0.1-0.5-0.3c-0.8-0.9-1.6-1.9-2.3-2.9
		c-21.3-30.1-27.9-63.1-19-99c2.1-8.6-1.2-15.7-8.4-17.7c-7.8-2.2-14.6,2.1-16.8,11.1c-1.8,7.5-3.1,15.1-4.7,23
		c-9.2,0-18.5,0-27.9,0c-1.9,0-3.8-0.1-5.7,0.4c-6.6,1.5-10.6,7.5-9.8,14.4c0.7,6.2,6,11.1,12.5,11.1c10.3,0.1,20.6,0,31.3,0
		c3,29.9,13.9,55.9,32.9,79.3c-4,3.8-7.9,7.4-11.6,11.1c-20.3,20.3-40.6,40.5-60.8,60.8c-4.7,4.7-5.7,10.8-2.9,16
		c2.7,5.1,8.4,8,14.1,6.4c3.1-0.9,6.1-3,8.4-5.3c72.7-72.6,145.4-145.3,218.1-217.9C297,121.4,338.9,79.5,380.9,37.6z M164.4,215.6
		c-7.2-12.9-3.7-31.9,8.2-43.6c11.7-11.5,30.9-14.7,42.9-7.6C198.6,181.4,181.4,198.6,164.4,215.6z"/>
	<path d="M371.1,187c-6.1,0-12.2,0-18.4,0c-3.2,0-6.4,0-9.7,0c-0.5-3.3-0.5-6.2-1.3-8.9c-3.3-11.9-6.5-23.8-10.3-35.5
		c-1.8-5.4-7.1-8.1-12.6-7.8c-5.2,0.3-10.4,3.8-11.3,9c-0.6,3.5-0.2,7.6,1.1,11c8,20.5,10.6,41.4,7.4,63.2
		c-8.2,55.2-56.3,98-112.1,99.5c-17.5,0.5-34.3-2.7-50.4-9.4c-7.4-3.1-14.9-0.2-17.8,6.7c-3,7,0.4,14.3,8,17.5
		c2.8,1.1,5.5,2.4,8.4,3.2c11.4,3,22.8,5.8,34.8,8.8c0,9,0,18.9,0,28.8c0,8.4,5.4,14.1,13,14.1c7.7,0,12.9-5.7,12.9-14.2
		c0-9.8,0-19.6,0-29C287.8,331,331,287.6,343.9,213c0.7,0,2.1,0,3.4,0c8,0,16,0,24.1,0c9.9,0,15.7-4.9,15.6-13.1
		C386.9,191.7,381.1,187,371.1,187z"/>
</g>
</svg>
