<?xml version="1.0" encoding="utf-8"?>
<!-- Generator: Adobe Illustrator 27.3.1, SVG Export Plug-In . SVG Version: 6.00 Build 0)  -->
<svg version="1.1" id="Layer_1" xmlns="http://www.w3.org/2000/svg" xmlns:xlink="http://www.w3.org/1999/xlink" x="0px" y="0px"
	 viewBox="0 0 400 400" style="enable-background:new 0 0 400 400;" xml:space="preserve">
<style type="text/css">
	.st0{fill:#289146;}
	.st1{fill:#FFFFFF;}
</style>
<g>
	<polygon class="st0" points="199.9,61.6 296.9,15.4 385.6,59.7 380,167.4 292.8,230.5 212.3,179.6 	"/>
	<path d="M14.4,231.8c0.4-1.2,0.9-2.4,1.3-3.7c3.5-10.8,10.8-17.9,21.7-20.8c2.6-0.7,3.8-1.8,4.6-4.2c11.5-32.9,23.1-65.7,34.7-98.5
		c5.1-14.6,15.7-22.1,31.2-22.1c29.1,0,58.2,0,87.4,0c1.4,0,2.9,0,4.8,0c0-7.1,0.4-14-0.1-20.8c-0.4-6,2.1-8.8,7.4-11.1
		c27.2-11.5,54.3-23.3,81.4-35c2.9-1.3,5.4-1.3,8.3,0c27.7,12,55.5,24,83.3,35.9c3.8,1.6,5.4,4.1,5.4,8.4c-0.1,29.1,0,58.2-0.1,87.4
		c-0.1,21.2-8.9,38.2-25.8,51c-7,5.3-14.3,10.2-21.7,15.6c5.5,5.4,9.2,11.5,10.1,18.9c0.3,2.1,0.4,4.3,0.4,6.5c0,29.4,0,58.7,0,88.1
		c0,10.5-4.4,14.9-14.9,15.1c-1.1,0-2.1,0.1-3.7,0.2c0,4.1,0,8,0,12c0,4.1,0.1,8.2,0,12.3c-0.2,9-4.8,15.1-13.4,18.1
		c-0.4,0.1-0.8,0.5-1.2,0.7c-15,0-30,0-45,0c-1.1-0.5-2.2-1-3.3-1.4c-5.7-2.4-9.4-6.7-10.9-12.7c-0.6-2.4-0.5-5-0.5-7.5
		c-0.1-7.1,0-14.1,0-21.4c-49.8,0-99,0-148.5,0c0,6.5,0,12.8,0,19.1c0,3.1,0.2,6.3-0.4,9.4c-1.5,7.7-7,12-14,14.6c-15,0-30,0-45,0
		c-3.4-2.1-7.2-3.8-10.2-6.5c-3.9-3.5-4.7-8.5-4.7-13.6c0-7.6,0-15.2,0-22.9c-1.2-0.1-2-0.4-2.8-0.3c-7.4,0.8-12.5-2.3-15.6-8.9
		C14.4,299.5,14.4,265.6,14.4,231.8z M312.1,232.1c6.7,3.3,10.8,8.1,11.4,15c0.6,5.7,0.7,11.6-0.1,17.3c-1.3,9.8-8.9,15.9-18.9,15.9
		c-12.3,0-24.6,0.1-37,0c-8.4-0.1-15.6-5.9-17.6-14.1c-3.1-12.5,5.4-27.6,18.5-33c1.3-0.5,2.6-1.1,4.2-1.7
		c-5.3-3.8-10.1-7.4-15.2-10.7c-1.9-1.2-4.4-2.2-6.6-2.2c-67.9-0.1-135.8,0.1-203.7-0.2c-11.9,0-20.8,8.3-20.7,20.8
		c0.3,28.8,0.1,57.5,0.1,86.3c0,1.3,0,2.6,0,4c6.3,0,12.2,0,18.6,0c0-4.5-0.2-8.8,0.1-13.1c0.5-6.7,5.5-11.3,12.2-11.4
		c3.9-0.1,7.7,0,11.6,0c8.2,0,13.2,5.1,13.3,13.4c0,3.7,0,7.4,0,11c66.3,0,132,0,197.9,0c0-4.2-0.1-8,0-11.9
		c0.1-7.3,5.3-12.4,12.7-12.5c3.5,0,7,0,10.5,0c9.1,0,13.8,4.7,13.9,13.8c0,3.6,0,7.1,0,10.6c6.5,0,12.3,0,18.4,0
		c0.1-1.2,0.2-2.1,0.2-3c0-29.2,0-58.5,0-87.7c0-6.4-1.8-11.9-7-15.9c-0.8-0.6-2.6-0.8-3.3-0.4C321.2,225.4,316.9,228.7,312.1,232.1
		z M175.1,94.8c-1.5,0-2.7,0-3.9,0c-21,0-42,0-63.1,0c-10,0-16.4,4.4-19.7,13.9c-11,31.3-22,62.5-32.9,93.8c-0.4,1.1-0.6,2.1-1,3.3
		c60.6,0,120.8,0,180.9,0c-22.6-14.3-36-33.7-35.5-61.4c-1.6,0-2.9,0-4.3,0c-12.4,0-24.9,0-37.3,0c-9.3,0-14.1-4.8-14.1-14
		c0-3.3,0-6.5,0-9.8c0.1-8.2,5.1-13.3,13.4-13.3c5.8,0,11.5,0,17.5,0C175.1,102.9,175.1,99.1,175.1,94.8z M292.8,230.5
		c20.1-14.3,40-28.3,59.6-42.5c13.8-10,20.7-24.1,20.8-41c0.2-27.3,0-54.6,0.1-81.9c0-2.3-0.8-3.4-2.9-4.3
		C345.3,50,320.2,39.1,295,28.3c-1.2-0.5-3.1-0.5-4.3,0C265.4,39.1,240.2,50,215,60.9c-1.9,0.8-2.7,1.8-2.7,4
		c0.1,27.5-0.1,55.1,0.1,82.6c0.2,15.8,6.3,29.5,19,39C251.5,201.5,272.1,215.8,292.8,230.5z M45.5,342.4c0,8.5-0.1,16.7,0,24.9
		c0.1,3.4,2.5,5.7,6.2,5.7c12.2,0.1,24.4,0.1,36.6,0c3.4,0,6.1-1.9,6.3-5.3c0.3-8.4,0.1-16.8,0.1-25.4
		C78.2,342.4,62.1,342.4,45.5,342.4z M317.4,342.5c-16.7,0-32.9,0-49.3,0c0,8.4-0.1,16.4,0,24.5c0.1,3.6,2.6,6,6.3,6.1
		c12.2,0.1,24.4,0.1,36.6,0c3.8,0,6.3-2.5,6.3-6.1C317.5,358.9,317.4,350.8,317.4,342.5z M286.2,268c5.9,0,11.8,0.1,17.8,0
		c4.9-0.1,7.1-2.2,7.2-7.1c0.1-3.7,0.1-7.5,0-11.2c-0.2-4.1-2.3-6.2-6.4-6.3c-8.5-0.1-16.9-0.1-25.4,0c-8.8,0.2-16.3,7.3-17.2,16.1
		c-0.6,5.8,1.7,8.4,7.4,8.5C275.1,268,280.7,268,286.2,268z M199.8,119.7c-14.4,0-28.5,0-42.8,0c0,4.1,0,8,0,11.8
		c14.5,0,28.6,0,42.8,0C199.8,127.4,199.8,123.6,199.8,119.7z M199.8,95c-4.1,0-8,0-11.9,0c0,4.1,0,8,0,11.9c4.2,0,8.1,0,11.9,0
		C199.8,102.7,199.8,98.9,199.8,95z M69.8,329.5c0-4.1,0-8,0-11.9c-4.1,0-7.9,0-11.7,0c0,4.1,0,8,0,11.9
		C62.1,329.5,65.9,329.5,69.8,329.5z M304.9,317.7c-4.1,0-8,0-11.9,0c0,4.1,0,8,0,11.8c4.1,0,8,0,11.9,0
		C304.9,325.4,304.9,321.6,304.9,317.7z"/>
	<path d="M181.9,268c13.8,0,27.5,0,41.3,0c9.2,0,13.9,4.7,13.9,13.8c0,7.5,0.1,15,0,22.5c-0.1,8.4-4.9,13.2-13.3,13.2
		c-28.3,0-56.5,0-84.8,0c-8.1,0-13.1-4.8-13.3-13c-0.2-7.7-0.1-15.5,0-23.2c0.2-8.4,5.1-13.2,13.4-13.2
		C153.3,267.9,167.6,268,181.9,268z M224.5,280.6c-29,0-57.5,0-86,0c0,8.3,0,16.3,0,24.2c28.8,0,57.4,0,86.1,0c0-7.6,0-15,0-22.3
		C224.7,281.9,224.6,281.3,224.5,280.6z"/>
	<path d="M76.2,280.3c-6.2,0-12.3,0-18.5,0c-10.5-0.1-18.5-8.1-18.6-18.6c-0.1-4.2-0.1-8.5,0-12.7c0.2-9.5,7.3-17.7,16.9-18
		c11.4-0.3,23.1-0.8,34.2,1.1c15.2,2.6,25.5,19,22.8,33.3c-1.6,8.4-9,14.7-17.6,14.9C88.9,280.4,82.5,280.3,76.2,280.3z M76,268
		c5.9,0,11.8,0.1,17.7,0c5-0.1,7.2-2.5,7-7.5c-0.3-9-8.2-16.9-17.4-17.1c-8.3-0.2-16.6-0.1-24.9,0c-4.4,0-6.7,2.2-6.9,6.6
		c-0.2,3.5-0.1,7,0,10.5c0.1,5.2,2.3,7.5,7.5,7.6C64.7,268,70.4,268,76,268z"/>
	<path d="M119.5,107.1c2.2,0,4.4-0.1,6.5,0c3.5,0.2,5.8,2.7,5.8,6.1c0,3.4-2.3,5.9-5.8,6.1c-2.9,0.1-5.8,0-8.7,0.1
		c-5.4,0-6.9,1.1-8.7,6.2c-7.2,20.5-14.5,41.1-21.7,61.6c-0.3,0.8-0.5,1.6-0.8,2.4c-1.6,3.4-4.7,4.8-8,3.6c-3.2-1.2-4.8-4.5-3.6-8
		c4.4-12.9,8.9-25.7,13.4-38.5c2.7-7.7,5.5-15.4,8.2-23.1C100.8,110.4,105.4,107.1,119.5,107.1z"/>
	<path class="st1" d="M360.9,112.4c0,11.5,0.1,22.9,0,34.4c-0.1,13.1-5.3,23.7-15.9,31.4c-15.8,11.5-31.8,22.7-47.7,34.1
		c-3,2.2-5.9,2.2-9,0c-15.9-11.4-31.9-22.6-47.7-34.1c-10.5-7.7-15.8-18.3-15.9-31.4c-0.1-23.7,0-47.3-0.1-71c0-4,1.6-6.4,5.3-8
		c19.6-8.4,39.2-16.8,58.7-25.4c2.9-1.3,5.4-1.3,8.3,0c19.4,8.5,38.9,16.9,58.4,25.2c4,1.7,5.7,4.2,5.6,8.6
		C360.8,88.2,360.9,100.3,360.9,112.4z M348.1,114.2c0.1,0,0.2,0,0.3,0c0-10.7-0.1-21.5,0.1-32.2c0-2.6-0.6-4-3.2-5.1
		c-16.8-7.1-33.4-14.4-50.2-21.5c-1.3-0.6-3.3-0.6-4.7,0c-17,7.2-33.8,14.6-50.8,21.8c-1.9,0.8-2.7,1.8-2.7,4
		c0.1,21.6,0,43.2,0.1,64.8c0,9.6,3.8,17.2,11.7,22.8c14,9.9,27.9,19.8,41.9,29.8c1.5,1.1,2.5,1.2,4.1,0.1
		c14.3-10.3,28.7-20.4,43-30.7c6.1-4.4,10-10.4,10.2-17.9C348.4,138.1,348.1,126.2,348.1,114.2z"/>
	<path class="st1" d="M279.3,147.9c6.5-8.1,12.9-16.1,19.3-24.1c8.6-10.7,17.2-21.5,25.8-32.2c2.7-3.4,5.8-4,8.8-2.1
		c3.5,2.2,3.8,6.2,0.8,10c-7.4,9.4-14.9,18.7-22.4,28c-8.4,10.5-16.8,20.9-25.1,31.4c-3.8,4.7-6.5,5.1-11.3,1.5
		c-7.6-5.7-15.4-11.3-22.8-17.3c-1.6-1.3-2.9-4.2-2.6-6.1c0.3-1.9,2.6-4.3,4.5-4.8c1.8-0.5,4.5,0.5,6.2,1.7
		C266.8,138.4,272.9,143.1,279.3,147.9z"/>
</g>
</svg>
