<?xml version="1.0" encoding="utf-8"?>
<!-- Generator: Adobe Illustrator 27.3.1, SVG Export Plug-In . SVG Version: 6.00 Build 0)  -->
<svg version="1.1" id="Layer_1" xmlns="http://www.w3.org/2000/svg" xmlns:xlink="http://www.w3.org/1999/xlink" x="0px" y="0px"
	 viewBox="0 0 400 400" style="enable-background:new 0 0 400 400;" xml:space="preserve">
<style type="text/css">
	.st0{fill:#E11F26;}
</style>
<g>
	<path d="M60.3,178.3c-4.6-0.9-9.3-1.7-13.9-2.7c-3-0.7-4.4-2.8-3.9-5.8c0.6-3.1,2.9-4.2,5.9-3.7c4.5,0.7,9,1.6,13.5,2.5
		c2.8,0.6,4.4,2.5,4,5.4C65.5,177,63.5,178.4,60.3,178.3z"/>
	<path d="M360.1,119.4c-28-58.1-74.2-92.7-137.4-102.7c-36.9-5.8-72.1-0.2-104.9,16.7c-56.3,29-89.3,75.1-98.2,137
		c-6,41.8,2.6,81.7,25.5,118.6c1.2,1.9,1.2,2.5,0.1,4.4c-7.5,12.8-15.1,25.9-22.4,38.5c-3.5,6.1-7,12.1-10.5,18.2
		c-3.3,5.8-4,11.5-2,17c2.2,6.1,7.5,13.3,20.2,13.3c19.6,0,39.1,0,58.7,0l49.6,0c19.3,0,38.7,0,58,0c0,0,0,0,0.1,0
		c7.3,0,12.9-2.4,17.2-7.2c0.2-0.2,1.1-0.6,1.9-0.7c19.9-2,38.3-7,54.5-14.8c60.6-29.2,95.9-77.3,104.7-143.1
		C379.6,181.4,374.5,149.4,360.1,119.4z M29.6,357.8c27.4-47.5,54.8-95,82.2-142.6c0.9-1.6,1.7-2.3,2-2.6c0.3,0.3,1,0.9,2,2.5
		l81.7,141.6c0.4,0.7,0.8,1.4,1.2,2.2c0.7,1.3,0.7,2.1,0.7,2.2c-0.1,0.1-0.8,0.5-2.2,0.5c-19.7,0-39.4,0-59.2,0l-24.4,0l-27.4,0
		l-54.7,0c-2,0-3-0.3-3.4-0.5C28.3,360.6,28.5,359.6,29.6,357.8z M132.3,206c-6.6-11.5-15.2-12.9-21.3-12
		c-6.3,0.9-11.2,4.5-14.8,10.7c-10.4,18.1-20.9,36.2-31.3,54.3l-7.7,13.4c-9-16.1-15.2-33.4-18.2-51.5c-2.7-15.7-3-31.3-1.1-46.3
		c2.8-21.6,9.5-41.8,20-60.1c8.6-15,19.6-28.5,32.5-40.2c1.4-1.3,10.4-8.5,13.3-10.6c10.7-7.9,22.8-14.5,35.7-19.4l1.3-0.5
		c1.8-0.7,4.9-1.8,5.3-2c0.1,0,9.1-2.8,13.8-3.9c26.7-6.4,53.7-5.9,80.3,1.4c8.5,2.3,30.4,11.6,39.7,17.2
		c22.3,13.5,40.6,31.5,54.1,53.7c0.7,1.1,9.6,17.8,12.6,25.3c11.2,28.2,14.1,57.3,8.6,86.5c-8.5,45.6-32.7,81.6-71.8,107.2
		c-20.1,13.1-42.5,21.2-66.5,23.9c0,0,0,0,0,0c-4.6-8-9.2-16-13.7-24c-3.8-6.7-7.6-13.4-11.5-20.1c-14.4-25-28.8-50-43.3-75
		L132.3,206z"/>
	<path d="M196.3,68.8c56.2-0.4,106.1,34.8,125.3,88.3c4.9,13.6,7.4,27.6,7.4,42c0,5-1.6,6.6-6.8,6.6c-4.8,0-9.7,0-14.5,0
		c-4.7,0-6.5-1.7-6.6-6.5c-0.3-10.3-1.7-20.3-5-30.1c-10.5-31-30.7-53.2-61.2-65C185,85,131,105.2,105.7,151.8
		c-7.9,14.5-11.7,30-12.3,46.4c-0.3,6.5-1.3,7.5-7.9,7.5c-4.4,0-8.7,0-13.1,0c-5.4,0-7.3-1.8-7.2-7.1c0.5-21.8,5.6-42.3,16.3-61.3
		c17.2-30.7,42.7-51.6,76.2-62.5C170.2,70.8,183.1,68.9,196.3,68.8z M188.6,79.1c-26.8,2.1-50.5,11.8-71,29.3
		c-1.5,1.3-3.5,2.4-1,4.6c1.9,1.7,3.1,4.5,6.6,1.6c19-16.2,40.9-25.5,65.9-27.1c4.1-0.3,2.9-3.2,3-5.5
		C192.3,79.5,191,78.7,188.6,79.1z M279.5,111c-2.3-2-4.3-3.8-6.4-5.5c-19.7-15.7-42.2-24.3-67.2-26.3c-1.2-0.1-3,0.3-3.5,1
		c-2,3.2,0.2,7,3.9,7.3c12.4,0.9,24.2,3.9,35.6,8.8c10.7,4.6,20.4,10.7,29.2,18.2c1.7,1.5,3.2,2.3,5,0.2
		C277.1,113.6,278.2,112.4,279.5,111z M79.7,195.6c3.2,0.6,4.1-0.9,4.3-3.9c0.3-4.8,0.9-9.7,1.9-14.4c4.1-18.9,12.4-35.9,25.1-50.4
		c3.2-3.6,0.3-4.9-1.5-6.8c-2.3-2.5-3.4-0.2-4.6,1.3c-17.2,20.2-27,43.5-29.4,69.9C75.1,194.8,76.2,196.2,79.7,195.6z M318.4,188.9
		c-2.6-25.7-12.5-48.3-29.2-67.9c-1.2-1.5-2.5-3.2-4.4-0.8c-1.4,1.8-4.8,2.8-1.9,6.2c16.5,19.1,25.6,41.3,27.8,66.5
		c0.1,0.9,0.7,2.3,1.4,2.6c4.2,1.9,6.9-0.1,6.5-4.7C318.6,190.1,318.5,189.5,318.4,188.9z"/>
	<path d="M335.9,176.2c-3-0.1-4.9-1.7-5.4-4.4c-0.5-2.7,1-4.7,3.6-5.3c4.9-1.1,9.9-2,14.9-2.7c2.7-0.4,4.6,1.4,5.1,3.8
		c0.6,2.6-0.8,4.8-3.4,5.4C345.8,174.4,340.8,175.2,335.9,176.2z"/>
	<path d="M73.5,131.8c-4.1-2.3-8.3-4.5-12.3-6.9c-2.7-1.6-3.3-4.1-1.8-6.7c1.5-2.8,4.1-3,6.7-1.7c4.1,2.1,8.1,4.4,12,6.6
		c2.5,1.5,3.4,3.8,2.1,6.4C78.9,132.2,76.5,132.9,73.5,131.8z"/>
	<path d="M322.1,129.6c4.1-2.3,8.3-4.5,12.3-6.9c2.7-1.6,3.3-4.1,1.8-6.7c-1.5-2.8-4.1-3-6.7-1.7c-4.1,2.1-8.1,4.4-12,6.6
		c-2.5,1.5-3.4,3.8-2.1,6.4C316.8,129.9,319.2,130.7,322.1,129.6z"/>
	<path class="st0" d="M101,280.6c-0.6-9.9-1.2-19.8-1.7-29.7c-0.3-4.8,1.3-6.4,6.1-6.5c5.3,0,10.6,0,15.9,0c4.6,0,6,1.4,5.8,6
		c-0.8,16.3-1.7,32.6-2.6,48.9c-0.2,4.4-0.4,8.8-0.7,13.2c-0.3,4.3-1.7,5.5-6.1,5.6c-2.9,0.1-5.7,0.1-8.6,0c-4.5-0.1-6-1.3-6.2-5.8
		C102.1,301.7,101.6,291.2,101,280.6z M116.7,279.7c0.3-7,0.7-15.1,1.2-23.3c0.2-2.4-0.6-3.6-3.1-3.3c-0.3,0-0.7,0-1,0
		c-5.5,0-5.6,0-5.3,5.3c0.8,16,1.7,31.9,2.6,47.9c0.1,1.5,0.1,2.8,2.2,2.8c1.8,0,1.7-1.8,1.8-2.8
		C115.7,297.9,116.2,289.4,116.7,279.7z"/>
	<path class="st0" d="M124.3,332.5c-0.1-3-1.8-4.7-4.8-4.8c-2.3-0.1-4.6,0-6.9,0c-2.2,0-4.4,0-6.6,0c-3.1,0-4.8,1.6-4.9,4.6
		c-0.2,4.7-0.2,9.5,0,14.2c0.1,2.5,1.5,4.3,4.1,4.4c4.9,0.2,9.9,0.2,14.9,0c2.7-0.1,4.3-1.8,4.3-4.5
		C124.4,341.8,124.4,337.1,124.3,332.5z M115.6,342.3h-2.4c-0.3,0-0.6,0-0.9,0c-0.2,0-0.4,0-0.5,0h-2.2v-6h6V342.3z"/>
	<path d="M102.5,90.8c-3-3.6-6.1-7.2-9-10.8c-1.9-2.4-1.6-5,0.7-7c2.4-2,4.9-1.4,6.9,0.8c3.1,3.4,6,6.9,8.9,10.5
		c1.8,2.3,1.8,4.7-0.3,6.7C107.4,93.1,104.9,92.9,102.5,90.8z"/>
	<path d="M291.1,90.8c3-3.6,6.1-7.2,9-10.8c1.9-2.4,1.6-5-0.7-7c-2.4-2-4.9-1.4-6.9,0.8c-3.1,3.4-6,6.9-8.9,10.5
		c-1.8,2.3-1.8,4.7,0.3,6.7C286.2,93.1,288.7,92.9,291.1,90.8z"/>
	<path d="M287,189l-12.4-7.8c-1-0.7-2.2-1.1-3.5-1l-61.4,3c-4.6-6-11.8-9.3-19.4-8.9c-7.5,0.4-14.4,4.4-18.4,10.8l-22,1.1
		c-1.4,0.1-2.7,0.7-3.7,1.7c-1,1-1.5,2.3-1.4,3.7l0.8,16.4c0.1,2.8,2.6,4.9,5.6,4.8l22-1.1c4.4,5.7,11.1,8.9,18.2,8.9
		c0.4,0,0.8,0,1.1,0c7.5-0.4,14.4-4.4,18.4-10.8l61.4-3c1.3-0.1,2.4-0.5,3.3-1.3l11.3-8.7l0.3-0.3c1-1,1.6-2.4,1.5-3.8
		C288.8,191.2,288.1,189.9,287,189z M214.7,196.2c-0.1-1.9-0.4-3.8-1-5.6l57.2-2.8l8.3,5.2l-7.8,6l-57.2,2.8
		C214.6,200,214.8,198.2,214.7,196.2z M207,196.6c0.1,2.1-0.2,4.1-0.9,6.1c-0.9,2.4-2.4,4.5-4.3,6.2c-2.6,2.3-6,3.7-9.5,3.9
		c-3.5,0.2-7-0.9-9.8-2.9c-2.1-1.5-3.7-3.5-4.8-5.8c-0.9-1.9-1.4-3.9-1.5-6c-0.1-2.1,0.2-4.1,0.9-6.1c0.9-2.4,2.4-4.5,4.3-6.2
		c2.6-2.3,6-3.7,9.5-3.9c0.2,0,0.5,0,0.7,0c3.3,0,6.5,1,9.1,3c2.1,1.5,3.7,3.5,4.8,5.8C206.4,192.5,206.9,194.5,207,196.6z
		 M168.5,198.5c0.1,1.9,0.4,3.8,1,5.6l-16.2,0.8l-0.5-11.2l16.2-0.8C168.5,194.7,168.4,196.6,168.5,198.5z"/>
	<path class="st0" d="M217.8,355.4l-0.2-1.4l-0.7-0.8c-4.7-8-9.2-16.1-13.8-24.2c-3.8-6.7-7.6-13.4-11.5-20.1
		c-14.4-25-28.8-50-43.3-75L132.3,206c-6.6-11.5-15.2-12.9-21.3-12c-6.3,0.9-11.2,4.5-14.8,10.7c-10.4,18.1-20.9,36.2-31.3,54.3
		l-8.7,15.1l-10.3,18l-0.2,0.3c-0.1,0.3-0.3,0.6-0.5,0.9l-1.5,2.5c-7,12-14.1,24.2-20.9,36c-3.5,6.1-7,12.2-10.5,18.2
		c-3.3,5.8-4,11.5-2,17c2.2,6.1,7.5,13.3,20.2,13.3c19.6,0,39.1,0,58.7,0l49.6,0c19.3,0,38.7,0,58,0c0,0,0,0,0.1,0
		c7.3,0,12.9-2.4,17.2-7.2l0.4-0.4l0.3-0.5C217.7,368,218.7,362.3,217.8,355.4z M199.4,361.1c-0.1,0.1-0.8,0.5-2.2,0.5
		c-19.7,0-39.4,0-59.2,0l-24.4,0l-27.4,0l-54.7,0c-2,0-3-0.3-3.4-0.5c0-0.4,0.3-1.4,1.3-3.2c27.4-47.5,54.8-95,82.2-142.6
		c0.9-1.6,1.7-2.3,2-2.6c0.3,0.3,1,0.9,2,2.5l81.7,141.6c0.4,0.7,0.8,1.4,1.2,2.2C199.4,360.2,199.4,361,199.4,361.1z"/>
</g>
</svg>
