<?xml version="1.0" encoding="utf-8"?>
<!-- Generator: Adobe Illustrator 27.3.1, SVG Export Plug-In . SVG Version: 6.00 Build 0)  -->
<svg version="1.1" id="Layer_1" xmlns="http://www.w3.org/2000/svg" xmlns:xlink="http://www.w3.org/1999/xlink" x="0px" y="0px"
	 viewBox="0 0 400 400" style="enable-background:new 0 0 400 400;" xml:space="preserve">
<g>
	<path d="M286.5,240.7c0-9-6.6-17.1-15.7-19.2c-5.6-1.3-11-0.3-16.3,3c-3.4-4.6-7.7-7.4-12.9-8.5c-5-1-9.9-0.1-15,2.7
		c-6.4-9-15.1-11.8-25.4-8.3v-16.6c0.7-0.1,1.3-0.1,1.9-0.1c8.2-0.4,16.1-1.9,23.5-4.7c17.1-6.3,31.4-18.6,40.2-34.6
		c8.9-16,11.7-34.7,8-52.7c-6.5-31.4-31.5-55-63.7-60c-30.5-4.8-60.7,9.5-76.8,36.3c-10.3,17.1-13.5,37.1-9,56.3
		c4.5,19.1,16.3,35.9,33.2,47.2c1.3,0.9,1.6,1.5,1.6,3c0,15.5,0,31.2,0,46.5l0,27.5c-0.7-1.1-1.5-2.3-2.3-3.6
		c-1.9-3-3.9-6.1-6.1-9.1c-4.4-6.2-11.6-9.8-19.1-9.6c-7.5,0.2-14.1,4.1-18.1,10.5c-5.2,8.4-4.6,17.1,1.7,26.7
		c10.3,15.5,20.6,31.3,30.6,46.7l6.2,9.6c0.6,0.9,1,2,1.4,3.1l0.4,1c1,2.5,1.9,5,2.8,7.5c1.9,5.3,3.9,10.8,6.4,15.9
		c8.4,17,22.1,27.5,40.9,31c6.3,1.2,12.6,1.8,18.9,1.8c5.9,0,11.8-0.5,17.5-1.6c13.6-2.5,25-8.4,32.7-17.1
		c7.8-8.9,12.1-20.7,12.3-34.2c0.4-25.6,0.3-51.6,0.2-77L286.5,240.7z M141.8,253.1c5.3,7.9,10.5,16,15.6,23.8l3.1,4.8
		c1.9,2.9,4.2,4,7,3.3c2.1-0.5,4.6-2,4.8-6.5c0-0.4,0-0.7,0-1.1l0-55.5h0l0-18.1l0-39.6c0-2.9,0.8-5.3,2.2-6.9
		c1.4-1.6,3.4-2.4,5.9-2.4c4.9,0,8.1,3.7,8.1,9.4l0,45.1l0,18.2c0,0.6,0,1.1,0,1.7c0.2,3.6,2.4,6,5.8,6.2c3.2,0.2,5.7-1.9,6.5-5.4
		l0.2-1c0.3-1.6,0.7-3.3,1.4-4.5c1.7-2.7,5.3-4,8.5-3.1c3.6,1.1,5.9,3.9,6.1,7.5c0.1,1.2,0,2.5,0,3.7c0,0.9,0,1.8,0,2.7
		c0.1,4,2.3,6.6,5.9,6.8c2.3,0.1,5.3-0.9,6.5-6.1c0.6-2.6,1.4-4.5,2.5-5.7c2.2-2.5,5.1-3.1,8.4-1.8c3.2,1.3,4.9,3.6,5.2,7.1
		c0.1,1,0.1,2,0.1,3c0,0.7,0,1.3,0,2c0.1,4.1,2.4,6.6,5.9,6.8c3.6,0.1,6-2.2,6.4-6.3c0.4-3.2,2.1-5.9,4.7-7.2c2.4-1.2,5.1-1,7.6,0.5
		c2.7,1.6,3.9,4.1,3.9,7.8c0,15,0,30.1,0,44.9v21.5c0,2.4,0,4.8,0,7.2l0,1.2c0,6.5,0.1,13.1-0.1,19.8c-0.3,12.7-4.4,22.3-12.4,29.4
		c-5.8,5.2-13.2,8.5-22.6,10.2c-13.2,2.4-26.2,1.7-38.5-2c-11.6-3.5-20.4-11.7-26.9-25.2c-1.7-3.6-3.1-7.5-4.4-11.3
		c-0.8-2.2-1.6-4.5-2.4-6.6l-0.5-1.3c-1-2.6-2-5.3-3.6-7.8c-12.9-19.9-25.9-39.8-36.9-56.6c-2.3-3.6-3-6.5-2.2-9.5
		c1.2-4.2,4-6.7,8.2-7.4c0.6-0.1,1.3-0.1,1.9-0.1C137.1,248.6,139.8,250.1,141.8,253.1z M200.9,162.6c-0.3-8.7-4.5-15-12.2-18.4
		c-7.8-3.3-15.3-2.2-21.8,3.5c-4.3,3.7-6.5,8.5-6.7,14.2c-0.1,1.7-0.1,3.4,0,5.2c-18-13-30.5-42-21-70.1
		c10.9-32.1,44.7-50.4,77.1-41.7c32.6,8.7,53.2,41.1,46.9,73.6c-6.5,33.6-36.4,52.8-62.2,52.3c0-1.3,0-2.6,0-3.9l0-0.8
		C201,171.9,201,167.2,200.9,162.6z"/>
	<path d="M114.8,219.3c0.2-2.1-0.9-4.4-3.1-6.5c-25.1-23.7-39.1-52.4-41.4-85.4c-2.9-40.8,10.8-76.2,40.8-105.1
		c2.6-2.5,5.7-6.3,2.1-10.3c-1.2-1.3-2.5-2-4-2.1c-2-0.1-4.2,1.1-6.6,3.4C73.4,41.4,58.2,76.3,57.5,117.2c0,15.1,2.3,30,7,44.3
		c7.7,23.3,20.7,43.6,38.8,60.4c1.4,1.3,3.1,2.6,5.3,2.6c1.1,0,2.3-0.4,3.4-1.1C113.7,222.4,114.7,221,114.8,219.3z"/>
	<path d="M296.5,12.6L296.5,12.6c-4.9-4.6-8.5-2-9.8-0.7c-1.1,1.2-1.7,2.6-1.7,4.1c0,1.9,1.1,3.8,2.9,5.6
		c24.6,23.2,38.5,51.5,41.4,84.1c2.9,33.2-5.9,63.6-26.1,90.3c-3.4,4.5-7.5,8.7-11.6,13c-1.4,1.4-2.8,2.9-4.1,4.3
		c-1.1,1.2-3.7,4-1.9,7.3c0.8,1.5,3,3.8,5.3,3.8c0,0,0,0,0,0c3-0.2,5.5-2.4,6.2-3c29.2-27.8,44.5-62.7,45.4-103.8
		C341.7,76,326.3,40.7,296.5,12.6z"/>
	<path d="M89.3,118.6c0,0.8,0,1.6,0,2.4c0.1,1.5,0.2,3,0.3,4.5l0.1,0.7c2.4,27.9,14,52.1,34.4,71.7c1.6,1.6,3.4,2.4,5.4,2.4
		c0,0,0,0,0,0c1.6,0,3-0.7,4.1-2c1.7-1.9,2.9-5-1-9.4c-1.1-1.2-2.2-2.5-3.3-3.7c-3.9-4.3-7.9-8.7-11.1-13.4C96,138.7,96,96,118.2,63
		c3.1-4.6,7-8.9,10.7-13l0.2-0.3c1.3-1.4,2.6-2.9,3.9-4.4c1-1.1,3.6-4.1,1.5-7.3c-1.1-1.7-3.3-3.5-5.3-3.5c0,0,0,0,0,0
		c-2.6,0-5.1,2.2-5.7,2.8C101.3,59,89.8,86,89.3,117.6L89.3,118.6z"/>
	<path d="M267.6,46L267.6,46c34.6,33.3,40.7,84.6,14.7,124.7c-2.7,4.1-6.1,8-9.4,11.7c-1.9,2.1-4.1,4.6-6,7
		c-1.3,1.6-2.3,4.4-1.8,6.4c0.5,2,3.2,3.8,5.2,4.2c0.2,0,0.4,0.1,0.6,0.1c1.8,0,3.7-1.2,4.9-2.4c22.5-21.6,34.2-48.3,34.8-79.5
		c-0.4-29.5-9.8-54.1-28.9-75.4c-1.9-2.1-4.1-4.4-7-6.9c-2.3-2.2-5.4-2.2-8-0.1c-2.3,1.9-3,4.7-1.6,7.2
		C265.8,44.2,266.7,45.1,267.6,46z"/>
	<path d="M220.7,111.8c-1.7-8.8-6.7-14.3-14.8-16.3c-7.2-1.8-14-0.6-19.2,3.4c-5.4,4.2-8.4,10.8-8.5,18.7
		c-0.2,8.4,3.2,15.2,9.6,19.2v0c3.4,2.1,7.4,3.2,11.7,3.2c3.7,0,7.4-0.9,10.7-2.6C218.6,133,222.8,122.7,220.7,111.8z M208.4,117.4
		c-0.1,0.6-0.2,1.2-0.3,1.8c-0.2,1.3-0.3,2.5-0.7,3.6c-1.1,3.8-3.8,5.9-7.5,5.9c-4,0.1-6.6-1.8-7.9-5.4c-1.5-4.2-1.5-8.4,0.2-12.3
		c1.4-3.3,4-5,7.6-5c0.2,0,0.4,0,0.7,0c3.3,0.2,5.8,2.2,6.8,5.6c0.4,1.3,0.6,2.8,0.8,4.2C208.3,116.3,208.3,116.9,208.4,117.4z"/>
	<path d="M169.6,114.2c-1.1-0.6-2.2-1.1-3.4-1.6c-1.7-0.8-3.5-1.6-5.1-2.7c-0.8-0.6-1.7-2-1.7-2.3c0.3-0.8,1.8-2,2.7-2
		c1.8-0.1,3.7,0.2,5.7,0.5c1,0.1,2,0.3,3,0.4c1.8,0.2,3.9,0.2,4.2-1.5c0.3-1.7,0.7-3.9,0.4-6.1c-0.2-1.6-2.4-3.2-3.9-3.3l-2.2-0.1
		c-4.1-0.1-8.3-0.3-12.4,0.2c-4.6,0.6-8.1,3.5-9.8,8.1c-2.2,6,0,12.3,5.5,15.6c1.9,1.1,3.8,2.1,5.8,2.9c1.3,0.6,2.5,1.2,3.8,1.8
		c2.2,1.2,2.5,2.1,2.3,3.1c-0.5,2.1-2.7,2-3.2,1.9c-3-0.3-6.2-0.9-9.6-1.9c-1.2-0.3-2.5-0.6-3.7,0.2c-1.1,0.7-1.4,2.1-1.5,3
		c-0.7,6,0.6,7.7,6.4,8.7c1.4,0.3,2.9,0.4,4.4,0.6c0.7,0.1,1.3,0.1,2.1,0.2l0.2,0l0.2,0c0.6-0.1,1.2-0.1,1.8-0.2
		c1.4-0.1,2.8-0.3,4.2-0.5c6.5-1.2,10.5-5,11.5-10.7C178.2,122.4,175.5,117.3,169.6,114.2z"/>
	<path d="M228.1,118.9c1.3,0.9,2.8,1.6,4.1,2.3l1.1,0.5c0.6,0.3,1.3,0.6,1.9,0.8c1.1,0.4,2.1,0.8,2.8,1.5c1.5,1.3,2.4,2.8,2.4,3.4
		c0,0.5-0.2,0.8-0.5,1.1c-0.6,0.5-1.6,0.8-2.7,0.7c-2-0.2-4.1-0.6-6.2-1c-1-0.2-2-0.4-3-0.6c-0.2,0-0.4-0.1-0.6-0.1
		c-1-0.2-2.2-0.5-3.2,0.1c-1.8,1.1-1.8,3.7-1.7,5.2c0.3,2.3,1.3,5,3.2,5.6c3.6,1.1,7.1,1.7,10.3,1.7c3.6,0,7-0.7,10.1-2.1
		c4.1-1.8,6.8-5.5,7.4-10c0.6-4.5-1.1-8.8-4.6-11.6c-1.5-1.2-3.3-2.1-5-3c-0.6-0.3-1.2-0.6-1.8-0.9c-0.7-0.4-1.5-0.8-2.2-1.1
		c-1.2-0.6-2.5-1.2-3.5-1.9c-0.9-0.7-1.3-1.5-1.2-2.2c0.2-0.9,1.2-1.2,1.6-1.3c2.4-0.6,5.2-0.6,7.9,0c2.9,0.6,4.7,0.9,6-0.2
		c1.2-1.1,1.1-2.9,0.9-5.7c-0.2-1.7-1.8-3.8-3.4-4.3c-1.7-0.5-3.5-0.7-5.5-0.9c-0.9-0.1-1.8-0.2-2.9-0.3l-0.3,0l-0.2,0.1
		c-0.7,0.2-1.5,0.3-2.4,0.5c-2.2,0.4-4.6,0.9-7,1.9c-4.3,1.9-7.1,5.7-7.5,10.3C222.1,111.8,224.2,116.2,228.1,118.9z"/>
</g>
</svg>
