<?xml version="1.0" encoding="utf-8"?>
<!-- Generator: Adobe Illustrator 27.3.1, SVG Export Plug-In . SVG Version: 6.00 Build 0)  -->
<svg version="1.1" id="Layer_1" xmlns="http://www.w3.org/2000/svg" xmlns:xlink="http://www.w3.org/1999/xlink" x="0px" y="0px"
	 viewBox="0 0 400 400" style="enable-background:new 0 0 400 400;" xml:space="preserve">
<g>
	<path d="M334.3,150.7c0.1-73.8-60.8-134.6-134.4-134.2C125.6,16.9,65.5,77.2,65.7,151C66,224.9,126.3,285.1,200,285
		C274,284.9,334.2,224.7,334.3,150.7z M272.7,227.7c-1.3-7.3-2.5-14.1-3.8-21c-1.2-6.6-2.2-13.2-3.6-19.7c-0.3-1.2-1.8-2.9-3.1-3.1
		c-15.4-3.1-30.7-6-46.2-8.8c-6.4-1.2-10.9,3.6-9.7,10c2.5,14,5.2,28,7.4,42c0.4,2.4-0.5,5.4-1.8,7.5c-3.6,5.8-7.7,11.2-12,17.3
		c-4.8-6.8-9.2-12.8-13.2-19c-0.9-1.5-1-3.9-0.7-5.7c2.4-14,4.9-28,7.4-42c1.3-7.1-3.8-12.1-11-10.7c-14.8,2.9-29.6,5.7-44.5,8.4
		c-2.4,0.4-3.3,1.4-3.7,3.8c-2.2,13.5-4.6,26.9-7,40.4c-21-10.5-38-60.6-32.1-94.2c8.5-47.6,45.9-81,89.3-87.1
		c51.8-7.3,95.2,22.2,112.6,62.7C315.5,150.7,304.1,198.2,272.7,227.7z"/>
	<path d="M79.1,352c17.6-6,34.3-11.7,51.1-17.4c7.7,16.3,15.2,32.2,23.1,48.9c12.3-28.5,24.3-56.1,36.4-84
		c-28.1-2.4-53.1-11.3-76.2-27.3C101.9,298.8,90.7,324.9,79.1,352z"/>
	<path d="M210.4,299.5c12.2,28.1,24.1,55.6,36.4,84c8-16.8,15.5-32.8,23.1-48.9c16.9,5.8,33.4,11.4,51,17.4
		c-11.7-27.2-22.9-53.3-34.3-79.8C263.6,289,238.4,297.9,210.4,299.5z"/>
	<path d="M200,75.9c-23.7,0-43.3,19.5-43.4,43.2c-0.1,23.8,19.7,43.6,43.5,43.6c23.9-0.1,43.6-19.8,43.4-43.6
		C243.3,95.3,223.7,75.9,200,75.9z"/>
</g>
</svg>
