<?xml version="1.0" encoding="utf-8"?>
<!-- Generator: Adobe Illustrator 27.3.1, SVG Export Plug-In . SVG Version: 6.00 Build 0)  -->
<svg version="1.1" id="Layer_1" xmlns="http://www.w3.org/2000/svg" xmlns:xlink="http://www.w3.org/1999/xlink" x="0px" y="0px"
	 viewBox="0 0 400 400" style="enable-background:new 0 0 400 400;" xml:space="preserve">
<g>
	<path d="M312.9,17.2c7.4,1.8,15.2,2.8,22.2,5.7c25.5,10.5,41.4,29.5,46.3,56.8c1.5,8.2,1.5,16.8,1.5,25.2
		c0.1,66.5,0.1,133.1,0.1,199.6c0,25.1-9.2,46-28.9,61.8c-14.3,11.5-30.9,16.6-49.2,16.5c-69.8-0.1-139.6-0.1-209.4,0
		c-27.1,0-48.8-10.6-64.7-32.5C21.2,337.2,17,322.1,17,305.9c0-39,0-78.1,0-117.1c0-31.7,0-63.3,0-95c0-34,21.2-63,53.8-73.2
		c5.5-1.7,11.3-2.3,17-3.5C162.8,17.2,237.9,17.2,312.9,17.2z M200.1,31c-31.3,0-62.6,0-94,0c-5.6,0-11.2,0-16.8,0.4
		c-24.1,1.6-41.3,13.8-52.3,34.9c-4.9,9.3-6.2,19.5-6.2,29.9c0,69.1,0,138.3,0,207.4c0,4.4,0.4,8.8,1.1,13.1
		c3.2,20.7,14.7,35.5,32.9,45.3c9.7,5.3,20.3,6.9,31.2,6.9c68.4,0,136.7,0,205.1,0c5.3,0,10.7-0.4,16-1.1
		c14.2-1.9,25.8-8.7,35.5-19.1c11.8-12.6,16.5-27.8,16.5-44.8c0-65.7,0-131.4,0-197.1c0-5.8,0-11.7-0.4-17.5
		c-1.6-23.5-13.3-40.4-33.7-51.6c-9.6-5.2-20.1-6.8-30.9-6.8C269.4,31,234.8,31,200.1,31z"/>
	<path d="M320.5,291.2c0,4,0.1,7.4,0,10.8c-0.2,4.7-2,6.4-6.6,6.5c-4,0-8,0-12,0c-4.6,0-6.1-1.5-6.2-6.2c-0.1-3.5,0-7.1,0-10.8
		c-34.3,0-67.9,0-101.9,0c0,3.4,0,6.5,0,9.7c0,6-1.4,7.4-7.5,7.4c-3.7,0-7.4,0-11.2,0c-4.4-0.1-6-1.6-6-6c0-3.6,0-7.1,0-11.2
		c-4.3,0-8.4-0.1-12.5,0c-6.4,0.2-10.5-2.1-9.9-9.5c0.4-4.6-1.2-9.5,2.3-13.7c0.6-0.7,0.2-2.3,0.2-3.5c0-18.2-0.4-36.4,0.1-54.6
		c0.3-11.3,1.8-22.6,3.1-33.9c1.2-11,3-22,4.3-33c2.1-17.7,13.1-27.5,28.9-33.3c11.6-4.3,23.7-6.4,36-7c12.1-0.5,24.2-1.1,36.2-0.7
		c17.4,0.5,34.6,2.4,50.7,9.6c14.7,6.6,22.6,17.6,24.2,33.9c1.7,17.6,4.7,35.1,6.7,52.7c0.8,7.1,0.3,14.3,0.3,21.5c0,15,0,30,0.1,45
		c0,1.7,0.7,3.5,1.5,5c1.9,3.3,2.4,15.3,0,18c-1.4,1.6-3.9,2.9-6,3.1C330.7,291.6,325.9,291.2,320.5,291.2z M253.4,194.6
		c2.6-11.2,9.9-15.5,20.9-15.5c11.1,0.1,17.8,3.3,20.6,11.4c1.1,3.2,2.5,4.6,5.8,4.1c0.9-0.2,1.9,0,2.8,0c7,0,9.6-2.9,9.1-9.9
		c-0.7-10.6-1.9-21.2-2.1-31.7c-0.1-6.9-4.7-9.5-10.4-9.5c-37,0.2-73.9,0.1-110.9,0.1c-7.3,0-10.1,2.6-10.5,9.8
		c-0.6,10.9-1.3,21.7-1.8,32.6c-0.3,6,2.1,8.6,8.1,8.6C207.6,194.6,230.2,194.6,253.4,194.6z M277.6,242.4c0,7.4,6.5,13.9,13.9,14
		c7.9,0.1,14.6-6.3,14.7-14c0.1-7.9-6.3-14.3-14.4-14.3C283.8,228,277.5,234.3,277.6,242.4z M183.4,241.9c0,8.1,6.3,14.5,14.1,14.4
		c7.9-0.1,14.1-6.2,14.2-14c0.1-8.1-6.1-14.3-14.2-14.3C189.6,228,183.4,234.1,183.4,241.9z M244.4,119.6c-10,0-19.9,0.1-29.9,0
		c-3.3,0-5.4,1.5-5.4,4.5c0,3.1,2.2,4.5,5.3,4.5c20.1,0,40.2,0,60.2,0c3,0,5.3-1,5.3-4.5c-0.1-3.6-2.4-4.6-5.6-4.5
		C264.4,119.6,254.4,119.6,244.4,119.6z"/>
	<path d="M52.8,309.3c0-4.9,0-9.6,0-14.7c10.4,0,20.7,0,31.4,0c0.1-1.5,0.3-2.6,0.3-3.8c0-21.6-0.1-43.3,0.1-64.9
		c0-2.9-0.9-4.1-3.6-5c-14.1-4.6-23-17.4-22.8-32.3c0.2-14.7,9.5-27.2,23.6-31.8c21-6.8,40.8,8.2,43.7,27.2
		c2.4,15.6-7.7,32.8-23.4,37.3c-0.7,0.2-1.5,0.5-2.3,0.8c0,23.9,0,47.8,0,72.1c10.3,0,20.4,0,30.9,0c0,5.2,0,10.1,0,15.1
		C104.7,309.3,78.9,309.3,52.8,309.3z"/>
	<path d="M292.6,151.6c-1,1.7-2.1,3.3-2.9,5.1c-0.5,1.3-1,2.8-0.8,4.1c1.5,7.9-4.8,15.5-12.5,16.2c-8.4,0.8-15.3-5.3-15.9-13.6
		c-0.3-3.9-1.3-7.7-2.1-11.8C269.2,151.6,280.8,151.6,292.6,151.6z"/>
</g>
</svg>
