<?xml version="1.0" encoding="utf-8"?>
<!-- Generator: Adobe Illustrator 27.3.1, SVG Export Plug-In . SVG Version: 6.00 Build 0)  -->
<svg version="1.1" id="Layer_1" xmlns="http://www.w3.org/2000/svg" xmlns:xlink="http://www.w3.org/1999/xlink" x="0px" y="0px"
	 viewBox="0 0 400 400" style="enable-background:new 0 0 400 400;" xml:space="preserve">
<style type="text/css">
	.st0{fill:#4EC0EB;}
</style>
<g>
	<circle class="st0" cx="200" cy="193" r="178.3"/>
	<g>
		<path d="M345.4,351.9c-4.4,21.5-20.9,33.3-39,33.4c-17.5,0.1-34.8-11.3-39.3-33.2c-44.6,0-89.2,0-134,0
			c-5.4,20.6-18.3,33.1-40.2,33c-19.3,0-31.3-11.1-38.5-33.3c-8.2,0-16.6,0-24.9,0c-12.1,0-17.9-5.8-17.9-17.8c0-14.8,0-29.7,0-44.5
			c0-9.2,4.8-14.9,13.8-16.7c6.4-1.2,12.7-2.4,19-3.9c2.1-0.5,4.4-1.7,6-3.2c18.7-16.9,37.1-34.1,55.9-50.8
			c10.6-9.4,23.4-13.4,37.6-13.4c19.2,0,38.4,0.2,57.6-0.1c11.9-0.1,22.9,2.8,33.2,8.6c24.1,13.5,46.2,30,68.6,45.9
			c1.7,1.2,3.6,2.3,5.1,3.8c7.4,7.1,16.5,9.3,26.5,9.9c13,0.8,26,2.5,39.1,3.9c8.9,1,14.4,7.2,14.4,16.1c0,15.5,0.1,30.9,0,46.4
			c0,9-6.6,15.5-15.6,15.6C363.8,351.9,354.7,351.9,345.4,351.9z M345.7,340.3c8.5,0,17.1,0,25.6,0c4.6,0,5.4-0.8,5.4-5.5
			c0-14.6-0.1-29.2,0.1-43.8c0-3.7-1.3-5.5-5-5.9c-15.6-1.6-31.2-3.5-46.8-4.9c-6.2-0.6-11.7-2.1-16.8-6c-9.9-7.6-20.1-14.8-30.2-22
			c-17.2-12.3-34.3-25-53.4-34.2c-4.9-2.4-10.6-4.2-16-4.3c-22.1-0.6-44.1-0.5-66.2-0.4c-11.1,0-21.1,3.9-29.3,11.3
			c-18.4,16.6-36.7,33.3-54.8,50.3c-3,2.8-5.9,4.7-9.9,5.4c-6.9,1.1-13.7,2.5-20.5,3.9c-2.3,0.4-4.4,1.2-4.4,4.1
			c0,16.1-0.1,32.2,0.1,48.2c0,1.3,2,3.6,3.1,3.7c9.3,0.3,18.6,0.2,27.9,0.2c5.3-23.8,22.4-32.6,36.7-33.6c8.3-0.6,16,1.4,23.1,5.8
			c10.4,6.4,16.3,16,18.6,27.7c45,0,89.6,0,134.1,0c4.5-19.8,19-32.8,37.1-33.5C324.4,305.7,338.6,317.1,345.7,340.3z M93.6,318.3
			c-15.2,0-27.5,12.4-27.5,27.6c0,15.1,12.5,27.6,27.6,27.7c15.2,0,27.9-12.7,27.7-27.9C121.3,330.6,108.8,318.2,93.6,318.3z
			 M306.3,318.3c-15.3,0-27.6,12.3-27.7,27.5c-0.1,15.1,12.5,27.7,27.6,27.7c15.4-0.1,27.7-12.5,27.6-28
			C333.9,330.6,321.3,318.3,306.3,318.3z"/>
		<path d="M148.5,63.7c0-5.3,0-10,0-14.7c0.1-13.7,8.8-22.4,22.5-22.4c8.5,0,17-0.1,25.4,0c11.3,0.1,20,7.9,21,19.2
			c0.4,4.8,0.3,9.7,0.2,14.6c-0.1,2.7,0.9,3.4,3.5,3.4c8.5-0.1,17-0.1,25.4,0c12.3,0.1,19.9,7.7,19.9,19.8c0.1,26.4,0.1,52.9,0,79.3
			c0,12.2-8,20-20.2,20.1c-42.1,0-84.3,0-126.4,0c-12,0-19.7-7.6-19.8-19.6c-0.1-26.7-0.1-53.4,0-80c0.1-12,7.7-19.5,19.8-19.5
			C129.2,63.7,138.5,63.7,148.5,63.7z M111.6,126.9c0,11.9,0,23.5,0,35.1c0,7.6,2.1,9.7,9.8,9.7c39.3,0,78.5,0,117.8,0
			c2.7,0,5.5,0.1,8.2,0c4.8-0.2,7.3-2.8,7.4-7.6c0.1-11.7,0-23.4,0-35.1c0-0.6-0.1-1.2-0.2-1.8c-22,0-43.9,0-65.6,0
			c-0.1,0.6-0.2,0.8-0.2,1c0,3.2,0,6.5-0.1,9.7c0,4.6-2.1,7.3-5.6,7.4c-3.6,0.2-6-2.7-6.1-7.4c-0.1-3.6,0-7.2,0-10.9
			C155.1,126.9,133.6,126.9,111.6,126.9z M254.8,114.8c0-10.8,0-21.2,0-31.7c0-5.5-2.6-8-8.1-8c-42.4,0-84.7,0-127.1,0
			c-5.4,0-8,2.6-8,8c0,9.6,0,19.2,0,28.8c0,0.9,0.2,1.9,0.3,2.8C159.5,114.8,206.9,114.8,254.8,114.8z M206,63.2
			c0-5.8,0.2-11.1-0.1-16.4c-0.2-4.8-4-8.2-8.9-8.3c-9.1-0.1-18.2-0.1-27.3,0c-4.1,0-8,2.6-8.3,6.2c-0.5,6.1-0.1,12.3-0.1,18.6
			C176.1,63.2,190.8,63.2,206,63.2z"/>
	</g>
	<path d="M197,277.4c-29.4,0-58.8,0-88.2,0c-4.9,0-7.4-1.5-7.5-4.8c-0.1-1.6,0.4-3.7,1.4-4.7c12.1-11.5,24.2-23,36.6-34.2
		c7.2-6.5,16-8.7,25.6-8.7c17.3,0.1,34.6,0,52-0.2c7.7-0.1,15,1.4,21.3,5.7c13.1,8.7,25.8,17.8,38.7,26.7c4.1,2.8,8.2,5.7,12.3,8.5
		c2.6,1.8,4.7,3.7,3.7,7.3c-1,3.8-3.9,4.4-7.2,4.4C256.1,277.4,226.6,277.4,197,277.4z M197.8,236.8c0,9.8,0,19.2,0,28.6
		c23.3,0,46.4,0,69.5,0c-12.6-9.8-24.8-20-39-27c-1.6-0.8-3.5-1.5-5.3-1.6C214.7,236.7,206.4,236.8,197.8,236.8z M185.5,265.5
		c0-9.8,0-19.3,0-29c-8.8,0-17.4-0.5-25.9,0.2c-4.1,0.4-8.5,2.4-11.8,4.9c-6,4.4-11.4,9.7-16.9,14.7c-3,2.7-5.7,5.7-9.1,9.2
		C143.6,265.5,164.4,265.5,185.5,265.5z"/>
</g>
</svg>
