<?xml version="1.0" encoding="utf-8"?>
<!-- Generator: Adobe Illustrator 16.0.0, SVG Export Plug-In . SVG Version: 6.00 Build 0)  -->
<!DOCTYPE svg PUBLIC "-//W3C//DTD SVG 1.1//EN" "http://www.w3.org/Graphics/SVG/1.1/DTD/svg11.dtd">
<svg version="1.1" id="Layer_1" xmlns="http://www.w3.org/2000/svg" xmlns:xlink="http://www.w3.org/1999/xlink" x="0px" y="0px"
	 width="660.86px" height="529.208px" viewBox="0 0 660.86 529.208" enable-background="new 0 0 660.86 529.208"
	 xml:space="preserve">
<g>
	<g>
		<g>
			<g>
				<path fill="#F05523" d="M215.124,179.095c-0.097,0-0.195-0.005-0.293-0.019c-1.286-0.161-2.196-1.332-2.036-2.617
					c0.232-1.856,0.476-3.723,0.729-5.598c0.174-1.282,1.352-2.188,2.639-2.008c1.282,0.176,2.181,1.355,2.007,2.638
					c-0.252,1.859-0.493,3.709-0.724,5.549C217.298,178.226,216.288,179.095,215.124,179.095z"/>
			</g>
			<g>
				<path fill="#F05523" d="M520.381,268.541c-0.009,0-0.016,0-0.025,0c-3.896-0.041-7.782-0.273-11.551-0.683
					c-1.286-0.141-2.217-1.298-2.076-2.584c0.14-1.287,1.307-2.201,2.585-2.076c3.617,0.396,7.349,0.616,11.092,0.654
					c1.294,0.015,2.333,1.075,2.319,2.37C522.712,267.508,521.665,268.541,520.381,268.541z M531.713,268.131
					c-1.206,0-2.232-0.927-2.333-2.151c-0.106-1.291,0.854-2.422,2.144-2.529c3.676-0.301,7.394-0.773,11.049-1.404
					c1.283-0.224,2.487,0.637,2.709,1.912c0.219,1.275-0.638,2.487-1.913,2.707c-3.792,0.653-7.647,1.144-11.46,1.458
					C531.843,268.129,531.777,268.131,531.713,268.131z M497.872,266.049c-0.168,0-0.335-0.017-0.505-0.054
					c-3.833-0.841-7.594-1.898-11.18-3.142c-1.224-0.424-1.87-1.759-1.445-2.981c0.422-1.224,1.756-1.875,2.981-1.446
					c3.412,1.184,6.995,2.189,10.647,2.99c1.265,0.278,2.064,1.527,1.789,2.791C499.919,265.302,498.949,266.049,497.872,266.049z
					 M554.056,264.276c-1.037,0-1.984-0.693-2.264-1.742c-0.332-1.252,0.411-2.534,1.662-2.868c3.603-0.958,7.171-2.083,10.61-3.349
					c1.213-0.441,2.562,0.175,3.009,1.392c0.446,1.214-0.177,2.562-1.392,3.009c-3.573,1.312-7.282,2.483-11.021,3.478
					C554.457,264.251,554.254,264.276,554.056,264.276z M476.505,258.586c-0.352,0-0.711-0.08-1.049-0.248
					c-3.509-1.761-6.884-3.766-10.03-5.958c-1.063-0.741-1.324-2.201-0.585-3.264c0.741-1.062,2.199-1.322,3.265-0.583
					c2.961,2.065,6.144,3.953,9.452,5.613c1.157,0.582,1.624,1.991,1.046,3.146C478.19,258.113,477.364,258.586,476.505,258.586z
					 M575.313,256.427c-0.868,0-1.702-0.484-2.108-1.32c-0.565-1.162-0.083-2.565,1.082-3.133c3.398-1.654,6.653-3.466,9.672-5.39
					c1.089-0.697,2.54-0.375,3.235,0.717c0.696,1.093,0.374,2.54-0.717,3.237c-3.17,2.018-6.581,3.919-10.14,5.65
					C576.008,256.35,575.657,256.427,575.313,256.427z M457.985,245.637c-0.582,0-1.163-0.216-1.617-0.648
					c-2.817-2.685-5.445-5.613-7.813-8.701c-0.789-1.027-0.595-2.498,0.434-3.287c1.028-0.784,2.497-0.591,3.286,0.435
					c2.22,2.896,4.686,5.644,7.328,8.161c0.936,0.894,0.972,2.377,0.078,3.314C459.222,245.393,458.604,245.637,457.985,245.637z
					 M594.356,244.198c-0.663,0-1.325-0.281-1.787-0.828c-0.84-0.986-0.719-2.464,0.27-3.302c2.892-2.457,5.488-5.058,7.72-7.733
					c0.827-0.993,2.308-1.125,3.301-0.299c0.995,0.829,1.129,2.308,0.3,3.301c-2.404,2.881-5.19,5.675-8.286,8.304
					C595.433,244.014,594.893,244.198,594.356,244.198z M444.315,227.668c-0.849,0-1.667-0.462-2.084-1.268
					c-1.688-3.267-3.176-6.788-4.544-10.761c-0.423-1.224,0.229-2.559,1.453-2.981c1.22-0.419,2.558,0.228,2.979,1.453
					c1.295,3.757,2.693,7.073,4.276,10.137c0.593,1.15,0.144,2.564-1.007,3.157C445.046,227.584,444.677,227.668,444.315,227.668z
					 M436.738,206.316c-1.054,0-2.012-0.715-2.273-1.784c-0.799-3.251-1.553-6.705-2.441-11.198
					c-0.25-1.269,0.576-2.501,1.847-2.752c1.271-0.248,2.502,0.575,2.753,1.845c0.873,4.419,1.61,7.808,2.393,10.985
					c0.309,1.258-0.458,2.527-1.716,2.836C437.112,206.295,436.923,206.316,436.738,206.316z M432.169,184.073
					c-1.097,0-2.077-0.775-2.298-1.894c-0.614-3.124-1.446-7.193-2.427-10.942c-0.325-1.252,0.424-2.535,1.676-2.861
					c1.248-0.328,2.532,0.423,2.86,1.674c1.012,3.873,1.862,8.032,2.491,11.226c0.249,1.269-0.579,2.501-1.849,2.75
					C432.472,184.058,432.318,184.073,432.169,184.073z M217.496,162.295c-0.121,0-0.245-0.01-0.367-0.028
					c-1.279-0.203-2.151-1.402-1.95-2.682c0.598-3.79,1.239-7.572,1.908-11.242c0.23-1.275,1.449-2.117,2.724-1.888
					c1.274,0.231,2.118,1.452,1.888,2.724c-0.661,3.638-1.296,7.383-1.89,11.136C219.626,161.471,218.63,162.295,217.496,162.295z
					 M425.992,162.287c-0.874,0-1.713-0.492-2.115-1.335c-1.726-3.616-3.729-6.214-6.124-7.943
					c-1.049-0.756-1.286-2.221-0.529-3.272c0.76-1.047,2.223-1.286,3.273-0.528c3.046,2.2,5.537,5.381,7.61,9.726
					c0.557,1.168,0.063,2.567-1.106,3.124C426.678,162.213,426.332,162.287,425.992,162.287z M356.341,157.471
					c-1.487-0.001-2.897-0.054-4.191-0.154c-1.289-0.1-2.256-1.227-2.156-2.519c0.103-1.29,1.229-2.254,2.52-2.156
					c3.029,0.235,6.647,0.174,10.946-0.203c1.285-0.103,2.425,0.841,2.539,2.13s-0.841,2.426-2.13,2.54
					C361.1,157.351,358.64,157.471,356.341,157.471z M374.915,155.708c-1.136,0-2.135-0.83-2.313-1.987
					c-0.195-1.281,0.682-2.476,1.96-2.674c3.84-0.591,7.782-1.28,11.132-1.879c1.281-0.231,2.491,0.623,2.72,1.896
					c0.227,1.273-0.622,2.493-1.896,2.72c-3.378,0.603-7.353,1.298-11.24,1.896C375.154,155.698,375.033,155.708,374.915,155.708z
					 M341.555,154.203c-0.449,0-0.904-0.128-1.306-0.397c-3.75-2.521-5.842-6.347-6.214-11.375
					c-0.095-1.291,0.874-2.415,2.164-2.511c1.3-0.098,2.415,0.873,2.511,2.165c0.265,3.569,1.622,6.131,4.152,7.829
					c1.075,0.723,1.361,2.178,0.641,3.254C343.05,153.839,342.31,154.203,341.555,154.203z M397.273,151.825
					c-1.119,0-2.108-0.802-2.307-1.942c-0.223-1.275,0.631-2.489,1.906-2.711c2.254-0.393,4.505-0.773,6.744-1.132
					c1.699-0.272,3.343-0.413,4.88-0.419c0.004,0,0.006,0,0.01,0c1.29,0,2.338,1.043,2.345,2.333
					c0.004,1.294-1.04,2.348-2.335,2.354c-1.297,0.004-2.696,0.126-4.161,0.36c-2.215,0.354-4.445,0.732-6.678,1.122
					C397.543,151.813,397.407,151.825,397.273,151.825z M221.557,139.96c-0.157,0-0.318-0.016-0.478-0.049
					c-1.268-0.262-2.083-1.503-1.819-2.771c0.779-3.761,1.61-7.511,2.468-11.147c0.298-1.261,1.561-2.036,2.819-1.742
					c1.26,0.297,2.041,1.56,1.743,2.819c-0.848,3.593-1.668,7.302-2.44,11.021C223.621,139.199,222.645,139.96,221.557,139.96z
					 M337.763,133.386c-0.15,0-0.304-0.014-0.457-0.044c-1.271-0.252-2.096-1.485-1.846-2.755c0.694-3.5,1.272-7.209,1.72-11.024
					c0.152-1.287,1.322-2.198,2.604-2.055c1.284,0.153,2.204,1.316,2.054,2.602c-0.463,3.937-1.061,7.768-1.778,11.388
					C339.839,132.612,338.858,133.386,337.763,133.386z M226.787,117.871c-0.203,0-0.407-0.027-0.611-0.081
					c-1.25-0.336-1.99-1.623-1.654-2.873c1.008-3.751,2.073-7.448,3.162-10.987c0.38-1.238,1.691-1.933,2.931-1.552
					c1.236,0.381,1.932,1.693,1.55,2.93c-1.073,3.488-2.122,7.131-3.116,10.828C228.767,117.181,227.82,117.871,226.787,117.871z
					 M340.436,110.875c-0.036,0-0.072-0.001-0.11-0.002c-1.292-0.059-2.293-1.155-2.233-2.449c0.108-2.354,0.163-4.71,0.163-7.004
					c0-1.379-0.02-2.77-0.06-4.163c-0.038-1.295,0.98-2.374,2.274-2.412c1.333-0.01,2.373,0.98,2.411,2.275
					c0.041,1.439,0.061,2.872,0.062,4.297c0,2.367-0.057,4.797-0.166,7.222C342.718,109.896,341.681,110.875,340.436,110.875z
					 M233.483,96.185c-0.261,0-0.524-0.043-0.783-0.134c-1.22-0.433-1.858-1.772-1.425-2.992c1.314-3.708,2.692-7.313,4.096-10.712
					c0.493-1.195,1.862-1.765,3.061-1.271c1.197,0.493,1.767,1.864,1.272,3.06c-1.374,3.327-2.725,6.856-4.012,10.488
					C235.352,95.585,234.447,96.185,233.483,96.185z M339.725,88.211c-1.172,0-2.187-0.879-2.325-2.072
					c-0.445-3.808-1.068-7.487-1.855-10.935c-0.287-1.262,0.502-2.517,1.764-2.805c1.267-0.286,2.52,0.503,2.807,1.764
					c0.824,3.612,1.477,7.457,1.941,11.43c0.15,1.287-0.77,2.451-2.055,2.602C339.908,88.205,339.815,88.211,339.725,88.211z
					 M242.185,75.237c-0.346,0-0.697-0.077-1.028-0.24c-1.163-0.57-1.645-1.973-1.075-3.135c1.763-3.599,3.608-7.016,5.481-10.153
					c0.663-1.114,2.102-1.476,3.213-0.811c1.111,0.665,1.475,2.102,0.811,3.213c-1.807,3.027-3.589,6.329-5.294,9.812
					C243.885,74.754,243.051,75.237,242.185,75.237z M334.576,66.167c-0.942,0-1.831-0.575-2.188-1.509
					c-1.357-3.558-2.959-6.852-4.764-9.792c-0.677-1.104-0.331-2.547,0.771-3.224c1.106-0.68,2.547-0.332,3.225,0.772
					c1.955,3.188,3.688,6.746,5.146,10.574c0.462,1.208-0.146,2.563-1.354,3.025C335.138,66.118,334.856,66.167,334.576,66.167z
					 M253.891,55.835c-0.494,0-0.992-0.155-1.416-0.478c-1.031-0.782-1.232-2.252-0.448-3.284c2.485-3.273,5.089-6.224,7.735-8.767
					c0.934-0.896,2.418-0.868,3.314,0.064c0.896,0.933,0.867,2.417-0.065,3.313c-2.472,2.376-4.913,5.145-7.252,8.225
					C255.297,55.516,254.599,55.835,253.891,55.835z M322.632,47.093c-0.596,0-1.19-0.225-1.647-0.678
					c-2.558-2.527-5.427-4.674-8.521-6.382c-1.135-0.625-1.547-2.05-0.921-3.185c0.624-1.133,2.045-1.55,3.184-0.92
					c3.475,1.916,6.688,4.322,9.554,7.155c0.921,0.909,0.929,2.394,0.019,3.314C323.84,46.861,323.236,47.093,322.632,47.093z
					 M270.305,40.39c-0.79,0-1.563-0.4-2.005-1.127c-0.672-1.106-0.321-2.547,0.785-3.22c3.521-2.143,7.21-3.732,10.96-4.731
					c1.253-0.328,2.536,0.412,2.869,1.663c0.333,1.252-0.412,2.535-1.663,2.868c-3.319,0.882-6.592,2.298-9.731,4.205
					C271.14,40.279,270.719,40.39,270.305,40.39z M303.068,36.243c-0.187,0-0.378-0.021-0.566-0.07
					c-3.331-0.825-6.937-1.307-10.721-1.436c-1.294-0.044-2.307-1.128-2.264-2.422c0.043-1.267,1.084-2.265,2.34-2.265
					c0.029,0,0.055,0.001,0.082,0.001c4.11,0.141,8.044,0.668,11.689,1.573c1.258,0.312,2.023,1.583,1.711,2.838
					C305.077,35.53,304.119,36.243,303.068,36.243z"/>
			</g>
			<g>
				<path fill="#F05523" d="M608.779,226.521c-0.355,0-0.717-0.081-1.056-0.254c-1.156-0.584-1.618-1.993-1.033-3.149
					c0.815-1.607,1.519-3.253,2.092-4.886c0.429-1.221,1.767-1.864,2.988-1.435c1.222,0.43,1.864,1.767,1.435,2.989
					c-0.641,1.825-1.426,3.657-2.332,5.449C610.46,226.051,609.636,226.521,608.779,226.521z"/>
			</g>
		</g>
		<g>
			<g>
				<path fill="#F05523" d="M55.672,444.969c-0.989,0-1.908-0.63-2.228-1.62c-0.401-1.233,0.273-2.556,1.504-2.954
					c1.44-0.467,3.049-1.17,4.782-2.083c1.142-0.604,2.563-0.167,3.166,0.979c0.605,1.144,0.167,2.562-0.979,3.166
					c-1.968,1.039-3.825,1.846-5.521,2.396C56.156,444.931,55.911,444.969,55.672,444.969z"/>
			</g>
			<g>
				<path fill="#F05523" d="M70.282,436.47c-0.694,0-1.379-0.307-1.842-0.892c-0.802-1.016-0.629-2.489,0.387-3.293
					c2.849-2.249,5.588-4.749,8.141-7.429c0.893-0.936,2.375-0.973,3.314-0.08c0.937,0.893,0.973,2.375,0.08,3.313
					c-2.704,2.839-5.608,5.489-8.63,7.875C71.302,436.305,70.79,436.47,70.282,436.47z M85.875,420.056
					c-0.465,0-0.936-0.139-1.346-0.427c-1.059-0.748-1.312-2.21-0.566-3.267c2.171-3.082,4.029-6.259,5.523-9.44
					c0.55-1.169,1.946-1.673,3.117-1.124c1.172,0.552,1.675,1.947,1.125,3.119c-1.61,3.427-3.606,6.841-5.934,10.145
					C87.338,419.709,86.614,420.056,85.875,420.056z M95.337,399.564c-0.172,0-0.348-0.02-0.523-0.059
					c-1.262-0.287-2.052-1.544-1.765-2.806c0.715-3.144,1.079-6.309,1.079-9.408c0-0.421-0.007-0.843-0.02-1.267
					c-0.042-1.294,0.975-2.375,2.268-2.416c1.328-0.016,2.375,0.975,2.417,2.268c0.015,0.473,0.022,0.943,0.022,1.415
					c0,3.448-0.401,6.964-1.193,10.448C97.374,398.826,96.407,399.564,95.337,399.564z M94.814,377.08
					c-1.062,0-2.023-0.725-2.278-1.803c-0.783-3.316-1.867-6.882-3.221-10.596c-0.443-1.215,0.182-2.563,1.399-3.005
					c1.214-0.447,2.56,0.183,3.004,1.399c1.416,3.887,2.555,7.63,3.379,11.121c0.298,1.262-0.481,2.523-1.742,2.821
					C95.175,377.061,94.994,377.08,94.814,377.08z M87.197,355.718c-0.892,0-1.744-0.51-2.136-1.376
					c-1.442-3.184-3.047-6.494-4.91-10.122c-0.59-1.152-0.135-2.563,1.017-3.155c1.151-0.59,2.564-0.135,3.154,1.017
					c1.896,3.696,3.534,7.073,5.008,10.325c0.534,1.18,0.011,2.568-1.168,3.104C87.849,355.651,87.521,355.718,87.197,355.718z
					 M76.892,335.467c-0.826,0-1.628-0.439-2.056-1.214c-1.597-2.902-3.362-6.041-5.552-9.876c-0.641-1.124-0.25-2.557,0.875-3.197
					c1.124-0.645,2.556-0.251,3.197,0.873c2.201,3.857,3.977,7.016,5.587,9.939c0.625,1.134,0.211,2.559-0.923,3.183
					C77.661,335.373,77.273,335.467,76.892,335.467z M65.659,315.704c-0.811,0-1.6-0.421-2.033-1.176
					c-1.882-3.267-3.775-6.561-5.656-9.876c-0.639-1.126-0.244-2.556,0.881-3.194c1.126-0.64,2.558-0.243,3.196,0.882
					c1.875,3.306,3.764,6.59,5.641,9.851c0.647,1.122,0.261,2.555-0.861,3.202C66.458,315.604,66.057,315.704,65.659,315.704z
					 M54.473,295.917c-0.829,0-1.632-0.441-2.059-1.222c-1.969-3.604-3.721-6.906-5.357-10.095c-0.59-1.151-0.135-2.565,1.018-3.155
					c1.152-0.588,2.564-0.137,3.154,1.016c1.618,3.152,3.35,6.419,5.299,9.987c0.621,1.136,0.204,2.561-0.933,3.18
					C55.239,295.824,54.852,295.917,54.473,295.917z M44.142,275.673c-0.884,0-1.728-0.501-2.126-1.354
					c-1.684-3.612-3.232-7.15-4.6-10.517c-0.487-1.2,0.089-2.567,1.288-3.053c1.199-0.487,2.567,0.087,3.054,1.288
					c1.339,3.294,2.855,6.759,4.506,10.3c0.547,1.173,0.039,2.569-1.134,3.115C44.81,275.602,44.473,275.673,44.142,275.673z
					 M35.643,254.613c-0.981,0-1.897-0.623-2.224-1.606c-1.255-3.782-2.328-7.518-3.191-11.102c-0.303-1.257,0.47-2.524,1.728-2.826
					c1.261-0.303,2.525,0.47,2.829,1.729c0.833,3.455,1.871,7.063,3.084,10.721c0.407,1.229-0.258,2.556-1.486,2.963
					C36.137,254.574,35.888,254.613,35.643,254.613z M30.409,232.549c-1.159,0-2.166-0.859-2.321-2.037
					c-0.52-3.947-0.791-7.853-0.804-11.612c-0.004-1.295,1.041-2.348,2.336-2.352c0.003,0,0.006,0,0.007,0
					c1.292,0,2.34,1.044,2.344,2.335c0.012,3.56,0.269,7.266,0.764,11.014c0.169,1.284-0.734,2.462-2.018,2.63
					C30.614,232.542,30.511,232.549,30.409,232.549z M30.413,209.917c-0.113,0-0.226-0.007-0.339-0.024
					c-1.282-0.187-2.17-1.375-1.983-2.656c0.563-3.878,1.435-7.722,2.59-11.426c0.386-1.235,1.7-1.928,2.937-1.539
					c1.235,0.386,1.924,1.7,1.539,2.936c-1.083,3.468-1.899,7.068-2.426,10.702C32.56,209.076,31.559,209.917,30.413,209.917z
					 M131.744,202.536c-0.482,0-0.966-0.147-1.383-0.453c-2.902-2.124-6.027-4.195-9.291-6.156c-1.108-0.667-1.467-2.107-0.8-3.217
					c0.666-1.11,2.105-1.467,3.215-0.801c3.384,2.035,6.63,4.185,9.644,6.392c1.046,0.765,1.272,2.231,0.508,3.276
					C133.176,202.203,132.464,202.536,131.744,202.536z M112.311,190.813c-0.35,0-0.704-0.079-1.039-0.244
					c-3.35-1.661-6.781-3.197-10.2-4.564c-1.203-0.482-1.787-1.845-1.306-3.046c0.482-1.204,1.845-1.787,3.048-1.307
					c3.533,1.415,7.078,3.001,10.539,4.717c1.161,0.575,1.634,1.981,1.06,3.142C114.002,190.335,113.174,190.813,112.311,190.813z
					 M37.93,188.753c-0.513,0-1.029-0.168-1.46-0.513c-1.013-0.808-1.177-2.282-0.37-3.293c2.535-3.173,5.779-5.736,9.642-7.617
					c1.166-0.567,2.567-0.083,3.135,1.081c0.565,1.165,0.082,2.568-1.082,3.133c-3.234,1.574-5.937,3.703-8.033,6.328
					C39.3,188.452,38.618,188.753,37.93,188.753z M91.231,182.402c-0.225,0-0.455-0.033-0.681-0.101
					c-3.665-1.111-7.293-2.019-10.784-2.696c-1.269-0.247-2.1-1.476-1.854-2.747c0.245-1.271,1.476-2.11,2.747-1.854
					c3.647,0.707,7.433,1.652,11.25,2.811c1.238,0.376,1.938,1.684,1.563,2.923C93.167,181.75,92.236,182.402,91.231,182.402z
					 M57.619,178.604c-1.148,0-2.152-0.846-2.318-2.016c-0.181-1.282,0.711-2.468,1.992-2.648c3.632-0.515,7.658-0.656,11.795-0.418
					c1.292,0.075,2.279,1.181,2.207,2.474c-0.074,1.292-1.179,2.295-2.475,2.206c-3.831-0.218-7.545-0.09-10.869,0.379
					C57.839,178.595,57.729,178.604,57.619,178.604z"/>
			</g>
			<g>
				<path fill="#F05523" d="M144.542,213.709c-0.627,0-1.252-0.249-1.714-0.744c-1.189-1.275-2.492-2.567-3.868-3.841
					c-0.95-0.879-1.009-2.361-0.129-3.312c0.879-0.95,2.362-1.008,3.313-0.129c1.46,1.351,2.844,2.724,4.112,4.08
					c0.883,0.948,0.833,2.431-0.113,3.314C145.69,213.5,145.115,213.709,144.542,213.709z"/>
			</g>
		</g>
		<g>
			<g>
				<path fill="#F05523" d="M598.814,218.569c-0.602,0-1.201-0.229-1.658-0.687c-0.914-0.916-0.914-2.4,0-3.315l26.859-26.857
					c0.914-0.915,2.398-0.915,3.313,0c0.916,0.916,0.916,2.4,0,3.315l-26.857,26.857
					C600.015,218.339,599.415,218.569,598.814,218.569z"/>
			</g>
			<g>
				<path fill="#F05523" d="M625.672,218.569c-0.6,0-1.199-0.229-1.656-0.687l-26.859-26.857c-0.914-0.915-0.914-2.4,0-3.315
					c0.914-0.915,2.401-0.915,3.315,0l26.857,26.857c0.916,0.915,0.916,2.399,0,3.315
					C626.872,218.339,626.271,218.569,625.672,218.569z"/>
			</g>
		</g>
		<g>
			<path fill="#F05523" d="M38.755,462.941c-6.605,0-11.977-5.372-11.977-11.976c0-6.605,5.372-11.978,11.977-11.978
				c6.604,0,11.976,5.372,11.976,11.978C50.73,457.569,45.358,462.941,38.755,462.941z M38.755,443.676
				c-4.021,0-7.291,3.271-7.291,7.289s3.27,7.287,7.291,7.287c4.019,0,7.289-3.269,7.289-7.287S42.773,443.676,38.755,443.676z"/>
		</g>
	</g>
	<g>
		<path fill="#B96C43" d="M554.465,521.019c-31.053-19.8-56.81-30.154-91.461-40.056c-27.181-7.771-72.885-10.392-90.229-11.671
			c-14.974-1.105-46.108-1.389-67.475-0.985c-7.521,0.141-13.829,0.384-17.805,0.732c-15.301,1.35-30.376-2.7-56.927-14.627
			c-26.551-11.925-37.577-12.374-45.902-15.975c-8.326-3.601-11.476-15.301-11.476-15.301c-14.4-1.8-19.351,2.024-29.702-22.052
			c-4.855-11.306-6.918-20.438-7.744-26.944c-0.929-7.359-0.272-11.361-0.272-11.361l-0.01-0.011
			c-0.403-0.441-13.182-14.561-16.95-24.967c-3.731-10.322,1.753-22.529,2.017-23.101l0.008-0.019c0,0-30.152-2.924-31.951-22.089
			c-0.076-0.834-0.095-1.623-0.047-2.371c1.013-16.417,30.648-12.442,30.648-12.442l193.17-25.425c0,0-3.095-3.235-7.811-8.476
			c-16.274-18.104-51.873-60.2-45.854-75.904c1.031-2.7,2.1-4.922,3.196-6.722c7.126-11.663,15.545-5.428,25.493,3.347
			c11.475,10.125,26.662,11.814,51.976,36.114c25.314,24.302,32.158,20.374,48.837,31.558
			c15.751,10.566,22.604,22.783,46.455,42.133c5.371,4.359,9.487,8.672,12.779,12.863v0.01
			c11.306,14.409,12.806,27.366,21.871,35.729c1.389,1.285,19.848,20.888,36.901,25.65c19.352,5.399,27.901,12.151,48.152,21.151
			c8.991,3.996,16.712,6.112,28.565,8.705c21.21,4.639,35.005,53.369,27.034,89.158
			C601.984,503.462,567.174,529.125,554.465,521.019z"/>
		<path fill="#8D4B2A" d="M304.553,243.882c-16.276-18.104-51.875-60.199-45.855-75.904c1.032-2.7,2.101-4.922,3.197-6.722
			c-0.572,6.685,2.043,15.731,16.379,25.624c23.963,16.539,28.267,19.809,39.827,12.488c11.56-7.323-6.077,8.1-5.402,14.512
			c0.676,6.413,10.97,21.489,29.036,37.501C353.502,261.808,326.162,252.761,304.553,243.882z"/>
		<path fill="#8D4B2A" d="M473.253,326.788c-3.281,2.907-8.513,6.413-13.96,14.446c-6.854,10.128-13.126,7.614-10.472,5.289
			c2.653-2.315,7.659-9.788,10.134-22.388c2.475-12.601-9.216-24.742-11.521-36.854c11.307,14.409,12.807,27.365,21.872,35.729
			C470.693,324.294,471.995,325.549,473.253,326.788z"/>
		<polygon fill="#7B381C" points="277.259,354.446 256.156,410.605 236.13,414.619 210.029,401.043 199.969,402.214 
			174.177,382.272 174.858,377.191 144.542,307.485 		"/>
		<path fill="#8D4B2A" d="M554.813,521.227c-3.655-2.254-8.25-5.166-13.623-8.285c-10.248-5.951-19.435-10.399-27.535-14.097
			c-15.224-6.951-28.036-11.417-50.651-17.878c-27.328-7.811-55.07-9.741-75.519-10.848c-0.226-0.02-0.44-0.027-0.657-0.037
			c-2.015-0.113-3.956-0.215-5.821-0.31c-2.953-0.159-5.71-0.309-8.231-0.479c-14.982-0.985-46.108-1.388-67.475-0.985
			c-3.693-5.84-15.732-16.077-23.653-16.144c-3.393-0.028-3.601,5.851-4.275,8.495c-0.676,2.634-2.99-3.488-2.99-9.329
			c0-5.85-4.62-13.98-14.402-24.189c-4.096-4.274-10.664-6.483-14.174-5.174c-5.186,1.935-9.19,12.037-9.057,15.525
			c0.226,5.85,0.675,12.19-1.35,12.416c-2.025,0.226-3.543-11.516-4.669-22.092c-1.124-10.574-12.375-14.175-13.951-11.025
			c-1.575,3.151-9.385,13.097-18.835,18.949c-9.45,5.849-2.281-2.521,2.354-6.181c6.413-5.062,8.906-16.215,5.868-14.938
			c-3.037,1.265-12.113,4.646-20.044,4.646c-7.878,0,7.773-11.653,13.849-17.054l8.597,0.178c0,0,10.013-0.9,17.213,3.375
			c7.201,4.275,9.619,5.907,11.475,6.244c1.856,0.337,4.757-1.457,8.438-2.699c3.745-1.267,8.775-2.195,8.775-2.195l22.791-52.671
			c0,0,165.794-12.47,175.264,7.782c5.297,11.306-6.92,23.354-17.036,33.864c-7.152,7.434-23.185,28.061-24.084,36.61
			c-0.9,8.551,12.919,20.42,29.484,23.242c19.259,3.28,45.668,8.367,69.725,15.066c18.9,5.265,38.276,12.201,47.618,16.435
			c9.822,4.45,21.938,8.438,33.526,15.538C590.215,507.143,566.441,528.398,554.813,521.227z"/>
		<path fill="#8D4B2A" d="M128.688,290.224c0,0,3.113,5.2,2.472,7.425c-1.627,5.652-5.261,15.823-10.617,17.036
			c0,0-18.709-1.817-27.531-11.954C115.862,312.895,122.162,304.185,128.688,290.224z"/>
		<path fill="#442A72" d="M445.845,376.263l-117.833,80.353c-9.251,6.309-24.684,5.067-32.657-2.625L75.35,241.962
			c-7.91-7.381-6.636-18.756,0.15-26.309l123.063-65.251c6.857-4.169,15.583-3.424,21.533,1.841l231.648,201.452
			c0.349,6.243,1.159,8.269,0.579,12.318C451.744,370.066,449.382,373.851,445.845,376.263z"/>
		<path fill="#1B0F2C" d="M446.415,366.542l-118.296,80.378c-9.165,6.227-21.442,5.174-29.414-2.524L77.575,230.871
			c-5.334-5.152-4.345-13.958,2-17.798l118.196-71.518c6.797-4.112,15.479-3.324,21.422,1.945L447.73,346.069
			C454.072,351.689,453.424,361.78,446.415,366.542z"/>
		<path fill="#FFFFFF" d="M311.021,442.624c-4.882,0-9.502-1.865-13.008-5.253L80.471,226.444c-1.489-1.438-2.211-3.44-1.979-5.496
			c0.23-2.056,1.377-3.849,3.147-4.918l118.198-71.52c2.1-1.27,4.506-1.942,6.958-1.942c3.294,0,6.465,1.202,8.927,3.386
			l224.949,199.971c1.931,1.711,2.946,4.171,2.779,6.747c-0.164,2.577-1.484,4.888-3.62,6.338l-118.295,80.378
			C318.418,441.503,314.783,442.624,311.021,442.624z"/>
		<path fill="#B96C43" d="M161.267,336.061l-23.616,24.461l-2.137,2.212l-0.039,0.048l-0.008-0.01
			c-0.403-0.44-13.182-14.561-16.952-24.967c-3.731-10.322,1.754-22.528,2.017-23.101l0.01-0.019l11.587-20.785
			c0,0,5.195-1.453,11.026-0.356c4.923,0.928,10.293,3.675,13.388,10.641c3.328,7.5,4.519,15.349,4.875,21.376
			C161.792,331.777,161.267,336.061,161.267,336.061z"/>
		<path fill="#8D4B2A" d="M161.267,336.061l-13.167,15.226c0,0-10.58,10.436-10.973,9.255c0.477-5.289,2.629-11.879,7.416-15.865
			c4.797-3.995,12.553-9.45,16.876-19.115C161.792,331.777,161.267,336.061,161.267,336.061z"/>
		<path fill="#B96C43" d="M189.17,361.71c-1.547,5.224-5.213,9.413-9.845,12.62l-0.027,0.02c-5.607,4.36-12.581,6.29-18.957,7.331
			c-5.184,0.844-9.966,0.777-13.247-0.17c-5.072-1.462-9.076-4.171-11.344-7.368c-0.929-7.36-0.272-11.363-0.272-11.363l-0.011-0.01
			c0,0,10.21-15.685,18.77-20.502c8.654-4.857,12.208-15.658,19.183-15.658c3,0,7.416,1.791,11.006,5.86
			c1.06,1.19,2.044,2.578,2.898,4.181C190.333,342.257,191.767,350.442,189.17,361.71z"/>
		<path fill="#8D4B2A" d="M174.769,410.763c-6.525,6.076-11.7,3.6-9.675,1.8c2.026-1.8,6.02-20.495,0.45-20.026
			c-5.569,0.469-14.842-3.582-10.799-3.824c8.258-0.496,19.513-11.169,20.114-11.521
			C177.926,375.391,181.294,404.687,174.769,410.763z"/>
		<path fill="#8D4B2A" d="M419.662,455.651c1.477-21.949,22.565-35.551,26.693-44.999c4.102-9.393,17.306-36.471,17.697-41.18
			c0.45-5.399,11.963-21.782,11.963-17.865c0,3.915-8.362,17.19-9.713,24.615c-1.349,7.427-11.51,30.716-16.91,42.867
			c-5.401,12.149-13.803,27.018-14.141,30.82C434.914,453.713,418.986,465.683,419.662,455.651z"/>
		<path fill="#FBCEC7" d="M154.237,342.268c0,0-6.918,13.367,2.7,13.536c9.619,0.169,15.199-10.294,15.199-10.294
			s4.589-15.454,0-19.434C167.546,322.099,154.237,342.268,154.237,342.268z"/>
		<path fill="#FBCEC7" d="M123.728,305.907c-1.759,3.927-2.76,6.928-2.965,8.381c-0.523,3.711,0.672,8.262,3.097,9.96
			c3.375,2.362,7.933-4.241,9.62-13.091c1.687-8.848,1.967-16.846-1.351-17.257C128.813,293.487,125.486,301.982,123.728,305.907z"
			/>
		<path fill="#B96C43" d="M173.194,423.139c0,0-3.826-15.527-3.15-24.752c0.675-9.226,3.826-15.075,16.651-22.726
			c12.826-7.651,30.262-20.136,34.426-1.125c5.176,23.625-12.474,31.313-19.164,37.126
			C193.67,418.864,172.519,415.938,173.194,423.139z"/>
		<path fill="#FBCEC7" d="M203.307,366.423c0,0-18.413,12.388-16.612,17.339c1.8,4.95,15.75,3.15,21.375,0
			c5.625-3.149,13.672-10.41,9.284-16.97C214.229,362.119,212.585,361.613,203.307,366.423z"/>
	</g>
	<g>
		<polygon fill="#7BC147" points="361.117,406.152 318.816,367.434 377.861,347.263 438.606,353.951 		"/>
		<path fill="#7BC147" d="M135.134,189.59l42.853,42.911l10.041,45.949l-29.171,17.814L85.705,224.34
			c-1.634-1.605-1.311-4.322,0.654-5.5L135.134,189.59z"/>
		<polygon fill="#F2E1BE" points="314.314,361.399 276.311,323.788 336.099,258.779 335.881,301.819 372.993,342.92 		"/>
		<polygon fill="#F6C970" points="343.548,265.694 343.886,299.553 375.989,340.931 437.209,347.788 		"/>
		<polygon fill="#F6C970" points="139.544,187.058 181.149,227.295 227.208,212.688 176.67,163.771 		"/>
		<polygon fill="#F6C970" points="163.183,300.282 258.854,392.095 293.294,371.064 261.804,336.576 192.781,282.208 		"/>
		<polygon fill="#F2E1BE" points="191.586,270.709 184.266,232.816 224.204,218.078 218.996,244.58 220.814,276.443 		"/>
		<polygon fill="#F2E1BE" points="192.548,275.69 250.458,322.103 223.293,283.228 		"/>
		<polygon fill="#7BC147" points="264.66,194.231 329.732,251.356 239.138,225.198 		"/>
		<polygon fill="#F6C970" points="237.254,231.273 332.055,255.025 272.863,319.011 239.138,267.219 		"/>
		<path fill="#7BC147" d="M263.98,397.263l34.706-21.194l49.296,39.842l-32.939,20.867c-3.146,1.993-7.256,1.518-9.864-1.14
			L263.98,397.263z"/>
		<path fill="#F2E1BE" d="M180.172,161.703l23.116-14.117c3.123-1.908,7.132-1.511,9.821,0.971l36.958,34.104l-20.855,24.454
			L180.172,161.703z"/>
		<g>
			<path fill="#7BC7EA" d="M358.12,278.466c-0.12,0.669-0.243,1.342-0.364,2.017c-3.456,19.043-7.031,38.732-15.706,50.371
				c-2.341,3.132-5.545,5.935-9.526,8.365c-7.946,4.853-18.977,8.221-32.271,9.761c-2.39,0.277-4.811,0.491-7.257,0.638
				c-3.32,0.21-6.669,0.307-10.036,0.287c-23.366-0.088-46.773-5.419-59.851-14.202c-32.67-21.93-87.606-89.815-117.125-126.279
				c-1.057-1.312-0.299-0.365-1.282-1.585l10.108-6.062c1.275,1.579,0.766,0.952,2.168,2.679
				c29.153,36.017,83.408,103.06,114.581,123.995c9.033,6.057,24.924,10.155,41.799,11.313c3.47,0.246,6.989,0.364,10.485,0.349
				c4.78-0.024,9.536-0.292,14.147-0.824c16.05-1.848,27.685-6.615,32.741-13.406c7.5-10.049,11.06-29.664,14.199-46.968
				c0.666-3.664,1.3-7.104,1.931-10.315L358.12,278.466z"/>
		</g>
		<g>
			<path fill="#F4BB19" d="M254.13,184.333l5.917,5.726c-29.314,25.516-32.398,46.09-25.584,80.161
				c3.455,17.289,25.109,44.208,49.381,69.893c3.026,3.193,6.08,6.368,9.152,9.505c27.042,27.611,55.735,52.834,63.964,59.976
				l-5.737,3.78c-3.415-2.919-36.368-30.454-68.263-63.469c-3.23-3.349-6.442-6.737-9.602-10.141
				c-23.316-25.157-43.614-51.213-47.118-68.754c-4.186-20.92-2.188-39.371,6.097-56.405
				C238.412,202.097,240.538,195.99,254.13,184.333z"/>
		</g>
	</g>
	<g>
		<path fill="#F05523" d="M344.567,290.224c-18.192,0-34.983,14.694-34.983,34.984s34.983,78.366,34.983,78.366
			s34.984-58.076,34.984-78.366S362.759,290.224,344.567,290.224z"/>
		<path fill="#FFFFFF" d="M323.577,324.508c0-11.592,9.397-20.988,20.99-20.988s20.99,9.396,20.99,20.988
			c0,11.595-9.397,20.992-20.99,20.992S323.577,336.103,323.577,324.508z"/>
	</g>
	<g>
		<path fill="#F05523" d="M245.593,124.745c-12.527,0-24.089,10.118-24.089,24.089c0,13.972,24.089,53.961,24.089,53.961
			s24.089-39.989,24.089-53.961C269.682,134.863,258.119,124.745,245.593,124.745z"/>
		<circle fill="#FFFFFF" cx="245.593" cy="148.353" r="14.454"/>
	</g>
</g>
</svg>
