<?xml version="1.0" encoding="utf-8"?>
<!-- Generator: Adobe Illustrator 26.5.0, SVG Export Plug-In . SVG Version: 6.00 Build 0)  -->
<svg version="1.1" id="Layer_1" xmlns="http://www.w3.org/2000/svg" xmlns:xlink="http://www.w3.org/1999/xlink" x="0px" y="0px"
	 viewBox="0 0 1000 1000" style="enable-background:new 0 0 1000 1000;" xml:space="preserve">
<style type="text/css">
	.st0{fill:#FFFFFF;}
	.st1{fill:url(#SVGID_1_);}
	.st2{fill:url(#SVGID_00000008113196601231145540000009049831754494901393_);}
</style>
<g>
	<g>
		<path class="st0" d="M2073.4,490.8c-1-2.7-2.5-4.9-4.2-6.8c-2-1.8-4.2-3.3-6.8-4.3c-2.9-1.2-5.9-1.8-9.3-1.8
			c-3.4,0-6.4,0.6-9.2,1.8c-2.6,1-4.8,2.4-6.7,4.1c-1.8,2-3.3,4.3-4.4,7.1c-1.2,2.8-1.8,5.8-1.8,9.1c0,2.8,0.4,5.4,1.2,7.6
			c0.8,2.4,1.8,4.4,3.1,6.3c0.7,0.9,1.4,1.7,2.1,2.5c0,0,0,0,0,0c0.8,0.8,1.5,1.5,2.4,2.1c1.6,1.3,3.5,2.3,5.3,2.9v-10.6
			c-0.8-0.5-1.7-1.1-2.4-1.8c-0.1-0.2-0.3-0.4-0.4-0.6c-0.6-0.6-1.1-1.2-1.5-2c-1-1.8-1.6-3.9-1.6-6.4c0-1.5,0.3-3,0.8-4.5
			c0.5-1.4,1.2-2.8,2.2-4c1-1.2,2.1-2.3,3.5-3.1c1.4-0.8,2.9-1.4,4.6-1.7v35.3c0.9,0.1,1.8,0.1,2.8,0.1c2.8,0,5.3-0.4,7.6-1.2
			c2.3-0.7,4.4-1.8,6.2-3.1c1.1-0.7,2.1-1.5,2.9-2.4c1.5-1.8,2.8-3.8,3.6-6.2c0.1-0.4,0.3-0.7,0.4-1.1c0.6-1.7,1-3.5,1.2-5.3
			c0.1-0.9,0.2-1.9,0.2-2.9C2075.2,496.6,2074.6,493.6,2073.4,490.8z M2067,502.8c-0.1,0.6-0.3,1.2-0.5,1.7c-0.5,1.3-1.1,2.5-2,3.6
			c0,0-0.1,0.1-0.1,0.1c-0.7,0.7-1.4,1.4-2.2,2c-0.3,0.3-0.6,0.5-0.9,0.7c-1.2,0.8-2.5,1.3-4,1.7V487c1.5,0.3,2.8,0.9,4,1.7
			c1.2,0.8,2.3,1.7,3.2,2.8c0.9,1.2,1.5,2.4,2.1,3.8c0.5,1.4,0.7,3,0.7,4.6C2067.3,501,2067.2,501.9,2067,502.8z"/>
		<path class="st0" d="M1737.6,492.5c-0.8-2.4-1.8-4.4-3.1-6.3c-0.6-0.9-1.3-1.7-2-2.5c0,0-0.1,0-0.1,0c-0.7-0.8-1.5-1.5-2.4-2.1
			c-1.6-1.3-3.5-2.3-5.3-2.9v10.6c0.8,0.5,1.7,1.1,2.4,1.8c0.1,0.2,0.3,0.4,0.4,0.6c0.6,0.6,1.1,1.2,1.5,2c1,1.8,1.6,3.9,1.6,6.4
			c0,1.5-0.3,3-0.8,4.5c-0.6,1.4-1.3,2.8-2.2,4c-1,1.2-2.1,2.3-3.5,3.1c-1.4,0.8-2.9,1.4-4.6,1.7v-35.3c-0.9-0.1-1.8-0.1-2.7-0.1
			c-2.8,0-5.4,0.4-7.6,1.2c-2.3,0.7-4.4,1.8-6.2,3.1c-1.1,0.7-2.1,1.5-2.9,2.4c-1.5,1.8-2.8,3.8-3.6,6.2c-0.1,0.4-0.3,0.7-0.4,1.1
			c-0.6,1.7-1,3.5-1.2,5.3c-0.1,0.9-0.2,1.9-0.2,2.9c0,3.3,0.6,6.3,1.8,9.1c1,2.7,2.5,4.9,4.2,6.8c2,1.8,4.2,3.3,6.9,4.3
			c2.8,1.2,5.9,1.8,9.3,1.8c3.3,0,6.3-0.6,9.2-1.8c2.6-1,4.8-2.4,6.7-4.1c1.9-2,3.3-4.3,4.4-7.1c1.2-2.8,1.8-5.8,1.8-9.1
			C1738.8,497.2,1738.4,494.7,1737.6,492.5z M1712.5,513c-1.5-0.3-2.8-0.9-4-1.7c-1.2-0.8-2.3-1.7-3.2-2.8c-0.9-1.2-1.5-2.4-2.1-3.8
			c-0.6-1.4-0.8-3-0.8-4.6c0-1,0.1-1.9,0.3-2.8c0.1-0.6,0.3-1.2,0.5-1.7c0.5-1.3,1.1-2.5,2-3.6c0,0,0-0.1,0.1-0.1
			c0.7-0.7,1.4-1.4,2.2-2c0.3-0.3,0.6-0.5,0.9-0.7c1.2-0.8,2.5-1.3,4-1.7V513z M1905.2,659c-1-2.6-2.4-4.8-4.1-6.7
			c-2-1.9-4.3-3.3-7.1-4.4c-2.8-1.2-5.8-1.8-9.1-1.8c-2.8,0-5.4,0.4-7.6,1.2c-2.4,0.8-4.4,1.8-6.3,3.1c-0.9,0.6-1.7,1.3-2.4,2
			c0,0,0,0.1-0.1,0.1c-0.7,0.8-1.5,1.5-2.1,2.4c-1.3,1.6-2.3,3.5-2.9,5.3h10.6c0.5-0.8,1.1-1.7,1.8-2.4c0.2-0.1,0.4-0.3,0.6-0.4
			c0.6-0.6,1.2-1.1,2-1.5c1.8-1,4-1.6,6.4-1.6c1.5,0,3,0.3,4.5,0.8c1.4,0.5,2.8,1.2,4,2.2c1.2,1,2.3,2.1,3.1,3.5
			c0.8,1.4,1.4,2.9,1.7,4.6h-35.2c-0.1,0.9-0.1,1.8-0.1,2.8c0,2.8,0.4,5.3,1.2,7.6c0.7,2.3,1.8,4.4,3.1,6.2c0.7,1.1,1.6,2.1,2.4,2.9
			c1.8,1.5,3.8,2.8,6.2,3.6c0.4,0.1,0.7,0.3,1.1,0.4c1.7,0.6,3.5,1,5.3,1.2c0.9,0.1,1.9,0.2,2.9,0.2c3.3,0,6.3-0.6,9.1-1.8
			c2.7-1,4.9-2.5,6.8-4.2c1.8-2,3.3-4.2,4.3-6.9c1.2-2.8,1.8-5.9,1.8-9.2C1907,664.8,1906.4,661.8,1905.2,659z M1896.2,676.4
			c-0.8,1.2-1.8,2.3-2.9,3.2c-1.2,0.9-2.4,1.5-3.8,2.1c-1.4,0.5-3,0.7-4.6,0.7c-1,0-1.9-0.1-2.8-0.3c-0.6-0.1-1.2-0.3-1.7-0.5
			c-1.3-0.5-2.5-1.1-3.6-2c0,0-0.1,0-0.1-0.1c-0.7-0.7-1.4-1.4-2-2.2c-0.3-0.3-0.5-0.6-0.7-0.9c-0.8-1.2-1.3-2.5-1.7-4h25.6
			C1897.6,673.9,1897,675.2,1896.2,676.4z M1905.2,659c-1-2.6-2.4-4.8-4.1-6.7c-2-1.9-4.3-3.3-7.1-4.4c-2.8-1.2-5.8-1.8-9.1-1.8
			c-2.8,0-5.4,0.4-7.6,1.2c-2.4,0.8-4.4,1.8-6.3,3.1c-0.9,0.6-1.7,1.3-2.4,2c0,0,0,0.1-0.1,0.1c-0.7,0.8-1.5,1.5-2.1,2.4
			c-1.3,1.6-2.3,3.5-2.9,5.3h10.6c0.5-0.8,1.1-1.7,1.8-2.4c0.2-0.1,0.4-0.3,0.6-0.4c0.6-0.6,1.2-1.1,2-1.5c1.8-1,4-1.6,6.4-1.6
			c1.5,0,3,0.3,4.5,0.8c1.4,0.5,2.8,1.2,4,2.2c1.2,1,2.3,2.1,3.1,3.5c0.8,1.4,1.4,2.9,1.7,4.6h-35.2c-0.1,0.9-0.1,1.8-0.1,2.8
			c0,2.8,0.4,5.3,1.2,7.6c0.7,2.3,1.8,4.4,3.1,6.2c0.7,1.1,1.6,2.1,2.4,2.9c1.8,1.5,3.8,2.8,6.2,3.6c0.4,0.1,0.7,0.3,1.1,0.4
			c1.7,0.6,3.5,1,5.3,1.2c0.9,0.1,1.9,0.2,2.9,0.2c3.3,0,6.3-0.6,9.1-1.8c2.7-1,4.9-2.5,6.8-4.2c1.8-2,3.3-4.2,4.3-6.9
			c1.2-2.8,1.8-5.9,1.8-9.2C1907,664.8,1906.4,661.8,1905.2,659z M1896.2,676.4c-0.8,1.2-1.8,2.3-2.9,3.2c-1.2,0.9-2.4,1.5-3.8,2.1
			c-1.4,0.5-3,0.7-4.6,0.7c-1,0-1.9-0.1-2.8-0.3c-0.6-0.1-1.2-0.3-1.7-0.5c-1.3-0.5-2.5-1.1-3.6-2c0,0-0.1,0-0.1-0.1
			c-0.7-0.7-1.4-1.4-2-2.2c-0.3-0.3-0.5-0.6-0.7-0.9c-0.8-1.2-1.3-2.5-1.7-4h25.6C1897.6,673.9,1897,675.2,1896.2,676.4z
			 M1737.6,492.5c-0.8-2.4-1.8-4.4-3.1-6.3c-0.6-0.9-1.3-1.7-2-2.5c0,0-0.1,0-0.1,0c-0.7-0.8-1.5-1.5-2.4-2.1
			c-1.6-1.3-3.5-2.3-5.3-2.9v10.6c0.8,0.5,1.7,1.1,2.4,1.8c0.1,0.2,0.3,0.4,0.4,0.6c0.6,0.6,1.1,1.2,1.5,2c1,1.8,1.6,3.9,1.6,6.4
			c0,1.5-0.3,3-0.8,4.5c-0.6,1.4-1.3,2.8-2.2,4c-1,1.2-2.1,2.3-3.5,3.1c-1.4,0.8-2.9,1.4-4.6,1.7v-35.3c-0.9-0.1-1.8-0.1-2.7-0.1
			c-2.8,0-5.4,0.4-7.6,1.2c-2.3,0.7-4.4,1.8-6.2,3.1c-1.1,0.7-2.1,1.5-2.9,2.4c-1.5,1.8-2.8,3.8-3.6,6.2c-0.1,0.4-0.3,0.7-0.4,1.1
			c-0.6,1.7-1,3.5-1.2,5.3c-0.1,0.9-0.2,1.9-0.2,2.9c0,3.3,0.6,6.3,1.8,9.1c1,2.7,2.5,4.9,4.2,6.8c2,1.8,4.2,3.3,6.9,4.3
			c2.8,1.2,5.9,1.8,9.3,1.8c3.3,0,6.3-0.6,9.2-1.8c2.6-1,4.8-2.4,6.7-4.1c1.9-2,3.3-4.3,4.4-7.1c1.2-2.8,1.8-5.8,1.8-9.1
			C1738.8,497.2,1738.4,494.7,1737.6,492.5z M1712.5,513c-1.5-0.3-2.8-0.9-4-1.7c-1.2-0.8-2.3-1.7-3.2-2.8c-0.9-1.2-1.5-2.4-2.1-3.8
			c-0.6-1.4-0.8-3-0.8-4.6c0-1,0.1-1.9,0.3-2.8c0.1-0.6,0.3-1.2,0.5-1.7c0.5-1.3,1.1-2.5,2-3.6c0,0,0-0.1,0.1-0.1
			c0.7-0.7,1.4-1.4,2.2-2c0.3-0.3,0.6-0.5,0.9-0.7c1.2-0.8,2.5-1.3,4-1.7V513z M1737.6,492.5c-0.8-2.4-1.8-4.4-3.1-6.3
			c-0.6-0.9-1.3-1.7-2-2.5c0,0-0.1,0-0.1,0c-0.7-0.8-1.5-1.5-2.4-2.1c-1.6-1.3-3.5-2.3-5.3-2.9v10.6c0.8,0.5,1.7,1.1,2.4,1.8
			c0.1,0.2,0.3,0.4,0.4,0.6c0.6,0.6,1.1,1.2,1.5,2c1,1.8,1.6,3.9,1.6,6.4c0,1.5-0.3,3-0.8,4.5c-0.6,1.4-1.3,2.8-2.2,4
			c-1,1.2-2.1,2.3-3.5,3.1c-1.4,0.8-2.9,1.4-4.6,1.7v-35.3c-0.9-0.1-1.8-0.1-2.7-0.1c-2.8,0-5.4,0.4-7.6,1.2
			c-2.3,0.7-4.4,1.8-6.2,3.1c-1.1,0.7-2.1,1.5-2.9,2.4c-1.5,1.8-2.8,3.8-3.6,6.2c-0.1,0.4-0.3,0.7-0.4,1.1c-0.6,1.7-1,3.5-1.2,5.3
			c-0.1,0.9-0.2,1.9-0.2,2.9c0,3.3,0.6,6.3,1.8,9.1c1,2.7,2.5,4.9,4.2,6.8c2,1.8,4.2,3.3,6.9,4.3c2.8,1.2,5.9,1.8,9.3,1.8
			c3.3,0,6.3-0.6,9.2-1.8c2.6-1,4.8-2.4,6.7-4.1c1.9-2,3.3-4.3,4.4-7.1c1.2-2.8,1.8-5.8,1.8-9.1
			C1738.8,497.2,1738.4,494.7,1737.6,492.5z M1712.5,513c-1.5-0.3-2.8-0.9-4-1.7c-1.2-0.8-2.3-1.7-3.2-2.8c-0.9-1.2-1.5-2.4-2.1-3.8
			c-0.6-1.4-0.8-3-0.8-4.6c0-1,0.1-1.9,0.3-2.8c0.1-0.6,0.3-1.2,0.5-1.7c0.5-1.3,1.1-2.5,2-3.6c0,0,0-0.1,0.1-0.1
			c0.7-0.7,1.4-1.4,2.2-2c0.3-0.3,0.6-0.5,0.9-0.7c1.2-0.8,2.5-1.3,4-1.7V513z M1905.2,659c-1-2.6-2.4-4.8-4.1-6.7
			c-2-1.9-4.3-3.3-7.1-4.4c-2.8-1.2-5.8-1.8-9.1-1.8c-2.8,0-5.4,0.4-7.6,1.2c-2.4,0.8-4.4,1.8-6.3,3.1c-0.9,0.6-1.7,1.3-2.4,2
			c0,0,0,0.1-0.1,0.1c-0.7,0.8-1.5,1.5-2.1,2.4c-1.3,1.6-2.3,3.5-2.9,5.3h10.6c0.5-0.8,1.1-1.7,1.8-2.4c0.2-0.1,0.4-0.3,0.6-0.4
			c0.6-0.6,1.2-1.1,2-1.5c1.8-1,4-1.6,6.4-1.6c1.5,0,3,0.3,4.5,0.8c1.4,0.5,2.8,1.2,4,2.2c1.2,1,2.3,2.1,3.1,3.5
			c0.8,1.4,1.4,2.9,1.7,4.6h-35.2c-0.1,0.9-0.1,1.8-0.1,2.8c0,2.8,0.4,5.3,1.2,7.6c0.7,2.3,1.8,4.4,3.1,6.2c0.7,1.1,1.6,2.1,2.4,2.9
			c1.8,1.5,3.8,2.8,6.2,3.6c0.4,0.1,0.7,0.3,1.1,0.4c1.7,0.6,3.5,1,5.3,1.2c0.9,0.1,1.9,0.2,2.9,0.2c3.3,0,6.3-0.6,9.1-1.8
			c2.7-1,4.9-2.5,6.8-4.2c1.8-2,3.3-4.2,4.3-6.9c1.2-2.8,1.8-5.9,1.8-9.2C1907,664.8,1906.4,661.8,1905.2,659z M1896.2,676.4
			c-0.8,1.2-1.8,2.3-2.9,3.2c-1.2,0.9-2.4,1.5-3.8,2.1c-1.4,0.5-3,0.7-4.6,0.7c-1,0-1.9-0.1-2.8-0.3c-0.6-0.1-1.2-0.3-1.7-0.5
			c-1.3-0.5-2.5-1.1-3.6-2c0,0-0.1,0-0.1-0.1c-0.7-0.7-1.4-1.4-2-2.2c-0.3-0.3-0.5-0.6-0.7-0.9c-0.8-1.2-1.3-2.5-1.7-4h25.6
			C1897.6,673.9,1897,675.2,1896.2,676.4z M1907,331.8c0-2.8-0.4-5.3-1.2-7.6c-0.7-2.3-1.8-4.4-3.1-6.2c-0.7-1.1-1.5-2.1-2.4-2.9
			c-1.8-1.5-3.8-2.8-6.2-3.6c-0.4-0.1-0.7-0.3-1.1-0.4c-1.7-0.6-3.5-1-5.3-1.2c-0.9-0.1-1.9-0.2-2.8-0.2c-3.3,0-6.4,0.6-9.2,1.8
			c-2.7,1-4.9,2.5-6.8,4.2c-1.8,2-3.3,4.2-4.3,6.9c-1.2,2.8-1.8,5.9-1.8,9.2c0,3.4,0.6,6.4,1.8,9.2c1,2.6,2.4,4.8,4.1,6.7
			c2,1.9,4.2,3.3,7,4.4c2.8,1.2,5.8,1.8,9.2,1.8c2.8,0,5.3-0.4,7.6-1.2c2.4-0.8,4.4-1.8,6.3-3.1c0.9-0.6,1.7-1.3,2.5-2
			c0,0,0-0.1,0-0.1c0.8-0.8,1.5-1.5,2.1-2.4c1.3-1.6,2.3-3.5,2.9-5.3h-10.6c-0.5,0.8-1.1,1.7-1.8,2.4c-0.2,0.1-0.4,0.3-0.6,0.4
			c-0.6,0.6-1.2,1.1-2,1.5c-1.8,1-3.9,1.6-6.4,1.6c-1.5,0-3-0.3-4.5-0.8c-1.4-0.5-2.8-1.2-4-2.2c-1.2-1-2.3-2.1-3.1-3.5
			c-0.8-1.4-1.4-2.9-1.7-4.6h35.3C1906.9,333.7,1907,332.8,1907,331.8z M1871.9,327.6c0.3-1.5,0.9-2.8,1.7-4
			c0.8-1.2,1.7-2.3,2.8-3.2c1.2-0.9,2.4-1.5,3.8-2.1c1.4-0.5,3-0.7,4.6-0.7c1,0,1.9,0.1,2.8,0.3c0.6,0.1,1.2,0.3,1.7,0.5
			c1.3,0.5,2.5,1.1,3.6,2c0,0,0.1,0,0.1,0.1c0.7,0.7,1.4,1.4,2,2.2c0.3,0.3,0.5,0.6,0.7,0.9c0.8,1.2,1.3,2.5,1.7,4H1871.9z
			 M1905.2,659c-1-2.6-2.4-4.8-4.1-6.7c-2-1.9-4.3-3.3-7.1-4.4c-2.8-1.2-5.8-1.8-9.1-1.8c-2.8,0-5.4,0.4-7.6,1.2
			c-2.4,0.8-4.4,1.8-6.3,3.1c-0.9,0.6-1.7,1.3-2.4,2c0,0,0,0.1-0.1,0.1c-0.7,0.8-1.5,1.5-2.1,2.4c-1.3,1.6-2.3,3.5-2.9,5.3h10.6
			c0.5-0.8,1.1-1.7,1.8-2.4c0.2-0.1,0.4-0.3,0.6-0.4c0.6-0.6,1.2-1.1,2-1.5c1.8-1,4-1.6,6.4-1.6c1.5,0,3,0.3,4.5,0.8
			c1.4,0.5,2.8,1.2,4,2.2c1.2,1,2.3,2.1,3.1,3.5c0.8,1.4,1.4,2.9,1.7,4.6h-35.2c-0.1,0.9-0.1,1.8-0.1,2.8c0,2.8,0.4,5.3,1.2,7.6
			c0.7,2.3,1.8,4.4,3.1,6.2c0.7,1.1,1.6,2.1,2.4,2.9c1.8,1.5,3.8,2.8,6.2,3.6c0.4,0.1,0.7,0.3,1.1,0.4c1.7,0.6,3.5,1,5.3,1.2
			c0.9,0.1,1.9,0.2,2.9,0.2c3.3,0,6.3-0.6,9.1-1.8c2.7-1,4.9-2.5,6.8-4.2c1.8-2,3.3-4.2,4.3-6.9c1.2-2.8,1.8-5.9,1.8-9.2
			C1907,664.8,1906.4,661.8,1905.2,659z M1896.2,676.4c-0.8,1.2-1.8,2.3-2.9,3.2c-1.2,0.9-2.4,1.5-3.8,2.1c-1.4,0.5-3,0.7-4.6,0.7
			c-1,0-1.9-0.1-2.8-0.3c-0.6-0.1-1.2-0.3-1.7-0.5c-1.3-0.5-2.5-1.1-3.6-2c0,0-0.1,0-0.1-0.1c-0.7-0.7-1.4-1.4-2-2.2
			c-0.3-0.3-0.5-0.6-0.7-0.9c-0.8-1.2-1.3-2.5-1.7-4h25.6C1897.6,673.9,1897,675.2,1896.2,676.4z M1737.6,492.5
			c-0.8-2.4-1.8-4.4-3.1-6.3c-0.6-0.9-1.3-1.7-2-2.5c0,0-0.1,0-0.1,0c-0.7-0.8-1.5-1.5-2.4-2.1c-1.6-1.3-3.5-2.3-5.3-2.9v10.6
			c0.8,0.5,1.7,1.1,2.4,1.8c0.1,0.2,0.3,0.4,0.4,0.6c0.6,0.6,1.1,1.2,1.5,2c1,1.8,1.6,3.9,1.6,6.4c0,1.5-0.3,3-0.8,4.5
			c-0.6,1.4-1.3,2.8-2.2,4c-1,1.2-2.1,2.3-3.5,3.1c-1.4,0.8-2.9,1.4-4.6,1.7v-35.3c-0.9-0.1-1.8-0.1-2.7-0.1c-2.8,0-5.4,0.4-7.6,1.2
			c-2.3,0.7-4.4,1.8-6.2,3.1c-1.1,0.7-2.1,1.5-2.9,2.4c-1.5,1.8-2.8,3.8-3.6,6.2c-0.1,0.4-0.3,0.7-0.4,1.1c-0.6,1.7-1,3.5-1.2,5.3
			c-0.1,0.9-0.2,1.9-0.2,2.9c0,3.3,0.6,6.3,1.8,9.1c1,2.7,2.5,4.9,4.2,6.8c2,1.8,4.2,3.3,6.9,4.3c2.8,1.2,5.9,1.8,9.3,1.8
			c3.3,0,6.3-0.6,9.2-1.8c2.6-1,4.8-2.4,6.7-4.1c1.9-2,3.3-4.3,4.4-7.1c1.2-2.8,1.8-5.8,1.8-9.1
			C1738.8,497.2,1738.4,494.7,1737.6,492.5z M1712.5,513c-1.5-0.3-2.8-0.9-4-1.7c-1.2-0.8-2.3-1.7-3.2-2.8c-0.9-1.2-1.5-2.4-2.1-3.8
			c-0.6-1.4-0.8-3-0.8-4.6c0-1,0.1-1.9,0.3-2.8c0.1-0.6,0.3-1.2,0.5-1.7c0.5-1.3,1.1-2.5,2-3.6c0,0,0-0.1,0.1-0.1
			c0.7-0.7,1.4-1.4,2.2-2c0.3-0.3,0.6-0.5,0.9-0.7c1.2-0.8,2.5-1.3,4-1.7V513z M1907,331.8c0-2.8-0.4-5.3-1.2-7.6
			c-0.7-2.3-1.8-4.4-3.1-6.2c-0.7-1.1-1.5-2.1-2.4-2.9c-1.8-1.5-3.8-2.8-6.2-3.6c-0.4-0.1-0.7-0.3-1.1-0.4c-1.7-0.6-3.5-1-5.3-1.2
			c-0.9-0.1-1.9-0.2-2.8-0.2c-3.3,0-6.4,0.6-9.2,1.8c-2.7,1-4.9,2.5-6.8,4.2c-1.8,2-3.3,4.2-4.3,6.9c-1.2,2.8-1.8,5.9-1.8,9.2
			c0,3.4,0.6,6.4,1.8,9.2c1,2.6,2.4,4.8,4.1,6.7c2,1.9,4.2,3.3,7,4.4c2.8,1.2,5.8,1.8,9.2,1.8c2.8,0,5.3-0.4,7.6-1.2
			c2.4-0.8,4.4-1.8,6.3-3.1c0.9-0.6,1.7-1.3,2.5-2c0,0,0-0.1,0-0.1c0.8-0.8,1.5-1.5,2.1-2.4c1.3-1.6,2.3-3.5,2.9-5.3h-10.6
			c-0.5,0.8-1.1,1.7-1.8,2.4c-0.2,0.1-0.4,0.3-0.6,0.4c-0.6,0.6-1.2,1.1-2,1.5c-1.8,1-3.9,1.6-6.4,1.6c-1.5,0-3-0.3-4.5-0.8
			c-1.4-0.5-2.8-1.2-4-2.2c-1.2-1-2.3-2.1-3.1-3.5c-0.8-1.4-1.4-2.9-1.7-4.6h35.3C1906.9,333.7,1907,332.8,1907,331.8z
			 M1871.9,327.6c0.3-1.5,0.9-2.8,1.7-4c0.8-1.2,1.7-2.3,2.8-3.2c1.2-0.9,2.4-1.5,3.8-2.1c1.4-0.5,3-0.7,4.6-0.7
			c1,0,1.9,0.1,2.8,0.3c0.6,0.1,1.2,0.3,1.7,0.5c1.3,0.5,2.5,1.1,3.6,2c0,0,0.1,0,0.1,0.1c0.7,0.7,1.4,1.4,2,2.2
			c0.3,0.3,0.5,0.6,0.7,0.9c0.8,1.2,1.3,2.5,1.7,4H1871.9z M1737.6,492.5c-0.8-2.4-1.8-4.4-3.1-6.3c-0.6-0.9-1.3-1.7-2-2.5
			c0,0-0.1,0-0.1,0c-0.7-0.8-1.5-1.5-2.4-2.1c-1.6-1.3-3.5-2.3-5.3-2.9v10.6c0.8,0.5,1.7,1.1,2.4,1.8c0.1,0.2,0.3,0.4,0.4,0.6
			c0.6,0.6,1.1,1.2,1.5,2c1,1.8,1.6,3.9,1.6,6.4c0,1.5-0.3,3-0.8,4.5c-0.6,1.4-1.3,2.8-2.2,4c-1,1.2-2.1,2.3-3.5,3.1
			c-1.4,0.8-2.9,1.4-4.6,1.7v-35.3c-0.9-0.1-1.8-0.1-2.7-0.1c-2.8,0-5.4,0.4-7.6,1.2c-2.3,0.7-4.4,1.8-6.2,3.1
			c-1.1,0.7-2.1,1.5-2.9,2.4c-1.5,1.8-2.8,3.8-3.6,6.2c-0.1,0.4-0.3,0.7-0.4,1.1c-0.6,1.7-1,3.5-1.2,5.3c-0.1,0.9-0.2,1.9-0.2,2.9
			c0,3.3,0.6,6.3,1.8,9.1c1,2.7,2.5,4.9,4.2,6.8c2,1.8,4.2,3.3,6.9,4.3c2.8,1.2,5.9,1.8,9.3,1.8c3.3,0,6.3-0.6,9.2-1.8
			c2.6-1,4.8-2.4,6.7-4.1c1.9-2,3.3-4.3,4.4-7.1c1.2-2.8,1.8-5.8,1.8-9.1C1738.8,497.2,1738.4,494.7,1737.6,492.5z M1712.5,513
			c-1.5-0.3-2.8-0.9-4-1.7c-1.2-0.8-2.3-1.7-3.2-2.8c-0.9-1.2-1.5-2.4-2.1-3.8c-0.6-1.4-0.8-3-0.8-4.6c0-1,0.1-1.9,0.3-2.8
			c0.1-0.6,0.3-1.2,0.5-1.7c0.5-1.3,1.1-2.5,2-3.6c0,0,0-0.1,0.1-0.1c0.7-0.7,1.4-1.4,2.2-2c0.3-0.3,0.6-0.5,0.9-0.7
			c1.2-0.8,2.5-1.3,4-1.7V513z M1905.2,659c-1-2.6-2.4-4.8-4.1-6.7c-2-1.9-4.3-3.3-7.1-4.4c-2.8-1.2-5.8-1.8-9.1-1.8
			c-2.8,0-5.4,0.4-7.6,1.2c-2.4,0.8-4.4,1.8-6.3,3.1c-0.9,0.6-1.7,1.3-2.4,2c0,0,0,0.1-0.1,0.1c-0.7,0.8-1.5,1.5-2.1,2.4
			c-1.3,1.6-2.3,3.5-2.9,5.3h10.6c0.5-0.8,1.1-1.7,1.8-2.4c0.2-0.1,0.4-0.3,0.6-0.4c0.6-0.6,1.2-1.1,2-1.5c1.8-1,4-1.6,6.4-1.6
			c1.5,0,3,0.3,4.5,0.8c1.4,0.5,2.8,1.2,4,2.2c1.2,1,2.3,2.1,3.1,3.5c0.8,1.4,1.4,2.9,1.7,4.6h-35.2c-0.1,0.9-0.1,1.8-0.1,2.8
			c0,2.8,0.4,5.3,1.2,7.6c0.7,2.3,1.8,4.4,3.1,6.2c0.7,1.1,1.6,2.1,2.4,2.9c1.8,1.5,3.8,2.8,6.2,3.6c0.4,0.1,0.7,0.3,1.1,0.4
			c1.7,0.6,3.5,1,5.3,1.2c0.9,0.1,1.9,0.2,2.9,0.2c3.3,0,6.3-0.6,9.1-1.8c2.7-1,4.9-2.5,6.8-4.2c1.8-2,3.3-4.2,4.3-6.9
			c1.2-2.8,1.8-5.9,1.8-9.2C1907,664.8,1906.4,661.8,1905.2,659z M1896.2,676.4c-0.8,1.2-1.8,2.3-2.9,3.2c-1.2,0.9-2.4,1.5-3.8,2.1
			c-1.4,0.5-3,0.7-4.6,0.7c-1,0-1.9-0.1-2.8-0.3c-0.6-0.1-1.2-0.3-1.7-0.5c-1.3-0.5-2.5-1.1-3.6-2c0,0-0.1,0-0.1-0.1
			c-0.7-0.7-1.4-1.4-2-2.2c-0.3-0.3-0.5-0.6-0.7-0.9c-0.8-1.2-1.3-2.5-1.7-4h25.6C1897.6,673.9,1897,675.2,1896.2,676.4z
			 M1907,331.8c0-2.8-0.4-5.3-1.2-7.6c-0.7-2.3-1.8-4.4-3.1-6.2c-0.7-1.1-1.5-2.1-2.4-2.9c-1.8-1.5-3.8-2.8-6.2-3.6
			c-0.4-0.1-0.7-0.3-1.1-0.4c-1.7-0.6-3.5-1-5.3-1.2c-0.9-0.1-1.9-0.2-2.8-0.2c-3.3,0-6.4,0.6-9.2,1.8c-2.7,1-4.9,2.5-6.8,4.2
			c-1.8,2-3.3,4.2-4.3,6.9c-1.2,2.8-1.8,5.9-1.8,9.2c0,3.4,0.6,6.4,1.8,9.2c1,2.6,2.4,4.8,4.1,6.7c2,1.9,4.2,3.3,7,4.4
			c2.8,1.2,5.8,1.8,9.2,1.8c2.8,0,5.3-0.4,7.6-1.2c2.4-0.8,4.4-1.8,6.3-3.1c0.9-0.6,1.7-1.3,2.5-2c0,0,0-0.1,0-0.1
			c0.8-0.8,1.5-1.5,2.1-2.4c1.3-1.6,2.3-3.5,2.9-5.3h-10.6c-0.5,0.8-1.1,1.7-1.8,2.4c-0.2,0.1-0.4,0.3-0.6,0.4
			c-0.6,0.6-1.2,1.1-2,1.5c-1.8,1-3.9,1.6-6.4,1.6c-1.5,0-3-0.3-4.5-0.8c-1.4-0.5-2.8-1.2-4-2.2c-1.2-1-2.3-2.1-3.1-3.5
			c-0.8-1.4-1.4-2.9-1.7-4.6h35.3C1906.9,333.7,1907,332.8,1907,331.8z M1871.9,327.6c0.3-1.5,0.9-2.8,1.7-4
			c0.8-1.2,1.7-2.3,2.8-3.2c1.2-0.9,2.4-1.5,3.8-2.1c1.4-0.5,3-0.7,4.6-0.7c1,0,1.9,0.1,2.8,0.3c0.6,0.1,1.2,0.3,1.7,0.5
			c1.3,0.5,2.5,1.1,3.6,2c0,0,0.1,0,0.1,0.1c0.7,0.7,1.4,1.4,2,2.2c0.3,0.3,0.5,0.6,0.7,0.9c0.8,1.2,1.3,2.5,1.7,4H1871.9z
			 M1905.2,659c-1-2.6-2.4-4.8-4.1-6.7c-2-1.9-4.3-3.3-7.1-4.4c-2.8-1.2-5.8-1.8-9.1-1.8c-2.8,0-5.4,0.4-7.6,1.2
			c-2.4,0.8-4.4,1.8-6.3,3.1c-0.9,0.6-1.7,1.3-2.4,2c0,0,0,0.1-0.1,0.1c-0.7,0.8-1.5,1.5-2.1,2.4c-1.3,1.6-2.3,3.5-2.9,5.3h10.6
			c0.5-0.8,1.1-1.7,1.8-2.4c0.2-0.1,0.4-0.3,0.6-0.4c0.6-0.6,1.2-1.1,2-1.5c1.8-1,4-1.6,6.4-1.6c1.5,0,3,0.3,4.5,0.8
			c1.4,0.5,2.8,1.2,4,2.2c1.2,1,2.3,2.1,3.1,3.5c0.8,1.4,1.4,2.9,1.7,4.6h-35.2c-0.1,0.9-0.1,1.8-0.1,2.8c0,2.8,0.4,5.3,1.2,7.6
			c0.7,2.3,1.8,4.4,3.1,6.2c0.7,1.1,1.6,2.1,2.4,2.9c1.8,1.5,3.8,2.8,6.2,3.6c0.4,0.1,0.7,0.3,1.1,0.4c1.7,0.6,3.5,1,5.3,1.2
			c0.9,0.1,1.9,0.2,2.9,0.2c3.3,0,6.3-0.6,9.1-1.8c2.7-1,4.9-2.5,6.8-4.2c1.8-2,3.3-4.2,4.3-6.9c1.2-2.8,1.8-5.9,1.8-9.2
			C1907,664.8,1906.4,661.8,1905.2,659z M1896.2,676.4c-0.8,1.2-1.8,2.3-2.9,3.2c-1.2,0.9-2.4,1.5-3.8,2.1c-1.4,0.5-3,0.7-4.6,0.7
			c-1,0-1.9-0.1-2.8-0.3c-0.6-0.1-1.2-0.3-1.7-0.5c-1.3-0.5-2.5-1.1-3.6-2c0,0-0.1,0-0.1-0.1c-0.7-0.7-1.4-1.4-2-2.2
			c-0.3-0.3-0.5-0.6-0.7-0.9c-0.8-1.2-1.3-2.5-1.7-4h25.6C1897.6,673.9,1897,675.2,1896.2,676.4z M1737.6,492.5
			c-0.8-2.4-1.8-4.4-3.1-6.3c-0.6-0.9-1.3-1.7-2-2.5c0,0-0.1,0-0.1,0c-0.7-0.8-1.5-1.5-2.4-2.1c-1.6-1.3-3.5-2.3-5.3-2.9v10.6
			c0.8,0.5,1.7,1.1,2.4,1.8c0.1,0.2,0.3,0.4,0.4,0.6c0.6,0.6,1.1,1.2,1.5,2c1,1.8,1.6,3.9,1.6,6.4c0,1.5-0.3,3-0.8,4.5
			c-0.6,1.4-1.3,2.8-2.2,4c-1,1.2-2.1,2.3-3.5,3.1c-1.4,0.8-2.9,1.4-4.6,1.7v-35.3c-0.9-0.1-1.8-0.1-2.7-0.1c-2.8,0-5.4,0.4-7.6,1.2
			c-2.3,0.7-4.4,1.8-6.2,3.1c-1.1,0.7-2.1,1.5-2.9,2.4c-1.5,1.8-2.8,3.8-3.6,6.2c-0.1,0.4-0.3,0.7-0.4,1.1c-0.6,1.7-1,3.5-1.2,5.3
			c-0.1,0.9-0.2,1.9-0.2,2.9c0,3.3,0.6,6.3,1.8,9.1c1,2.7,2.5,4.9,4.2,6.8c2,1.8,4.2,3.3,6.9,4.3c2.8,1.2,5.9,1.8,9.3,1.8
			c3.3,0,6.3-0.6,9.2-1.8c2.6-1,4.8-2.4,6.7-4.1c1.9-2,3.3-4.3,4.4-7.1c1.2-2.8,1.8-5.8,1.8-9.1
			C1738.8,497.2,1738.4,494.7,1737.6,492.5z M1712.5,513c-1.5-0.3-2.8-0.9-4-1.7c-1.2-0.8-2.3-1.7-3.2-2.8c-0.9-1.2-1.5-2.4-2.1-3.8
			c-0.6-1.4-0.8-3-0.8-4.6c0-1,0.1-1.9,0.3-2.8c0.1-0.6,0.3-1.2,0.5-1.7c0.5-1.3,1.1-2.5,2-3.6c0,0,0-0.1,0.1-0.1
			c0.7-0.7,1.4-1.4,2.2-2c0.3-0.3,0.6-0.5,0.9-0.7c1.2-0.8,2.5-1.3,4-1.7V513z M1907,331.8c0-2.8-0.4-5.3-1.2-7.6
			c-0.7-2.3-1.8-4.4-3.1-6.2c-0.7-1.1-1.5-2.1-2.4-2.9c-1.8-1.5-3.8-2.8-6.2-3.6c-0.4-0.1-0.7-0.3-1.1-0.4c-1.7-0.6-3.5-1-5.3-1.2
			c-0.9-0.1-1.9-0.2-2.8-0.2c-3.3,0-6.4,0.6-9.2,1.8c-2.7,1-4.9,2.5-6.8,4.2c-1.8,2-3.3,4.2-4.3,6.9c-1.2,2.8-1.8,5.9-1.8,9.2
			c0,3.4,0.6,6.4,1.8,9.2c1,2.6,2.4,4.8,4.1,6.7c2,1.9,4.2,3.3,7,4.4c2.8,1.2,5.8,1.8,9.2,1.8c2.8,0,5.3-0.4,7.6-1.2
			c2.4-0.8,4.4-1.8,6.3-3.1c0.9-0.6,1.7-1.3,2.5-2c0,0,0-0.1,0-0.1c0.8-0.8,1.5-1.5,2.1-2.4c1.3-1.6,2.3-3.5,2.9-5.3h-10.6
			c-0.5,0.8-1.1,1.7-1.8,2.4c-0.2,0.1-0.4,0.3-0.6,0.4c-0.6,0.6-1.2,1.1-2,1.5c-1.8,1-3.9,1.6-6.4,1.6c-1.5,0-3-0.3-4.5-0.8
			c-1.4-0.5-2.8-1.2-4-2.2c-1.2-1-2.3-2.1-3.1-3.5c-0.8-1.4-1.4-2.9-1.7-4.6h35.3C1906.9,333.7,1907,332.8,1907,331.8z
			 M1871.9,327.6c0.3-1.5,0.9-2.8,1.7-4c0.8-1.2,1.7-2.3,2.8-3.2c1.2-0.9,2.4-1.5,3.8-2.1c1.4-0.5,3-0.7,4.6-0.7
			c1,0,1.9,0.1,2.8,0.3c0.6,0.1,1.2,0.3,1.7,0.5c1.3,0.5,2.5,1.1,3.6,2c0,0,0.1,0,0.1,0.1c0.7,0.7,1.4,1.4,2,2.2
			c0.3,0.3,0.5,0.6,0.7,0.9c0.8,1.2,1.3,2.5,1.7,4H1871.9z M2100,163h-430.2c-67.3,0-121.9,54.6-121.9,121.9v430.2
			c0,67.3,54.6,121.9,121.9,121.9H2100c67.3,0,121.9-54.6,121.9-121.9V284.9C2221.9,217.6,2167.3,163,2100,163z M1884.9,258.9
			c42.2,0,76.3,34.2,76.3,76.4c0,19.8-7.5,37.9-19.9,51.5c-0.1,0.1-0.2,0.1-0.2,0.2c-2.7,2.3-5.6,4.9-8.4,7.8
			c-10.5,10.3-22.2,24.2-32.2,42.2c-7.3,13.1-12.2,25.4-15.5,36.1c-3.3-10.7-8.1-23-15.5-36.1c-10.1-18.1-21.9-32.1-32.4-42.4
			c-2.9-2.8-5.6-5.3-8.2-7.6c-0.1-0.1-0.2-0.1-0.2-0.2c-12.5-13.6-20-31.7-20-51.5C1808.6,293.2,1842.7,258.9,1884.9,258.9z
			 M1772,556.1c-0.1,0.1-0.2,0.2-0.3,0.2c-13.6,12.5-31.7,20-51.5,20c-42.2,0-76.4-34.2-76.4-76.3c0-42.2,34.2-76.3,76.4-76.3
			c19.8,0,37.9,7.6,51.5,19.9c0.1,0.1,0.1,0.2,0.3,0.2c2.2,2.7,4.9,5.6,7.8,8.4c10.3,10.5,24.2,22.2,42.2,32.2
			c13.1,7.3,25.4,12.2,36.1,15.5c-10.7,3.3-23,8.1-36.1,15.5c-18.1,10-32.1,21.8-42.4,32.3C1776.8,550.8,1774.2,553.5,1772,556.1z
			 M1884.9,741.1c-42.2,0-76.3-34.2-76.3-76.4c0-19.8,7.6-37.9,19.9-51.5c0.1-0.1,0.2-0.1,0.3-0.2c2.7-2.3,5.5-4.9,8.4-7.8
			c10.5-10.3,22.2-24.2,32.3-42.2c7.3-13.1,12.2-25.4,15.5-36.1c3.3,10.7,8.1,23,15.5,36.1c10,18.1,21.8,32.1,32.3,42.4
			c2.9,2.8,5.6,5.3,8.2,7.6c0.1,0.1,0.2,0.1,0.2,0.2c12.5,13.6,20,31.7,20,51.5C1961.2,706.8,1927,741.1,1884.9,741.1z
			 M2049.6,576.3c-19.8,0-37.9-7.6-51.5-19.9c-0.1-0.1-0.1-0.2-0.2-0.2c-2.3-2.7-4.9-5.6-7.8-8.4c-10.3-10.5-24.2-22.2-42.2-32.2
			c-13.1-7.3-25.4-12.2-36.1-15.5c10.6-3.3,23-8.1,36.1-15.5c18.1-10,32.1-21.8,42.4-32.3c2.8-2.9,5.3-5.6,7.6-8.2
			c0.1-0.1,0.1-0.2,0.2-0.2c13.6-12.5,31.7-20,51.5-20c42.2,0,76.4,34.2,76.4,76.3C2125.9,542.2,2091.7,576.3,2049.6,576.3z
			 M1868.7,347.7c2,1.9,4.2,3.3,7,4.4c2.8,1.2,5.8,1.8,9.2,1.8c2.8,0,5.3-0.4,7.6-1.2c2.4-0.8,4.4-1.8,6.3-3.1
			c0.9-0.6,1.7-1.3,2.5-2c0,0,0-0.1,0-0.1c0.8-0.8,1.5-1.5,2.1-2.4c1.3-1.6,2.3-3.5,2.9-5.3h-10.6c-0.5,0.8-1.1,1.7-1.8,2.4
			c-0.2,0.1-0.4,0.3-0.6,0.4c-0.6,0.6-1.2,1.1-2,1.5c-1.8,1-3.9,1.6-6.4,1.6c-1.5,0-3-0.3-4.5-0.8c-1.4-0.5-2.8-1.2-4-2.2
			c-1.2-1-2.3-2.1-3.1-3.5c-0.8-1.4-1.4-2.9-1.7-4.6h35.3c0.1-0.9,0.1-1.8,0.1-2.8c0-2.8-0.4-5.3-1.2-7.6c-0.7-2.3-1.8-4.4-3.1-6.2
			c-0.7-1.1-1.5-2.1-2.4-2.9c-1.8-1.5-3.8-2.8-6.2-3.6c-0.4-0.1-0.7-0.3-1.1-0.4c-1.7-0.6-3.5-1-5.3-1.2c-0.9-0.1-1.9-0.2-2.8-0.2
			c-3.3,0-6.4,0.6-9.2,1.8c-2.7,1-4.9,2.5-6.8,4.2c-1.8,2-3.3,4.2-4.3,6.9c-1.2,2.8-1.8,5.9-1.8,9.2c0,3.4,0.6,6.4,1.8,9.2
			C1865.6,343.6,1867,345.8,1868.7,347.7z M1873.6,323.6c0.8-1.2,1.7-2.3,2.8-3.2c1.2-0.9,2.4-1.5,3.8-2.1c1.4-0.5,3-0.7,4.6-0.7
			c1,0,1.9,0.1,2.8,0.3c0.6,0.1,1.2,0.3,1.7,0.5c1.3,0.5,2.5,1.1,3.6,2c0,0,0.1,0,0.1,0.1c0.7,0.7,1.4,1.4,2,2.2
			c0.3,0.3,0.5,0.6,0.7,0.9c0.8,1.2,1.3,2.5,1.7,4h-25.6C1872.2,326.1,1872.8,324.8,1873.6,323.6z M1901.1,652.3
			c-2-1.9-4.3-3.3-7.1-4.4c-2.8-1.2-5.8-1.8-9.1-1.8c-2.8,0-5.4,0.4-7.6,1.2c-2.4,0.8-4.4,1.8-6.3,3.1c-0.9,0.6-1.7,1.3-2.4,2
			c0,0,0,0.1-0.1,0.1c-0.7,0.8-1.5,1.5-2.1,2.4c-1.3,1.6-2.3,3.5-2.9,5.3h10.6c0.5-0.8,1.1-1.7,1.8-2.4c0.2-0.1,0.4-0.3,0.6-0.4
			c0.6-0.6,1.2-1.1,2-1.5c1.8-1,4-1.6,6.4-1.6c1.5,0,3,0.3,4.5,0.8c1.4,0.5,2.8,1.2,4,2.2c1.2,1,2.3,2.1,3.1,3.5
			c0.8,1.4,1.4,2.9,1.7,4.6h-35.2c-0.1,0.9-0.1,1.8-0.1,2.8c0,2.8,0.4,5.3,1.2,7.6c0.7,2.3,1.8,4.4,3.1,6.2c0.7,1.1,1.6,2.1,2.4,2.9
			c1.8,1.5,3.8,2.8,6.2,3.6c0.4,0.1,0.7,0.3,1.1,0.4c1.7,0.6,3.5,1,5.3,1.2c0.9,0.1,1.9,0.2,2.9,0.2c3.3,0,6.3-0.6,9.1-1.8
			c2.7-1,4.9-2.5,6.8-4.2c1.8-2,3.3-4.2,4.3-6.9c1.2-2.8,1.8-5.9,1.8-9.2c0-3.4-0.6-6.4-1.8-9.2
			C1904.2,656.4,1902.8,654.2,1901.1,652.3z M1896.2,676.4c-0.8,1.2-1.8,2.3-2.9,3.2c-1.2,0.9-2.4,1.5-3.8,2.1
			c-1.4,0.5-3,0.7-4.6,0.7c-1,0-1.9-0.1-2.8-0.3c-0.6-0.1-1.2-0.3-1.7-0.5c-1.3-0.5-2.5-1.1-3.6-2c0,0-0.1,0-0.1-0.1
			c-0.7-0.7-1.4-1.4-2-2.2c-0.3-0.3-0.5-0.6-0.7-0.9c-0.8-1.2-1.3-2.5-1.7-4h25.6C1897.6,673.9,1897,675.2,1896.2,676.4z
			 M1734.5,486.2c-0.6-0.9-1.3-1.7-2-2.5c0,0-0.1,0-0.1,0c-0.7-0.8-1.5-1.5-2.4-2.1c-1.6-1.3-3.5-2.3-5.3-2.9v10.6
			c0.8,0.5,1.7,1.1,2.4,1.8c0.1,0.2,0.3,0.4,0.4,0.6c0.6,0.6,1.1,1.2,1.5,2c1,1.8,1.6,3.9,1.6,6.4c0,1.5-0.3,3-0.8,4.5
			c-0.6,1.4-1.3,2.8-2.2,4c-1,1.2-2.1,2.3-3.5,3.1c-1.4,0.8-2.9,1.4-4.6,1.7v-35.3c-0.9-0.1-1.8-0.1-2.7-0.1c-2.8,0-5.4,0.4-7.6,1.2
			c-2.3,0.7-4.4,1.8-6.2,3.1c-1.1,0.7-2.1,1.5-2.9,2.4c-1.5,1.8-2.8,3.8-3.6,6.2c-0.1,0.4-0.3,0.7-0.4,1.1c-0.6,1.7-1,3.5-1.2,5.3
			c-0.1,0.9-0.2,1.9-0.2,2.9c0,3.3,0.6,6.3,1.8,9.1c1,2.7,2.5,4.9,4.2,6.8c2,1.8,4.2,3.3,6.9,4.3c2.8,1.2,5.9,1.8,9.3,1.8
			c3.3,0,6.3-0.6,9.2-1.8c2.6-1,4.8-2.4,6.7-4.1c1.9-2,3.3-4.3,4.4-7.1c1.2-2.8,1.8-5.8,1.8-9.1c0-2.8-0.4-5.4-1.2-7.6
			C1736.8,490.1,1735.8,488,1734.5,486.2z M1712.5,513c-1.5-0.3-2.8-0.9-4-1.7c-1.2-0.8-2.3-1.7-3.2-2.8c-0.9-1.2-1.5-2.4-2.1-3.8
			c-0.6-1.4-0.8-3-0.8-4.6c0-1,0.1-1.9,0.3-2.8c0.1-0.6,0.3-1.2,0.5-1.7c0.5-1.3,1.1-2.5,2-3.6c0,0,0-0.1,0.1-0.1
			c0.7-0.7,1.4-1.4,2.2-2c0.3-0.3,0.6-0.5,0.9-0.7c1.2-0.8,2.5-1.3,4-1.7V513z M1907,331.8c0-2.8-0.4-5.3-1.2-7.6
			c-0.7-2.3-1.8-4.4-3.1-6.2c-0.7-1.1-1.5-2.1-2.4-2.9c-1.8-1.5-3.8-2.8-6.2-3.6c-0.4-0.1-0.7-0.3-1.1-0.4c-1.7-0.6-3.5-1-5.3-1.2
			c-0.9-0.1-1.9-0.2-2.8-0.2c-3.3,0-6.4,0.6-9.2,1.8c-2.7,1-4.9,2.5-6.8,4.2c-1.8,2-3.3,4.2-4.3,6.9c-1.2,2.8-1.8,5.9-1.8,9.2
			c0,3.4,0.6,6.4,1.8,9.2c1,2.6,2.4,4.8,4.1,6.7c2,1.9,4.2,3.3,7,4.4c2.8,1.2,5.8,1.8,9.2,1.8c2.8,0,5.3-0.4,7.6-1.2
			c2.4-0.8,4.4-1.8,6.3-3.1c0.9-0.6,1.7-1.3,2.5-2c0,0,0-0.1,0-0.1c0.8-0.8,1.5-1.5,2.1-2.4c1.3-1.6,2.3-3.5,2.9-5.3h-10.6
			c-0.5,0.8-1.1,1.7-1.8,2.4c-0.2,0.1-0.4,0.3-0.6,0.4c-0.6,0.6-1.2,1.1-2,1.5c-1.8,1-3.9,1.6-6.4,1.6c-1.5,0-3-0.3-4.5-0.8
			c-1.4-0.5-2.8-1.2-4-2.2c-1.2-1-2.3-2.1-3.1-3.5c-0.8-1.4-1.4-2.9-1.7-4.6h35.3C1906.9,333.7,1907,332.8,1907,331.8z
			 M1871.9,327.6c0.3-1.5,0.9-2.8,1.7-4c0.8-1.2,1.7-2.3,2.8-3.2c1.2-0.9,2.4-1.5,3.8-2.1c1.4-0.5,3-0.7,4.6-0.7
			c1,0,1.9,0.1,2.8,0.3c0.6,0.1,1.2,0.3,1.7,0.5c1.3,0.5,2.5,1.1,3.6,2c0,0,0.1,0,0.1,0.1c0.7,0.7,1.4,1.4,2,2.2
			c0.3,0.3,0.5,0.6,0.7,0.9c0.8,1.2,1.3,2.5,1.7,4H1871.9z M1737.6,492.5c-0.8-2.4-1.8-4.4-3.1-6.3c-0.6-0.9-1.3-1.7-2-2.5
			c0,0-0.1,0-0.1,0c-0.7-0.8-1.5-1.5-2.4-2.1c-1.6-1.3-3.5-2.3-5.3-2.9v10.6c0.8,0.5,1.7,1.1,2.4,1.8c0.1,0.2,0.3,0.4,0.4,0.6
			c0.6,0.6,1.1,1.2,1.5,2c1,1.8,1.6,3.9,1.6,6.4c0,1.5-0.3,3-0.8,4.5c-0.6,1.4-1.3,2.8-2.2,4c-1,1.2-2.1,2.3-3.5,3.1
			c-1.4,0.8-2.9,1.4-4.6,1.7v-35.3c-0.9-0.1-1.8-0.1-2.7-0.1c-2.8,0-5.4,0.4-7.6,1.2c-2.3,0.7-4.4,1.8-6.2,3.1
			c-1.1,0.7-2.1,1.5-2.9,2.4c-1.5,1.8-2.8,3.8-3.6,6.2c-0.1,0.4-0.3,0.7-0.4,1.1c-0.6,1.7-1,3.5-1.2,5.3c-0.1,0.9-0.2,1.9-0.2,2.9
			c0,3.3,0.6,6.3,1.8,9.1c1,2.7,2.5,4.9,4.2,6.8c2,1.8,4.2,3.3,6.9,4.3c2.8,1.2,5.9,1.8,9.3,1.8c3.3,0,6.3-0.6,9.2-1.8
			c2.6-1,4.8-2.4,6.7-4.1c1.9-2,3.3-4.3,4.4-7.1c1.2-2.8,1.8-5.8,1.8-9.1C1738.8,497.2,1738.4,494.7,1737.6,492.5z M1712.5,513
			c-1.5-0.3-2.8-0.9-4-1.7c-1.2-0.8-2.3-1.7-3.2-2.8c-0.9-1.2-1.5-2.4-2.1-3.8c-0.6-1.4-0.8-3-0.8-4.6c0-1,0.1-1.9,0.3-2.8
			c0.1-0.6,0.3-1.2,0.5-1.7c0.5-1.3,1.1-2.5,2-3.6c0,0,0-0.1,0.1-0.1c0.7-0.7,1.4-1.4,2.2-2c0.3-0.3,0.6-0.5,0.9-0.7
			c1.2-0.8,2.5-1.3,4-1.7V513z M1905.2,659c-1-2.6-2.4-4.8-4.1-6.7c-2-1.9-4.3-3.3-7.1-4.4c-2.8-1.2-5.8-1.8-9.1-1.8
			c-2.8,0-5.4,0.4-7.6,1.2c-2.4,0.8-4.4,1.8-6.3,3.1c-0.9,0.6-1.7,1.3-2.4,2c0,0,0,0.1-0.1,0.1c-0.7,0.8-1.5,1.5-2.1,2.4
			c-1.3,1.6-2.3,3.5-2.9,5.3h10.6c0.5-0.8,1.1-1.7,1.8-2.4c0.2-0.1,0.4-0.3,0.6-0.4c0.6-0.6,1.2-1.1,2-1.5c1.8-1,4-1.6,6.4-1.6
			c1.5,0,3,0.3,4.5,0.8c1.4,0.5,2.8,1.2,4,2.2c1.2,1,2.3,2.1,3.1,3.5c0.8,1.4,1.4,2.9,1.7,4.6h-35.2c-0.1,0.9-0.1,1.8-0.1,2.8
			c0,2.8,0.4,5.3,1.2,7.6c0.7,2.3,1.8,4.4,3.1,6.2c0.7,1.1,1.6,2.1,2.4,2.9c1.8,1.5,3.8,2.8,6.2,3.6c0.4,0.1,0.7,0.3,1.1,0.4
			c1.7,0.6,3.5,1,5.3,1.2c0.9,0.1,1.9,0.2,2.9,0.2c3.3,0,6.3-0.6,9.1-1.8c2.7-1,4.9-2.5,6.8-4.2c1.8-2,3.3-4.2,4.3-6.9
			c1.2-2.8,1.8-5.9,1.8-9.2C1907,664.8,1906.4,661.8,1905.2,659z M1896.2,676.4c-0.8,1.2-1.8,2.3-2.9,3.2c-1.2,0.9-2.4,1.5-3.8,2.1
			c-1.4,0.5-3,0.7-4.6,0.7c-1,0-1.9-0.1-2.8-0.3c-0.6-0.1-1.2-0.3-1.7-0.5c-1.3-0.5-2.5-1.1-3.6-2c0,0-0.1,0-0.1-0.1
			c-0.7-0.7-1.4-1.4-2-2.2c-0.3-0.3-0.5-0.6-0.7-0.9c-0.8-1.2-1.3-2.5-1.7-4h25.6C1897.6,673.9,1897,675.2,1896.2,676.4z
			 M1907,331.8c0-2.8-0.4-5.3-1.2-7.6c-0.7-2.3-1.8-4.4-3.1-6.2c-0.7-1.1-1.5-2.1-2.4-2.9c-1.8-1.5-3.8-2.8-6.2-3.6
			c-0.4-0.1-0.7-0.3-1.1-0.4c-1.7-0.6-3.5-1-5.3-1.2c-0.9-0.1-1.9-0.2-2.8-0.2c-3.3,0-6.4,0.6-9.2,1.8c-2.7,1-4.9,2.5-6.8,4.2
			c-1.8,2-3.3,4.2-4.3,6.9c-1.2,2.8-1.8,5.9-1.8,9.2c0,3.4,0.6,6.4,1.8,9.2c1,2.6,2.4,4.8,4.1,6.7c2,1.9,4.2,3.3,7,4.4
			c2.8,1.2,5.8,1.8,9.2,1.8c2.8,0,5.3-0.4,7.6-1.2c2.4-0.8,4.4-1.8,6.3-3.1c0.9-0.6,1.7-1.3,2.5-2c0,0,0-0.1,0-0.1
			c0.8-0.8,1.5-1.5,2.1-2.4c1.3-1.6,2.3-3.5,2.9-5.3h-10.6c-0.5,0.8-1.1,1.7-1.8,2.4c-0.2,0.1-0.4,0.3-0.6,0.4
			c-0.6,0.6-1.2,1.1-2,1.5c-1.8,1-3.9,1.6-6.4,1.6c-1.5,0-3-0.3-4.5-0.8c-1.4-0.5-2.8-1.2-4-2.2c-1.2-1-2.3-2.1-3.1-3.5
			c-0.8-1.4-1.4-2.9-1.7-4.6h35.3C1906.9,333.7,1907,332.8,1907,331.8z M1871.9,327.6c0.3-1.5,0.9-2.8,1.7-4
			c0.8-1.2,1.7-2.3,2.8-3.2c1.2-0.9,2.4-1.5,3.8-2.1c1.4-0.5,3-0.7,4.6-0.7c1,0,1.9,0.1,2.8,0.3c0.6,0.1,1.2,0.3,1.7,0.5
			c1.3,0.5,2.5,1.1,3.6,2c0,0,0.1,0,0.1,0.1c0.7,0.7,1.4,1.4,2,2.2c0.3,0.3,0.5,0.6,0.7,0.9c0.8,1.2,1.3,2.5,1.7,4H1871.9z
			 M1905.2,659c-1-2.6-2.4-4.8-4.1-6.7c-2-1.9-4.3-3.3-7.1-4.4c-2.8-1.2-5.8-1.8-9.1-1.8c-2.8,0-5.4,0.4-7.6,1.2
			c-2.4,0.8-4.4,1.8-6.3,3.1c-0.9,0.6-1.7,1.3-2.4,2c0,0,0,0.1-0.1,0.1c-0.7,0.8-1.5,1.5-2.1,2.4c-1.3,1.6-2.3,3.5-2.9,5.3h10.6
			c0.5-0.8,1.1-1.7,1.8-2.4c0.2-0.1,0.4-0.3,0.6-0.4c0.6-0.6,1.2-1.1,2-1.5c1.8-1,4-1.6,6.4-1.6c1.5,0,3,0.3,4.5,0.8
			c1.4,0.5,2.8,1.2,4,2.2c1.2,1,2.3,2.1,3.1,3.5c0.8,1.4,1.4,2.9,1.7,4.6h-35.2c-0.1,0.9-0.1,1.8-0.1,2.8c0,2.8,0.4,5.3,1.2,7.6
			c0.7,2.3,1.8,4.4,3.1,6.2c0.7,1.1,1.6,2.1,2.4,2.9c1.8,1.5,3.8,2.8,6.2,3.6c0.4,0.1,0.7,0.3,1.1,0.4c1.7,0.6,3.5,1,5.3,1.2
			c0.9,0.1,1.9,0.2,2.9,0.2c3.3,0,6.3-0.6,9.1-1.8c2.7-1,4.9-2.5,6.8-4.2c1.8-2,3.3-4.2,4.3-6.9c1.2-2.8,1.8-5.9,1.8-9.2
			C1907,664.8,1906.4,661.8,1905.2,659z M1896.2,676.4c-0.8,1.2-1.8,2.3-2.9,3.2c-1.2,0.9-2.4,1.5-3.8,2.1c-1.4,0.5-3,0.7-4.6,0.7
			c-1,0-1.9-0.1-2.8-0.3c-0.6-0.1-1.2-0.3-1.7-0.5c-1.3-0.5-2.5-1.1-3.6-2c0,0-0.1,0-0.1-0.1c-0.7-0.7-1.4-1.4-2-2.2
			c-0.3-0.3-0.5-0.6-0.7-0.9c-0.8-1.2-1.3-2.5-1.7-4h25.6C1897.6,673.9,1897,675.2,1896.2,676.4z M1737.6,492.5
			c-0.8-2.4-1.8-4.4-3.1-6.3c-0.6-0.9-1.3-1.7-2-2.5c0,0-0.1,0-0.1,0c-0.7-0.8-1.5-1.5-2.4-2.1c-1.6-1.3-3.5-2.3-5.3-2.9v10.6
			c0.8,0.5,1.7,1.1,2.4,1.8c0.1,0.2,0.3,0.4,0.4,0.6c0.6,0.6,1.1,1.2,1.5,2c1,1.8,1.6,3.9,1.6,6.4c0,1.5-0.3,3-0.8,4.5
			c-0.6,1.4-1.3,2.8-2.2,4c-1,1.2-2.1,2.3-3.5,3.1c-1.4,0.8-2.9,1.4-4.6,1.7v-35.3c-0.9-0.1-1.8-0.1-2.7-0.1c-2.8,0-5.4,0.4-7.6,1.2
			c-2.3,0.7-4.4,1.8-6.2,3.1c-1.1,0.7-2.1,1.5-2.9,2.4c-1.5,1.8-2.8,3.8-3.6,6.2c-0.1,0.4-0.3,0.7-0.4,1.1c-0.6,1.7-1,3.5-1.2,5.3
			c-0.1,0.9-0.2,1.9-0.2,2.9c0,3.3,0.6,6.3,1.8,9.1c1,2.7,2.5,4.9,4.2,6.8c2,1.8,4.2,3.3,6.9,4.3c2.8,1.2,5.9,1.8,9.3,1.8
			c3.3,0,6.3-0.6,9.2-1.8c2.6-1,4.8-2.4,6.7-4.1c1.9-2,3.3-4.3,4.4-7.1c1.2-2.8,1.8-5.8,1.8-9.1
			C1738.8,497.2,1738.4,494.7,1737.6,492.5z M1712.5,513c-1.5-0.3-2.8-0.9-4-1.7c-1.2-0.8-2.3-1.7-3.2-2.8c-0.9-1.2-1.5-2.4-2.1-3.8
			c-0.6-1.4-0.8-3-0.8-4.6c0-1,0.1-1.9,0.3-2.8c0.1-0.6,0.3-1.2,0.5-1.7c0.5-1.3,1.1-2.5,2-3.6c0,0,0-0.1,0.1-0.1
			c0.7-0.7,1.4-1.4,2.2-2c0.3-0.3,0.6-0.5,0.9-0.7c1.2-0.8,2.5-1.3,4-1.7V513z M1907,331.8c0-2.8-0.4-5.3-1.2-7.6
			c-0.7-2.3-1.8-4.4-3.1-6.2c-0.7-1.1-1.5-2.1-2.4-2.9c-1.8-1.5-3.8-2.8-6.2-3.6c-0.4-0.1-0.7-0.3-1.1-0.4c-1.7-0.6-3.5-1-5.3-1.2
			c-0.9-0.1-1.9-0.2-2.8-0.2c-3.3,0-6.4,0.6-9.2,1.8c-2.7,1-4.9,2.5-6.8,4.2c-1.8,2-3.3,4.2-4.3,6.9c-1.2,2.8-1.8,5.9-1.8,9.2
			c0,3.4,0.6,6.4,1.8,9.2c1,2.6,2.4,4.8,4.1,6.7c2,1.9,4.2,3.3,7,4.4c2.8,1.2,5.8,1.8,9.2,1.8c2.8,0,5.3-0.4,7.6-1.2
			c2.4-0.8,4.4-1.8,6.3-3.1c0.9-0.6,1.7-1.3,2.5-2c0,0,0-0.1,0-0.1c0.8-0.8,1.5-1.5,2.1-2.4c1.3-1.6,2.3-3.5,2.9-5.3h-10.6
			c-0.5,0.8-1.1,1.7-1.8,2.4c-0.2,0.1-0.4,0.3-0.6,0.4c-0.6,0.6-1.2,1.1-2,1.5c-1.8,1-3.9,1.6-6.4,1.6c-1.5,0-3-0.3-4.5-0.8
			c-1.4-0.5-2.8-1.2-4-2.2c-1.2-1-2.3-2.1-3.1-3.5c-0.8-1.4-1.4-2.9-1.7-4.6h35.3C1906.9,333.7,1907,332.8,1907,331.8z
			 M1871.9,327.6c0.3-1.5,0.9-2.8,1.7-4c0.8-1.2,1.7-2.3,2.8-3.2c1.2-0.9,2.4-1.5,3.8-2.1c1.4-0.5,3-0.7,4.6-0.7
			c1,0,1.9,0.1,2.8,0.3c0.6,0.1,1.2,0.3,1.7,0.5c1.3,0.5,2.5,1.1,3.6,2c0,0,0.1,0,0.1,0.1c0.7,0.7,1.4,1.4,2,2.2
			c0.3,0.3,0.5,0.6,0.7,0.9c0.8,1.2,1.3,2.5,1.7,4H1871.9z M1737.6,492.5c-0.8-2.4-1.8-4.4-3.1-6.3c-0.6-0.9-1.3-1.7-2-2.5
			c0,0-0.1,0-0.1,0c-0.7-0.8-1.5-1.5-2.4-2.1c-1.6-1.3-3.5-2.3-5.3-2.9v10.6c0.8,0.5,1.7,1.1,2.4,1.8c0.1,0.2,0.3,0.4,0.4,0.6
			c0.6,0.6,1.1,1.2,1.5,2c1,1.8,1.6,3.9,1.6,6.4c0,1.5-0.3,3-0.8,4.5c-0.6,1.4-1.3,2.8-2.2,4c-1,1.2-2.1,2.3-3.5,3.1
			c-1.4,0.8-2.9,1.4-4.6,1.7v-35.3c-0.9-0.1-1.8-0.1-2.7-0.1c-2.8,0-5.4,0.4-7.6,1.2c-2.3,0.7-4.4,1.8-6.2,3.1
			c-1.1,0.7-2.1,1.5-2.9,2.4c-1.5,1.8-2.8,3.8-3.6,6.2c-0.1,0.4-0.3,0.7-0.4,1.1c-0.6,1.7-1,3.5-1.2,5.3c-0.1,0.9-0.2,1.9-0.2,2.9
			c0,3.3,0.6,6.3,1.8,9.1c1,2.7,2.5,4.9,4.2,6.8c2,1.8,4.2,3.3,6.9,4.3c2.8,1.2,5.9,1.8,9.3,1.8c3.3,0,6.3-0.6,9.2-1.8
			c2.6-1,4.8-2.4,6.7-4.1c1.9-2,3.3-4.3,4.4-7.1c1.2-2.8,1.8-5.8,1.8-9.1C1738.8,497.2,1738.4,494.7,1737.6,492.5z M1712.5,513
			c-1.5-0.3-2.8-0.9-4-1.7c-1.2-0.8-2.3-1.7-3.2-2.8c-0.9-1.2-1.5-2.4-2.1-3.8c-0.6-1.4-0.8-3-0.8-4.6c0-1,0.1-1.9,0.3-2.8
			c0.1-0.6,0.3-1.2,0.5-1.7c0.5-1.3,1.1-2.5,2-3.6c0,0,0-0.1,0.1-0.1c0.7-0.7,1.4-1.4,2.2-2c0.3-0.3,0.6-0.5,0.9-0.7
			c1.2-0.8,2.5-1.3,4-1.7V513z M1905.2,659c-1-2.6-2.4-4.8-4.1-6.7c-2-1.9-4.3-3.3-7.1-4.4c-2.8-1.2-5.8-1.8-9.1-1.8
			c-2.8,0-5.4,0.4-7.6,1.2c-2.4,0.8-4.4,1.8-6.3,3.1c-0.9,0.6-1.7,1.3-2.4,2c0,0,0,0.1-0.1,0.1c-0.7,0.8-1.5,1.5-2.1,2.4
			c-1.3,1.6-2.3,3.5-2.9,5.3h10.6c0.5-0.8,1.1-1.7,1.8-2.4c0.2-0.1,0.4-0.3,0.6-0.4c0.6-0.6,1.2-1.1,2-1.5c1.8-1,4-1.6,6.4-1.6
			c1.5,0,3,0.3,4.5,0.8c1.4,0.5,2.8,1.2,4,2.2c1.2,1,2.3,2.1,3.1,3.5c0.8,1.4,1.4,2.9,1.7,4.6h-35.2c-0.1,0.9-0.1,1.8-0.1,2.8
			c0,2.8,0.4,5.3,1.2,7.6c0.7,2.3,1.8,4.4,3.1,6.2c0.7,1.1,1.6,2.1,2.4,2.9c1.8,1.5,3.8,2.8,6.2,3.6c0.4,0.1,0.7,0.3,1.1,0.4
			c1.7,0.6,3.5,1,5.3,1.2c0.9,0.1,1.9,0.2,2.9,0.2c3.3,0,6.3-0.6,9.1-1.8c2.7-1,4.9-2.5,6.8-4.2c1.8-2,3.3-4.2,4.3-6.9
			c1.2-2.8,1.8-5.9,1.8-9.2C1907,664.8,1906.4,661.8,1905.2,659z M1896.2,676.4c-0.8,1.2-1.8,2.3-2.9,3.2c-1.2,0.9-2.4,1.5-3.8,2.1
			c-1.4,0.5-3,0.7-4.6,0.7c-1,0-1.9-0.1-2.8-0.3c-0.6-0.1-1.2-0.3-1.7-0.5c-1.3-0.5-2.5-1.1-3.6-2c0,0-0.1,0-0.1-0.1
			c-0.7-0.7-1.4-1.4-2-2.2c-0.3-0.3-0.5-0.6-0.7-0.9c-0.8-1.2-1.3-2.5-1.7-4h25.6C1897.6,673.9,1897,675.2,1896.2,676.4z
			 M1907,331.8c0-2.8-0.4-5.3-1.2-7.6c-0.7-2.3-1.8-4.4-3.1-6.2c-0.7-1.1-1.5-2.1-2.4-2.9c-1.8-1.5-3.8-2.8-6.2-3.6
			c-0.4-0.1-0.7-0.3-1.1-0.4c-1.7-0.6-3.5-1-5.3-1.2c-0.9-0.1-1.9-0.2-2.8-0.2c-3.3,0-6.4,0.6-9.2,1.8c-2.7,1-4.9,2.5-6.8,4.2
			c-1.8,2-3.3,4.2-4.3,6.9c-1.2,2.8-1.8,5.9-1.8,9.2c0,3.4,0.6,6.4,1.8,9.2c1,2.6,2.4,4.8,4.1,6.7c2,1.9,4.2,3.3,7,4.4
			c2.8,1.2,5.8,1.8,9.2,1.8c2.8,0,5.3-0.4,7.6-1.2c2.4-0.8,4.4-1.8,6.3-3.1c0.9-0.6,1.7-1.3,2.5-2c0,0,0-0.1,0-0.1
			c0.8-0.8,1.5-1.5,2.1-2.4c1.3-1.6,2.3-3.5,2.9-5.3h-10.6c-0.5,0.8-1.1,1.7-1.8,2.4c-0.2,0.1-0.4,0.3-0.6,0.4
			c-0.6,0.6-1.2,1.1-2,1.5c-1.8,1-3.9,1.6-6.4,1.6c-1.5,0-3-0.3-4.5-0.8c-1.4-0.5-2.8-1.2-4-2.2c-1.2-1-2.3-2.1-3.1-3.5
			c-0.8-1.4-1.4-2.9-1.7-4.6h35.3C1906.9,333.7,1907,332.8,1907,331.8z M1871.9,327.6c0.3-1.5,0.9-2.8,1.7-4
			c0.8-1.2,1.7-2.3,2.8-3.2c1.2-0.9,2.4-1.5,3.8-2.1c1.4-0.5,3-0.7,4.6-0.7c1,0,1.9,0.1,2.8,0.3c0.6,0.1,1.2,0.3,1.7,0.5
			c1.3,0.5,2.5,1.1,3.6,2c0,0,0.1,0,0.1,0.1c0.7,0.7,1.4,1.4,2,2.2c0.3,0.3,0.5,0.6,0.7,0.9c0.8,1.2,1.3,2.5,1.7,4H1871.9z
			 M1905.2,659c-1-2.6-2.4-4.8-4.1-6.7c-2-1.9-4.3-3.3-7.1-4.4c-2.8-1.2-5.8-1.8-9.1-1.8c-2.8,0-5.4,0.4-7.6,1.2
			c-2.4,0.8-4.4,1.8-6.3,3.1c-0.9,0.6-1.7,1.3-2.4,2c0,0,0,0.1-0.1,0.1c-0.7,0.8-1.5,1.5-2.1,2.4c-1.3,1.6-2.3,3.5-2.9,5.3h10.6
			c0.5-0.8,1.1-1.7,1.8-2.4c0.2-0.1,0.4-0.3,0.6-0.4c0.6-0.6,1.2-1.1,2-1.5c1.8-1,4-1.6,6.4-1.6c1.5,0,3,0.3,4.5,0.8
			c1.4,0.5,2.8,1.2,4,2.2c1.2,1,2.3,2.1,3.1,3.5c0.8,1.4,1.4,2.9,1.7,4.6h-35.2c-0.1,0.9-0.1,1.8-0.1,2.8c0,2.8,0.4,5.3,1.2,7.6
			c0.7,2.3,1.8,4.4,3.1,6.2c0.7,1.1,1.6,2.1,2.4,2.9c1.8,1.5,3.8,2.8,6.2,3.6c0.4,0.1,0.7,0.3,1.1,0.4c1.7,0.6,3.5,1,5.3,1.2
			c0.9,0.1,1.9,0.2,2.9,0.2c3.3,0,6.3-0.6,9.1-1.8c2.7-1,4.9-2.5,6.8-4.2c1.8-2,3.3-4.2,4.3-6.9c1.2-2.8,1.8-5.9,1.8-9.2
			C1907,664.8,1906.4,661.8,1905.2,659z M1896.2,676.4c-0.8,1.2-1.8,2.3-2.9,3.2c-1.2,0.9-2.4,1.5-3.8,2.1c-1.4,0.5-3,0.7-4.6,0.7
			c-1,0-1.9-0.1-2.8-0.3c-0.6-0.1-1.2-0.3-1.7-0.5c-1.3-0.5-2.5-1.1-3.6-2c0,0-0.1,0-0.1-0.1c-0.7-0.7-1.4-1.4-2-2.2
			c-0.3-0.3-0.5-0.6-0.7-0.9c-0.8-1.2-1.3-2.5-1.7-4h25.6C1897.6,673.9,1897,675.2,1896.2,676.4z M1737.6,492.5
			c-0.8-2.4-1.8-4.4-3.1-6.3c-0.6-0.9-1.3-1.7-2-2.5c0,0-0.1,0-0.1,0c-0.7-0.8-1.5-1.5-2.4-2.1c-1.6-1.3-3.5-2.3-5.3-2.9v10.6
			c0.8,0.5,1.7,1.1,2.4,1.8c0.1,0.2,0.3,0.4,0.4,0.6c0.6,0.6,1.1,1.2,1.5,2c1,1.8,1.6,3.9,1.6,6.4c0,1.5-0.3,3-0.8,4.5
			c-0.6,1.4-1.3,2.8-2.2,4c-1,1.2-2.1,2.3-3.5,3.1c-1.4,0.8-2.9,1.4-4.6,1.7v-35.3c-0.9-0.1-1.8-0.1-2.7-0.1c-2.8,0-5.4,0.4-7.6,1.2
			c-2.3,0.7-4.4,1.8-6.2,3.1c-1.1,0.7-2.1,1.5-2.9,2.4c-1.5,1.8-2.8,3.8-3.6,6.2c-0.1,0.4-0.3,0.7-0.4,1.1c-0.6,1.7-1,3.5-1.2,5.3
			c-0.1,0.9-0.2,1.9-0.2,2.9c0,3.3,0.6,6.3,1.8,9.1c1,2.7,2.5,4.9,4.2,6.8c2,1.8,4.2,3.3,6.9,4.3c2.8,1.2,5.9,1.8,9.3,1.8
			c3.3,0,6.3-0.6,9.2-1.8c2.6-1,4.8-2.4,6.7-4.1c1.9-2,3.3-4.3,4.4-7.1c1.2-2.8,1.8-5.8,1.8-9.1
			C1738.8,497.2,1738.4,494.7,1737.6,492.5z M1712.5,513c-1.5-0.3-2.8-0.9-4-1.7c-1.2-0.8-2.3-1.7-3.2-2.8c-0.9-1.2-1.5-2.4-2.1-3.8
			c-0.6-1.4-0.8-3-0.8-4.6c0-1,0.1-1.9,0.3-2.8c0.1-0.6,0.3-1.2,0.5-1.7c0.5-1.3,1.1-2.5,2-3.6c0,0,0-0.1,0.1-0.1
			c0.7-0.7,1.4-1.4,2.2-2c0.3-0.3,0.6-0.5,0.9-0.7c1.2-0.8,2.5-1.3,4-1.7V513z M1905.2,659c-1-2.6-2.4-4.8-4.1-6.7
			c-2-1.9-4.3-3.3-7.1-4.4c-2.8-1.2-5.8-1.8-9.1-1.8c-2.8,0-5.4,0.4-7.6,1.2c-2.4,0.8-4.4,1.8-6.3,3.1c-0.9,0.6-1.7,1.3-2.4,2
			c0,0,0,0.1-0.1,0.1c-0.7,0.8-1.5,1.5-2.1,2.4c-1.3,1.6-2.3,3.5-2.9,5.3h10.6c0.5-0.8,1.1-1.7,1.8-2.4c0.2-0.1,0.4-0.3,0.6-0.4
			c0.6-0.6,1.2-1.1,2-1.5c1.8-1,4-1.6,6.4-1.6c1.5,0,3,0.3,4.5,0.8c1.4,0.5,2.8,1.2,4,2.2c1.2,1,2.3,2.1,3.1,3.5
			c0.8,1.4,1.4,2.9,1.7,4.6h-35.2c-0.1,0.9-0.1,1.8-0.1,2.8c0,2.8,0.4,5.3,1.2,7.6c0.7,2.3,1.8,4.4,3.1,6.2c0.7,1.1,1.6,2.1,2.4,2.9
			c1.8,1.5,3.8,2.8,6.2,3.6c0.4,0.1,0.7,0.3,1.1,0.4c1.7,0.6,3.5,1,5.3,1.2c0.9,0.1,1.9,0.2,2.9,0.2c3.3,0,6.3-0.6,9.1-1.8
			c2.7-1,4.9-2.5,6.8-4.2c1.8-2,3.3-4.2,4.3-6.9c1.2-2.8,1.8-5.9,1.8-9.2C1907,664.8,1906.4,661.8,1905.2,659z M1896.2,676.4
			c-0.8,1.2-1.8,2.3-2.9,3.2c-1.2,0.9-2.4,1.5-3.8,2.1c-1.4,0.5-3,0.7-4.6,0.7c-1,0-1.9-0.1-2.8-0.3c-0.6-0.1-1.2-0.3-1.7-0.5
			c-1.3-0.5-2.5-1.1-3.6-2c0,0-0.1,0-0.1-0.1c-0.7-0.7-1.4-1.4-2-2.2c-0.3-0.3-0.5-0.6-0.7-0.9c-0.8-1.2-1.3-2.5-1.7-4h25.6
			C1897.6,673.9,1897,675.2,1896.2,676.4z M1905.2,659c-1-2.6-2.4-4.8-4.1-6.7c-2-1.9-4.3-3.3-7.1-4.4c-2.8-1.2-5.8-1.8-9.1-1.8
			c-2.8,0-5.4,0.4-7.6,1.2c-2.4,0.8-4.4,1.8-6.3,3.1c-0.9,0.6-1.7,1.3-2.4,2c0,0,0,0.1-0.1,0.1c-0.7,0.8-1.5,1.5-2.1,2.4
			c-1.3,1.6-2.3,3.5-2.9,5.3h10.6c0.5-0.8,1.1-1.7,1.8-2.4c0.2-0.1,0.4-0.3,0.6-0.4c0.6-0.6,1.2-1.1,2-1.5c1.8-1,4-1.6,6.4-1.6
			c1.5,0,3,0.3,4.5,0.8c1.4,0.5,2.8,1.2,4,2.2c1.2,1,2.3,2.1,3.1,3.5c0.8,1.4,1.4,2.9,1.7,4.6h-35.2c-0.1,0.9-0.1,1.8-0.1,2.8
			c0,2.8,0.4,5.3,1.2,7.6c0.7,2.3,1.8,4.4,3.1,6.2c0.7,1.1,1.6,2.1,2.4,2.9c1.8,1.5,3.8,2.8,6.2,3.6c0.4,0.1,0.7,0.3,1.1,0.4
			c1.7,0.6,3.5,1,5.3,1.2c0.9,0.1,1.9,0.2,2.9,0.2c3.3,0,6.3-0.6,9.1-1.8c2.7-1,4.9-2.5,6.8-4.2c1.8-2,3.3-4.2,4.3-6.9
			c1.2-2.8,1.8-5.9,1.8-9.2C1907,664.8,1906.4,661.8,1905.2,659z M1896.2,676.4c-0.8,1.2-1.8,2.3-2.9,3.2c-1.2,0.9-2.4,1.5-3.8,2.1
			c-1.4,0.5-3,0.7-4.6,0.7c-1,0-1.9-0.1-2.8-0.3c-0.6-0.1-1.2-0.3-1.7-0.5c-1.3-0.5-2.5-1.1-3.6-2c0,0-0.1,0-0.1-0.1
			c-0.7-0.7-1.4-1.4-2-2.2c-0.3-0.3-0.5-0.6-0.7-0.9c-0.8-1.2-1.3-2.5-1.7-4h25.6C1897.6,673.9,1897,675.2,1896.2,676.4z"/>
	</g>
</g>
<g>
	<g>
		<linearGradient id="SVGID_1_" gradientUnits="userSpaceOnUse" x1="695.0404" y1="499.9998" x2="642.931" y2="499.9998">
			<stop  offset="0" style="stop-color:#2D6CB5"/>
			<stop  offset="0.2148" style="stop-color:#2658A1"/>
			<stop  offset="1" style="stop-color:#0F145B"/>
		</linearGradient>
		<path class="st1" d="M688.5,490.8c-1-2.7-2.5-4.9-4.2-6.8c-2-1.8-4.2-3.3-6.8-4.3c-2.9-1.2-5.9-1.8-9.3-1.8s-6.4,0.6-9.2,1.8
			c-2.6,1-4.8,2.4-6.7,4.1c-1.8,2-3.3,4.3-4.4,7.1c-1.2,2.8-1.8,5.8-1.8,9.1c0,2.8,0.4,5.4,1.2,7.6c0.8,2.4,1.8,4.4,3.1,6.3
			c0.7,0.9,1.4,1.7,2.1,2.5c0,0,0,0,0,0c0.8,0.8,1.5,1.5,2.4,2.1c1.6,1.3,3.5,2.3,5.3,2.9v-10.6c-0.8-0.5-1.7-1.1-2.4-1.8
			c-0.1-0.2-0.3-0.4-0.4-0.6c-0.6-0.6-1.1-1.2-1.5-2c-1-1.8-1.6-3.9-1.6-6.4c0-1.5,0.3-3,0.8-4.5c0.5-1.4,1.2-2.8,2.2-4
			c1-1.2,2.1-2.3,3.5-3.1c1.4-0.8,2.9-1.4,4.6-1.7v35.3c0.9,0.1,1.8,0.1,2.8,0.1c2.8,0,5.3-0.4,7.6-1.2c2.3-0.7,4.4-1.8,6.2-3.1
			c1.1-0.7,2.1-1.5,2.9-2.4c1.5-1.8,2.8-3.8,3.6-6.2c0.1-0.4,0.3-0.7,0.4-1.1c0.6-1.7,1-3.5,1.2-5.3c0.1-0.9,0.2-1.9,0.2-2.9
			C690.3,496.6,689.7,493.6,688.5,490.8z M682.1,502.8c-0.1,0.6-0.3,1.2-0.5,1.7c-0.5,1.3-1.1,2.5-2,3.6c0,0-0.1,0.1-0.1,0.1
			c-0.7,0.7-1.4,1.4-2.2,2c-0.3,0.3-0.6,0.5-0.9,0.7c-1.2,0.8-2.5,1.3-4,1.7V487c1.5,0.3,2.8,0.9,4,1.7c1.2,0.8,2.3,1.7,3.2,2.8
			c0.9,1.2,1.5,2.4,2.1,3.8c0.5,1.4,0.7,3,0.7,4.6C682.4,501,682.3,501.9,682.1,502.8z"/>
		
			<linearGradient id="SVGID_00000158730807824483297720000001117091594327006340_" gradientUnits="userSpaceOnUse" x1="909.2012" y1="500" x2="114.8465" y2="500">
			<stop  offset="0" style="stop-color:#2D6CB5"/>
			<stop  offset="0.2148" style="stop-color:#2658A1"/>
			<stop  offset="1" style="stop-color:#0F145B"/>
		</linearGradient>
		<path style="fill:url(#SVGID_00000158730807824483297720000001117091594327006340_);" d="M352.7,492.5c-0.8-2.4-1.8-4.4-3.1-6.3
			c-0.6-0.9-1.3-1.7-2-2.5c0,0-0.1,0-0.1,0c-0.7-0.8-1.5-1.5-2.4-2.1c-1.6-1.3-3.5-2.3-5.3-2.9v10.6c0.8,0.5,1.7,1.1,2.4,1.8
			c0.1,0.2,0.3,0.4,0.4,0.6c0.6,0.6,1.1,1.2,1.5,2c1,1.8,1.6,3.9,1.6,6.4c0,1.5-0.3,3-0.8,4.5c-0.6,1.4-1.3,2.8-2.2,4
			c-1,1.2-2.1,2.3-3.5,3.1c-1.4,0.8-2.9,1.4-4.6,1.7v-35.3c-0.9-0.1-1.8-0.1-2.7-0.1c-2.8,0-5.4,0.4-7.6,1.2
			c-2.3,0.7-4.4,1.8-6.2,3.1c-1.1,0.7-2.1,1.5-2.9,2.4c-1.5,1.8-2.8,3.8-3.6,6.2c-0.1,0.4-0.3,0.7-0.4,1.1c-0.6,1.7-1,3.5-1.2,5.3
			c-0.1,0.9-0.2,1.9-0.2,2.9c0,3.3,0.6,6.3,1.8,9.1c1,2.7,2.5,4.9,4.2,6.8c2,1.8,4.2,3.3,6.9,4.3c2.8,1.2,5.9,1.8,9.3,1.8
			c3.3,0,6.3-0.6,9.2-1.8c2.6-1,4.8-2.4,6.7-4.1c1.9-2,3.3-4.3,4.4-7.1c1.2-2.8,1.8-5.8,1.8-9.1
			C353.9,497.2,353.5,494.7,352.7,492.5z M327.6,513c-1.5-0.3-2.8-0.9-4-1.7c-1.2-0.8-2.3-1.7-3.2-2.8c-0.9-1.2-1.5-2.4-2.1-3.8
			c-0.6-1.4-0.8-3-0.8-4.6c0-1,0.1-1.9,0.3-2.8c0.1-0.6,0.3-1.2,0.5-1.7c0.5-1.3,1.1-2.5,2-3.6c0,0,0-0.1,0.1-0.1
			c0.7-0.7,1.4-1.4,2.2-2c0.3-0.3,0.6-0.5,0.9-0.7c1.2-0.8,2.5-1.3,4-1.7V513z M520.3,659c-1-2.6-2.4-4.8-4.1-6.7
			c-2-1.9-4.3-3.3-7.1-4.4c-2.8-1.2-5.8-1.8-9.1-1.8c-2.8,0-5.4,0.4-7.6,1.2c-2.4,0.8-4.4,1.8-6.3,3.1c-0.9,0.6-1.7,1.3-2.4,2
			c0,0,0,0.1-0.1,0.1c-0.7,0.8-1.5,1.5-2.1,2.4c-1.3,1.6-2.3,3.5-2.9,5.3h10.6c0.5-0.8,1.1-1.7,1.8-2.4c0.2-0.1,0.4-0.3,0.6-0.4
			c0.6-0.6,1.2-1.1,2-1.5c1.8-1,4-1.6,6.4-1.6c1.5,0,3,0.3,4.5,0.8c1.4,0.5,2.8,1.2,4,2.2c1.2,1,2.3,2.1,3.1,3.5
			c0.8,1.4,1.4,2.9,1.7,4.6h-35.2c-0.1,0.9-0.1,1.8-0.1,2.8c0,2.8,0.4,5.3,1.2,7.6c0.7,2.3,1.8,4.4,3.1,6.2c0.7,1.1,1.6,2.1,2.4,2.9
			c1.8,1.5,3.8,2.8,6.2,3.6c0.4,0.1,0.7,0.3,1.1,0.4c1.7,0.6,3.5,1,5.3,1.2c0.9,0.1,1.9,0.2,2.9,0.2c3.3,0,6.3-0.6,9.1-1.8
			c2.7-1,4.9-2.5,6.8-4.2c1.8-2,3.3-4.2,4.3-6.9c1.2-2.8,1.8-5.9,1.8-9.2C522.1,664.8,521.5,661.8,520.3,659z M511.3,676.4
			c-0.8,1.2-1.8,2.3-2.9,3.2c-1.2,0.9-2.4,1.5-3.8,2.1c-1.4,0.5-3,0.7-4.6,0.7c-1,0-1.9-0.1-2.8-0.3c-0.6-0.1-1.2-0.3-1.7-0.5
			c-1.3-0.5-2.5-1.1-3.6-2c0,0-0.1,0-0.1-0.1c-0.7-0.7-1.4-1.4-2-2.2c-0.3-0.3-0.5-0.6-0.7-0.9c-0.8-1.2-1.3-2.5-1.7-4H513
			C512.7,673.9,512.1,675.2,511.3,676.4z M520.3,659c-1-2.6-2.4-4.8-4.1-6.7c-2-1.9-4.3-3.3-7.1-4.4c-2.8-1.2-5.8-1.8-9.1-1.8
			c-2.8,0-5.4,0.4-7.6,1.2c-2.4,0.8-4.4,1.8-6.3,3.1c-0.9,0.6-1.7,1.3-2.4,2c0,0,0,0.1-0.1,0.1c-0.7,0.8-1.5,1.5-2.1,2.4
			c-1.3,1.6-2.3,3.5-2.9,5.3h10.6c0.5-0.8,1.1-1.7,1.8-2.4c0.2-0.1,0.4-0.3,0.6-0.4c0.6-0.6,1.2-1.1,2-1.5c1.8-1,4-1.6,6.4-1.6
			c1.5,0,3,0.3,4.5,0.8c1.4,0.5,2.8,1.2,4,2.2c1.2,1,2.3,2.1,3.1,3.5c0.8,1.4,1.4,2.9,1.7,4.6h-35.2c-0.1,0.9-0.1,1.8-0.1,2.8
			c0,2.8,0.4,5.3,1.2,7.6c0.7,2.3,1.8,4.4,3.1,6.2c0.7,1.1,1.6,2.1,2.4,2.9c1.8,1.5,3.8,2.8,6.2,3.6c0.4,0.1,0.7,0.3,1.1,0.4
			c1.7,0.6,3.5,1,5.3,1.2c0.9,0.1,1.9,0.2,2.9,0.2c3.3,0,6.3-0.6,9.1-1.8c2.7-1,4.9-2.5,6.8-4.2c1.8-2,3.3-4.2,4.3-6.9
			c1.2-2.8,1.8-5.9,1.8-9.2C522.1,664.8,521.5,661.8,520.3,659z M511.3,676.4c-0.8,1.2-1.8,2.3-2.9,3.2c-1.2,0.9-2.4,1.5-3.8,2.1
			c-1.4,0.5-3,0.7-4.6,0.7c-1,0-1.9-0.1-2.8-0.3c-0.6-0.1-1.2-0.3-1.7-0.5c-1.3-0.5-2.5-1.1-3.6-2c0,0-0.1,0-0.1-0.1
			c-0.7-0.7-1.4-1.4-2-2.2c-0.3-0.3-0.5-0.6-0.7-0.9c-0.8-1.2-1.3-2.5-1.7-4H513C512.7,673.9,512.1,675.2,511.3,676.4z M352.7,492.5
			c-0.8-2.4-1.8-4.4-3.1-6.3c-0.6-0.9-1.3-1.7-2-2.5c0,0-0.1,0-0.1,0c-0.7-0.8-1.5-1.5-2.4-2.1c-1.6-1.3-3.5-2.3-5.3-2.9v10.6
			c0.8,0.5,1.7,1.1,2.4,1.8c0.1,0.2,0.3,0.4,0.4,0.6c0.6,0.6,1.1,1.2,1.5,2c1,1.8,1.6,3.9,1.6,6.4c0,1.5-0.3,3-0.8,4.5
			c-0.6,1.4-1.3,2.8-2.2,4c-1,1.2-2.1,2.3-3.5,3.1c-1.4,0.8-2.9,1.4-4.6,1.7v-35.3c-0.9-0.1-1.8-0.1-2.7-0.1c-2.8,0-5.4,0.4-7.6,1.2
			c-2.3,0.7-4.4,1.8-6.2,3.1c-1.1,0.7-2.1,1.5-2.9,2.4c-1.5,1.8-2.8,3.8-3.6,6.2c-0.1,0.4-0.3,0.7-0.4,1.1c-0.6,1.7-1,3.5-1.2,5.3
			c-0.1,0.9-0.2,1.9-0.2,2.9c0,3.3,0.6,6.3,1.8,9.1c1,2.7,2.5,4.9,4.2,6.8c2,1.8,4.2,3.3,6.9,4.3c2.8,1.2,5.9,1.8,9.3,1.8
			c3.3,0,6.3-0.6,9.2-1.8c2.6-1,4.8-2.4,6.7-4.1c1.9-2,3.3-4.3,4.4-7.1c1.2-2.8,1.8-5.8,1.8-9.1
			C353.9,497.2,353.5,494.7,352.7,492.5z M327.6,513c-1.5-0.3-2.8-0.9-4-1.7c-1.2-0.8-2.3-1.7-3.2-2.8c-0.9-1.2-1.5-2.4-2.1-3.8
			c-0.6-1.4-0.8-3-0.8-4.6c0-1,0.1-1.9,0.3-2.8c0.1-0.6,0.3-1.2,0.5-1.7c0.5-1.3,1.1-2.5,2-3.6c0,0,0-0.1,0.1-0.1
			c0.7-0.7,1.4-1.4,2.2-2c0.3-0.3,0.6-0.5,0.9-0.7c1.2-0.8,2.5-1.3,4-1.7V513z M352.7,492.5c-0.8-2.4-1.8-4.4-3.1-6.3
			c-0.6-0.9-1.3-1.7-2-2.5c0,0-0.1,0-0.1,0c-0.7-0.8-1.5-1.5-2.4-2.1c-1.6-1.3-3.5-2.3-5.3-2.9v10.6c0.8,0.5,1.7,1.1,2.4,1.8
			c0.1,0.2,0.3,0.4,0.4,0.6c0.6,0.6,1.1,1.2,1.5,2c1,1.8,1.6,3.9,1.6,6.4c0,1.5-0.3,3-0.8,4.5c-0.6,1.4-1.3,2.8-2.2,4
			c-1,1.2-2.1,2.3-3.5,3.1c-1.4,0.8-2.9,1.4-4.6,1.7v-35.3c-0.9-0.1-1.8-0.1-2.7-0.1c-2.8,0-5.4,0.4-7.6,1.2
			c-2.3,0.7-4.4,1.8-6.2,3.1c-1.1,0.7-2.1,1.5-2.9,2.4c-1.5,1.8-2.8,3.8-3.6,6.2c-0.1,0.4-0.3,0.7-0.4,1.1c-0.6,1.7-1,3.5-1.2,5.3
			c-0.1,0.9-0.2,1.9-0.2,2.9c0,3.3,0.6,6.3,1.8,9.1c1,2.7,2.5,4.9,4.2,6.8c2,1.8,4.2,3.3,6.9,4.3c2.8,1.2,5.9,1.8,9.3,1.8
			c3.3,0,6.3-0.6,9.2-1.8c2.6-1,4.8-2.4,6.7-4.1c1.9-2,3.3-4.3,4.4-7.1c1.2-2.8,1.8-5.8,1.8-9.1
			C353.9,497.2,353.5,494.7,352.7,492.5z M327.6,513c-1.5-0.3-2.8-0.9-4-1.7c-1.2-0.8-2.3-1.7-3.2-2.8c-0.9-1.2-1.5-2.4-2.1-3.8
			c-0.6-1.4-0.8-3-0.8-4.6c0-1,0.1-1.9,0.3-2.8c0.1-0.6,0.3-1.2,0.5-1.7c0.5-1.3,1.1-2.5,2-3.6c0,0,0-0.1,0.1-0.1
			c0.7-0.7,1.4-1.4,2.2-2c0.3-0.3,0.6-0.5,0.9-0.7c1.2-0.8,2.5-1.3,4-1.7V513z M520.3,659c-1-2.6-2.4-4.8-4.1-6.7
			c-2-1.9-4.3-3.3-7.1-4.4c-2.8-1.2-5.8-1.8-9.1-1.8c-2.8,0-5.4,0.4-7.6,1.2c-2.4,0.8-4.4,1.8-6.3,3.1c-0.9,0.6-1.7,1.3-2.4,2
			c0,0,0,0.1-0.1,0.1c-0.7,0.8-1.5,1.5-2.1,2.4c-1.3,1.6-2.3,3.5-2.9,5.3h10.6c0.5-0.8,1.1-1.7,1.8-2.4c0.2-0.1,0.4-0.3,0.6-0.4
			c0.6-0.6,1.2-1.1,2-1.5c1.8-1,4-1.6,6.4-1.6c1.5,0,3,0.3,4.5,0.8c1.4,0.5,2.8,1.2,4,2.2c1.2,1,2.3,2.1,3.1,3.5
			c0.8,1.4,1.4,2.9,1.7,4.6h-35.2c-0.1,0.9-0.1,1.8-0.1,2.8c0,2.8,0.4,5.3,1.2,7.6c0.7,2.3,1.8,4.4,3.1,6.2c0.7,1.1,1.6,2.1,2.4,2.9
			c1.8,1.5,3.8,2.8,6.2,3.6c0.4,0.1,0.7,0.3,1.1,0.4c1.7,0.6,3.5,1,5.3,1.2c0.9,0.1,1.9,0.2,2.9,0.2c3.3,0,6.3-0.6,9.1-1.8
			c2.7-1,4.9-2.5,6.8-4.2c1.8-2,3.3-4.2,4.3-6.9c1.2-2.8,1.8-5.9,1.8-9.2C522.1,664.8,521.5,661.8,520.3,659z M511.3,676.4
			c-0.8,1.2-1.8,2.3-2.9,3.2c-1.2,0.9-2.4,1.5-3.8,2.1c-1.4,0.5-3,0.7-4.6,0.7c-1,0-1.9-0.1-2.8-0.3c-0.6-0.1-1.2-0.3-1.7-0.5
			c-1.3-0.5-2.5-1.1-3.6-2c0,0-0.1,0-0.1-0.1c-0.7-0.7-1.4-1.4-2-2.2c-0.3-0.3-0.5-0.6-0.7-0.9c-0.8-1.2-1.3-2.5-1.7-4H513
			C512.7,673.9,512.1,675.2,511.3,676.4z M522.1,331.8c0-2.8-0.4-5.3-1.2-7.6c-0.7-2.3-1.8-4.4-3.1-6.2c-0.7-1.1-1.5-2.1-2.4-2.9
			c-1.8-1.5-3.8-2.8-6.2-3.6c-0.4-0.1-0.7-0.3-1.1-0.4c-1.7-0.6-3.5-1-5.3-1.2c-0.9-0.1-1.9-0.2-2.8-0.2c-3.3,0-6.4,0.6-9.2,1.8
			c-2.7,1-4.9,2.5-6.8,4.2c-1.8,2-3.3,4.2-4.3,6.9c-1.2,2.8-1.8,5.9-1.8,9.2c0,3.4,0.6,6.4,1.8,9.2c1,2.6,2.4,4.8,4.1,6.7
			c2,1.9,4.2,3.3,7,4.4c2.8,1.2,5.8,1.8,9.2,1.8c2.8,0,5.3-0.4,7.6-1.2c2.4-0.8,4.4-1.8,6.3-3.1c0.9-0.6,1.7-1.3,2.5-2
			c0,0,0-0.1,0-0.1c0.8-0.8,1.5-1.5,2.1-2.4c1.3-1.6,2.3-3.5,2.9-5.3h-10.6c-0.5,0.8-1.1,1.7-1.8,2.4c-0.2,0.1-0.4,0.3-0.6,0.4
			c-0.6,0.6-1.2,1.1-2,1.5c-1.8,1-3.9,1.6-6.4,1.6c-1.5,0-3-0.3-4.5-0.8c-1.4-0.5-2.8-1.2-4-2.2c-1.2-1-2.3-2.1-3.1-3.5
			c-0.8-1.4-1.4-2.9-1.7-4.6h35.3C522,333.7,522.1,332.8,522.1,331.8z M487,327.6c0.3-1.5,0.9-2.8,1.7-4c0.8-1.2,1.7-2.3,2.8-3.2
			c1.2-0.9,2.4-1.5,3.8-2.1c1.4-0.5,3-0.7,4.6-0.7c1,0,1.9,0.1,2.8,0.3c0.6,0.1,1.2,0.3,1.7,0.5c1.3,0.5,2.5,1.1,3.6,2
			c0,0,0.1,0,0.1,0.1c0.7,0.7,1.4,1.4,2,2.2c0.3,0.3,0.5,0.6,0.7,0.9c0.8,1.2,1.3,2.5,1.7,4H487z M520.3,659c-1-2.6-2.4-4.8-4.1-6.7
			c-2-1.9-4.3-3.3-7.1-4.4c-2.8-1.2-5.8-1.8-9.1-1.8c-2.8,0-5.4,0.4-7.6,1.2c-2.4,0.8-4.4,1.8-6.3,3.1c-0.9,0.6-1.7,1.3-2.4,2
			c0,0,0,0.1-0.1,0.1c-0.7,0.8-1.5,1.5-2.1,2.4c-1.3,1.6-2.3,3.5-2.9,5.3h10.6c0.5-0.8,1.1-1.7,1.8-2.4c0.2-0.1,0.4-0.3,0.6-0.4
			c0.6-0.6,1.2-1.1,2-1.5c1.8-1,4-1.6,6.4-1.6c1.5,0,3,0.3,4.5,0.8c1.4,0.5,2.8,1.2,4,2.2c1.2,1,2.3,2.1,3.1,3.5
			c0.8,1.4,1.4,2.9,1.7,4.6h-35.2c-0.1,0.9-0.1,1.8-0.1,2.8c0,2.8,0.4,5.3,1.2,7.6c0.7,2.3,1.8,4.4,3.1,6.2c0.7,1.1,1.6,2.1,2.4,2.9
			c1.8,1.5,3.8,2.8,6.2,3.6c0.4,0.1,0.7,0.3,1.1,0.4c1.7,0.6,3.5,1,5.3,1.2c0.9,0.1,1.9,0.2,2.9,0.2c3.3,0,6.3-0.6,9.1-1.8
			c2.7-1,4.9-2.5,6.8-4.2c1.8-2,3.3-4.2,4.3-6.9c1.2-2.8,1.8-5.9,1.8-9.2C522.1,664.8,521.5,661.8,520.3,659z M511.3,676.4
			c-0.8,1.2-1.8,2.3-2.9,3.2c-1.2,0.9-2.4,1.5-3.8,2.1c-1.4,0.5-3,0.7-4.6,0.7c-1,0-1.9-0.1-2.8-0.3c-0.6-0.1-1.2-0.3-1.7-0.5
			c-1.3-0.5-2.5-1.1-3.6-2c0,0-0.1,0-0.1-0.1c-0.7-0.7-1.4-1.4-2-2.2c-0.3-0.3-0.5-0.6-0.7-0.9c-0.8-1.2-1.3-2.5-1.7-4H513
			C512.7,673.9,512.1,675.2,511.3,676.4z M352.7,492.5c-0.8-2.4-1.8-4.4-3.1-6.3c-0.6-0.9-1.3-1.7-2-2.5c0,0-0.1,0-0.1,0
			c-0.7-0.8-1.5-1.5-2.4-2.1c-1.6-1.3-3.5-2.3-5.3-2.9v10.6c0.8,0.5,1.7,1.1,2.4,1.8c0.1,0.2,0.3,0.4,0.4,0.6c0.6,0.6,1.1,1.2,1.5,2
			c1,1.8,1.6,3.9,1.6,6.4c0,1.5-0.3,3-0.8,4.5c-0.6,1.4-1.3,2.8-2.2,4c-1,1.2-2.1,2.3-3.5,3.1c-1.4,0.8-2.9,1.4-4.6,1.7v-35.3
			c-0.9-0.1-1.8-0.1-2.7-0.1c-2.8,0-5.4,0.4-7.6,1.2c-2.3,0.7-4.4,1.8-6.2,3.1c-1.1,0.7-2.1,1.5-2.9,2.4c-1.5,1.8-2.8,3.8-3.6,6.2
			c-0.1,0.4-0.3,0.7-0.4,1.1c-0.6,1.7-1,3.5-1.2,5.3c-0.1,0.9-0.2,1.9-0.2,2.9c0,3.3,0.6,6.3,1.8,9.1c1,2.7,2.5,4.9,4.2,6.8
			c2,1.8,4.2,3.3,6.9,4.3c2.8,1.2,5.9,1.8,9.3,1.8c3.3,0,6.3-0.6,9.2-1.8c2.6-1,4.8-2.4,6.7-4.1c1.9-2,3.3-4.3,4.4-7.1
			c1.2-2.8,1.8-5.8,1.8-9.1C353.9,497.2,353.5,494.7,352.7,492.5z M327.6,513c-1.5-0.3-2.8-0.9-4-1.7c-1.2-0.8-2.3-1.7-3.2-2.8
			c-0.9-1.2-1.5-2.4-2.1-3.8c-0.6-1.4-0.8-3-0.8-4.6c0-1,0.1-1.9,0.3-2.8c0.1-0.6,0.3-1.2,0.5-1.7c0.5-1.3,1.1-2.5,2-3.6
			c0,0,0-0.1,0.1-0.1c0.7-0.7,1.4-1.4,2.2-2c0.3-0.3,0.6-0.5,0.9-0.7c1.2-0.8,2.5-1.3,4-1.7V513z M522.1,331.8
			c0-2.8-0.4-5.3-1.2-7.6c-0.7-2.3-1.8-4.4-3.1-6.2c-0.7-1.1-1.5-2.1-2.4-2.9c-1.8-1.5-3.8-2.8-6.2-3.6c-0.4-0.1-0.7-0.3-1.1-0.4
			c-1.7-0.6-3.5-1-5.3-1.2c-0.9-0.1-1.9-0.2-2.8-0.2c-3.3,0-6.4,0.6-9.2,1.8c-2.7,1-4.9,2.5-6.8,4.2c-1.8,2-3.3,4.2-4.3,6.9
			c-1.2,2.8-1.8,5.9-1.8,9.2c0,3.4,0.6,6.4,1.8,9.2c1,2.6,2.4,4.8,4.1,6.7c2,1.9,4.2,3.3,7,4.4c2.8,1.2,5.8,1.8,9.2,1.8
			c2.8,0,5.3-0.4,7.6-1.2c2.4-0.8,4.4-1.8,6.3-3.1c0.9-0.6,1.7-1.3,2.5-2c0,0,0-0.1,0-0.1c0.8-0.8,1.5-1.5,2.1-2.4
			c1.3-1.6,2.3-3.5,2.9-5.3h-10.6c-0.5,0.8-1.1,1.7-1.8,2.4c-0.2,0.1-0.4,0.3-0.6,0.4c-0.6,0.6-1.2,1.1-2,1.5
			c-1.8,1-3.9,1.6-6.4,1.6c-1.5,0-3-0.3-4.5-0.8c-1.4-0.5-2.8-1.2-4-2.2c-1.2-1-2.3-2.1-3.1-3.5c-0.8-1.4-1.4-2.9-1.7-4.6h35.3
			C522,333.7,522.1,332.8,522.1,331.8z M487,327.6c0.3-1.5,0.9-2.8,1.7-4c0.8-1.2,1.7-2.3,2.8-3.2c1.2-0.9,2.4-1.5,3.8-2.1
			c1.4-0.5,3-0.7,4.6-0.7c1,0,1.9,0.1,2.8,0.3c0.6,0.1,1.2,0.3,1.7,0.5c1.3,0.5,2.5,1.1,3.6,2c0,0,0.1,0,0.1,0.1
			c0.7,0.7,1.4,1.4,2,2.2c0.3,0.3,0.5,0.6,0.7,0.9c0.8,1.2,1.3,2.5,1.7,4H487z M352.7,492.5c-0.8-2.4-1.8-4.4-3.1-6.3
			c-0.6-0.9-1.3-1.7-2-2.5c0,0-0.1,0-0.1,0c-0.7-0.8-1.5-1.5-2.4-2.1c-1.6-1.3-3.5-2.3-5.3-2.9v10.6c0.8,0.5,1.7,1.1,2.4,1.8
			c0.1,0.2,0.3,0.4,0.4,0.6c0.6,0.6,1.1,1.2,1.5,2c1,1.8,1.6,3.9,1.6,6.4c0,1.5-0.3,3-0.8,4.5c-0.6,1.4-1.3,2.8-2.2,4
			c-1,1.2-2.1,2.3-3.5,3.1c-1.4,0.8-2.9,1.4-4.6,1.7v-35.3c-0.9-0.1-1.8-0.1-2.7-0.1c-2.8,0-5.4,0.4-7.6,1.2
			c-2.3,0.7-4.4,1.8-6.2,3.1c-1.1,0.7-2.1,1.5-2.9,2.4c-1.5,1.8-2.8,3.8-3.6,6.2c-0.1,0.4-0.3,0.7-0.4,1.1c-0.6,1.7-1,3.5-1.2,5.3
			c-0.1,0.9-0.2,1.9-0.2,2.9c0,3.3,0.6,6.3,1.8,9.1c1,2.7,2.5,4.9,4.2,6.8c2,1.8,4.2,3.3,6.9,4.3c2.8,1.2,5.9,1.8,9.3,1.8
			c3.3,0,6.3-0.6,9.2-1.8c2.6-1,4.8-2.4,6.7-4.1c1.9-2,3.3-4.3,4.4-7.1c1.2-2.8,1.8-5.8,1.8-9.1
			C353.9,497.2,353.5,494.7,352.7,492.5z M327.6,513c-1.5-0.3-2.8-0.9-4-1.7c-1.2-0.8-2.3-1.7-3.2-2.8c-0.9-1.2-1.5-2.4-2.1-3.8
			c-0.6-1.4-0.8-3-0.8-4.6c0-1,0.1-1.9,0.3-2.8c0.1-0.6,0.3-1.2,0.5-1.7c0.5-1.3,1.1-2.5,2-3.6c0,0,0-0.1,0.1-0.1
			c0.7-0.7,1.4-1.4,2.2-2c0.3-0.3,0.6-0.5,0.9-0.7c1.2-0.8,2.5-1.3,4-1.7V513z M520.3,659c-1-2.6-2.4-4.8-4.1-6.7
			c-2-1.9-4.3-3.3-7.1-4.4c-2.8-1.2-5.8-1.8-9.1-1.8c-2.8,0-5.4,0.4-7.6,1.2c-2.4,0.8-4.4,1.8-6.3,3.1c-0.9,0.6-1.7,1.3-2.4,2
			c0,0,0,0.1-0.1,0.1c-0.7,0.8-1.5,1.5-2.1,2.4c-1.3,1.6-2.3,3.5-2.9,5.3h10.6c0.5-0.8,1.1-1.7,1.8-2.4c0.2-0.1,0.4-0.3,0.6-0.4
			c0.6-0.6,1.2-1.1,2-1.5c1.8-1,4-1.6,6.4-1.6c1.5,0,3,0.3,4.5,0.8c1.4,0.5,2.8,1.2,4,2.2c1.2,1,2.3,2.1,3.1,3.5
			c0.8,1.4,1.4,2.9,1.7,4.6h-35.2c-0.1,0.9-0.1,1.8-0.1,2.8c0,2.8,0.4,5.3,1.2,7.6c0.7,2.3,1.8,4.4,3.1,6.2c0.7,1.1,1.6,2.1,2.4,2.9
			c1.8,1.5,3.8,2.8,6.2,3.6c0.4,0.1,0.7,0.3,1.1,0.4c1.7,0.6,3.5,1,5.3,1.2c0.9,0.1,1.9,0.2,2.9,0.2c3.3,0,6.3-0.6,9.1-1.8
			c2.7-1,4.9-2.5,6.8-4.2c1.8-2,3.3-4.2,4.3-6.9c1.2-2.8,1.8-5.9,1.8-9.2C522.1,664.8,521.5,661.8,520.3,659z M511.3,676.4
			c-0.8,1.2-1.8,2.3-2.9,3.2c-1.2,0.9-2.4,1.5-3.8,2.1c-1.4,0.5-3,0.7-4.6,0.7c-1,0-1.9-0.1-2.8-0.3c-0.6-0.1-1.2-0.3-1.7-0.5
			c-1.3-0.5-2.5-1.1-3.6-2c0,0-0.1,0-0.1-0.1c-0.7-0.7-1.4-1.4-2-2.2c-0.3-0.3-0.5-0.6-0.7-0.9c-0.8-1.2-1.3-2.5-1.7-4H513
			C512.7,673.9,512.1,675.2,511.3,676.4z M522.1,331.8c0-2.8-0.4-5.3-1.2-7.6c-0.7-2.3-1.8-4.4-3.1-6.2c-0.7-1.1-1.5-2.1-2.4-2.9
			c-1.8-1.5-3.8-2.8-6.2-3.6c-0.4-0.1-0.7-0.3-1.1-0.4c-1.7-0.6-3.5-1-5.3-1.2c-0.9-0.1-1.9-0.2-2.8-0.2c-3.3,0-6.4,0.6-9.2,1.8
			c-2.7,1-4.9,2.5-6.8,4.2c-1.8,2-3.3,4.2-4.3,6.9c-1.2,2.8-1.8,5.9-1.8,9.2c0,3.4,0.6,6.4,1.8,9.2c1,2.6,2.4,4.8,4.1,6.7
			c2,1.9,4.2,3.3,7,4.4c2.8,1.2,5.8,1.8,9.2,1.8c2.8,0,5.3-0.4,7.6-1.2c2.4-0.8,4.4-1.8,6.3-3.1c0.9-0.6,1.7-1.3,2.5-2
			c0,0,0-0.1,0-0.1c0.8-0.8,1.5-1.5,2.1-2.4c1.3-1.6,2.3-3.5,2.9-5.3h-10.6c-0.5,0.8-1.1,1.7-1.8,2.4c-0.2,0.1-0.4,0.3-0.6,0.4
			c-0.6,0.6-1.2,1.1-2,1.5c-1.8,1-3.9,1.6-6.4,1.6c-1.5,0-3-0.3-4.5-0.8c-1.4-0.5-2.8-1.2-4-2.2c-1.2-1-2.3-2.1-3.1-3.5
			c-0.8-1.4-1.4-2.9-1.7-4.6h35.3C522,333.7,522.1,332.8,522.1,331.8z M487,327.6c0.3-1.5,0.9-2.8,1.7-4c0.8-1.2,1.7-2.3,2.8-3.2
			c1.2-0.9,2.4-1.5,3.8-2.1c1.4-0.5,3-0.7,4.6-0.7c1,0,1.9,0.1,2.8,0.3c0.6,0.1,1.2,0.3,1.7,0.5c1.3,0.5,2.5,1.1,3.6,2
			c0,0,0.1,0,0.1,0.1c0.7,0.7,1.4,1.4,2,2.2c0.3,0.3,0.5,0.6,0.7,0.9c0.8,1.2,1.3,2.5,1.7,4H487z M520.3,659c-1-2.6-2.4-4.8-4.1-6.7
			c-2-1.9-4.3-3.3-7.1-4.4c-2.8-1.2-5.8-1.8-9.1-1.8c-2.8,0-5.4,0.4-7.6,1.2c-2.4,0.8-4.4,1.8-6.3,3.1c-0.9,0.6-1.7,1.3-2.4,2
			c0,0,0,0.1-0.1,0.1c-0.7,0.8-1.5,1.5-2.1,2.4c-1.3,1.6-2.3,3.5-2.9,5.3h10.6c0.5-0.8,1.1-1.7,1.8-2.4c0.2-0.1,0.4-0.3,0.6-0.4
			c0.6-0.6,1.2-1.1,2-1.5c1.8-1,4-1.6,6.4-1.6c1.5,0,3,0.3,4.5,0.8c1.4,0.5,2.8,1.2,4,2.2c1.2,1,2.3,2.1,3.1,3.5
			c0.8,1.4,1.4,2.9,1.7,4.6h-35.2c-0.1,0.9-0.1,1.8-0.1,2.8c0,2.8,0.4,5.3,1.2,7.6c0.7,2.3,1.8,4.4,3.1,6.2c0.7,1.1,1.6,2.1,2.4,2.9
			c1.8,1.5,3.8,2.8,6.2,3.6c0.4,0.1,0.7,0.3,1.1,0.4c1.7,0.6,3.5,1,5.3,1.2c0.9,0.1,1.9,0.2,2.9,0.2c3.3,0,6.3-0.6,9.1-1.8
			c2.7-1,4.9-2.5,6.8-4.2c1.8-2,3.3-4.2,4.3-6.9c1.2-2.8,1.8-5.9,1.8-9.2C522.1,664.8,521.5,661.8,520.3,659z M511.3,676.4
			c-0.8,1.2-1.8,2.3-2.9,3.2c-1.2,0.9-2.4,1.5-3.8,2.1c-1.4,0.5-3,0.7-4.6,0.7c-1,0-1.9-0.1-2.8-0.3c-0.6-0.1-1.2-0.3-1.7-0.5
			c-1.3-0.5-2.5-1.1-3.6-2c0,0-0.1,0-0.1-0.1c-0.7-0.7-1.4-1.4-2-2.2c-0.3-0.3-0.5-0.6-0.7-0.9c-0.8-1.2-1.3-2.5-1.7-4H513
			C512.7,673.9,512.1,675.2,511.3,676.4z M352.7,492.5c-0.8-2.4-1.8-4.4-3.1-6.3c-0.6-0.9-1.3-1.7-2-2.5c0,0-0.1,0-0.1,0
			c-0.7-0.8-1.5-1.5-2.4-2.1c-1.6-1.3-3.5-2.3-5.3-2.9v10.6c0.8,0.5,1.7,1.1,2.4,1.8c0.1,0.2,0.3,0.4,0.4,0.6c0.6,0.6,1.1,1.2,1.5,2
			c1,1.8,1.6,3.9,1.6,6.4c0,1.5-0.3,3-0.8,4.5c-0.6,1.4-1.3,2.8-2.2,4c-1,1.2-2.1,2.3-3.5,3.1c-1.4,0.8-2.9,1.4-4.6,1.7v-35.3
			c-0.9-0.1-1.8-0.1-2.7-0.1c-2.8,0-5.4,0.4-7.6,1.2c-2.3,0.7-4.4,1.8-6.2,3.1c-1.1,0.7-2.1,1.5-2.9,2.4c-1.5,1.8-2.8,3.8-3.6,6.2
			c-0.1,0.4-0.3,0.7-0.4,1.1c-0.6,1.7-1,3.5-1.2,5.3c-0.1,0.9-0.2,1.9-0.2,2.9c0,3.3,0.6,6.3,1.8,9.1c1,2.7,2.5,4.9,4.2,6.8
			c2,1.8,4.2,3.3,6.9,4.3c2.8,1.2,5.9,1.8,9.3,1.8c3.3,0,6.3-0.6,9.2-1.8c2.6-1,4.8-2.4,6.7-4.1c1.9-2,3.3-4.3,4.4-7.1
			c1.2-2.8,1.8-5.8,1.8-9.1C353.9,497.2,353.5,494.7,352.7,492.5z M327.6,513c-1.5-0.3-2.8-0.9-4-1.7c-1.2-0.8-2.3-1.7-3.2-2.8
			c-0.9-1.2-1.5-2.4-2.1-3.8c-0.6-1.4-0.8-3-0.8-4.6c0-1,0.1-1.9,0.3-2.8c0.1-0.6,0.3-1.2,0.5-1.7c0.5-1.3,1.1-2.5,2-3.6
			c0,0,0-0.1,0.1-0.1c0.7-0.7,1.4-1.4,2.2-2c0.3-0.3,0.6-0.5,0.9-0.7c1.2-0.8,2.5-1.3,4-1.7V513z M522.1,331.8
			c0-2.8-0.4-5.3-1.2-7.6c-0.7-2.3-1.8-4.4-3.1-6.2c-0.7-1.1-1.5-2.1-2.4-2.9c-1.8-1.5-3.8-2.8-6.2-3.6c-0.4-0.1-0.7-0.3-1.1-0.4
			c-1.7-0.6-3.5-1-5.3-1.2c-0.9-0.1-1.9-0.2-2.8-0.2c-3.3,0-6.4,0.6-9.2,1.8c-2.7,1-4.9,2.5-6.8,4.2c-1.8,2-3.3,4.2-4.3,6.9
			c-1.2,2.8-1.8,5.9-1.8,9.2c0,3.4,0.6,6.4,1.8,9.2c1,2.6,2.4,4.8,4.1,6.7c2,1.9,4.2,3.3,7,4.4c2.8,1.2,5.8,1.8,9.2,1.8
			c2.8,0,5.3-0.4,7.6-1.2c2.4-0.8,4.4-1.8,6.3-3.1c0.9-0.6,1.7-1.3,2.5-2c0,0,0-0.1,0-0.1c0.8-0.8,1.5-1.5,2.1-2.4
			c1.3-1.6,2.3-3.5,2.9-5.3h-10.6c-0.5,0.8-1.1,1.7-1.8,2.4c-0.2,0.1-0.4,0.3-0.6,0.4c-0.6,0.6-1.2,1.1-2,1.5
			c-1.8,1-3.9,1.6-6.4,1.6c-1.5,0-3-0.3-4.5-0.8c-1.4-0.5-2.8-1.2-4-2.2c-1.2-1-2.3-2.1-3.1-3.5c-0.8-1.4-1.4-2.9-1.7-4.6h35.3
			C522,333.7,522.1,332.8,522.1,331.8z M487,327.6c0.3-1.5,0.9-2.8,1.7-4c0.8-1.2,1.7-2.3,2.8-3.2c1.2-0.9,2.4-1.5,3.8-2.1
			c1.4-0.5,3-0.7,4.6-0.7c1,0,1.9,0.1,2.8,0.3c0.6,0.1,1.2,0.3,1.7,0.5c1.3,0.5,2.5,1.1,3.6,2c0,0,0.1,0,0.1,0.1
			c0.7,0.7,1.4,1.4,2,2.2c0.3,0.3,0.5,0.6,0.7,0.9c0.8,1.2,1.3,2.5,1.7,4H487z M715.1,163H284.9C217.6,163,163,217.6,163,284.9
			v430.2c0,67.3,54.6,121.9,121.9,121.9h430.2c67.3,0,121.9-54.6,121.9-121.9V284.9C837,217.6,782.4,163,715.1,163z M500,258.9
			c42.2,0,76.3,34.2,76.3,76.4c0,19.8-7.5,37.9-19.9,51.5c-0.1,0.1-0.2,0.1-0.2,0.2c-2.7,2.3-5.6,4.9-8.4,7.8
			c-10.5,10.3-22.2,24.2-32.2,42.2c-7.3,13.1-12.2,25.4-15.5,36.1c-3.3-10.7-8.1-23-15.5-36.1c-10.1-18.1-21.9-32.1-32.4-42.4
			c-2.9-2.8-5.6-5.3-8.2-7.6c-0.1-0.1-0.2-0.1-0.2-0.2c-12.5-13.6-20-31.7-20-51.5C423.7,293.2,457.8,258.9,500,258.9z M387.1,556.1
			c-0.1,0.1-0.2,0.2-0.3,0.2c-13.6,12.5-31.7,20-51.5,20c-42.2,0-76.4-34.2-76.4-76.3c0-42.2,34.2-76.3,76.4-76.3
			c19.8,0,37.9,7.6,51.5,19.9c0.1,0.1,0.1,0.2,0.3,0.2c2.2,2.7,4.9,5.6,7.8,8.4c10.3,10.5,24.2,22.2,42.2,32.2
			c13.1,7.3,25.4,12.2,36.1,15.5c-10.7,3.3-23,8.1-36.1,15.5c-18.1,10-32.1,21.8-42.4,32.3C391.9,550.8,389.3,553.5,387.1,556.1z
			 M500,741.1c-42.2,0-76.3-34.2-76.3-76.4c0-19.8,7.6-37.9,19.9-51.5c0.1-0.1,0.2-0.1,0.3-0.2c2.7-2.3,5.5-4.9,8.4-7.8
			c10.5-10.3,22.2-24.2,32.3-42.2c7.3-13.1,12.2-25.4,15.5-36.1c3.3,10.7,8.1,23,15.5,36.1c10,18.1,21.8,32.1,32.3,42.4
			c2.9,2.8,5.6,5.3,8.2,7.6c0.1,0.1,0.2,0.1,0.2,0.2c12.5,13.6,20,31.7,20,51.5C576.3,706.8,542.2,741.1,500,741.1z M664.7,576.3
			c-19.8,0-37.9-7.6-51.5-19.9c-0.1-0.1-0.1-0.2-0.2-0.2c-2.3-2.7-4.9-5.6-7.8-8.4c-10.3-10.5-24.2-22.2-42.2-32.2
			c-13.1-7.3-25.4-12.2-36.1-15.5c10.6-3.3,23-8.1,36.1-15.5c18.1-10,32.1-21.8,42.4-32.3c2.8-2.9,5.3-5.6,7.6-8.2
			c0.1-0.1,0.1-0.2,0.2-0.2c13.6-12.5,31.7-20,51.5-20c42.2,0,76.4,34.2,76.4,76.3C741.1,542.2,706.8,576.3,664.7,576.3z
			 M483.8,347.7c2,1.9,4.2,3.3,7,4.4c2.8,1.2,5.8,1.8,9.2,1.8c2.8,0,5.3-0.4,7.6-1.2c2.4-0.8,4.4-1.8,6.3-3.1c0.9-0.6,1.7-1.3,2.5-2
			c0,0,0-0.1,0-0.1c0.8-0.8,1.5-1.5,2.1-2.4c1.3-1.6,2.3-3.5,2.9-5.3h-10.6c-0.5,0.8-1.1,1.7-1.8,2.4c-0.2,0.1-0.4,0.3-0.6,0.4
			c-0.6,0.6-1.2,1.1-2,1.5c-1.8,1-3.9,1.6-6.4,1.6c-1.5,0-3-0.3-4.5-0.8c-1.4-0.5-2.8-1.2-4-2.2c-1.2-1-2.3-2.1-3.1-3.5
			c-0.8-1.4-1.4-2.9-1.7-4.6h35.3c0.1-0.9,0.1-1.8,0.1-2.8c0-2.8-0.4-5.3-1.2-7.6c-0.7-2.3-1.8-4.4-3.1-6.2
			c-0.7-1.1-1.5-2.1-2.4-2.9c-1.8-1.5-3.8-2.8-6.2-3.6c-0.4-0.1-0.7-0.3-1.1-0.4c-1.7-0.6-3.5-1-5.3-1.2c-0.9-0.1-1.9-0.2-2.8-0.2
			c-3.3,0-6.4,0.6-9.2,1.8c-2.7,1-4.9,2.5-6.8,4.2c-1.8,2-3.3,4.2-4.3,6.9c-1.2,2.8-1.8,5.9-1.8,9.2c0,3.4,0.6,6.4,1.8,9.2
			C480.7,343.6,482.1,345.8,483.8,347.7z M488.7,323.6c0.8-1.2,1.7-2.3,2.8-3.2c1.2-0.9,2.4-1.5,3.8-2.1c1.4-0.5,3-0.7,4.6-0.7
			c1,0,1.9,0.1,2.8,0.3c0.6,0.1,1.2,0.3,1.7,0.5c1.3,0.5,2.5,1.1,3.6,2c0,0,0.1,0,0.1,0.1c0.7,0.7,1.4,1.4,2,2.2
			c0.3,0.3,0.5,0.6,0.7,0.9c0.8,1.2,1.3,2.5,1.7,4H487C487.3,326.1,487.9,324.8,488.7,323.6z M516.2,652.3c-2-1.9-4.3-3.3-7.1-4.4
			c-2.8-1.2-5.8-1.8-9.1-1.8c-2.8,0-5.4,0.4-7.6,1.2c-2.4,0.8-4.4,1.8-6.3,3.1c-0.9,0.6-1.7,1.3-2.4,2c0,0,0,0.1-0.1,0.1
			c-0.7,0.8-1.5,1.5-2.1,2.4c-1.3,1.6-2.3,3.5-2.9,5.3h10.6c0.5-0.8,1.1-1.7,1.8-2.4c0.2-0.1,0.4-0.3,0.6-0.4c0.6-0.6,1.2-1.1,2-1.5
			c1.8-1,4-1.6,6.4-1.6c1.5,0,3,0.3,4.5,0.8c1.4,0.5,2.8,1.2,4,2.2c1.2,1,2.3,2.1,3.1,3.5c0.8,1.4,1.4,2.9,1.7,4.6h-35.2
			c-0.1,0.9-0.1,1.8-0.1,2.8c0,2.8,0.4,5.3,1.2,7.6c0.7,2.3,1.8,4.4,3.1,6.2c0.7,1.1,1.6,2.1,2.4,2.9c1.8,1.5,3.8,2.8,6.2,3.6
			c0.4,0.1,0.7,0.3,1.1,0.4c1.7,0.6,3.5,1,5.3,1.2c0.9,0.1,1.9,0.2,2.9,0.2c3.3,0,6.3-0.6,9.1-1.8c2.7-1,4.9-2.5,6.8-4.2
			c1.8-2,3.3-4.2,4.3-6.9c1.2-2.8,1.8-5.9,1.8-9.2c0-3.4-0.6-6.4-1.8-9.2C519.3,656.4,517.9,654.2,516.2,652.3z M511.3,676.4
			c-0.8,1.2-1.8,2.3-2.9,3.2c-1.2,0.9-2.4,1.5-3.8,2.1c-1.4,0.5-3,0.7-4.6,0.7c-1,0-1.9-0.1-2.8-0.3c-0.6-0.1-1.2-0.3-1.7-0.5
			c-1.3-0.5-2.5-1.1-3.6-2c0,0-0.1,0-0.1-0.1c-0.7-0.7-1.4-1.4-2-2.2c-0.3-0.3-0.5-0.6-0.7-0.9c-0.8-1.2-1.3-2.5-1.7-4H513
			C512.7,673.9,512.1,675.2,511.3,676.4z M349.6,486.2c-0.6-0.9-1.3-1.7-2-2.5c0,0-0.1,0-0.1,0c-0.7-0.8-1.5-1.5-2.4-2.1
			c-1.6-1.3-3.5-2.3-5.3-2.9v10.6c0.8,0.5,1.7,1.1,2.4,1.8c0.1,0.2,0.3,0.4,0.4,0.6c0.6,0.6,1.1,1.2,1.5,2c1,1.8,1.6,3.9,1.6,6.4
			c0,1.5-0.3,3-0.8,4.5c-0.6,1.4-1.3,2.8-2.2,4c-1,1.2-2.1,2.3-3.5,3.1c-1.4,0.8-2.9,1.4-4.6,1.7v-35.3c-0.9-0.1-1.8-0.1-2.7-0.1
			c-2.8,0-5.4,0.4-7.6,1.2c-2.3,0.7-4.4,1.8-6.2,3.1c-1.1,0.7-2.1,1.5-2.9,2.4c-1.5,1.8-2.8,3.8-3.6,6.2c-0.1,0.4-0.3,0.7-0.4,1.1
			c-0.6,1.7-1,3.5-1.2,5.3c-0.1,0.9-0.2,1.9-0.2,2.9c0,3.3,0.6,6.3,1.8,9.1c1,2.7,2.5,4.9,4.2,6.8c2,1.8,4.2,3.3,6.9,4.3
			c2.8,1.2,5.9,1.8,9.3,1.8c3.3,0,6.3-0.6,9.2-1.8c2.6-1,4.8-2.4,6.7-4.1c1.9-2,3.3-4.3,4.4-7.1c1.2-2.8,1.8-5.8,1.8-9.1
			c0-2.8-0.4-5.4-1.2-7.6C352,490.1,350.9,488,349.6,486.2z M327.6,513c-1.5-0.3-2.8-0.9-4-1.7c-1.2-0.8-2.3-1.7-3.2-2.8
			c-0.9-1.2-1.5-2.4-2.1-3.8c-0.6-1.4-0.8-3-0.8-4.6c0-1,0.1-1.9,0.3-2.8c0.1-0.6,0.3-1.2,0.5-1.7c0.5-1.3,1.1-2.5,2-3.6
			c0,0,0-0.1,0.1-0.1c0.7-0.7,1.4-1.4,2.2-2c0.3-0.3,0.6-0.5,0.9-0.7c1.2-0.8,2.5-1.3,4-1.7V513z M522.1,331.8
			c0-2.8-0.4-5.3-1.2-7.6c-0.7-2.3-1.8-4.4-3.1-6.2c-0.7-1.1-1.5-2.1-2.4-2.9c-1.8-1.5-3.8-2.8-6.2-3.6c-0.4-0.1-0.7-0.3-1.1-0.4
			c-1.7-0.6-3.5-1-5.3-1.2c-0.9-0.1-1.9-0.2-2.8-0.2c-3.3,0-6.4,0.6-9.2,1.8c-2.7,1-4.9,2.5-6.8,4.2c-1.8,2-3.3,4.2-4.3,6.9
			c-1.2,2.8-1.8,5.9-1.8,9.2c0,3.4,0.6,6.4,1.8,9.2c1,2.6,2.4,4.8,4.1,6.7c2,1.9,4.2,3.3,7,4.4c2.8,1.2,5.8,1.8,9.2,1.8
			c2.8,0,5.3-0.4,7.6-1.2c2.4-0.8,4.4-1.8,6.3-3.1c0.9-0.6,1.7-1.3,2.5-2c0,0,0-0.1,0-0.1c0.8-0.8,1.5-1.5,2.1-2.4
			c1.3-1.6,2.3-3.5,2.9-5.3h-10.6c-0.5,0.8-1.1,1.7-1.8,2.4c-0.2,0.1-0.4,0.3-0.6,0.4c-0.6,0.6-1.2,1.1-2,1.5
			c-1.8,1-3.9,1.6-6.4,1.6c-1.5,0-3-0.3-4.5-0.8c-1.4-0.5-2.8-1.2-4-2.2c-1.2-1-2.3-2.1-3.1-3.5c-0.8-1.4-1.4-2.9-1.7-4.6h35.3
			C522,333.7,522.1,332.8,522.1,331.8z M487,327.6c0.3-1.5,0.9-2.8,1.7-4c0.8-1.2,1.7-2.3,2.8-3.2c1.2-0.9,2.4-1.5,3.8-2.1
			c1.4-0.5,3-0.7,4.6-0.7c1,0,1.9,0.1,2.8,0.3c0.6,0.1,1.2,0.3,1.7,0.5c1.3,0.5,2.5,1.1,3.6,2c0,0,0.1,0,0.1,0.1
			c0.7,0.7,1.4,1.4,2,2.2c0.3,0.3,0.5,0.6,0.7,0.9c0.8,1.2,1.3,2.5,1.7,4H487z M352.7,492.5c-0.8-2.4-1.8-4.4-3.1-6.3
			c-0.6-0.9-1.3-1.7-2-2.5c0,0-0.1,0-0.1,0c-0.7-0.8-1.5-1.5-2.4-2.1c-1.6-1.3-3.5-2.3-5.3-2.9v10.6c0.8,0.5,1.7,1.1,2.4,1.8
			c0.1,0.2,0.3,0.4,0.4,0.6c0.6,0.6,1.1,1.2,1.5,2c1,1.8,1.6,3.9,1.6,6.4c0,1.5-0.3,3-0.8,4.5c-0.6,1.4-1.3,2.8-2.2,4
			c-1,1.2-2.1,2.3-3.5,3.1c-1.4,0.8-2.9,1.4-4.6,1.7v-35.3c-0.9-0.1-1.8-0.1-2.7-0.1c-2.8,0-5.4,0.4-7.6,1.2
			c-2.3,0.7-4.4,1.8-6.2,3.1c-1.1,0.7-2.1,1.5-2.9,2.4c-1.5,1.8-2.8,3.8-3.6,6.2c-0.1,0.4-0.3,0.7-0.4,1.1c-0.6,1.7-1,3.5-1.2,5.3
			c-0.1,0.9-0.2,1.9-0.2,2.9c0,3.3,0.6,6.3,1.8,9.1c1,2.7,2.5,4.9,4.2,6.8c2,1.8,4.2,3.3,6.9,4.3c2.8,1.2,5.9,1.8,9.3,1.8
			c3.3,0,6.3-0.6,9.2-1.8c2.6-1,4.8-2.4,6.7-4.1c1.9-2,3.3-4.3,4.4-7.1c1.2-2.8,1.8-5.8,1.8-9.1
			C353.9,497.2,353.5,494.7,352.7,492.5z M327.6,513c-1.5-0.3-2.8-0.9-4-1.7c-1.2-0.8-2.3-1.7-3.2-2.8c-0.9-1.2-1.5-2.4-2.1-3.8
			c-0.6-1.4-0.8-3-0.8-4.6c0-1,0.1-1.9,0.3-2.8c0.1-0.6,0.3-1.2,0.5-1.7c0.5-1.3,1.1-2.5,2-3.6c0,0,0-0.1,0.1-0.1
			c0.7-0.7,1.4-1.4,2.2-2c0.3-0.3,0.6-0.5,0.9-0.7c1.2-0.8,2.5-1.3,4-1.7V513z M520.3,659c-1-2.6-2.4-4.8-4.1-6.7
			c-2-1.9-4.3-3.3-7.1-4.4c-2.8-1.2-5.8-1.8-9.1-1.8c-2.8,0-5.4,0.4-7.6,1.2c-2.4,0.8-4.4,1.8-6.3,3.1c-0.9,0.6-1.7,1.3-2.4,2
			c0,0,0,0.1-0.1,0.1c-0.7,0.8-1.5,1.5-2.1,2.4c-1.3,1.6-2.3,3.5-2.9,5.3h10.6c0.5-0.8,1.1-1.7,1.8-2.4c0.2-0.1,0.4-0.3,0.6-0.4
			c0.6-0.6,1.2-1.1,2-1.5c1.8-1,4-1.6,6.4-1.6c1.5,0,3,0.3,4.5,0.8c1.4,0.5,2.8,1.2,4,2.2c1.2,1,2.3,2.1,3.1,3.5
			c0.8,1.4,1.4,2.9,1.7,4.6h-35.2c-0.1,0.9-0.1,1.8-0.1,2.8c0,2.8,0.4,5.3,1.2,7.6c0.7,2.3,1.8,4.4,3.1,6.2c0.7,1.1,1.6,2.1,2.4,2.9
			c1.8,1.5,3.8,2.8,6.2,3.6c0.4,0.1,0.7,0.3,1.1,0.4c1.7,0.6,3.5,1,5.3,1.2c0.9,0.1,1.9,0.2,2.9,0.2c3.3,0,6.3-0.6,9.1-1.8
			c2.7-1,4.9-2.5,6.8-4.2c1.8-2,3.3-4.2,4.3-6.9c1.2-2.8,1.8-5.9,1.8-9.2C522.1,664.8,521.5,661.8,520.3,659z M511.3,676.4
			c-0.8,1.2-1.8,2.3-2.9,3.2c-1.2,0.9-2.4,1.5-3.8,2.1c-1.4,0.5-3,0.7-4.6,0.7c-1,0-1.9-0.1-2.8-0.3c-0.6-0.1-1.2-0.3-1.7-0.5
			c-1.3-0.5-2.5-1.1-3.6-2c0,0-0.1,0-0.1-0.1c-0.7-0.7-1.4-1.4-2-2.2c-0.3-0.3-0.5-0.6-0.7-0.9c-0.8-1.2-1.3-2.5-1.7-4H513
			C512.7,673.9,512.1,675.2,511.3,676.4z M522.1,331.8c0-2.8-0.4-5.3-1.2-7.6c-0.7-2.3-1.8-4.4-3.1-6.2c-0.7-1.1-1.5-2.1-2.4-2.9
			c-1.8-1.5-3.8-2.8-6.2-3.6c-0.4-0.1-0.7-0.3-1.1-0.4c-1.7-0.6-3.5-1-5.3-1.2c-0.9-0.1-1.9-0.2-2.8-0.2c-3.3,0-6.4,0.6-9.2,1.8
			c-2.7,1-4.9,2.5-6.8,4.2c-1.8,2-3.3,4.2-4.3,6.9c-1.2,2.8-1.8,5.9-1.8,9.2c0,3.4,0.6,6.4,1.8,9.2c1,2.6,2.4,4.8,4.1,6.7
			c2,1.9,4.2,3.3,7,4.4c2.8,1.2,5.8,1.8,9.2,1.8c2.8,0,5.3-0.4,7.6-1.2c2.4-0.8,4.4-1.8,6.3-3.1c0.9-0.6,1.7-1.3,2.5-2
			c0,0,0-0.1,0-0.1c0.8-0.8,1.5-1.5,2.1-2.4c1.3-1.6,2.3-3.5,2.9-5.3h-10.6c-0.5,0.8-1.1,1.7-1.8,2.4c-0.2,0.1-0.4,0.3-0.6,0.4
			c-0.6,0.6-1.2,1.1-2,1.5c-1.8,1-3.9,1.6-6.4,1.6c-1.5,0-3-0.3-4.5-0.8c-1.4-0.5-2.8-1.2-4-2.2c-1.2-1-2.3-2.1-3.1-3.5
			c-0.8-1.4-1.4-2.9-1.7-4.6h35.3C522,333.7,522.1,332.8,522.1,331.8z M487,327.6c0.3-1.5,0.9-2.8,1.7-4c0.8-1.2,1.7-2.3,2.8-3.2
			c1.2-0.9,2.4-1.5,3.8-2.1c1.4-0.5,3-0.7,4.6-0.7c1,0,1.9,0.1,2.8,0.3c0.6,0.1,1.2,0.3,1.7,0.5c1.3,0.5,2.5,1.1,3.6,2
			c0,0,0.1,0,0.1,0.1c0.7,0.7,1.4,1.4,2,2.2c0.3,0.3,0.5,0.6,0.7,0.9c0.8,1.2,1.3,2.5,1.7,4H487z M520.3,659c-1-2.6-2.4-4.8-4.1-6.7
			c-2-1.9-4.3-3.3-7.1-4.4c-2.8-1.2-5.8-1.8-9.1-1.8c-2.8,0-5.4,0.4-7.6,1.2c-2.4,0.8-4.4,1.8-6.3,3.1c-0.9,0.6-1.7,1.3-2.4,2
			c0,0,0,0.1-0.1,0.1c-0.7,0.8-1.5,1.5-2.1,2.4c-1.3,1.6-2.3,3.5-2.9,5.3h10.6c0.5-0.8,1.1-1.7,1.8-2.4c0.2-0.1,0.4-0.3,0.6-0.4
			c0.6-0.6,1.2-1.1,2-1.5c1.8-1,4-1.6,6.4-1.6c1.5,0,3,0.3,4.5,0.8c1.4,0.5,2.8,1.2,4,2.2c1.2,1,2.3,2.1,3.1,3.5
			c0.8,1.4,1.4,2.9,1.7,4.6h-35.2c-0.1,0.9-0.1,1.8-0.1,2.8c0,2.8,0.4,5.3,1.2,7.6c0.7,2.3,1.8,4.4,3.1,6.2c0.7,1.1,1.6,2.1,2.4,2.9
			c1.8,1.5,3.8,2.8,6.2,3.6c0.4,0.1,0.7,0.3,1.1,0.4c1.7,0.6,3.5,1,5.3,1.2c0.9,0.1,1.9,0.2,2.9,0.2c3.3,0,6.3-0.6,9.1-1.8
			c2.7-1,4.9-2.5,6.8-4.2c1.8-2,3.3-4.2,4.3-6.9c1.2-2.8,1.8-5.9,1.8-9.2C522.1,664.8,521.5,661.8,520.3,659z M511.3,676.4
			c-0.8,1.2-1.8,2.3-2.9,3.2c-1.2,0.9-2.4,1.5-3.8,2.1c-1.4,0.5-3,0.7-4.6,0.7c-1,0-1.9-0.1-2.8-0.3c-0.6-0.1-1.2-0.3-1.7-0.5
			c-1.3-0.5-2.5-1.1-3.6-2c0,0-0.1,0-0.1-0.1c-0.7-0.7-1.4-1.4-2-2.2c-0.3-0.3-0.5-0.6-0.7-0.9c-0.8-1.2-1.3-2.5-1.7-4H513
			C512.7,673.9,512.1,675.2,511.3,676.4z M352.7,492.5c-0.8-2.4-1.8-4.4-3.1-6.3c-0.6-0.9-1.3-1.7-2-2.5c0,0-0.1,0-0.1,0
			c-0.7-0.8-1.5-1.5-2.4-2.1c-1.6-1.3-3.5-2.3-5.3-2.9v10.6c0.8,0.5,1.7,1.1,2.4,1.8c0.1,0.2,0.3,0.4,0.4,0.6c0.6,0.6,1.1,1.2,1.5,2
			c1,1.8,1.6,3.9,1.6,6.4c0,1.5-0.3,3-0.8,4.5c-0.6,1.4-1.3,2.8-2.2,4c-1,1.2-2.1,2.3-3.5,3.1c-1.4,0.8-2.9,1.4-4.6,1.7v-35.3
			c-0.9-0.1-1.8-0.1-2.7-0.1c-2.8,0-5.4,0.4-7.6,1.2c-2.3,0.7-4.4,1.8-6.2,3.1c-1.1,0.7-2.1,1.5-2.9,2.4c-1.5,1.8-2.8,3.8-3.6,6.2
			c-0.1,0.4-0.3,0.7-0.4,1.1c-0.6,1.7-1,3.5-1.2,5.3c-0.1,0.9-0.2,1.9-0.2,2.9c0,3.3,0.6,6.3,1.8,9.1c1,2.7,2.5,4.9,4.2,6.8
			c2,1.8,4.2,3.3,6.9,4.3c2.8,1.2,5.9,1.8,9.3,1.8c3.3,0,6.3-0.6,9.2-1.8c2.6-1,4.8-2.4,6.7-4.1c1.9-2,3.3-4.3,4.4-7.1
			c1.2-2.8,1.8-5.8,1.8-9.1C353.9,497.2,353.5,494.7,352.7,492.5z M327.6,513c-1.5-0.3-2.8-0.9-4-1.7c-1.2-0.8-2.3-1.7-3.2-2.8
			c-0.9-1.2-1.5-2.4-2.1-3.8c-0.6-1.4-0.8-3-0.8-4.6c0-1,0.1-1.9,0.3-2.8c0.1-0.6,0.3-1.2,0.5-1.7c0.5-1.3,1.1-2.5,2-3.6
			c0,0,0-0.1,0.1-0.1c0.7-0.7,1.4-1.4,2.2-2c0.3-0.3,0.6-0.5,0.9-0.7c1.2-0.8,2.5-1.3,4-1.7V513z M522.1,331.8
			c0-2.8-0.4-5.3-1.2-7.6c-0.7-2.3-1.8-4.4-3.1-6.2c-0.7-1.1-1.5-2.1-2.4-2.9c-1.8-1.5-3.8-2.8-6.2-3.6c-0.4-0.1-0.7-0.3-1.1-0.4
			c-1.7-0.6-3.5-1-5.3-1.2c-0.9-0.1-1.9-0.2-2.8-0.2c-3.3,0-6.4,0.6-9.2,1.8c-2.7,1-4.9,2.5-6.8,4.2c-1.8,2-3.3,4.2-4.3,6.9
			c-1.2,2.8-1.8,5.9-1.8,9.2c0,3.4,0.6,6.4,1.8,9.2c1,2.6,2.4,4.8,4.1,6.7c2,1.9,4.2,3.3,7,4.4c2.8,1.2,5.8,1.8,9.2,1.8
			c2.8,0,5.3-0.4,7.6-1.2c2.4-0.8,4.4-1.8,6.3-3.1c0.9-0.6,1.7-1.3,2.5-2c0,0,0-0.1,0-0.1c0.8-0.8,1.5-1.5,2.1-2.4
			c1.3-1.6,2.3-3.5,2.9-5.3h-10.6c-0.5,0.8-1.1,1.7-1.8,2.4c-0.2,0.1-0.4,0.3-0.6,0.4c-0.6,0.6-1.2,1.1-2,1.5
			c-1.8,1-3.9,1.6-6.4,1.6c-1.5,0-3-0.3-4.5-0.8c-1.4-0.5-2.8-1.2-4-2.2c-1.2-1-2.3-2.1-3.1-3.5c-0.8-1.4-1.4-2.9-1.7-4.6h35.3
			C522,333.7,522.1,332.8,522.1,331.8z M487,327.6c0.3-1.5,0.9-2.8,1.7-4c0.8-1.2,1.7-2.3,2.8-3.2c1.2-0.9,2.4-1.5,3.8-2.1
			c1.4-0.5,3-0.7,4.6-0.7c1,0,1.9,0.1,2.8,0.3c0.6,0.1,1.2,0.3,1.7,0.5c1.3,0.5,2.5,1.1,3.6,2c0,0,0.1,0,0.1,0.1
			c0.7,0.7,1.4,1.4,2,2.2c0.3,0.3,0.5,0.6,0.7,0.9c0.8,1.2,1.3,2.5,1.7,4H487z M352.7,492.5c-0.8-2.4-1.8-4.4-3.1-6.3
			c-0.6-0.9-1.3-1.7-2-2.5c0,0-0.1,0-0.1,0c-0.7-0.8-1.5-1.5-2.4-2.1c-1.6-1.3-3.5-2.3-5.3-2.9v10.6c0.8,0.5,1.7,1.1,2.4,1.8
			c0.1,0.2,0.3,0.4,0.4,0.6c0.6,0.6,1.1,1.2,1.5,2c1,1.8,1.6,3.9,1.6,6.4c0,1.5-0.3,3-0.8,4.5c-0.6,1.4-1.3,2.8-2.2,4
			c-1,1.2-2.1,2.3-3.5,3.1c-1.4,0.8-2.9,1.4-4.6,1.7v-35.3c-0.9-0.1-1.8-0.1-2.7-0.1c-2.8,0-5.4,0.4-7.6,1.2
			c-2.3,0.7-4.4,1.8-6.2,3.1c-1.1,0.7-2.1,1.5-2.9,2.4c-1.5,1.8-2.8,3.8-3.6,6.2c-0.1,0.4-0.3,0.7-0.4,1.1c-0.6,1.7-1,3.5-1.2,5.3
			c-0.1,0.9-0.2,1.9-0.2,2.9c0,3.3,0.6,6.3,1.8,9.1c1,2.7,2.5,4.9,4.2,6.8c2,1.8,4.2,3.3,6.9,4.3c2.8,1.2,5.9,1.8,9.3,1.8
			c3.3,0,6.3-0.6,9.2-1.8c2.6-1,4.8-2.4,6.7-4.1c1.9-2,3.3-4.3,4.4-7.1c1.2-2.8,1.8-5.8,1.8-9.1
			C353.9,497.2,353.5,494.7,352.7,492.5z M327.6,513c-1.5-0.3-2.8-0.9-4-1.7c-1.2-0.8-2.3-1.7-3.2-2.8c-0.9-1.2-1.5-2.4-2.1-3.8
			c-0.6-1.4-0.8-3-0.8-4.6c0-1,0.1-1.9,0.3-2.8c0.1-0.6,0.3-1.2,0.5-1.7c0.5-1.3,1.1-2.5,2-3.6c0,0,0-0.1,0.1-0.1
			c0.7-0.7,1.4-1.4,2.2-2c0.3-0.3,0.6-0.5,0.9-0.7c1.2-0.8,2.5-1.3,4-1.7V513z M520.3,659c-1-2.6-2.4-4.8-4.1-6.7
			c-2-1.9-4.3-3.3-7.1-4.4c-2.8-1.2-5.8-1.8-9.1-1.8c-2.8,0-5.4,0.4-7.6,1.2c-2.4,0.8-4.4,1.8-6.3,3.1c-0.9,0.6-1.7,1.3-2.4,2
			c0,0,0,0.1-0.1,0.1c-0.7,0.8-1.5,1.5-2.1,2.4c-1.3,1.6-2.3,3.5-2.9,5.3h10.6c0.5-0.8,1.1-1.7,1.8-2.4c0.2-0.1,0.4-0.3,0.6-0.4
			c0.6-0.6,1.2-1.1,2-1.5c1.8-1,4-1.6,6.4-1.6c1.5,0,3,0.3,4.5,0.8c1.4,0.5,2.8,1.2,4,2.2c1.2,1,2.3,2.1,3.1,3.5
			c0.8,1.4,1.4,2.9,1.7,4.6h-35.2c-0.1,0.9-0.1,1.8-0.1,2.8c0,2.8,0.4,5.3,1.2,7.6c0.7,2.3,1.8,4.4,3.1,6.2c0.7,1.1,1.6,2.1,2.4,2.9
			c1.8,1.5,3.8,2.8,6.2,3.6c0.4,0.1,0.7,0.3,1.1,0.4c1.7,0.6,3.5,1,5.3,1.2c0.9,0.1,1.9,0.2,2.9,0.2c3.3,0,6.3-0.6,9.1-1.8
			c2.7-1,4.9-2.5,6.8-4.2c1.8-2,3.3-4.2,4.3-6.9c1.2-2.8,1.8-5.9,1.8-9.2C522.1,664.8,521.5,661.8,520.3,659z M511.3,676.4
			c-0.8,1.2-1.8,2.3-2.9,3.2c-1.2,0.9-2.4,1.5-3.8,2.1c-1.4,0.5-3,0.7-4.6,0.7c-1,0-1.9-0.1-2.8-0.3c-0.6-0.1-1.2-0.3-1.7-0.5
			c-1.3-0.5-2.5-1.1-3.6-2c0,0-0.1,0-0.1-0.1c-0.7-0.7-1.4-1.4-2-2.2c-0.3-0.3-0.5-0.6-0.7-0.9c-0.8-1.2-1.3-2.5-1.7-4H513
			C512.7,673.9,512.1,675.2,511.3,676.4z M522.1,331.8c0-2.8-0.4-5.3-1.2-7.6c-0.7-2.3-1.8-4.4-3.1-6.2c-0.7-1.1-1.5-2.1-2.4-2.9
			c-1.8-1.5-3.8-2.8-6.2-3.6c-0.4-0.1-0.7-0.3-1.1-0.4c-1.7-0.6-3.5-1-5.3-1.2c-0.9-0.1-1.9-0.2-2.8-0.2c-3.3,0-6.4,0.6-9.2,1.8
			c-2.7,1-4.9,2.5-6.8,4.2c-1.8,2-3.3,4.2-4.3,6.9c-1.2,2.8-1.8,5.9-1.8,9.2c0,3.4,0.6,6.4,1.8,9.2c1,2.6,2.4,4.8,4.1,6.7
			c2,1.9,4.2,3.3,7,4.4c2.8,1.2,5.8,1.8,9.2,1.8c2.8,0,5.3-0.4,7.6-1.2c2.4-0.8,4.4-1.8,6.3-3.1c0.9-0.6,1.7-1.3,2.5-2
			c0,0,0-0.1,0-0.1c0.8-0.8,1.5-1.5,2.1-2.4c1.3-1.6,2.3-3.5,2.9-5.3h-10.6c-0.5,0.8-1.1,1.7-1.8,2.4c-0.2,0.1-0.4,0.3-0.6,0.4
			c-0.6,0.6-1.2,1.1-2,1.5c-1.8,1-3.9,1.6-6.4,1.6c-1.5,0-3-0.3-4.5-0.8c-1.4-0.5-2.8-1.2-4-2.2c-1.2-1-2.3-2.1-3.1-3.5
			c-0.8-1.4-1.4-2.9-1.7-4.6h35.3C522,333.7,522.1,332.8,522.1,331.8z M487,327.6c0.3-1.5,0.9-2.8,1.7-4c0.8-1.2,1.7-2.3,2.8-3.2
			c1.2-0.9,2.4-1.5,3.8-2.1c1.4-0.5,3-0.7,4.6-0.7c1,0,1.9,0.1,2.8,0.3c0.6,0.1,1.2,0.3,1.7,0.5c1.3,0.5,2.5,1.1,3.6,2
			c0,0,0.1,0,0.1,0.1c0.7,0.7,1.4,1.4,2,2.2c0.3,0.3,0.5,0.6,0.7,0.9c0.8,1.2,1.3,2.5,1.7,4H487z M520.3,659c-1-2.6-2.4-4.8-4.1-6.7
			c-2-1.9-4.3-3.3-7.1-4.4c-2.8-1.2-5.8-1.8-9.1-1.8c-2.8,0-5.4,0.4-7.6,1.2c-2.4,0.8-4.4,1.8-6.3,3.1c-0.9,0.6-1.7,1.3-2.4,2
			c0,0,0,0.1-0.1,0.1c-0.7,0.8-1.5,1.5-2.1,2.4c-1.3,1.6-2.3,3.5-2.9,5.3h10.6c0.5-0.8,1.1-1.7,1.8-2.4c0.2-0.1,0.4-0.3,0.6-0.4
			c0.6-0.6,1.2-1.1,2-1.5c1.8-1,4-1.6,6.4-1.6c1.5,0,3,0.3,4.5,0.8c1.4,0.5,2.8,1.2,4,2.2c1.2,1,2.3,2.1,3.1,3.5
			c0.8,1.4,1.4,2.9,1.7,4.6h-35.2c-0.1,0.9-0.1,1.8-0.1,2.8c0,2.8,0.4,5.3,1.2,7.6c0.7,2.3,1.8,4.4,3.1,6.2c0.7,1.1,1.6,2.1,2.4,2.9
			c1.8,1.5,3.8,2.8,6.2,3.6c0.4,0.1,0.7,0.3,1.1,0.4c1.7,0.6,3.5,1,5.3,1.2c0.9,0.1,1.9,0.2,2.9,0.2c3.3,0,6.3-0.6,9.1-1.8
			c2.7-1,4.9-2.5,6.8-4.2c1.8-2,3.3-4.2,4.3-6.9c1.2-2.8,1.8-5.9,1.8-9.2C522.1,664.8,521.5,661.8,520.3,659z M511.3,676.4
			c-0.8,1.2-1.8,2.3-2.9,3.2c-1.2,0.9-2.4,1.5-3.8,2.1c-1.4,0.5-3,0.7-4.6,0.7c-1,0-1.9-0.1-2.8-0.3c-0.6-0.1-1.2-0.3-1.7-0.5
			c-1.3-0.5-2.5-1.1-3.6-2c0,0-0.1,0-0.1-0.1c-0.7-0.7-1.4-1.4-2-2.2c-0.3-0.3-0.5-0.6-0.7-0.9c-0.8-1.2-1.3-2.5-1.7-4H513
			C512.7,673.9,512.1,675.2,511.3,676.4z M352.7,492.5c-0.8-2.4-1.8-4.4-3.1-6.3c-0.6-0.9-1.3-1.7-2-2.5c0,0-0.1,0-0.1,0
			c-0.7-0.8-1.5-1.5-2.4-2.1c-1.6-1.3-3.5-2.3-5.3-2.9v10.6c0.8,0.5,1.7,1.1,2.4,1.8c0.1,0.2,0.3,0.4,0.4,0.6c0.6,0.6,1.1,1.2,1.5,2
			c1,1.8,1.6,3.9,1.6,6.4c0,1.5-0.3,3-0.8,4.5c-0.6,1.4-1.3,2.8-2.2,4c-1,1.2-2.1,2.3-3.5,3.1c-1.4,0.8-2.9,1.4-4.6,1.7v-35.3
			c-0.9-0.1-1.8-0.1-2.7-0.1c-2.8,0-5.4,0.4-7.6,1.2c-2.3,0.7-4.4,1.8-6.2,3.1c-1.1,0.7-2.1,1.5-2.9,2.4c-1.5,1.8-2.8,3.8-3.6,6.2
			c-0.1,0.4-0.3,0.7-0.4,1.1c-0.6,1.7-1,3.5-1.2,5.3c-0.1,0.9-0.2,1.9-0.2,2.9c0,3.3,0.6,6.3,1.8,9.1c1,2.7,2.5,4.9,4.2,6.8
			c2,1.8,4.2,3.3,6.9,4.3c2.8,1.2,5.9,1.8,9.3,1.8c3.3,0,6.3-0.6,9.2-1.8c2.6-1,4.8-2.4,6.7-4.1c1.9-2,3.3-4.3,4.4-7.1
			c1.2-2.8,1.8-5.8,1.8-9.1C353.9,497.2,353.5,494.7,352.7,492.5z M327.6,513c-1.5-0.3-2.8-0.9-4-1.7c-1.2-0.8-2.3-1.7-3.2-2.8
			c-0.9-1.2-1.5-2.4-2.1-3.8c-0.6-1.4-0.8-3-0.8-4.6c0-1,0.1-1.9,0.3-2.8c0.1-0.6,0.3-1.2,0.5-1.7c0.5-1.3,1.1-2.5,2-3.6
			c0,0,0-0.1,0.1-0.1c0.7-0.7,1.4-1.4,2.2-2c0.3-0.3,0.6-0.5,0.9-0.7c1.2-0.8,2.5-1.3,4-1.7V513z M520.3,659c-1-2.6-2.4-4.8-4.1-6.7
			c-2-1.9-4.3-3.3-7.1-4.4c-2.8-1.2-5.8-1.8-9.1-1.8c-2.8,0-5.4,0.4-7.6,1.2c-2.4,0.8-4.4,1.8-6.3,3.1c-0.9,0.6-1.7,1.3-2.4,2
			c0,0,0,0.1-0.1,0.1c-0.7,0.8-1.5,1.5-2.1,2.4c-1.3,1.6-2.3,3.5-2.9,5.3h10.6c0.5-0.8,1.1-1.7,1.8-2.4c0.2-0.1,0.4-0.3,0.6-0.4
			c0.6-0.6,1.2-1.1,2-1.5c1.8-1,4-1.6,6.4-1.6c1.5,0,3,0.3,4.5,0.8c1.4,0.5,2.8,1.2,4,2.2c1.2,1,2.3,2.1,3.1,3.5
			c0.8,1.4,1.4,2.9,1.7,4.6h-35.2c-0.1,0.9-0.1,1.8-0.1,2.8c0,2.8,0.4,5.3,1.2,7.6c0.7,2.3,1.8,4.4,3.1,6.2c0.7,1.1,1.6,2.1,2.4,2.9
			c1.8,1.5,3.8,2.8,6.2,3.6c0.4,0.1,0.7,0.3,1.1,0.4c1.7,0.6,3.5,1,5.3,1.2c0.9,0.1,1.9,0.2,2.9,0.2c3.3,0,6.3-0.6,9.1-1.8
			c2.7-1,4.9-2.5,6.8-4.2c1.8-2,3.3-4.2,4.3-6.9c1.2-2.8,1.8-5.9,1.8-9.2C522.1,664.8,521.5,661.8,520.3,659z M511.3,676.4
			c-0.8,1.2-1.8,2.3-2.9,3.2c-1.2,0.9-2.4,1.5-3.8,2.1c-1.4,0.5-3,0.7-4.6,0.7c-1,0-1.9-0.1-2.8-0.3c-0.6-0.1-1.2-0.3-1.7-0.5
			c-1.3-0.5-2.5-1.1-3.6-2c0,0-0.1,0-0.1-0.1c-0.7-0.7-1.4-1.4-2-2.2c-0.3-0.3-0.5-0.6-0.7-0.9c-0.8-1.2-1.3-2.5-1.7-4H513
			C512.7,673.9,512.1,675.2,511.3,676.4z M520.3,659c-1-2.6-2.4-4.8-4.1-6.7c-2-1.9-4.3-3.3-7.1-4.4c-2.8-1.2-5.8-1.8-9.1-1.8
			c-2.8,0-5.4,0.4-7.6,1.2c-2.4,0.8-4.4,1.8-6.3,3.1c-0.9,0.6-1.7,1.3-2.4,2c0,0,0,0.1-0.1,0.1c-0.7,0.8-1.5,1.5-2.1,2.4
			c-1.3,1.6-2.3,3.5-2.9,5.3h10.6c0.5-0.8,1.1-1.7,1.8-2.4c0.2-0.1,0.4-0.3,0.6-0.4c0.6-0.6,1.2-1.1,2-1.5c1.8-1,4-1.6,6.4-1.6
			c1.5,0,3,0.3,4.5,0.8c1.4,0.5,2.8,1.2,4,2.2c1.2,1,2.3,2.1,3.1,3.5c0.8,1.4,1.4,2.9,1.7,4.6h-35.2c-0.1,0.9-0.1,1.8-0.1,2.8
			c0,2.8,0.4,5.3,1.2,7.6c0.7,2.3,1.8,4.4,3.1,6.2c0.7,1.1,1.6,2.1,2.4,2.9c1.8,1.5,3.8,2.8,6.2,3.6c0.4,0.1,0.7,0.3,1.1,0.4
			c1.7,0.6,3.5,1,5.3,1.2c0.9,0.1,1.9,0.2,2.9,0.2c3.3,0,6.3-0.6,9.1-1.8c2.7-1,4.9-2.5,6.8-4.2c1.8-2,3.3-4.2,4.3-6.9
			c1.2-2.8,1.8-5.9,1.8-9.2C522.1,664.8,521.5,661.8,520.3,659z M511.3,676.4c-0.8,1.2-1.8,2.3-2.9,3.2c-1.2,0.9-2.4,1.5-3.8,2.1
			c-1.4,0.5-3,0.7-4.6,0.7c-1,0-1.9-0.1-2.8-0.3c-0.6-0.1-1.2-0.3-1.7-0.5c-1.3-0.5-2.5-1.1-3.6-2c0,0-0.1,0-0.1-0.1
			c-0.7-0.7-1.4-1.4-2-2.2c-0.3-0.3-0.5-0.6-0.7-0.9c-0.8-1.2-1.3-2.5-1.7-4H513C512.7,673.9,512.1,675.2,511.3,676.4z"/>
	</g>
</g>
</svg>
