<svg width="124" height="124" viewBox="0 0 124 124" fill="none" xmlns="http://www.w3.org/2000/svg">
<circle cx="62" cy="62" r="62" fill="#FFF3E2"/>
<path d="M95.1566 58.0374C94.7326 57.0767 93.9929 56.7474 92.95 56.8772C91.5475 57.0521 90.1382 57.1724 88.7358 57.3555C88.1965 57.4265 87.9371 57.2735 87.7258 56.7556C86.9546 54.8657 86.1244 53.0003 85.3394 51.1801C84.0371 51.9563 82.7582 52.7175 81.4628 53.4882C82.1763 55.1841 82.8927 56.8895 83.6062 58.5894H39.9421C40.0382 58.3325 40.0862 58.185 40.1479 58.0428C41.7384 54.3792 43.3385 50.7196 44.9138 47.0505C45.3447 46.0475 46.0857 45.5856 47.152 45.5842C48.6587 45.5828 50.1655 45.5842 51.6736 45.5842C55.0974 45.5856 58.5212 45.5842 61.934 45.5842C61.5896 44.1808 61.274 42.8416 60.9158 41.5147C60.8801 41.3835 60.5837 41.2427 60.4081 41.2414C55.7726 41.2291 51.1343 41.1416 46.5029 41.2714C43.9217 41.3439 41.9799 42.6899 40.9041 45.1059C40.5445 45.9135 40.2138 46.7348 39.8707 47.5506C38.5767 50.624 37.2854 53.6986 35.9845 56.7692C35.8706 57.0371 35.8473 57.3896 35.3615 57.3295C33.8918 57.1491 32.4097 57.0507 30.9428 56.8403C30.1661 56.7296 29.5801 56.9523 29.1561 57.5509C28.8995 57.9116 28.6923 58.3366 28.5825 58.763C27.7989 61.8035 29.1039 63.6128 32.2506 63.8916C32.5401 63.9175 32.8283 63.9818 33.1809 64.0378C33.0218 64.3589 32.8873 64.6186 32.7638 64.8823C32.6389 65.1501 32.5195 65.4207 32.4042 65.6913C30.8961 69.2251 30.1743 72.871 31.257 76.6426C32.208 79.951 33.9535 82.7374 37.1797 84.3663C37.3444 84.4496 37.4844 84.7448 37.4899 84.9443C37.5214 86.0129 37.4967 87.0816 37.5091 88.1488C37.5283 89.8761 38.589 90.9352 40.3318 90.9693C41.1085 90.9844 41.888 90.9283 42.6606 90.9816C45.2349 91.1606 46.5496 89.9909 46.3684 87.2906C46.3108 86.4407 46.3588 85.5838 46.3588 84.7229H77.4901C77.4901 85.92 77.4612 87.0733 77.4969 88.224C77.5463 89.8269 78.6537 90.8764 80.2661 90.8914C81.3393 90.901 82.4124 90.8969 83.4855 90.8914C85.3243 90.8832 86.418 89.7982 86.429 87.9684C86.4359 86.7877 86.4304 85.6084 86.4304 84.3813C87.6393 84.0793 88.4545 83.2621 89.2545 82.4094C91.9428 79.5438 93.3809 76.1972 93.2986 72.2383C93.2423 69.5599 92.526 67.0483 91.4487 64.6199C91.3595 64.4204 91.2841 64.2154 91.1661 63.9257C91.564 63.8998 91.8755 63.8861 92.1843 63.8601C93.9367 63.7126 95.2678 62.6808 95.5532 61.1694C95.7563 60.0981 95.5957 59.0308 95.1566 58.0374ZM42.7813 73.8399C40.6708 73.8112 38.998 72.0921 39.009 69.9672C39.0213 67.8094 40.7188 66.1696 42.9172 66.1901C44.992 66.2106 46.6937 67.9242 46.6909 69.9945C46.6895 72.0853 44.874 73.87 42.7813 73.8399ZM80.3869 73.8426C78.2599 73.8549 76.5432 72.1249 76.5487 69.9754C76.5542 67.8449 78.227 66.1887 80.3691 66.1901C82.529 66.1928 84.2087 67.8668 84.2293 70.0382C84.2498 72.1071 82.5084 73.8303 80.3869 73.8426Z" fill="#F59E2C"/>
<path d="M82.4559 34.0029C82.3624 34.0255 82.181 34.0595 82.0081 34.1161C81.0955 34.4134 80.1857 34.7134 79.2759 35.0135C74.5597 36.5676 69.8435 38.1132 65.1358 39.6872C64.79 39.8032 64.4272 40.0778 64.226 40.3807C63.7186 41.1507 64.1013 42.1103 65.0167 42.4783C67.4004 43.4352 69.784 44.3863 72.1733 45.3233C72.4538 45.4337 72.5927 45.5922 72.7004 45.864C73.6244 48.2136 74.5625 50.5547 75.4978 52.8986C75.7841 53.6148 76.3084 54.0111 76.949 53.9998C77.6207 53.9884 78.1224 53.5723 78.3746 52.8165C79.395 49.7252 80.4153 46.634 81.4356 43.5399C82.2604 41.0375 83.0908 38.535 83.9099 36.0297C84.2529 34.9767 83.584 33.9916 82.4559 34.0001V34.0029Z" fill="#F59E2C"/>
<path d="M75.5 35C71.3661 35 68 38.3645 68 42.4963C68 46.6281 71.3588 50 75.5 50C79.6412 50 83 46.6355 83 42.5037C83 38.3719 79.6339 35 75.5 35ZM75.5 36.5937C77.1757 36.5937 78.689 37.2946 79.7667 38.4161L70.4729 45.6099C69.9119 44.7024 69.5871 43.6399 69.5871 42.4963C69.5871 39.2425 72.2372 36.5937 75.5 36.5937ZM75.5 48.4137C73.9203 48.4137 72.4808 47.7865 71.4178 46.7683L80.6526 39.6114C81.1324 40.4673 81.4129 41.4486 81.4129 42.5037C81.4129 45.7575 78.7554 48.4137 75.5 48.4137Z" fill="#CE5F21"/>
</svg>
