<svg width="269" height="218" viewBox="0 0 269 218" fill="none" xmlns="http://www.w3.org/2000/svg">
<path d="M199.41 143.609C200.062 142.307 200.659 141.059 201.364 139.702C197.836 140.136 194.417 140.57 191.052 141.004C187.47 141.493 183.888 141.981 180.306 142.47C176.072 143.012 171.785 143.555 167.551 144.206C166.737 144.315 165.652 143.989 165.055 145.021C165.055 145.075 164.946 145.021 164.838 145.075C164.892 144.912 164.946 144.749 165.055 144.478C136.018 148.277 107.09 152.13 77.999 155.93C80.7127 159.24 83.4806 162.117 86.6286 164.668C88.691 166.35 90.9705 167.87 93.1414 169.444C94.3898 170.312 95.6381 171.235 96.8864 172.103C97.1035 172.212 97.3206 172.375 97.5377 172.375C97.8633 172.375 98.1889 172.212 98.5146 172.158C98.5146 172.212 98.5689 172.32 98.5689 172.375C98.4603 172.538 98.2975 172.646 98.1347 172.863C102.802 175.631 107.687 177.639 112.789 179.268C117.836 180.896 122.992 181.873 128.257 182.198C132.165 182.415 136.127 182.307 140.089 182.307C140.306 182.307 140.523 182.035 140.74 181.873C140.794 181.818 140.903 181.818 141.011 181.764V182.307C141.988 182.198 142.857 181.981 143.779 181.981C144.593 181.981 145.19 181.71 145.516 180.896C145.462 181.167 145.462 181.438 145.407 181.764C146.276 181.656 147.144 181.493 148.013 181.33C148.23 181.276 148.501 180.95 148.664 180.95C150.129 181.167 150.943 180.787 151.432 179.485C151.432 179.43 151.54 179.43 151.595 179.43C151.812 180.462 151.812 180.516 152.843 180.244C154.091 179.919 155.34 179.593 156.588 179.213C157.619 178.833 158.976 178.942 159.302 177.368C159.41 177.422 159.464 177.531 159.573 177.585C159.464 177.856 159.356 178.073 159.193 178.399C176.886 171.995 190.129 160.434 199.302 144.098C199.085 143.881 198.867 143.718 198.705 143.609C198.759 143.555 198.759 143.501 198.813 143.447C198.922 143.447 199.139 143.501 199.41 143.609ZM96.1265 164.939C96.1265 164.885 96.1265 164.885 96.1265 164.831C96.3979 165.156 96.615 165.373 96.7778 165.699C96.7778 165.699 96.7778 165.753 96.8321 165.753C96.9406 165.428 96.9949 165.102 97.0492 164.885C97.0492 164.885 97.0492 164.885 97.0492 164.831C97.1035 164.885 97.1577 164.939 97.212 164.993C97.4291 165.265 97.5919 165.482 97.8633 165.808C96.5064 166.405 96.3436 166.296 96.1265 164.939ZM97.3206 158.589C97.2663 158.589 97.2663 158.589 97.212 158.589C96.7778 158.318 96.3979 157.883 96.018 157.504L96.0723 157.449C96.0723 157.449 96.0723 157.449 96.1265 157.395C96.1265 157.395 96.1808 157.341 96.2351 157.341C96.8864 157.666 97.4834 157.992 98.2975 158.372C97.8633 158.481 97.4834 158.643 97.3206 158.589ZM122.341 165.645C122.341 165.645 121.364 169.173 120.93 170.258C120.387 169.444 118.379 166.187 118.379 166.187C118.379 166.187 114.471 166.296 113.386 166.296C114.471 164.939 115.394 163.745 116.317 162.605C115.882 161.031 115.448 159.566 115.014 157.992C115.828 158.263 119.41 159.512 119.41 159.512C119.41 159.512 122.558 157.395 123.318 156.852C123.318 157.124 123.372 157.286 123.372 157.449C123.318 158.643 123.264 160.977 123.264 160.977L123.155 161.954C123.155 161.954 126.194 163.745 127.063 164.451C125.923 164.776 122.341 165.645 122.341 165.645ZM145.245 167.164C145.245 167.164 143.725 172.429 143.182 174.111C142.314 172.863 139.329 167.978 139.329 167.978C139.329 167.978 133.467 168.087 131.893 168.087C133.521 166.079 134.933 164.234 136.289 162.497C135.638 160.163 134.987 157.938 134.336 155.55C135.53 155.984 140.957 157.884 140.957 157.884C140.957 157.884 145.679 154.736 146.819 153.921C146.873 154.301 146.873 154.573 146.873 154.844C146.819 156.635 146.71 160.163 146.71 160.163L146.493 161.683C146.493 161.683 151.052 164.396 152.355 165.373C150.672 165.862 145.245 167.164 145.245 167.164ZM165.055 159.946C165.055 159.946 164.078 163.474 163.644 164.559C163.101 163.745 161.093 160.489 161.093 160.489C161.093 160.489 157.185 160.597 156.099 160.597C157.185 159.24 158.108 158.046 159.03 156.907C158.596 155.333 158.162 153.867 157.728 152.293C158.542 152.565 162.124 153.813 162.124 153.813C162.124 153.813 165.272 151.696 166.032 151.154C166.032 151.425 166.086 151.588 166.086 151.751C166.032 152.945 165.977 155.278 165.977 155.278L165.869 156.255C165.869 156.255 168.908 158.046 169.777 158.752C168.637 159.078 165.055 159.946 165.055 159.946Z" fill="#F79A15"/>
<path d="M268.664 106.812C268.23 103.175 267.741 99.5931 267.253 95.9567C266.71 91.8861 266.167 87.7613 265.624 83.6907C265.19 80.1629 264.865 76.6351 264.213 73.1073C262.422 63.2294 253.793 56.6622 244.566 56.9336C242.341 56.9879 240.17 57.3678 237.999 57.6391C235.014 58.0191 231.975 58.399 228.935 58.7789C228.989 59.1045 229.098 59.3759 229.152 59.593C228.827 58.8332 228.284 58.8874 227.633 58.996C224.539 59.4302 221.391 59.7558 218.297 60.19C215.692 60.5157 213.141 60.8956 210.536 61.2212C209.939 61.3298 209.451 61.3298 209.234 61.9811C209.234 62.0353 209.071 62.0353 208.962 62.0353C209.017 61.8725 209.017 61.7097 209.071 61.4383C208.474 61.4926 207.985 61.6012 207.497 61.6554C202.504 62.3067 197.51 63.0666 192.517 63.6093C191.323 63.7178 190.238 64.2606 188.935 64.152C187.633 64.0978 186.276 64.532 184.919 64.6948C182.097 65.0204 179.274 65.2918 176.452 65.6717C171.784 66.2687 167.171 66.92 162.504 67.517C161.418 67.6256 160.333 67.8427 159.03 68.0055C159.356 68.2769 159.519 68.3854 159.736 68.5482C159.573 68.6025 159.464 68.6568 159.41 68.6025C158.813 68.0055 158.27 68.1141 157.673 68.6568C157.456 68.8739 157.076 68.7653 156.751 68.7653C156.805 68.6025 156.859 68.494 156.968 68.2769C156.154 68.3854 155.394 68.494 154.688 68.5482C151.92 68.8196 149.206 69.4166 146.438 69.6337C144.43 69.7966 142.476 70.1222 140.523 70.3936C135.367 71.0449 130.156 71.7504 125 72.456C123.969 72.6188 122.992 72.8902 121.961 73.1073C121.581 73.1615 121.147 72.9987 120.713 73.053C119.356 73.2158 117.945 73.4329 116.588 73.5957C115.285 73.7586 114.037 74.1385 112.734 74.1385C111.594 74.1385 110.509 74.3556 109.369 74.5184C106.221 74.9526 103.073 75.3325 99.9255 75.7667C96.452 76.2552 92.9784 76.7436 89.5049 77.1778C85.8142 77.6663 82.0693 78.1548 78.3787 78.6432C75.7192 79.0232 73.0055 79.4574 70.3461 79.8373C68.1751 80.1086 65.9499 80.2715 63.7246 80.5971C62.1507 80.8142 60.5767 81.2484 59.0028 81.4655C57.863 81.6283 56.7233 81.5198 55.6378 81.6283C52.8155 81.954 50.0476 82.3339 47.2796 82.7138C46.8997 82.7681 46.574 83.0394 46.2484 83.2023V83.0394C45.977 82.9852 45.7056 82.8766 45.4342 82.9309C41.3637 83.4736 37.2389 84.0164 33.1683 84.5591C27.7409 85.2647 22.3135 85.916 16.886 86.6758C15.8006 86.8386 14.5523 86.7844 13.8467 87.9241C13.7924 87.9784 13.5753 87.9241 13.3582 87.9241C13.521 87.707 13.5753 87.5985 13.7381 87.3814C11.0244 88.3583 8.5821 89.6609 6.51968 91.5605C1.47219 96.2823 -0.644506 102.144 0.169607 108.982C0.440978 111.153 0.658074 113.324 1.25509 115.441C1.74356 118.372 1.58073 121.411 2.77477 124.234C2.77477 124.342 2.72049 124.396 2.72049 124.505C2.66622 124.939 2.5034 125.373 2.55767 125.753C2.88331 128.196 3.15469 130.692 3.5346 133.134C3.7517 134.546 4.07735 135.848 4.40299 137.205C4.45726 137.476 4.62009 137.748 4.78291 138.073C4.62009 138.073 4.40299 138.128 4.18589 138.128C4.45726 140.082 4.72864 141.981 5.00001 143.881C5.6513 148.82 7.82226 152.999 11.6215 156.255C16.0719 160.109 21.2823 161.628 27.0896 160.923C29.5862 160.597 32.0828 160.272 34.5794 159.946C38.2158 159.457 41.9064 158.969 45.5428 158.481C47.2796 158.263 49.0163 157.992 50.7531 157.775C50.7531 157.612 50.8074 157.395 50.8074 157.341C51.1873 157.504 51.4587 157.666 51.7301 157.666C54.9865 157.395 58.1887 156.798 61.4451 156.418C65.0815 155.984 68.7721 155.495 72.4085 155.007C73.9282 154.79 75.5021 154.573 77.2389 154.356C76.7504 154.084 76.4791 153.921 76.0991 153.704C76.4791 153.379 76.8047 153.162 77.1846 152.89C77.456 153.379 77.6731 153.813 77.8902 154.301C78.5958 154.193 79.4099 154.084 80.1697 153.976C80.6582 153.867 81.3637 153.976 81.6351 153.704C82.015 153.324 82.2864 153.433 82.6663 153.542C82.8834 153.596 83.1005 153.542 83.3176 153.542C84.8373 153.324 86.4112 153.162 87.9852 152.945C91.5673 152.51 95.2037 152.022 98.7857 151.533C100.848 151.262 102.911 150.991 104.973 150.719C108.175 150.285 111.323 149.905 114.525 149.471C118.107 149.037 121.689 148.548 125.272 148.06C128.908 147.571 132.599 147.083 136.235 146.594C139.763 146.106 143.291 145.618 146.818 145.183C150.889 144.641 155.014 144.152 159.084 143.609C162.721 143.121 166.303 142.632 169.939 142.144C172.381 141.818 174.878 141.493 177.32 141.167C177.592 141.113 177.809 140.841 178.08 140.679C177.809 140.353 177.592 140.136 177.32 139.81C178.569 139.539 178.352 140.624 178.786 140.95C183.182 140.407 187.524 139.864 191.92 139.267C195.991 138.725 200.116 138.182 204.186 137.585C206.14 137.259 208.094 136.934 210.048 136.662C212.219 136.391 214.444 136.228 216.669 135.957C220.74 135.468 224.756 134.871 228.827 134.329C232.463 133.84 236.154 133.352 239.844 132.863C243.426 132.375 246.954 131.832 250.536 131.452C256.344 130.855 261.283 128.521 264.919 123.854C267.361 120.76 268.881 117.286 268.989 113.324C269.044 111.153 268.881 108.982 268.664 106.812ZM222.477 62.3067V62.6324C221.988 62.6866 221.5 62.6866 220.903 62.7409C220.903 62.7409 220.848 62.4695 220.848 62.0353C221.445 62.1439 221.988 62.2524 222.477 62.3067ZM3.10041 115.17C2.39485 114.464 2.39485 113.976 2.72049 113.487C2.82904 113.487 2.99186 113.542 3.10041 113.542V115.17ZM265.57 112.51C265.245 117.178 263.291 121.031 259.763 124.071C256.941 126.513 253.521 127.544 249.831 127.978C246.032 128.413 242.287 129.01 238.487 129.498C235.014 129.987 231.486 130.421 228.012 130.855C224.919 131.235 221.825 131.669 218.677 132.103C215.041 132.592 211.459 133.026 207.877 133.514C203.806 134.057 199.681 134.6 195.611 135.143C191.106 135.74 186.601 136.337 182.097 136.934C178.46 137.422 174.77 137.911 171.133 138.399C167.063 138.942 162.992 139.43 158.922 139.973C154.851 140.516 150.726 141.059 146.656 141.601C143.128 142.09 139.6 142.524 136.072 143.012L126.303 144.315C124.077 144.641 121.798 144.912 119.518 145.183C119.573 145.455 119.627 145.672 119.681 145.943C119.627 145.943 119.573 145.997 119.518 145.997C119.356 145.78 119.247 145.563 119.084 145.238C116.859 145.509 114.634 145.835 112.354 146.106C112.246 146.377 112.191 146.649 112.083 147.083C111.757 146.215 111.16 146.215 110.563 146.323C106.493 146.866 102.368 147.409 98.2973 147.951C95.8007 148.331 93.3583 148.657 90.8074 148.983C90.7532 149.2 90.7532 149.417 90.7532 149.471C90.319 149.362 89.8848 149.145 89.5049 149.145C88.5279 149.2 87.6053 149.417 86.6826 149.525C84.1317 149.851 81.6351 150.231 79.03 150.556C79.1385 150.828 79.1928 151.099 79.247 151.371C78.5415 150.122 77.456 150.828 76.5333 150.882C75.4479 150.936 75.285 151.262 75.7735 152.239C75.5564 151.859 75.3393 151.533 75.0137 150.991C74.5795 151.154 74.091 151.533 73.494 151.588C72.7342 151.696 71.8658 151.533 71.1059 151.642C69.6405 151.805 68.2294 152.13 66.764 152.348C65.7871 152.456 64.7559 152.456 63.7789 152.565C63.5075 152.565 63.2362 152.836 62.9105 152.999C62.7477 152.945 62.3678 152.727 61.9879 152.782C58.243 153.27 54.498 153.759 50.7531 154.247C50.4275 154.301 49.9933 154.247 50.1561 154.844C50.2104 154.898 49.8847 155.061 49.6134 155.278C49.5048 154.953 49.4505 154.736 49.3963 154.464C48.9078 154.519 48.4193 154.573 47.8766 154.627C42.5577 155.278 37.2389 155.984 31.92 156.689C29.4234 157.015 26.9268 157.504 24.4302 157.558C20.7395 157.666 17.4288 156.364 14.3894 154.247C12.4898 152.999 11.4044 151.208 10.2646 149.417C9.07057 147.517 8.41928 145.4 8.20218 143.175C8.09363 142.09 7.93081 141.004 7.76799 139.973C7.65944 139.593 7.38807 139.213 7.22525 138.779C7.27952 138.67 7.49662 138.399 7.44234 138.182C6.84533 133.352 6.19404 128.575 5.54275 123.745C5.10855 120.163 4.62009 116.527 4.18589 112.89C3.91452 110.611 3.5346 108.385 3.48033 106.106C3.37178 98.7789 8.63637 92.049 15.8006 90.475C18.8399 89.8237 22.0421 89.5523 25.1357 89.1181C27.2524 88.8468 29.3691 88.5754 31.5401 88.304C31.5401 88.1412 31.5401 87.8698 31.4858 87.707C33.9824 88.684 36.3705 87.5985 38.7585 87.3814C42.9376 87.0015 47.0625 86.3502 51.2416 85.8074C52.8698 85.5903 54.4438 85.3732 56.072 85.1561C56.0177 84.7219 55.9634 84.342 55.9092 83.6907C57.2117 85.5361 58.84 84.7219 60.2511 84.5591C64.4302 84.1249 68.6093 83.4736 72.7884 82.9309C76.859 82.3882 80.9838 81.8454 85.0544 81.3027C89.6134 80.7057 94.1724 80.1086 98.7315 79.5116C100.685 79.2945 102.585 79.0774 104.539 78.7518C104.864 78.6975 105.082 78.3719 105.516 78.0462C107.09 78.8061 108.881 78.1548 110.672 77.9377C114.417 77.5035 118.162 76.9607 121.852 76.4723C124.892 76.0381 127.985 75.5496 131.025 75.1697C134.118 74.7355 137.212 74.3556 140.305 73.9757C144.485 73.4329 148.609 72.8359 152.789 72.2932C156.425 71.859 160.007 71.4248 163.589 70.9363C167.605 70.3936 171.676 69.9051 175.746 69.3081C176.995 69.091 178.189 68.7111 179.437 68.5482C181.717 68.2769 183.996 68.1683 186.276 67.897C192.897 67.0828 199.573 66.1602 206.194 65.2918C211.73 64.5862 217.266 63.8807 222.802 63.1751C228.501 62.4695 234.145 61.6554 239.844 60.9499C242.287 60.6242 244.783 60.2443 247.171 60.5157C249.885 60.8413 252.436 62.0353 254.661 63.7721C258.569 66.8115 260.523 70.882 261.011 75.7667C261.065 76.0924 261.283 76.3637 261.337 76.6894C261.391 77.2864 261.337 77.8834 261.391 78.4804C261.825 82.0625 262.259 85.5903 262.748 89.1724C262.802 89.6066 263.128 89.9865 263.236 90.4207C263.291 90.6378 263.019 90.9092 263.074 91.1806C263.779 96.7165 264.485 102.307 265.19 107.843C265.299 108.928 265.407 110.014 265.57 111.099C265.624 111.316 265.896 111.479 266.004 111.588C265.842 111.913 265.57 112.185 265.57 112.51Z" fill="#F79A15"/>
<path d="M42.9917 56.0109C42.9374 56.2823 42.9917 56.6079 42.8832 56.825C39.8981 62.0896 37.3472 67.5171 35.3933 73.2158C34.3621 76.2009 33.4937 79.186 32.5711 82.2253C32.4082 82.8224 32.1912 83.0395 31.5399 83.0937C30.6172 83.148 29.7488 83.3108 28.7176 83.4736C28.8262 82.9852 28.8804 82.4967 28.989 82.0625C29.3146 80.8685 29.586 79.6745 29.9659 78.5347C30.1287 77.9377 30.5087 77.3949 30.7257 76.8522C30.78 76.8522 30.6172 76.8522 30.4544 76.8522C33.0595 68.3854 36.6416 60.4071 41.2007 52.8088C42.1776 51.1805 43.2088 49.6066 44.2943 48.0326C44.4571 47.8155 44.7828 47.6527 45.0541 47.4899C45.1084 47.4356 45.2169 47.3813 45.2169 47.2728C45.814 44.9933 47.605 43.4736 48.9076 41.6826C50.6444 39.3488 52.544 37.1778 54.5521 35.0068C58.7855 30.4478 63.3988 26.2144 68.392 22.4152C75.2848 17.2049 82.6118 12.7002 90.5359 9.28088C91.1872 9.00951 91.8927 8.46677 92.7068 8.68386C93.6838 7.38128 95.312 7.32701 96.6688 6.78427C98.5684 6.02443 100.522 5.53596 102.476 4.93895C104.321 4.39621 106.113 3.79919 107.958 3.25645C108.338 3.1479 108.772 3.31072 109.152 3.25645C109.423 3.20218 109.64 2.87653 109.857 2.82226C113.982 2.11669 118.107 1.41113 122.232 0.705564C122.449 0.651289 122.72 0.814112 122.883 0.814112C123.317 0.65129 123.752 0.542742 124.294 0.379919C124.294 0.759839 124.294 1.03121 124.294 1.35685C124.349 1.35685 124.457 1.35685 124.511 1.41113C124.62 1.08548 124.729 0.814112 124.891 0.271371C128.853 0.217097 132.924 0.108547 137.049 0.0542733C137.429 0.0542733 137.754 0.542741 138.297 0.868386C138.189 0.542741 138.134 0.325645 138.026 0C157.619 0.65129 175.692 6.13298 192.3 16.4993C208.474 26.5943 221.119 40.0001 230.455 56.9879C229.966 56.825 229.695 56.7165 229.478 56.6079C228.555 57.6392 226.818 57.5306 226.113 56.3366C225.841 55.8481 225.461 55.3596 225.299 54.8712C225.136 54.4913 225.19 54.0028 225.136 53.5686C224.539 53.7857 224.376 53.3515 224.105 52.9716C219.817 46.133 214.824 39.8915 209.125 34.247C203.263 28.4397 196.913 23.2836 189.803 19.1045C185.896 16.7707 181.879 14.5455 177.754 12.7002C170.97 9.60652 163.86 7.21846 156.479 5.86161C151.54 4.93895 146.601 4.17911 141.608 3.85346C136.886 3.52782 132.056 3.63637 127.334 3.96201C122.829 4.28766 118.324 5.10177 113.819 5.64451C113.44 5.69878 113.005 5.48169 112.3 5.31887C112.625 5.59024 112.734 5.69879 112.897 5.80733C110.672 6.35008 108.501 6.89282 106.33 7.48983C98.0257 9.76935 90.1559 13.0801 82.6661 17.3135C77.3472 20.3528 72.2998 23.7721 67.5779 27.7341C65.624 29.3623 63.833 31.0991 61.9334 32.7816C61.7706 32.9444 61.4449 32.8901 61.1735 32.9987C61.0107 33.053 60.8479 33.2158 60.6851 33.2701C61.065 33.8128 60.5765 34.0299 60.3052 34.3013C53.9551 40.5971 48.5277 47.6527 43.9144 55.3054C43.5887 55.5225 43.2631 55.7396 42.9917 56.0109Z" fill="#F79A15"/>
<path d="M240.55 134.708C240.333 134.871 240.17 135.034 239.899 135.251C240.496 136.174 239.736 137.097 239.627 138.128C239.356 138.128 239.193 138.128 238.976 138.073C238.976 138.182 238.922 138.291 238.922 138.345C239.464 138.725 239.302 139.159 239.139 139.702C235.394 152.402 229.532 164.071 221.554 174.654C217.212 180.407 212.327 185.672 206.954 190.502C198.596 197.992 189.261 204.071 179.003 208.521C174.824 210.367 170.482 211.778 166.194 213.297C165.814 213.46 165.326 213.243 164.837 213.189C164.837 213.189 164.946 213.406 165.109 213.786C161.689 214.546 158.379 215.36 155.068 216.065C153.711 216.337 152.354 216.554 150.997 216.771C150.563 216.825 150.129 216.608 149.695 216.554C149.478 216.5 149.261 216.554 149.044 216.554C149.206 216.717 149.315 216.825 149.586 217.097C149.044 216.988 148.555 216.934 148.175 216.88C148.121 216.934 148.012 217.205 147.904 217.205C146.004 217.422 144.159 217.694 142.259 217.748C138.623 217.856 134.987 218.074 131.35 217.911C126.574 217.639 121.798 217.259 117.022 216.554C108.718 215.306 100.74 212.972 92.9784 209.77C83.9146 206.025 75.5021 201.086 67.7409 195.061C59.1113 188.331 51.6215 180.516 45.38 171.561C45.1629 171.235 44.5659 170.909 45.1629 170.421C45.1629 170.421 45.0001 170.204 44.8915 170.095C44.186 170.638 44.1317 169.824 43.9689 169.552C42.3406 166.947 40.7667 164.342 39.1927 161.737C39.0842 161.574 39.0299 161.411 38.9756 161.194C39.0842 161.14 39.1927 161.086 39.247 161.086C40.3325 160.977 41.5265 160.434 42.3949 160.814C43.1547 161.14 43.5889 162.388 44.1317 163.311C48.4736 170.584 53.6297 177.205 59.5998 183.23C62.2592 185.943 65.0815 188.494 68.0666 190.882C69.6405 192.131 71.2145 193.325 72.8427 194.519C74.5252 195.767 76.3163 196.961 78.1073 198.101C79.8441 199.24 81.6351 200.272 83.4804 201.303C89.7762 204.831 96.3434 207.653 103.182 209.77C103.779 209.932 104.376 210.15 104.973 210.421C105.244 210.529 105.461 210.747 105.733 210.964C106.004 210.964 106.384 210.801 106.764 210.909C110.835 211.778 114.851 212.809 118.921 213.46C125.706 214.546 132.49 215.034 139.383 214.491C143.888 214.112 148.392 213.623 152.897 213.026C154.797 212.809 156.696 212.266 158.596 211.886C158.759 211.832 158.976 211.832 159.301 211.832C159.03 212.212 158.813 212.483 158.596 212.809C158.976 212.972 159.301 213.135 159.681 213.352C159.627 212.809 159.573 212.266 159.519 211.723C161.038 211.561 162.395 210.638 163.969 210.964C164.078 210.855 164.186 210.584 164.403 210.529C167.443 209.498 170.482 208.521 173.576 207.49C173.63 207.653 173.793 207.924 173.901 208.141C173.955 208.141 174.01 208.087 174.064 208.087C174.01 207.816 173.955 207.544 173.901 207.273C174.878 207.002 175.692 206.188 176.778 206.405C176.941 206.242 177.103 205.97 177.375 205.808C181.011 203.908 184.756 202.171 188.338 200.109C191.595 198.209 194.742 196.038 197.945 193.976C197.999 194.084 198.053 194.247 198.107 194.464C198.162 194.464 198.216 194.464 198.27 194.464C198.27 194.139 198.325 193.759 198.379 193.216C198.542 193.596 198.596 193.759 198.65 193.976C198.813 192.782 199.573 192.402 200.278 192.348C200.496 192.022 200.604 191.751 200.821 191.588C203.698 189.037 206.683 186.54 209.396 183.881C215.801 177.585 221.228 170.421 225.787 162.714C230.129 155.333 234.037 146.757 236.859 136.12C237.022 135.468 237.293 135.197 237.999 135.143C238.867 135.088 239.736 134.926 240.604 134.817C240.387 134.6 240.441 134.654 240.55 134.708Z" fill="#F79A15"/>
<path d="M215.421 44.0706C216.615 45.536 217.809 47.0014 218.949 48.5211C219.654 49.4438 220.089 50.5835 220.74 51.5062C222.042 53.46 223.454 55.4139 224.919 57.4763C224.213 57.5849 223.779 57.7477 223.291 57.7477C223.074 57.7477 222.802 57.6391 222.694 57.4763C222.368 56.825 222.097 56.0652 221.717 55.4139C221.445 54.9797 221.011 54.5998 220.686 54.2199C220.306 53.7314 219.98 53.2429 219.709 52.7002C219.492 52.266 219.329 51.7775 219.166 51.3433C218.949 51.1805 218.623 51.0177 218.46 50.8006C216.669 48.4125 215.041 46.0245 213.196 43.6907C211.947 42.1167 210.428 40.7056 209.071 39.1859C208.745 38.8603 208.04 38.4804 208.908 37.9919C208.908 37.9919 208.854 37.7748 208.745 37.5577C208.474 37.7748 208.311 37.9376 208.04 38.1004C203.644 33.5957 198.922 29.3623 193.603 25.7259C193.711 25.5088 193.82 25.346 193.928 25.1289C193.82 25.1289 193.711 25.1289 193.657 25.1289C192.3 25.0746 191.432 24.3148 190.726 23.2836C190.618 23.1208 190.455 22.8494 190.401 22.9037C189.369 23.2293 188.772 22.3609 188.067 21.981C187.198 21.4926 186.222 21.1126 185.842 19.9729C185.842 20.19 185.842 20.4071 185.896 20.6242C185.733 20.5156 185.57 20.4071 185.407 20.3528C178.189 16.228 170.591 13.0258 162.558 10.7463C161.147 10.3664 159.681 9.98644 158.27 9.60652C154.091 8.52103 146.547 7.327 141.717 7.16418C137.7 7.00136 133.63 6.89281 129.614 7.00136C123.264 7.21845 117.022 8.19539 110.835 9.66079C99.7085 12.3202 89.2879 16.7707 79.6271 22.958C79.2472 23.2293 78.7044 23.2836 78.3245 23.3922C78.216 23.555 78.216 23.8806 77.9989 23.9892C72.7885 27.4627 67.9581 31.479 63.3991 35.8209C61.988 37.1235 60.794 38.5889 59.4371 40C58.026 41.4654 56.8319 43.0394 55.4751 44.5591C54.9866 45.1018 54.661 46.0245 53.5212 45.3732C53.5212 45.4817 53.4669 45.6446 53.4669 45.7531C53.684 45.8617 53.9011 46.0245 54.1725 46.1873C48.0395 54.0571 43.1549 62.6866 39.5728 71.859C39.0843 71.8047 38.6501 71.6962 38.2159 71.6419C38.1616 71.7504 38.1616 71.8047 38.1074 71.9132C38.3787 72.2932 38.6501 72.6188 39.03 73.1616C38.8672 73.65 38.5958 74.4099 38.3787 75.1154C37.7274 77.1236 37.0761 79.1317 36.4791 81.1398C36.0449 82.551 35.9364 82.6595 34.1996 82.4967C35.0137 79.9458 35.665 77.3949 36.5877 74.9526C37.9988 71.262 39.4642 67.517 41.1467 63.9349C44.4032 56.9879 48.4737 50.475 53.3041 44.5048C53.9011 43.745 54.4439 42.9308 55.0952 42.2253C55.855 41.4112 56.5606 40.5428 57.2661 39.7287C58.026 38.9146 58.7315 38.1004 59.4914 37.2863C60.2512 36.5265 60.9568 35.7124 61.7166 34.9525C62.5307 34.1927 63.2906 33.4329 64.1047 32.673C64.9188 31.9132 65.7329 31.1534 66.547 30.4478C66.9812 30.1221 67.4154 29.5794 68.121 30.0136C68.1752 30.0679 68.3923 29.7422 68.718 29.4709C68.2838 29.4166 68.0667 29.4166 67.8496 29.3623C67.9039 29.2538 67.9039 29.1995 67.9581 29.1452C88.7994 11.7775 111.757 5.8616 129.831 5.10176C129.668 5.26458 129.559 5.37313 129.342 5.59023C129.668 5.59023 129.993 5.69878 130.102 5.6445C131.242 4.61329 132.599 4.99321 133.847 4.99321C136.181 4.93894 138.515 5.04749 140.848 5.15604C141.228 5.15604 141.608 5.37313 141.988 5.53596C142.259 5.48168 142.585 5.31886 142.965 5.37313C146.547 5.80732 150.075 6.29579 153.657 6.78426C154.58 6.89281 155.502 7.10991 156.479 7.327C156.371 7.48983 156.316 7.59837 156.208 7.7612C158.053 7.27273 159.627 8.14111 161.31 8.57531C163.046 9.0095 164.783 9.49797 166.466 10.0407C172.327 11.886 177.918 14.3284 183.291 17.2049C184.213 17.6934 185.027 18.3989 185.95 18.9417C188.121 20.2442 190.346 21.384 192.409 22.7409C194.96 24.4234 197.348 26.323 199.79 28.114C200.224 28.4396 200.55 28.9824 201.093 29.5794C200.55 29.6337 200.333 29.6337 200.116 29.6337C200.116 29.7422 200.116 29.7965 200.116 29.9051C200.496 29.9051 200.876 29.905 201.31 29.8508C201.418 29.8508 201.527 29.7422 201.635 29.688C202.829 30.7192 204.078 31.6961 205.109 32.7816C208.474 36.2551 211.785 39.8372 215.095 43.365C215.258 43.6907 215.312 43.9078 215.421 44.0706C214.824 43.8535 214.173 43.6364 213.576 43.365C213.521 43.4193 213.467 43.4736 213.413 43.5821C213.847 44.0163 214.281 44.3963 214.661 44.7219C214.878 44.5591 215.15 44.2877 215.421 44.0706Z" fill="#F79A15"/>
<path d="M205.217 139.267C204.295 142.144 202.666 144.695 201.201 147.3C199.627 150.122 197.782 152.836 195.828 155.441C193.82 158.046 191.703 160.543 189.369 162.877C187.09 165.211 184.647 167.381 182.151 169.39C179.654 171.343 177.049 173.189 174.335 174.817C171.567 176.5 168.691 178.019 165.76 179.322C162.775 180.679 159.681 181.71 156.642 182.85C156.588 182.741 156.588 182.687 156.533 182.578C156.968 182.09 157.402 181.656 157.836 181.167C157.782 181.113 157.782 181.113 157.727 181.059C157.076 181.33 156.425 181.601 155.774 181.873C155.991 182.198 156.154 182.415 156.371 182.795C154.58 183.23 152.897 183.664 151.215 184.098C150.672 184.206 150.183 184.369 149.641 184.424C149.261 184.478 148.881 184.315 148.392 184.261C148.175 184.424 147.795 184.803 147.361 184.858C143.182 185.238 139.003 185.835 134.878 185.889C131.35 185.943 127.768 185.563 124.24 185.183C117.51 184.424 111.106 182.633 104.864 179.973C103.399 179.376 101.934 178.779 100.577 178.019C99.0571 177.151 97.4289 176.554 95.9635 175.577C94.3895 174.546 92.7613 173.623 91.2416 172.592C89.722 171.561 88.2566 170.475 86.8454 169.335C85.38 168.196 83.9689 166.947 82.612 165.699C81.2552 164.451 79.9526 163.202 78.65 161.9C77.6731 160.923 76.8047 159.837 75.882 158.752C75.665 158.481 75.6107 158.101 75.5021 157.938C74.688 157.666 74.4166 156.961 73.9825 156.418C75.1222 156.147 75.9363 156.092 76.8047 157.178C84.5659 166.513 94.1182 173.514 105.244 178.291C109.749 180.244 114.362 181.764 119.193 182.578C123.155 183.23 127.171 183.827 131.187 184.044C134.715 184.261 138.297 183.827 141.825 183.827C142.531 183.827 143.182 183.664 143.888 183.555C144.702 183.447 145.516 183.284 146.33 183.23C146.493 183.23 146.71 183.392 146.981 183.555C147.253 182.904 147.85 182.741 148.447 183.284C148.935 183.067 149.369 182.741 149.803 182.633C161.744 180.082 172.436 175.088 181.879 167.327C189.424 161.14 195.557 153.813 200.278 145.292C201.147 143.772 201.907 142.144 202.721 140.57C203.481 139.213 203.643 139.105 205.217 139.267Z" fill="#F79A15"/>
<path d="M188.447 59.0503C183.128 53.2973 176.995 48.4126 170.102 44.6134C163.318 40.8142 156.045 38.2091 148.393 36.7979C146.656 36.4723 144.865 36.418 143.128 36.2009C141.88 36.0381 140.632 35.821 139.383 35.6582C139.112 35.6039 138.841 35.821 138.841 35.821C138.406 35.6582 138.081 35.4954 137.809 35.4954C134.281 35.6039 130.808 35.6582 127.28 35.8753C122.504 36.1467 117.891 37.2864 113.332 38.589C106.873 40.4886 100.794 43.2566 95.1498 46.8929C89.0168 50.8007 83.5894 55.5225 78.8133 61.0585C78.9761 61.3841 79.139 61.6555 79.3018 61.9811C79.2475 61.9811 79.2475 62.0354 79.1932 62.0354C78.9761 61.8726 78.759 61.6555 78.5419 61.4384C74.2 66.5402 70.6722 72.1304 67.7414 78.2634C71.0521 77.8292 74.2543 77.395 77.4022 76.9608C80.4958 76.5266 83.6437 76.1467 86.7373 75.7668C89.9395 75.3326 93.0874 74.8984 96.2896 74.5185C99.4375 74.0843 102.585 73.6501 105.733 73.2702C108.935 72.836 112.083 72.4561 115.286 72.0219C118.433 71.5877 121.581 71.0992 124.729 70.7193C127.931 70.2851 131.134 69.9594 134.281 69.5253C137.429 69.1453 140.577 68.7111 143.725 68.277C146.927 67.8428 150.13 67.5171 153.277 66.9744C156.263 66.4859 159.356 66.2688 162.341 65.8346C165.489 65.3461 168.691 64.9662 171.893 64.532C175.041 64.0978 178.189 63.7179 181.337 63.338C184.485 62.9038 187.687 62.4696 191.052 62.0354C190.075 60.8957 189.315 59.9187 188.447 59.0503ZM85.5433 72.9445C85.2719 73.1074 85.0006 73.3244 84.7292 73.3787C84.4035 73.3787 84.0779 73.1073 83.5352 72.8903C84.3493 72.7274 84.8377 72.6732 85.3262 72.5646C85.4347 72.6732 85.5433 72.7817 85.6518 72.8903C85.5976 72.8903 85.5433 72.9445 85.5433 72.9445ZM88.0399 56.6623C87.8228 56.7166 87.4429 56.7166 87.063 56.7708C87.0087 56.6623 86.9544 56.608 86.8459 56.4995C87.2801 56.1738 87.7143 55.8482 88.257 55.414C88.1485 55.9024 88.0942 56.2281 88.0399 56.6623ZM112.138 57.9106C111.432 58.8332 109.912 60.6786 109.912 60.6786L109.207 61.3841C109.207 61.3841 110.564 64.6406 110.889 65.6718C109.804 65.2376 106.385 63.8265 106.385 63.8265C106.385 63.8265 103.508 66.0517 102.531 66.7573C102.585 65.7803 102.911 61.9269 102.911 61.9269C102.911 61.9269 99.7631 59.7559 98.8947 59.1046C100.577 58.6704 102.043 58.2362 103.454 57.8563C103.997 56.3366 104.539 54.8712 105.136 53.3516C105.625 54.0571 107.741 57.205 107.741 57.205C107.741 57.205 111.541 57.3678 112.463 57.4221C112.355 57.6392 112.246 57.802 112.138 57.9106ZM134.716 62.3068C133.25 61.7641 127.877 59.5931 127.877 59.5931C127.877 59.5931 123.318 63.1752 122.124 64.0436C122.178 62.2525 122.613 56.7708 122.613 56.7708C122.613 56.7708 117.945 53.6229 116.534 52.5917C118.054 52.1575 123.318 51.1806 123.318 51.1806L123.644 49.7152C123.644 49.7152 124.784 46.3502 125.326 44.6677C125.435 44.4506 125.543 44.1792 125.706 43.8536C126.466 44.9933 129.831 49.6066 129.831 49.6066C129.831 49.6066 135.53 49.7152 136.832 49.7152C135.367 51.7233 134.01 53.6229 132.545 55.5768C133.196 57.6392 133.902 59.8645 134.716 62.3068ZM155.286 52.2661C154.526 53.1887 153.006 54.9798 153.006 54.9798L152.301 55.6853C152.301 55.6853 153.603 58.9961 153.874 60.0273C152.789 59.5931 149.37 58.0734 149.37 58.0734C149.37 58.0734 146.439 60.2444 145.462 60.8957C145.516 59.9187 145.95 56.1195 145.95 56.1195C145.95 56.1195 142.857 53.7858 141.988 53.1345C143.671 52.7003 145.136 52.3204 146.547 51.9947C147.144 50.475 147.741 49.0639 148.338 47.5442C148.773 48.2498 150.889 51.452 150.889 51.452C150.889 51.452 154.689 51.7233 155.611 51.7776C155.448 51.9947 155.394 52.1575 155.286 52.2661Z" fill="#F79A15"/>
<path d="M192.029 57.8021C191.649 57.0422 190.835 56.5538 190.292 55.9025C188.718 54.1657 187.036 52.5918 185.245 51.0178C178.895 45.4276 171.785 41.0314 163.969 37.8292C161.256 36.7437 158.488 35.7668 155.666 34.9527C152.952 34.1385 150.13 33.5958 147.307 32.9988C146.059 32.7274 144.756 32.6189 143.454 32.456C142.531 32.3475 141.608 32.2932 140.74 32.2389C140.252 32.1847 139.655 33.1073 139.166 32.1304C139.112 32.0219 138.569 32.0761 138.243 32.0761C136.018 32.1847 133.793 32.2932 131.568 32.3475C130.591 32.3475 129.614 32.2389 128.691 32.2389C124.186 32.4018 119.845 33.3787 115.503 34.3556C114.471 34.5727 113.494 34.9527 112.518 35.224C108.447 36.3095 104.594 37.8835 100.849 39.7288C100.632 39.8373 100.523 40.163 100.469 40.2173C100.035 40.2715 99.7089 40.2715 99.4918 40.3801C97.8635 41.2485 96.181 42.1169 94.6071 43.0938C93.0331 44.0164 91.5677 45.1562 89.9938 46.0789C88.4741 46.9473 87.3343 48.2498 85.9775 49.281C82.3954 51.9947 79.1932 55.1969 76.3167 58.6162C75.7197 59.3218 75.3398 60.1901 74.7427 60.8957C73.8744 61.9269 72.8974 62.8496 71.9205 63.8265C72.4632 64.0436 72.7889 64.2064 73.1688 64.3693C72.9517 64.5863 72.7889 64.6949 72.626 64.6406C71.7577 64.3693 71.3235 64.8577 70.9435 65.509C69.9666 67.1372 68.8811 68.7112 67.9042 70.3394C67.47 71.045 67.1444 71.8591 66.7644 72.6189C65.7332 74.5728 64.702 76.5809 63.6708 78.5891C65.0819 78.8062 65.8418 78.4263 66.3302 77.1779C67.1444 75.0613 68.2841 73.1074 69.4239 71.1535C69.641 70.7736 69.7495 70.5022 69.4239 70.1223C69.3696 70.068 69.4239 69.9595 69.4781 69.7967C69.6952 69.9052 69.9123 70.0138 70.0209 70.068C75.7197 60.8414 82.8839 53.1345 91.7306 46.9472C91.622 46.7844 91.5135 46.6759 91.4592 46.6216C91.9476 46.4588 92.3276 46.4588 92.6532 46.2417C95.6383 44.5592 98.5148 42.7139 101.554 41.1942C106.982 38.4262 112.789 36.5266 118.705 35.2783C122.287 34.5185 125.978 34.1928 129.668 33.8672C135.964 33.3244 142.314 33.6501 148.501 34.9527C152.68 35.821 156.697 37.2322 160.822 38.4262C161.69 38.6976 162.613 38.9147 163.481 39.2403C164.078 39.4574 164.621 39.8916 165.218 40.163C166.249 40.5972 167.334 40.9228 168.366 41.4113C169.071 41.7912 169.668 42.3882 170.374 42.7681C176.29 45.9703 181.609 49.9323 186.439 54.4914C188.61 56.4995 190.455 58.779 192.463 61.0043C193.115 61.7098 193.875 61.8184 194.797 61.3299C194.363 59.9188 192.735 59.2675 192.029 57.8021Z" fill="#F79A15"/>
<path d="M73.7652 192.999C73.8737 192.673 74.0365 192.348 74.1451 192.076C74.0908 192.022 74.0908 191.968 74.0365 191.913C73.7109 192.13 73.4395 192.348 73.0596 192.565C61.3364 183.935 51.7298 173.189 44.4571 160.489C44.5657 160.38 44.5657 160.326 44.6199 160.326C45.9225 159.837 46.5195 160.434 47.1708 161.574C49.8845 166.242 53.0867 170.584 56.506 174.763C56.5602 174.817 56.6145 174.926 56.6688 175.034C56.506 175.034 56.3974 175.034 56.4517 175.034C57.2115 175.848 58.0799 176.717 58.9483 177.585C62.4219 180.95 65.9497 184.261 69.4232 187.626C69.6403 187.843 69.7489 188.223 69.9117 188.603C70.6715 188.277 71.16 189.037 71.8113 189.525C77.6729 194.03 83.9144 197.992 90.5901 201.14C91.1329 201.411 91.6756 201.791 92.3269 202.171C92.4897 202.225 92.8697 202.225 93.1953 202.334C99.871 205.319 106.818 207.544 113.982 209.01C115.882 209.39 117.836 209.715 119.735 210.041C121.092 210.258 122.449 210.421 123.752 210.529C124.403 210.584 124.946 210.638 124.891 211.561C125 211.506 125.054 211.452 125.163 211.398C125.163 211.181 125.109 210.909 125.109 210.692C126.52 210.801 127.985 210.909 129.396 210.964C130.862 211.018 132.381 211.072 133.847 211.072C135.312 211.072 136.777 211.018 138.189 210.964C139.654 210.909 141.174 210.692 142.639 210.801C144.05 210.909 145.298 210.421 146.655 210.312C148.121 210.258 149.586 209.878 151.052 209.661C152.463 209.444 153.928 209.173 155.339 208.901C156.75 208.63 158.107 208.304 159.518 207.924C160.929 207.599 162.286 207.219 163.535 206.893C163.969 207.436 164.294 207.816 164.729 208.358C162.503 208.955 160.17 209.552 157.782 210.149C156.425 210.475 155.068 210.746 153.711 210.964C149.532 211.561 145.407 212.212 141.228 212.592C136.452 213.026 131.621 213.08 126.791 212.483C122.178 211.941 117.619 211.235 113.06 210.584C112.68 210.529 112.408 210.204 112.028 210.095C111.703 210.041 111.377 210.204 111.051 210.149C110.237 209.987 109.423 209.824 108.663 209.607C105.57 208.684 102.476 207.707 99.3826 206.73C99.0569 206.622 98.8398 206.296 98.5142 206.079C98.3513 206.079 97.9714 206.187 97.7543 206.079C94.4436 204.668 91.0786 203.311 87.8222 201.737C83.2089 199.566 78.9212 196.852 74.7964 193.922C74.4707 193.596 74.1451 193.27 73.7652 192.999Z" fill="#F79A15"/>
<path d="M223.454 159.078C223.833 159.24 224.105 159.349 224.431 159.457C224.485 159.349 224.539 159.24 224.539 159.132C224.268 158.969 223.996 158.86 223.671 158.643C224.051 157.938 224.376 157.287 224.756 156.581C227.741 150.882 230.238 144.966 232.083 138.779C232.409 137.748 232.68 136.771 233.006 135.794C233.06 135.631 233.277 135.468 233.44 135.414C233.874 135.36 234.308 135.36 234.905 135.305C234.308 137.314 233.766 139.213 233.169 141.059C232.572 142.958 231.92 144.803 231.161 146.649C230.455 148.494 229.695 150.285 228.881 152.022C228.067 153.813 227.198 155.604 226.222 157.341C225.299 159.078 224.213 160.76 223.236 162.443C222.26 164.071 221.337 165.699 220.251 167.273C219.166 168.901 218.026 170.475 216.832 172.049C215.638 173.623 214.39 175.143 213.087 176.662C211.839 178.074 210.591 179.485 209.288 180.896C207.931 182.307 206.466 183.718 205 185.075C203.535 186.432 202.07 187.734 200.496 189.037C198.976 190.285 197.456 191.479 195.882 192.619C194.308 193.759 192.68 194.844 191.052 195.93C189.369 197.015 187.687 198.046 185.95 199.023C184.43 199.892 182.911 200.76 181.337 201.574C179.6 202.443 177.809 203.311 176.018 204.071C174.227 204.885 172.382 205.699 170.482 206.296C168.691 206.839 167.008 207.707 165.326 208.087C164.837 207.599 164.403 207.219 163.915 206.73C164.295 206.622 164.62 206.513 164.946 206.35C169.017 204.776 173.141 203.202 177.212 201.629C178.08 201.303 178.84 200.489 179.871 201.194C179.763 201.031 179.6 200.814 179.6 200.814C183.562 198.426 187.687 196.147 191.486 193.542C194.96 191.154 198.216 188.386 201.527 185.835C201.69 185.726 201.961 185.726 202.178 185.726C202.287 185.726 202.395 185.672 202.504 185.672C202.178 185.075 203.155 185.129 203.046 184.532C203.046 184.369 203.318 184.152 203.535 183.989C204.566 183.067 205.814 182.307 206.683 181.276C210.102 177.259 213.576 173.243 216.778 169.064C219.057 166.079 220.903 162.822 222.911 159.675C223.291 159.403 223.399 159.186 223.454 159.078Z" fill="#F79A15"/>
<path d="M97.8632 165.862C96.4521 166.459 96.2892 166.296 96.0721 164.885C96.3435 165.211 96.5606 165.482 96.7777 165.808C96.8863 165.482 96.9405 165.156 96.9948 164.885C97.3204 165.156 97.5918 165.428 97.8632 165.862Z" fill="#F79A15"/>
<path d="M96.1806 157.286C96.8319 157.612 97.4289 157.938 98.243 158.318C97.7545 158.426 97.3746 158.698 97.1575 158.589C96.7233 158.318 96.3434 157.884 95.9635 157.504C96.072 157.449 96.1263 157.395 96.1806 157.286Z" fill="#F79A15"/>
<path d="M155.176 171.072C155.611 171.398 155.936 171.615 156.316 171.941C155.882 172.158 155.556 172.32 155.176 172.538C155.176 172.049 155.176 171.723 155.176 171.072Z" fill="#F79A15"/>
<path d="M86.8455 56.4994C87.2797 56.1738 87.7139 55.8481 88.2567 55.4139C88.1481 55.9024 88.0938 56.2281 88.0396 56.6622C87.8225 56.7165 87.4426 56.7165 87.0626 56.7708C86.9541 56.6622 86.8998 56.608 86.8455 56.4994Z" fill="#F79A15"/>
<path d="M113.657 51.9403C114.145 51.8318 114.634 51.7775 115.231 51.6689C114.796 52.863 114.199 52.4831 113.711 52.3202C113.711 52.2117 113.711 52.1031 113.657 51.9403Z" fill="#F79A15"/>
<path d="M85.6512 72.8902C85.3255 73.053 85.0542 73.3786 84.7285 73.3786C84.4029 73.3786 84.0772 73.1073 83.5345 72.8902C84.3486 72.7273 84.8371 72.6731 85.3255 72.5645C85.4341 72.6731 85.5426 72.7816 85.6512 72.8902Z" fill="#F79A15"/>
<path d="M121.635 46.6215C122.015 46.73 122.395 46.8386 122.992 47.0014C122.341 47.2727 121.852 47.4898 121.201 47.7612C121.418 47.2185 121.472 46.9471 121.635 46.6215Z" fill="#F79A15"/>
<path d="M147.47 63.4465C147.361 62.958 147.307 62.6866 147.199 62.2524C147.687 62.3067 148.121 62.361 148.772 62.4153C148.23 62.7952 147.904 63.0666 147.47 63.4465Z" fill="#F79A15"/>
<path d="M263.942 109.851C263.562 107.246 263.236 104.586 262.911 101.981C262.422 98.4533 261.988 94.9255 261.499 91.3977C261.011 87.7613 260.523 84.0706 260.034 80.4343C259.708 78.0462 259.546 75.6582 259.003 73.3244C258.08 69.4709 255.909 66.4315 252.381 64.3148C249.776 62.7409 247.008 61.9811 244.132 62.2524C239.41 62.6323 234.688 63.3922 229.966 64.0435C229.695 64.0978 229.478 64.3149 229.261 64.4777C229.044 64.4234 228.718 64.2063 228.447 64.2606C226.818 64.4777 225.136 64.6948 223.508 64.9119C219.437 65.4546 215.312 65.9974 211.242 66.5401C207.605 66.9743 204.023 67.4627 200.441 67.9512C196.859 68.3854 193.223 68.8739 189.586 69.3623C186.438 69.7965 183.29 70.2307 180.143 70.6649C179.763 70.7192 179.437 70.9906 179.057 71.1534C179.057 71.0991 179.003 70.9363 179.003 70.7735C177.266 71.0448 175.583 71.2619 173.847 71.479C169.776 72.0218 165.651 72.5645 161.581 73.1073C157.51 73.65 153.385 74.1927 149.315 74.7355C145.19 75.3325 141.065 75.821 136.94 76.418C135.963 76.5808 134.986 76.3637 134.064 77.0693C133.738 77.3406 133.033 77.1236 132.49 77.1236C132.381 77.2864 132.273 77.0693 132.218 77.0693C121.744 78.4261 111.323 79.783 100.848 81.1941C100.794 81.1941 100.739 81.2484 100.685 81.3027C100.739 81.4112 100.794 81.5198 100.794 81.5198C100.36 81.8997 99.9796 82.3339 99.4911 82.4967C98.9484 82.7138 98.3514 82.6595 97.8086 82.7138C97.8086 82.6052 97.7543 82.4424 97.7543 82.3339C98.677 82.3881 99.5997 82.3881 100.034 81.2484C99.1655 81.3569 98.4056 81.4112 97.6458 81.574C96.9402 81.7369 96.2889 82.0625 95.6377 82.2796C95.6377 82.2253 95.5834 82.171 95.5834 82.1168C95.6919 82.0625 95.8548 81.954 96.2347 81.7369C95.2577 81.8997 94.6064 81.9539 93.9009 82.0625C90.2645 82.551 86.5739 83.0394 82.9375 83.5279C79.3554 83.9621 75.7733 84.4506 72.1912 84.939C69.6403 85.2647 67.0895 85.6989 64.5386 86.0245C61.3364 86.4044 58.0799 86.7301 54.8778 87.1643C50.8615 87.707 46.7909 88.2498 42.7204 88.7925C39.1383 89.2267 35.5019 89.7152 31.8655 90.2036C28.2834 90.6378 24.6471 91.072 21.065 91.6147C18.8397 91.9404 16.5602 92.2118 14.4435 92.9716C9.61312 94.7626 6.79087 98.399 5.54256 103.338C4.89127 105.889 5.32547 108.385 5.65111 110.936C6.13958 114.573 6.62805 118.263 7.11651 121.9C7.55071 124.776 7.9849 127.653 8.41909 130.529C8.47337 130.746 8.36482 130.964 8.36482 131.181C8.63619 131.126 8.90756 131.072 9.12466 131.018C9.17893 131.072 9.17893 131.181 9.23321 131.235C8.96184 131.452 8.74474 131.615 8.47337 131.832C8.63619 132.755 8.74474 133.623 8.85329 134.546C9.28748 137.856 9.55885 141.221 10.2101 144.478C11.6213 151.588 17.9713 156.364 25.027 155.93C29.586 155.604 34.145 154.79 38.7041 154.193C42.3404 153.704 45.9225 153.27 49.5589 152.727C50.97 152.51 52.5983 152.89 53.6295 151.751C53.9551 151.859 54.2265 152.076 54.4978 152.076C55.909 151.913 57.3744 151.696 58.7855 151.533C61.9334 151.099 65.1356 150.719 68.3378 150.285C70.4545 150.014 72.5711 149.742 74.6336 149.417C76.1532 149.2 77.6186 148.82 79.1383 148.603C80.061 148.494 80.9836 148.548 81.9063 148.44C85.1628 148.06 88.4192 147.626 91.6757 147.191C91.7299 147.191 91.7842 147.137 91.8385 147.083V146.432C92.2184 146.594 92.5983 146.974 92.9782 147.083C95.4748 146.812 97.9715 146.432 100.468 146.106C104.756 145.563 108.989 144.858 113.277 144.423C116.262 144.098 119.247 143.609 122.232 143.175C124.674 142.85 127.171 142.47 129.668 142.144C131.513 141.873 133.304 141.71 135.095 141.493C137.537 141.167 139.925 140.787 142.313 140.461C144.647 140.136 147.035 139.973 149.369 139.647C154.417 138.996 159.41 138.291 164.457 137.639C168.854 137.042 173.25 136.499 177.646 135.902C181.391 135.414 185.081 134.926 188.826 134.437C191.92 134.003 195.014 133.623 198.107 133.243C201.092 132.809 204.023 132.429 207.008 132.049C210.102 131.669 213.141 131.181 216.235 130.801C219.925 130.367 223.616 129.878 227.307 129.39C228.555 129.227 229.803 129.01 231.052 128.901C232.246 128.847 233.385 128.413 234.579 128.413C235.502 128.358 236.371 128.196 237.293 128.087C241.472 127.544 245.651 126.947 249.831 126.459C253.955 126.025 257.592 124.668 260.36 121.52C263.291 118.155 264.485 114.247 263.942 109.851ZM257.429 121.52C255.041 123.528 252.164 124.234 249.179 124.559C245.597 124.993 242.069 125.428 238.487 125.916C237.673 126.025 236.859 126.296 235.882 126.513C235.394 126.513 234.688 126.404 234.037 126.513C230.4 127.001 226.818 127.49 223.182 127.978C219.111 128.521 215.095 129.01 211.079 129.552C207.442 130.041 203.86 130.529 200.224 131.018C196.153 131.561 192.029 132.158 187.958 132.7C184.864 133.134 181.771 133.514 178.677 133.894C173.521 134.6 168.311 135.305 163.155 135.957C158.107 136.608 153.114 137.259 148.066 137.911C143.562 138.508 139.003 139.159 134.498 139.756C130.427 140.299 126.303 140.787 122.232 141.33C118.161 141.873 114.145 142.415 110.129 142.958C106.113 143.501 102.042 143.989 97.9714 144.532C96.506 144.749 95.0406 144.912 93.5752 145.129C93.3581 145.183 93.2496 145.4 93.1953 145.455C92.6526 145.4 92.2184 145.292 91.5671 145.129C89.6675 145.346 87.7679 145.618 85.8683 145.889C83.2089 146.215 80.5494 146.649 77.89 146.974C71.9199 147.734 66.004 148.494 60.0338 149.254C58.4599 149.471 56.9402 149.634 55.4205 149.851C51.1871 150.394 46.9537 150.936 42.7204 151.533C40.9836 151.751 39.2468 152.185 37.4558 152.402C34.4707 152.782 31.4856 153.107 28.5005 153.379C26.6009 153.542 24.7556 153.759 22.856 153.759C20.6851 153.704 18.7855 152.836 16.9944 151.751C16.5059 151.425 15.8547 151.316 15.4747 150.936C14.9863 150.448 14.7149 149.688 14.2264 149.145C12.2726 146.812 11.567 144.098 11.1871 141.221C10.7529 137.585 10.2644 134.003 9.77595 130.366C9.34175 127.164 8.96183 124.016 8.52764 120.814C8.47337 120.38 7.93063 119.62 8.03917 119.512C8.63619 118.969 8.202 118.426 8.14772 117.938C7.82208 114.898 7.55071 111.913 7.00797 108.928C6.41095 105.455 6.89942 102.47 8.31055 99.7559C8.52764 99.4302 8.41909 98.9418 8.47337 98.399C8.63619 98.4533 8.79901 98.5618 9.07038 98.6704C12.164 94.0571 16.9401 93.0801 22.0419 92.8088C21.8791 92.5374 21.7163 92.266 21.6077 92.0489C23.1817 93.4058 24.8099 92.3203 26.3296 92.1575C30.0202 91.8318 33.7108 91.2348 37.4015 90.7464C41.472 90.2036 45.5969 89.6609 49.6674 89.1181C53.6837 88.5754 57.7543 88.0869 61.7706 87.5442C65.407 87.0557 68.989 86.6215 72.5711 86.1331C76.1532 85.6446 79.7896 85.2104 83.426 84.7219C86.4653 84.2877 89.559 83.9078 92.5983 83.4736C93.0325 83.4194 93.4667 83.0937 93.9009 82.9309V83.3108C96.1804 83.0394 98.4056 82.7138 100.685 82.4424C101.119 82.3881 101.554 82.3339 101.933 82.2253C102.205 82.171 102.476 81.8997 102.748 81.8997C106.438 81.954 110.075 81.1398 113.711 80.6514C115.773 80.38 117.89 80.1629 120.007 79.9458V79.0774C120.17 79.0774 120.332 79.0231 120.332 79.0774C120.875 80.0544 121.798 79.6744 122.558 79.5659C127.279 78.9689 132.056 78.3719 136.777 77.7206C141.391 77.1235 145.95 76.4723 150.563 75.8752C155.068 75.2782 159.573 74.7355 164.077 74.1385C168.202 73.5957 172.327 73.053 176.452 72.5102C180.522 71.9675 184.647 71.479 188.718 70.9363C193.223 70.3393 197.782 69.7423 202.286 69.091C204.023 68.8739 205.76 68.7111 207.497 68.494C209.288 68.2226 211.133 67.9512 212.924 67.7341C220.251 66.7572 227.578 65.8345 234.905 64.8576C235.882 64.749 236.805 64.3149 237.727 64.2063C238.921 64.0435 240.17 64.152 241.364 63.9892C244.077 63.6636 246.737 63.4465 249.288 64.532C254.01 66.4858 256.723 70.0136 257.429 75.0611C257.863 78.5347 258.297 82.0082 258.786 85.4818C258.84 85.8617 259.111 86.1873 259.166 86.513C259.22 86.7301 259.003 87.0014 259.057 87.2185C259.6 91.5605 260.197 95.9024 260.74 100.244C261.228 103.772 261.825 107.3 262.096 110.828C262.422 115.115 260.74 118.698 257.429 121.52Z" fill="#F79A15"/>
<path d="M70.4008 99.3761L61.0113 100.57L58.7318 138.671L66.493 137.694L66.7644 129.661L72.2461 128.956L74.4713 136.662L82.0697 135.686L70.4008 99.3761ZM66.9272 124.614L67.0358 109.851L70.8349 124.125L66.9272 124.614Z" fill="#F79A15"/>
<path d="M108.013 121.194C107.307 115.93 104.648 113.107 100.252 113.107C103.562 112.022 105.354 109.417 104.757 104.912C103.725 96.608 98.0808 95.8482 91.6764 96.6623L82.0156 97.9106L86.7375 135.088L98.1893 133.623C105.354 132.755 108.99 128.901 108.013 121.194ZM90.9166 102.361L92.3277 102.198C95.4214 101.818 97.2124 103.121 97.5923 106.052C98.0265 109.145 97.4838 111.045 93.7389 111.533L92.1106 111.751L90.9166 102.361ZM96.0184 128.087L94.2816 128.358L92.8705 117.178L94.553 116.961C98.1351 116.472 99.5462 117.883 100.089 122.063C100.577 125.645 99.6547 127.599 96.0184 128.087Z" fill="#F79A15"/>
<path d="M112.463 120.38L119.356 118.426C120.062 123.257 121.418 124.885 123.481 124.614C125.163 124.396 125.38 122.931 125.218 121.628C124.838 118.535 123.047 116.907 120.224 115.061L116.642 112.673C113.494 110.665 110.998 108.114 110.401 103.609C109.587 97.3136 113.169 93.3516 119.573 92.5375C127.497 91.5063 129.451 97.585 130.157 101.927L123.209 103.718C122.721 100.407 122.178 98.3448 120.062 98.6162C118.542 98.8333 118.053 100.516 118.216 101.764C118.542 104.532 120.17 105.78 122.558 107.409L125.977 109.742C129.56 112.076 132.545 115.007 133.196 120.163C133.847 125.428 130.591 130.041 124.675 130.746C117.619 131.723 113.766 128.63 112.463 120.38Z" fill="#F79A15"/>
<path d="M134.553 91.235L151.269 89.1183L151.975 94.7086L143.454 95.7941L144.648 105.021L151.107 104.207L151.812 109.905L145.353 110.719L146.765 121.846L155.34 120.76L156.045 126.296L139.22 128.413L134.553 91.235Z" fill="#F79A15"/>
<path d="M156.045 88.467L161.853 87.7072L171.73 104.641L169.451 86.7303L176.235 85.8619L180.957 123.04L175.421 123.745L165.326 105.455L167.768 124.722L160.767 125.591L156.045 88.467Z" fill="#F79A15"/>
<path d="M186.873 90.7465L181.283 91.452L180.523 85.3191L199.953 82.8224L200.713 88.9554L195.177 89.661L199.139 120.76L190.89 121.791L186.873 90.7465Z" fill="#F79A15"/>
<path d="M94.6608 19.0502L89.2877 21.6011L92.3813 39.6743L96.7775 37.5577L96.0177 34.1927L100.305 32.1302L102.476 34.8439L106.872 32.7273L94.6608 19.0502ZM95.2035 30.5563L94.3894 27.137C94.2809 26.7028 94.1723 26.2686 94.0638 25.7802C93.9552 25.2917 93.7924 24.8032 93.6839 24.3148C93.5753 23.8263 93.4668 23.3921 93.3582 23.0665C93.5753 23.3921 93.7924 23.7177 94.1181 24.1519C94.3894 24.5319 94.7151 24.9661 95.0407 25.346C95.3664 25.7259 95.6377 26.0515 95.8548 26.3772L97.9715 29.1452L95.2035 30.5563Z" fill="#F79A15"/>
<path d="M118.921 24.2605C118.704 23.4463 118.433 22.8493 118.053 22.3609C117.673 21.9267 117.239 21.601 116.75 21.3839C116.262 21.1668 115.719 21.0583 115.177 21.0583L115.122 20.9497C115.502 20.7326 115.882 20.407 116.153 19.9728C116.425 19.5386 116.588 19.0501 116.696 18.4531C116.805 17.8561 116.75 17.2591 116.588 16.5535C116.208 15.1424 115.448 14.2197 114.254 13.7855C113.06 13.3513 111.377 13.4056 109.206 14.0026L103.779 15.4138L108.175 32.4016L114.2 30.8276C115.448 30.502 116.479 30.0135 117.239 29.3622C118.053 28.7109 118.596 27.9511 118.867 27.0827C119.193 26.2143 119.193 25.2917 118.921 24.2605ZM108.935 17.5847L110.02 17.3134C110.672 17.1505 111.16 17.1505 111.54 17.3134C111.92 17.5305 112.191 17.8561 112.3 18.3446C112.463 18.8873 112.409 19.3215 112.191 19.7014C111.974 20.0813 111.594 20.3527 110.943 20.5155L109.803 20.8412L108.935 17.5847ZM114.308 26.5942C114.145 26.9742 113.657 27.2998 113.006 27.4626L111.649 27.8425L110.672 24.0976L111.92 23.7177C112.409 23.6092 112.788 23.5549 113.114 23.6634C113.44 23.772 113.711 23.9348 113.928 24.1519C114.145 24.4233 114.254 24.6946 114.362 25.0746C114.525 25.6716 114.525 26.16 114.308 26.5942Z" fill="#F79A15"/>
<path d="M132.653 22.7949C132.761 23.8261 132.598 24.7488 132.219 25.6715C131.839 26.5398 131.187 27.2997 130.319 27.8967C129.451 28.4937 128.311 28.8194 126.954 28.9279C126.303 28.9822 125.706 28.9822 125.163 28.9822C124.62 28.9822 124.077 28.8736 123.589 28.7651C123.1 28.6565 122.558 28.4937 122.015 28.2766L121.635 24.0432C122.503 24.4232 123.372 24.7488 124.24 24.9116C125.109 25.0744 125.868 25.183 126.574 25.0744C127.008 25.0202 127.334 24.9659 127.551 24.8031C127.822 24.6945 127.985 24.4774 128.094 24.3146C128.202 24.0975 128.257 23.8804 128.202 23.609C128.202 23.3377 128.094 23.0663 127.931 22.9035C127.768 22.6864 127.497 22.4693 127.062 22.2522C126.683 22.0351 126.086 21.7637 125.38 21.4381C124.783 21.1667 124.24 20.8953 123.697 20.624C123.209 20.3526 122.775 20.027 122.395 19.647C122.015 19.2671 121.744 18.8329 121.527 18.2902C121.309 17.7474 121.147 17.1504 121.092 16.4449C120.984 15.3594 121.147 14.4367 121.581 13.6226C122.015 12.8085 122.612 12.1572 123.48 11.6687C124.349 11.1803 125.38 10.9089 126.628 10.8003C127.551 10.7461 128.474 10.7461 129.288 10.9089C130.156 11.0717 130.916 11.2888 131.73 11.6145L130.753 15.3594C130.048 15.0337 129.342 14.8166 128.745 14.7081C128.094 14.5453 127.497 14.5453 126.954 14.5453C126.628 14.5995 126.303 14.6538 126.086 14.7624C125.868 14.8709 125.706 15.0337 125.597 15.1965C125.489 15.3594 125.489 15.5765 125.489 15.7936C125.489 16.0649 125.597 16.3363 125.814 16.5534C125.977 16.7705 126.303 16.9876 126.737 17.2047C127.171 17.4218 127.768 17.6932 128.582 18.0188C129.396 18.3445 130.102 18.7244 130.699 19.1586C131.296 19.5928 131.73 20.0812 132.056 20.6782C132.381 21.221 132.598 21.9265 132.653 22.7949Z" fill="#F79A15"/>
<path d="M144.864 28.8194L135.421 28.1681L136.615 10.5833L146.058 11.2346L145.787 14.9252L140.794 14.5996L140.577 17.5847L145.19 17.9103L144.919 21.601L140.305 21.2753L140.088 24.8031L145.081 25.1288L144.864 28.8194Z" fill="#F79A15"/>
<path d="M161.961 32.7272L156.587 31.3704L154.145 18.6702H154.037C153.928 19.1587 153.874 19.7014 153.765 20.2442C153.657 20.7869 153.548 21.2754 153.44 21.7639C153.331 22.2523 153.222 22.6865 153.114 23.0664L151.323 30.0678L147.415 29.0366L151.811 11.9945L157.184 13.3514L159.681 25.7801H159.79C159.898 25.2917 159.952 24.8032 160.061 24.3147C160.17 23.8263 160.278 23.3378 160.387 22.8493C160.495 22.3609 160.604 21.9809 160.658 21.601L162.449 14.6539L166.411 15.6851L161.961 32.7272Z" fill="#F79A15"/>
<path d="M171.133 37.0148L167.117 35.1152L173.033 22.6322L169.668 21.0039L171.296 17.5847L182.042 22.6864L180.414 26.1057L177.049 24.5317L171.133 37.0148Z" fill="#F79A15"/>
<path d="M102.422 182.795L90.6449 196.852L95.0954 198.861L97.1578 196.093L101.5 198.046L100.794 201.411L105.299 203.42L107.85 185.238L102.422 182.795ZM103.562 188.006C103.454 188.548 103.345 189.037 103.237 189.525C103.128 190.014 103.019 190.448 102.965 190.828L102.26 194.247L99.4373 192.945L101.5 190.122C101.717 189.742 101.988 189.417 102.314 188.983C102.585 188.603 102.911 188.168 103.182 187.789C103.454 187.354 103.671 187.029 103.888 186.703C103.779 187.083 103.671 187.517 103.562 188.006Z" fill="#F79A15"/>
<path d="M122.992 190.719C122.178 189.743 120.658 189.037 118.433 188.548L112.952 187.3L108.989 204.451L115.068 205.808C116.316 206.079 117.456 206.133 118.433 205.916C119.464 205.753 120.279 205.319 120.93 204.668C121.581 204.017 122.07 203.203 122.287 202.171C122.504 201.357 122.504 200.652 122.395 200.055C122.287 199.512 122.015 199.023 121.69 198.589C121.364 198.155 120.93 197.829 120.441 197.558V197.449C120.876 197.449 121.364 197.341 121.798 197.07C122.232 196.798 122.667 196.473 122.992 195.984C123.318 195.496 123.589 194.953 123.752 194.247C124.078 192.836 123.806 191.642 122.992 190.719ZM117.89 200.814C117.782 201.411 117.511 201.846 117.131 202.117C116.751 202.388 116.262 202.443 115.557 202.28L114.2 201.954L115.068 198.209L116.316 198.535C116.805 198.643 117.131 198.806 117.402 199.023C117.673 199.24 117.836 199.512 117.89 199.838C117.999 200.109 117.945 200.435 117.89 200.814ZM119.193 193.867C119.084 194.41 118.867 194.79 118.487 195.007C118.108 195.278 117.619 195.333 116.968 195.17L115.828 194.899L116.534 191.696L117.619 191.913C118.27 192.076 118.705 192.293 118.976 192.619C119.247 192.945 119.302 193.379 119.193 193.867Z" fill="#F79A15"/>
<path d="M136.615 202.768C136.561 203.8 136.29 204.722 135.801 205.536C135.313 206.35 134.553 207.002 133.63 207.49C132.708 207.979 131.514 208.141 130.157 208.087C129.505 208.033 128.908 207.979 128.366 207.924C127.823 207.816 127.334 207.707 126.846 207.49C126.358 207.327 125.869 207.056 125.326 206.785L125.489 202.551C126.303 203.04 127.117 203.474 127.931 203.745C128.746 204.017 129.56 204.179 130.211 204.234C130.645 204.234 130.971 204.234 131.242 204.125C131.514 204.017 131.731 203.854 131.839 203.691C132.002 203.474 132.056 203.257 132.056 203.04C132.056 202.768 132.002 202.497 131.839 202.28C131.676 202.063 131.459 201.791 131.079 201.52C130.699 201.249 130.157 200.923 129.505 200.543C128.908 200.217 128.42 199.838 127.986 199.512C127.552 199.186 127.117 198.806 126.846 198.372C126.52 197.938 126.303 197.449 126.14 196.907C125.978 196.364 125.923 195.713 125.923 195.007C125.978 193.922 126.249 192.999 126.792 192.239C127.334 191.479 128.04 190.937 128.908 190.557C129.831 190.177 130.917 190.014 132.111 190.068C133.033 190.122 133.902 190.285 134.716 190.502C135.53 190.774 136.29 191.099 137.05 191.534L135.584 195.17C134.933 194.79 134.282 194.464 133.685 194.247C133.088 194.03 132.491 193.922 131.948 193.867C131.568 193.867 131.296 193.867 131.079 193.976C130.862 194.084 130.699 194.193 130.537 194.356C130.428 194.519 130.374 194.736 130.374 194.953C130.374 195.224 130.428 195.496 130.591 195.713C130.754 195.93 131.025 196.201 131.405 196.473C131.785 196.744 132.382 197.124 133.142 197.558C133.902 197.992 134.553 198.481 135.096 198.969C135.638 199.458 136.018 200 136.29 200.652C136.561 201.194 136.67 201.9 136.615 202.768Z" fill="#F79A15"/>
<path d="M150.13 206.73L140.74 207.87L138.623 190.394L148.013 189.254L148.447 192.89L143.508 193.487L143.888 196.418L148.501 195.876L148.936 199.512L144.322 200.055L144.756 203.528L149.695 202.931L150.13 206.73Z" fill="#F79A15"/>
<path d="M169.397 201.194L164.132 202.931L155.286 193.542L155.177 193.596C155.394 194.084 155.557 194.573 155.774 195.061C155.991 195.55 156.154 196.038 156.317 196.527C156.48 197.015 156.642 197.395 156.751 197.775L158.976 204.614L155.123 205.862L149.641 189.145L154.906 187.409L163.698 196.581H163.752C163.589 196.147 163.372 195.658 163.21 195.17C163.047 194.681 162.83 194.247 162.667 193.759C162.504 193.325 162.341 192.89 162.233 192.565L160.007 185.78L163.861 184.532L169.397 201.194Z" fill="#F79A15"/>
<path d="M180.577 195.224L176.724 197.395L169.885 185.346L166.629 187.192L164.783 183.935L175.15 178.074L176.995 181.33L173.738 183.175L180.577 195.224Z" fill="#F79A15"/>
</svg>
