<svg id="SvgjsSvg1012" width="288" height="288" xmlns="http://www.w3.org/2000/svg" version="1.1" xmlns:xlink="http://www.w3.org/1999/xlink" xmlns:svgjs="http://svgjs.com/svgjs"><defs id="SvgjsDefs1013"></defs><g id="SvgjsG1014"><svg xmlns="http://www.w3.org/2000/svg" enable-background="new 0 0 100 100" viewBox="0 0 100 100" width="288" height="288"><path d="M59.4 55.9c-3-1-6.3-1.6-10-1.9-3.2-.2-6.5 0-9.9.5-3.4.6-6.6 1.6-9.4 3.1-3.1 1.6-5.2 3.4-6.8 5.7-1.5 2.3-2 4.5-1.6 6.7.8 3.6 3.5 5.7 7.5 5.7l21.6 0c1.3 0 2.7 0 4 0 2.2 0 4.5 0 6.7 0H62c1.4 0 2.8 0 4.2-.2 3.3-.5 5.8-3.6 5.7-6.9-.1-2.4-1-4.5-2.7-6.5C66.8 59.3 63.7 57.4 59.4 55.9zM66.9 68.6c.1.6-.1 1.1-.4 1.5-.4.4-.9.6-1.5.6 0 0 0 0 0 0H28.9c-.7 0-1.2-.1-1.5-.4-.8-.7-1-1.8-.4-3.1.5-1.3 1.4-2.4 2.7-3.4 2.3-1.7 5-2.9 8.5-3.8 2.8-.7 5.6-1 8.6-1 1.2 0 2.5.1 3.8.2 5.1.5 8.9 1.7 12.2 3.8 1.3.9 2.8 2 3.6 3.7C66.6 67.2 66.8 67.9 66.9 68.6zM46.6 52.6c.1 0 .1 0 .2 0 3.7 0 7.2-1.4 9.9-4 2.7-2.7 4.3-6.4 4.3-10.1 0-7.8-6.4-14.2-14.1-14.2 0 0-.1 0-.1 0-7.4 0-13.5 5.7-14.1 13.1-.3 3.9 1.1 7.7 3.7 10.6C39 50.9 42.6 52.5 46.6 52.6zM37.5 38.3c0-2.5 1-4.8 2.8-6.5 1.8-1.7 4.3-2.7 6.7-2.6 5.1.1 8.9 4.2 8.9 9.2 0 2.6-1 5-2.8 6.7-1.7 1.7-4 2.5-6.5 2.5h0 0c-2.4.1-4.7-.9-6.4-2.6C38.5 43.2 37.5 40.8 37.5 38.3zM77.7 49.4c-.2.8-.9 1.3-1.8 1.3h-4l-.7.1v.6c.1 1 .1 2 .1 3v.9c0 1-.8 1.9-1.7 2h-.2c-.4 0-.8-.2-1.2-.4-.4-.3-.6-.8-.6-1.3-.1-1.4-.1-2.7-.1-4.3l-.1-.7-.7.1c-.5.1-.9.1-1.4 0h-1.6c-.4 0-.8 0-1.2-.1-.9 0-1.6-.7-1.6-1.7 0-1 .6-1.7 1.5-1.8 1.3-.1 2.7-.1 4.3-.1.1 0 .2 0 .3-.1l.6-.2-.1-.6c-.1-1.4-.1-2.8.1-4.1.1-.5.3-.9.7-1.3.3-.3.7-.4 1.2-.4.6.1 1.8.8 1.7 1.9-.1.7-.1 1.3-.1 2v.2c.1.6.1 1.2 0 1.8l.1.7h.7c.8 0 1.5-.1 2.1-.1s1.3.1 1.9.1c.6 0 1 .3 1.4.7C77.7 48.2 77.8 48.8 77.7 49.4z" fill="#c5c5c5" class="color000 svgShape"></path><path d="M50,2.9C24,2.9,2.9,24,2.9,50S24,97.1,50,97.1C76,97.1,97.1,76,97.1,50S76,2.9,50,2.9z M91.8,50
		c0,23.1-18.8,41.8-41.8,41.8C26.9,91.8,8.2,73.1,8.2,50C8.2,26.9,26.9,8.2,50,8.2C73.1,8.2,91.8,26.9,91.8,50z" fill="#c5c5c5" class="color000 svgShape"></path></svg></g></svg>