<?xml version="1.0" encoding="utf-8"?>
<!-- Generator: Adobe Illustrator 27.3.1, SVG Export Plug-In . SVG Version: 6.00 Build 0)  -->
<svg version="1.1" id="Layer_1" xmlns="http://www.w3.org/2000/svg" xmlns:xlink="http://www.w3.org/1999/xlink" x="0px" y="0px"
	 viewBox="0 0 500 500" style="enable-background:new 0 0 500 500;" xml:space="preserve">
<g>
	<path d="M34,286.1c0.2,1.9,0.7,3.7,0.7,5.6c0,59.1,0,118.1,0,177.2c0,6.2,0.1,12.5,0,18.7c0,1.4-0.4,2.7-0.6,4.1
		C34,423.1,34,354.6,34,286.1z"/>
	<path d="M399.8,116.3c22.4,0,44.2,0,66.2,0c-0.2,3.6-0.4,6.9-0.4,10.2c0,94.1,0,188.2,0,282.3c0,27.5,0.1,55,0.2,82.6
		c0,2.6-1.6,2.1-3,2.1c-18.8,0-37.6,0-56.3,0c-0.1,0-0.2,0-0.3,0c-6.2,0-6.2,0-6.2-6.4c0-120.4-0.1-240.9-0.1-361.3
		C399.8,122.7,399.8,119.6,399.8,116.3z"/>
	<path d="M156.7,351.2c0-46.4,0-92.8-0.1-139.2c0-2.6,1-3.2,3.3-3.2c20.3,0.1,40.6,0.1,60.9,0c1.6,0,2.5,0.4,2.5,2.1
		c0,1.2,0.3,2.4,0.3,3.6c0,77.7-0.1,155.5-0.1,233.2c0,14.6-0.1,29.1-0.1,43.7c0,2.4-1.2,2.3-2.8,2.3c-15.8-0.1-31.5-0.2-47.3-0.3
		c-4.2,0-8.4-0.1-12.6,0.2c-2.8,0.2-3.8-0.6-3.8-3.6c0.1-21.4,0-42.8,0-64.2C156.8,401,156.8,376.1,156.7,351.2
		C156.8,351.2,156.7,351.2,156.7,351.2z"/>
	<path d="M345.3,388.5c0,33.6,0,67.3,0,100.9c0,4.4-0.1,4.2-4.3,4.2c-20-0.1-40-0.1-60,0.1c-2,0-2.2-0.6-2.2-2.2
		c-0.1-4.9-0.2-9.8-0.2-14.8c0-60.6,0.1-121.2,0.2-181.7c0-3,0-6-0.2-9c-0.2-2.7,1.3-2.8,3.4-2.8c16.4,0,32.7,0,49.1,0
		c3.9,0,7.8,0.1,11.8,0.1c1.7,0,2.5,0.5,2.5,2.5c0,18.9,0,37.8,0,56.7C345.3,357.8,345.3,373.2,345.3,388.5
		C345.3,388.5,345.3,388.5,345.3,388.5z"/>
	<path d="M102.1,283.7c0,4.4,0,8.5,0,12.6c0,63.6,0,127.2,0,190.7c0,7.8,0.7,6.5-6.5,6.5c-18.5,0-37,0-55.4,0c-1.2,0-2.4,0-3.7,0
		c0-2.5,0-4.7,0-7c0-60,0-119.9-0.1-179.9c0-7-0.4-14-0.4-21c0-0.7,1.4-1.9,2.2-1.9c4.6-0.3,9.2-0.4,13.8-0.4
		c16.2,0,32.3,0.1,48.5,0.2C100.9,283.5,101.3,283.6,102.1,283.7z"/>
	<path d="M431.2,6.3c15.2-0.3,27.5,10.3,30.8,22c3.9,13.8-4.6,28.3-15,33.5c-6.5,3.3-13.1,5.1-20.2,3c-4.1-1.2-6.6,0.2-8.9,3.4
		c-8.4,11.7-16.9,23.2-25.3,34.8c-12.3,17-24.5,34.1-36.9,51c-6.1,8.3-12.7,16.3-18.7,24.7c-1.4,1.9-2.4,4.6-1.1,7.3
		c0.8,1.7,1.5,3.5,2.5,5.1c7.8,13,0.7,30.3-12.9,38.2c-15.6,9.1-34.2,0.2-41-14.7c-2.2-4.7-3.6-10.1-2.4-15.5c1-4.1-0.4-6.9-4-9
		c-6.8-4-13.6-8.1-20.4-12.2c-12.7-7.7-25.4-15.4-38.1-23c-2.6-1.6-4.5-4.6-8.1-3.9c-1.2,0.2-2.4,0.7-3.4,1.3c-3.2,2-6.2,4-10.1,4.8
		c-3.8,0.8-7.5,1.9-11.5,1.2c-5.1-1-9.9-2.4-13.8-6.1c-2.1-2-6.7-1.4-10.4,0.9c-7.6,4.8-15.2,9.7-22.9,14.4
		c-13.2,8-26.5,16-39.7,23.9c-1.9,1.2-2.4,2.7-2.3,4.8c0.2,3.6,0.6,7.2,0.3,10.7c-1.3,15-17,27-30.5,26.1
		c-6.9-0.5-13.1-3.1-18.5-8.2c-6.8-6.5-10.3-14.2-10-23.4c0.5-14.9,15.5-28.1,29.5-28c6,0.1,11.5,1.8,16.4,5.1
		c3.9,2.7,7.7,2.3,11.5,0c16.3-10.1,32.6-20.1,48.9-30.1c4.4-2.7,8.8-5.4,13.3-8c2.3-1.3,2.9-3,2.4-5.5c-1.9-9.9,0.7-18.7,7.4-25.9
		c11.4-12.3,29.5-13.8,42-1.4c7.8,7.7,10.9,16.5,9.4,27.2c-0.4,2.8-0.6,5.3,3.5,6.2c2.6,0.5,4.7,3.1,7.2,4.6
		c10.9,6.8,21.8,13.6,32.7,20.2c5.1,3.1,10.4,5.9,15.6,8.9c1.2,0.7,2.2,1.7,3.3,2.6c3.3,2.5,6.9,3.7,11,2.7c0.6-0.1,1.3-0.2,1.7-0.6
		c6.8-6.2,15-6.2,23.4-4.9c4.4,0.6,7.4-0.1,9.7-4.7c2.3-4.6,6-8.5,9.1-12.7c9.9-13.7,19.8-27.5,29.8-41.2c3.4-4.7,7-9.3,10.4-14
		c6.7-9.2,13.3-18.6,20-27.8c3.8-5.2,7.6-10.3,11.5-15.4c1.5-2,1.3-6.5-0.5-8.3c-0.7-0.7-0.9-1.8-1.4-2.7c-0.6-1.2-1.5-2.2-1.9-3.4
		c-1.6-6.1-1.8-12.3,0.5-18.3c0.7-1.8,1.5-3.5,2.5-5.2C413.7,10.8,422.9,6.4,431.2,6.3z M447.7,36.2c-0.1-9-6.2-14.9-15.4-14.9
		c-7.3,0-13.6,6.9-13.6,14.9c0,7.4,6.9,14,14.6,13.9C441.7,50.1,447.7,44.3,447.7,36.2z M311.8,189c-8,0-14.9,6.6-14.9,14.3
		c0,7.8,7.1,14.6,15,14.6c7.6,0,14.3-6.7,14.2-14.2C326.1,195.6,319.7,189,311.8,189z M204.8,129c0-7.6-6.7-14.5-14.4-14.6
		c-7.5-0.1-14.6,6.9-14.5,14.4c0.1,8.3,6.4,14.7,14.7,14.8C198.2,143.6,204.7,137,204.8,129z M83,203.5c0.1-7.6-6.5-14.5-14.1-14.7
		c-8-0.1-14.6,6.5-14.8,14.7c-0.2,6.7,6.1,14.4,14.8,14.3C76.3,217.7,82.8,211.3,83,203.5z"/>
</g>
</svg>
