<?xml version="1.0" encoding="utf-8"?>
<!-- Generator: Adobe Illustrator 27.3.1, SVG Export Plug-In . SVG Version: 6.00 Build 0)  -->
<svg version="1.1" id="Layer_1" xmlns="http://www.w3.org/2000/svg" xmlns:xlink="http://www.w3.org/1999/xlink" x="0px" y="0px"
	 viewBox="0 0 100 100" style="enable-background:new 0 0 100 100;" xml:space="preserve">
<style type="text/css">
	.st0{stroke:#000000;stroke-width:0.75;stroke-miterlimit:10;}
</style>
<path class="st0" d="M44.6,3.8C46.4,3.7,48,5.2,48,7c0,1.8-1.5,3.3-3.2,3.3c-1.8,0-3.3-1.4-3.3-3.2C41.4,5.3,42.8,3.8,44.6,3.8z"/>
<g>
	<path d="M76.5,59.8c-4-4.1-9.4-6.3-15.1-6.3c0,0-0.1,0-0.1,0c-11.8,0-21.4,9.5-21.4,21.3c0,5.7,2.2,11,6.2,15
		c4,4.1,9.4,6.3,15.1,6.3c0,0,0,0,0.1,0c11.7,0,21.3-9.5,21.4-21.2C82.7,69.2,80.5,63.8,76.5,59.8z M78.8,74.7
		c0,9.6-7.8,17.5-17.4,17.6c-4.6,0-9-1.8-12.3-5.1c-3.3-3.3-5.2-7.7-5.2-12.4c0-4.7,1.8-9.1,5.1-12.4c3.3-3.3,7.7-5.2,12.3-5.2
		c0,0,0,0,0.1,0c4.7,0,9.1,1.8,12.4,5.1C76.9,65.6,78.7,70,78.8,74.7z"/>
	<path d="M39,80.9c-0.1-0.4-0.2-0.7-0.2-1c-0.1-1.2-0.7-1.7-2-1.7c-3.6,0.1-7.2,0-10.7,0l-4.8,0V13.7l1.7,0c2.1,0,4.1,0,6.1,0
		c0,0,1.1,0,1.3-0.6c0.3-0.6,0.5-1.3,0.8-2c0.1-0.3,0.2-0.5,0.3-0.8l0.2-0.5l-3.7,0c-2.4,0-4.8,0-7.2,0c-2.3,0-3.3,1-3.3,3.3l0,65.6
		c0,2.4,1,3.4,3.3,3.4c2.1,0,4.1,0,6.2,0c3.6,0,7.2,0,10.7,0c0.3,0,0.5,0,0.8,0l0.9-0.1l-0.1-0.4C39.1,81.3,39.1,81.1,39,80.9z"/>
	<path d="M58.1,11c0.2,0.4,0.4,0.8,0.5,1.2c0.2,1.1,0.8,1.5,2,1.5c1.8-0.1,3.6,0,5.5,0c0.6,0,1.3,0,1.9,0v39l3.9,1.5l0-41.1
		c0-2.2-1-3.2-3.2-3.3c-0.7,0-1.3,0-2,0l-9,0l0.2,0.5C57.9,10.6,58,10.8,58.1,11z"/>
	<path d="M56.2,14l0-0.3c0.1-1.7-0.6-3.5-2-4.9c-1.2-1.2-2.7-1.9-4-1.9l-0.3,0l-0.1,0.3c-0.5,2.2-1.8,4.9-4.9,4.9c0,0,0,0,0,0
		c-1,0-2.1-0.3-3.1-0.8c-1.4-0.7-2.1-2.1-2.4-4.1l0-0.4l-0.4,0c-3.5,0.3-6.2,3.4-6.1,6.8l0,0.4H56.2z"/>
	<path d="M61.8,49.1c1.6,0,2-0.9,2.1-1.4c0.1-0.6-0.1-1.4-0.6-1.9c-0.3-0.3-0.8-0.5-1.7-0.5c-5.4,0-10.7,0-16.1,0l-3.1,0
		c-1.2,0-2.5,0-3.7,0c-1.2,0-2,0.7-2.1,1.9c0,0.5,0.1,0.9,0.4,1.3c0.4,0.4,1,0.7,1.7,0.7c0.2,0,0.3,0,0.5,0l0.2,0L61.8,49.1
		C61.8,49.1,61.8,49.1,61.8,49.1z"/>
	<path d="M37.7,25.4c0.2,0.2,0.6,0.3,0.9,0.3c0.1,0,0.2,0,0.3,0c0.1,0,0.2,0,0.3,0c2.9,0,5.7,0,8.6,0l2.5,0l5.3,0c2.1,0,4.2,0,6.3,0
		c0.6,0,1.2-0.2,1.6-0.6c0.3-0.4,0.5-0.8,0.5-1.3c-0.1-1.1-0.8-1.8-1.9-1.9c-0.2,0-0.4,0-0.6,0c-7.4,0-14.7,0-22.1,0
		c-0.1,0-0.2,0-0.3,0c-0.4,0-0.8-0.1-1.1,0.2c-0.6,0.4-1.3,1-1.3,1.6C36.6,24.3,37.3,25,37.7,25.4z"/>
	<path d="M36.8,36.3c0.4,0.7,1.1,1.1,2,1.1c2.7,0,5.5,0,8.2,0l2.9,0l3.6,0c1.1,0,2.1,0,3.2,0c1.7,0,3.4,0,5.1,0
		c1.4,0,2.2-0.7,2.2-1.9c0-0.6-0.2-1-0.6-1.4c-0.4-0.3-0.9-0.5-1.5-0.5c-7.5,0-15.4,0-23.3,0c-0.6,0-1.4,0.5-1.8,1
		C36.5,35.1,36.5,35.8,36.8,36.3z"/>
	<path d="M30.4,50.6c0,0,0.1,0,0.1,0c1.9-0.1,3.5-1.7,3.4-3.6c0-1.9-1.6-3.4-3.5-3.4c0,0,0,0,0,0c-2,0-3.5,1.5-3.5,3.5
		c0,1,0.4,1.9,1.1,2.6C28.7,50.3,29.5,50.6,30.4,50.6z"/>
	<path d="M30.4,38.9c1.9,0,3.4-1.5,3.5-3.4c0-0.9-0.3-1.8-0.9-2.5c-0.6-0.7-1.5-1.1-2.5-1.1c-1.9,0-3.5,1.4-3.6,3.3
		c0,1,0.3,1.9,1,2.6C28.5,38.5,29.4,38.9,30.4,38.9C30.3,38.9,30.3,38.9,30.4,38.9z"/>
	<path d="M30.3,20.2c-1.9,0-3.5,1.5-3.5,3.4c0,1,0.3,1.9,1,2.6c0.7,0.7,1.5,1,2.5,1c0,0,0,0,0,0c1.9,0,3.5-1.6,3.5-3.5
		C33.8,21.8,32.3,20.3,30.3,20.2C30.4,20.2,30.4,20.2,30.3,20.2z"/>
</g>
<path d="M59.6,79.8c1.3-2.3,2.5-4.5,3.8-6.7c1.2-2.1,2.3-4.2,3.5-6.3c0.8-1.5,2.1-2,3.4-1.3c1.2,0.7,1.5,2.1,0.7,3.5
	c-2.8,5.1-5.7,10.2-8.5,15.3c-1.1,1.9-2.6,2.1-4.2,0.6c-2-1.9-4-3.7-6-5.6c-1.4-1.3-1.6-2.6-0.6-3.7c1-1.1,2.4-1,3.8,0.3
	C56.8,77.2,58.1,78.5,59.6,79.8z"/>
</svg>
