<?xml version="1.0" encoding="UTF-8"?>
<!DOCTYPE svg PUBLIC "-//W3C//DTD SVG 1.1//EN" "http://www.w3.org/Graphics/SVG/1.1/DTD/svg11.dtd">
<!-- Creator: CorelDRAW X7 -->
<svg xmlns="http://www.w3.org/2000/svg" xml:space="preserve" width="3.12187in" height="0.543772in" version="1.1" style="shape-rendering:geometricPrecision; text-rendering:geometricPrecision; image-rendering:optimizeQuality; fill-rule:evenodd; clip-rule:evenodd"
viewBox="0 0 3197 557"
 xmlns:xlink="http://www.w3.org/1999/xlink">
 <defs>
  <style type="text/css">
   <![CDATA[
    .fil0 {fill:#EF7F1A;fill-rule:nonzero}
    .fil1 {fill:#234182;fill-rule:nonzero}
   ]]>
  </style>
 </defs>
 <g id="Layer_x0020_1">
  <metadata id="CorelCorpID_0Corel-Layer"/>
  <g id="_2465215793168">
   <path class="fil0" d="M2273 0l0 549 -124 0 -1 -371 -49 371 -88 0 -52 -362 -1 362 -124 0 0 -549 184 0c5,33 11,72 17,117l20 139 33 -256 185 0z"/>
   <path id="1" class="fil0" d="M2449 273l-129 0 0 -30c0,-35 4,-62 12,-80 8,-19 25,-36 49,-50 24,-15 55,-22 94,-22 46,0 81,8 105,24 23,17 37,37 42,61 5,24 7,73 7,147l0 226 -133 0 0 -41c-8,17 -19,29 -33,37 -13,8 -28,12 -47,12 -24,0 -46,-7 -66,-20 -20,-14 -30,-43 -30,-89l0 -36c0,-34 6,-57 16,-69 11,-13 37,-27 79,-43 45,-18 69,-29 73,-36 3,-6 4,-18 4,-37 0,-23 -1,-39 -5,-46 -3,-7 -9,-10 -18,-10 -9,0 -15,3 -17,9 -2,6 -3,21 -3,46l0 47zm43 62c-22,16 -35,29 -38,40 -4,11 -5,27 -5,47 0,23 1,38 4,45 3,7 9,10 19,10 8,0 14,-2 16,-8 3,-5 4,-19 4,-42l0 -92z"/>
   <path id="2" class="fil0" d="M2820 40l0 70 38 0 0 72 -38 0 0 240c0,30 1,46 4,49 3,4 16,5 39,5l0 73 -55 0c-31,0 -54,-2 -67,-4 -13,-3 -25,-9 -35,-18 -10,-10 -17,-20 -19,-32 -3,-12 -4,-41 -4,-85l0 -228 -29 0 0 -72 29 0 0 -70 137 0z"/>
   <path id="3" class="fil0" d="M3197 332l-177 0 0 97c0,20 1,33 4,39 3,6 9,9 17,9 11,0 18,-4 21,-12 4,-7 6,-23 6,-45l0 -59 129 0 0 33c0,28 -1,49 -5,64 -3,15 -12,31 -24,48 -13,17 -30,30 -49,38 -20,9 -45,13 -75,13 -29,0 -54,-4 -76,-13 -23,-8 -40,-19 -52,-34 -12,-15 -21,-31 -26,-48 -4,-18 -7,-43 -7,-77l0 -131c0,-39 6,-70 16,-93 11,-23 28,-40 52,-52 25,-12 52,-18 84,-18 38,0 70,7 95,22 25,14 42,34 52,58 10,24 15,57 15,101l0 60zm-136 -73l0 -33c0,-23 -2,-38 -4,-45 -3,-7 -8,-10 -16,-10 -9,0 -15,3 -18,8 -2,6 -3,22 -3,47l0 33 41 0z"/>
   <path class="fil1" d="M311 0l0 110 -84 0 0 439 -142 0 0 -439 -85 0 0 -110 311 0zm1390 431c6,-1 11,-1 16,0 5,1 12,-1 12,3 0,2 -1,2 -3,4 -3,0 -18,-1 -21,-2 -3,-1 -3,-1 -4,-5zm-6 -32c0,-13 2,-23 17,-23 10,0 25,4 29,10 5,8 7,29 5,33 -3,5 -9,5 -15,4 -18,-2 -36,2 -36,-24zm-1219 -300l-5 59c20,-42 49,-65 87,-67l0 158c-25,0 -44,3 -56,10 -12,7 -19,16 -21,28 -3,12 -5,40 -5,84l0 178 -136 0 0 -450 136 0zm234 174l-128 0 0 -30c0,-35 4,-62 12,-80 8,-19 24,-36 48,-50 24,-15 56,-22 94,-22 47,0 81,8 105,24 23,17 37,37 42,61 5,24 7,73 7,147l0 226 -133 0 0 -41c-8,17 -19,29 -32,37 -13,8 -29,12 -47,12 -24,0 -46,-7 -66,-20 -20,-14 -30,-43 -30,-89l0 -36c0,-34 5,-57 16,-69 10,-13 37,-27 79,-43 45,-18 69,-29 72,-36 3,-6 5,-18 5,-37 0,-23 -2,-39 -6,-46 -3,-7 -9,-10 -17,-10 -9,0 -15,3 -17,9 -3,6 -4,21 -4,46l0 47zm44 62c-22,16 -35,29 -39,40 -3,11 -5,27 -5,47 0,23 2,38 5,45 3,7 9,10 18,10 9,0 14,-2 17,-8 3,-5 4,-19 4,-42l0 -92zm466 -236l-63 450 -179 0 -69 -450 122 0 39 329c2,-25 7,-84 15,-177 4,-52 9,-103 13,-152l122 0zm331 233l-178 0 0 97c0,20 1,33 4,39 3,6 9,9 17,9 11,0 18,-4 22,-12 3,-7 5,-23 5,-45l0 -59 130 0 0 33c0,28 -2,49 -6,64 -3,15 -11,31 -24,48 -13,17 -30,30 -49,38 -20,9 -45,13 -75,13 -29,0 -54,-4 -76,-13 -22,-8 -40,-19 -52,-34 -12,-15 -21,-31 -25,-48 -5,-18 -8,-43 -8,-77l0 -131c0,-39 6,-70 16,-93 11,-23 28,-40 52,-52 25,-12 52,-18 84,-18 38,0 70,7 95,22 25,14 42,34 53,58 10,24 15,57 15,101l0 60zm-137 -73l0 -33c0,-23 -1,-38 -4,-45 -2,-7 -8,-10 -16,-10 -9,0 -15,3 -18,8 -2,6 -3,22 -3,47l0 33 41 0zm420 -259l0 256c-28,0 -85,3 -99,11 -10,7 -18,22 -23,34 -5,14 -10,28 -14,43 -3,1 -4,1 -9,1 1,-10 5,-20 -10,-20 -23,0 -28,21 -19,26 5,2 15,2 21,2 1,0 2,0 4,0 0,0 12,-5 5,5 -1,3 -3,6 -4,8 -11,23 -5,33 -9,40 -5,10 -4,16 -4,28 0,8 0,15 1,22l-1 79c0,10 5,13 12,14l-90 0 0 -549 239 0zm0 268l0 82 -49 0c-3,0 -6,0 -8,0 -3,0 -3,1 -7,1 -22,1 -29,-1 -47,-1 -7,0 -10,-1 -16,-1 3,-13 12,-44 17,-57 3,-7 4,-13 10,-16 11,-7 67,-8 100,-8zm0 130l0 41 -4 0c-17,0 -39,0 -53,-5 -14,-5 -25,-14 -25,-32 0,-5 16,-3 25,-4 1,0 1,0 3,0 12,-1 26,0 37,0 2,0 9,0 17,0zm0 74l0 26c-21,0 -39,0 -46,-1 -4,0 -8,0 -12,0 -4,0 -5,-1 -10,-1 -10,0 -44,-1 -48,-9 -2,-3 0,-6 1,-8 3,-7 7,-7 17,-7l98 0zm0 50l0 27 -130 0c9,-1 9,-11 9,-22l13 0c10,0 10,-5 16,-5l92 0z"/>
  </g>
 </g>
</svg>
