<?xml version="1.0" encoding="utf-8"?>
<!-- Generator: Adobe Illustrator 27.3.1, SVG Export Plug-In . SVG Version: 6.00 Build 0)  -->
<svg version="1.1" id="Layer_1" xmlns="http://www.w3.org/2000/svg" xmlns:xlink="http://www.w3.org/1999/xlink" x="0px" y="0px"
	 viewBox="0 0 400 400" style="enable-background:new 0 0 400 400;" xml:space="preserve">
<style type="text/css">
	.st0{fill:url(#SVGID_1_);}
	.st1{fill:url(#SVGID_00000152264896089481114660000008802360796633411775_);}
	.st2{fill:url(#SVGID_00000001661156724805614610000015961287132269040802_);}
	.st3{fill:url(#SVGID_00000048467018381758552840000012766568260390040252_);}
	.st4{fill:url(#SVGID_00000032626030829434011250000006366985186225795510_);}
	.st5{fill:url(#SVGID_00000154392173130129811950000008693290542892130982_);}
	.st6{fill:url(#SVGID_00000124869417564142352590000004848133626509855642_);}
	.st7{fill:url(#SVGID_00000111153258899932493020000002269959733014723003_);}
	.st8{fill:url(#SVGID_00000129910229119268589710000011578092140565808307_);}
	.st9{fill:url(#SVGID_00000175312203102396340190000006002696344785879170_);}
	.st10{fill:#D60D26;}
	.st11{fill:url(#SVGID_00000165234961401821664590000004680343770612335283_);}
	.st12{fill:url(#SVGID_00000181797005401316981170000001758780165552923791_);}
	.st13{fill:url(#SVGID_00000004535580735704284040000011627027362486357142_);}
	.st14{fill:#057F37;}
	.st15{fill:url(#SVGID_00000096038096420010471300000000011018155560095396_);}
	.st16{fill:url(#SVGID_00000165235960790367852500000005474600258835969196_);}
	.st17{fill:url(#SVGID_00000125593264922766849980000016771845262889523343_);}
	.st18{fill:url(#SVGID_00000145744662288809003260000004899886933842597820_);}
	.st19{fill:url(#SVGID_00000065790414386977685990000005257223965799384993_);}
	.st20{fill:url(#SVGID_00000124156909034324690610000012707380031213824436_);}
	.st21{fill:url(#SVGID_00000002373391128089087850000004140244037095297941_);}
	.st22{fill:url(#SVGID_00000046332302390622409020000014338905995224078267_);}
	.st23{fill:#595959;}
	.st24{fill:url(#SVGID_00000180359813870857643580000017325259822416600473_);}
	.st25{fill:url(#SVGID_00000175316623880056534290000012617162873743040653_);}
	.st26{fill:url(#SVGID_00000057135156918125470370000016717520279470874769_);}
	.st27{fill:url(#SVGID_00000083058923761728269630000000791642561326210480_);}
	.st28{fill:url(#SVGID_00000090256407380323664560000005035458919048540573_);}
	.st29{fill:url(#SVGID_00000157271159437792893090000014580396281603748527_);}
	.st30{fill:url(#SVGID_00000143595025960370833140000000185756412051091111_);}
	.st31{fill:url(#SVGID_00000041272784539553929110000005582319988353484724_);}
	.st32{fill:url(#SVGID_00000016771992893731289490000017699989315975175077_);}
	.st33{fill:url(#SVGID_00000114041916847305542590000005093040467621532831_);}
	.st34{fill:url(#SVGID_00000051347397576772642880000016842551726418426805_);}
	.st35{fill:url(#SVGID_00000052795477968570170310000005996184353728243350_);}
	.st36{fill:url(#SVGID_00000019661302508220736630000014292969699905393041_);}
	.st37{fill:url(#SVGID_00000142874135550208041390000013755481035134099883_);}
	.st38{fill:url(#SVGID_00000080192367785068441460000017236040964960345768_);}
	.st39{fill:url(#SVGID_00000101076459905750317890000016904385721600850110_);}
	.st40{fill:url(#SVGID_00000052808714892448424750000017405102509003294094_);}
	.st41{fill:url(#SVGID_00000026158373576295997060000008695653391899764668_);}
	.st42{fill:url(#SVGID_00000169532122329195845300000000497151761653829038_);}
</style>
<g>
	<g>
		
			<linearGradient id="SVGID_1_" gradientUnits="userSpaceOnUse" x1="116.7211" y1="-4049.8784" x2="283.9359" y2="-4049.8784" gradientTransform="matrix(1 0 0 2.0828 0 8637.1064)">
			<stop  offset="0" style="stop-color:#10C158"/>
			<stop  offset="0.9972" style="stop-color:#019342"/>
		</linearGradient>
		<path class="st0" d="M282.4,75c-1.9-16.3-4.9-24.7-10.2-31.4c-2.2,0.5-4.6,0.1-6.6-1.4L246.3,28c-2-1.5-3.2-3.7-3.6-6.1
			c-0.9-0.3-1.9-0.6-2.8-0.9v17.9h-79.1V21c-1,0.3-1.9,0.6-2.8,0.9c-0.3,2.4-1.5,4.6-3.6,6.1l-19.3,14.1c-2,1.5-4.4,1.9-6.6,1.4
			c-5.3,6.8-8.3,15.2-10.2,31.4c-5,43,3.5,110.6,3.2,127.3c-1.1,88.8-1.8,142.9,4,161.6c1.1,3.6,3.9,6.5,7.8,8.9
			c0.8-0.4,1.8-0.6,3.1-0.6c6.9,0,10.2,4.5,17.8,3.2c5-0.9,6.7,3.3,7.3,6.2c4.5,0.7,9,1.2,13.3,1.6c0.7-1,1.8-1.6,3.1-1.6h44.6
			c1.3,0,2.4,0.6,3.1,1.6c3.2-0.3,6.5-0.7,9.9-1.1c0.5-2.9,2.1-7.6,7.4-6.7c7.6,1.3,11-3.2,17.8-3.2c2.1,0,3.6,0.7,4.6,1.7
			c4.8-2.6,8.3-5.9,9.6-10c5.9-18.7,5.2-72.8,4.1-161.6C278.9,185.6,287.3,118,282.4,75z"/>
		
			<linearGradient id="SVGID_00000145744223096605939560000010178966584073586335_" gradientUnits="userSpaceOnUse" x1="160.8" y1="-342.7055" x2="239.9" y2="-342.7055" gradientTransform="matrix(1 0 0 1 0 370)">
			<stop  offset="0" style="stop-color:#525956"/>
			<stop  offset="1" style="stop-color:#000000"/>
		</linearGradient>
		<path style="fill:url(#SVGID_00000145744223096605939560000010178966584073586335_);" d="M239.9,38.9V21c-22.6-7-56.5-7-79.1,0
			v17.9H239.9z"/>
		
			<radialGradient id="SVGID_00000054952420203620591630000004159230236307446946_" cx="200.3747" cy="-5854.2212" r="82.5615" gradientTransform="matrix(1 0 0 3.8388 0 22671.0586)" gradientUnits="userSpaceOnUse">
			<stop  offset="0.2445" style="stop-color:#19D866"/>
			<stop  offset="0.9972" style="stop-color:#019342"/>
		</radialGradient>
		<path style="fill:url(#SVGID_00000054952420203620591630000004159230236307446946_);" d="M277.5,77.6c-3.1-27-9.2-31.5-24.4-44.2
			c-20.6-17.2-84.8-17.2-105.4,0c-15.2,12.7-21.4,17.2-24.4,44.2c-4.7,41.4,3.2,106.5,3.1,122.5c-1,85.5-1.7,137.6,3.8,155.6
			c6.4,20.8,70.3,19.6,70.3,19.6s63.9,1.1,70.3-19.6c5.5-18,4.8-70.1,3.8-155.6C274.2,184.1,282.1,119,277.5,77.6z"/>
		
			<linearGradient id="SVGID_00000095324492624967214090000016430507802394120599_" gradientUnits="userSpaceOnUse" x1="142.4" y1="-197.3806" x2="258.2" y2="-197.3806" gradientTransform="matrix(1 0 0 1 0 370)">
			<stop  offset="0" style="stop-color:#000000"/>
			<stop  offset="1" style="stop-color:#1B1C1C"/>
		</linearGradient>
		<path style="fill:url(#SVGID_00000095324492624967214090000016430507802394120599_);" d="M168.9,166.9
			c-13.4,1.9-22.9,5.6-26.5,7.1l1,5.9c0,0,10.4-5.4,26.8-7.8c14.1-2.1,46.1-2.1,60.2,0c16.3,2.4,26.8,7.8,26.8,7.8l1-5.9
			c-3.5-1.5-13.1-5.2-26.5-7.1C217.1,164.9,183.6,164.9,168.9,166.9z"/>
		
			<linearGradient id="SVGID_00000161619720976610939050000008909233433016455071_" gradientUnits="userSpaceOnUse" x1="133.1938" y1="-255.4805" x2="267.2487" y2="-255.4805" gradientTransform="matrix(1 0 0 1 0 370)">
			<stop  offset="0" style="stop-color:#000000"/>
			<stop  offset="1" style="stop-color:#1B1C1C"/>
		</linearGradient>
		<path style="fill:url(#SVGID_00000161619720976610939050000008909233433016455071_);" d="M138.3,122.5c5.2-2.3,14.2-6,28.3-9.1
			c20.3-4.4,47.2-4.4,67.4,0c14.1,3.1,23.1,6.8,28.3,9.1c2.3,1,3.7,1.8,4.4,2.6v-0.2c0,0,1-4.3,0.3-5.4c-0.5-1-2.1-1.9-4.8-3.1
			c-5.2-2.3-14.2-6-28.3-9.1c-20.3-4.4-47.2-4.4-67.4,0c-14.1,3.1-23.1,6.8-28.3,9.1c-2.7,1.2-4.3,2.1-4.8,3.1
			c-0.6,1.1,0.3,5.4,0.3,5.4v0.2C134.6,124.3,136,123.5,138.3,122.5z"/>
		
			<linearGradient id="SVGID_00000016076377674813249530000012010363960711387039_" gradientUnits="userSpaceOnUse" x1="133.8224" y1="-227.9805" x2="266.7911" y2="-227.9805" gradientTransform="matrix(1 0 0 1 0 370)">
			<stop  offset="0" style="stop-color:#363B39"/>
			<stop  offset="1" style="stop-color:#1B1C1C"/>
		</linearGradient>
		<path style="fill:url(#SVGID_00000016076377674813249530000012010363960711387039_);" d="M168.9,166.9c14.7-2.1,48.2-2.1,62.9,0
			c13.4,1.9,22.9,5.6,26.5,7.1l8.6-48.9c-0.7-0.8-2.2-1.6-4.4-2.6c-5.2-2.3-14.2-6-28.3-9.1c-20.3-4.4-47.2-4.4-67.4,0
			c-14.1,3.1-23.1,6.8-28.3,9.1c-2.3,1-3.7,1.8-4.4,2.6l8.6,48.9C146,172.5,155.5,168.8,168.9,166.9z"/>
		
			<linearGradient id="SVGID_00000072982331370618970490000012505531196632888996_" gradientUnits="userSpaceOnUse" x1="128.6881" y1="-180.1306" x2="141.7881" y2="-180.1306" gradientTransform="matrix(1 0 0 1 0 370)">
			<stop  offset="0" style="stop-color:#363B39"/>
			<stop  offset="1" style="stop-color:#1B1C1C"/>
		</linearGradient>
		<path style="fill:url(#SVGID_00000072982331370618970490000012505531196632888996_);" d="M130.6,251.8l11.3,4.6l-1.9-60.9
			l-10.8-72.1c0,0-0.9,18.5,0,45c0.6,16.8,2.3,39.9,2.2,54.7C131.3,237.3,130.9,246.9,130.6,251.8z"/>
		
			<linearGradient id="SVGID_00000152226065300247491480000000078303727095198109_" gradientUnits="userSpaceOnUse" x1="258.8177" y1="-180.1806" x2="271.9177" y2="-180.1806" gradientTransform="matrix(1 0 0 1 0 370)">
			<stop  offset="0" style="stop-color:#363B39"/>
			<stop  offset="1" style="stop-color:#1B1C1C"/>
		</linearGradient>
		<path style="fill:url(#SVGID_00000152226065300247491480000000078303727095198109_);" d="M270.1,251.7l-11.3,4.6l1.9-60.8
			l10.8-72.1c0,0,0.9,18.5,0,45c-0.6,16.8-2.3,39.8-2.2,54.7C269.3,237.2,269.7,247,270.1,251.7z"/>
		
			<linearGradient id="SVGID_00000093162307115785686030000000682767826513150124_" gradientUnits="userSpaceOnUse" x1="129.6222" y1="-68.2306" x2="143.1743" y2="-68.2306" gradientTransform="matrix(1 0 0 1 0 370)">
			<stop  offset="0" style="stop-color:#363B39"/>
			<stop  offset="1" style="stop-color:#1B1C1C"/>
		</linearGradient>
		<path style="fill:url(#SVGID_00000093162307115785686030000000682767826513150124_);" d="M130.2,257.4l11.7,5.9l1.3,50.9
			c0,0-1,6.3-5.4,16.8c-5,11.9-7.6,15.2-7.6,15.2S128.9,276.5,130.2,257.4z"/>
		
			<linearGradient id="SVGID_00000160906350427496796210000010775824562763388807_" gradientUnits="userSpaceOnUse" x1="257.4425" y1="-68.2805" x2="270.9934" y2="-68.2805" gradientTransform="matrix(1 0 0 1 0 370)">
			<stop  offset="0" style="stop-color:#363B39"/>
			<stop  offset="1" style="stop-color:#1B1C1C"/>
		</linearGradient>
		<path style="fill:url(#SVGID_00000160906350427496796210000010775824562763388807_);" d="M270.5,257.4l-11.7,5.9l-1.3,50.9
			c0,0,1,6.3,5.4,16.7c5,11.9,7.6,15.2,7.6,15.2S271.7,276.4,270.5,257.4z"/>
		<path class="st10" d="M154.3,375.4c-7.6,1.3-11-3.2-17.8-3.2c-1.2,0-2.2,0.2-3.1,0.6c7,4.4,17.5,7.1,28.2,8.8
			C161,378.7,159.3,374.5,154.3,375.4z"/>
		<path class="st10" d="M243,375.4c-5.3-0.9-6.9,3.8-7.4,6.7c10.9-1.5,22.1-4,29.8-8.2c-1-1-2.5-1.7-4.6-1.7
			C254,372.2,250.7,376.7,243,375.4z"/>
		
			<linearGradient id="SVGID_00000153680121105625500460000011744954226623325375_" gradientUnits="userSpaceOnUse" x1="148.9401" y1="-274.151" x2="167.5732" y2="-332.5897" gradientTransform="matrix(1 0 0 1 0 370)">
			<stop  offset="0" style="stop-color:#19D866"/>
			<stop  offset="0.9832" style="stop-color:#19D866"/>
		</linearGradient>
		<path style="fill:url(#SVGID_00000153680121105625500460000011744954226623325375_);" d="M146.7,104c0,0,13.1-23.8,14.8-32.7
			c1.4-6.8-0.8-27.6-0.8-27.6s-1.4,19.9-2.8,26.4C156.1,78.8,146.7,104,146.7,104z"/>
		
			<linearGradient id="SVGID_00000136412461916500616690000001850233376850986124_" gradientUnits="userSpaceOnUse" x1="250.2228" y1="-270.6991" x2="235.392" y2="-329.6002" gradientTransform="matrix(1 0 0 1 0 370)">
			<stop  offset="0" style="stop-color:#19D866"/>
			<stop  offset="0.9832" style="stop-color:#19D866"/>
		</linearGradient>
		<path style="fill:url(#SVGID_00000136412461916500616690000001850233376850986124_);" d="M254.1,104c0,0-13-23.8-14.8-32.7
			c-1.4-6.8,0.8-27.6,0.8-27.6s1.4,19.9,2.8,26.4C244.7,78.8,254.1,104,254.1,104z"/>
		
			<linearGradient id="SVGID_00000133502994485865713230000014403541593567401148_" gradientUnits="userSpaceOnUse" x1="200.0752" y1="-241.3166" x2="237.3099" y2="-214.8405" gradientTransform="matrix(1 0 0 1 0 370)">
			<stop  offset="0" style="stop-color:#363B39"/>
			<stop  offset="1" style="stop-color:#000000"/>
		</linearGradient>
		<path style="fill:url(#SVGID_00000133502994485865713230000014403541593567401148_);" d="M262.4,122.5c-5.2-2.3-14.2-6-28.3-9.1
			c-4.9-1.1-10.3-1.9-15.8-2.4c-14.2,15.3-31.1,43.1-38,54.9c16.6-1,39.9-0.6,51.6,1c13.4,1.9,22.9,5.6,26.5,7.1l8.6-48.9
			C266.1,124.3,264.6,123.5,262.4,122.5z"/>
		<path class="st14" d="M200.3,172.6c-41.3-0.9-55.2,10-55.2,10s0.5,154.1,3.7,164c2.1,6.7,28.2,4.3,44.7,5.5h13.6
			c16.5-1.2,42.5,1.3,44.7-5.5c3.2-9.9,3.7-164,3.7-164S241.6,171.7,200.3,172.6z"/>
		
			<linearGradient id="SVGID_00000008867843660936441010000013249512157589126325_" gradientUnits="userSpaceOnUse" x1="113.3052" y1="-372.5595" x2="148.8058" y2="-270.3338" gradientTransform="matrix(1 0 0 1 0 370)">
			<stop  offset="0" style="stop-color:#70F2A4"/>
			<stop  offset="0.9972" style="stop-color:#07A547"/>
		</linearGradient>
		<path style="fill:url(#SVGID_00000008867843660936441010000013249512157589126325_);" d="M154.4,31.2c0,0-24.9,12.6-27.5,40.5
			c-2.7,28.5-2.3,42.9-2.3,42.9S133.1,46.3,154.4,31.2z"/>
		
			<linearGradient id="SVGID_00000060750483635935701150000006217973038335786155_" gradientUnits="userSpaceOnUse" x1="-2550.6914" y1="-372.5458" x2="-2515.1907" y2="-270.32" gradientTransform="matrix(-1 0 0 1 -2263.2014 370)">
			<stop  offset="0" style="stop-color:#70F2A4"/>
			<stop  offset="0.9972" style="stop-color:#07A547"/>
		</linearGradient>
		<path style="fill:url(#SVGID_00000060750483635935701150000006217973038335786155_);" d="M246.4,31.2c0,0,24.9,12.6,27.5,40.5
			c2.7,28.5,2.3,42.9,2.3,42.9S267.7,46.3,246.4,31.2z"/>
		
			<linearGradient id="SVGID_00000041274129320740322470000008022317452196663193_" gradientUnits="userSpaceOnUse" x1="269.6164" y1="-240.6737" x2="283.9179" y2="-212.9835" gradientTransform="matrix(1 0 0 1 0 370)">
			<stop  offset="0" style="stop-color:#363B39"/>
			<stop  offset="1" style="stop-color:#1B1C1C"/>
		</linearGradient>
		<path style="fill:url(#SVGID_00000041274129320740322470000008022317452196663193_);" d="M271.1,127.1c0,0,6.4,1.3,6.6,6.8
			c0.1,5.5-6.4,16.7-6.6,9.6C270.9,136.5,270.5,129.3,271.1,127.1z"/>
		
			<linearGradient id="SVGID_00000016762718160936798030000004022811384895321990_" gradientUnits="userSpaceOnUse" x1="273.1455" y1="-232.7451" x2="294.6699" y2="-232.7451" gradientTransform="matrix(1 0 0 1 0 370)">
			<stop  offset="0" style="stop-color:#FFFFFF"/>
			<stop  offset="1" style="stop-color:#D2D6D5"/>
		</linearGradient>
		<path style="fill:url(#SVGID_00000016762718160936798030000004022811384895321990_);" d="M294.5,139.2c-0.1-3.5-16.8-8-17.3-6.7
			c-3.6,0-4.1,2.7-3.7,4.5c7.9-0.8,15.2,1.4,20.5,5.3C294.5,141.5,295,140.5,294.5,139.2z"/>
		
			<linearGradient id="SVGID_00000156559786257391010800000015129386049387599548_" gradientUnits="userSpaceOnUse" x1="273.0234" y1="-229.9277" x2="294.5473" y2="-229.9277" gradientTransform="matrix(1 0 0 1 0 370)">
			<stop  offset="0" style="stop-color:#363B39"/>
			<stop  offset="1" style="stop-color:#1B1C1C"/>
		</linearGradient>
		<path style="fill:url(#SVGID_00000156559786257391010800000015129386049387599548_);" d="M273.1,137c0.2,1.3,0.6,2.3,0.6,2.3
			c7.4-1.1,14.4,0.7,19.8,4.1c0,0,0.4-0.4,0.9-1C288.8,138.4,281.2,136.1,273.1,137z"/>
		
			<linearGradient id="SVGID_00000181779209615203510480000005684447195648163255_" gradientUnits="userSpaceOnUse" x1="-2460.1729" y1="-240.6493" x2="-2445.8713" y2="-212.9593" gradientTransform="matrix(-1 0 0 1 -2329.802 370)">
			<stop  offset="0" style="stop-color:#363B39"/>
			<stop  offset="1" style="stop-color:#1B1C1C"/>
		</linearGradient>
		<path style="fill:url(#SVGID_00000181779209615203510480000005684447195648163255_);" d="M128.9,127.1c0,0-6.4,1.3-6.6,6.8
			c-0.1,5.5,6.4,16.7,6.6,9.6C129.1,136.5,129.5,129.3,128.9,127.1z"/>
		
			<linearGradient id="SVGID_00000008117718071957130810000003613797706739163527_" gradientUnits="userSpaceOnUse" x1="-2456.5969" y1="-232.7451" x2="-2435.0725" y2="-232.7451" gradientTransform="matrix(-1 0 0 1 -2329.802 370)">
			<stop  offset="0" style="stop-color:#FFFFFF"/>
			<stop  offset="1" style="stop-color:#D2D6D5"/>
		</linearGradient>
		<path style="fill:url(#SVGID_00000008117718071957130810000003613797706739163527_);" d="M105.5,139.2c0.1-3.5,16.8-8,17.3-6.7
			c3.6,0,4.1,2.7,3.7,4.5c-7.9-0.8-15.2,1.4-20.5,5.3C105.5,141.5,105,140.5,105.5,139.2z"/>
		
			<linearGradient id="SVGID_00000161621122878877919210000016005786444576201659_" gradientUnits="userSpaceOnUse" x1="-2456.7019" y1="-229.9277" x2="-2435.1782" y2="-229.9277" gradientTransform="matrix(-1 0 0 1 -2329.802 370)">
			<stop  offset="0" style="stop-color:#363B39"/>
			<stop  offset="1" style="stop-color:#1B1C1C"/>
		</linearGradient>
		<path style="fill:url(#SVGID_00000161621122878877919210000016005786444576201659_);" d="M126.9,137c-0.2,1.3-0.6,2.3-0.6,2.3
			c-7.4-1.1-14.4,0.7-19.8,4.1c0,0-0.4-0.4-0.9-1C111.2,138.4,118.8,136.1,126.9,137z"/>
		<path class="st23" d="M121.7,199.7c-0.9,0-1.7,0.8-1.7,1.7v14.2c0,0.9,0.8,1.7,1.7,1.7V199.7z"/>
		<path class="st23" d="M120.9,270.8c-0.9,0-1.7,0.8-1.7,1.7v14.2c0,1,0.8,1.7,1.7,1.7V270.8z"/>
		<path class="st23" d="M278.9,199.7c1,0,1.7,0.8,1.7,1.7v14.2c0,0.9-0.8,1.7-1.7,1.7V199.7z"/>
		<path class="st23" d="M279.8,270.8c1,0,1.7,0.8,1.7,1.7v14.2c0,1-0.8,1.7-1.7,1.7V270.8z"/>
		<g>
			<g>
				
					<linearGradient id="SVGID_00000013191957832921755470000015907042610095339909_" gradientUnits="userSpaceOnUse" x1="162.5701" y1="301.5305" x2="170.2701" y2="301.5305" gradientTransform="matrix(1 0 0 -1 0 399)">
					<stop  offset="0" style="stop-color:#70F2A4"/>
					<stop  offset="0.9972" style="stop-color:#07A547"/>
				</linearGradient>
				<path style="fill:url(#SVGID_00000013191957832921755470000015907042610095339909_);" d="M163,98.9c2.8-0.2,4.1-1.8,6.9-2
					c0.2,0,0.4-0.2,0.4-0.4c0-0.2-0.2-0.4-0.4-0.4c-2.8,0.2-4.1,1.8-6.9,2c-0.2,0-0.4,0.2-0.4,0.4S162.8,98.9,163,98.9z"/>
				
					<linearGradient id="SVGID_00000011000137235007809400000011787846745565183421_" gradientUnits="userSpaceOnUse" x1="162.5701" y1="299.9305" x2="170.2701" y2="299.9305" gradientTransform="matrix(1 0 0 -1 0 399)">
					<stop  offset="0" style="stop-color:#70F2A4"/>
					<stop  offset="0.9972" style="stop-color:#07A547"/>
				</linearGradient>
				<path style="fill:url(#SVGID_00000011000137235007809400000011787846745565183421_);" d="M169.9,97.7c-2.8,0.2-4.1,1.8-6.9,2
					c-0.2,0-0.4,0.2-0.4,0.4c0,0.2,0.2,0.4,0.4,0.4c2.8-0.2,4.1-1.8,6.9-2c0.2,0,0.4-0.2,0.4-0.4S170.1,97.7,169.9,97.7z"/>
				
					<linearGradient id="SVGID_00000066513862165064419960000014170164769817498285_" gradientUnits="userSpaceOnUse" x1="162.5701" y1="298.3305" x2="170.2701" y2="298.3305" gradientTransform="matrix(1 0 0 -1 0 399)">
					<stop  offset="0" style="stop-color:#70F2A4"/>
					<stop  offset="0.9972" style="stop-color:#07A547"/>
				</linearGradient>
				<path style="fill:url(#SVGID_00000066513862165064419960000014170164769817498285_);" d="M169.9,99.3c-2.8,0.2-4.1,1.8-6.9,2
					c-0.2,0-0.4,0.2-0.4,0.4c0,0.2,0.2,0.4,0.4,0.4c2.8-0.2,4.1-1.8,6.9-2c0.2,0,0.4-0.2,0.4-0.4S170.1,99.3,169.9,99.3z"/>
			</g>
		</g>
		<g>
			<g>
				
					<linearGradient id="SVGID_00000009556023793020380500000004264205587943074703_" gradientUnits="userSpaceOnUse" x1="230.2702" y1="301.5305" x2="237.9703" y2="301.5305" gradientTransform="matrix(1 0 0 -1 0 399)">
					<stop  offset="0" style="stop-color:#70F2A4"/>
					<stop  offset="0.9972" style="stop-color:#07A547"/>
				</linearGradient>
				<path style="fill:url(#SVGID_00000009556023793020380500000004264205587943074703_);" d="M237.6,98.9c-2.8-0.2-4.1-1.8-6.9-2
					c-0.2,0-0.4-0.2-0.4-0.4c0-0.2,0.2-0.4,0.4-0.4c2.8,0.2,4.1,1.8,6.9,2c0.2,0,0.4,0.2,0.4,0.4S237.8,98.9,237.6,98.9z"/>
				
					<linearGradient id="SVGID_00000003820485024024295290000014449398506506960822_" gradientUnits="userSpaceOnUse" x1="230.2702" y1="299.9305" x2="237.9703" y2="299.9305" gradientTransform="matrix(1 0 0 -1 0 399)">
					<stop  offset="0" style="stop-color:#70F2A4"/>
					<stop  offset="0.9972" style="stop-color:#07A547"/>
				</linearGradient>
				<path style="fill:url(#SVGID_00000003820485024024295290000014449398506506960822_);" d="M230.7,97.7c2.8,0.2,4.1,1.8,6.9,2
					c0.2,0,0.4,0.2,0.4,0.4c0,0.2-0.2,0.4-0.4,0.4c-2.8-0.2-4.1-1.8-6.9-2c-0.2,0-0.4-0.2-0.4-0.4S230.5,97.7,230.7,97.7z"/>
				
					<linearGradient id="SVGID_00000167396249699999892280000003415397830644239511_" gradientUnits="userSpaceOnUse" x1="230.2702" y1="298.3305" x2="237.9703" y2="298.3305" gradientTransform="matrix(1 0 0 -1 0 399)">
					<stop  offset="0" style="stop-color:#70F2A4"/>
					<stop  offset="0.9972" style="stop-color:#07A547"/>
				</linearGradient>
				<path style="fill:url(#SVGID_00000167396249699999892280000003415397830644239511_);" d="M230.7,99.3c2.8,0.2,4.1,1.8,6.9,2
					c0.2,0,0.4,0.2,0.4,0.4c0,0.2-0.2,0.4-0.4,0.4c-2.8-0.2-4.1-1.8-6.9-2c-0.2,0-0.4-0.2-0.4-0.4S230.5,99.3,230.7,99.3z"/>
			</g>
		</g>
		
			<linearGradient id="SVGID_00000035531348526553738580000014469564642714828461_" gradientUnits="userSpaceOnUse" x1="174.9" y1="12.925" x2="225.8" y2="12.925" gradientTransform="matrix(1 0 0 1 0 370)">
			<stop  offset="0" style="stop-color:#363B39"/>
			<stop  offset="1" style="stop-color:#000000"/>
		</linearGradient>
		<path style="fill:url(#SVGID_00000035531348526553738580000014469564642714828461_);" d="M222.6,381.6H178c-1.3,0-2.4,0.6-3.1,1.6
			c14,1.3,25.5,1.1,25.5,1.1s11.4,0.2,25.4-1.1C225,382.2,223.9,381.6,222.6,381.6z"/>
		
			<radialGradient id="SVGID_00000130610630590157633130000014039227630730323602_" cx="257.3701" cy="-334.5805" r="14.1523" gradientTransform="matrix(1 0 0 1 0 370)" gradientUnits="userSpaceOnUse">
			<stop  offset="0" style="stop-color:#C1DBCB"/>
			<stop  offset="0.1598" style="stop-color:#BDDAC9"/>
			<stop  offset="0.3105" style="stop-color:#B2D9C1"/>
			<stop  offset="0.4576" style="stop-color:#9FD6B5"/>
			<stop  offset="0.6026" style="stop-color:#84D2A3"/>
			<stop  offset="0.7459" style="stop-color:#61CD8D"/>
			<stop  offset="0.886" style="stop-color:#38C772"/>
			<stop  offset="1" style="stop-color:#10C158"/>
		</radialGradient>
		<path style="fill:url(#SVGID_00000130610630590157633130000014039227630730323602_);" d="M253,33.5c7.1,5.9,12.2,10,15.9,15.5
			c1-1.3,1.5-5.1,3.2-5.4c-3.9-4.9-9-8.9-15.7-14.5c-3.5-2.9-8.2-5.2-13.7-7.2c0.2,1.5,0.8,4.2,1.8,6.4
			C247.8,29.8,250.7,31.5,253,33.5z"/>
		
			<radialGradient id="SVGID_00000183969128561537816460000015633282658146827410_" cx="-2481.3779" cy="-334.5805" r="18.5679" fx="-2488.0527" fy="-334.5126" gradientTransform="matrix(-1 0 0 1 -2338.1077 370)" gradientUnits="userSpaceOnUse">
			<stop  offset="0" style="stop-color:#C1DBCB"/>
			<stop  offset="0.1598" style="stop-color:#BDDAC9"/>
			<stop  offset="0.3105" style="stop-color:#B2D9C1"/>
			<stop  offset="0.4576" style="stop-color:#9FD6B5"/>
			<stop  offset="0.6026" style="stop-color:#84D2A3"/>
			<stop  offset="0.7459" style="stop-color:#61CD8D"/>
			<stop  offset="0.886" style="stop-color:#38C772"/>
			<stop  offset="1" style="stop-color:#10C158"/>
		</radialGradient>
		<path style="fill:url(#SVGID_00000183969128561537816460000015633282658146827410_);" d="M147.7,33.5c-7.1,5.9-12.2,10-15.9,15.5
			c-1-1.3-1.5-5.1-3.2-5.4c3.9-4.9,9-8.9,15.7-14.5c3.5-2.9,8.2-5.2,13.7-7.2c-0.2,1.5-0.8,4.2-1.8,6.4
			C153,29.8,150.1,31.5,147.7,33.5z"/>
		
			<linearGradient id="SVGID_00000117657889605325255520000014954932475391196062_" gradientUnits="userSpaceOnUse" x1="129.6228" y1="-84.0806" x2="142.4327" y2="-84.0806" gradientTransform="matrix(1 0 0 1 0 370)">
			<stop  offset="0" style="stop-color:#363B39"/>
			<stop  offset="1" style="stop-color:#000000"/>
		</linearGradient>
		<path style="fill:url(#SVGID_00000117657889605325255520000014954932475391196062_);" d="M141.9,263.3l-11.7-5.9
			c-0.7,10.4-0.6,36.1-0.4,57.1c5.6-6.5,10-16.8,12.7-29.2L141.9,263.3z"/>
		
			<linearGradient id="SVGID_00000155838301571370092410000013147732867949647539_" gradientUnits="userSpaceOnUse" x1="128.6881" y1="-195.1306" x2="140.244" y2="-195.1306" gradientTransform="matrix(1 0 0 1 0 370)">
			<stop  offset="0" style="stop-color:#363B39"/>
			<stop  offset="1" style="stop-color:#000000"/>
		</linearGradient>
		<path style="fill:url(#SVGID_00000155838301571370092410000013147732867949647539_);" d="M131.3,226.4c3.6-5.1,6.6-11.4,8.9-18.7
			l-0.4-12.2L129,123.4c0,0-0.9,18.5,0,45c0.6,16.8,2.3,39.9,2.2,54.7C131.4,224.3,131.4,225.4,131.3,226.4z"/>
		
			<linearGradient id="SVGID_00000158743531150021299280000008460115521493703315_" gradientUnits="userSpaceOnUse" x1="-2605.4448" y1="-84.1805" x2="-2592.6326" y2="-84.1805" gradientTransform="matrix(-1 0 0 1 -2334.1272 370)">
			<stop  offset="0" style="stop-color:#363B39"/>
			<stop  offset="1" style="stop-color:#000000"/>
		</linearGradient>
		<path style="fill:url(#SVGID_00000158743531150021299280000008460115521493703315_);" d="M259.1,263.2l11.7-5.9
			c0.7,10.4,0.6,36,0.4,57.1c-5.6-6.5-10-16.8-12.7-29.2L259.1,263.2z"/>
		
			<linearGradient id="SVGID_00000012452771715442433190000016527232397666060941_" gradientUnits="userSpaceOnUse" x1="-2606.3708" y1="-195.0806" x2="-2594.8149" y2="-195.0806" gradientTransform="matrix(-1 0 0 1 -2334.1272 370)">
			<stop  offset="0" style="stop-color:#363B39"/>
			<stop  offset="1" style="stop-color:#000000"/>
		</linearGradient>
		<path style="fill:url(#SVGID_00000012452771715442433190000016527232397666060941_);" d="M269.6,226.4c-3.6-5.1-6.6-11.4-8.9-18.6
			l0.4-12.2l10.8-72.1c0,0,0.9,18.5,0,45c-0.6,16.8-2.3,39.8-2.2,54.7C269.6,224.2,269.6,225.3,269.6,226.4z"/>
		
			<linearGradient id="SVGID_00000092443078577597071180000008580407074852983185_" gradientUnits="userSpaceOnUse" x1="180.2" y1="-303.0305" x2="216.2" y2="-303.0305" gradientTransform="matrix(1 0 0 1 0 370)">
			<stop  offset="0" style="stop-color:#19D866"/>
			<stop  offset="0.9972" style="stop-color:#19D866"/>
		</linearGradient>
		
			<rect x="180.2" y="66.2" style="fill:url(#SVGID_00000092443078577597071180000008580407074852983185_);" width="36" height="1.6"/>
		
			<linearGradient id="SVGID_00000153681925141632031700000017971879838152729000_" gradientUnits="userSpaceOnUse" x1="180.2" y1="-299.1306" x2="216.2" y2="-299.1306" gradientTransform="matrix(1 0 0 1 0 370)">
			<stop  offset="0" style="stop-color:#19D866"/>
			<stop  offset="0.9832" style="stop-color:#19D866"/>
		</linearGradient>
		
			<rect x="180.2" y="70.1" style="fill:url(#SVGID_00000153681925141632031700000017971879838152729000_);" width="36" height="1.6"/>
		
			<linearGradient id="SVGID_00000137854954749018810820000007256603327348402828_" gradientUnits="userSpaceOnUse" x1="180.2" y1="-295.2306" x2="216.2" y2="-295.2306" gradientTransform="matrix(1 0 0 1 0 370)">
			<stop  offset="0" style="stop-color:#19D866"/>
			<stop  offset="0.9832" style="stop-color:#19D866"/>
		</linearGradient>
		<rect x="180.2" y="74" style="fill:url(#SVGID_00000137854954749018810820000007256603327348402828_);" width="36" height="1.6"/>
		
			<linearGradient id="SVGID_00000090283971084051896340000000986097468795254912_" gradientUnits="userSpaceOnUse" x1="180.2" y1="-291.2306" x2="216.2" y2="-291.2306" gradientTransform="matrix(1 0 0 1 0 370)">
			<stop  offset="0" style="stop-color:#19D866"/>
			<stop  offset="0.9832" style="stop-color:#19D866"/>
		</linearGradient>
		<rect x="180.2" y="78" style="fill:url(#SVGID_00000090283971084051896340000000986097468795254912_);" width="36" height="1.6"/>
		<g>
			
				<linearGradient id="SVGID_00000053506900897522852640000003687414713983310501_" gradientUnits="userSpaceOnUse" x1="143.2778" y1="-9.6177" x2="257.016" y2="-9.6177" gradientTransform="matrix(1 0 0 1 0 370)">
				<stop  offset="0" style="stop-color:#363B39"/>
				<stop  offset="1" style="stop-color:#1B1C1C"/>
			</linearGradient>
			<path style="fill:url(#SVGID_00000053506900897522852640000003687414713983310501_);" d="M148.7,343.7
				c-4.8,11.1-5.4,22.1-5.4,22.2c-0.6,2.7,11,5.1,27.7,8.7c12.8,3.3,45.8,3.4,58.5,0.1c16.7-3.5,28-5.8,27.5-9.2
				c0,0-0.3-10.4-5-21.4c-8.6,3.1-25.4,8.4-51.7,8.5C175.8,352.5,157.9,347.1,148.7,343.7z"/>
			
				<linearGradient id="SVGID_00000098909689930032352050000014950516943529698751_" gradientUnits="userSpaceOnUse" x1="182.3713" y1="-46.7969" x2="206.855" y2="-9.2526" gradientTransform="matrix(1 0 0 1 0 370)">
				<stop  offset="0" style="stop-color:#5E5E5E"/>
				<stop  offset="1" style="stop-color:#000000"/>
			</linearGradient>
			<path style="fill:url(#SVGID_00000098909689930032352050000014950516943529698751_);" d="M253,343.8c-8.6,3.2-25.4,8.5-51.7,8.6
				c-5.4,0-10.4-0.2-15.1-0.7c-15,3.6-26.9,16.5-29.7,19.6c4.2,1.4,9.8,2,15.6,3.2c12.8,3.3,45.8,3.2,58.5-0.1
				c16.7-3.6,27.5-9.3,27.4-9.3C258.6,366.8,257.7,354.9,253,343.8z"/>
		</g>
	</g>
</g>
</svg>
