<svg width="54" height="55" viewBox="0 0 54 55" fill="none" xmlns="http://www.w3.org/2000/svg">
<g id="Group 1000001828">
<path id="Vector" d="M13.3311 11.8144C13.1345 11.6037 12.9378 11.3789 12.7271 11.1823C12.1933 10.6625 11.5611 10.6203 11.0975 11.0418C10.634 11.4773 10.6199 12.1094 11.1116 12.6713C11.533 13.1349 11.9685 13.5985 12.418 14.034C12.9518 14.5678 13.5559 14.5959 14.0335 14.1604C14.5111 13.7109 14.5111 13.1068 14.0335 12.5449C13.8088 12.292 13.5699 12.0532 13.3452 11.8144H13.3311Z" fill="black"/>
<path id="Vector_2" d="M42.1713 40.6822C41.9747 40.4715 41.778 40.2467 41.5673 40.05C41.0335 39.5303 40.4013 39.4881 39.9377 39.9096C39.4742 40.3451 39.4601 40.9772 39.9518 41.5391C40.3732 42.0027 40.8087 42.4663 41.2582 42.9018C41.7921 43.4356 42.3961 43.4637 42.8737 43.0282C43.3514 42.5787 43.3514 41.9746 42.8737 41.4127C42.649 41.1598 42.4102 40.921 42.1854 40.6822H42.1713Z" fill="black"/>
<path id="Vector_3" d="M45.9925 7.82462C40.9072 2.78146 34.1924 0 27.0421 0H26.9297C12.0531 0.0561912 -0.0280467 12.2216 4.89048e-05 27.1123C0.0281445 41.9467 12.1233 54.0138 26.9718 54.0138H26.9999C34.2486 54.0138 41.0477 51.1761 46.1611 46.0487C51.2324 40.9493 54.0279 34.2064 53.9998 27.042C53.9857 19.7653 51.134 12.938 45.9785 7.82462H45.9925ZM51.4852 26.9156C51.4852 33.504 48.9426 39.685 44.3068 44.3208C39.6851 48.9425 33.5181 51.4852 26.9437 51.4852H26.9156C13.4719 51.4711 2.52865 40.4858 2.52865 26.9858C2.52865 20.4536 5.0713 14.3007 9.69303 9.67893C14.3148 5.05721 20.4677 2.51456 26.9999 2.50051H27.014C40.4999 2.50051 51.4712 13.4437 51.4852 26.9015V26.9156Z" fill="black"/>
<path id="Vector_4" d="M28.0955 6.68671C28.0955 7.0379 28.1236 7.40314 28.0955 7.75434C28.0252 8.37244 27.5757 8.76578 27.0138 8.76578C26.4519 8.76578 25.9743 8.37244 25.9321 7.75434C25.89 7.0098 25.89 6.25122 25.9321 5.49264C25.9743 4.87454 26.4238 4.4812 27.0138 4.4812C27.5898 4.4812 28.0112 4.86049 28.1095 5.47859C28.1095 5.52074 28.1095 5.56288 28.1095 5.60503C28.1095 5.95622 28.1095 6.32146 28.1095 6.67266L28.0955 6.68671Z" fill="black"/>
<path id="Vector_5" d="M6.61647 28.0955C6.23718 28.0955 5.85789 28.1236 5.49264 28.0955C4.87454 28.0252 4.4812 27.5898 4.4812 27.0138C4.4812 26.4378 4.86049 25.9743 5.49264 25.9321C6.23718 25.89 6.99576 25.89 7.75434 25.9321C8.37244 25.9743 8.76578 26.4378 8.76578 27.0138C8.76578 27.5757 8.37244 28.0252 7.75434 28.0955C7.37505 28.1376 6.99576 28.0955 6.63051 28.0955H6.61647Z" fill="black"/>
<path id="Vector_6" d="M47.3409 28.1097C47.0459 28.1097 46.7509 28.1097 46.4559 28.1097C45.7114 28.0816 45.2478 27.6601 45.2338 27.028C45.2338 26.3958 45.6833 25.9463 46.4278 25.9182C47.06 25.8901 47.6921 25.9042 48.3102 25.9182C49.0688 25.9463 49.5043 26.3537 49.5183 26.9999C49.5183 27.6461 49.0829 28.0675 48.3383 28.1097C48.0012 28.1237 47.664 28.1097 47.3269 28.1097H47.3409Z" fill="black"/>
<path id="Vector_7" d="M28.0955 47.3832C28.0955 47.7344 28.1236 48.0996 28.0955 48.4508C28.0393 49.1111 27.6179 49.5325 27.0138 49.5325C26.4098 49.5325 25.9602 49.1392 25.9181 48.4789C25.8759 47.7625 25.8759 47.0601 25.9181 46.3437C25.9462 45.6834 26.4098 45.262 26.9857 45.2479C27.5757 45.2479 28.0253 45.6553 28.0814 46.3156C28.1095 46.6668 28.0814 47.032 28.0814 47.3832H28.0955Z" fill="black"/>
<path id="Vector_8" d="M27 24.8787C28.166 24.8787 29.1494 25.8761 29.1353 27.0561C29.1213 28.1939 28.1379 29.1632 27 29.1632C25.8481 29.1632 24.8788 28.1939 24.8648 27.0561C24.8507 25.8901 25.8341 24.8787 27 24.8787Z" fill="#4284C5"/>
<path id="Vector_9" d="M42.1292 13.4157C41.9326 13.6264 41.7359 13.8511 41.5252 14.0478C40.9914 14.5676 40.3592 14.6097 39.8956 14.1883C39.4321 13.7528 39.418 13.1207 39.9097 12.5587C40.3311 12.0952 40.7666 11.6316 41.2161 11.1961C41.7499 10.6623 42.354 10.6342 42.8316 11.0697C43.3092 11.5192 43.3092 12.1233 42.8316 12.6852C42.6069 12.938 42.368 13.1768 42.1433 13.4157H42.1292Z" fill="black"/>
<path id="Vector_10" d="M42.1292 13.4157C41.9326 13.6264 41.7359 13.8511 41.5252 14.0478C40.9914 14.5676 40.3592 14.6097 39.8956 14.1883C39.4321 13.7528 39.418 13.1207 39.9097 12.5587C40.3311 12.0952 40.7666 11.6316 41.2161 11.1961C41.7499 10.6623 42.354 10.6342 42.8316 11.0697C43.3092 11.5192 43.3092 12.1233 42.8316 12.6852C42.6069 12.938 42.368 13.1768 42.1433 13.4157H42.1292Z" fill="black"/>
<path id="Vector_11" d="M13.2894 42.2698C13.0927 42.4805 12.896 42.7053 12.6853 42.9019C12.1515 43.4217 11.5194 43.4638 11.0558 43.0424C10.5922 42.6069 10.5782 41.9748 11.0698 41.4129C11.4913 40.9493 11.9267 40.4857 12.3763 40.0502C12.9101 39.5164 13.5142 39.4883 13.9918 39.9238C14.4694 40.3733 14.4694 40.9774 13.9918 41.5393C13.767 41.7922 13.5282 42.031 13.3034 42.2698H13.2894Z" fill="black"/>
<path id="Vector_12" d="M36.1028 31.3829L31.1158 28.2783C31.2422 27.8709 31.3265 27.4495 31.3265 27.014C31.3265 25.0192 29.9639 23.3616 28.1236 22.8699V13.7248C28.1236 13.1207 27.6319 12.615 27.0138 12.615C26.3957 12.615 25.9041 13.1067 25.9041 13.7248V22.8699C24.0638 23.3616 22.7012 25.0192 22.7012 27.014C22.7012 29.4021 24.6257 31.3267 27.0138 31.3267C28.1517 31.3267 29.1772 30.8771 29.9498 30.1607L34.9368 33.2653C35.4566 33.5884 36.1309 33.4338 36.454 32.9141C36.7771 32.3943 36.6225 31.72 36.1028 31.3969V31.3829ZM27.0138 29.1633C25.8338 29.1633 24.8786 28.208 24.8786 27.014C24.8786 25.8199 25.8338 24.8787 27.0138 24.8787C28.1939 24.8787 29.1491 25.834 29.1491 27.014C29.1491 28.194 28.1939 29.1633 27.0138 29.1633Z" fill="black"/>
</g>
</svg>
