<svg width="58" height="55" viewBox="0 0 58 55" fill="none" xmlns="http://www.w3.org/2000/svg">
<g id="Group">
<path id="Vector" d="M22.9736 19.7472C24.0521 19.7654 25.1261 19.7973 26.2047 19.8018C28.562 19.8109 30.9239 19.8109 33.2812 19.8018C33.6634 19.8018 33.8637 19.9065 34.1094 20.2478C36.1937 23.1922 38.9242 25.2218 42.5102 25.9909C42.6513 26.0228 42.7833 26.1001 42.9152 26.1593C42.9562 26.2048 42.9972 26.2503 43.0336 26.2913C43.0427 32.6033 43.0563 38.9107 43.0472 45.2226C43.0472 46.7699 43.0973 48.3354 42.897 49.8645C42.5739 52.3583 40.8901 54.1968 38.3417 54.8158C34.6373 55.7123 31.6975 53.2275 30.983 49.7052C30.9648 49.6096 30.9967 49.505 31.0058 49.4048C31.0467 49.0226 31.1286 48.6357 31.1241 48.2535C31.1059 46.9702 31.0558 45.6823 31.0149 44.3989C30.8055 44.1987 30.6007 43.9939 30.3914 43.7937C30.132 43.7482 29.8772 43.6617 29.6178 43.6617C24.8986 43.6526 20.1794 43.6526 15.4602 43.6617C13.0255 43.6617 10.5908 43.6799 8.16071 43.689C8.1152 43.4569 8.02873 43.2294 8.02418 42.9973C8.01508 41.2361 8.00598 39.4795 8.02418 37.7184C8.06969 31.6976 8.12885 25.6769 8.17891 19.6562C8.21532 19.6016 8.24717 19.5424 8.28358 19.4878C8.30178 16.5161 8.31543 13.5445 8.33364 10.5682C8.33364 10.2178 8.35184 9.87196 8.36094 9.52154C8.39735 9.47149 8.43831 9.42598 8.47471 9.37592L8.45651 9.33496C8.75686 9.34406 9.05722 9.36682 9.35757 9.36682C16.8619 9.37592 24.3661 9.38047 31.8704 9.38502C31.4062 11.5193 31.429 13.64 32.0434 15.7425C32.2618 16.4888 32.5212 17.2215 32.7669 17.9633C29.8089 17.9678 26.8554 17.9724 23.8974 17.9815C23.6335 17.9815 23.365 18.0498 23.101 18.0862C22.8553 18.2773 22.4958 18.4275 22.3956 18.6778C22.25 19.0418 22.3456 19.4605 22.8098 19.6425C22.8644 19.6744 22.919 19.7108 22.969 19.7427L22.9736 19.7472ZM36.7307 26.8738C36.5213 26.8283 36.312 26.7464 36.0981 26.7418C31.9296 26.7327 27.7565 26.7327 23.5879 26.7418C23.3786 26.7418 23.1693 26.8283 22.9599 26.8738C22.7597 27.1377 22.4639 27.3744 22.3911 27.6702C22.2819 28.0843 22.5049 28.4211 22.9736 28.5212C23.0236 28.5212 23.0737 28.5212 23.1238 28.5212C24.3479 28.5303 25.5767 28.553 26.8008 28.553C30.1047 28.5485 33.4131 28.5303 36.717 28.5212C36.7716 28.4848 36.8263 28.4484 36.8809 28.412C37.4179 28.3846 37.3906 27.9569 37.2995 27.6565C37.2085 27.3653 36.9264 27.1377 36.7307 26.8783V26.8738ZM22.9599 35.6341C22.341 35.7251 22.2864 36.1893 22.382 36.6444C22.473 37.0903 22.8098 37.3179 23.3058 37.3179C27.6518 37.3088 31.9978 37.327 36.3393 37.286C36.667 37.286 37.1585 36.9902 37.2813 36.7081C37.4634 36.2803 37.3587 35.757 36.7307 35.6204C36.5396 35.5795 36.353 35.5021 36.1618 35.5021C31.9705 35.4976 27.7792 35.493 23.5879 35.5021C23.3786 35.5021 23.1647 35.5886 22.9554 35.6341H22.9599ZM13.7582 27.6338C13.7582 29.3858 15.0233 30.651 16.7617 30.6783C18.1634 30.701 19.8335 29.4768 19.8062 27.8249C19.7744 26.0546 18.5457 24.7759 16.8254 24.7713C15.0233 24.7713 13.7628 25.9409 13.7628 27.6292L13.7582 27.6338ZM16.7845 33.5362C14.9187 33.5362 13.8083 34.6284 13.7354 36.3668C13.6581 38.1461 15.2418 39.3931 16.6753 39.4113C18.2499 39.434 19.7425 38.1598 19.8244 36.5488C19.9018 35.0334 18.5957 33.3086 16.7845 33.5362ZM16.7344 21.9088C18.5866 21.9088 19.7926 20.7211 19.7971 18.8826C19.8017 17.267 18.3955 15.9609 16.6116 16.0292C15.0051 16.0929 13.8128 17.4263 13.7127 18.9099C13.608 20.4708 15.2372 22.15 16.7344 21.9043V21.9088Z" fill="#000101"/>
<path id="Vector_2" d="M31.8797 54.9478C29.5679 54.9569 27.2516 54.9705 24.9398 54.9751C18.423 54.9842 11.9108 55.0024 5.39403 54.9751C4.25177 54.9705 3.20964 54.4699 2.33588 53.7418C0.793156 52.4539 -0.080599 50.8384 0.00586635 48.7678C0.0513744 47.6938 0.014968 46.6152 0.014968 45.4866C0.201551 45.4775 0.342626 45.4639 0.488252 45.4639C9.89478 45.4639 19.3059 45.4639 28.7124 45.4639C28.8626 45.4639 29.0127 45.4821 29.1629 45.4912C29.1993 45.5367 29.2403 45.5867 29.2767 45.6322C29.2858 46.8382 29.2903 48.0396 29.2994 49.2456C29.3131 51.2707 30.1231 52.9499 31.502 54.388C31.6385 54.5291 31.7614 54.6838 31.8888 54.834C31.8706 54.8704 31.8706 54.9113 31.8797 54.9523V54.9478Z" fill="black"/>
<path id="Vector_3" d="M31.8749 9.3849C24.3706 9.38035 16.8663 9.3758 9.362 9.3667C9.06164 9.3667 8.76129 9.3485 8.46094 9.33485C8.72488 9.29389 8.98883 9.22108 9.25278 9.22108C16.5159 9.21652 23.779 9.21197 31.0375 9.22108C31.3151 9.22108 31.5927 9.32574 31.8749 9.38035V9.3849Z" fill="#A5A6A7"/>
<path id="Vector_4" d="M8.16211 43.689C10.5968 43.6799 13.0315 43.6617 15.4616 43.6617C20.1808 43.6571 24.9 43.6617 29.6192 43.6617C29.8786 43.6617 30.1334 43.7482 30.3928 43.7937C23.1479 43.7982 15.903 43.8028 8.6536 43.8028C8.48977 43.8028 8.32594 43.7254 8.16211 43.689Z" fill="#A5A7A7"/>
<path id="Vector_5" d="M23.1055 18.0863C23.3694 18.0498 23.6379 17.9816 23.9019 17.9816C26.8599 17.9679 29.8134 17.9679 32.7714 17.9634C32.6758 18.018 32.5848 18.1227 32.4892 18.1227C29.3628 18.1181 26.2319 18.1045 23.1055 18.0908V18.0863Z" fill="#737575"/>
<path id="Vector_6" d="M31.015 44.3989C31.0514 45.6823 31.1014 46.9701 31.1242 48.2535C31.1287 48.6357 31.0468 49.0225 31.0059 49.4048C31.0059 47.7347 31.0104 46.0691 31.015 44.3989Z" fill="#616262"/>
<path id="Vector_7" d="M43.0343 26.2868C42.9934 26.2412 42.9524 26.1957 42.916 26.1548C42.957 26.2003 42.9979 26.2458 43.0343 26.2868Z" fill="#323333"/>
<path id="Vector_8" d="M22.9737 19.7471C22.9191 19.7152 22.8645 19.6788 22.8145 19.647C22.8691 19.6788 22.9237 19.7152 22.9737 19.7471Z" fill="#E4E5E6"/>
<path id="Vector_9" d="M31.879 54.9479C31.8699 54.907 31.8699 54.8705 31.8881 54.8296C31.9245 54.866 31.9609 54.9024 32.0019 54.9343C31.9609 54.9343 31.92 54.9434 31.879 54.9479Z" fill="#373838"/>
<path id="Vector_10" d="M36.7394 35.6206C37.3674 35.7571 37.472 36.2805 37.29 36.7083C37.1671 36.9904 36.6802 37.2817 36.348 37.2862C32.002 37.3226 27.6559 37.309 23.3145 37.3181C22.8184 37.3181 22.4817 37.0905 22.3906 36.6445C22.2951 36.194 22.3497 35.7253 22.9686 35.6343C27.5604 35.6343 32.1521 35.6252 36.7439 35.6206H36.7394Z" fill="#F7FAFB"/>
<path id="Vector_11" d="M36.7224 28.5165C33.4185 28.5302 30.1101 28.5438 26.8062 28.5484C25.582 28.5484 24.3533 28.5302 23.1291 28.5165C23.0791 28.5165 23.029 28.5165 22.979 28.5165C22.5102 28.4164 22.2872 28.0797 22.3965 27.6655C22.4738 27.3697 22.7696 27.1331 22.9653 26.8691C27.5571 26.8691 32.1443 26.8691 36.7361 26.8691C36.9318 27.124 37.2139 27.3561 37.3049 27.6473C37.3959 27.9477 37.4232 28.3755 36.8862 28.4028C36.8316 28.4392 36.777 28.4756 36.7224 28.512V28.5165Z" fill="#F7FAFB"/>
<path id="Vector_12" d="M13.7643 27.6338C13.7643 25.9455 15.0249 24.7713 16.827 24.7759C18.5518 24.7759 19.7805 26.0592 19.8078 27.8295C19.8351 29.4769 18.165 30.701 16.7633 30.6828C15.0249 30.6555 13.7598 29.3904 13.7598 27.6384L13.7643 27.6338ZM16.7223 26.5871C15.9942 26.5871 15.3708 27.0832 15.4345 27.6839C15.5209 28.5713 16.1034 28.908 16.7542 28.8671C17.6052 28.8125 18.1422 28.3983 18.1467 27.6611C18.1513 27.0285 17.5688 26.5917 16.7269 26.5871H16.7223Z" fill="#F5F8F9"/>
<path id="Vector_13" d="M16.7898 33.5365C18.601 33.3089 19.9071 35.0337 19.8297 36.5491C19.7478 38.1555 18.2551 39.4297 16.6805 39.4115C15.247 39.3933 13.6679 38.1464 13.7407 36.3671C13.8135 34.6286 14.9239 33.5365 16.7898 33.5365ZM16.7442 37.6231C17.4496 37.614 18.1595 36.9769 18.1413 36.3716C18.1186 35.7072 17.4405 35.1838 16.6305 35.202C16.0025 35.2157 15.42 35.7982 15.4245 36.408C15.4245 37.0133 16.0935 37.6276 16.7442 37.6231Z" fill="#F5F7F9"/>
<path id="Vector_14" d="M16.7394 21.9045C15.2467 22.1503 13.613 20.471 13.7177 18.9101C13.8178 17.4265 15.0055 16.0931 16.6165 16.0294C18.4005 15.9612 19.8112 17.2672 19.8021 18.8828C19.793 20.7213 18.587 21.9091 16.7394 21.9091V21.9045ZM16.7576 17.827C15.9658 17.7496 15.4788 18.2411 15.4333 19.0512C15.4015 19.6291 16.1478 20.2526 16.794 20.248C17.4448 20.248 18.1502 19.6018 18.1456 19.0238C18.1411 18.3685 17.5085 17.8224 16.7622 17.827H16.7576Z" fill="#F5F8F9"/>
<path id="Vector_15" d="M36.7317 26.8742C32.1399 26.8742 27.5527 26.8742 22.9609 26.8742C23.1703 26.8286 23.3796 26.7422 23.5889 26.7422C27.7575 26.7331 31.9306 26.7331 36.0991 26.7422C36.3085 26.7422 36.5178 26.8286 36.7317 26.8742Z" fill="#8A8A8A"/>
<path id="Vector_16" d="M36.7382 35.6208C32.1464 35.6208 27.5547 35.6299 22.9629 35.6344C23.1722 35.5889 23.3861 35.507 23.5955 35.5024C27.7867 35.4933 31.978 35.4933 36.1693 35.5024C36.3605 35.5024 36.5471 35.5798 36.7382 35.6208Z" fill="#7C7D7E"/>
<path id="Vector_17" d="M16.7202 26.5869C17.5621 26.5869 18.1446 27.0283 18.14 27.6609C18.1355 28.3981 17.5985 28.8123 16.7475 28.8669C16.0967 28.9078 15.5188 28.5711 15.4277 27.6837C15.3686 27.0875 15.9875 26.5869 16.7156 26.5869H16.7202Z" fill="#060606"/>
<path id="Vector_18" d="M16.7436 37.6232C16.0928 37.6323 15.4238 37.0179 15.4238 36.4081C15.4238 35.7983 16.0063 35.2158 16.6298 35.2021C17.4398 35.1839 18.1179 35.7073 18.1407 36.3717C18.1589 36.9769 17.4489 37.614 16.7436 37.6232Z" fill="#060606"/>
<path id="Vector_19" d="M16.7575 17.8268C17.5039 17.8268 18.1364 18.3684 18.141 19.0237C18.1455 19.6016 17.4402 20.2433 16.7894 20.2479C16.1477 20.2479 15.3969 19.6289 15.4287 19.051C15.4742 18.2409 15.9612 17.7495 16.753 17.8268H16.7575Z" fill="#060606"/>
<path id="Vector_20" d="M57.8875 10.7913C57.3232 5.41226 52.5176 -0.0987739 45.5594 0.00134388C38.4829 -0.0441642 33.304 5.61704 33.2949 12.1975C33.2858 19.1329 38.5648 24.1707 44.7903 24.6167C51.662 25.1036 58.7886 19.3696 57.8875 10.7913ZM51.0522 11.4284C50.9157 11.5376 50.7564 11.5923 50.5835 11.5968C49.7962 11.5968 49.0089 11.5968 48.2261 11.5968C48.1715 11.5968 48.1533 11.615 48.1442 11.6651C47.9804 12.3522 47.6709 12.9575 47.1567 13.4535C46.9565 13.6447 46.7653 13.8495 46.5378 14.0087C46.2465 14.2135 45.9371 14.3774 45.6003 14.482C45.4046 14.5412 45.2044 14.5958 45.0042 14.6367C44.8494 14.6641 44.6902 14.6686 44.5309 14.6732C44.3352 14.6823 44.135 14.6777 43.9393 14.6777C43.9302 14.6914 43.9256 14.705 43.9165 14.7141C44.0348 14.8279 44.1577 14.9326 44.2669 15.0463C45.2408 16.0156 46.2147 16.985 47.184 17.9588C47.2523 18.0317 47.316 18.1136 47.3706 18.2C47.4571 18.3411 47.4662 18.5004 47.448 18.6597C47.4161 18.9191 47.2568 19.0874 47.0566 19.224C46.9656 19.2831 46.8563 19.3059 46.7471 19.3059C46.6743 19.3059 46.597 19.3059 46.5241 19.2968C46.3785 19.274 46.2693 19.1876 46.1646 19.0874C46.0053 18.9282 45.8415 18.7643 45.6822 18.6005C44.3397 17.258 42.9973 15.9155 41.6548 14.573C41.582 14.5002 41.5046 14.4229 41.4409 14.3409C41.3362 14.2044 41.2816 14.0451 41.2998 13.8722C41.3135 13.7766 41.3544 13.6856 41.3817 13.5901C41.4181 13.4672 41.4909 13.3716 41.5911 13.2943C41.7003 13.2123 41.8277 13.1623 41.9597 13.1577C42.3465 13.1486 42.7379 13.1486 43.1247 13.1441H44.1759C44.408 13.1441 44.6355 13.1304 44.8676 13.0895C45.2272 13.0258 45.5457 12.8847 45.8142 12.6435C46.0099 12.466 46.2101 12.2885 46.3512 12.0564C46.424 11.9336 46.4877 11.8016 46.5514 11.6742C46.5605 11.656 46.5605 11.6287 46.5696 11.6014H42.0188C41.7412 11.6014 41.4318 11.4057 41.3408 11.1008C41.2497 10.7868 41.2907 10.5001 41.5228 10.2634C41.6593 10.1314 41.8322 10.0586 42.0234 10.0586C43.4978 10.0541 44.9723 10.0541 46.4468 10.0541H46.5696C46.5605 10.0222 46.556 9.99947 46.5469 9.97672C46.4422 9.72187 46.3057 9.48523 46.1009 9.2941C45.978 9.18033 45.8597 9.0529 45.7323 8.94368C45.5594 8.79806 45.3546 8.70249 45.1407 8.62968C44.9769 8.57962 44.813 8.55232 44.6447 8.53866C44.499 8.52501 44.3488 8.51591 44.2032 8.51591C43.4751 8.51136 42.747 8.52046 42.0234 8.50681C41.7048 8.50226 41.4136 8.32933 41.3226 7.94251C41.2589 7.67401 41.3044 7.42827 41.4864 7.21893C41.6138 7.06875 41.7822 6.98229 41.987 6.98229C44.8267 6.97774 47.6664 6.97318 50.5061 6.97318C50.6608 6.97318 50.8201 6.98229 50.9612 7.0733C51.1705 7.20073 51.2843 7.38731 51.3116 7.63305C51.3434 7.86514 51.2888 8.06993 51.1478 8.25196C51.0476 8.38849 50.8975 8.45675 50.7336 8.4886C50.629 8.50681 50.5197 8.51136 50.4105 8.51136C49.4594 8.51591 48.5128 8.51136 47.5663 8.51136H47.4571C47.4798 8.54321 47.498 8.57052 47.5162 8.59782C47.7073 8.88908 47.8666 9.20308 47.994 9.53074C48.0532 9.68547 48.0942 9.8493 48.1397 10.0131C48.1533 10.0541 48.167 10.0586 48.1988 10.0586C48.6221 10.0541 49.0407 10.0586 49.4594 10.0586C49.828 10.0586 50.2012 10.0541 50.5698 10.0586C50.9339 10.0632 51.2342 10.2725 51.307 10.6639C51.3616 10.9597 51.2934 11.2327 51.0522 11.433V11.4284Z" fill="#020202"/>
</g>
</svg>
