<svg width="14" height="14" viewBox="0 0 14 14" fill="none" xmlns="http://www.w3.org/2000/svg">
<path id="Vector" d="M11.2265 1.49749H10.5264V0.158691H9.1263V1.49749H3.52574V0.158691H2.1256V1.49749H1.42553C1.05419 1.49749 0.698059 1.63854 0.435482 1.88961C0.172905 2.14069 0.0253906 2.48122 0.0253906 2.83629V12.2079C0.0253906 12.5629 0.172905 12.9035 0.435482 13.1545C0.698059 13.4056 1.05419 13.5467 1.42553 13.5467H4.92588V12.2079H1.42553V4.84448H11.2265V5.51388H12.6267V2.83629C12.6267 2.48122 12.4791 2.14069 12.2166 1.88961C11.954 1.63854 11.5979 1.49749 11.2265 1.49749ZM13.1167 8.42577L12.4166 9.09517L10.9815 7.75637L11.6816 7.08697C11.8216 6.9464 12.0596 6.9397 12.2206 7.08697L13.1167 7.9438C13.2497 8.07768 13.2497 8.29189 13.1167 8.42577ZM6.32602 12.1677L10.5754 8.11115L12.0106 9.44995L7.76817 13.5467H6.32602V12.1677Z" fill="#313030"/>
</svg>
