<svg width="13" height="13" viewBox="0 0 13 13" fill="none" xmlns="http://www.w3.org/2000/svg">
<g id="XMLID_878_">
<g id="XMLID_879_">
<path id="XMLID_880_" d="M11.5558 12.205C5.52456 12.205 0.617188 7.51263 0.617188 1.74564C0.617188 1.25136 1.03785 0.849121 1.55478 0.849121H3.7425C4.25943 0.849121 4.6801 1.25136 4.6801 1.74564C4.6801 2.44492 4.79511 3.13165 5.02075 3.78551C5.12764 4.11244 5.03826 4.46089 4.78886 4.69996L3.79813 5.95867C4.61321 7.42776 5.60331 8.37388 7.14972 9.16282L8.49798 8.1892C8.71675 7.97643 9.09304 7.89215 9.42495 8.00153C10.1056 8.21669 10.8232 8.32607 11.5558 8.32607C12.0727 8.32607 12.4934 8.7283 12.4934 9.22258V11.3085C12.4934 11.8028 12.0727 12.205 11.5558 12.205ZM1.55478 1.4468C1.38289 1.4468 1.24225 1.58068 1.24225 1.74564C1.24225 7.18331 5.86897 11.6073 11.5558 11.6073C11.7277 11.6073 11.8683 11.4734 11.8683 11.3085V9.22258C11.8683 9.05762 11.7277 8.92375 11.5558 8.92375C10.757 8.92375 9.97313 8.80421 9.22555 8.56813C9.11429 8.53286 8.99115 8.56036 8.90739 8.63925L7.36849 9.75452C7.27286 9.82385 7.14347 9.83461 7.03783 9.78201C5.2039 8.8837 4.07816 7.80669 3.15119 6.06565C3.09681 5.96405 3.10806 5.84152 3.17994 5.75008L4.31756 4.30967C4.43195 4.19612 4.46132 4.08076 4.42507 3.969C4.18005 3.25836 4.05503 2.50887 4.05503 1.74564C4.05503 1.58068 3.91439 1.4468 3.7425 1.4468H1.55478Z" fill="black"/>
</g>
</g>
</svg>
