<svg width="269" height="219" viewBox="0 0 269 219" fill="none" xmlns="http://www.w3.org/2000/svg">
<path d="M199.49 143.782C200.15 142.462 200.755 141.253 201.414 139.823C197.84 140.263 194.486 140.703 191.132 141.143C187.558 141.638 183.93 142.133 180.356 142.572C176.122 143.122 171.833 143.672 167.599 144.332C166.775 144.442 165.675 144.112 165.125 145.157C165.125 145.212 165.015 145.157 164.905 145.212C164.96 145.047 165.015 144.882 165.125 144.607C136.094 148.456 107.118 152.25 77.9762 156.098C80.6704 159.397 83.4746 162.257 86.6086 164.841C88.698 166.545 90.9523 168.03 93.0967 169.624C94.3063 170.504 95.571 171.384 96.8356 172.264C97.0005 172.374 97.2755 172.538 97.4954 172.538C97.8253 172.538 98.1552 172.374 98.4851 172.319C98.4851 172.374 98.5401 172.483 98.5401 172.538C98.4301 172.703 98.2652 172.813 98.1002 173.033C102.774 175.783 107.667 177.817 112.726 179.466C117.784 181.116 122.953 182.106 128.231 182.381C132.135 182.6 136.094 182.49 140.053 182.49C140.273 182.49 140.493 182.216 140.712 182.051C140.767 181.996 140.877 181.996 140.987 181.941V182.435C141.922 182.326 142.857 182.161 143.737 182.106C144.561 182.106 145.111 181.831 145.496 181.006C145.441 181.281 145.441 181.556 145.386 181.886C146.266 181.776 147.146 181.611 148.025 181.446C148.245 181.391 148.465 181.061 148.685 181.061C150.17 181.281 150.994 180.896 151.434 179.576C151.434 179.521 151.544 179.521 151.599 179.521C151.819 180.566 151.819 180.566 152.864 180.291C154.128 179.961 155.338 179.631 156.603 179.246C157.647 178.862 159.022 178.972 159.297 177.377C159.407 177.432 159.462 177.542 159.572 177.597C159.462 177.872 159.352 178.092 159.187 178.422C176.892 171.989 190.143 160.442 199.325 144.112C199.105 143.892 198.885 143.782 198.72 143.617C198.775 143.562 198.775 143.507 198.83 143.452C198.995 143.617 199.215 143.672 199.49 143.782ZM96.0658 165.061C96.3407 165.391 96.5607 165.666 96.7806 165.94C96.8906 165.611 96.9456 165.281 97.0005 165.006C97.2755 165.281 97.4954 165.611 97.8253 165.995C96.4507 166.6 96.2858 166.49 96.0658 165.061ZM97.1655 158.793C96.7256 158.518 96.3407 158.078 95.9558 157.693C96.0108 157.638 96.0658 157.528 96.1758 157.473C96.8356 157.803 97.4404 158.133 98.2652 158.518C97.7703 158.628 97.3854 158.903 97.1655 158.793ZM122.293 165.83C122.293 165.83 121.303 169.349 120.918 170.449C120.369 169.624 118.389 166.38 118.389 166.38C118.389 166.38 114.485 166.435 113.441 166.435C114.485 165.061 115.475 163.851 116.355 162.751C115.915 161.212 115.475 159.727 115.035 158.133C115.86 158.408 119.434 159.672 119.434 159.672C119.434 159.672 122.623 157.583 123.338 157.033C123.338 157.308 123.393 157.473 123.393 157.638C123.338 158.848 123.283 161.212 123.283 161.212L123.173 162.202C123.173 162.202 126.197 164.016 127.077 164.676C125.867 165.006 122.293 165.83 122.293 165.83ZM145.221 167.315C145.221 167.315 143.737 172.593 143.132 174.298C142.307 173.088 139.283 168.14 139.283 168.14C139.283 168.14 133.455 168.25 131.86 168.25C133.455 166.215 134.884 164.401 136.259 162.696C135.599 160.332 134.939 158.133 134.279 155.714C135.489 156.153 140.877 158.023 140.877 158.023C140.877 158.023 145.606 154.889 146.761 154.064C146.816 154.449 146.816 154.724 146.816 154.944C146.761 156.703 146.651 160.277 146.651 160.277L146.431 161.762C146.431 161.762 150.994 164.511 152.314 165.501C150.664 166.05 145.221 167.315 145.221 167.315ZM165.015 160.167C165.015 160.167 164.025 163.686 163.641 164.786C163.091 163.961 161.111 160.717 161.111 160.717C161.111 160.717 157.208 160.827 156.163 160.827C157.208 159.452 158.197 158.243 159.077 157.088C158.637 155.549 158.197 154.064 157.757 152.469C158.527 152.744 162.156 154.009 162.156 154.009C162.156 154.009 165.345 151.92 166.06 151.37C166.06 151.645 166.115 151.81 166.115 151.975C166.06 153.184 166.005 155.549 166.005 155.549L165.895 156.538C165.895 156.538 168.919 158.353 169.799 159.013C168.644 159.287 165.015 160.167 165.015 160.167Z" fill="#BF2026"/>
<path d="M46.196 83.3551C46.5259 83.1901 46.8558 82.9152 47.1857 82.8602C49.9349 82.4753 52.739 82.0904 55.5432 81.7605C56.6429 81.6506 57.7975 81.7605 58.8972 81.5956C60.4917 81.3756 62.0312 80.9358 63.6258 80.7158C65.8251 80.3859 68.0794 80.221 70.2788 79.9461C72.973 79.5612 75.6122 79.1213 78.3064 78.7914C82.0453 78.2966 85.7292 77.8017 89.468 77.3069C92.932 76.867 96.451 76.3721 99.9149 75.9323C103.049 75.4924 106.238 75.1075 109.372 74.6677C110.472 74.5027 111.626 74.2828 112.726 74.2828C114.046 74.2828 115.255 73.8979 116.575 73.7329C117.95 73.568 119.324 73.348 120.699 73.1831C121.139 73.1281 121.578 73.2931 121.963 73.2381C122.953 73.0181 123.998 72.7432 124.987 72.6333C130.156 71.9185 135.379 71.2587 140.548 70.5439C142.527 70.269 144.507 69.9391 146.486 69.7741C149.235 69.5542 151.984 68.9494 154.734 68.6744C155.448 68.6195 156.163 68.5095 156.988 68.3995C156.878 68.6195 156.823 68.7294 156.768 68.8944C157.098 68.8944 157.483 69.0043 157.703 68.8394C158.307 68.2896 158.857 68.2346 159.462 68.7844C159.517 68.8394 159.627 68.7844 159.792 68.7294C159.572 68.5645 159.407 68.4545 159.077 68.1796C160.397 68.0146 161.496 67.7947 162.596 67.6847C167.27 67.0799 171.888 66.4201 176.562 65.8153C179.366 65.4304 182.17 65.1555 185.029 64.8256C186.349 64.6606 187.724 64.2208 189.043 64.2758C190.308 64.3857 191.463 63.8359 192.672 63.7259C197.676 63.1761 202.679 62.4063 207.628 61.7465C208.123 61.6915 208.617 61.5816 209.167 61.5266C209.112 61.8015 209.112 61.9664 209.057 62.1314C209.167 62.1314 209.332 62.1314 209.332 62.0764C209.552 61.4166 210.047 61.4166 210.597 61.3616C213.181 61.0317 215.765 60.6468 218.349 60.3169C221.484 59.9321 224.563 59.5472 227.697 59.1073C228.356 58.9973 228.906 58.9424 229.236 59.7121C229.181 59.4922 229.071 59.2173 229.016 58.8874C232.04 58.5025 235.064 58.1176 238.089 57.7327C240.288 57.4578 242.432 57.0729 244.632 57.0179C253.869 56.743 262.501 63.2861 264.261 73.1831C264.866 76.702 265.25 80.276 265.69 83.7949C266.24 87.8637 266.79 91.9875 267.285 96.0563C267.78 99.6852 268.275 103.314 268.659 106.943C268.879 109.087 269.044 111.287 268.989 113.486C268.879 117.445 267.34 120.964 264.921 124.043C261.237 128.716 256.343 131.026 250.515 131.631C246.941 132.015 243.367 132.565 239.848 133.005C236.164 133.5 232.48 133.94 228.796 134.435C224.728 134.985 220.659 135.534 216.59 136.084C214.391 136.359 212.136 136.524 209.937 136.799C207.958 137.074 206.033 137.404 204.109 137.679C200.04 138.229 195.916 138.778 191.847 139.328C187.449 139.933 183.105 140.483 178.706 141.033C178.266 140.758 178.486 139.603 177.277 139.878C177.552 140.208 177.717 140.428 178.047 140.758C177.772 140.923 177.552 141.198 177.277 141.198C174.803 141.528 172.328 141.858 169.854 142.187C166.225 142.682 162.596 143.177 158.967 143.617C154.898 144.167 150.775 144.662 146.706 145.212C143.187 145.651 139.668 146.146 136.094 146.641C132.465 147.136 128.781 147.576 125.152 148.071C121.578 148.566 117.95 149.06 114.376 149.5C111.187 149.94 107.997 150.325 104.808 150.71C102.719 150.985 100.685 151.26 98.6503 151.535C95.0214 152.03 91.4474 152.469 87.8185 152.964C86.279 153.184 84.6845 153.349 83.1449 153.569C82.925 153.569 82.7051 153.624 82.4851 153.569C82.1002 153.459 81.8253 153.349 81.4404 153.734C81.1655 154.009 80.5057 153.899 80.0109 154.009C79.2411 154.119 78.4713 154.229 77.7016 154.339C77.4816 153.844 77.2617 153.459 76.9868 152.909C76.6019 153.184 76.327 153.404 75.8871 153.734C76.272 153.954 76.5469 154.119 77.0418 154.394C75.2823 154.614 73.7427 154.834 72.2032 155.054C68.5193 155.548 64.8904 156.043 61.2065 156.483C57.9625 156.868 54.7734 157.473 51.4744 157.748C51.1995 157.748 50.9246 157.583 50.5397 157.473C50.5397 157.528 50.4847 157.748 50.4847 157.913C48.7252 158.133 46.9658 158.408 45.2613 158.628C41.6323 159.122 37.9485 159.562 34.3195 160.057C31.8453 160.387 29.316 160.717 26.8418 161.047C21.0135 161.762 15.8451 160.222 11.3914 156.373C7.59753 153.129 5.39819 148.95 4.73839 144.002C4.46347 142.077 4.24354 140.208 3.96862 138.229C4.18855 138.229 4.40849 138.174 4.57344 138.174C4.40849 137.844 4.24354 137.569 4.18855 137.294C3.85865 135.974 3.52875 134.6 3.30882 133.225C2.92393 130.751 2.64902 128.277 2.31911 125.802C2.26413 125.417 2.42908 124.978 2.48406 124.538C2.48406 124.428 2.53905 124.373 2.53905 124.263C1.32941 121.459 1.54934 118.435 0.999508 115.465C0.614624 113.321 0.394689 111.177 0.174755 108.977C-0.649998 102.104 1.43938 96.2762 6.55285 91.5476C8.64222 89.6232 11.0615 88.3036 13.8107 87.3688C13.6457 87.5888 13.5907 87.6987 13.4258 87.9187C13.6457 87.9187 13.8657 87.9737 13.9206 87.9187C14.6354 86.764 15.9001 86.819 16.9447 86.709C22.3881 85.9393 27.8315 85.2795 33.2749 84.5647C37.3436 84.0149 41.4674 83.465 45.5362 82.9152C45.8111 82.8602 46.086 82.9702 46.306 83.0252C46.196 83.2451 46.196 83.3001 46.196 83.3551ZM31.5154 88.4685C29.371 88.7434 27.2267 89.0184 25.0823 89.2933C21.9482 89.7331 18.8142 90.0081 15.7351 90.6679C8.53226 92.2624 3.30882 98.9704 3.41879 106.338C3.47377 108.592 3.85865 110.847 4.13357 113.101C4.57344 116.73 5.01331 120.359 5.50816 123.988C6.11298 128.826 6.77278 133.61 7.3776 138.394C7.43258 138.614 7.21265 138.833 7.15767 138.998C7.32262 139.438 7.59753 139.823 7.7075 140.208C7.87245 141.253 8.0374 142.352 8.14737 143.397C8.3673 145.651 9.02711 147.741 10.1818 149.61C11.3364 151.37 12.4361 153.184 14.3055 154.449C17.3846 156.538 20.6286 157.913 24.3675 157.803C26.8968 157.748 29.371 157.253 31.8453 156.923C37.1787 156.263 42.4571 155.548 47.7905 154.834C48.3403 154.779 48.8352 154.724 49.33 154.669C49.385 154.944 49.44 155.164 49.55 155.438C49.8249 155.219 50.1548 155.054 50.0998 154.999C49.9349 154.394 50.3747 154.449 50.7046 154.449C54.4435 153.954 58.1824 153.459 61.9763 152.964C62.3611 152.909 62.746 153.129 62.911 153.184C63.2409 153.019 63.5158 152.744 63.7907 152.744C64.7804 152.634 65.8251 152.634 66.8148 152.524C68.2994 152.304 69.7289 151.975 71.1585 151.81C71.9283 151.7 72.753 151.865 73.5228 151.755C74.0726 151.7 74.6225 151.37 75.0623 151.15C75.3923 151.7 75.6122 152.03 75.8321 152.414C75.3923 151.425 75.5022 151.095 76.6019 151.04C77.5366 150.985 78.5813 150.27 79.2961 151.535C79.2411 151.26 79.1861 150.985 79.1311 150.71C81.7154 150.38 84.2446 149.995 86.7738 149.665C87.7086 149.555 88.6433 149.335 89.578 149.28C89.9629 149.28 90.4028 149.5 90.7876 149.61C90.7876 149.555 90.7877 149.39 90.8426 149.115C93.3719 148.785 95.8461 148.456 98.3754 148.126C102.444 147.576 106.568 147.081 110.637 146.531C111.242 146.476 111.791 146.421 112.176 147.301C112.286 146.861 112.341 146.586 112.396 146.311C114.651 146.036 116.905 145.706 119.104 145.431C119.269 145.761 119.379 145.981 119.544 146.201C119.599 146.201 119.654 146.146 119.709 146.146C119.654 145.871 119.599 145.651 119.544 145.376C121.853 145.102 124.108 144.827 126.362 144.497C129.606 144.057 132.85 143.617 136.094 143.177C139.613 142.737 143.132 142.242 146.706 141.803C150.775 141.253 154.898 140.703 158.967 140.153C163.036 139.603 167.105 139.108 171.174 138.559C174.803 138.064 178.486 137.569 182.115 137.074C186.624 136.469 191.133 135.919 195.641 135.315C199.71 134.765 203.834 134.215 207.903 133.665C211.477 133.17 215.105 132.73 218.679 132.29C221.813 131.906 224.948 131.411 228.027 131.026C231.546 130.586 235.01 130.146 238.528 129.706C242.322 129.211 246.061 128.662 249.855 128.222C253.539 127.782 256.948 126.737 259.807 124.318C263.381 121.294 265.25 117.39 265.635 112.716C265.635 112.386 265.91 112.111 266.075 111.782C265.965 111.672 265.69 111.507 265.635 111.287C265.47 110.187 265.36 109.087 265.25 107.988C264.536 102.434 263.821 96.881 263.161 91.2727C263.106 91.0527 263.381 90.7229 263.326 90.5029C263.216 90.063 262.886 89.6782 262.831 89.2383C262.336 85.6644 261.896 82.0904 261.457 78.5715C261.402 77.9667 261.457 77.3618 261.402 76.812C261.347 76.4821 261.127 76.2072 261.072 75.8773C260.577 70.9838 258.597 66.915 254.694 63.8359C252.494 62.0764 249.91 60.8668 247.161 60.5369C244.797 60.262 242.267 60.6468 239.848 60.9767C234.13 61.6915 228.466 62.4613 222.803 63.2311C217.25 63.9459 211.751 64.6606 206.198 65.3754C199.545 66.2552 192.892 67.1349 186.239 68.0146C183.985 68.2896 181.675 68.3995 179.421 68.6744C178.157 68.8394 176.947 69.2243 175.737 69.3892C171.668 69.9391 167.6 70.4889 163.531 71.0387C159.957 71.5336 156.328 71.9735 152.754 72.4133C148.575 72.9632 144.452 73.513 140.273 74.0628C137.194 74.4477 134.06 74.8326 130.981 75.2175C127.902 75.6024 124.877 76.0972 121.798 76.4821C118.059 76.977 114.376 77.5268 110.637 77.9117C108.877 78.1316 107.063 78.7914 105.468 78.0216C105.083 78.2966 104.808 78.6814 104.479 78.7364C102.554 79.0113 100.63 79.2863 98.6503 79.5062C94.0867 80.111 89.523 80.6609 84.9594 81.2657C80.8906 81.8155 76.7668 82.3653 72.6981 82.9152C68.5193 83.465 64.3406 84.1248 60.1068 84.5097C58.7322 84.6197 57.0827 85.4994 55.7631 83.63C55.8181 84.2898 55.8731 84.6747 55.9281 85.0595C54.3335 85.2795 52.684 85.4994 51.0895 85.7193C46.9108 86.2692 42.787 86.929 38.6083 87.3139C36.244 87.5338 33.8247 88.6335 31.3504 87.6438C31.5154 88.0287 31.5154 88.2486 31.5154 88.4685ZM220.879 62.1864C220.879 62.6263 220.934 62.9012 220.934 62.9012C221.484 62.8462 222.033 62.8462 222.528 62.7912C222.528 62.6812 222.528 62.5713 222.528 62.4613C222.033 62.4063 221.539 62.2964 220.879 62.1864ZM3.0339 113.706C2.92393 113.706 2.75898 113.651 2.64902 113.651C2.31911 114.146 2.31911 114.641 3.0339 115.355C3.0339 114.641 3.0339 114.146 3.0339 113.706Z" fill="#BF2026"/>
<path d="M42.8968 56.1382C42.8418 56.4131 42.8968 56.743 42.7869 56.963C39.8177 62.1864 37.2335 67.6298 35.2541 73.3481C34.2094 76.3172 33.3297 79.3413 32.45 82.3654C32.285 82.9702 32.0651 83.1901 31.4602 83.2451C30.5805 83.3001 29.6458 83.465 28.6011 83.575C28.7111 83.0802 28.7661 82.6403 28.876 82.2004C29.2059 80.9908 29.4808 79.8361 29.8657 78.6265C30.0307 78.0217 30.4156 77.4718 30.6355 76.977C30.6905 76.977 30.5255 76.977 30.3606 76.977C32.9998 68.5095 36.5737 60.4819 41.1374 52.9492C42.1271 51.2997 43.1717 49.7601 44.2164 48.1656C44.3814 47.9457 44.7113 47.7807 44.9862 47.6158C45.0412 47.5608 45.1512 47.5058 45.1512 47.3958C45.756 45.0865 47.5154 43.602 48.89 41.7875C50.6495 39.4782 52.5189 37.2789 54.4984 35.1345C58.7321 30.5709 63.3507 26.3371 68.3542 22.5433C75.2272 17.3198 82.595 12.8662 90.5126 9.40219C91.1724 9.12727 91.8872 8.57743 92.7119 8.79737C93.7016 7.53275 95.2962 7.42278 96.6707 6.87294C98.5402 6.10317 100.52 5.60832 102.444 5.0035C104.258 4.45367 106.073 3.84885 107.942 3.354C108.327 3.24403 108.767 3.40898 109.152 3.354C109.427 3.29901 109.592 2.96911 109.867 2.91413C113.991 2.19934 118.114 1.48456 122.238 0.769771C122.458 0.714787 122.678 0.879736 122.843 0.879736C123.283 0.714785 123.723 0.604819 124.272 0.439868C124.272 0.824753 124.272 1.09967 124.272 1.37459C124.327 1.37459 124.437 1.37459 124.492 1.42957C124.602 1.15465 124.712 0.824753 124.877 0.274918C128.836 0.219934 132.96 0.109966 137.029 0.0549827C137.414 0.0549827 137.743 0.549835 138.293 0.879736C138.183 0.549835 138.128 0.329901 138.018 0C157.647 0.659803 175.737 6.15816 192.287 16.4951C208.452 26.5571 221.154 40.028 230.446 57.0179C229.951 56.853 229.676 56.743 229.456 56.6331C228.521 57.6777 226.762 57.5128 226.102 56.3581C225.827 55.8633 225.442 55.4234 225.277 54.8736C225.112 54.4887 225.167 54.0488 225.112 53.609C224.507 53.8289 224.343 53.389 224.123 53.0041C219.834 46.1862 214.885 39.9181 209.167 34.2548C203.339 28.4265 196.906 23.313 189.813 19.0793C185.909 16.77 181.895 14.5157 177.717 12.6462C170.899 9.56714 163.806 7.14786 156.438 5.77327C151.544 4.83855 146.541 4.06878 141.537 3.73888C136.809 3.40898 131.97 3.51895 127.242 3.84885C122.733 4.17875 118.224 5.0035 113.716 5.55334C113.331 5.60832 112.891 5.38839 112.176 5.22344C112.506 5.49836 112.616 5.60832 112.781 5.71829C110.582 6.26813 108.382 6.81796 106.183 7.42278C97.8804 9.67711 89.9627 13.0311 82.485 17.2648C77.1516 20.2889 72.0931 23.7529 67.4195 27.6567C65.4951 29.2513 63.6806 31.0107 61.7562 32.6602C61.5912 32.8252 61.2613 32.7702 61.0414 32.8802C60.8764 32.9352 60.7115 33.0451 60.5465 33.1551C60.9314 33.7049 60.4366 33.9249 60.1617 34.1998C53.8386 40.5229 48.3952 47.5608 43.7766 55.2035C43.5566 55.6434 43.2267 55.8633 42.8968 56.1382Z" fill="#BF2026"/>
<path d="M240.618 134.875C240.398 135.04 240.233 135.204 239.958 135.424C240.563 136.304 239.793 137.294 239.683 138.284C239.463 138.284 239.243 138.284 239.023 138.229C239.023 138.339 238.968 138.449 238.968 138.449C239.518 138.833 239.353 139.273 239.188 139.768C235.449 152.469 229.566 164.126 221.593 174.738C217.25 180.511 212.356 185.789 206.968 190.628C198.61 198.106 189.263 204.154 178.981 208.663C174.802 210.477 170.459 211.907 166.17 213.446C165.785 213.611 165.29 213.391 164.85 213.336C164.85 213.336 164.96 213.556 165.125 213.886C161.716 214.656 158.417 215.426 155.063 216.14C153.689 216.415 152.314 216.635 150.994 216.855C150.555 216.91 150.115 216.69 149.675 216.635C149.455 216.58 149.235 216.635 149.015 216.635C149.18 216.8 149.29 216.91 149.565 217.185C149.015 217.075 148.575 217.02 148.135 216.965C148.08 217.02 147.97 217.295 147.86 217.295C145.991 217.515 144.121 217.79 142.197 217.845C138.568 217.955 134.939 218.175 131.31 218.01C126.527 217.79 121.743 217.405 117.015 216.69C108.712 215.426 100.739 213.116 92.9867 209.872C83.9145 206.078 75.502 201.185 67.6943 195.137C59.0619 188.429 51.5841 180.621 45.316 171.604C45.0961 171.274 44.4913 170.999 45.0961 170.449C45.0961 170.449 44.9311 170.229 44.8212 170.119C44.1064 170.669 44.0514 169.844 43.9414 169.624C42.2919 167.04 40.7524 164.401 39.1578 161.817C39.0479 161.652 38.9929 161.487 38.9379 161.267C39.0479 161.212 39.1578 161.157 39.2128 161.157C40.2575 161.047 41.5221 160.497 42.3469 160.882C43.1167 161.212 43.5565 162.476 44.0514 163.356C48.3951 170.614 53.5635 177.267 59.5018 183.26C62.196 185.954 65.0001 188.539 67.9692 190.958C69.5088 192.222 71.1033 193.432 72.7528 194.587C74.4573 195.851 76.2168 197.006 77.9762 198.161C79.7357 199.26 81.4952 200.36 83.3096 201.35C89.5778 204.869 96.1758 207.673 102.994 209.817C103.599 209.982 104.203 210.202 104.753 210.422C105.028 210.532 105.248 210.752 105.523 210.917C105.798 210.917 106.183 210.752 106.513 210.862C110.581 211.687 114.595 212.731 118.719 213.446C125.482 214.546 132.3 215.041 139.173 214.491C143.682 214.106 148.19 213.611 152.699 213.061C154.623 212.841 156.493 212.291 158.362 211.962C158.527 211.907 158.692 211.907 159.077 211.907C158.802 212.291 158.582 212.566 158.362 212.841C158.747 213.006 159.077 213.171 159.462 213.391C159.407 212.841 159.352 212.346 159.297 211.742C160.836 211.577 162.156 210.697 163.751 210.972C163.861 210.862 163.971 210.587 164.19 210.532C167.215 209.487 170.294 208.498 173.318 207.508C173.373 207.673 173.538 207.948 173.648 208.168C173.703 208.168 173.758 208.113 173.813 208.113C173.758 207.838 173.703 207.618 173.648 207.288C174.637 207.013 175.462 206.188 176.507 206.408C176.672 206.243 176.837 205.968 177.112 205.803C180.795 203.879 184.534 202.174 188.108 200.085C191.407 198.216 194.486 196.016 197.73 193.927C197.785 194.037 197.84 194.202 197.895 194.422C197.95 194.422 198.005 194.422 198.005 194.422C198.005 194.092 198.06 193.707 198.115 193.157C198.28 193.542 198.335 193.707 198.39 193.927C198.555 192.772 199.27 192.332 200.04 192.332C200.26 192.003 200.37 191.728 200.59 191.563C203.449 188.978 206.418 186.559 209.167 183.81C215.6 177.487 220.988 170.339 225.552 162.586C229.896 155.219 233.8 146.641 236.604 135.974C236.769 135.314 237.044 135.04 237.758 134.985C238.638 134.93 239.518 134.765 240.398 134.655C240.453 134.765 240.508 134.82 240.618 134.875Z" fill="#BF2026"/>
<path d="M215.436 44.2068C216.59 45.6913 217.855 47.1209 218.954 48.6605C219.669 49.5952 220.109 50.6948 220.769 51.6846C222.089 53.664 223.463 55.5884 224.948 57.6778C224.233 57.7877 223.793 57.9527 223.353 57.9527C223.133 57.9527 222.858 57.8427 222.748 57.6778C222.418 57.018 222.199 56.2482 221.814 55.5884C221.539 55.1485 221.099 54.8186 220.769 54.3787C220.384 53.8839 220.054 53.389 219.779 52.8942C219.559 52.4543 219.394 52.0145 219.229 51.5196C219.009 51.3546 218.68 51.1897 218.515 50.9698C216.755 48.6055 215.051 46.1862 213.236 43.8769C211.972 42.2824 210.487 40.9078 209.112 39.3682C208.783 39.0383 208.123 38.6535 208.947 38.1586C208.947 38.1586 208.893 37.9387 208.783 37.7187C208.508 37.9387 208.343 38.1036 208.068 38.2686C203.669 33.7599 198.94 29.5262 193.662 25.8973C193.772 25.6773 193.882 25.5124 193.992 25.3474C193.882 25.3474 193.772 25.3474 193.717 25.3474C192.397 25.2924 191.518 24.5777 190.803 23.478C190.693 23.313 190.528 23.0381 190.473 23.0931C189.428 23.423 188.878 22.5433 188.109 22.1584C187.229 21.6635 186.239 21.2786 185.909 20.124C185.909 20.3439 185.909 20.5639 185.964 20.7838C185.799 20.6738 185.634 20.5639 185.47 20.5089C178.212 16.3851 170.624 13.1961 162.596 10.8868C161.167 10.5019 159.737 10.117 158.308 9.7321C154.129 8.63243 146.596 7.42279 141.758 7.25784C137.744 7.09289 133.675 6.98292 129.661 7.09289C123.338 7.31282 117.015 8.24754 110.857 9.7321C99.6952 12.4263 89.3033 16.825 79.6262 22.9831C79.2413 23.2581 78.7464 23.313 78.3066 23.423C78.1966 23.588 78.1966 23.9179 77.9767 24.0278C72.7532 27.5468 67.9147 31.5606 63.351 35.8493C61.9764 37.1689 60.7118 38.6535 59.3922 40.028C58.0176 41.4576 56.753 43.0521 55.4334 44.5917C54.9386 45.1415 54.6087 46.0762 53.454 45.3614C53.454 45.4714 53.399 45.6364 53.399 45.7463C53.6189 45.8563 53.8389 46.0212 54.1138 46.1862C47.9556 54.1038 43.1171 62.6813 39.4882 71.8635C38.9933 71.8085 38.5535 71.6986 38.1136 71.6436C38.0586 71.7535 38.0586 71.8085 38.0036 71.9185C38.2785 72.3034 38.5535 72.6333 38.9383 73.1831C38.7734 73.678 38.4985 74.3928 38.2785 75.1625C37.6187 77.1419 37.0139 79.1763 36.4091 81.2107C35.9692 82.5853 35.8593 82.6953 34.1548 82.5853C34.9245 80.0561 35.6393 77.4718 36.574 75.0526C38.0036 71.3687 39.4332 67.6298 41.1377 64.0559C44.3817 57.0729 48.4505 50.5849 53.289 44.5917C53.8939 43.8219 54.3887 42.9971 55.1035 42.2824C55.8733 41.4576 56.5331 40.6329 57.3028 39.8081C58.0176 38.9834 58.7874 38.1586 59.5572 37.3888C60.272 36.6191 61.0417 35.8493 61.8115 35.0795C62.5813 34.3097 63.406 33.54 64.2308 32.7702C65.0555 32.0004 65.8253 31.2307 66.705 30.5709C67.1449 30.241 67.5848 29.6911 68.2996 30.186C68.3545 30.241 68.5745 29.9111 68.9044 29.6911C68.4645 29.6361 68.2446 29.6361 68.0796 29.5812C68.1346 29.4712 68.1346 29.4162 68.1896 29.3612C89.0284 11.9864 112.011 6.10318 130.101 5.33341C129.936 5.49837 129.826 5.60833 129.606 5.82827C129.936 5.82827 130.266 5.93823 130.376 5.88325C131.476 4.83856 132.905 5.22345 134.115 5.22345C136.424 5.16846 138.788 5.27843 141.098 5.3884C141.483 5.3884 141.813 5.60833 142.252 5.77328C142.527 5.7183 142.857 5.55335 143.242 5.60833C146.816 6.0482 150.39 6.54305 153.909 7.03791C154.844 7.14787 155.778 7.36781 156.768 7.58774C156.658 7.75269 156.603 7.86266 156.493 8.02761C158.363 7.53276 159.957 8.41249 161.607 8.85236C163.366 9.29223 165.071 9.78708 166.775 10.3369C172.603 12.1514 178.212 14.6256 183.655 17.4848C184.59 17.9796 185.415 18.6944 186.349 19.1893C188.494 20.4539 190.748 21.6085 192.837 23.0381C195.367 24.7426 197.786 26.612 200.205 28.4265C200.645 28.7564 200.975 29.3062 201.525 29.9111C200.975 29.966 200.755 29.966 200.535 29.966C200.535 30.076 200.535 30.131 200.535 30.241C200.92 30.241 201.305 30.241 201.69 30.186C201.8 30.186 201.91 30.076 201.965 30.021C203.174 31.0657 204.384 32.0004 205.429 33.1001C208.783 36.6191 212.137 40.138 215.436 43.7119C215.326 43.8219 215.381 44.0418 215.436 44.2068C214.831 43.9869 214.226 43.7669 213.621 43.492C213.566 43.547 213.511 43.602 213.456 43.7119C213.896 44.0968 214.336 44.5367 214.666 44.8666C214.886 44.6467 215.161 44.4267 215.436 44.2068Z" fill="#BF2026"/>
<path d="M205.263 139.493C204.329 142.352 202.734 144.937 201.249 147.576C199.655 150.38 197.84 153.129 195.861 155.713C193.882 158.298 191.737 160.827 189.428 163.136C187.174 165.446 184.699 167.645 182.17 169.679C179.696 171.659 177.057 173.473 174.363 175.123C171.613 176.772 168.699 178.312 165.785 179.631C162.816 180.951 159.737 181.996 156.658 183.15C156.603 183.04 156.603 182.985 156.548 182.875C156.988 182.38 157.428 181.941 157.867 181.446C157.812 181.391 157.812 181.391 157.757 181.336C157.098 181.611 156.438 181.886 155.778 182.161C155.998 182.49 156.163 182.71 156.383 183.095C154.568 183.535 152.919 183.975 151.214 184.415C150.72 184.525 150.17 184.69 149.675 184.745C149.29 184.8 148.905 184.635 148.41 184.58C148.19 184.745 147.805 185.13 147.366 185.185C143.187 185.569 139.008 186.174 134.829 186.229C131.255 186.284 127.681 185.899 124.163 185.515C117.455 184.745 111.021 182.93 104.808 180.291C103.379 179.686 101.894 179.081 100.52 178.312C98.9801 177.432 97.3306 176.827 95.901 175.837C94.3614 174.793 92.7119 173.913 91.1724 172.868C89.6329 171.824 88.2033 170.724 86.7737 169.624C85.2892 168.47 83.9146 167.26 82.54 165.995C81.1654 164.786 79.8458 163.466 78.5812 162.146C77.5915 161.157 76.7117 160.112 75.832 159.012C75.6121 158.738 75.5571 158.353 75.5021 158.188C74.6773 157.913 74.4574 157.253 73.9625 156.648C75.1172 156.373 75.942 156.318 76.8217 157.418C84.6294 166.765 94.1415 173.748 105.303 178.532C109.812 180.456 114.43 182.051 119.269 182.82C123.228 183.48 127.242 184.085 131.255 184.305C134.774 184.525 138.348 184.085 141.922 184.085C142.637 184.085 143.297 183.92 143.957 183.81C144.781 183.7 145.551 183.535 146.376 183.48C146.541 183.48 146.761 183.645 147.036 183.81C147.311 183.15 147.915 183.04 148.52 183.535C149.015 183.315 149.455 182.985 149.895 182.93C161.826 180.401 172.548 175.343 182.005 167.645C189.538 161.487 195.696 154.119 200.425 145.596C201.304 144.057 202.074 142.462 202.844 140.868C203.504 139.383 203.669 139.273 205.263 139.493Z" fill="#BF2026"/>
<path d="M188.549 59.1624C183.16 53.4441 177.057 48.6056 170.129 44.7567C163.311 40.9629 156.053 38.3236 148.411 36.9491C146.651 36.6192 144.892 36.5642 143.132 36.3442C141.868 36.1793 140.658 35.9594 139.393 35.7944C139.118 35.7944 138.844 35.9594 138.844 35.9594C138.404 35.7944 138.074 35.6295 137.799 35.6295C134.28 35.7394 130.761 35.7944 127.297 36.0143C122.513 36.2893 117.895 37.3889 113.331 38.7635C106.843 40.633 100.795 43.4371 95.1316 47.066C88.9735 50.9699 83.5301 55.6984 78.8015 61.2518C78.9665 61.5817 79.1314 61.8566 79.2964 62.1865C79.2414 62.1865 79.2414 62.2415 79.1864 62.2415C78.9665 62.0765 78.7465 61.8566 78.5266 61.6917C74.1829 66.8051 70.609 72.3585 67.7498 78.5166C71.0488 78.0768 74.2379 77.6369 77.4269 77.252C80.561 76.8671 83.6401 76.4273 86.7741 76.0424C89.9632 75.6025 93.1522 75.2176 96.3413 74.7777C99.4753 74.3379 102.664 73.953 105.798 73.5131C108.987 73.0733 112.177 72.7434 115.366 72.3035C118.5 71.8636 121.689 71.4238 124.823 70.9839C128.012 70.544 131.201 70.2141 134.39 69.7742C137.579 69.3894 140.713 68.9495 143.847 68.5096C147.036 68.0698 150.225 67.7398 153.414 67.19C156.438 66.6952 159.462 66.5302 162.486 66.0354C165.676 65.5405 168.865 65.1556 172.054 64.7707C175.188 64.3309 178.377 63.946 181.511 63.5611C184.7 63.1212 187.834 62.6814 191.243 62.2415C190.198 61.0319 189.428 60.0422 188.549 59.1624ZM84.7397 73.5131C84.4098 73.5131 84.0799 73.2382 83.5301 73.0183C84.3549 72.8533 84.7947 72.7983 85.2896 72.6884C85.3995 72.7983 85.5095 72.9083 85.6195 73.0183C85.3446 73.1832 85.0147 73.4581 84.7397 73.5131ZM87.9838 56.7981C87.7638 56.8531 87.379 56.8531 86.9941 56.9081C86.9391 56.7981 86.8841 56.6882 86.7741 56.6332C87.214 56.3033 87.6539 55.9734 88.2037 55.5335C88.0937 56.0284 88.0388 56.3583 87.9838 56.7981ZM112.177 58.0078C111.462 58.9425 109.977 60.8119 109.977 60.8119L109.262 61.5267C109.262 61.5267 110.637 64.8257 110.967 65.8154C109.867 65.3756 106.458 63.946 106.458 63.946C106.458 63.946 103.599 66.2003 102.609 66.8601C102.664 65.8704 102.994 62.0216 102.994 62.0216C102.994 62.0216 99.8052 59.7672 98.9805 59.1624C100.63 58.7226 102.115 58.2827 103.544 57.8978C104.094 56.3583 104.644 54.9287 105.249 53.3891C105.743 54.1039 107.888 57.238 107.888 57.238C107.888 57.238 111.682 57.4029 112.616 57.4579C112.341 57.7328 112.287 57.8978 112.177 58.0078ZM134.72 62.4614C133.235 61.9116 127.792 59.7672 127.792 59.7672C127.792 59.7672 123.283 63.3412 122.074 64.2209C122.129 62.4064 122.513 56.9631 122.513 56.9631C122.513 56.9631 117.895 53.884 116.465 52.7843C118.06 52.3445 123.283 51.3547 123.283 51.3547L123.613 49.8702C123.613 49.8702 124.713 46.4612 125.263 44.8117C125.373 44.5918 125.483 44.3169 125.648 43.987C126.417 45.1416 129.771 49.7602 129.771 49.7602C129.771 49.7602 135.49 49.8702 136.754 49.8702C135.27 51.9046 133.95 53.774 132.465 55.6985C133.235 57.7878 133.95 59.9872 134.72 62.4614ZM155.284 52.3445C154.514 53.2792 153.029 55.0936 153.029 55.0936L152.315 55.8084C152.315 55.8084 153.634 59.1074 153.909 60.1521C152.809 59.7122 149.4 58.1727 149.4 58.1727C149.4 58.1727 146.486 60.3721 145.442 61.0319C145.497 60.0422 145.936 56.2483 145.936 56.2483C145.936 56.2483 142.802 53.939 141.978 53.2792C143.627 52.8393 145.167 52.4544 146.541 52.1245C147.146 50.585 147.696 49.1554 148.301 47.6159C148.741 48.3307 150.83 51.5197 150.83 51.5197C150.83 51.5197 154.624 51.7946 155.559 51.7946C155.504 52.0695 155.394 52.2345 155.284 52.3445Z" fill="#BF2026"/>
<path d="M192.067 57.9527C191.683 57.1829 190.913 56.6881 190.308 56.0283C188.713 54.3238 187.009 52.6743 185.249 51.1348C178.871 45.5814 171.778 41.1277 163.971 37.9387C161.277 36.839 158.472 35.8493 155.668 35.0796C152.919 34.3098 150.115 33.76 147.311 33.1551C146.046 32.8802 144.782 32.7702 143.462 32.6053C142.527 32.4953 141.647 32.4403 140.713 32.3854C140.218 32.3304 139.613 33.2651 139.118 32.2754C139.063 32.1654 138.513 32.2204 138.184 32.2204C135.929 32.3304 133.73 32.4403 131.476 32.4953C130.486 32.4953 129.551 32.3854 128.561 32.3854C124.053 32.5503 119.709 33.54 115.365 34.5297C114.376 34.7497 113.386 35.1345 112.396 35.4095C108.327 36.5091 104.479 38.1037 100.685 39.9181C100.465 40.0281 100.355 40.358 100.3 40.413C99.86 40.4679 99.5301 40.4679 99.3102 40.5779C97.6607 41.4577 96.0112 42.3374 94.4166 43.2721C92.8771 44.2068 91.3925 45.3065 89.798 46.2412C88.3135 47.121 87.1038 48.3856 85.7292 49.4303C82.1553 52.1245 78.9663 55.3135 76.0521 58.7775C75.4473 59.4923 75.1174 60.372 74.5126 61.0868C73.6329 62.0765 72.6981 63.0112 71.7084 64.0559C72.2583 64.2758 72.5882 64.4408 72.9181 64.6057C72.6981 64.8257 72.5332 64.9356 72.3682 64.8806C71.4885 64.6057 71.1036 65.1006 70.6637 65.7604C69.674 67.3549 68.6293 69.0044 67.6396 70.5989C67.1998 71.3137 66.8699 72.0835 66.485 72.8533C65.4403 74.8327 64.4506 76.8121 63.4059 78.8465C64.7805 79.0664 65.5503 78.6815 66.0451 77.4169C66.8699 75.3275 67.9695 73.3481 69.1792 71.3687C69.3991 70.9838 69.5091 70.7089 69.1792 70.324C69.1242 70.269 69.1792 70.1591 69.2342 69.9941C69.4541 70.1041 69.6191 70.214 69.784 70.269C75.5023 61.0318 82.6502 53.2791 91.5025 47.1759C91.3925 47.011 91.2826 46.901 91.2826 46.846C91.7774 46.6811 92.1623 46.6811 92.4922 46.4612C95.4613 44.7567 98.3755 42.9422 101.4 41.4027C106.843 38.6535 112.616 36.7291 118.554 35.5194C122.128 34.7497 125.812 34.4198 129.496 34.0899C135.819 33.54 142.142 33.8699 148.356 35.1895C152.534 36.0693 156.603 37.4988 160.672 38.6535C161.552 38.9284 162.431 39.1483 163.311 39.4782C163.916 39.6982 164.466 40.138 165.016 40.413C166.06 40.8528 167.16 41.1827 168.15 41.6776C168.864 42.0625 169.469 42.6673 170.184 43.0522C176.067 46.2412 181.401 50.2 186.294 54.7637C188.439 56.7981 190.363 59.0524 192.342 61.2517C193.002 61.9665 193.772 62.0765 194.707 61.5816C194.377 60.0421 192.782 59.3823 192.067 57.9527Z" fill="#BF2026"/>
<path d="M73.7425 193.212C73.8525 192.882 74.0174 192.607 74.1274 192.278C74.0724 192.223 74.0724 192.168 74.0174 192.113C73.6875 192.333 73.4126 192.552 73.0277 192.772C61.3162 184.14 51.6941 173.418 44.4363 160.662C44.5462 160.552 44.5462 160.497 44.6012 160.497C45.8658 160.002 46.4707 160.607 47.1305 161.707C49.8247 166.38 53.0687 170.724 56.4777 174.903C56.5326 174.958 56.5876 175.068 56.6426 175.178C56.4777 175.178 56.3677 175.178 56.4227 175.178C57.1925 175.947 58.0172 176.882 58.9519 177.707C62.4159 181.061 65.9348 184.36 69.3988 187.714C69.6187 187.934 69.6737 188.319 69.8937 188.704C70.6634 188.374 71.1583 189.144 71.7631 189.638C77.6463 194.147 83.8595 198.106 90.5675 201.295C91.1173 201.57 91.6671 201.955 92.272 202.34C92.4369 202.395 92.8218 202.395 93.0967 202.505C99.8047 205.529 106.733 207.728 113.935 209.213C115.86 209.597 117.784 209.927 119.709 210.257C121.028 210.477 122.403 210.642 123.723 210.752C124.327 210.807 124.877 210.862 124.877 211.797C124.932 211.742 125.042 211.687 125.097 211.632C125.097 211.412 125.042 211.192 125.042 210.917C126.472 211.027 127.901 211.137 129.331 211.192C130.815 211.247 132.3 211.302 133.785 211.302C135.214 211.302 136.699 211.247 138.128 211.192C139.613 211.137 141.097 210.917 142.582 211.027C143.957 211.137 145.221 210.642 146.596 210.532C148.08 210.477 149.51 210.147 150.994 209.872C152.424 209.652 153.854 209.377 155.283 209.103C156.658 208.828 158.087 208.498 159.462 208.168C160.836 207.838 162.266 207.453 163.476 207.178C163.916 207.673 164.245 208.113 164.685 208.608C162.431 209.213 160.122 209.817 157.757 210.422C156.438 210.752 155.063 211.027 153.689 211.247C149.51 211.852 145.386 212.512 141.207 212.841C136.424 213.226 131.585 213.336 126.802 212.731C122.183 212.182 117.619 211.467 113.056 210.807C112.671 210.752 112.396 210.422 112.011 210.312C111.681 210.257 111.351 210.422 111.021 210.367C110.197 210.202 109.427 210.037 108.657 209.817C105.578 208.883 102.444 207.948 99.3648 206.958C99.0349 206.848 98.815 206.518 98.5401 206.298C98.3751 206.298 98.0452 206.408 97.7703 206.298C94.4163 204.869 91.0623 203.549 87.8183 201.955C83.2547 199.755 78.911 197.061 74.7872 194.147C74.4023 193.817 74.0724 193.487 73.7425 193.212Z" fill="#BF2026"/>
<path d="M223.518 159.232C223.903 159.397 224.178 159.507 224.508 159.617C224.562 159.507 224.617 159.397 224.617 159.287C224.343 159.122 224.068 159.012 223.738 158.793C224.068 158.133 224.453 157.418 224.782 156.758C227.807 151.04 230.281 145.157 232.095 138.943C232.37 137.954 232.7 136.909 233.03 135.919C233.085 135.754 233.305 135.589 233.47 135.534C233.91 135.479 234.35 135.479 234.954 135.424C234.35 137.459 233.8 139.328 233.195 141.198C232.59 143.067 231.93 144.937 231.215 146.806C230.501 148.621 229.731 150.435 228.961 152.194C228.136 154.009 227.257 155.768 226.322 157.528C225.387 159.232 224.343 160.937 223.298 162.586C222.308 164.236 221.373 165.83 220.329 167.425C219.229 169.074 218.074 170.614 216.92 172.209C215.71 173.803 214.446 175.343 213.181 176.827C211.971 178.257 210.707 179.686 209.387 181.061C208.012 182.49 206.583 183.865 205.098 185.24C203.614 186.614 202.129 187.934 200.59 189.198C199.105 190.463 197.511 191.673 195.971 192.772C194.377 193.927 192.782 195.027 191.132 196.071C189.483 197.171 187.778 198.161 186.074 199.15C184.534 200.03 182.995 200.91 181.455 201.68C179.696 202.559 177.936 203.384 176.177 204.154C174.362 204.924 172.548 205.748 170.679 206.353C168.864 206.903 167.16 207.783 165.51 208.113C165.015 207.618 164.575 207.233 164.136 206.793C164.465 206.683 164.85 206.573 165.18 206.408C169.304 204.814 173.373 203.219 177.497 201.68C178.321 201.35 179.091 200.58 180.191 201.24C180.081 201.075 179.916 200.855 179.916 200.855C183.875 198.436 187.998 196.181 191.847 193.597C195.366 191.233 198.555 188.484 201.909 185.899C202.074 185.789 202.349 185.789 202.569 185.789C202.679 185.789 202.789 185.734 202.899 185.734C202.569 185.13 203.559 185.185 203.449 184.635C203.449 184.47 203.724 184.25 203.944 184.085C204.988 183.15 206.198 182.38 207.078 181.336C210.487 177.322 213.951 173.308 217.14 169.129C219.394 166.16 221.263 162.861 223.298 159.727C223.353 159.562 223.463 159.342 223.518 159.232Z" fill="#BF2026"/>
<path d="M97.8803 166.05C96.5057 166.6 96.3407 166.49 96.1208 165.061C96.3957 165.391 96.6157 165.665 96.8356 165.94C96.9456 165.61 97.0005 165.281 97.0555 165.006C97.2755 165.336 97.5504 165.665 97.8803 166.05Z" fill="#BF2026"/>
<path d="M96.1759 157.473C96.7807 157.803 97.4405 158.078 98.2653 158.518C97.7704 158.627 97.3855 158.902 97.1656 158.792C96.7257 158.518 96.3408 158.078 95.956 157.693C96.0659 157.638 96.1209 157.583 96.1759 157.473Z" fill="#BF2026"/>
<path d="M155.228 171.274C155.668 171.604 155.998 171.824 156.383 172.099C155.943 172.318 155.668 172.483 155.228 172.648C155.228 172.264 155.228 171.934 155.228 171.274Z" fill="#BF2026"/>
<path d="M86.7736 56.6331C87.2135 56.3032 87.6533 55.9733 88.2032 55.5334C88.0932 56.0282 88.0382 56.3581 87.9832 56.743C87.7633 56.798 87.3784 56.798 86.9935 56.853C86.9386 56.798 86.8836 56.743 86.7736 56.6331Z" fill="#BF2026"/>
<path d="M113.661 52.0694C114.156 52.0144 114.595 51.9045 115.255 51.7945C114.815 53.0041 114.266 52.6192 113.716 52.4543C113.716 52.3443 113.661 52.2344 113.661 52.0694Z" fill="#BF2026"/>
<path d="M85.6193 73.0181C85.3444 73.1831 85.0145 73.513 84.7395 73.513C84.4096 73.513 84.0797 73.2381 83.5299 73.0181C84.3547 72.8532 84.7945 72.7982 85.2894 72.6882C85.3993 72.7982 85.5093 72.9082 85.6193 73.0181Z" fill="#BF2026"/>
<path d="M121.634 46.736C122.018 46.846 122.348 46.956 122.953 47.1209C122.293 47.3958 121.853 47.6158 121.194 47.8907C121.414 47.3408 121.469 47.0659 121.634 46.736Z" fill="#BF2026"/>
<path d="M147.476 63.561C147.366 63.0661 147.311 62.7912 147.201 62.3513C147.696 62.4063 148.135 62.4613 148.74 62.5163C148.245 62.9561 147.916 63.2311 147.476 63.561Z" fill="#BF2026"/>
<path d="M91.8325 146.586C91.8325 146.751 91.8325 147.026 91.8325 147.246C91.7776 147.301 91.7226 147.356 91.6676 147.356C88.4236 147.796 85.1795 148.181 81.9355 148.566C81.0008 148.676 80.0661 148.621 79.1313 148.731C77.6468 148.95 76.1073 149.28 74.6227 149.555C72.5333 149.885 70.4439 150.105 68.3546 150.38C65.1655 150.82 61.9765 151.205 58.7874 151.645C57.3579 151.81 55.9283 152.03 54.4987 152.194C54.2788 152.194 54.0039 151.975 53.619 151.865C52.5743 152.964 50.9798 152.634 49.5502 152.854C45.9213 153.404 42.2924 153.844 38.6635 154.284C34.0998 154.889 29.5362 155.713 24.9725 155.988C17.9347 156.428 11.5566 151.645 10.127 144.497C9.46719 141.253 9.19227 137.899 8.7524 134.545C8.64243 133.665 8.53247 132.73 8.36752 131.851C8.64243 131.631 8.86237 131.466 9.13729 131.246C9.0823 131.191 9.0823 131.081 9.02732 131.026C8.80738 131.081 8.53247 131.081 8.25755 131.191C8.25755 130.971 8.36752 130.751 8.31253 130.531C7.87266 127.672 7.4328 124.758 6.99293 121.899C6.49808 118.27 6.00322 114.586 5.56336 110.902C5.23345 108.373 4.79359 105.843 5.45339 103.314C6.71801 98.3656 9.52217 94.6817 14.3607 92.9222C16.4501 92.1524 18.7594 91.9325 20.9587 91.6026C24.5327 91.0528 28.1616 90.6679 31.7905 90.173C35.4194 89.6782 39.0483 89.2383 42.6772 88.7435C46.746 88.1936 50.8148 87.6438 54.8836 87.1489C58.1276 86.764 61.3167 86.3792 64.5607 85.9943C67.0899 85.6644 69.6742 85.2245 72.2034 84.8946C75.7773 84.3997 79.4063 83.9599 82.9802 83.465C86.6641 82.9702 90.293 82.4753 93.9769 82.0355C94.6367 81.9255 95.3515 81.8705 96.2862 81.7056C95.9013 81.9255 95.7914 82.0355 95.6264 82.0904C95.6264 82.1454 95.6814 82.2004 95.6814 82.2554C96.3412 82.0355 97.001 81.7056 97.6608 81.5406C98.4306 81.3757 99.2003 81.3207 100.08 81.2107C99.6402 82.3654 98.7055 82.3654 97.7708 82.3104C97.7708 82.4203 97.8258 82.5303 97.8258 82.6953C98.3756 82.6403 98.9804 82.6953 99.4753 82.4753C99.9701 82.3104 100.355 81.8705 100.795 81.5406C100.795 81.5406 100.74 81.4306 100.685 81.3207C100.74 81.2657 100.795 81.2107 100.85 81.2107C111.297 79.8361 121.799 78.4615 132.245 77.0869C132.3 77.0869 132.41 77.3069 132.465 77.1419C133.015 77.1419 133.73 77.3619 134.06 77.0869C134.94 76.3722 135.984 76.5921 136.919 76.4271C141.043 75.8223 145.167 75.3275 149.29 74.7776C153.359 74.2278 157.483 73.678 161.552 73.1831C165.62 72.6333 169.744 72.0834 173.813 71.5886C175.518 71.3687 177.222 71.1487 178.981 70.8738C178.981 71.0387 179.036 71.2037 179.036 71.2587C179.421 71.0937 179.751 70.8188 180.081 70.7638C183.215 70.324 186.404 69.8841 189.538 69.4992C193.167 69.0044 196.796 68.5645 200.425 68.0696C203.999 67.5748 207.628 67.1349 211.202 66.6401C215.271 66.0902 219.394 65.5404 223.463 65.0455C225.113 64.8256 226.762 64.6057 228.412 64.3857C228.687 64.3308 229.017 64.5507 229.181 64.6057C229.401 64.4407 229.621 64.2208 229.896 64.2208C234.625 63.561 239.298 62.8462 244.082 62.4063C246.996 62.1314 249.745 62.9012 252.33 64.4957C255.848 66.6401 258.048 69.6092 258.983 73.513C259.532 75.8223 259.697 78.2416 260.027 80.6059C260.522 84.2348 261.017 87.9187 261.457 91.5476C261.897 95.0666 262.392 98.5855 262.831 102.159C263.161 104.799 263.491 107.438 263.821 110.022C264.371 114.421 263.161 118.325 260.247 121.679C257.443 124.868 253.814 126.187 249.745 126.627C245.567 127.067 241.388 127.727 237.209 128.277C236.329 128.387 235.395 128.552 234.46 128.607C233.25 128.607 232.151 129.046 230.941 129.101C229.676 129.211 228.412 129.431 227.202 129.596C223.518 130.091 219.834 130.586 216.15 131.026C213.071 131.411 209.992 131.906 206.913 132.29C203.944 132.675 200.975 133.06 198.006 133.445C194.927 133.83 191.793 134.215 188.714 134.6C184.975 135.095 181.291 135.589 177.552 136.029C173.153 136.634 168.755 137.184 164.356 137.789C159.352 138.449 154.294 139.163 149.29 139.823C146.926 140.153 144.617 140.318 142.252 140.648C139.833 140.978 137.469 141.363 135.05 141.693C133.235 141.913 131.421 142.077 129.661 142.297C127.187 142.627 124.713 143.012 122.183 143.342C119.214 143.782 116.19 144.222 113.221 144.552C108.932 144.992 104.644 145.706 100.41 146.256C97.9357 146.586 95.4065 146.916 92.9322 147.246C92.5473 147.191 92.2174 146.806 91.8325 146.586ZM93.2071 145.596C93.2621 145.541 93.3721 145.322 93.592 145.267C95.0766 145.047 96.5062 144.882 97.9907 144.662C102.059 144.112 106.128 143.617 110.197 143.067C114.211 142.517 118.28 141.968 122.293 141.418C126.362 140.868 130.486 140.373 134.555 139.823C139.063 139.218 143.627 138.614 148.136 138.009C153.194 137.349 158.198 136.744 163.256 136.084C168.425 135.424 173.648 134.71 178.817 134.05C181.896 133.665 185.03 133.28 188.109 132.895C192.178 132.345 196.301 131.796 200.37 131.246C203.999 130.751 207.628 130.256 211.257 129.816C215.271 129.266 219.339 128.771 223.353 128.222C226.982 127.727 230.611 127.232 234.24 126.792C234.9 126.682 235.615 126.792 236.109 126.792C237.099 126.572 237.869 126.297 238.694 126.187C242.268 125.692 245.841 125.253 249.415 124.813C252.385 124.483 255.299 123.823 257.663 121.789C260.962 118.984 262.666 115.41 262.337 111.122C262.062 107.548 261.457 104.029 261.017 100.51C260.467 96.1662 259.862 91.8225 259.312 87.4788C259.257 87.2589 259.477 86.984 259.422 86.764C259.367 86.4341 259.093 86.1042 259.038 85.7194C258.543 82.2554 258.158 78.7914 257.663 75.3275C256.948 70.269 254.254 66.75 249.525 64.8256C246.941 63.7809 244.302 63.9459 241.608 64.2758C240.398 64.4407 239.188 64.3308 237.979 64.4957C237.044 64.6057 236.109 65.0455 235.175 65.1555C227.862 66.1452 220.494 67.0799 213.181 68.0147C211.367 68.2346 209.552 68.5095 207.738 68.7294C206.033 68.9494 204.274 69.1143 202.514 69.3343C198.006 69.9941 193.442 70.5989 188.933 71.2037C184.865 71.7535 180.741 72.2484 176.672 72.7982C172.548 73.3481 168.425 73.8979 164.301 74.4477C159.792 75.0525 155.284 75.6024 150.775 76.2072C146.156 76.812 141.593 77.4718 136.974 78.0766C132.245 78.6815 127.462 79.3413 122.733 79.9461C121.964 80.0561 121.084 80.4409 120.479 79.4512C120.479 79.3963 120.314 79.4512 120.149 79.4512C120.149 79.7262 120.149 80.0011 120.149 80.331C118.005 80.5509 115.915 80.7708 113.826 81.0458C110.197 81.5406 106.568 82.3654 102.829 82.3104C102.554 82.3104 102.279 82.5853 102.005 82.6403C101.62 82.7502 101.18 82.8052 100.74 82.8602C98.4856 83.1351 96.2312 83.465 93.9219 83.74C93.9219 83.52 93.9219 83.4101 93.9219 83.3551C93.4821 83.52 93.0972 83.8499 92.6573 83.9049C89.5782 84.3448 86.5541 84.7297 83.475 85.1145C79.8461 85.6094 76.2172 86.0493 72.5883 86.5441C69.0144 87.039 65.3855 87.4788 61.8115 87.9737C57.7977 88.5235 53.7289 89.0184 49.7151 89.5682C45.6464 90.118 41.5226 90.6679 37.4538 91.2177C33.7699 91.7126 30.086 92.3174 26.4021 92.6473C24.8626 92.8122 23.2681 93.9119 21.6735 92.5373C21.7835 92.7573 21.9485 93.0322 22.1134 93.3071C16.9999 93.582 12.2164 94.5717 9.13729 99.1903C8.86237 99.0804 8.69742 98.9704 8.53247 98.9154C8.47748 99.4652 8.58745 99.9601 8.36752 100.29C6.93794 102.984 6.44309 105.953 7.04791 109.472C7.54276 112.441 7.87266 115.465 8.20257 118.49C8.25755 118.984 8.69742 119.534 8.0926 120.029C7.98263 120.139 8.53247 120.854 8.58745 121.349C9.02732 124.538 9.4122 127.727 9.85207 130.916C10.3469 134.545 10.8418 138.174 11.2816 141.803C11.6115 144.717 12.3813 147.411 14.3057 149.72C14.7456 150.27 15.0755 150.985 15.5704 151.48C15.9552 151.865 16.615 151.975 17.1099 152.249C18.9244 153.349 20.7938 154.229 22.9382 154.229C24.8076 154.229 26.732 154.009 28.6015 153.844C31.5706 153.569 34.5947 153.239 37.5638 152.854C39.3233 152.634 41.0827 152.249 42.8422 151.975C47.0759 151.37 51.3097 150.82 55.5434 150.27C57.0829 150.05 58.6225 149.885 60.162 149.665C66.1002 148.895 72.0385 148.126 78.0317 147.356C80.6709 147.026 83.3651 146.641 86.0043 146.256C87.9287 145.981 89.7982 145.761 91.7226 145.486C92.2174 145.486 92.6573 145.596 93.2071 145.596Z" fill="#BF2026"/>
<path d="M26.3472 128.716L24.6427 115.3C23.653 107.603 25.7423 102.489 34.2098 101.445C42.4573 100.4 45.4814 104.469 46.3062 110.847L46.6911 114.036L38.6635 115.08L38.1686 111.342C37.8937 109.197 37.5638 106.888 34.9246 107.218C32.2854 107.548 32.3954 109.912 32.6703 112.166L34.9246 129.651C35.2545 132.18 35.9143 134.16 38.3336 133.83C40.9178 133.5 40.6979 131.191 40.4229 128.936L39.9281 125.087L47.9557 124.043L48.3406 127.232C49.1653 133.555 47.3509 138.613 39.0484 139.658C30.6359 140.758 27.3369 136.249 26.3472 128.716Z" fill="#BF2026"/>
<path d="M55.7084 99.1902L65.0557 97.9806L76.7122 134.325L69.1244 135.314L66.8701 127.617L61.4267 128.332L61.1518 136.359L53.3991 137.349L55.7084 99.1902ZM65.5505 122.778L61.7017 108.537L61.5917 123.328L65.5505 122.778Z" fill="#BF2026"/>
<path d="M76.7672 96.5512L82.5404 95.8364L92.4375 112.771L90.1831 94.8467L97.0011 93.9669L101.73 131.191L96.1763 131.906L86.0594 113.541L88.5336 132.84L81.4957 133.72L76.7672 96.5512Z" fill="#BF2026"/>
<path d="M106.183 118.544L104.479 105.128C103.489 97.4307 105.579 92.3173 114.046 91.2726C122.294 90.2279 125.318 94.2967 126.142 100.675L126.527 103.864L118.5 104.908L118.005 101.17C117.73 99.0253 117.4 96.7159 114.761 97.0458C112.122 97.3757 112.232 99.74 112.506 101.994L114.761 119.479C115.091 122.008 115.751 123.988 118.17 123.658C120.754 123.328 120.534 121.019 120.259 118.764L119.764 114.861L127.792 113.816L128.177 117.005C129.002 123.328 127.187 128.386 118.885 129.431C110.472 130.641 107.173 126.077 106.183 118.544Z" fill="#BF2026"/>
<path d="M130.321 89.7331L147.036 87.5887L147.751 93.1971L139.228 94.2967L140.383 103.534L146.871 102.709L147.586 108.428L141.098 109.252L142.527 120.359L151.105 119.259L151.819 124.813L134.994 126.957L130.321 89.7331Z" fill="#BF2026"/>
<path d="M151.82 86.984L160.067 85.9393L164.081 117.61L172.603 116.51L173.318 122.063L156.548 124.208L151.82 86.984Z" fill="#BF2026"/>
<path d="M173.153 84.2347L181.401 83.1901L185.415 114.861L193.937 113.761L194.652 119.314L177.882 121.459L173.153 84.2347Z" fill="#BF2026"/>
<path d="M194.432 81.5407L211.147 79.3963L211.862 85.0046L203.339 86.1043L204.494 95.3415L210.982 94.5168L211.697 100.235L205.209 101.06L206.638 112.167L215.216 111.067L215.931 116.62L199.106 118.765L194.432 81.5407Z" fill="#BF2026"/>
<path d="M215.93 78.7914L225.332 77.5818C235.01 76.3721 238.254 79.5062 239.353 87.7537L241.058 101.28C242.102 109.637 239.793 113.596 230.171 114.806L220.659 116.015L215.93 78.7914ZM229.456 109.087C233.195 108.593 233.195 106.998 232.755 103.644L230.666 87.4238C230.226 84.1798 229.731 82.8602 226.102 83.3551L224.838 83.52L228.137 109.307L229.456 109.087Z" fill="#BF2026"/>
<path d="M76.4368 34.1448C76.0519 34.4198 75.777 34.8046 75.667 35.2445C75.5021 35.6844 75.5021 36.1792 75.5571 36.6741C75.667 37.2239 75.832 37.7738 76.1619 38.3786C76.4918 38.9834 76.8767 39.5882 77.4265 40.248C78.1413 41.1278 78.8561 41.8425 79.5159 42.2824C80.1757 42.7223 80.8355 42.9422 81.4953 42.9422C82.1001 42.9422 82.7049 42.7223 83.3097 42.2274C83.8596 41.7876 84.2995 41.2927 84.6294 40.7429C84.9593 40.193 85.2892 39.5882 85.6191 38.9284L88.0383 41.9525C87.7084 42.6123 87.3235 43.2721 86.8837 43.8219C86.3888 44.4268 85.839 44.9766 85.1792 45.4715C83.9146 46.5161 82.595 47.066 81.2754 47.1759C79.9557 47.2859 78.6911 47.011 77.4265 46.2962C76.1619 45.5814 74.9523 44.4818 73.7976 43.0522C72.9728 42.0075 72.313 40.9628 71.8732 39.8631C71.4333 38.7635 71.2134 37.7188 71.2134 36.6741C71.2134 35.6294 71.4333 34.6397 71.8732 33.705C72.313 32.7703 73.0278 31.9455 73.9625 31.1757C74.6223 30.6809 75.2821 30.241 76.0519 29.8561C76.8217 29.4712 77.6464 29.1963 78.5812 29.0314L79.8458 32.6603C79.241 32.7703 78.6361 32.9352 78.0313 33.1002C77.4265 33.4301 76.9317 33.705 76.4368 34.1448Z" fill="#BF2026"/>
<path d="M99.1452 36.454L96.8909 33.8148L92.7121 36.0692L93.6469 39.4232L89.3581 41.7325L85.4543 23.8078L90.6778 21.0037L103.489 34.1447L99.1452 36.454ZM94.4166 30.9557L92.1623 28.2615C91.8874 27.9866 91.6125 27.6017 91.2826 27.2168C90.9527 26.8319 90.6228 26.447 90.2929 26.0622C89.963 25.6773 89.6881 25.3474 89.4681 25.0175C89.5781 25.3474 89.743 25.7872 89.853 26.2271C90.018 26.722 90.1279 27.1618 90.2929 27.6567C90.4578 28.1515 90.5678 28.5914 90.6778 28.9763L91.6675 32.3853L94.4166 30.9557Z" fill="#BF2026"/>
<path d="M119.159 29.5261L113.826 31.0657L105.248 21.3886H105.138C105.303 21.8834 105.523 22.3783 105.688 22.8731C105.853 23.368 106.018 23.8628 106.183 24.3577C106.348 24.8525 106.458 25.2374 106.568 25.6223L108.602 32.5502L104.698 33.7049L99.8048 16.7699L105.138 15.2304L113.606 24.6876H113.661C113.496 24.2477 113.331 23.7528 113.166 23.258C113.001 22.7631 112.836 22.3233 112.671 21.8284C112.506 21.3886 112.396 20.9487 112.286 20.6188L110.307 13.7458L114.211 12.5912L119.159 29.5261Z" fill="#BF2026"/>
<path d="M127.957 14.5157C127.462 14.5706 127.077 14.7356 126.692 15.0105C126.362 15.2854 126.032 15.6703 125.812 16.1652C125.592 16.66 125.427 17.2098 125.372 17.9246C125.317 18.5844 125.317 19.3542 125.372 20.179C125.482 21.3336 125.702 22.2683 126.032 23.0381C126.362 23.8079 126.747 24.3577 127.297 24.6876C127.847 25.0175 128.451 25.1825 129.221 25.0725C129.881 25.0175 130.541 24.8526 131.146 24.5776C131.75 24.3027 132.355 23.9728 132.96 23.6429L133.345 27.4918C132.74 27.8767 132.025 28.2066 131.31 28.4265C130.596 28.6464 129.826 28.8114 129.001 28.8664C127.352 29.0313 125.977 28.8114 124.822 28.1516C123.668 27.5467 122.788 26.557 122.128 25.2924C121.468 24.0278 121.029 22.4333 120.864 20.5638C120.754 19.2442 120.809 17.9796 121.029 16.825C121.249 15.6703 121.633 14.6806 122.238 13.8009C122.788 12.9211 123.558 12.2613 124.438 11.7115C125.317 11.1617 126.362 10.8867 127.572 10.7218C128.396 10.6668 129.221 10.6668 130.046 10.7768C130.871 10.8867 131.75 11.1067 132.575 11.4916L131.64 15.1755C131.036 14.9005 130.486 14.7356 129.881 14.5706C129.166 14.4607 128.561 14.4057 127.957 14.5157Z" fill="#BF2026"/>
<path d="M145.771 29.0314L136.314 28.3166L137.634 10.7769L147.091 11.4916L146.816 15.1755L141.812 14.7907L141.593 17.7598L146.211 18.0897L145.936 21.7736L141.318 21.4437L141.043 24.9626L146.046 25.3475L145.771 29.0314Z" fill="#BF2026"/>
<path d="M148.355 29.4711L152.369 12.3163L156.713 13.306L153.579 26.8319L159.132 28.0966L158.307 31.7255L148.355 29.4711Z" fill="#BF2026"/>
<path d="M160.342 32.4952L166.885 16.1651L171.009 17.8146L165.84 30.6808L171.119 32.8251L169.744 36.2891L160.342 32.4952Z" fill="#BF2026"/>
<path d="M179.861 42.1724L171.723 37.3338L180.686 22.1584L188.823 26.9969L186.954 30.186L182.665 27.6567L181.125 30.241L185.084 32.6053L183.215 35.7943L179.256 33.43L177.441 36.4541L181.73 38.9834L179.861 42.1724Z" fill="#BF2026"/>
<path d="M198.281 45.3614C196.961 46.901 195.641 47.9457 194.212 48.5505C192.837 49.1553 191.408 49.3203 190.033 49.0453C188.604 48.7704 187.284 48.0556 185.964 46.956L182.061 43.6569L193.497 30.241L197.621 33.7599C198.94 34.8596 199.82 36.0692 200.315 37.3338C200.81 38.5985 200.865 39.9181 200.535 41.2927C200.205 42.6672 199.435 43.9869 198.281 45.3614ZM194.652 42.5023C195.367 41.6226 195.916 40.8528 196.136 40.138C196.411 39.4232 196.466 38.7634 196.301 38.2136C196.136 37.6088 195.751 37.0589 195.202 36.5641L194.487 35.9043L187.944 43.602L188.494 44.0418C189.483 44.8666 190.473 45.1415 191.463 44.9216C192.397 44.6467 193.442 43.8219 194.652 42.5023Z" fill="#BF2026"/>
<path d="M88.3135 178.257C87.9286 177.927 87.5437 177.762 87.0489 177.707C86.609 177.652 86.1142 177.707 85.6193 177.927C85.1244 178.147 84.6296 178.422 84.0798 178.862C83.5299 179.301 83.0351 179.851 82.4852 180.456C81.7704 181.336 81.2756 182.161 80.9457 182.93C80.6708 183.7 80.5608 184.36 80.7258 184.965C80.8357 185.57 81.2206 186.119 81.8254 186.614C82.3753 187.054 82.9251 187.384 83.5299 187.604C84.1347 187.824 84.7945 188.044 85.5093 188.209L83.0351 191.233C82.3203 191.068 81.6055 190.848 80.9457 190.463C80.2859 190.133 79.6261 189.693 78.9663 189.143C77.7017 188.099 76.8219 186.944 76.437 185.679C76.0522 184.415 76.0522 183.095 76.492 181.721C76.9319 180.346 77.7017 178.917 78.9113 177.487C79.7361 176.442 80.6708 175.563 81.6055 174.958C82.5952 174.298 83.5299 173.858 84.5746 173.638C85.5643 173.418 86.609 173.418 87.5987 173.693C88.5884 173.913 89.5781 174.463 90.5128 175.178C91.1726 175.672 91.7225 176.277 92.2723 176.992C92.7672 177.652 93.207 178.422 93.5919 179.246L90.3479 181.226C90.1279 180.621 89.853 180.071 89.5231 179.576C89.1932 179.136 88.8083 178.642 88.3135 178.257Z" fill="#BF2026"/>
<path d="M95.3514 199.205L96.2861 195.851L92.0523 193.597L89.798 196.236L85.4543 193.927L98.1555 180.676L103.379 183.48L99.5851 201.46L95.3514 199.205ZM97.3308 192.223L98.2655 188.869C98.3755 188.484 98.4854 188.044 98.6504 187.549C98.7603 187.054 98.9253 186.559 99.0902 186.064C99.2552 185.57 99.3652 185.13 99.4751 184.8C99.2552 185.075 98.9803 185.405 98.7053 185.789C98.3754 186.174 98.1005 186.559 97.7706 186.944C97.4407 187.329 97.1658 187.714 96.8909 187.989L94.6366 190.683L97.3308 192.223Z" fill="#BF2026"/>
<path d="M118.059 206.958L112.671 205.473L110.417 192.717H110.307C110.197 193.212 110.087 193.762 109.977 194.257C109.867 194.807 109.757 195.302 109.647 195.796C109.537 196.291 109.427 196.731 109.317 197.116L107.393 204.099L103.489 203.054L108.162 186.064L113.496 187.549L115.75 200.03H115.805C115.915 199.535 116.025 199.04 116.135 198.546C116.245 198.051 116.355 197.556 116.465 197.116C116.575 196.676 116.685 196.236 116.795 195.851L118.664 188.923L122.623 190.023L118.059 206.958Z" fill="#BF2026"/>
<path d="M131.75 193.982C131.256 193.927 130.816 194.037 130.431 194.257C130.046 194.477 129.716 194.807 129.386 195.247C129.111 195.687 128.836 196.236 128.671 196.896C128.506 197.556 128.396 198.271 128.341 199.15C128.287 200.305 128.341 201.24 128.561 202.065C128.781 202.834 129.111 203.439 129.551 203.879C129.991 204.319 130.651 204.539 131.366 204.594C132.025 204.649 132.685 204.539 133.345 204.374C134.005 204.209 134.61 203.989 135.269 203.714L135.049 207.618C134.39 207.893 133.675 208.113 132.905 208.223C132.135 208.333 131.366 208.388 130.541 208.333C128.891 208.223 127.517 207.783 126.472 207.013C125.427 206.243 124.658 205.144 124.218 203.769C123.778 202.395 123.613 200.8 123.668 198.931C123.723 197.556 123.998 196.346 124.383 195.247C124.768 194.147 125.317 193.212 126.032 192.442C126.747 191.673 127.572 191.123 128.506 190.683C129.441 190.298 130.541 190.133 131.75 190.188C132.575 190.243 133.4 190.408 134.225 190.628C135.049 190.848 135.819 191.233 136.644 191.728L135.159 195.247C134.61 194.917 134.06 194.587 133.51 194.367C132.96 194.202 132.355 194.037 131.75 193.982Z" fill="#BF2026"/>
<path d="M149.565 206.958L140.163 208.113L138.074 190.628L147.476 189.473L147.916 193.157L142.967 193.762L143.297 196.731L147.916 196.181L148.356 199.865L143.737 200.415L144.177 203.934L149.125 203.329L149.565 206.958Z" fill="#BF2026"/>
<path d="M154.074 206.133L149.4 189.143L153.689 187.934L157.373 201.295L162.871 199.755L163.861 203.329L154.074 206.133Z" fill="#BF2026"/>
<path d="M167.875 201.845L160.507 185.844L164.576 183.975L170.404 196.566L175.572 194.202L177.112 197.556L167.875 201.845Z" fill="#BF2026"/>
<path d="M188.603 190.133L180.74 195.411L170.898 180.786L178.761 175.507L180.795 178.587L176.672 181.391L178.321 183.865L182.17 181.281L184.204 184.36L180.356 186.944L182.335 189.858L186.459 187.054L188.603 190.133Z" fill="#BF2026"/>
<path d="M195.751 171.109C197.126 172.538 198.061 173.968 198.555 175.397C199.05 176.827 199.05 178.257 198.665 179.631C198.28 181.006 197.456 182.325 196.191 183.535L192.507 187.109L180.191 174.573L184.095 170.779C185.304 169.569 186.569 168.799 187.889 168.415C189.208 168.03 190.528 168.085 191.847 168.525C193.167 168.964 194.487 169.844 195.751 171.109ZM192.562 174.463C191.792 173.638 191.023 173.088 190.363 172.758C189.703 172.428 189.043 172.318 188.438 172.428C187.834 172.538 187.284 172.868 186.734 173.418L186.019 174.078L193.112 181.281L193.607 180.786C194.542 179.906 194.871 178.916 194.707 177.927C194.487 176.882 193.772 175.782 192.562 174.463Z" fill="#BF2026"/>
</svg>
