<svg width="124" height="124" viewBox="0 0 124 124" fill="none" xmlns="http://www.w3.org/2000/svg">
<circle cx="62" cy="62" r="62" fill="#FCEBE6"/>
<path d="M61.8823 29C43.6933 29 28.8823 43.8037 28.8823 61.9838C28.8823 80.1638 43.6609 95 61.8823 95C80.1038 95 94.8823 80.1963 94.8823 62.0162C94.8823 43.8362 80.0713 29 61.8823 29ZM61.8823 36.0123C69.2554 36.0123 75.9138 39.0964 80.6559 44.031L39.7632 75.6837C37.2947 71.6906 35.8656 67.0157 35.8656 61.9838C35.8656 47.667 47.526 36.0123 61.8823 36.0123ZM61.8823 88.0202C54.9315 88.0202 48.5979 85.2607 43.9207 80.7806L84.5536 49.2902C86.6648 53.0561 87.8991 57.3738 87.8991 62.0162C87.8991 76.333 76.2061 88.0202 61.8823 88.0202Z" fill="#CB481F"/>
</svg>
