<?xml version="1.0" encoding="utf-8"?>
<!-- Generator: Adobe Illustrator 27.3.1, SVG Export Plug-In . SVG Version: 6.00 Build 0)  -->
<svg version="1.1" id="Layer_1" xmlns="http://www.w3.org/2000/svg" xmlns:xlink="http://www.w3.org/1999/xlink" x="0px" y="0px"
	 viewBox="0 0 100 100" style="enable-background:new 0 0 100 100;" xml:space="preserve">
<path d="M63.5,61c-0.3,0.3-0.5,0.5-0.8,0.8c-2.5,2.8-5.7,4.5-9.3,5.2c-0.6,0.1-0.8,0.3-0.8,0.9c0,3.2,0,6.5,0,9.7
	c0,0.5,0.3,0.6,0.6,0.7c4.3,1.3,6.8,4.3,7.6,8.6c1.1,5.4-1.9,10.5-7.1,12.5c-6.4,2.4-13.4-1.6-14.7-8.4c-1.1-5.5,2.1-11,7.5-12.6
	c0.5-0.2,0.7-0.4,0.7-0.9c0-3.3,0-6.6,0.1-9.9c0-0.5-0.4-0.5-0.6-0.5c-2.6-0.5-5-1.5-7.1-3.1c-1-0.8-1.8-1.7-2.7-2.5
	c-0.3-0.3-0.5-0.4-0.9-0.2c-2.8,1.6-5.6,3.2-8.4,4.8c-0.5,0.3-0.7,0.6-0.5,1.2c1.2,5.6-2.1,11.2-7.5,12.9c-6.4,2-13.2-2.1-14.3-8.7
	c-1.3-7.4,5-13.5,11.7-13c2.6,0.2,4.9,1.1,6.9,2.9c0.4,0.3,0.6,0.3,1,0.1c2.8-1.6,5.5-3.2,8.3-4.8c0.4-0.2,0.5-0.4,0.4-0.9
	c-1.3-3.8-1.4-7.6,0-11.3c0.2-0.5,0.1-0.7-0.4-1c-2.7-1.5-5.5-3.1-8.2-4.7c-0.5-0.3-0.8-0.3-1.3,0.1c-6,5.1-14.7,3-17.7-4.1
	c-2.8-6.7,1.6-14.3,8.8-15.2c6.1-0.8,11.6,3.2,12.6,9.3c0.2,1.4,0.3,2.9-0.2,4.3c-0.1,0.4,0,0.5,0.3,0.7c2.9,1.6,5.8,3.3,8.7,5
	c0.5,0.3,0.7,0,0.9-0.3c1.9-2.2,4.1-3.8,6.8-4.8c0.9-0.3,1.9-0.6,2.9-0.8c0.4-0.1,0.5-0.2,0.5-0.6c0-3.3,0-6.6,0-9.9
	c0-0.5-0.3-0.6-0.6-0.7c-2.6-0.8-4.6-2.3-6-4.5c-2.4-3.9-2.5-8-0.1-11.9c2.4-3.8,6-5.5,10.5-5.2c4.5,0.3,9.1,3.7,9.9,9.5
	c0.6,4.2-1,8.6-5.2,11c-0.8,0.5-1.7,0.8-2.6,1.2c-0.4,0.1-0.5,0.3-0.5,0.7c0,3.4,0,6.7,0,10.1c0,0.5,0.4,0.5,0.6,0.5
	c2.4,0.5,4.7,1.3,6.7,2.8c1.1,0.9,2.1,1.9,3.1,2.9c0.3,0.3,0.5,0.4,0.9,0.2c2.8-1.7,5.6-3.3,8.5-4.9c0.5-0.3,0.6-0.5,0.5-1
	c-1.5-5.9,2.6-11.7,8-13.1c6.4-1.6,12.9,2.5,13.8,9c1.1,7.2-4.5,12.4-10,12.8c-3.3,0.3-6.2-0.6-8.6-2.9c-0.3-0.3-0.6-0.3-1-0.1
	c-2.8,1.6-5.6,3.3-8.4,4.9c-0.4,0.2-0.5,0.5-0.3,0.9c1.3,3.8,1.2,7.6,0,11.4c-0.1,0.4-0.1,0.6,0.3,0.8c2.8,1.6,5.6,3.2,8.3,4.8
	c0.5,0.3,0.8,0.2,1.2-0.1c4.5-4.2,11.9-3.7,15.9,1c3.2,3.8,3.6,8,1.4,12.3c-2.1,4.2-5.7,6.2-10.4,6.1c-5.4-0.1-10.1-4.6-10.5-10
	c-0.1-1.2,0.2-2.5,0.2-3.7c0-0.2-0.1-0.5-0.2-0.6C69.6,64.5,66.6,62.7,63.5,61z M49.9,38c-6.2-0.2-12,5.3-12,12
	c0,6.5,5.5,12.1,12.1,12.1c6.4,0,12.1-5.2,12.1-12.2C62,43.2,56.5,38,49.9,38z M50,5.5c-3.2,0-5.7,2.5-5.7,5.7
	c0,3.1,2.5,5.7,5.7,5.7c3.2,0,5.7-2.5,5.8-5.8C55.7,8,53.1,5.5,50,5.5z M50,94.6c3.1,0,5.9-2.6,5.8-5.7c-0.1-2.9-2.2-5.6-5.7-5.7
	c-3.2,0-5.8,2.5-5.8,5.7C44.3,92,46.8,94.6,50,94.6z M16.3,24.8c-3.2,0-5.7,2.6-5.7,5.7c0,3.2,2.6,5.7,5.8,5.7
	c3.1,0,5.7-2.6,5.7-5.8C22,27.4,19.4,24.8,16.3,24.8z M83.7,24.8c-3.2,0-5.7,2.5-5.7,5.7c0,3.2,2.6,5.7,5.8,5.7
	c3.1,0,5.7-2.6,5.7-5.7C89.4,27.4,86.8,24.8,83.7,24.8z M16.3,63.8c-3.2,0-5.7,2.5-5.7,5.7c0,3.2,2.6,5.7,5.8,5.7
	c3.1,0,5.7-2.6,5.7-5.7C22,66.4,19.4,63.8,16.3,63.8z M83.7,63.8c-3.2,0-5.8,2.6-5.7,5.7c0,3.1,2.6,5.7,5.7,5.6
	c3.1,0,5.7-2.6,5.7-5.7C89.4,66.4,86.8,63.8,83.7,63.8z"/>
</svg>
