<?xml version="1.0" encoding="utf-8"?>
<!-- Generator: Adobe Illustrator 27.3.1, SVG Export Plug-In . SVG Version: 6.00 Build 0)  -->
<svg version="1.1" id="Layer_1" xmlns="http://www.w3.org/2000/svg" xmlns:xlink="http://www.w3.org/1999/xlink" x="0px" y="0px"
	 viewBox="0 0 100 100" style="enable-background:new 0 0 100 100;" xml:space="preserve">
<g>
	<path d="M82.5,64.6c8,0,14.6-6.5,14.6-14.6s-6.5-14.6-14.6-14.6H72.4v-4.6h10.1c8,0,14.6-6.5,14.6-14.6c0-8-6.5-14.6-14.6-14.6
		H57.9c-8,0-14.6,6.5-14.6,14.6c0,8,6.5,14.6,14.6,14.6H68v4.6H57.9c-8,0-14.6,6.5-14.6,14.6s6.5,14.6,14.6,14.6H68v4.6H57.9
		c-8,0-14.6,6.5-14.6,14.6c0,8,6.5,14.6,14.6,14.6h24.6c8,0,14.6-6.5,14.6-14.6c0-8-6.5-14.6-14.6-14.6H72.4v-4.6H82.5z M47.9,16.2
		c0-5.5,4.5-10,10-10h24.6c5.5,0,10,4.5,10,10s-4.5,10-10,10H57.9C52.4,26.2,47.9,21.7,47.9,16.2z M92.5,83.8c0,5.5-4.5,10-10,10
		H57.9c-5.5,0-10-4.5-10-10s4.5-10,10-10h24.6C88,73.8,92.5,78.3,92.5,83.8z M47.9,50c0-5.5,4.5-10,10-10h24.6c5.5,0,10,4.5,10,10
		s-4.5,10-10,10H57.9C52.4,60,47.9,55.5,47.9,50z"/>
	<polygon points="24.3,7.4 31.5,14.1 19.4,14.1 19.4,18.2 31.6,18.2 24.3,25 26.7,27.5 38.6,16.2 26.7,5 	"/>
	<path d="M4.9,18.6L8.2,21c1.7-2.4,5.2-2.9,9-2.8v-4.1C13.5,14,8,14.3,4.9,18.6z"/>
	<polygon points="7,25.2 2.9,25.3 2.9,37 7,36.9 	"/>
	<polygon points="7,42.7 2.9,42.7 2.9,54.4 7,54.4 	"/>
	<polygon points="7,60.1 2.9,60.1 2.9,71.8 7,71.9 	"/>
	<path d="M7.2,77l-3.9,1.1c0.6,2.3,2.1,4.5,4.2,5.9c2.1,1.4,4.5,1.8,6.7,1.9l0.1-4.1C10.7,81.8,8,80.1,7.2,77z"/>
	<rect x="19.9" y="81.8" width="11.7" height="4.1"/>
	<path d="M80.4,14.5H60c-0.9,0-1.7,0.7-1.7,1.7c0,0.9,0.7,1.7,1.7,1.7h20.4c0.9,0,1.7-0.7,1.7-1.7C82,15.3,81.3,14.5,80.4,14.5z"/>
	<path d="M80.4,48.3H60c-0.9,0-1.7,0.7-1.7,1.7c0,0.9,0.7,1.7,1.7,1.7h20.4c0.9,0,1.7-0.7,1.7-1.7C82,49.1,81.3,48.3,80.4,48.3z"/>
	<path d="M60,85.5h20.4c0.9,0,1.7-0.7,1.7-1.7c0-0.9-0.7-1.7-1.7-1.7H60c-0.9,0-1.7,0.7-1.7,1.7C58.3,84.7,59.1,85.5,60,85.5z"/>
</g>
</svg>
