<svg width="124" height="124" viewBox="0 0 124 124" fill="none" xmlns="http://www.w3.org/2000/svg">
<circle cx="62" cy="62" r="62" fill="#F4FFF3"/>
<g clip-path="url(#clip0_0_9)">
<path d="M62 29.1765C49.1797 29.1765 38.75 39.6061 38.75 52.4265C38.75 74.9051 60.192 93.7021 61.1056 94.4898C61.3627 94.7114 61.6827 94.8235 62 94.8235C62.3173 94.8235 62.6373 94.7114 62.8944 94.4898C63.808 93.6993 85.25 74.9024 85.25 52.4265C85.25 39.6061 74.8203 29.1765 62 29.1765ZM62 67.4706C53.7066 67.4706 46.9559 60.7226 46.9559 52.4265C46.9559 44.1303 53.7066 37.3823 62 37.3823C70.2934 37.3823 77.0441 44.1303 77.0441 52.4265C77.0441 60.7226 70.2934 67.4706 62 67.4706Z" fill="#43853D"/>
<path d="M59.2647 59.2647C58.9146 59.2647 58.5645 59.1307 58.2964 58.8653L52.8258 53.3947C52.2924 52.8614 52.2924 51.9943 52.8258 51.4609C53.3592 50.9275 54.2263 50.9275 54.7597 51.4609L59.262 55.9632L69.2348 45.9903C69.7682 45.4569 70.6353 45.4569 71.1687 45.9903C71.7021 46.5237 71.7021 47.3908 71.1687 47.9242L60.2275 58.8653C59.9649 59.1307 59.6148 59.2647 59.2647 59.2647Z" fill="#43853D"/>
</g>
<defs>
<clipPath id="clip0_0_9">
<rect width="65.6471" height="65.6471" fill="white" transform="translate(29.1765 29.1765)"/>
</clipPath>
</defs>
</svg>
