<?xml version="1.0" encoding="utf-8"?>
<!-- Generator: Adobe Illustrator 27.3.1, SVG Export Plug-In . SVG Version: 6.00 Build 0)  -->
<svg version="1.1" id="Layer_1" xmlns="http://www.w3.org/2000/svg" xmlns:xlink="http://www.w3.org/1999/xlink" x="0px" y="0px"
	 viewBox="0 0 100 100" style="enable-background:new 0 0 100 100;" xml:space="preserve">
<g>
	<path d="M71.9,14.9c1.9,0,5.8,0,7.6,0c2.6,0,3.8,1.2,3.8,3.8s0,5.1,0,7.7c0,2.9,0,5.8,0,8.6c0,0.3,0,0.8,0.1,1.2
		c0.2,0.8,0.8,1.2,1.5,1.2c0.8,0,1.4-0.5,1.5-1.3c0-0.2,0-0.4,0-0.6v-0.1c0-1.6,0-3.2,0-4.7c0-4,0-8.1,0-12.2c0-4-2.6-6.6-6.6-6.6
		c-0.9,0-1.8,0-2.7,0c-1.2,0-4.4,0-5.6,0c-0.5,0-1.1,0-1.6,0c-0.1,0-0.1,0-0.2,0c-0.4-2.4-1.1-3-3.5-3c-0.7,0-1.4,0-2.1,0
		c-1.9,0-3.9,0-5.9,0l0,0c-0.5,0-0.7-0.2-0.9-0.7c-0.5-1.6-1.4-3-2.8-3.8c-0.7-0.4-1.5-0.7-2.2-1c-0.3-0.1-2.7-0.6-3.9-0.2
		c-2.9,0.9-4.6,2.4-5.5,5.2c-0.1,0.5-0.3,0.5-0.8,0.5l0,0c-2.1,0-4.1,0-6.2,0h-2.6l0,0c-1.2,0-2.1,0.5-2.5,1.5
		c-0.1,0.3-0.2,0.7-0.3,1c0,0.1-0.1,0.3-0.1,0.4h-2.1c-1.9,0-5.8,0-7.7,0c-0.7,0-1.4,0-2.1,0.2c-3.1,0.7-4.9,3.2-4.9,6.6
		c0,10.6,0,21.1,0,31.7V71c0,6.3,0,11.8,0,19.3c0,4.1,2.6,6.7,6.7,6.7c6.6,0,15.5,0,22.4,0c11.4,0,25.1,0,36.8,0
		c0.8,0,1.6-0.1,2.3-0.3c2.8-0.9,4.4-3.3,4.4-6.5c0-16.1,0-28.5,0-44.2v-3c0-0.2,0-0.4,0-0.6c-0.1-0.9-0.6-1.4-1.5-1.4
		c-0.8,0-1.4,0.4-1.6,1.3c-0.1,0.3,0,0.6,0,0.9v0.2c0,11.1,0,22.3,0,33.4v4.8c0,2.7,0,4.7,0,8.6c0,2.6-1.2,3.8-3.7,3.8H68.9
		c-15.2,0-32.9,0-48.4,0c-0.8,0-1.6-0.2-2.2-0.5c-1.1-0.6-1.6-1.6-1.6-3.2c0-18,0-33.8,0-50.6V18.6c0-2.5,1.2-3.7,3.7-3.7
		c2.4,0,6.7,0,9.1,0c0.2,0,0.4,0,0.6,0c0.1,0,0.1,0,0.2,0v2.8h-1.5c-1.1,0-4.1,0-5.2,0c-2.8,0-4.1,1.3-4.1,4.1c0,20,0,34.6,0,54.6
		v0.2c0,0.3,0,0.5,0,0.8c0.1,0.8,0.6,1.3,1.4,1.3c0.8,0.1,1.4-0.3,1.6-1.1c0.1-0.4,0.1-0.9,0.1-1.4c0-17.2,0-30.4,0-46.6v-7.4
		c0-0.1,0-0.2,0-0.3c0-0.2,0-0.4,0-0.6c0.1-0.2,0.3-0.5,0.5-0.5c1.4,0,4.7,0,6.1,0h1.2c0,0.1,0,0.3,0,0.4c0,0.3,0,1.6,0,1.9
		c0.1,2.7,1.9,4.5,4.6,4.5c1.1,0,2,0,2.8,0c1.1,0,1.7-0.6,1.7-1.5s-0.6-1.5-1.7-1.6c-0.5,0-1,0-1.5,0c-0.4,0-0.7,0-1.1,0
		c-1.2,0-1.7-0.4-1.7-1.6c0-2.8,0-6.7,0-9.5v-1.2c0-0.1,0-0.2,0.1-0.3v-0.1h2.7c2.2,0,4.4,0,6.6,0c1.7,0,2.3-0.5,2.6-2.2
		c0.4-2.3,2.1-3.8,4.3-3.8l0,0c2.2,0,3.9,1.5,4.3,3.8c0.3,1.6,0.9,2.1,2.6,2.1c2,0,4,0,6,0h3.4c0,1,0,1.9,0,2.9c0,2.6,0,6,0,8.5
		c0,0.9-0.5,1.3-1.6,1.3c-1.9,0-3.8,0-5.7,0h-5.5c-2.8,0-5.5,0-8.3,0c-1.1,0-1.8,0.6-1.8,1.5c0,0.4,0.1,0.8,0.4,1.1
		c0.3,0.3,0.8,0.5,1.3,0.5h2c6,0,12.1,0,18.2,0c2,0,3.7-1.5,4.1-3.5c0.1-0.5,0.1-2,0.2-2.6c0-0.2,0-0.4,0-0.7h6.5
		c1.2,0,1.2,0,1.2,1.3v63.7c0,1.2,0,1.2-1.3,1.2h-52h-0.1c-0.1,0-0.2,0-0.3,0c-0.3,0-0.5,0-0.6-0.1s-0.2-0.3-0.2-0.5
		c0-0.1,0-0.2,0-0.3c0-0.1,0-0.1-0.1-0.1c-0.1-0.9-0.7-1.4-1.6-1.4c-0.7,0-1.2,0.5-1.4,1.2c-0.1,0-0.1,0.1-0.1,0.1l0,0
		c0,0,0,0,0,0.1c0,0.4,0,0.5,0,0.6c0.1,2.5,1.4,3.7,4.1,3.7c3.9,0,9.9,0,13.8,0c12,0,26.3,0,38.5,0l0,0c1.3,0,2.5-0.4,3.2-1.1
		c0.7-0.7,1.1-1.8,1.1-3.2c0-17.5,0-31.7,0-47.8c0-5.2,0-10.5,0-16.1v-0.2c0-0.2,0-0.3,0-0.5c0-2.2-1.4-3.6-3.6-3.6
		c-0.5,0-1,0-1.5,0h-5.7v-2.8L71.9,14.9z"/>
	<path d="M50,34.4c-0.1,0-0.2,0-0.2,0c-8.2,0.1-14.7,6.9-14.6,15.1c0.1,4,1.7,7.8,4.6,10.6c2.8,2.7,6.5,4.2,10.3,4.2
		c0.1,0,0.2,0,0.2,0c8.3-0.1,14.9-6.9,14.8-15.2c-0.1-4-1.7-7.8-4.5-10.5C57.7,35.9,54,34.4,50,34.4z M61.9,49.4
		c0,6.5-5.3,11.8-11.8,11.8l0,0c-3.2,0-6.1-1.2-8.4-3.5c-2.2-2.3-3.5-5.3-3.4-8.4c0-6.5,5.4-11.8,11.9-11.8l0,0
		C56.7,37.5,62,42.9,61.9,49.4z"/>
	<path d="M67.5,78.3c-3.8,0-7.6,0-11.3,0H43.4c-0.5,0-0.9,0-1.4,0c-1.2,0-2.5,0-3.7,0c-1,0-1.6,0.6-1.6,1.5s0.6,1.5,1.6,1.6
		c0.1,0,0.2,0,0.3,0c0.1,0,0.1,0,0.2,0h5.4c7.7,0,15.5,0,23.2,0h0.2c0.4,0,0.8,0,1.1-0.2c0.4-0.3,0.9-0.8,0.9-1.2
		c0.1-0.5-0.3-1.1-0.6-1.4C68.6,78.3,68,78.3,67.5,78.3z"/>
	<path d="M68.2,70.2L68.2,70.2c-0.3,0-0.6,0-0.8,0h-0.1c-3.5,0-7,0-10.6,0H41.9c-0.3,0-0.7,0-1,0c-0.9,0-1.8,0-2.8,0
		c-0.9,0-1.6,0.7-1.5,1.5c0,0.9,0.5,1.4,1.4,1.6c0.2,0,0.3,0,0.5,0c0.1,0,0.1,0,0.2,0h0.2c9.5,0,18.9,0,28.4,0c0.4,0,0.8,0,1.2-0.1
		c0.7-0.2,1.1-0.8,1.1-1.6C69.5,70.8,69,70.3,68.2,70.2z"/>
	<path d="M38.4,17.2c-1.1,0-1.7,0.6-1.8,1.5c0,0.9,0.6,1.6,1.7,1.7c0.1,0,0.2,0,0.3,0c0.1,0,0.1,0,0.2,0h1.8c6.9,0,13.8,0,20.7,0
		c0.4,0,0.8,0,1.2-0.1c0.5-0.1,0.9-0.5,1.1-1c0.1-0.4,0.1-0.9-0.2-1.2c-0.3-0.4-1.1-0.7-1.6-0.8c-2.9,0-5.9,0-8.8,0
		c-0.9,0-1.9,0-2.8,0h-3.3C44,17.2,41.2,17.2,38.4,17.2z"/>
	<path d="M32.2,78.3L32.2,78.3c-0.9,0-1.5,0.7-1.6,1.5c0,0.4,0.2,0.8,0.5,1.1c0.3,0.3,0.7,0.5,1.1,0.5l0,0c0.4,0,0.8-0.2,1.1-0.5
		c0.3-0.3,0.5-0.7,0.4-1.2C33.7,78.9,33.1,78.3,32.2,78.3z"/>
	<path d="M32.2,70.2L32.2,70.2c-0.4,0-0.8,0.2-1.1,0.5c-0.3,0.3-0.4,0.7-0.4,1.1c0,0.8,0.7,1.5,1.5,1.5l0,0c0.4,0,0.8-0.2,1.1-0.5
		c0.3-0.3,0.5-0.7,0.5-1.1C33.7,70.8,33.1,70.2,32.2,70.2z"/>
	<path d="M50.1,11.9c0.4,0,0.8-0.2,1.1-0.5c0.3-0.3,0.4-0.7,0.4-1.1c0-0.8-0.7-1.5-1.5-1.5l0,0c-0.8,0-1.5,0.7-1.5,1.5
		c0,0.4,0.1,0.8,0.4,1.1C49.3,11.8,49.7,11.9,50.1,11.9L50.1,11.9z"/>
	<path d="M54.2,45.5l-5.3,5.3c-0.3-0.3-0.6-0.7-1-1c-0.8-0.8-1.5-1.6-2.3-2.3c-0.4-0.4-0.9-0.7-1.4-0.7l0,0c-0.4,0-0.7,0.2-1,0.5
		c-0.6,0.7-0.5,1.6,0.2,2.4c1.2,1.2,2.4,2.4,3.3,3.3c0.7,0.7,1.5,1.1,2.2,1.1s1.4-0.4,2.2-1.1c1.3-1.3,2.6-2.6,3.9-3.9l1.4-1.4
		c0.7-0.7,1-1.3,1-1.8c0-0.4-0.2-0.7-0.5-1C56.2,44.3,55.3,44.5,54.2,45.5z"/>
</g>
</svg>
