<svg width="18" height="22" viewBox="0 0 18 22" fill="none" xmlns="http://www.w3.org/2000/svg">
<g clip-path="url(#clip0_2139_11626)">
<path d="M16.7108 9.70781H14.9507V9.2029C14.9507 8.95936 14.7442 8.76193 14.4895 8.76193H12.5868C12.3321 8.76193 12.1256 8.95936 12.1256 9.2029V9.70781H10.3654C9.93087 9.70781 9.57861 10.0446 9.57861 10.4601V14.8092C9.57672 15.0102 9.65903 15.2035 9.80717 15.3461C9.9553 15.4887 10.157 15.5687 10.3672 15.5682H16.7038C17.1383 15.5682 17.4906 15.2314 17.4906 14.8159V10.4601C17.4906 10.0473 17.1426 9.71152 16.7108 9.70781ZM13.4633 14.1444C13.4633 14.2429 13.3798 14.3228 13.2767 14.3228H10.9744C10.8714 14.3228 10.7878 14.2429 10.7878 14.1444V13.7169C10.7859 13.2009 11.1108 12.7351 11.6099 12.5387C11.2803 12.3226 11.1364 11.9265 11.2547 11.5616C11.373 11.1967 11.726 10.9479 12.1256 10.9479C12.5251 10.9479 12.8782 11.1967 12.9965 11.5616C13.1148 11.9265 12.9708 12.3226 12.6413 12.5387C13.1403 12.7351 13.4653 13.2009 13.4633 13.7169V14.1444ZM15.5386 13.7674C15.5386 13.8603 15.4598 13.9357 15.3625 13.9357H14.2888C14.1916 13.9357 14.1128 13.8603 14.1128 13.7674V13.6091C14.1128 13.5162 14.1916 13.4408 14.2888 13.4408H15.3625C15.4598 13.4408 15.5386 13.5162 15.5386 13.6091V13.7674ZM16.2902 12.707C16.2902 12.8 16.2114 12.8753 16.1141 12.8753H14.2853C14.1881 12.8753 14.1093 12.8 14.1093 12.707V12.5556C14.1093 12.4626 14.1881 12.3872 14.2853 12.3872H16.1124C16.2096 12.3872 16.2884 12.4626 16.2884 12.5556L16.2902 12.707ZM16.2902 11.6517C16.2902 11.7447 16.2114 11.8201 16.1141 11.8201H14.2853C14.1881 11.8201 14.1093 11.7447 14.1093 11.6517V11.4935C14.1093 11.4006 14.1881 11.3252 14.2853 11.3252H16.1124C16.2096 11.3252 16.2884 11.4006 16.2884 11.4935L16.2902 11.6517ZM8.64923 15.5682V10.4601C8.6502 9.55331 9.41878 8.8184 10.3672 8.81747H11.2473C11.4258 8.25747 11.9657 7.87444 12.5779 7.87328H14.0952V4.98346C14.115 4.67678 13.942 4.38825 13.6552 4.24965L13.1394 4.05778L11.9073 3.60167L10.508 3.0816L9.25298 2.60866L7.98741 2.13741L7.95396 2.12731L7.92052 2.11889C7.84761 2.1023 7.77165 2.1023 7.69874 2.11889L7.6653 2.12731L7.63185 2.13741L1.96936 4.24965C1.68256 4.38825 1.50954 4.67678 1.52932 4.98346V14.072H0.913258C0.48115 14.072 0.130859 14.4069 0.130859 14.8201C0.130859 15.2333 0.48115 15.5682 0.913258 15.5682H8.64923ZM2.76672 5.55402L7.19005 3.9063V5.15009L2.76672 6.58574V5.55402ZM2.76672 7.63765L7.19005 6.42248V7.69656L2.76672 8.68956V7.63765ZM2.76672 9.73979L7.19005 8.96558V10.2397L2.76672 10.7917V9.73979ZM2.76672 11.8419L7.19005 11.5053V12.7794L2.76672 12.8905V11.8419Z" fill="#757575"/>
</g>
<defs>
<clipPath id="clip0_2139_11626">
<rect width="17.6018" height="21.0383" fill="white" transform="translate(0.0136719 0.420898)"/>
</clipPath>
</defs>
</svg>
