<svg width="15" height="14" viewBox="0 0 15 14" fill="none" xmlns="http://www.w3.org/2000/svg">
<path id="Vector" d="M8.97639 13.8304H7.70354V12.6133H8.97639V13.8304ZM11.5221 12.6133H10.2492V13.8304H11.5221V12.6133ZM8.97639 10.1791H7.70354V11.3962H8.97639V10.1791ZM3.88497 12.6133H2.61212V13.8304H3.88497V12.6133ZM3.88497 10.1791H2.61212V11.3962H3.88497V10.1791ZM11.5221 10.1791H10.2492V11.3962H11.5221V10.1791ZM8.97639 7.74492H7.70354V8.96201H8.97639V7.74492ZM11.5221 7.74492H10.2492V8.96201H11.5221V7.74492ZM12.795 5.31074C13.1325 5.31074 13.4563 5.43897 13.695 5.66722C13.9337 5.89546 14.0678 6.20504 14.0678 6.52783V13.8304H12.795V6.52783H6.43068V13.8304H5.15783V8.96201H1.33926V13.8304H0.0664062V8.96201C0.0664062 8.63921 0.20051 8.32964 0.439217 8.10139C0.677923 7.87315 1.00168 7.74492 1.33926 7.74492H5.15783V6.52783C5.15783 6.20504 5.29193 5.89546 5.53064 5.66722C5.76934 5.43897 6.0931 5.31074 6.43068 5.31074V4.09365C6.43068 3.77086 6.56479 3.46129 6.80349 3.23304C7.0422 3.00479 7.36595 2.87656 7.70354 2.87656H8.97639V0.442383H10.2492V2.87656H11.5221C11.8597 2.87656 12.1834 3.00479 12.4221 3.23304C12.6609 3.46129 12.795 3.77086 12.795 4.09365V5.31074ZM11.5221 5.31074V4.09365H7.70354V5.31074H11.5221Z" fill="#494949"/>
</svg>
