<svg width="40" height="40" viewBox="0 0 40 40" fill="none" xmlns="http://www.w3.org/2000/svg">
<g id="Group">
<path id="Vector" d="M23.6804 38.1436C22.0126 36.2879 21.1088 34.1243 21.1088 31.6126C21.1088 30.9047 21.1648 30.1968 21.1928 29.493C21.0928 29.457 20.9968 29.385 20.8968 29.385C15.8736 29.385 10.8543 29.385 5.83109 29.393C5.34317 29.285 4.95126 28.8371 4.91527 28.3371C4.87527 27.8052 5.15919 27.4173 5.72711 27.2253C5.79909 27.2013 5.8711 27.1813 5.94309 27.1573C6.14706 27.1493 6.35104 27.1373 6.55501 27.1373C11.4943 27.1373 16.4295 27.1373 21.3688 27.1373C21.5527 27.1373 21.7407 27.1173 21.9246 27.1053C21.9486 27.0813 21.9767 27.0533 22.0006 27.0293C22.5206 26.1735 23.0405 25.3176 23.5524 24.4737C17.7213 24.4737 11.8542 24.4697 5.98708 24.4817C5.47115 24.4817 5.21118 24.1858 5.02721 23.8138C4.64727 23.0259 5.25522 22.1981 6.16708 22.2061C10.6864 22.2301 15.2057 22.2141 19.725 22.2181C20.9688 22.2181 22.2126 22.2301 23.4604 22.2381C23.5004 22.2661 23.5364 22.2901 23.5764 22.3181C24.1763 22.366 24.3883 22.634 24.5403 23.5379C25.1562 23.1339 25.7401 22.654 26.4 22.35C27.3718 21.9021 28.4037 21.5822 29.4115 21.2062C29.4435 21.0502 29.5035 20.8943 29.5035 20.7343C29.5075 16.7749 29.5075 12.8195 29.5035 8.86011C29.5035 8.70014 29.4435 8.54016 29.4155 8.38019C29.3795 8.15222 29.3475 7.92425 29.3035 7.70029C28.9836 6.14852 27.6918 5.10469 26.24 5.0047C26.204 4.9847 26.168 4.96071 26.132 4.94071C24.9722 4.94071 23.8084 4.93271 22.6485 4.92871C22.6206 4.95671 22.5926 4.9807 22.5646 5.0087C22.4726 7.45633 20.2329 9.608 17.9453 9.62799C17.9013 9.64399 17.8573 9.66399 17.8093 9.68398C17.8533 9.66399 17.8973 9.64399 17.9453 9.62799C15.8816 9.62799 13.8179 9.62 11.7502 9.62C11.6582 9.62 11.5662 9.67599 11.4742 9.70398C11.2463 9.67599 11.0103 9.67199 10.7943 9.61199C8.64668 9.02808 7.01093 7.33634 6.85096 5.0087C6.82296 4.9807 6.79498 4.95671 6.76699 4.92871C5.44319 4.95671 4.11538 4.89272 2.80358 5.0327C1.38379 5.18867 0.0439796 6.55646 0.0359808 8.08023C-0.0120118 17.1948 0.00799878 26.3094 0 35.4241C0 36.0999 0.0759728 36.7319 0.383926 37.3678C0.867852 38.3596 2.21968 39.3235 3.32352 39.3235C10.2865 39.3235 17.2534 39.3235 24.2163 39.3235H24.9082C24.4243 38.8635 24.0283 38.5316 23.6844 38.1476L23.6804 38.1436ZM6.47103 12.2756C6.37505 12.2756 6.27502 12.2916 6.17904 12.3076C6.27502 12.2876 6.37505 12.2756 6.47103 12.2756ZM5.93108 12.3556C8.48669 12.3636 11.0463 12.3716 13.6019 12.3716C16.9254 12.3716 20.2489 12.3636 23.5764 12.3556C24.2683 12.5475 24.5323 13.1395 24.4883 13.5914C24.4363 14.1273 24.1443 14.4233 23.5764 14.5272C23.5364 14.5512 23.4964 14.5752 23.4604 14.5952C22.1806 14.6032 20.9008 14.6112 19.621 14.6112C15.0977 14.6112 10.5744 14.5992 6.05108 14.5952C5.98309 14.5952 5.91109 14.5992 5.8431 14.6032C5.25119 14.4433 4.90728 14.0033 4.92327 13.4234C4.93927 12.8315 5.25518 12.4956 5.93508 12.3476L5.93108 12.3556ZM6.07905 17.2828C11.8142 17.2788 17.5493 17.2748 23.2844 17.2828C23.9923 17.2828 24.4883 17.7667 24.4843 18.4147C24.4843 19.0785 23.9763 19.5465 23.2445 19.5465C20.3929 19.5465 17.5413 19.5465 14.6938 19.5465C11.8262 19.5465 8.95863 19.5465 6.09106 19.5465C5.40717 19.5465 4.93927 19.0985 4.91927 18.4506C4.90327 17.7907 5.38716 17.2868 6.07905 17.2868V17.2828ZM13.322 33.4204C13.29 33.8963 12.982 34.1962 12.4101 34.3042C12.3701 34.3242 12.3301 34.3442 12.2901 34.3682C10.2104 34.3682 8.13076 34.3682 6.05108 34.3682L5.82314 34.3122C5.22323 34.1922 4.85524 33.7843 4.93123 33.2004C5.01922 32.5325 5.23118 32.1845 5.82709 32.1366C8.05475 32.1366 10.2824 32.1366 12.5101 32.1406C12.4461 32.1246 12.3861 32.1006 12.3221 32.0846C12.3861 32.1046 12.4461 32.1246 12.5101 32.1406C13.186 32.3805 13.37 32.6685 13.322 33.4244V33.4204Z" fill="#040404"/>
<path id="Vector_2" d="M31.2078 23.4379C26.7765 23.3179 23.5409 27.0493 23.3809 30.7568C23.153 36.004 26.9164 39.2595 31.0678 39.2875C36.0111 39.3195 39.2586 35.988 39.3105 31.2407C39.3545 27.1013 35.8791 23.2539 31.2078 23.4419V23.4379ZM34.4193 30.6648C33.4434 31.6406 32.4516 32.6085 31.4917 33.6003C30.9078 34.2042 30.1559 34.2762 29.584 33.6203C29.1841 33.1564 28.7201 32.7445 28.2882 32.3125C27.6483 31.6686 27.5963 31.1047 28.1203 30.5168C28.5282 30.0609 29.2561 30.0969 29.868 30.6168C30.088 30.8047 30.2759 31.0287 30.5319 31.2887C31.3037 30.5128 32.0357 29.7729 32.7675 29.041C33.2595 28.5491 34.0873 28.5011 34.5312 28.933C35.0112 29.401 34.9592 30.1209 34.4153 30.6688L34.4193 30.6648Z" fill="#040404"/>
<path id="Vector_3" d="M11.877 7.37627C11.917 7.37627 11.953 7.37627 11.993 7.38027C13.8887 7.37227 15.7844 7.38026 17.6801 7.35227C18.84 7.33227 19.8398 6.5284 20.1717 5.44456C20.5877 4.08477 19.8158 2.26505 18.1761 1.98509C17.8121 1.9211 17.3362 2.04908 17.1282 1.49317C16.8483 0.74528 16.2364 0.313346 15.4645 0.117376C14.0367 -0.242569 12.9529 0.241358 12.341 1.34919C12.129 1.73713 11.865 1.88911 11.5091 1.9131C10.0013 2.01309 9.14943 3.30489 9.12543 4.62469C9.10143 5.93249 10.0813 7.36427 11.877 7.37627Z" fill="#040404"/>
</g>
</svg>
