<svg width="54" height="54" viewBox="0 0 54 54" fill="none" xmlns="http://www.w3.org/2000/svg">
<g id="Group">
<path id="Vector" d="M15.861 22.7555H10.9442C9.31886 22.7555 8.005 24.0693 8.005 25.6947V30.6115C8.005 32.2369 9.31886 33.5507 10.9442 33.5507H15.861C17.4864 33.5507 18.8003 32.2369 18.8003 30.6115V25.6947C18.8003 24.0693 17.4864 22.7555 15.861 22.7555ZM10.7817 25.6947C10.7817 25.5999 10.8494 25.5322 10.9442 25.5322H15.861C15.9558 25.5322 16.0236 25.5999 16.0236 25.6947V30.6115C16.0236 30.7063 15.9558 30.7741 15.861 30.7741H10.9442C10.8494 30.7741 10.7817 30.7063 10.7817 30.6115V25.6947Z" fill="black"/>
<path id="Vector_2" d="M29.2567 22.7555H24.3399C22.7145 22.7555 21.4006 24.0693 21.4006 25.6947V30.6115C21.4006 32.2369 22.7145 33.5507 24.3399 33.5507H29.2567C30.882 33.5507 32.1959 32.2369 32.1959 30.6115V25.6947C32.1959 24.0693 30.882 22.7555 29.2567 22.7555ZM24.1773 25.6947C24.1773 25.5999 24.2451 25.5322 24.3399 25.5322H29.2567C29.3515 25.5322 29.4192 25.5999 29.4192 25.6947V30.6115C29.4192 30.7063 29.3515 30.7741 29.2567 30.7741H24.3399C24.2451 30.7741 24.1773 30.7063 24.1773 30.6115V25.6947Z" fill="black"/>
<path id="Vector_3" d="M42.9235 22.7555H38.0067C36.3814 22.7555 35.0675 24.0693 35.0675 25.6947V30.6115C35.0675 32.2369 36.3814 33.5507 38.0067 33.5507H42.9235C44.5489 33.5507 45.8628 32.2369 45.8628 30.6115V25.6947C45.8628 24.0693 44.5489 22.7555 42.9235 22.7555ZM37.8442 25.6947C37.8442 25.5999 37.9119 25.5322 38.0067 25.5322H42.9235C43.0183 25.5322 43.0861 25.5999 43.0861 25.6947V30.6115C43.0861 30.7063 43.0183 30.7741 42.9235 30.7741H38.0067C37.9119 30.7741 37.8442 30.7063 37.8442 30.6115V25.6947Z" fill="black"/>
<path id="Vector_4" d="M15.861 36.8827H10.9442C9.31886 36.8827 8.005 38.1965 8.005 39.8219V44.7387C8.005 46.3641 9.31886 47.6779 10.9442 47.6779H15.861C17.4864 47.6779 18.8003 46.3641 18.8003 44.7387V39.8219C18.8003 38.1965 17.4864 36.8827 15.861 36.8827ZM10.7817 39.8219C10.7817 39.7271 10.8494 39.6594 10.9442 39.6594H15.861C15.9558 39.6594 16.0236 39.7271 16.0236 39.8219V44.7387C16.0236 44.8335 15.9558 44.9013 15.861 44.9013H10.9442C10.8494 44.9013 10.7817 44.8335 10.7817 44.7387V39.8219Z" fill="black"/>
<path id="Vector_5" d="M29.2567 36.8827H24.3399C22.7145 36.8827 21.4006 38.1965 21.4006 39.8219V44.7387C21.4006 46.3641 22.7145 47.6779 24.3399 47.6779H29.2567C30.882 47.6779 32.1959 46.3641 32.1959 44.7387V39.8219C32.1959 38.1965 30.882 36.8827 29.2567 36.8827ZM24.1773 39.8219C24.1773 39.7271 24.2451 39.6594 24.3399 39.6594H29.2567C29.3515 39.6594 29.4192 39.7271 29.4192 39.8219V44.7387C29.4192 44.8335 29.3515 44.9013 29.2567 44.9013H24.3399C24.2451 44.9013 24.1773 44.8335 24.1773 44.7387V39.8219Z" fill="black"/>
<path id="Vector_6" d="M42.9235 36.8827H38.0067C36.3814 36.8827 35.0675 38.1965 35.0675 39.8219V44.7387C35.0675 46.3641 36.3814 47.6779 38.0067 47.6779H42.9235C44.5489 47.6779 45.8628 46.3641 45.8628 44.7387V39.8219C45.8628 38.1965 44.5489 36.8827 42.9235 36.8827ZM37.8442 39.8219C37.8442 39.7271 37.9119 39.6594 38.0067 39.6594H42.9235C43.0183 39.6594 43.0861 39.7271 43.0861 39.8219V44.7387C43.0861 44.8335 43.0183 44.9013 42.9235 44.9013H38.0067C37.9119 44.9013 37.8442 44.8335 37.8442 44.7387V39.8219Z" fill="black"/>
<path id="Vector_7" d="M52.7865 3.6405H1.2135V18.2023H52.7865V3.6405Z" fill="#4284C5"/>
<path id="Vector_8" d="M41.668 3.41124V0.808989C41.668 0.364045 41.3013 0 40.8531 0H39.1147C38.6665 0 38.2998 0.364045 38.2998 0.808989V3.39775H15.7138V0.808989C15.7138 0.364045 15.3471 0 14.8989 0H13.1605C12.7123 0 12.3456 0.364045 12.3456 0.808989V3.39775H0V53.3933H54V3.41124H41.668ZM13.1469 10.5843H14.8853C15.3335 10.5843 15.7002 10.2202 15.7002 9.77528V5.77079H38.2862V9.77528C38.2862 10.2202 38.6529 10.5843 39.1011 10.5843H40.8395C41.2877 10.5843 41.6544 10.2202 41.6544 9.77528V5.77079H51.6097V16.0449H2.37676V5.77079H12.332V9.77528C12.332 10.2202 12.6987 10.5843 13.1469 10.5843ZM2.37676 51.0472V18.2697H51.6232V51.0472H2.37676Z" fill="black"/>
</g>
</svg>
