<?xml version='1.0' encoding='utf-8'?>
<!-- Generator: imaengine 6.0   -->
<svg xmlns:xlink="http://www.w3.org/1999/xlink" xmlns="http://www.w3.org/2000/svg" viewBox="0,0,540,495" style="enable-background:new 0 0 540 495;" version="1.1">
<defs/>
<g id="layer0">
<g transform="matrix(1 0 0 1 -86.2467 -28.0585)">
<path d="M351.4,252.04C410.021,252.04 457.71,204.349 457.71,145.74C457.71,87.119 410.015,39.43 351.4,39.43C292.779,39.43 245.08,87.121 245.08,145.74C245.084,204.357 292.775,252.04 351.4,252.04L351.4,252.04Z" fill="#FFFFFF"/>
<path d="M170.18,336.7C169.91,327.372 161.477,319.876 151.055,319.876C140.469,319.876 131.887,327.61 131.887,337.153L131.887,374.372L143.77,374.372C151.301,361.095 160.129,348.481 170.18,336.7L170.18,336.7Z" fill="#FFFFFF"/>
<path d="M574.18,379.99L574.18,342.771C574.18,333.228 565.594,325.49 555.004,325.49C546.328,325.49 539.09,330.72 536.719,337.838C547.75,350.924 557.199,365.08 565.133,379.99L574.18,379.99Z" fill="#FFFFFF"/>
<path d="M480.8,482.28C480.8,477.479 481.98,472.96 483.987,468.928L433.233,468.928C431.605,464.248 429.644,459.721 427.276,455.448L481.042,407.737C482.269,392.249 495.108,379.991 510.897,379.991L546.026,379.991C542.847,374.565 539.448,369.272 535.838,364.147C530.819,357.022 525.44,350.174 519.643,343.694C519.374,343.354 519.179,342.975 518.882,342.647C518.624,342.35 518.311,342.143 518.046,341.87C477.132,297.069 418.28,268.913 352.966,268.913C287.681,268.913 228.856,297.046 187.946,341.823C187.661,342.12 187.329,342.338 187.055,342.647C186.782,342.956 186.594,343.315 186.336,343.643C180.575,350.084 175.219,356.897 170.227,363.975C167.837,367.362 165.567,370.85 163.36,374.37L195.169,374.37C211.763,374.37 225.263,387.87 225.263,404.472C225.263,405.609 225.111,406.706 224.99,407.808L276.615,453.632C273.787,458.452 271.42,463.566 269.552,468.925L224.154,468.925C224.822,471.405 225.264,473.976 225.264,476.663C225.264,493.257 211.764,506.757 195.17,506.757L134.338,506.765C138.642,512.374 145.346,516.05 152.963,516.05L552.983,516.05C553.01,516.054 553.026,516.054 553.049,516.054C553.073,516.054 553.088,516.054 553.1,516.05C557.713,516.05 561.987,514.671 565.623,512.382L510.893,512.382C494.299,512.382 480.799,498.878 480.799,482.28L480.8,482.28ZM351.39,410.675C336.663,410.675 322.8,414.37 310.656,420.851L239.39,357.601C270.105,331.695 309.73,316.031 352.96,316.031C396.19,316.031 435.819,331.695 466.53,357.601L394.038,421.945C381.44,414.8 366.901,410.675 351.382,410.675L351.39,410.675Z" fill="#FFFFFF"/>
<path d="M211.27,476.67C211.27,473.846 210.481,471.236 209.204,468.932C206.461,463.971 201.247,460.576 195.177,460.576L146.919,460.576L146.919,456.42L195.169,456.42C199.376,456.42 203.173,454.776 206.032,452.131C209.223,449.19 211.262,445.014 211.262,440.326C211.262,435.912 209.481,431.92 206.602,429.01C203.684,426.065 199.641,424.229 195.168,424.229L146.918,424.229L146.918,420.573L195.164,420.573C204.058,420.573 211.258,413.366 211.258,404.479C211.258,400.279 209.613,396.486 206.973,393.62C204.031,390.42 199.848,388.377 195.164,388.377L131.887,388.377L125.434,388.373C124.875,388.373 124.359,388.487 123.816,388.541C122.961,388.44 122.113,388.373 121.297,388.373C95.9219,388.373 96.9809,440.318 96.9809,440.318C96.9809,440.318 96.9262,492.756 121.297,492.756C122.113,492.756 122.961,492.69 123.816,492.592C124.359,492.659 124.875,492.756 125.434,492.756L195.172,492.756C204.062,492.764 211.27,485.561 211.27,476.67L211.27,476.67Z" fill="#FFFFFF"/>
<path d="M584.77,393.99C583.954,393.99 583.102,394.056 582.254,394.154C581.711,394.099 581.192,393.99 580.629,393.99L510.891,393.99C507.286,393.99 503.993,395.22 501.309,397.22C497.38,400.154 494.802,404.802 494.802,410.087C494.802,418.97 501.997,426.177 510.892,426.177L559.142,426.177L559.142,429.834L510.896,429.834C507.204,429.834 503.841,431.123 501.13,433.216C497.306,436.158 494.806,440.732 494.806,445.927C494.806,448.127 495.255,450.217 496.048,452.123C498.474,457.935 504.2,462.029 510.892,462.029L559.142,462.029L559.142,466.177L510.892,466.177C507.56,466.177 504.47,467.189 501.904,468.92C497.619,471.814 494.802,476.716 494.802,482.272C494.802,491.166 501.997,498.374 510.892,498.374L580.63,498.374C581.189,498.374 581.712,498.268 582.255,498.206C583.099,498.307 583.958,498.374 584.771,498.374C609.138,498.374 609.08,445.929 609.08,445.929C609.084,445.932 610.146,393.991 584.771,393.991L584.77,393.99Z" fill="#FFFFFF"/>
</g>
</g>
</svg>
