<svg width="54" height="56" viewBox="0 0 54 56" fill="none" xmlns="http://www.w3.org/2000/svg">
<g id="Group">
<g id="Group_2">
<path id="Vector" d="M45.8579 36.181C42.7894 34.7384 39.6294 33.479 36.5037 32.1394C36.4465 32.1165 36.3663 32.105 36.2862 32.105C36.1144 32.0936 35.9885 32.1737 35.8168 32.3569C34.6375 33.6507 34.2253 35.3338 33.5269 36.868C32.7483 38.6083 32.0384 40.36 31.3057 42.1118C31.2484 42.2378 31.1912 42.3637 31.111 42.5354C29.7486 40.7837 28.4319 39.1006 27.0923 37.3718C27.0809 37.3832 27.0694 37.4061 27.058 37.4175C27.0465 37.4061 27.0351 37.3832 27.0236 37.3718C25.684 39.1006 24.3673 40.7837 23.0049 42.5354C22.9247 42.3637 22.856 42.2492 22.8102 42.1118C22.066 40.36 21.3676 38.6083 20.589 36.868C19.9021 35.3338 19.4784 33.6507 18.2991 32.3569C18.1274 32.1737 18.0015 32.0821 17.8297 32.105C17.7496 32.105 17.6694 32.105 17.6122 32.1394C14.4865 33.4675 11.3265 34.7269 8.25801 36.181C5.05217 37.6923 3.03708 40.3257 1.70894 43.5544C0.770092 45.8558 0.163273 48.2143 0.0258802 50.6989C0.0144308 50.8821 0.0144307 51.0653 0.0029813 51.2484C-0.031367 51.8553 0.23197 52.2331 0.747193 52.4735C2.80809 53.3322 4.96058 53.8933 7.13597 54.3398C12.105 55.3473 17.1199 55.7595 22.1576 55.9198C23.6231 55.9656 25.0887 55.9885 26.5656 56C26.7374 56 26.9091 56 27.0808 56C27.2526 56 27.4243 56 27.5961 56C29.073 56 30.5386 55.9771 32.0041 55.9198C34.4772 55.8397 36.9388 55.7023 39.4004 55.4618C36.7098 53.6414 34.9352 50.55 34.9352 47.0694C34.9352 43.2224 37.0876 39.8677 40.2591 38.1503C39.16 37.6465 38.0608 37.1313 36.9731 36.639C36.4923 36.4215 36.2175 36.0894 36.2175 35.5627C36.2175 34.9788 36.5953 34.5781 37.1105 34.5208C37.2937 34.5208 37.4884 34.5552 37.683 34.6468C39.2287 35.3223 40.7744 36.0322 42.32 36.7306C42.5261 36.8222 42.7322 36.9138 42.9383 37.0054C42.9612 36.9939 42.9841 36.9939 42.9955 36.9825C43.0871 37.0283 43.1787 37.0626 43.2703 37.1084C43.8542 37.0054 44.4382 36.9481 45.0564 36.9481C46.0067 36.9481 46.9227 37.0855 47.7928 37.326C47.186 36.8794 46.5449 36.5016 45.8579 36.181ZM17.1542 36.6161C15.7803 37.2458 14.4178 37.887 13.0324 38.5167C11.4753 39.2266 9.91817 39.925 8.33816 40.6119C7.57104 40.944 6.81538 40.4287 6.80393 39.5128C6.81538 39.1006 7.09017 38.7686 7.54815 38.5739C8.73889 38.0358 9.92962 37.4977 11.1318 36.9481C11.1547 36.9596 11.1776 36.9596 11.1891 36.971C11.3952 36.8794 11.6012 36.7878 11.8073 36.6962C13.353 35.9864 14.8987 35.288 16.4443 34.6124C16.639 34.5208 16.8336 34.4865 17.0168 34.4865C17.532 34.5437 17.9099 34.9445 17.9099 35.5284C17.9099 36.0665 17.6236 36.41 17.1542 36.6161Z" fill="#427AA7"/>
<path id="Vector_2" d="M14.6811 17.3468C14.3147 17.6445 14.2574 18.3887 14.2002 18.9382C13.9368 21.9494 15.0703 24.4569 16.9824 26.7009C17.2801 27.0559 17.532 27.491 17.6923 27.9375C18.4479 30.09 19.5929 31.9448 21.3103 33.4447C24.665 36.3643 28.9356 36.5016 32.462 33.7996C34.1451 32.5058 35.3816 30.8571 36.1373 28.8878C36.5494 27.8115 37.0876 26.8612 37.8089 25.9567C39.4805 23.8386 40.2934 21.4342 39.9957 18.6978C39.9041 17.9307 39.7095 17.1979 39.0111 16.7285C38.908 16.6484 38.8737 16.4423 38.8737 16.2934C38.8508 15.7095 38.8622 15.137 38.8622 14.4501C35.0381 15.9843 31.1911 16.8888 27.138 16.8545C23.0849 16.8201 19.1921 16.0072 15.4024 14.5188C15.3566 14.6333 15.3451 14.6676 15.368 14.6905C15.368 14.7821 15.3566 14.8508 15.3566 14.9424C15.3337 15.7782 15.494 16.6255 14.6811 17.3468Z" fill="#427AA7"/>
<path id="Vector_3" d="M41.3925 9.24059C41.2094 7.9239 40.5911 6.77896 39.7209 5.79431C36.6639 2.33659 32.7597 0.55048 28.2257 0.0696042C25.2145 -0.23953 22.398 0.504682 19.7417 1.83281C17.5434 2.93196 15.5512 4.29444 14.0971 6.30954C13.2842 7.42013 12.7118 8.63377 12.7919 10.042C12.8034 10.5229 12.9751 10.9923 13.0896 11.5534C22.4552 6.96215 31.7292 6.96215 41.0147 11.5076C41.4269 10.7519 41.4956 10.0077 41.3925 9.24059ZM27.1151 6.63012C25.4206 6.64157 24.0352 5.25619 24.0581 3.55023C24.0581 1.89006 25.4206 0.527581 27.0808 0.516131C28.7638 0.504682 30.1607 1.86716 30.1721 3.52733C30.1721 5.22184 28.8096 6.61867 27.1151 6.63012Z" fill="#427AA7"/>
<path id="Vector_4" d="M13.7536 12.2633C18.1158 14.3356 22.5582 15.5378 27.2868 15.5034C31.878 15.4691 36.1945 14.2669 40.4422 12.2633C31.5002 7.96973 22.6956 7.95828 13.7536 12.2633Z" fill="#427AA7"/>
</g>
<path id="Vector_5" d="M37.4539 49.6227C37.4997 49.7715 37.557 49.9089 37.6142 50.0578C37.557 49.9089 37.5112 49.7601 37.4539 49.6227Z" fill="#427AA7"/>
<path id="Vector_6" d="M45.0221 38.5511C40.3278 38.5511 36.5151 42.3638 36.5151 47.0581C36.5151 51.7523 40.3278 55.5764 45.0221 55.5764C49.7163 55.5764 53.529 51.7638 53.529 47.0695C53.529 42.3753 49.7163 38.5511 45.0221 38.5511ZM45.0221 53.7674C42.6177 53.7674 40.4995 52.4965 39.3202 50.5959C39.3088 50.573 39.2973 50.5616 39.2859 50.5387C39.2286 50.4471 39.1714 50.3555 39.1256 50.2524C39.1027 50.2067 39.0798 50.1609 39.0569 50.1151C39.0569 50.1036 39.0455 50.1036 39.0455 50.0922C39.0226 50.0464 38.9997 50.0006 38.9768 49.9662C38.9539 49.9204 38.931 49.8632 38.9081 49.8174C38.8966 49.783 38.8852 49.7601 38.8737 49.7258C38.8508 49.68 38.8279 49.6342 38.8165 49.5884V49.5769C38.7707 49.4624 38.7249 49.3365 38.6791 49.2106C38.6791 49.1991 38.6676 49.1877 38.6676 49.1877C38.6562 49.1648 38.6447 49.1304 38.6447 49.0961C38.6218 49.0388 38.6104 48.9816 38.5875 48.9243C38.576 48.8785 38.5646 48.8327 38.5417 48.7755C38.5302 48.7526 38.5302 48.7297 38.5188 48.6953C38.4959 48.6152 38.4844 48.5465 38.4615 48.4663C38.4501 48.432 38.4501 48.3976 38.4386 48.3633C38.4386 48.3518 38.4386 48.3518 38.4386 48.3404C38.4272 48.2717 38.4157 48.203 38.4043 48.1458C38.3928 48.0656 38.3814 47.9855 38.3699 47.8939C38.3585 47.8366 38.3585 47.7908 38.3585 47.745C38.347 47.642 38.3356 47.5275 38.3356 47.4244C38.3356 47.413 38.3356 47.4015 38.3356 47.3786C38.3356 47.3328 38.3356 47.2871 38.3356 47.2527C38.3356 47.1955 38.3356 47.1268 38.3356 47.0695C38.3356 46.8405 38.347 46.6115 38.3699 46.3825C38.7134 42.9935 41.5643 40.3487 45.045 40.3487C48.1477 40.3487 50.7582 42.4554 51.5253 45.3177C51.5482 45.3864 51.5597 45.4551 51.5826 45.5238C51.594 45.5811 51.6055 45.6498 51.6284 45.707C51.6398 45.7414 51.6398 45.7757 51.6513 45.8101C51.6513 45.833 51.6627 45.8559 51.6627 45.8788C51.6742 45.9246 51.6742 45.9589 51.6856 46.0047C51.6856 46.0276 51.6971 46.0505 51.6971 46.0734C51.6971 46.1078 51.7085 46.1421 51.7085 46.1765C51.72 46.2337 51.72 46.2909 51.7314 46.3482C51.7429 46.4054 51.7429 46.4627 51.7429 46.5199C51.7429 46.5657 51.7543 46.6001 51.7543 46.6459C51.7543 46.6802 51.7543 46.7146 51.7543 46.7375C51.7543 46.7718 51.7543 46.8176 51.7543 46.852C51.7543 46.9092 51.7543 46.9665 51.7543 47.0352C51.7543 47.2642 51.7429 47.4931 51.72 47.7221C51.3536 51.1226 48.5027 53.7674 45.0221 53.7674Z" fill="#427AA7"/>
<path id="Vector_7" fill-rule="evenodd" clip-rule="evenodd" d="M50.0485 45.1231L49.8539 45.3292L49.4074 45.7986L49.3845 45.8215C49.2242 45.9818 49.0524 46.1535 48.8807 46.3253L47.3923 47.8251C47.1976 48.0198 46.9916 48.2259 46.7969 48.4205L46.545 48.6724C45.8466 49.3708 45.1482 50.012 44.507 50.7104L44.1063 51.1111C44.0605 51.1569 43.9575 51.2142 43.9117 51.2142C43.8659 51.2142 43.7628 51.1684 43.717 51.1111L40.9806 48.3747C40.9348 48.3289 40.8776 48.2717 40.8776 48.1801C40.8776 48.077 40.9234 47.9854 40.9806 47.9854L41.576 47.3901C41.576 47.3901 41.576 47.3901 41.6218 47.3443C41.6218 47.3443 41.6218 47.3443 41.6676 47.2985L41.8622 47.1038L42.1141 47.3557C42.1599 47.4015 42.2171 47.4588 42.2629 47.5046L43.7056 48.9472C43.8086 49.0502 43.8544 49.096 43.9575 49.1991C44.2551 48.9014 44.5528 48.5465 44.9078 48.2488C45.8008 47.3557 46.7053 46.4512 47.5526 45.604L48.7433 44.4132L48.9151 44.2644L49.0524 44.1384L50.0485 45.1231Z" fill="#427AA7"/>
</g>
</svg>
