<?xml version="1.0" encoding="utf-8"?>
<!-- Generator: Adobe Illustrator 27.3.1, SVG Export Plug-In . SVG Version: 6.00 Build 0)  -->
<svg version="1.1" id="Layer_1" xmlns="http://www.w3.org/2000/svg" xmlns:xlink="http://www.w3.org/1999/xlink" x="0px" y="0px"
	 viewBox="0 0 100 100" style="enable-background:new 0 0 100 100;" xml:space="preserve">
<g>
	<path d="M97.7,20.2c0-6.5-5-11.5-11.6-11.5c-0.9,0-1.8,0-2.7,0l-0.8,0c-0.8-4.1-3.5-6.5-7.1-6.4c-3.5,0.1-6.2,2.6-6.8,6.4H46.2
		c-0.3-2.2-1.3-3.8-2.9-5c-1.3-0.9-2.7-1.4-4.3-1.3c-3.5,0.1-5.7,2.2-6.8,6.4l-0.8,0c-0.9,0-1.7,0-2.6,0c-6,0-10.5,3.8-11.5,9.7
		c-0.1,0.5-0.1,1-0.1,1.4l0,1.3c0,7.7,0,15.3,0,23c0,0.6,0.2,1.3,0.5,1.9c0.6,0.9,1.6,1.3,2.8,1c1.1-0.3,1.7-1,1.9-2.1
		c0.1-0.5,0.1-0.9,0.1-1.3c0-3,0-6,0-9v-3.2h69.7v0.6c0,3.9,0,7.8,0,11.7c0,10.4,0,21.1,0,31.6c0,1.8-0.6,3.5-1.8,4.7
		c-1.2,1.2-2.8,1.8-4.7,1.8c-7.5-0.1-15.2,0-22.6,0c-2.8,0-5.7,0-8.5,0c-1.1,0-2,0.4-2.6,1.2c-0.5,0.7-0.6,1.5-0.3,2.3
		c0.4,1,1.1,1.6,2.1,1.7c0.5,0.1,0.9,0.1,1.3,0.1l5.6,0c4.2,0,8.4,0,12.6,0c4.1,0,8.3,0,12.4,0c5.5,0,9.8-2.9,11.3-7.8
		c0.4-1.2,0.6-2.5,0.6-3.7C97.7,57.8,97.7,39.7,97.7,20.2z M92.2,23.8c0,0.7,0,1.3,0,2H22.6c0,0,0,0,0,0c0-0.6,0-1.3,0-1.9
		c0-1.5,0-3,0.1-4.5c0.2-2.6,1.9-4.6,4.3-5.1c1.3-0.2,2.6-0.3,3.9-0.3c0.5,0,0.9,0,1.4,0c1.3,4.5,3.5,6.5,7,6.5c0,0,0,0,0,0
		c3.5,0,5.8-2.1,7-6.4h22.6c0.8,3.9,3.3,6.3,6.8,6.4c1.6,0,3.1-0.5,4.4-1.5c1.6-1.2,2.5-2.8,2.7-4.9l1,0c1,0,2,0,3,0
		c2.8,0,5.2,1.9,5.5,4.4C92.3,20.2,92.3,22,92.2,23.8z M77.3,13.7c0,1-0.8,1.4-1.6,1.4c0,0,0,0,0,0c-0.8,0-1.5-0.6-1.5-1.4
		c-0.1-0.5,0-1,0-1.6c0-0.3,0-0.5,0-0.8l0-0.4l0,0c0-0.1,0-0.2,0-0.3c0-0.6,0-1.1,0-1.6c0.1-0.9,0.7-1.4,1.6-1.4
		c0.7,0,1.5,0.4,1.5,1.4C77.4,10.6,77.4,12.2,77.3,13.7z M40.9,10.7l0,0.6l0,0.7c0,0.5,0,1,0,1.5c0,0.9-0.6,1.6-1.5,1.6
		c-0.8,0-1.6-0.4-1.7-1.4c-0.1-1.6-0.1-3.2,0-4.7c0.1-0.9,0.8-1.4,1.6-1.4c0,0,0.1,0,0.1,0c0.9,0.1,1.4,0.7,1.5,1.7v0
		C40.9,9.8,40.9,10.2,40.9,10.7z"/>
	<path d="M26.5,49.5C26.5,49.5,26.5,49.5,26.5,49.5c-6.5,0-12.6,2.5-17.1,7.1c-4.6,4.6-7.1,10.6-7.1,17.1c0,13.2,10.8,24,24.1,24
		c0,0,0,0,0,0c6.4,0,12.5-2.5,17-7.1c4.6-4.6,7.1-10.6,7.1-17.1c0-6.4-2.5-12.5-7-17C38.9,52,32.9,49.5,26.5,49.5z M26.1,54.8
		c0.1,0,0.2,0,0.3,0c0,0,0.1,0,0.1,0c5,0,9.8,2,13.3,5.6c3.6,3.6,5.5,8.4,5.4,13.5c-0.1,5.1-2.1,9.8-5.7,13.2
		c-3.6,3.5-8.6,5.4-13.8,5.2c-4.9-0.1-9.4-2.2-12.9-5.8c-3.5-3.7-5.4-8.6-5.2-13.8C7.9,63.1,16.5,54.8,26.1,54.8z"/>
	<path d="M22.1,80.5c0.7,0,1.5-0.3,2.1-0.9l0.3-0.3c1.2-1.2,2.5-2.5,3.7-3.8c0.5-0.6,0.9-1.4,0.9-2c0.1-3.2,0.1-6.7,0-10.7
		c0-0.8-0.3-1.5-0.9-2c-0.5-0.5-1.2-0.7-1.9-0.7c-1.5,0.1-2.5,1.2-2.5,2.8c0,0.2,0,0.5,0,0.7l0,3.8c0,0.4,0,0.8,0,1.2
		c0,1,0,2.1,0,3.1c0,0.4-0.2,0.8-0.4,1.1c-0.6,0.6-1.2,1.2-1.7,1.8c-0.4,0.4-0.8,0.7-1.1,1.1c-1.2,1.2-1.3,2.8-0.2,3.9
		C20.8,80.2,21.4,80.5,22.1,80.5z"/>
</g>
</svg>
