<svg width="54" height="57" viewBox="0 0 54 57" fill="none" xmlns="http://www.w3.org/2000/svg">
<g id="Group 1000001829">
<g id="Group">
<path id="Vector" d="M25.8181 29.0535C26.9574 29.0535 27.9182 30.028 27.9045 31.181C27.8907 32.2928 26.9299 33.2399 25.8181 33.2399C24.6925 33.2399 23.7454 32.2928 23.7317 31.181C23.718 30.0417 24.6788 29.0535 25.8181 29.0535Z" fill="#4284C5"/>
<path id="Vector_2" d="M34.699 35.4087L29.8262 32.3752C29.9497 31.9772 30.0321 31.5654 30.0321 31.1399C30.0321 29.1907 28.7007 27.5711 26.9025 27.0906V18.1549C26.9025 17.5647 26.4221 17.0706 25.8182 17.0706C25.2142 17.0706 24.7338 17.551 24.7338 18.1549V27.0906C22.9357 27.5711 21.6042 29.1907 21.6042 31.1399C21.6042 33.4733 23.4847 35.3538 25.8182 35.3538C26.93 35.3538 27.932 34.9145 28.6869 34.2145L33.5597 37.248C34.0676 37.5637 34.7264 37.4127 35.0421 36.9048C35.3578 36.397 35.2069 35.7381 34.699 35.4224V35.4087ZM25.8182 33.24C24.6652 33.24 23.7318 32.3066 23.7318 31.1399C23.7318 29.9731 24.6652 29.0535 25.8182 29.0535C26.9712 29.0535 27.9045 29.9869 27.9045 31.1399C27.9045 32.2929 26.9712 33.24 25.8182 33.24Z" fill="black"/>
</g>
<g id="Group_2">
<path id="Vector_3" d="M38.6797 51.4957C38.4326 51.6055 38.1855 51.729 37.9385 51.8526C37.4032 52.1271 36.8541 52.4016 36.2639 52.5938L36.0854 52.6487L36.8267 54.5017L36.9776 54.4468C37.6228 54.2272 38.2405 53.9252 38.8444 53.6232C39.0915 53.4997 39.3385 53.3762 39.5856 53.2526L39.7503 53.1703L38.817 51.4133L38.666 51.482L38.6797 51.4957Z" fill="black"/>
<path id="Vector_4" d="M42.6466 48.8876C42.4819 49.0111 42.3171 49.1346 42.1662 49.2582C41.6446 49.67 41.0955 50.0955 40.5053 50.4249L40.3406 50.5073L41.4112 52.1818L41.5485 52.0995C42.2073 51.7289 42.8113 51.2485 43.4015 50.7955C43.5662 50.672 43.7172 50.5484 43.8819 50.4249L44.0192 50.3151L42.7701 48.764L42.6328 48.8601L42.6466 48.8876Z" fill="black"/>
<path id="Vector_5" d="M45.1585 46.6091C44.9663 46.8149 44.7604 47.0071 44.5545 47.1855C44.431 47.2954 44.3212 47.4052 44.1976 47.515L44.0741 47.6385L45.4467 49.0798L45.5702 48.9562C45.6938 48.8464 45.8036 48.7229 45.9271 48.6131C46.1467 48.4072 46.3801 48.1876 46.5997 47.9542L47.6429 46.7463L46.133 45.4561L45.1585 46.5953V46.6091Z" fill="black"/>
<path id="Vector_6" d="M23.9241 54.1998C23.3751 54.1449 22.7986 54.09 22.2633 53.939L22.0848 53.8978L21.7142 55.8469L21.8652 55.8881C22.4692 56.0528 23.1006 56.1077 23.7045 56.1764C24.034 56.2038 24.3634 56.245 24.6928 56.2862L24.8712 56.3136L25.036 54.3371L24.8712 54.3096C24.5555 54.2547 24.2261 54.2273 23.9104 54.1998H23.9241Z" fill="black"/>
<path id="Vector_7" d="M29.6341 54.2544C29.3321 54.2681 29.0164 54.2956 28.7145 54.323C28.1517 54.3779 27.5615 54.4191 26.985 54.3917H26.8065V56.3682H26.9712C27.1222 56.3957 27.2869 56.3957 27.4379 56.3957C27.9321 56.3957 28.4125 56.3545 28.8929 56.3133C29.2086 56.2859 29.5243 56.2584 29.8263 56.2447H30.0047L29.7988 54.2544H29.6341Z" fill="black"/>
<path id="Vector_8" d="M34.2598 53.3211C33.9852 53.3898 33.7107 53.4721 33.4362 53.5408C32.8734 53.7055 32.2832 53.8702 31.693 53.9388L31.5145 53.9663L31.8851 55.9154H32.0498C32.7224 55.8056 33.3676 55.6271 33.999 55.4487C34.2735 55.3663 34.5617 55.284 34.8363 55.2154L35.0147 55.1742L34.4382 53.2662L34.2735 53.3074L34.2598 53.3211Z" fill="black"/>
<path id="Vector_9" d="M14.9198 51.2761C14.4394 51.0153 13.9315 50.7408 13.4648 50.4251L13.3139 50.329L12.2295 52.0036L12.3668 52.0997C12.8883 52.4428 13.4374 52.7448 13.9727 53.033C14.261 53.1977 14.5492 53.3487 14.8375 53.5134L14.9884 53.6095L15.8806 51.8389L15.7434 51.7565C15.4551 51.5918 15.1806 51.4408 14.8924 51.2761H14.9198Z" fill="black"/>
<path id="Vector_10" d="M19.2708 53.1566C18.7355 52.9919 18.1864 52.8272 17.6923 52.5938L17.5276 52.5115L16.7864 54.3645L16.9374 54.4331C17.5139 54.6939 18.1178 54.8861 18.6943 55.0645C19.01 55.1606 19.3257 55.2567 19.6414 55.3665L19.8061 55.4214L20.3552 53.4998L20.2042 53.4449C19.9022 53.335 19.5865 53.239 19.2845 53.1429L19.2708 53.1566Z" fill="black"/>
<path id="Vector_11" d="M47.2174 14.7232C47.5606 15.1487 47.8625 15.6428 48.1508 16.1095C48.3155 16.384 48.4939 16.6723 48.6724 16.9331L48.7547 17.0703L50.4842 16.0821L50.3882 15.9311C50.2097 15.6566 50.0313 15.3683 49.8666 15.0938C49.5509 14.5722 49.2214 14.0369 48.8371 13.5427L48.7273 13.4192L47.1213 14.5859L47.2311 14.7232H47.2174Z" fill="black"/>
<path id="Vector_12" d="M45.9271 13.0626L46.0369 13.1724L47.5468 11.8684L47.4232 11.7312C47.1899 11.4978 46.9703 11.2508 46.7506 11.0174C46.3389 10.5645 45.8996 10.1115 45.4467 9.68598L45.3231 9.57617L43.9642 11.0311L44.0878 11.1547C44.4996 11.5253 44.8839 11.9508 45.2682 12.3626C45.4878 12.5959 45.7075 12.843 45.9408 13.0626H45.9271Z" fill="black"/>
<path id="Vector_13" d="M42.4955 9.79578L42.6328 9.89186L43.8681 8.32708L43.7309 8.21727C43.223 7.83294 42.7014 7.47606 42.1935 7.11918C41.9327 6.94074 41.6719 6.74858 41.4111 6.57014L41.2602 6.46033L40.2032 8.14864L40.3405 8.24473C40.615 8.43689 40.8896 8.62906 41.1778 8.83495C41.617 9.15065 42.0837 9.46635 42.523 9.79578H42.4955Z" fill="black"/>
<path id="Vector_14" d="M53.9294 27.8455V27.6808L51.9254 27.7906L51.9529 27.969C52.0215 28.5455 52.0078 29.1495 51.994 29.726C51.994 30.0142 51.9803 30.3162 51.9803 30.6045V30.7692L53.9706 30.8653V30.6868C53.9706 30.3848 53.9706 30.0966 53.9843 29.7946C53.9981 29.1495 54.0255 28.4906 53.9432 27.8318L53.9294 27.8455Z" fill="black"/>
<path id="Vector_15" d="M51.2253 23.3024C51.4037 23.8377 51.4998 24.4142 51.5822 24.9769C51.6371 25.2789 51.6783 25.5946 51.7469 25.8966L51.7744 26.0613L53.7372 25.7868L53.696 25.6083C53.6411 25.2926 53.5862 24.9769 53.5313 24.675C53.4352 24.0573 53.3254 23.4259 53.1332 22.8082L53.0783 22.6572L51.1429 23.1376L51.1979 23.3161L51.2253 23.3024Z" fill="black"/>
<path id="Vector_16" d="M49.6469 18.8413C49.9214 19.3355 50.1136 19.8708 50.292 20.3924C50.4018 20.6943 50.5116 20.9963 50.6351 21.2983L50.6901 21.4493L52.5705 20.8041L52.5019 20.6394C52.3784 20.3375 52.2686 20.0218 52.1588 19.7198C51.9529 19.1433 51.7332 18.5531 51.4313 17.9903L51.3489 17.853L49.5508 18.6903L49.6331 18.855L49.6469 18.8413Z" fill="black"/>
<path id="Vector_17" d="M48.7548 41.6816C48.3842 42.4228 47.9175 43.1091 47.3273 43.9052L47.2312 44.0425L48.8509 45.1955L48.947 45.0582C49.4823 44.317 50.0451 43.5071 50.4843 42.6424L50.5529 42.4914L48.8234 41.5168L48.7411 41.6816H48.7548Z" fill="black"/>
<path id="Vector_18" d="M50.6903 37.3576C50.5118 38.0028 50.2373 38.6204 49.9765 39.2244C49.8942 39.4166 49.7981 39.6225 49.7157 39.8146L49.6471 39.9656L51.459 40.7892L51.5276 40.6245C51.6099 40.4323 51.6923 40.2401 51.7747 40.0617C52.0766 39.3891 52.3786 38.6891 52.5845 37.9616L52.6257 37.8106L50.7315 37.1792L50.6766 37.3576H50.6903Z" fill="black"/>
<path id="Vector_19" d="M51.7608 32.7596C51.7196 33.3498 51.5824 33.9538 51.4588 34.5303C51.3902 34.8048 51.3353 35.0793 51.2804 35.3676L51.2529 35.5323L53.1883 35.999L53.2295 35.8205C53.2844 35.5323 53.353 35.2578 53.4079 34.9695C53.5452 34.3381 53.6962 33.6793 53.7511 33.0067V32.842L51.7882 32.5812V32.7596H51.7608Z" fill="black"/>
<path id="Vector_20" d="M32.3657 9.91918L36.9639 7.48965L37.4992 7.21513C38.0208 6.9406 38.2679 6.3092 38.062 5.7327C38.0483 5.69152 38.0208 5.63662 37.9934 5.59544L35.3854 0.640303C35.0835 0.0638049 34.356 -0.16954 33.7657 0.132436C33.4912 0.269697 33.2853 0.516768 33.1892 0.818743C33.0932 1.13444 33.1206 1.46387 33.2716 1.75212L34.603 4.29146C26.6281 1.68349 17.8434 3.0012 11.0352 7.87398C-0.796698 16.343 -3.55565 32.8556 4.91338 44.7012C6.25854 46.5817 7.82332 48.2563 9.56654 49.6976C9.60772 49.7387 9.66263 49.7799 9.73126 49.8074C9.9097 49.9172 10.1019 49.9721 10.294 49.9721C10.5136 49.9721 10.7333 49.9034 10.9117 49.7662C11.3921 49.423 11.5019 48.7642 11.1588 48.2838C11.1313 48.2426 11.0901 48.174 11.049 48.1602C11.0215 48.1328 10.9941 48.1053 10.9803 48.1053C9.31947 46.7327 7.8645 45.1679 6.64287 43.4659C2.88191 38.2088 1.39949 31.7849 2.47013 25.3748C3.54076 18.9784 7.02721 13.3782 12.2843 9.6172C18.5709 5.12875 26.6556 3.92085 33.9991 6.35038L31.2539 7.79163C31.0068 7.92889 30.8146 8.14851 30.7323 8.42303C30.6499 8.71128 30.6774 8.99953 30.8146 9.26032L30.9107 9.43876C31.048 9.69956 31.2813 9.89173 31.5558 9.98781C31.8304 10.0702 32.1186 10.0427 32.3794 9.90545L32.3657 9.91918Z" fill="black"/>
</g>
</g>
</svg>
