<?xml version="1.0" encoding="utf-8"?>
<!-- Generator: Adobe Illustrator 27.3.1, SVG Export Plug-In . SVG Version: 6.00 Build 0)  -->
<svg version="1.1" id="Layer_1" xmlns="http://www.w3.org/2000/svg" xmlns:xlink="http://www.w3.org/1999/xlink" x="0px" y="0px"
	 viewBox="0 0 100 100" style="enable-background:new 0 0 100 100;" xml:space="preserve">
<style type="text/css">
	.st0{fill:#63BC46;}
</style>
<g>
	<g>
		<g>
			<g>
				<path d="M96.2,47.3L96,45.7c-0.2-1.2-0.3-2.4-0.5-3.6c-1.9-10.8-7-19.9-15.3-27.1C72.8,8.5,64.2,4.8,54.6,4
					c-1.6-0.2-3.2-0.2-4.7-0.2c-13.7,0-25.3,5.3-34.8,15.9C8.8,26.7,5,35.4,4,45.5c-2.4,23.1,13.5,45,36.2,49.7
					c1.4,0.3,2.9,0.5,4.3,0.7c0.7,0.1,1.5,0.2,2.2,0.3c0.2,0,0.4,0.1,0.6,0.1l0.2,0h5.3l1.6-0.2c1.2-0.1,2.4-0.3,3.6-0.5
					c9.6-1.7,18-6.1,24.9-13c6.5-6.6,10.8-14.7,12.5-23.8c0.2-1.1,0.3-2.2,0.5-3.4c0.1-0.6,0.1-1.1,0.2-1.7c0-0.2,0.1-0.5,0.1-0.7
					l0.1-0.3L96.2,47.3z M90.6,50C90.6,72.4,72.3,90.6,50,90.6c0,0-0.1,0-0.1,0c-11,0-21.2-4.3-28.8-11.9C13.6,71,9.4,60.8,9.4,49.9
					C9.5,27.6,27.6,9.4,50,9.4c0,0,0.1,0,0.1,0C72.4,9.4,90.6,27.6,90.6,50L90.6,50z"/>
			</g>
		</g>
	</g>
	<circle class="st0" cx="50" cy="50" r="41.4"/>
	<g>
		<path d="M69.6,61.2c-1.7,3.8-4.3,6.8-7.8,9c-3.6,2.3-7.5,3.3-12.6,3.4c-8-0.4-14.1-4.1-18-10.9c-0.3-0.6-0.6-1.1-0.8-1.7
			c-0.4-1,0-2,0.9-2.4c0.3-0.1,0.5-0.2,0.8-0.2c0.7,0,1.2,0.4,1.6,0.9c0.2,0.4,0.4,0.8,0.6,1.1c0.3,0.6,0.7,1.3,1.1,1.9
			c3,4.2,7.3,6.7,12.7,7.3c5,0.5,9.5-0.8,13.4-3.8c2-1.6,3.6-3.6,4.8-6.1c0.5-1,1.3-1.5,2.2-1.3c0.6,0.1,1,0.5,1.2,0.9
			C69.9,60,69.9,60.6,69.6,61.2z"/>
	</g>
	<path d="M65.2,33.8c2.8,0,5,2.3,5,5.1c0,2.8-2.3,5.1-5.1,5c-2.8,0-5.1-2.4-5-5.1C60.1,36,62.4,33.8,65.2,33.8z"/>
	<path d="M40.7,38.8c0,2.8-2.2,5.1-5,5.1c-2.8,0-5.1-2.3-5.1-5c0-2.8,2.2-5.1,5-5.1C38.4,33.8,40.7,36,40.7,38.8z"/>
</g>
</svg>
