<svg width="40" height="26" viewBox="0 0 40 26" fill="none" xmlns="http://www.w3.org/2000/svg">
<g id="Layer_1" clip-path="url(#clip0_2168_8239)">
<path id="Vector" d="M27.2727 10.9091C30.2909 10.9091 32.7091 8.47273 32.7091 5.45455C32.7091 2.43636 30.2909 0 27.2727 0C24.2545 0 21.8182 2.43636 21.8182 5.45455C21.8182 8.47273 24.2545 10.9091 27.2727 10.9091ZM12.7273 10.9091C15.7455 10.9091 18.1636 8.47273 18.1636 5.45455C18.1636 2.43636 15.7455 0 12.7273 0C9.70909 0 7.27273 2.43636 7.27273 5.45455C7.27273 8.47273 9.70909 10.9091 12.7273 10.9091ZM12.7273 14.5455C8.49091 14.5455 0 16.6727 0 20.9091V25.4545H25.4545V20.9091C25.4545 16.6727 16.9636 14.5455 12.7273 14.5455ZM27.2727 14.5455C26.7455 14.5455 26.1455 14.5818 25.5091 14.6364C27.6182 16.1636 29.0909 18.2182 29.0909 20.9091V25.4545H40V20.9091C40 16.6727 31.5091 14.5455 27.2727 14.5455Z" fill="#282828"/>
</g>
<defs>
<clipPath id="clip0_2168_8239">
<rect width="40" height="25.4545" fill="white"/>
</clipPath>
</defs>
</svg>
