<svg width="39" height="37" viewBox="0 0 39 37" fill="none" xmlns="http://www.w3.org/2000/svg">
<g id="Layer_1" clip-path="url(#clip0_2168_8249)">
<g id="layer0">
<g id="Group">
<path id="Vector" d="M19.3781 16.1914C23.8423 16.1914 27.4742 12.5596 27.4742 8.09609C27.4742 3.63262 23.8416 0 19.3781 0C14.9146 0 11.2812 3.63186 11.2812 8.09609C11.2812 12.5603 14.9131 16.1914 19.3781 16.1914Z" fill="#282828"/>
<path id="Vector_2" d="M5.57615 22.6388C5.55559 21.9283 4.9136 21.3579 4.12006 21.3579C3.32652 21.3579 2.66016 21.9466 2.66016 22.6739V25.5084H3.56488C4.13833 24.497 4.81079 23.5367 5.57615 22.6396V22.6388Z" fill="#282828"/>
<path id="Vector_3" d="M36.3418 25.9356V23.1011C36.3418 22.3746 35.6877 21.7852 34.8812 21.7852C34.2201 21.7852 33.6695 22.1835 33.4883 22.7257C34.3283 23.7226 35.0479 24.8002 35.6519 25.9356H36.3411H36.3418Z" fill="#282828"/>
<path id="Vector_4" d="M29.2325 33.7254C29.2325 33.3598 29.3224 33.0156 29.4754 32.7087H25.6105C25.4864 32.3523 25.3371 32.0073 25.1567 31.6821L29.2515 28.0487C29.3452 26.8691 30.323 25.9354 31.5255 25.9354H34.2009C33.9587 25.5219 33.6998 25.119 33.4249 24.7291C33.0426 24.1869 32.6328 23.6652 32.1911 23.1717C32.1706 23.1459 32.1561 23.1169 32.1333 23.0918C32.1135 23.0689 32.0898 23.0537 32.0693 23.0324C28.9538 19.6206 24.4713 17.4761 19.4975 17.4761C14.5238 17.4761 10.0459 19.6183 6.93035 23.0286C6.90827 23.0514 6.88314 23.0682 6.86257 23.091C6.84201 23.1146 6.82754 23.142 6.80774 23.1672C6.36909 23.6576 5.96089 24.1762 5.58088 24.7154C5.39887 24.9736 5.22599 25.2394 5.05769 25.5067H7.4802C8.74362 25.5067 9.77172 26.5348 9.77172 27.799C9.77172 27.8858 9.76029 27.9688 9.75115 28.0533L13.6823 31.5428C13.4668 31.9098 13.2871 32.299 13.1446 32.7072H9.68718C9.73821 32.896 9.77172 33.0918 9.77172 33.2966C9.77172 34.56 8.74362 35.5881 7.4802 35.5881H2.84766C3.17512 36.0161 3.68613 36.2956 4.26567 36.2956H34.7294C34.7294 36.2956 34.7324 36.2956 34.7347 36.2956C34.737 36.2956 34.7378 36.2956 34.7385 36.2956C35.0896 36.2956 35.4156 36.1905 35.692 36.0161H31.524C30.2606 36.0161 29.2325 34.988 29.2325 33.7239V33.7254ZM19.3772 28.2719C18.2554 28.2719 17.1999 28.5537 16.2754 29.0471L10.8478 24.2303C13.1873 22.2571 16.2046 21.0645 19.4968 21.0645C22.789 21.0645 25.807 22.2571 28.1458 24.2303L22.6252 29.1302C21.6657 28.5856 20.5584 28.2719 19.3764 28.2719H19.3772Z" fill="#282828"/>
<path id="Vector_5" d="M8.70504 33.2983C8.70504 33.0836 8.64488 32.8848 8.5474 32.7089C8.33873 32.3311 7.9412 32.0722 7.47894 32.0722H3.80367V31.7554H7.47818C7.79879 31.7554 8.08742 31.6305 8.30523 31.4287C8.54816 31.2048 8.70352 30.8865 8.70352 30.5293C8.70352 30.1935 8.56796 29.8888 8.34863 29.6672C8.12626 29.4426 7.81859 29.3032 7.47818 29.3032H3.80367V29.0245H7.47818C8.1552 29.0245 8.70352 28.4754 8.70352 27.7991C8.70352 27.4793 8.57862 27.1906 8.37757 26.9721C8.15368 26.7284 7.83535 26.573 7.47818 26.573H2.16785C2.12521 26.573 2.08637 26.5814 2.04448 26.5852C1.97899 26.5776 1.91502 26.5723 1.85257 26.5723C-0.0794961 26.5738 0.000467319 30.5301 0.000467319 30.5301C0.000467319 30.5301 -0.00334058 34.5237 1.85257 34.5237C1.91502 34.5237 1.97899 34.5183 2.04448 34.5115C2.08561 34.5168 2.12521 34.5237 2.16785 34.5237H7.47894C8.15596 34.5237 8.70504 33.9753 8.70504 33.2983Z" fill="#282828"/>
<path id="Vector_6" d="M37.1493 27.0015C37.0869 27.0015 37.0222 27.0068 36.9574 27.0137C36.9163 27.0098 36.8767 27.0015 36.8341 27.0015H31.523C31.2488 27.0015 30.9975 27.0951 30.7934 27.2474C30.4941 27.4706 30.2976 27.8247 30.2976 28.2276C30.2976 28.9038 30.846 29.4529 31.523 29.4529H35.1975V29.7316H31.523C31.242 29.7316 30.9861 29.8299 30.7789 29.989C30.488 30.2129 30.2976 30.5617 30.2976 30.957C30.2976 31.1245 30.3319 31.2837 30.3921 31.4291C30.5771 31.8716 31.0127 32.1838 31.5222 32.1838H35.1967V32.4999H31.5222C31.2686 32.4999 31.0333 32.5768 30.8376 32.7086C30.5109 32.9286 30.2969 33.3026 30.2969 33.7252C30.2969 34.4023 30.8452 34.9513 31.5222 34.9513H36.8333C36.8759 34.9513 36.9155 34.943 36.9567 34.9384C37.0206 34.946 37.0861 34.9513 37.1486 34.9513C39.0045 34.9513 38.9999 30.957 38.9999 30.957C38.9999 30.957 39.0814 27.0015 37.1486 27.0015H37.1493Z" fill="#282828"/>
</g>
</g>
</g>
<defs>
<clipPath id="clip0_2168_8249">
<rect width="39" height="36.2972" fill="white"/>
</clipPath>
</defs>
</svg>
