<?xml version="1.0" encoding="utf-8"?>
<!-- Generator: Adobe Illustrator 27.3.1, SVG Export Plug-In . SVG Version: 6.00 Build 0)  -->
<svg version="1.1" id="Layer_1" xmlns="http://www.w3.org/2000/svg" xmlns:xlink="http://www.w3.org/1999/xlink" x="0px" y="0px"
	 viewBox="0 0 500 500" style="enable-background:new 0 0 500 500;" xml:space="preserve">
<style type="text/css">
	.st0{fill:#B7B7B7;}
	.st1{fill:#C14D41;}
</style>
<path class="st0" d="M474.4,419.8c-0.1-1.5-0.1-2.9-0.2-4.4c-1.1-19.7-5.9-38.5-13.4-56.8C450.2,333,434.2,312,408.7,300
	c-24.4-11.5-49.5-21.5-74.4-32.1c-0.9-0.4-2.7-0.3-3.1,0.2c-3.5,4.6-7.5,8.9-9.8,14c-6.5,14.1-12.2,28.6-18.2,42.9
	c-3.6,8.6-7.2,17.2-11.2,26.5c-11.1-14.2-21.7-27.9-32.6-41.9c-10.8,14-21.4,27.6-32.2,41.7c-0.8-1.7-1.4-2.8-1.9-4
	c-5.9-13.9-11.5-27.9-17.7-41.7c-5.5-12.2-8.8-25.6-18.2-35.9c-1.9-2.1-3.1-2.6-5.6-1.5c-23.6,10.2-47.4,19.9-70.7,30.5
	c-1.1,0.5-2.2,1-3.3,1.6c8.1,1.1,15.9,3.1,23.2,6.1c1.6-0.7,3.3-1.5,4.9-2.2c12.3-5.6,24.6-11.2,36.9-16.6
	c6.5-2.9,12.5,0.8,12.5,8.1c-0.1,3-1.7,5.8-5,7.3c-10.1,4.6-20.2,9.2-30.3,13.8c24.5,17.2,40.5,45.7,40.5,77.8
	c0,22.5-7.8,43.1-20.8,59.4c34,3,68,3.8,102.2,3.4c48.2-0.6,96.3-3.5,143.8-13.1c17.3-3.5,34.4-8,50.8-14.8
	C472.6,427.6,474.7,424.6,474.4,419.8z M407.9,335.3c-12.5-5.5-24.9-11.1-37.3-16.7c-11-5-21.9-10.1-32.8-15.1c-3.8-1.7-6-4.4-6-8.6
	c0-6.6,6.1-10.2,12.6-7.4c11.6,5.2,23.1,10.5,34.7,15.7c11.7,5.3,23.4,10.6,35.1,15.9c3.6,1.6,5.8,4.2,5.9,7.5
	C420,333.8,414,337.9,407.9,335.3z"/>
<path class="st0" d="M166.6,127.5c30.1,11.9,61.1,18.3,93.3,18.6c32.2,0.3,62.8-6.9,93.2-19.1c0,5.5-0.1,10.1,0.1,14.7
	c0,1.2,0.3,2.9,1.1,3.5c5.5,3.8,7.1,9.6,7.8,15.7c2.4,21.7-4.1,40.9-17.4,57.7c-5.7,7.2-10,14.7-13.3,23.3
	c-6,15.7-15.8,28.8-29.2,39.1c-28.1,21.5-62,20.4-88.7-2.8c-13.7-11.9-22.8-26.7-28.8-43.8c-1.2-3.5-3.2-7-5.6-9.8
	c-15.2-17.8-24.2-37.8-22.1-61.7c0.4-4.4,0.9-10.3,3.8-12.7c6.5-5.7,5.2-12.4,5.4-19.3c0-0.7,0.1-1.3,0.1-2
	C166.1,128.7,166.2,128.4,166.6,127.5z"/>
<path class="st0" d="M370.2,103.8c-73.9-36.1-147.6-36.1-222.1,0.4c-0.9-4.4-2.3-8.2-2.4-12c-0.6-11.2,3.9-20.9,10.4-29.7
	c11.6-16,27.4-26.9,44.9-35.6c21.2-10.5,43.6-16.5,67.5-14c36,3.8,67.1,18,91.4,45.5c6.9,7.8,11.8,16.9,13.3,27.4
	C374,91.9,373.5,97.8,370.2,103.8z M259.7,65c13.4-0.1,24.3-11.2,24.3-24.7c-0.1-13.2-11.2-24-24.6-23.9c-13.2,0.1-24,10.9-24,24.1
	C235.2,54.1,246.2,65.1,259.7,65z"/>
<path class="st0" d="M153.4,109.8c71.1-34.2,141.1-34.1,212.2,0c-33.8,16-68.1,25.5-104.6,25.8C223.4,135.8,188.1,126.3,153.4,109.8
	z"/>
<path class="st1" d="M97.2,314c-44.4,0-80.5,36.1-80.5,80.5s36.1,80.6,80.5,80.6s80.5-36.1,80.5-80.5S141.6,314,97.2,314z
	 M97.2,331.1c18,0,34.2,7.5,45.8,19.6l-99.8,77.3c-6-9.7-9.5-21.2-9.5-33.4C33.7,359.6,62.2,331.1,97.2,331.1z M97.2,458
	c-17,0-32.4-6.7-43.8-17.7l99.1-76.9c5.2,9.2,8.2,19.7,8.2,31.1C160.7,429.5,132.2,458,97.2,458z"/>
</svg>
