<svg width="124" height="124" viewBox="0 0 124 124" fill="none" xmlns="http://www.w3.org/2000/svg">
<circle cx="62" cy="62" r="62" fill="#F4FBFF"/>
<path d="M36.4744 86.3216C36.4863 86.1246 36.4863 85.9408 36.4983 85.7439C36.6295 83.1574 37.2025 80.6891 38.0977 78.2864C39.3509 74.9515 41.2368 72.2206 44.2446 70.6319H44.2327C44.364 70.5531 44.4953 70.4875 44.6266 70.4219C45.0682 70.1987 45.5217 69.9755 45.9634 69.7654C46.035 69.726 46.1185 69.6866 46.1901 69.6472C47.3599 69.0826 48.5296 68.5312 49.7112 67.9798C49.7709 67.9535 49.8306 67.9273 49.8903 67.901C50.9525 67.4021 52.0148 66.9163 53.0652 66.4174C53.1845 66.3649 53.28 66.3386 53.3636 66.3517C53.4471 66.3517 53.5307 66.378 53.5665 66.4043C53.5904 66.4436 53.6262 66.483 53.65 66.5224C53.6739 66.5487 53.6978 66.5749 53.7217 66.6143C53.9604 66.9032 54.1633 67.2051 54.3423 67.5203C54.4855 67.7566 54.6168 67.9798 54.7243 68.2424C55.5001 70.0936 56.1804 71.9974 56.8966 73.8749C57.3024 74.9515 57.7202 76.015 58.1618 77.1704C58.1618 77.1704 58.1618 77.1704 58.1618 77.1835C58.1857 77.2229 58.1976 77.2754 58.2215 77.3279C59.5105 75.4767 60.7757 73.6911 62.0648 71.853C62.0767 71.8661 62.0887 71.8792 62.0887 71.8923C62.1006 71.8792 62.1125 71.8661 62.1125 71.853C63.4016 73.6911 64.6668 75.4767 65.9559 77.3279C65.9798 77.2754 66.0036 77.2229 66.0156 77.1835C66.0156 77.1835 66.0156 77.1835 66.0156 77.1704C66.4691 76.015 66.8749 74.9384 67.2808 73.8749C67.9969 71.9974 68.6772 70.0936 69.4531 68.2424C69.5605 67.9929 69.6918 67.7566 69.835 67.5203C70.0141 67.2051 70.217 66.89 70.4557 66.6143C70.4796 66.5881 70.5034 66.5487 70.5392 66.5224C70.5631 66.483 70.5989 66.4436 70.6228 66.4043C70.6467 66.3649 70.7302 66.3517 70.8257 66.3517C70.9092 66.3386 71.0047 66.3649 71.1241 66.4174C72.1744 66.9163 73.2367 67.4152 74.299 67.901C74.3587 67.9273 74.4184 67.9535 74.4781 67.9798C75.6597 68.5181 76.8294 69.0695 77.9991 69.6472C78.0707 69.6866 78.1543 69.726 78.2259 69.7654C78.6795 69.9886 79.1211 70.1987 79.5627 70.4219C79.694 70.4875 79.8253 70.5531 79.9566 70.6319H79.9447C82.9406 72.2074 84.8384 74.9515 86.0916 78.2864C86.9868 80.6891 87.5597 83.1574 87.691 85.7439C87.703 85.9408 87.703 86.1246 87.7149 86.3216C87.7507 86.9518 87.5 87.3457 87.0107 87.5951C85.0532 88.4879 83.0122 89.0787 80.9473 89.5383C76.9488 90.4311 72.9025 90.8775 68.8563 91.1007C68.7847 91.1007 68.7131 91.1138 68.6414 91.1138C67.0301 91.2057 65.4188 91.2451 63.7955 91.2582C63.7955 91.2582 63.7955 91.2582 63.7836 91.2582C63.509 91.2582 63.2345 91.2582 62.96 91.2714C62.9719 91.2714 62.9839 91.2714 62.9958 91.2714C62.6855 91.2714 62.3751 91.2714 62.0767 91.2714C61.5038 91.2714 60.9428 91.2714 60.3699 91.2582C60.3699 91.2582 60.3699 91.2582 60.358 91.2582C58.7466 91.2451 57.1234 91.1926 55.512 91.1138C55.4404 91.1138 55.3688 91.1138 55.2972 91.1007C51.239 90.8906 47.2047 90.4311 43.1943 89.5383C41.1294 89.0787 39.0883 88.4879 37.1309 87.5951C36.6892 87.3457 36.4386 86.9518 36.4744 86.3216ZM70.9689 70.6844C70.9809 70.7107 71.0047 70.7238 71.0167 70.7501C71.0405 70.7763 71.0525 70.7895 71.0763 70.8157C71.1002 70.842 71.1122 70.8551 71.136 70.8683C71.136 70.8683 71.148 70.8814 71.1599 70.8814C71.2196 70.9208 71.2793 70.9602 71.3389 70.9995C72.5445 71.6035 73.75 72.2074 74.9555 72.8114C74.9436 72.8114 74.9316 72.8245 74.9316 72.8377C75.0749 72.9033 75.2181 72.9821 75.3613 73.0477C76.8414 73.783 78.3214 74.5182 79.8134 75.2403C80.5415 75.5817 81.2576 75.0434 81.2695 74.0981C81.2576 73.6648 80.995 73.3235 80.5653 73.1134C79.1688 72.4175 77.7723 71.7217 76.3759 71.0258C75.3732 70.5269 74.3826 70.028 73.38 69.529C73.368 69.529 73.3561 69.5159 73.3442 69.5028C72.9741 69.319 72.6161 69.1483 72.2461 68.9645C71.4702 68.5837 70.7541 69.0695 70.7541 70.028C70.766 70.2512 70.8257 70.4612 70.9451 70.6319C70.9451 70.6582 70.957 70.6713 70.9689 70.6844ZM44.4117 75.2272C45.9037 74.5051 47.3837 73.7699 48.8638 73.0346C49.007 72.969 49.1502 72.8902 49.2935 72.8245C49.2815 72.8114 49.2815 72.8114 49.2696 72.7983C50.4751 72.1943 51.6806 71.5904 52.8861 70.9864C52.9458 70.9602 53.0055 70.9208 53.0652 70.8814C53.0771 70.8814 53.0771 70.8683 53.0891 70.8683C53.1368 70.8289 53.1726 70.7895 53.2084 70.7501C53.2442 70.7107 53.2681 70.6713 53.292 70.6319C53.3039 70.6188 53.3158 70.6057 53.3278 70.5794C53.4233 70.4087 53.471 70.2249 53.4829 70.028C53.4829 69.0695 52.7668 68.5837 51.991 68.9645C51.6448 69.1352 51.2987 69.2927 50.9525 69.4634C50.9287 69.4765 50.9048 69.4897 50.8809 69.5028C49.8664 70.0017 48.8638 70.5138 47.8492 71.0127L43.6598 73.1003C43.2301 73.3103 42.9675 73.6517 42.9555 74.085C42.9675 75.0303 43.6836 75.5686 44.4117 75.2272Z" fill="#5791B2"/>
<path d="M73.9048 50.9241C74.2509 51.2392 74.3106 52.0138 74.3583 52.5915C74.609 55.7294 73.5348 58.3553 71.7205 60.6924C71.4341 61.06 71.1953 61.5195 71.0521 61.979C70.336 64.2242 69.2498 66.1673 67.6146 67.7297C64.4277 70.7757 60.3815 70.9202 57.0275 68.0973C55.4281 66.745 54.2584 65.0251 53.5422 62.9637C53.1484 61.8346 52.6351 60.8499 51.9548 59.9046C50.3673 57.6989 49.5915 55.178 49.8779 52.3289C49.9615 51.528 50.1525 50.7665 50.8089 50.2676C50.9044 50.1888 50.9402 49.9656 50.9402 49.8081C50.9641 49.2041 50.9522 48.6002 50.9522 47.8781C54.5807 49.4798 58.233 50.4252 62.0764 50.3858C65.9197 50.3464 69.6198 49.5061 73.2125 47.9437C73.2602 48.0619 73.2722 48.1013 73.2483 48.1275C73.2483 48.2194 73.2602 48.2982 73.2602 48.3901C73.2841 49.296 73.1289 50.1757 73.9048 50.9241Z" fill="#5791B2"/>
<path d="M75.4211 44.8846C66.5289 40.0923 57.7322 40.0923 48.9116 44.832C48.5177 44.0443 48.458 43.2696 48.5535 42.4688C48.7326 41.0902 49.3174 39.8954 50.141 38.8713C53.0414 35.2607 56.7534 33.3963 61.0503 32.8974C63.903 32.5692 66.5766 33.3569 69.107 34.7355C71.1958 35.8778 73.0816 37.3089 74.4662 39.4096C75.242 40.565 75.7791 41.8385 75.7075 43.309C75.6956 43.808 75.5285 44.3069 75.4211 44.8846ZM62.1365 33.3569C60.5371 33.3438 59.2122 34.7618 59.2003 36.4949C59.2003 38.2673 60.5013 39.7247 62.1007 39.7378C63.712 39.751 65.025 38.3067 65.0011 36.5211C65.0011 34.788 63.712 33.3701 62.1365 33.3569Z" fill="#5791B2"/>
<path d="M74.7888 45.6206C70.6471 47.787 66.4337 49.0343 61.9459 49.008C57.5893 48.9686 53.4953 47.7214 49.461 45.6206C57.9474 41.1435 66.3024 41.1304 74.7888 45.6206Z" fill="#5791B2"/>
</svg>
