<svg id="SvgjsSvg1001" width="288" height="288" xmlns="http://www.w3.org/2000/svg" version="1.1" xmlns:xlink="http://www.w3.org/1999/xlink" xmlns:svgjs="http://svgjs.com/svgjs"><defs id="SvgjsDefs1002"></defs><g id="SvgjsG1008"><svg xmlns="http://www.w3.org/2000/svg" fill="#fff" stroke="#fff" viewBox="0 0 488.607 488.607" width="288" height="288"><path d="M376.422 335.585c-18.369-6.622-36.984-15.706-48.205-22.479-2.361-1.502-5.156-2.383-8.162-2.383-4.07 0-7.758 1.604-10.494 4.201-.012.006-.025.012-.039.018-17.631 17.236-50.229 22.426-61.322 22.426-.947 0-2.882.014-3.896.021-1.014-.008-2.948-.021-3.896-.021-11.095 0-43.691-5.189-61.323-22.426-.013-.006-.026-.012-.039-.018-2.735-2.599-6.423-4.201-10.493-4.201-3.006 0-5.801.881-8.163 2.383-11.22 6.773-29.835 15.857-48.205 22.479-58.368 21.046-84.618 42.507-84.618 57.147 0 14.611 0 95.875 0 95.875h211.079.292 5.367 5.366.291 211.08c0 0 0-81.264 0-95.875C461.041 378.092 434.791 356.631 376.422 335.585zM337.607 153.35c0 0 4.709-23.243 6.061-41.181 1.771-23.531 31.375-57.097 18.363-57.097-22.904 0-43.926-6.602-62.947-14.607S263.479 0 245.338 0c-.158 0-.775 0-.932 0-18.141 0-34.724 32.459-53.747 40.465-19.023 8.006-40.042 14.607-62.948 14.607-13.011 0 16.592 33.565 18.364 57.097 1.351 17.938 6.06 41.181 6.06 41.181s-8.566 3.91-8.566 19.635c3.003 39.454 18.694 22.449 21.932 39.736 5.382 28.735 30.825 49.523 46.664 56.703 10.447 4.733 21.245 6.809 32.706 6.424 11.46.385 22.258-1.689 32.706-6.424 15.839-7.18 41.282-27.968 46.663-56.703 3.238-17.287 18.93-.282 21.934-39.736C346.174 157.26 337.607 153.35 337.607 153.35zM267.672 65.61c0 10.877-14.981 22.262-22.8 22.262-7.818 0-22.799-11.385-22.799-22.262 0-4.578 0-11.56 0-15.378 0-.075.014-.142.016-.215 0-.022-.003-.044-.003-.066 0-3.641 2.858-6.605 6.452-6.795.083-.021.142-.037.142-.037h16.094.198l15.891.02c.102-.005.199-.016.302-.016 3.412 0 5.974 2.498 6.423 5.77.012.06.016.121.025.182.012.109.021.221.029.332.009.12.031.235.031.358C267.672 53.776 267.672 60.609 267.672 65.61z" fill="#242f35" class="color000 svgShape"></path></svg></g></svg>