<svg width="269" height="219" viewBox="0 0 269 219" fill="none" xmlns="http://www.w3.org/2000/svg">
<path d="M199.412 143.903C200.067 142.594 200.667 141.339 201.376 139.974C197.829 140.411 194.446 140.847 191.063 141.284C187.461 141.775 183.859 142.266 180.312 142.757C176.056 143.303 171.799 143.849 167.543 144.504C166.724 144.613 165.633 144.285 165.087 145.322C165.087 145.377 164.978 145.322 164.869 145.377C164.923 145.213 164.978 145.049 165.087 144.776C136.055 148.596 107.078 152.416 77.9918 156.236C80.7203 159.511 83.5034 162.403 86.614 164.968C88.6876 166.659 90.925 168.187 93.1079 169.77C94.363 170.643 95.6181 171.516 96.8733 172.389C97.037 172.498 97.3098 172.662 97.5281 172.662C97.8555 172.662 98.183 172.498 98.5104 172.444C98.5104 172.498 98.565 172.608 98.565 172.662C98.4558 172.826 98.2921 172.935 98.1284 173.153C102.767 175.882 107.678 177.956 112.753 179.593C117.774 181.23 122.958 182.212 128.197 182.54C132.126 182.812 136.11 182.649 140.039 182.649C140.257 182.649 140.475 182.376 140.694 182.212C140.748 182.158 140.857 182.158 140.967 182.103V182.649C141.894 182.54 142.822 182.321 143.75 182.321C144.568 182.321 145.114 182.048 145.496 181.23C145.441 181.503 145.441 181.776 145.387 182.103C146.26 181.994 147.133 181.83 148.006 181.666C148.224 181.612 148.443 181.284 148.661 181.284C150.134 181.503 150.953 181.121 151.444 179.811C151.444 179.756 151.553 179.756 151.608 179.756C151.826 180.793 151.826 180.848 152.863 180.575C154.118 180.248 155.373 179.92 156.574 179.538C157.611 179.156 158.975 179.265 159.302 177.683C159.411 177.737 159.466 177.846 159.575 177.901C159.466 178.174 159.357 178.392 159.193 178.72C176.874 172.28 190.135 160.711 199.303 144.449C199.084 144.231 198.866 144.067 198.702 143.958C198.757 143.903 198.757 143.849 198.812 143.794C198.921 143.685 199.139 143.794 199.412 143.903ZM96.0547 165.131C96.3276 165.459 96.5458 165.732 96.7641 166.059C96.8733 165.732 96.9278 165.404 96.9824 165.131C97.2553 165.459 97.4736 165.732 97.801 166.114C96.4367 166.714 96.273 166.605 96.0547 165.131ZM97.1461 158.856C96.7096 158.583 96.3276 158.146 95.9456 157.764C96.0001 157.71 96.0547 157.601 96.1639 157.546C96.8187 157.873 97.419 158.201 98.2375 158.583C97.7464 158.747 97.3644 158.965 97.1461 158.856ZM122.249 165.95C122.249 165.95 121.266 169.443 120.884 170.588C120.339 169.77 118.32 166.496 118.32 166.496C118.32 166.496 114.445 166.605 113.408 166.605C114.5 165.241 115.427 164.04 116.355 162.894C115.918 161.311 115.482 159.838 115.045 158.255C115.864 158.528 119.466 159.783 119.466 159.783C119.466 159.783 122.631 157.71 123.395 157.164C123.395 157.437 123.449 157.601 123.449 157.764C123.395 158.965 123.34 161.311 123.34 161.311L123.231 162.294C123.231 162.294 126.287 164.095 127.16 164.749C125.85 165.077 122.249 165.95 122.249 165.95ZM145.223 167.423C145.223 167.423 143.695 172.717 143.149 174.408C142.331 173.153 139.329 168.242 139.329 168.242C139.329 168.242 133.49 168.351 131.908 168.351C133.49 166.332 134.964 164.477 136.328 162.785C135.673 160.438 135.018 158.201 134.363 155.8C135.564 156.236 140.967 158.092 140.967 158.092C140.967 158.092 145.714 154.927 146.86 154.163C146.86 154.545 146.915 154.818 146.915 155.036C146.86 156.837 146.751 160.384 146.751 160.384L146.533 161.857C146.533 161.857 151.117 164.586 152.426 165.568C150.626 166.114 145.223 167.423 145.223 167.423ZM164.978 160.275C164.978 160.275 163.995 163.767 163.613 164.913C163.068 164.095 161.049 160.82 161.049 160.82C161.049 160.82 157.174 160.929 156.137 160.929C157.229 159.565 158.156 158.365 159.084 157.219C158.647 155.636 158.211 154.163 157.774 152.58C158.593 152.853 162.195 154.108 162.195 154.108C162.195 154.108 165.36 152.034 166.124 151.489C166.124 151.762 166.178 151.925 166.178 152.089C166.124 153.29 166.069 155.636 166.069 155.636L165.96 156.618C165.96 156.618 169.016 158.419 169.889 159.074C168.579 159.401 164.978 160.275 164.978 160.275Z" fill="#333333"/>
<path d="M188.498 59.2638C183.095 53.5339 176.983 48.6771 170.107 44.8571C163.286 41.0917 156.083 38.4178 148.388 36.9989C146.642 36.6715 144.841 36.6169 143.095 36.3986C141.84 36.2349 140.585 36.0166 139.33 35.8529C139.057 35.7984 138.784 36.0166 138.784 36.0166C138.347 35.8529 138.02 35.6892 137.747 35.6892C134.254 35.7984 130.762 35.8529 127.269 36.0712C122.522 36.3441 117.883 37.49 113.354 38.7997C106.86 40.6552 100.803 43.4928 95.1272 47.0945C89.0152 51.0236 83.5582 55.7167 78.8105 61.2829C78.9742 61.6104 79.1379 61.8832 79.3016 62.2106C79.2471 62.2106 79.1925 62.2652 79.1925 62.2652C78.9742 62.1015 78.7559 61.8832 78.5376 61.7195C74.172 66.8492 70.6249 72.4154 67.7326 78.5819C71.0614 78.1453 74.2265 77.7088 77.4462 77.3268C80.5568 76.9448 83.6673 76.5082 86.7778 76.1262C89.9429 75.6896 93.1626 75.3076 96.3277 74.8711C99.4928 74.4345 102.658 73.9979 105.768 73.6159C108.934 73.1794 112.153 72.7974 115.318 72.4154C118.483 71.9788 121.594 71.4877 124.759 71.1057C127.924 70.6691 131.144 70.3417 134.309 69.9051C137.474 69.5231 140.639 69.0866 143.75 68.65C146.915 68.2134 150.135 67.886 153.3 67.3403C156.301 66.8492 159.357 66.6855 162.358 66.1943C165.524 65.7032 168.743 65.3212 171.908 64.9392C175.073 64.5026 178.239 64.1206 181.404 63.7386C184.569 63.3021 187.734 62.8655 191.117 62.4289C190.135 61.1738 189.371 60.1915 188.498 59.2638ZM84.7041 73.6159C84.3767 73.6159 84.0493 73.3431 83.5036 73.1248C84.3221 72.9611 84.8133 72.9065 85.2498 72.7974C85.359 72.9065 85.4681 73.0157 85.5773 73.1248C85.3044 73.2885 85.0316 73.6159 84.7041 73.6159ZM87.9784 56.9173C87.7601 56.9173 87.3781 56.9718 86.9961 57.0264C86.9415 56.9173 86.887 56.8627 86.7778 56.7536C87.2144 56.4261 87.651 56.0987 88.1967 55.6621C88.0875 56.1533 88.033 56.4807 87.9784 56.9173ZM112.153 58.1178C111.444 59.0455 109.97 60.9009 109.97 60.9009L109.261 61.6104C109.261 61.6104 110.625 64.8846 110.953 65.9215C109.861 65.4849 106.423 64.066 106.423 64.066C106.423 64.066 103.531 66.3035 102.549 66.9583C102.603 65.976 102.931 62.1561 102.931 62.1561C102.931 62.1561 99.7657 59.9187 98.8926 59.3184C100.53 58.8818 102.058 58.4452 103.422 58.0633C103.968 56.5353 104.513 55.1164 105.114 53.5339C105.605 54.2433 107.733 57.3538 107.733 57.3538C107.733 57.3538 111.498 57.5175 112.426 57.5721C112.317 57.845 112.262 58.0087 112.153 58.1178ZM134.691 62.5381C133.218 61.9924 127.761 59.8641 127.761 59.8641C127.761 59.8641 123.231 63.4112 122.031 64.2843C122.085 62.4835 122.467 57.0264 122.467 57.0264C122.467 57.0264 117.829 53.9159 116.41 52.879C117.992 52.4425 123.231 51.4602 123.231 51.4602L123.559 49.9868C123.559 49.9868 124.65 46.6034 125.25 44.9117C125.359 44.6934 125.469 44.4205 125.632 44.0931C126.396 45.2391 129.78 49.8776 129.78 49.8776C129.78 49.8776 135.51 49.9868 136.765 49.9868C135.291 52.0059 133.927 53.8613 132.508 55.8259C133.218 57.8995 133.927 60.0824 134.691 62.5381ZM155.264 52.497C154.5 53.4247 152.972 55.2256 152.972 55.2256L152.263 55.935C152.263 55.935 153.573 59.2092 153.845 60.3007C152.754 59.8641 149.371 58.3361 149.371 58.3361C149.371 58.3361 146.424 60.5189 145.441 61.1738C145.496 60.1915 145.933 56.3716 145.933 56.3716C145.933 56.3716 142.822 54.0796 141.949 53.4247C143.586 52.9882 145.114 52.6062 146.533 52.2787C147.133 50.7508 147.679 49.3319 148.334 47.8039C148.77 48.5134 150.899 51.733 150.899 51.733C150.899 51.733 154.664 52.0059 155.592 52.0059C155.483 52.1696 155.373 52.3333 155.264 52.497Z" fill="#333333"/>
<path d="M46.1767 83.4389C46.5041 83.2752 46.8315 83.0024 47.2135 82.9478C49.9966 82.5658 52.7797 82.1838 55.5628 81.8564C56.6543 81.7472 57.8003 81.8564 58.8917 81.6927C60.4742 81.4744 62.0568 81.0378 63.6393 80.8195C65.8222 80.4921 68.0596 80.3284 70.297 80.0555C72.9709 79.6735 75.6449 79.237 78.3189 78.855C82.0297 78.3638 85.7405 77.8727 89.4513 77.3816C92.9439 76.945 96.4364 76.4539 99.9289 76.0173C103.094 75.5807 106.259 75.1987 109.37 74.7622C110.516 74.5985 111.607 74.3802 112.753 74.3802C114.063 74.3802 115.318 73.9982 116.573 73.8345C117.937 73.6707 119.302 73.4525 120.72 73.2888C121.157 73.2342 121.594 73.3979 121.976 73.3433C122.958 73.125 123.995 72.8522 125.032 72.6885C130.216 71.979 135.4 71.3242 140.584 70.6148C142.549 70.3419 144.513 70.0145 146.478 69.8508C149.261 69.6325 151.935 69.0322 154.718 68.7594C155.428 68.7048 156.191 68.5957 157.01 68.4865C156.901 68.7048 156.846 68.8139 156.792 68.9776C157.119 68.9776 157.501 69.0868 157.719 68.9231C158.32 68.3774 158.865 68.2682 159.466 68.8685C159.52 68.9231 159.629 68.8685 159.793 68.8139C159.575 68.6502 159.411 68.5411 159.084 68.2682C160.393 68.1045 161.485 67.8862 162.576 67.7771C167.215 67.1768 171.853 66.522 176.546 65.9217C179.384 65.5397 182.167 65.2668 185.005 64.9394C186.369 64.7757 187.679 64.3391 188.989 64.3937C190.298 64.5028 191.39 63.9571 192.59 63.848C197.611 63.3023 202.577 62.5383 207.543 61.8834C208.034 61.8289 208.525 61.7197 209.071 61.6652C209.016 61.938 209.016 62.1017 208.961 62.2654C209.071 62.2654 209.234 62.2654 209.234 62.2109C209.453 61.556 209.944 61.556 210.544 61.4469C213.163 61.1194 215.728 60.7375 218.293 60.41C221.404 59.9735 224.514 59.646 227.625 59.2095C228.28 59.1003 228.825 59.0458 229.153 59.8097C229.098 59.5915 228.989 59.3186 228.934 58.9912C231.99 58.6092 234.992 58.2272 237.993 57.8452C240.176 57.5723 242.359 57.1903 244.542 57.1358C253.819 56.8629 262.386 63.4114 264.187 73.2888C264.842 76.7813 265.169 80.3284 265.606 83.8755C266.152 87.9683 266.697 92.0611 267.243 96.1539C267.734 99.7556 268.225 103.412 268.662 107.014C268.88 109.196 269.044 111.379 268.989 113.507C268.88 117.491 267.352 120.984 264.897 124.04C261.24 128.678 256.329 131.025 250.49 131.625C246.943 132.007 243.341 132.553 239.794 133.044C236.138 133.535 232.427 133.972 228.771 134.463C224.732 135.008 220.64 135.554 216.601 136.1C214.419 136.373 212.181 136.536 209.944 136.809C207.979 137.082 206.069 137.409 204.105 137.682C200.012 138.228 195.919 138.828 191.826 139.374C187.461 139.974 183.095 140.52 178.675 141.066C178.238 140.793 178.456 139.647 177.201 139.92C177.474 140.247 177.638 140.465 177.965 140.793C177.692 140.957 177.474 141.229 177.201 141.229C174.746 141.557 172.29 141.884 169.78 142.212C166.178 142.703 162.522 143.194 158.92 143.685C154.827 144.231 150.734 144.722 146.642 145.268C143.094 145.704 139.602 146.195 136.055 146.687C132.399 147.178 128.742 147.669 125.086 148.105C121.484 148.597 117.883 149.088 114.336 149.524C111.171 149.961 107.951 150.343 104.786 150.779C102.712 151.052 100.693 151.325 98.6192 151.598C95.0176 152.089 91.4159 152.526 87.8142 153.017C86.2317 153.235 84.7037 153.399 83.1211 153.617C82.9028 153.617 82.6846 153.672 82.4663 153.617C82.0843 153.508 81.8114 153.399 81.4294 153.781C81.1566 154.054 80.5017 153.944 79.956 154.054C79.192 154.163 78.428 154.272 77.664 154.381C77.4458 153.89 77.2275 153.453 76.9546 152.962C76.5726 153.235 76.2452 153.453 75.8632 153.781C76.2452 153.999 76.5181 154.163 77.0092 154.436C75.2629 154.654 73.7349 154.872 72.1524 155.09C68.4961 155.582 64.8399 156.073 61.1836 156.509C57.964 156.891 54.7443 157.492 51.47 157.764C51.1972 157.764 50.9243 157.601 50.5423 157.492C50.5423 157.546 50.4878 157.764 50.4878 157.928C48.7415 158.146 46.9952 158.419 45.249 158.638C41.5927 159.129 37.9365 159.62 34.2802 160.056C31.77 160.384 29.2597 160.711 26.804 161.039C20.9649 161.748 15.7807 160.22 11.3605 156.4C7.54051 153.126 5.41224 148.979 4.75739 144.013C4.48454 142.103 4.21169 140.193 3.9934 138.228C4.21169 138.228 4.42997 138.173 4.59368 138.173C4.42997 137.846 4.26626 137.573 4.21169 137.3C3.88426 135.936 3.55684 134.626 3.33855 133.262C2.95656 130.806 2.6837 128.351 2.35628 125.84C2.30171 125.458 2.46542 125.022 2.51999 124.585C2.51999 124.476 2.57456 124.422 2.57456 124.312C1.374 121.529 1.53771 118.473 1.04658 115.527C0.664581 113.398 0.446298 111.215 0.173443 109.087C-0.645119 102.211 1.42857 96.3722 6.50366 91.6791C8.57735 89.7691 10.9785 88.4594 13.7616 87.5317C13.5979 87.75 13.5433 87.8592 13.3796 88.0774C13.5979 88.0774 13.8162 88.132 13.8707 88.0774C14.5801 86.9315 15.8353 86.986 16.8721 86.8223C22.3292 86.0583 27.7317 85.4035 33.1888 84.6941C37.2816 84.1483 41.3744 83.6026 45.4672 83.0569C45.7401 83.0024 46.013 83.1115 46.2312 83.1661C46.1767 83.3298 46.1767 83.3844 46.1767 83.4389ZM31.4971 88.5686C29.3143 88.8414 27.186 89.1143 25.1123 89.3872C22.0018 89.8237 18.8367 90.0966 15.7807 90.7514C8.63192 92.334 3.39312 99.0462 3.44769 106.413C3.50226 108.651 3.88426 110.943 4.15711 113.18C4.59368 116.782 5.03025 120.438 5.52139 124.04C6.12167 128.842 6.77652 133.644 7.43137 138.446C7.48594 138.665 7.26765 138.883 7.21308 139.047C7.37679 139.483 7.64965 139.865 7.75879 140.247C7.9225 141.284 8.08622 142.375 8.19536 143.412C8.41364 145.65 9.06849 147.778 10.269 149.633C11.415 151.434 12.5065 153.18 14.3619 154.49C17.4178 156.564 20.6921 157.928 24.4029 157.819C26.9132 157.764 29.4234 157.273 31.8791 156.946C37.1725 156.236 42.5204 155.582 47.8138 154.872C48.3595 154.818 48.8506 154.763 49.3418 154.708C49.3963 154.981 49.4509 155.2 49.5601 155.527C49.8329 155.309 50.1603 155.145 50.1058 155.09C49.9421 154.49 50.3786 154.545 50.706 154.49C54.4714 153.999 58.1822 153.508 61.9476 153.017C62.3296 152.962 62.7116 153.18 62.8753 153.235C63.2028 153.071 63.4756 152.798 63.7485 152.798C64.7308 152.689 65.7676 152.689 66.7499 152.58C68.2233 152.362 69.6421 152.034 71.1155 151.871C71.8795 151.762 72.6981 151.925 73.5167 151.816C74.0624 151.762 74.6081 151.38 75.0446 151.216C75.3721 151.762 75.5903 152.089 75.8086 152.471C75.3721 151.489 75.4812 151.161 76.5726 151.107C77.5003 151.052 78.5917 150.343 79.3012 151.598C79.2466 151.325 79.192 151.052 79.0829 150.779C81.7023 150.452 84.2125 150.07 86.7228 149.743C87.6505 149.633 88.5782 149.415 89.5605 149.361C89.9425 149.361 90.379 149.579 90.8156 149.688C90.8156 149.633 90.8156 149.415 90.8702 149.197C93.3804 148.869 95.8907 148.542 98.401 148.215C102.494 147.669 106.587 147.123 110.679 146.577C111.28 146.468 111.88 146.468 112.207 147.341C112.317 146.905 112.371 146.632 112.48 146.359C114.772 146.086 117.01 145.759 119.192 145.486C119.356 145.813 119.465 146.032 119.629 146.25C119.684 146.25 119.738 146.195 119.793 146.195C119.738 145.923 119.684 145.704 119.629 145.431C121.921 145.159 124.158 144.886 126.45 144.558C129.725 144.122 132.944 143.685 136.219 143.249C139.766 142.757 143.258 142.321 146.805 141.884C150.898 141.339 154.991 140.793 159.084 140.247C163.122 139.701 167.215 139.21 171.253 138.665C174.909 138.173 178.566 137.682 182.222 137.191C186.697 136.591 191.226 136.045 195.701 135.445C199.794 134.899 203.886 134.354 207.979 133.808C211.581 133.317 215.183 132.88 218.784 132.389C221.895 131.952 225.005 131.516 228.17 131.134C231.663 130.697 235.155 130.261 238.648 129.77C242.413 129.278 246.179 128.678 249.999 128.296C253.71 127.86 257.093 126.823 259.931 124.367C263.478 121.311 265.388 117.437 265.715 112.798C265.715 112.471 265.988 112.198 266.152 111.87C266.043 111.761 265.77 111.597 265.715 111.379C265.551 110.288 265.442 109.196 265.333 108.105C264.624 102.539 263.914 96.9725 263.205 91.4063C263.15 91.188 263.423 90.8606 263.369 90.6423C263.259 90.2057 262.932 89.8237 262.877 89.3872C262.386 85.84 261.95 82.2384 261.513 78.6913C261.459 78.091 261.513 77.4907 261.459 76.8904C261.404 76.563 261.186 76.2901 261.131 75.9627C260.64 71.1059 258.676 67.0131 254.801 63.9571C252.564 62.2109 249.999 61.0103 247.27 60.6829C244.869 60.41 242.359 60.792 239.958 61.1195C234.282 61.8289 228.607 62.6474 222.877 63.3569C217.365 64.0663 211.799 64.7757 206.288 65.4851C199.63 66.3583 192.972 67.286 186.369 68.1045C184.077 68.3774 181.785 68.4865 179.548 68.7594C178.293 68.9231 177.092 69.3051 175.837 69.5234C171.799 70.1236 167.706 70.6148 163.668 71.1605C160.066 71.6516 156.464 72.0882 152.863 72.5248C148.715 73.0705 144.568 73.6162 140.421 74.1619C137.31 74.5439 134.254 74.9259 131.143 75.3079C128.087 75.6899 125.032 76.181 121.976 76.6176C118.265 77.1087 114.554 77.6544 110.789 78.091C108.988 78.3093 107.187 78.9641 105.659 78.2001C105.222 78.5276 105.004 78.855 104.677 78.9095C102.767 79.1824 100.802 79.4553 98.8921 79.6735C94.3081 80.2738 89.7788 80.8741 85.1948 81.4198C81.102 81.9655 77.0092 82.5112 72.9164 83.0569C68.7144 83.6026 64.567 84.2575 60.3651 84.6395C59.0008 84.8032 57.3091 85.6218 55.9994 83.7664C56.054 84.4212 56.1086 84.8032 56.1631 85.2398C54.526 85.458 52.9434 85.6763 51.3063 85.8946C47.1589 86.4403 43.0116 87.0952 38.8642 87.4772C36.4631 87.6955 34.1165 88.7869 31.6062 87.8046C31.4971 88.132 31.4971 88.3503 31.4971 88.5686ZM220.858 62.2654C220.858 62.702 220.913 62.9749 220.913 62.9749C221.513 62.9203 222.004 62.9203 222.495 62.8657C222.495 62.7566 222.495 62.6474 222.495 62.5383C222.004 62.5383 221.458 62.4291 220.858 62.2654ZM3.01113 113.835C2.90199 113.835 2.73827 113.78 2.62913 113.78C2.30171 114.271 2.30171 114.763 3.01113 115.472C3.01113 114.763 3.01113 114.271 3.01113 113.835Z" fill="#333333"/>
<path d="M42.9025 56.2625C42.8479 56.5354 42.9025 56.8628 42.7933 57.0811C39.7919 62.3199 37.2271 67.777 35.2625 73.4523C34.2257 76.3992 33.3526 79.4551 32.4249 82.4565C32.2611 83.0568 32.0429 83.2751 31.388 83.3297C30.4603 83.3842 29.5872 83.548 28.5503 83.6571C28.6595 83.166 28.714 82.6748 28.8232 82.2383C29.1506 81.0377 29.4235 79.8371 29.8055 78.6912C29.9692 78.0909 30.3512 77.5452 30.5694 76.9995C30.624 76.9995 30.4603 76.9995 30.2966 76.9995C32.916 68.541 36.4631 60.5191 41.047 52.9883C42.0293 51.3512 43.0662 49.7686 44.103 48.1861C44.2667 47.9678 44.5942 47.8041 44.867 47.6403C44.9216 47.5858 45.0307 47.5312 45.0307 47.4221C45.631 45.1301 47.4318 43.6021 48.7415 41.8013C50.4878 39.5093 52.3978 37.2719 54.3623 35.1436C58.6189 30.5597 63.2028 26.3577 68.1688 22.5378C75.0447 17.299 82.4118 12.8241 90.3245 9.38619C90.9794 9.11333 91.6888 8.56762 92.5074 8.78591C93.4896 7.47621 95.1268 7.42164 96.4365 6.87593C98.2919 6.11194 100.311 5.6208 102.221 5.02052C104.022 4.47481 105.877 3.87453 107.678 3.32882C108.06 3.21968 108.497 3.38339 108.879 3.32882C109.151 3.27425 109.37 2.94683 109.588 2.89225C113.681 2.18283 117.828 1.47341 121.976 0.763993C122.194 0.709422 122.467 0.873135 122.63 0.873135C123.067 0.709422 123.504 0.600279 124.049 0.436566C124.049 0.818562 124.049 1.09142 124.049 1.36427C124.104 1.36427 124.213 1.36427 124.268 1.41884C124.377 1.09142 124.486 0.818563 124.65 0.272854C128.633 0.218283 132.726 0.109143 136.819 0.0545721C137.201 0.0545721 137.528 0.54571 138.074 0.873135C137.965 0.54571 137.91 0.327425 137.801 0C157.392 0.65485 175.51 6.16651 192.099 16.4804C208.252 26.576 220.967 40.0004 230.244 56.972C229.753 56.8082 229.48 56.6991 229.262 56.59C228.334 57.6268 226.588 57.4631 225.879 56.3171C225.606 55.826 225.224 55.3348 225.06 54.8437C224.896 54.4617 224.951 53.9706 224.896 53.5886C224.296 53.8068 224.132 53.3703 223.859 52.9883C219.603 46.1669 214.582 39.8913 208.907 34.2159C203.068 28.4314 196.683 23.2472 189.589 19.0452C185.66 16.6987 181.676 14.5158 177.529 12.6059C170.707 9.49533 163.613 7.09421 156.246 5.72994C151.335 4.80223 146.369 4.03824 141.348 3.71082C136.601 3.38339 131.798 3.49253 127.051 3.81996C122.521 4.14738 118.047 4.96595 113.517 5.51166C113.135 5.56623 112.699 5.34794 111.989 5.18423C112.317 5.45708 112.426 5.56623 112.589 5.67537C110.352 6.22108 108.169 6.76678 106.041 7.36706C97.7462 9.65904 89.8334 12.9333 82.3572 17.1898C77.0092 20.1912 71.9887 23.6837 67.2956 27.6128C65.3856 29.25 63.5302 30.9962 61.6203 32.6334C61.4565 32.7971 61.1291 32.7425 60.8563 32.8516C60.6926 32.9062 60.5288 33.0154 60.3651 33.1245C60.7471 33.6702 60.256 33.8885 59.9831 34.1613C53.6529 40.4916 48.2504 47.5312 43.6119 55.1711C43.5573 55.7714 43.1753 55.9897 42.9025 56.2625Z" fill="#333333"/>
<path d="M240.557 135.008C240.339 135.172 240.175 135.336 239.902 135.554C240.503 136.482 239.739 137.409 239.63 138.392C239.357 138.392 239.193 138.392 238.975 138.337C238.975 138.446 238.92 138.555 238.92 138.61C239.466 138.992 239.302 139.428 239.138 139.92C235.373 152.635 229.534 164.313 221.567 174.899C217.201 180.684 212.344 185.923 206.942 190.78C198.592 198.256 189.261 204.313 179.001 208.843C174.854 210.643 170.488 212.062 166.177 213.645C165.795 213.809 165.304 213.59 164.813 213.536C164.813 213.536 164.922 213.754 165.086 214.081C161.702 214.845 158.374 215.609 154.99 216.373C153.626 216.646 152.262 216.864 150.897 217.083C150.461 217.137 150.024 216.919 149.588 216.864C149.369 216.81 149.151 216.864 148.933 216.864C149.097 217.028 149.206 217.137 149.479 217.41C148.933 217.301 148.442 217.246 148.06 217.192C148.005 217.246 147.896 217.519 147.787 217.519C145.931 217.738 144.021 218.01 142.166 218.065C138.51 218.174 134.908 218.392 131.252 218.229C126.45 218.01 121.702 217.628 116.954 216.919C108.66 215.664 100.638 213.317 92.9431 210.098C83.8844 206.332 75.4259 201.421 67.6768 195.364C59.0546 188.651 51.5784 180.848 45.3028 171.844C45.0845 171.516 44.4842 171.189 45.0845 170.698C45.0845 170.698 44.9208 170.479 44.8117 170.37C44.1022 170.916 44.0477 170.097 43.884 169.824C42.2468 167.205 40.6643 164.586 39.0817 162.021C38.9726 161.857 38.918 161.693 38.8634 161.475C38.9726 161.42 39.0817 161.366 39.1363 161.366C40.1731 161.257 41.4283 160.711 42.3014 161.093C43.0654 161.42 43.502 162.676 43.9931 163.549C48.3588 170.807 53.4884 177.464 59.4366 183.467C62.1106 186.196 64.8937 188.76 67.8951 191.162C69.4777 192.417 71.0602 193.617 72.6428 194.818C74.3345 196.073 76.0808 197.274 77.8816 198.365C79.6279 199.511 81.4287 200.548 83.2295 201.585C89.5052 205.077 96.0537 207.915 102.93 210.043C103.53 210.207 104.13 210.425 104.73 210.698C105.003 210.807 105.222 211.025 105.494 211.244C105.767 211.244 106.149 211.08 106.531 211.189C110.57 212.062 114.608 213.099 118.701 213.754C125.467 214.845 132.289 215.336 139.165 214.791C143.694 214.409 148.169 213.918 152.698 213.372C154.608 213.154 156.464 212.608 158.374 212.226C158.537 212.171 158.756 212.171 159.083 212.171C158.81 212.553 158.592 212.826 158.374 213.099C158.756 213.263 159.083 213.427 159.465 213.645C159.41 213.099 159.356 212.553 159.301 212.008C160.829 211.844 162.139 210.916 163.722 211.244C163.831 211.135 163.94 210.862 164.158 210.807C167.214 209.77 170.215 208.788 173.326 207.751C173.381 207.915 173.544 208.188 173.653 208.406C173.708 208.406 173.763 208.351 173.817 208.351C173.763 208.079 173.708 207.806 173.653 207.533C174.636 207.26 175.454 206.441 176.546 206.66C176.709 206.496 176.873 206.223 177.146 206.059C180.802 204.149 184.568 202.403 188.115 200.33C191.389 198.474 194.499 196.237 197.719 194.163C197.774 194.272 197.828 194.436 197.883 194.654C197.937 194.654 197.992 194.654 198.047 194.654C198.047 194.327 198.101 193.945 198.156 193.399C198.319 193.781 198.374 193.945 198.429 194.163C198.592 193.017 199.302 192.58 200.066 192.526C200.284 192.198 200.393 191.926 200.611 191.762C203.449 189.197 206.451 186.741 209.179 184.013C215.564 177.683 221.021 170.588 225.55 162.839C229.916 155.472 233.791 146.905 236.628 136.263C236.792 135.608 237.065 135.336 237.774 135.281C238.647 135.226 239.52 135.063 240.394 134.954C240.394 134.899 240.448 134.954 240.557 135.008Z" fill="#333333"/>
<path d="M215.401 44.3114C216.601 45.7849 217.802 47.2037 218.893 48.7317C219.602 49.6594 220.039 50.7508 220.694 51.7331C222.004 53.6976 223.422 55.6076 224.896 57.7359C224.186 57.845 223.75 58.0087 223.313 58.0087C223.095 58.0087 222.822 57.8996 222.713 57.7359C222.386 57.081 222.113 56.317 221.731 55.6622C221.458 55.2256 221.021 54.8436 220.694 54.4616C220.312 53.9705 219.984 53.4793 219.712 52.9882C219.493 52.5516 219.33 52.1151 219.166 51.6239C218.948 51.4602 218.62 51.2965 218.456 51.0782C216.71 48.7317 215.019 46.276 213.163 43.984C211.908 42.4015 210.38 40.9826 209.016 39.5092C208.688 39.1818 208.033 38.7998 208.852 38.3087C208.852 38.3087 208.797 38.0904 208.688 37.8721C208.415 38.0904 208.252 38.2541 207.979 38.4178C203.559 33.8884 198.811 29.6865 193.572 26.0302C193.681 25.8119 193.79 25.6482 193.9 25.4845C193.79 25.4845 193.681 25.4845 193.627 25.4845C192.262 25.4299 191.389 24.7205 190.735 23.6291C190.625 23.4654 190.462 23.1925 190.407 23.2471C189.37 23.5745 188.77 22.7014 188.061 22.3194C187.187 21.8283 186.205 21.4463 185.823 20.3003C185.823 20.5186 185.823 20.7368 185.878 20.9551C185.714 20.846 185.55 20.7368 185.387 20.6823C178.074 16.5349 170.489 13.3152 162.467 11.0232C161.048 10.6412 159.629 10.2592 158.21 9.87724C154.063 8.78582 146.478 7.58527 141.675 7.42155C137.637 7.25784 133.599 7.1487 129.561 7.25784C123.23 7.47612 116.955 8.4584 110.788 9.93181C99.6012 12.6604 89.1782 17.026 79.5191 23.2471C79.1371 23.52 78.646 23.5745 78.2094 23.6837C78.1003 23.8474 78.1003 24.1748 77.882 24.2839C72.6432 27.7765 67.841 31.8147 63.257 36.1258C61.8382 37.4355 60.6376 38.9089 59.3279 40.2732C57.9091 41.692 56.7085 43.3292 55.3988 44.8572C54.9077 45.4029 54.5803 46.3306 53.4343 45.6211C53.4343 45.7303 53.3797 45.894 53.3797 46.0031C53.598 46.1123 53.8163 46.276 54.0891 46.4397C47.9226 54.3525 43.0658 62.9201 39.4641 72.1426C38.973 72.088 38.5364 71.9789 38.0999 71.9243C38.0453 72.0334 38.0453 72.088 37.9907 72.1971C38.2636 72.5791 38.5364 72.9066 38.9184 73.4523C38.7547 73.9434 38.4819 74.7074 38.2636 75.4168C37.6087 77.4359 37.0084 79.4551 36.3536 81.4196C35.917 82.8385 35.8079 82.893 34.0616 82.7839C34.8802 80.2191 35.535 77.7088 36.4627 75.2531C37.8816 71.5423 39.3004 67.8315 40.9921 64.2298C44.2118 57.2993 48.3046 50.8599 53.1614 44.8572C53.7617 44.0932 54.2528 43.2746 54.9622 42.5652C55.7262 41.7466 56.3811 40.8735 57.1451 40.0549C57.8545 39.2364 58.6185 38.4178 59.3825 37.5992C60.1465 36.8352 60.8559 36.0712 61.6199 35.3073C62.3839 34.5433 63.2024 33.7793 64.021 33.0153C64.8396 32.2513 65.6036 31.4873 66.4767 30.7779C66.9133 30.4504 67.3498 29.9047 68.0592 30.3413C68.1138 30.3959 68.3321 30.0685 68.6595 29.8502C68.223 29.7956 68.0047 29.7956 67.841 29.741C67.8955 29.6319 67.8955 29.5773 67.9501 29.5227C88.7962 12.1692 111.77 6.22099 129.833 5.51157C129.67 5.67529 129.561 5.78443 129.342 6.00271C129.67 6.00271 129.997 6.11185 130.106 6.05728C131.198 5.02044 132.617 5.40243 133.872 5.40243C136.218 5.34786 138.565 5.457 140.857 5.56614C141.239 5.56614 141.566 5.78443 142.003 5.94814C142.276 5.89357 142.603 5.72986 142.985 5.78443C146.532 6.22099 150.079 6.71213 153.681 7.20327C154.609 7.31241 155.536 7.53069 156.519 7.74898C156.409 7.91269 156.355 8.02183 156.246 8.18555C158.101 7.69441 159.684 8.56754 161.375 9.00411C163.122 9.44067 164.813 9.93181 166.56 10.4775C172.399 12.3329 177.965 14.7886 183.422 17.6263C184.35 18.1174 185.168 18.8269 186.096 19.3726C188.224 20.6823 190.516 21.8283 192.59 23.1925C195.1 24.8842 197.556 26.7396 199.957 28.595C200.394 28.9225 200.721 29.4682 201.267 30.0685C200.721 30.123 200.503 30.123 200.284 30.123C200.284 30.2322 200.284 30.2867 200.284 30.3959C200.666 30.3959 201.048 30.3959 201.485 30.3413C201.594 30.3413 201.703 30.2322 201.812 30.1776C203.013 31.2144 204.213 32.1421 205.305 33.2881C208.688 36.7807 211.963 40.3278 215.291 43.8749C215.291 43.9294 215.346 44.1477 215.401 44.3114C214.8 44.0932 214.2 43.8749 213.545 43.602C213.491 43.6566 213.436 43.7112 213.381 43.8203C213.818 44.2569 214.255 44.6389 214.637 44.9663C214.855 44.8026 215.128 44.5297 215.401 44.3114Z" fill="#333333"/>
<path d="M205.251 139.592C204.323 142.485 202.686 145.049 201.213 147.669C199.63 150.507 197.829 153.235 195.865 155.8C193.9 158.419 191.717 160.875 189.425 163.222C187.133 165.514 184.732 167.751 182.167 169.715C179.712 171.68 177.038 173.481 174.364 175.118C171.581 176.81 168.743 178.283 165.796 179.647C162.849 180.957 159.739 181.994 156.683 183.194C156.628 183.085 156.628 183.031 156.574 182.922C157.01 182.43 157.447 181.994 157.883 181.503C157.829 181.448 157.829 181.448 157.774 181.394C157.119 181.666 156.464 181.939 155.81 182.212C156.028 182.54 156.192 182.758 156.41 183.14C154.609 183.576 152.917 184.013 151.226 184.45C150.735 184.559 150.189 184.722 149.643 184.777C149.261 184.832 148.879 184.668 148.388 184.613C148.17 184.777 147.788 185.159 147.351 185.214C143.204 185.596 139.002 186.196 134.854 186.25C131.307 186.305 127.706 185.923 124.213 185.541C117.501 184.777 111.062 182.976 104.84 180.357C103.367 179.756 101.894 179.156 100.529 178.392C99.0014 177.519 97.3643 176.919 95.8909 175.937C94.3629 174.9 92.7257 174.027 91.1978 172.935C89.6698 171.898 88.1964 170.807 86.7775 169.661C85.3041 168.515 83.8853 167.26 82.521 166.059C81.1567 164.804 79.847 163.549 78.5919 162.239C77.6096 161.257 76.7365 160.166 75.8088 159.129C75.5905 158.856 75.5359 158.474 75.4268 158.31C74.6082 158.037 74.3354 157.382 73.8988 156.782C75.0448 156.509 75.8634 156.455 76.7365 157.546C84.5401 166.878 94.0354 173.917 105.222 178.665C109.697 180.575 114.336 182.158 119.193 182.976C123.176 183.631 127.16 184.231 131.198 184.45C134.745 184.668 138.292 184.231 141.84 184.231C142.549 184.231 143.204 184.068 143.913 183.958C144.732 183.849 145.55 183.686 146.369 183.631C146.533 183.631 146.751 183.795 147.024 183.958C147.297 183.304 147.897 183.14 148.497 183.686C148.988 183.467 149.425 183.14 149.861 183.031C161.758 180.466 172.508 175.445 181.949 167.751C189.48 161.584 195.646 154.217 200.339 145.704C201.213 144.176 201.977 142.594 202.741 140.957C203.505 139.538 203.614 139.429 205.251 139.592Z" fill="#333333"/>
<path d="M91.5244 46.9856C91.5244 46.9856 91.6335 47.1493 91.7427 47.313C82.9022 53.4795 75.7534 61.2286 70.0235 70.3965C69.9143 70.3419 69.6961 70.2328 69.4778 70.1236C69.4778 70.2873 69.4232 70.3965 69.4232 70.451C69.7506 70.833 69.6415 71.1059 69.4232 71.4879C68.2227 73.3979 67.1312 75.417 66.3127 77.5453C65.8215 78.8004 65.0575 79.237 63.6387 78.9641C64.6755 76.945 65.7124 74.9804 66.6947 72.9613C67.0767 72.1973 67.4041 71.4333 67.8407 70.7239C68.8229 69.0868 69.8598 67.5042 70.8421 65.8671C71.224 65.2122 71.6606 64.7211 72.5338 64.994C72.6975 65.0485 72.8612 64.9394 73.0795 64.7211C72.752 64.5574 72.4246 64.4482 71.8243 64.1754C72.8066 63.1385 73.7889 62.2654 74.662 61.2286C75.2623 60.5192 75.6443 59.646 76.19 58.9366C79.0823 55.4986 82.2474 52.279 85.849 49.605C87.2133 48.5681 88.4139 47.313 89.8873 46.3853C91.4698 45.4576 92.9432 44.3662 94.4712 43.3839C96.0538 42.4016 97.6909 41.5831 99.3826 40.6554C99.6555 40.5462 99.9829 40.5462 100.365 40.4917C100.419 40.4371 100.529 40.1097 100.747 40.0005C104.512 38.1451 108.387 36.5626 112.425 35.4711C113.407 35.1983 114.39 34.8163 115.426 34.598C119.792 33.6157 124.158 32.6335 128.633 32.4697C129.615 32.4152 130.543 32.5789 131.525 32.5789C133.762 32.5243 136 32.4152 138.182 32.306C138.51 32.306 139.056 32.1969 139.11 32.3606C139.601 33.3429 140.147 32.4697 140.693 32.4697C141.62 32.5789 142.494 32.5789 143.421 32.688C144.676 32.8517 145.986 32.9609 147.241 33.2337C150.024 33.834 152.862 34.3797 155.591 35.1437C158.374 35.9623 161.157 36.89 163.885 38.036C171.689 41.2556 178.783 45.6759 185.168 51.2421C186.914 52.7701 188.606 54.4072 190.188 56.0989C190.789 56.7538 191.553 57.2449 191.935 58.0089C192.644 59.4277 194.227 60.0826 194.827 61.556C193.899 62.0471 193.135 61.938 192.48 61.2286C190.461 59.0457 188.606 56.7538 186.423 54.7346C181.566 50.1507 176.218 46.167 170.325 43.0019C169.615 42.6199 169.015 41.9651 168.306 41.6376C167.323 41.1465 166.232 40.8191 165.195 40.3825C164.595 40.1097 164.049 39.7277 163.449 39.4548C162.576 39.1274 161.702 38.9091 160.829 38.6362C156.737 37.4357 152.698 36.0168 148.496 35.1437C142.275 33.834 136 33.5066 129.669 34.0523C126.013 34.3797 122.302 34.7617 118.701 35.4711C112.752 36.7263 106.968 38.6362 101.511 41.3648C98.4549 42.8928 95.5626 44.7482 92.6158 46.4399C92.3975 46.7673 91.961 46.8219 91.5244 46.9856Z" fill="#333333"/>
<path d="M73.7354 193.29C73.8445 192.963 74.0082 192.69 74.1174 192.362C74.0628 192.308 74.0628 192.253 74.0082 192.199C73.6808 192.417 73.4079 192.635 73.0259 192.853C61.2932 184.177 51.6887 173.481 44.4308 160.766C44.54 160.657 44.54 160.602 44.5945 160.602C45.9042 160.111 46.5045 160.711 47.1048 161.857C49.7788 166.55 53.053 170.861 56.491 175.063C56.5455 175.118 56.6001 175.227 56.6547 175.336C56.491 175.336 56.3818 175.336 56.4364 175.336C57.2004 176.155 58.0735 177.028 58.9467 177.901C62.4392 181.23 65.9317 184.559 69.4243 187.942C69.6425 188.16 69.7517 188.542 69.9154 188.924C70.6794 188.597 71.1705 189.361 71.7708 189.852C77.6099 194.381 83.8855 198.31 90.5432 201.476C91.0889 201.748 91.6346 202.13 92.2894 202.512C92.4532 202.567 92.8352 202.567 93.108 202.676C99.8202 205.678 106.751 207.86 113.954 209.388C115.864 209.77 117.774 210.098 119.739 210.425C121.103 210.643 122.413 210.807 123.777 210.916C124.432 210.971 124.923 211.025 124.923 211.953C124.977 211.899 125.087 211.844 125.141 211.789C125.141 211.571 125.087 211.298 125.087 211.08C126.505 211.189 127.979 211.298 129.398 211.353C130.871 211.407 132.344 211.462 133.872 211.462C135.346 211.462 136.765 211.407 138.238 211.353C139.712 211.298 141.185 211.08 142.658 211.189C144.023 211.298 145.332 210.807 146.642 210.698C148.115 210.643 149.589 210.316 151.008 210.043C152.427 209.825 153.845 209.552 155.264 209.279C156.683 209.006 158.047 208.679 159.412 208.297C160.83 207.97 162.195 207.588 163.45 207.26C163.886 207.751 164.214 208.188 164.65 208.733C162.413 209.334 160.066 209.934 157.72 210.534C156.356 210.862 154.991 211.135 153.627 211.353C149.48 211.953 145.332 212.608 141.13 212.935C136.328 213.372 131.526 213.427 126.724 212.826C122.14 212.281 117.556 211.571 112.972 210.916C112.59 210.862 112.317 210.534 111.935 210.425C111.608 210.371 111.28 210.534 110.953 210.48C110.134 210.316 109.37 210.152 108.552 209.934C105.441 209.006 102.385 208.024 99.2745 207.042C98.9471 206.933 98.7288 206.605 98.4014 206.387C98.2377 206.387 97.8557 206.496 97.6374 206.387C94.3086 204.968 90.9252 203.604 87.7055 202.076C83.1215 199.893 78.8104 197.164 74.6631 194.272C74.3902 193.89 74.0628 193.563 73.7354 193.29Z" fill="#333333"/>
<path d="M223.477 159.347C223.859 159.511 224.132 159.62 224.459 159.729C224.514 159.62 224.569 159.511 224.569 159.401C224.296 159.238 224.023 159.129 223.695 158.91C224.077 158.201 224.405 157.546 224.732 156.837C227.734 151.107 230.189 145.213 232.045 139.046C232.372 138.064 232.645 137.027 232.973 136.045C233.027 135.881 233.245 135.718 233.409 135.663C233.846 135.609 234.282 135.609 234.883 135.554C234.282 137.573 233.737 139.483 233.136 141.338C232.536 143.248 231.881 145.104 231.172 146.959C230.462 148.76 229.698 150.561 228.88 152.362C228.061 154.163 227.188 155.963 226.26 157.71C225.333 159.456 224.241 161.093 223.259 162.785C222.277 164.422 221.349 166.059 220.258 167.642C219.166 169.279 218.02 170.861 216.82 172.389C215.619 173.972 214.364 175.5 213.054 177.028C211.799 178.447 210.544 179.865 209.234 181.23C207.87 182.649 206.397 184.067 204.978 185.377C203.504 186.741 202.031 188.051 200.503 189.306C198.975 190.561 197.447 191.762 195.864 192.908C194.282 194.054 192.699 195.145 191.062 196.237C189.37 197.328 187.679 198.31 185.987 199.347C184.459 200.22 182.931 201.094 181.349 201.858C179.602 202.731 177.856 203.549 176.055 204.368C174.254 205.186 172.399 206.005 170.543 206.551C168.743 207.096 167.051 207.969 165.414 208.297C164.923 207.806 164.486 207.424 163.995 206.933C164.377 206.823 164.704 206.714 165.032 206.551C169.125 204.968 173.217 203.386 177.31 201.803C178.183 201.476 178.947 200.657 179.984 201.366C179.875 201.203 179.711 200.984 179.711 200.984C183.695 198.583 187.788 196.346 191.608 193.726C195.1 191.38 198.32 188.597 201.649 186.032C201.813 185.923 202.085 185.923 202.304 185.923C202.413 185.923 202.522 185.868 202.631 185.868C202.304 185.268 203.286 185.323 203.177 184.722C203.177 184.559 203.45 184.34 203.668 184.177C204.705 183.249 205.905 182.485 206.833 181.448C210.271 177.41 213.709 173.426 216.929 169.224C219.166 166.223 221.076 162.949 223.095 159.838C223.259 159.674 223.423 159.456 223.477 159.347Z" fill="#333333"/>
<path d="M97.8554 166.114C96.4911 166.659 96.3274 166.55 96.0546 165.131C96.3274 165.459 96.5457 165.732 96.764 166.059C96.8731 165.732 96.9277 165.404 96.9823 165.131C97.2551 165.459 97.528 165.732 97.8554 166.114Z" fill="#333333"/>
<path d="M96.1636 157.601C96.8185 157.928 97.4188 158.255 98.2373 158.637C97.7462 158.747 97.3642 159.019 97.1459 158.91C96.7093 158.637 96.3273 158.201 95.9453 157.819C95.9999 157.71 96.109 157.655 96.1636 157.601Z" fill="#333333"/>
<path d="M155.155 171.407C155.592 171.734 155.919 171.953 156.301 172.226C155.865 172.444 155.537 172.608 155.155 172.771C155.155 172.335 155.155 172.007 155.155 171.407Z" fill="#333333"/>
<path d="M86.7773 56.7537C87.2139 56.4263 87.6505 56.0989 88.1962 55.6623C88.0871 56.1534 88.0325 56.4809 87.9779 56.9174C87.7596 56.972 87.3776 56.972 86.9956 57.0266C86.8865 56.9174 86.8319 56.8629 86.7773 56.7537Z" fill="#333333"/>
<path d="M113.627 52.2242C114.118 52.1151 114.554 52.0605 115.209 51.9514C114.773 53.1519 114.227 52.7699 113.681 52.6062C113.681 52.4425 113.681 52.3334 113.627 52.2242Z" fill="#333333"/>
<path d="M85.6314 73.1249C85.3039 73.2886 85.0311 73.616 84.7036 73.616C84.3762 73.616 84.0488 73.3431 83.5031 73.1249C84.3216 72.9611 84.8128 72.9066 85.2494 72.7974C85.4131 72.9066 85.5222 73.0157 85.6314 73.1249Z" fill="#333333"/>
<path d="M121.593 46.8763C121.975 46.9855 122.357 47.0946 122.958 47.2583C122.303 47.5312 121.866 47.7495 121.157 48.0224C121.375 47.4766 121.484 47.2038 121.593 46.8763Z" fill="#333333"/>
<path d="M147.405 63.6841C147.296 63.193 147.242 62.9201 147.133 62.4835C147.624 62.5381 148.06 62.5927 148.715 62.6472C148.224 63.0838 147.897 63.3567 147.405 63.6841Z" fill="#333333"/>
<path d="M91.7983 146.687C91.7983 146.85 91.7983 147.123 91.7983 147.341C91.7438 147.396 91.6892 147.451 91.6346 147.451C88.3604 147.887 85.1407 148.324 81.8664 148.706C80.9387 148.815 80.011 148.76 79.0833 148.869C77.5553 149.088 76.0819 149.415 74.5539 149.688C72.4803 150.015 70.352 150.288 68.2783 150.561C65.1132 150.998 61.8935 151.38 58.7284 151.816C57.3096 151.98 55.8362 152.198 54.4173 152.362C54.1445 152.362 53.8716 152.144 53.5442 152.034C52.5073 153.126 50.9248 152.798 49.5059 153.017C45.9043 153.562 42.248 153.999 38.6463 154.49C34.0624 155.09 29.533 155.909 24.9491 156.236C17.9094 156.673 11.5246 151.871 10.1058 144.777C9.45093 141.502 9.17808 138.173 8.74151 134.845C8.63237 133.917 8.52323 133.044 8.35952 132.116C8.63237 131.898 8.85065 131.734 9.12351 131.516C9.06894 131.461 9.06894 131.352 9.01437 131.298C8.79608 131.352 8.52323 131.407 8.25037 131.461C8.25037 131.243 8.35952 131.025 8.30494 130.806C7.86838 127.914 7.43181 125.022 6.99524 122.13C6.50411 118.473 6.01297 114.817 5.5764 111.161C5.24898 108.651 4.81241 106.086 5.46726 103.576C6.72239 98.6096 9.56007 94.9534 14.3623 93.2071C16.436 92.4431 18.7825 92.1703 20.9654 91.8429C24.5671 91.2971 28.1687 90.8606 31.7704 90.424C35.3721 89.9329 39.0283 89.4963 42.63 89.0052C46.6682 88.4595 50.7611 87.9138 54.7993 87.4226C58.019 87.0406 61.2387 86.6586 64.4583 86.2766C67.0232 85.9492 69.5334 85.5126 72.0983 85.1852C75.6999 84.6941 79.3016 84.2575 82.8487 83.7664C86.505 83.2752 90.1612 82.7841 93.8175 82.293C94.5269 82.1838 95.1817 82.1292 96.164 81.9655C95.782 82.1838 95.6183 82.293 95.5092 82.3475C95.5092 82.4021 95.5637 82.4567 95.5637 82.5112C96.2186 82.293 96.8734 81.9655 97.5283 81.8018C98.2923 81.6381 99.0563 81.5835 99.9294 81.4744C99.4928 82.6204 98.5651 82.6204 97.6374 82.5658C97.6374 82.675 97.692 82.7841 97.692 82.9478C98.2377 82.8932 98.838 82.9478 99.3291 82.7295C99.8203 82.5658 100.202 82.1292 100.639 81.7473C100.639 81.7473 100.584 81.6381 100.53 81.529C100.584 81.4744 100.639 81.4198 100.693 81.4198C111.171 80.0556 121.594 78.6367 132.072 77.2724C132.126 77.2724 132.235 77.4907 132.344 77.327C132.89 77.327 133.6 77.5453 133.927 77.2724C134.8 76.563 135.837 76.7813 136.819 76.6176C140.912 76.0173 145.059 75.5262 149.207 74.9805C153.3 74.4348 157.392 73.889 161.485 73.3433C165.578 72.7976 169.671 72.2519 173.764 71.7062C175.455 71.4879 177.202 71.2696 178.893 70.9968C178.893 71.1605 178.948 71.3242 178.948 71.3788C179.33 71.2151 179.657 70.9422 179.985 70.8876C183.15 70.4511 186.26 70.0145 189.426 69.578C193.027 69.0868 196.683 68.6502 200.285 68.1591C203.887 67.668 207.489 67.2314 211.09 66.7403C215.183 66.1946 219.276 65.6489 223.369 65.1031C225.006 64.8849 226.643 64.6666 228.335 64.4483C228.607 64.3937 228.935 64.612 229.153 64.6666C229.371 64.5029 229.59 64.2846 229.863 64.2846C234.556 63.6297 239.303 62.9203 244.051 62.4837C246.943 62.2109 249.672 62.9749 252.291 64.5574C255.784 66.6857 258.021 69.6871 258.949 73.5616C259.495 75.8536 259.658 78.3093 259.986 80.6558C260.477 84.3121 260.968 87.9683 261.459 91.6246C261.95 95.1717 262.387 98.6642 262.878 102.211C263.205 104.831 263.533 107.45 263.915 110.07C264.46 114.49 263.26 118.364 260.368 121.693C257.585 124.858 253.928 126.168 249.835 126.659C245.634 127.096 241.486 127.75 237.284 128.296C236.356 128.405 235.483 128.569 234.556 128.624C233.355 128.624 232.209 129.06 231.063 129.115C229.808 129.224 228.553 129.442 227.298 129.606C223.641 130.097 219.931 130.588 216.274 131.025C213.218 131.407 210.108 131.898 207.052 132.28C204.105 132.662 201.104 133.044 198.157 133.426C195.046 133.808 191.99 134.19 188.88 134.626C185.169 135.118 181.458 135.609 177.693 136.1C173.273 136.7 168.907 137.246 164.487 137.846C159.466 138.501 154.446 139.21 149.425 139.865C147.079 140.193 144.732 140.356 142.385 140.684C139.984 141.011 137.583 141.393 135.182 141.721C133.381 141.939 131.58 142.103 129.78 142.375C127.269 142.703 124.814 143.085 122.303 143.412C119.302 143.849 116.301 144.34 113.299 144.613C108.988 145.049 104.732 145.759 100.475 146.305C97.9648 146.632 95.5091 147.014 92.9989 147.287C92.5078 147.287 92.1803 146.905 91.7983 146.687ZM93.1626 145.704C93.2172 145.65 93.3263 145.431 93.5446 145.377C95.018 145.159 96.4914 144.995 97.9648 144.777C102.003 144.231 106.096 143.74 110.134 143.194C114.172 142.648 118.211 142.103 122.194 141.557C126.287 141.011 130.38 140.52 134.473 139.974C139.002 139.374 143.531 138.774 148.061 138.173C153.081 137.519 158.102 136.864 163.177 136.209C168.361 135.554 173.545 134.845 178.73 134.135C181.84 133.753 184.896 133.371 188.007 132.935C192.1 132.389 196.192 131.789 200.285 131.243C203.887 130.752 207.543 130.261 211.145 129.824C215.183 129.278 219.221 128.787 223.259 128.242C226.861 127.75 230.517 127.259 234.119 126.768C234.774 126.659 235.483 126.768 235.974 126.768C236.957 126.55 237.775 126.277 238.594 126.168C242.141 125.677 245.743 125.24 249.29 124.804C252.291 124.476 255.129 123.821 257.53 121.802C260.804 119.019 262.496 115.417 262.223 111.106C261.95 107.559 261.35 104.012 260.913 100.52C260.368 96.154 259.767 91.8429 259.222 87.4772C259.167 87.2589 259.385 86.986 259.331 86.7678C259.276 86.4403 259.003 86.1129 258.949 85.7309C258.458 82.2384 258.076 78.8004 257.585 75.3079C256.875 70.2328 254.147 66.7403 249.453 64.7757C246.889 63.6843 244.215 63.9026 241.541 64.23C240.34 64.3937 239.14 64.2846 237.939 64.4483C237.011 64.5574 236.084 64.994 235.156 65.1031C227.843 66.0854 220.476 67.0131 213.164 67.9954C211.363 68.2137 209.562 68.4865 207.707 68.7594C205.961 68.9777 204.214 69.1414 202.523 69.3597C197.993 70.0145 193.464 70.6148 188.934 71.2151C184.842 71.7608 180.749 72.2519 176.656 72.7976C172.509 73.3433 168.416 73.889 164.268 74.4348C159.794 75.035 155.264 75.5807 150.789 76.181C146.205 76.7813 141.622 77.4362 137.038 78.0364C132.29 78.6913 127.542 79.2916 122.795 79.8918C122.031 80.001 121.103 80.383 120.557 79.4007C120.557 79.3461 120.393 79.4007 120.23 79.4007C120.23 79.6736 120.23 79.9464 120.23 80.2738C118.101 80.4921 115.973 80.7104 113.9 80.9833C110.243 81.4744 106.642 82.293 102.931 82.2384C102.658 82.2384 102.385 82.5112 102.112 82.5658C101.73 82.675 101.294 82.7295 100.857 82.7841C98.6197 83.0569 96.3277 83.3844 94.0357 83.6572C94.0357 83.4389 94.0357 83.3298 94.0357 83.2752C93.5992 83.4389 93.1626 83.7664 92.726 83.8209C89.6701 84.2575 86.6141 84.6395 83.5581 85.0761C79.9565 85.5672 76.3002 86.0038 72.6985 86.4949C69.0969 86.986 65.4952 87.4226 61.8935 87.9137C57.8553 88.4595 53.817 88.9506 49.7788 89.4963C45.686 90.042 41.5932 90.5877 37.5003 91.1334C33.7895 91.6246 30.1333 92.2248 26.4225 92.5523C24.8945 92.716 23.2574 93.8074 21.6748 92.4431C21.7839 92.6614 21.9477 92.9343 22.1114 93.2071C16.9817 93.48 12.234 94.4623 9.12351 99.0462C8.85065 98.9371 8.68694 98.8279 8.52323 98.7734C8.46866 99.3191 8.5778 99.8102 8.35952 100.138C6.94067 102.812 6.44954 105.813 7.04982 109.36C7.54095 112.361 7.86838 115.363 8.1958 118.364C8.25037 118.855 8.68694 119.401 8.08666 119.892C7.97752 120.001 8.52323 120.711 8.5778 121.202C9.01437 124.367 9.39636 127.587 9.83293 130.752C10.3241 134.354 10.8152 138.01 11.2518 141.611C11.5792 144.504 12.3432 147.232 14.2532 149.524C14.7443 150.07 15.0172 150.779 15.5083 151.271C15.8903 151.652 16.5451 151.762 17.0363 152.034C18.8371 153.126 20.7471 153.999 22.8754 153.999C24.7308 153.999 26.6407 153.781 28.4962 153.617C31.4976 153.344 34.4444 153.017 37.4458 152.635C39.192 152.416 40.9383 152.034 42.7391 151.762C46.9957 151.161 51.1976 150.616 55.4542 150.07C56.9821 149.852 58.5101 149.688 60.0381 149.47C65.9863 148.706 71.9345 147.942 77.8828 147.178C80.5567 146.85 83.1761 146.414 85.8501 146.086C87.7601 145.813 89.6701 145.541 91.58 145.322C92.1803 145.541 92.6169 145.65 93.1626 145.704Z" fill="#333333"/>
<path d="M48.9053 100.301L65.604 98.2275L66.3134 103.848L57.8003 104.885L58.9463 114.108L65.4402 113.289L66.1497 118.964L59.6557 119.783L61.02 130.915L69.5876 129.879L70.297 135.445L53.4892 137.518L48.9053 100.301Z" fill="#333333"/>
<path d="M77.3363 114.271L68.3322 97.9547L76.0812 96.9724L81.4292 106.522L83.5028 96.0447L90.3242 95.2261L86.1768 115.363L95.6176 132.334L87.9231 133.262L82.0294 122.73L79.41 134.353L72.5887 135.172L77.3363 114.271Z" fill="#333333"/>
<path d="M95.0718 94.6258L107.569 93.0979C114.226 92.2793 117.828 95.7718 118.701 102.702C119.738 111.27 115.263 113.889 109.26 114.653L105.931 115.035L107.896 130.861L99.6558 131.898L95.0718 94.6258ZM107.951 108.923C111.007 108.541 111.334 106.85 110.897 103.466C110.57 100.683 109.97 98.6095 106.641 99.0461L103.912 99.3735L105.113 109.251L107.951 108.923Z" fill="#333333"/>
<path d="M122.303 91.2425L130.543 90.2057L135.127 127.423L126.887 128.46L122.303 91.2425Z" fill="#333333"/>
<path d="M137.037 89.4416L147.297 88.1865C154.773 87.2588 159.903 88.6776 160.885 96.4812C161.431 101.065 160.939 104.23 157.501 106.413L164.814 123.821L156.301 124.858L150.134 108.705L147.788 108.978L149.862 125.677L141.621 126.713L137.037 89.4416ZM149.534 103.957C152.972 103.521 153.736 101.502 153.354 98.1729C152.972 95.0078 151.771 93.2616 148.661 93.6436L145.987 93.971L147.242 104.285L149.534 103.957Z" fill="#333333"/>
<path d="M165.578 85.8946L182.277 83.8209L182.986 89.4417L174.473 90.4786L175.619 99.701L182.113 98.8825L182.822 104.558L176.328 105.376L177.693 116.509L186.26 115.472L186.97 121.038L170.162 123.112L165.578 85.8946Z" fill="#333333"/>
<path d="M187.079 83.2751L196.52 82.1291C206.233 80.9285 209.453 84.0937 210.49 92.3338L212.181 105.867C213.218 114.217 210.872 118.146 201.267 119.346L191.772 120.492L187.079 83.2751ZM200.503 113.616C204.214 113.18 204.269 111.543 203.832 108.159L201.813 91.9519C201.431 88.6776 200.885 87.4225 197.229 87.859L195.974 88.0228L199.139 113.78L200.503 113.616Z" fill="#333333"/>
<path d="M101.949 35.1985L93.5448 39.5643L85.4681 23.9021L93.8722 19.5364L95.5639 22.8107L91.1436 25.1027L92.5079 27.7222L96.6008 25.5939L98.2925 28.8682L94.1996 30.9965L95.8368 34.1071L100.257 31.8151L101.949 35.1985Z" fill="#333333"/>
<path d="M117.283 30.0144L112.535 31.5424L108.333 27.2858L107.351 33.1796L102.658 34.653L104.677 24.6664L97.637 17.7903L102.221 16.3169L106.15 20.4643L106.805 14.8434L111.498 13.37L109.807 23.1929L117.283 30.0144Z" fill="#333333"/>
<path d="M122.14 11.6782C124.159 11.4053 125.742 11.7328 126.833 12.5514C127.979 13.3699 128.634 14.6797 128.852 16.4805C128.961 17.2991 128.961 18.1177 128.798 18.8817C128.634 19.6457 128.416 20.3551 127.979 20.9554C127.542 21.5557 126.997 22.1014 126.233 22.538C125.469 22.9746 124.596 23.2475 123.45 23.3566L122.358 23.5203L123.122 29.3049L118.702 29.8507L116.464 12.3876L122.14 11.6782ZM122.358 15.3891L121.43 15.4982L121.976 19.8094L122.631 19.7003C123.013 19.6457 123.34 19.5366 123.668 19.3183C123.995 19.1 124.159 18.8271 124.323 18.4451C124.486 18.0631 124.486 17.6265 124.432 17.0263C124.377 16.426 124.159 15.9348 123.777 15.662C123.45 15.4437 122.958 15.28 122.358 15.3891Z" fill="#333333"/>
<path d="M132.835 28.4864L132.999 10.8596L137.474 10.9142L137.31 28.5409L132.835 28.4864Z" fill="#333333"/>
<path d="M148.443 11.951C149.917 12.1693 151.117 12.5513 151.99 13.097C152.918 13.6428 153.573 14.2976 153.9 15.1162C154.282 15.9348 154.391 16.9171 154.228 18.0631C154.119 18.7725 153.9 19.3728 153.627 19.9185C153.355 20.4642 152.973 20.9554 152.481 21.3374C151.99 21.7194 151.445 22.1014 150.844 22.3197L154.064 30.5601L149.098 29.796L146.86 22.8654L145.987 22.7563L145.005 29.1958L140.585 28.5409L143.204 11.1324L148.443 11.951ZM147.843 15.4436L147.133 15.3345L146.533 19.4274L147.188 19.5365C147.843 19.6457 148.388 19.5365 148.825 19.2637C149.262 18.9908 149.534 18.4451 149.644 17.6265C149.753 17.0262 149.644 16.5351 149.316 16.1531C149.098 15.7711 148.607 15.5528 147.843 15.4436Z" fill="#333333"/>
<path d="M164.323 34.0526L155.319 31.1058L160.776 14.3522L169.78 17.2991L168.634 20.7917L163.886 19.2636L162.959 22.1014L167.379 23.5203L166.233 27.0129L161.813 25.594L160.721 28.9229L165.469 30.4509L164.323 34.0526Z" fill="#333333"/>
<path d="M182.987 33.2339C182.059 34.9802 180.967 36.3445 179.712 37.2177C178.457 38.0908 177.147 38.582 175.728 38.582C174.31 38.6366 172.836 38.2 171.308 37.3814L166.779 34.9802L175.074 19.4272L179.876 21.9921C181.404 22.8107 182.55 23.793 183.259 24.8844C183.969 25.9759 184.351 27.2856 184.351 28.7045C184.242 30.1233 183.805 31.5968 182.987 33.2339ZM178.785 31.1602C179.33 30.1779 179.658 29.3048 179.767 28.5408C179.876 27.7767 179.767 27.1219 179.494 26.6307C179.221 26.085 178.73 25.6484 178.075 25.2664L177.202 24.8299L172.454 33.7251L173.054 34.0525C174.2 34.6528 175.183 34.7074 176.11 34.2708C177.093 33.7797 177.966 32.7428 178.785 31.1602Z" fill="#333333"/>
<path d="M93.8721 198.693L85.6863 193.945L94.5269 178.72L102.713 183.467L100.857 186.633L96.5461 184.122L95.0726 186.687L99.0564 189.034L97.2009 192.199L93.2172 189.852L91.4709 192.908L95.7821 195.419L93.8721 198.693Z" fill="#333333"/>
<path d="M111.062 205.46L106.369 203.768L105.659 197.874L101.293 201.913L96.7094 200.221L104.404 193.563L103.04 183.795L107.569 185.432L108.115 191.107L112.044 187.069L116.683 188.761L109.261 195.473L111.062 205.46Z" fill="#333333"/>
<path d="M123.286 189.797C125.305 190.125 126.724 190.834 127.543 191.98C128.361 193.126 128.689 194.545 128.361 196.292C128.252 197.11 127.979 197.874 127.652 198.584C127.324 199.293 126.833 199.893 126.287 200.33C125.687 200.821 125.032 201.148 124.159 201.367C123.341 201.585 122.358 201.585 121.267 201.421L120.175 201.258L119.248 207.042L114.827 206.333L117.611 188.924L123.286 189.797ZM122.467 193.399L121.54 193.235L120.83 197.547L121.485 197.656C121.867 197.71 122.249 197.71 122.577 197.601C122.904 197.492 123.231 197.274 123.45 196.946C123.668 196.619 123.832 196.182 123.941 195.637C124.05 195.036 123.995 194.491 123.723 194.109C123.504 193.727 123.068 193.508 122.467 193.399Z" fill="#333333"/>
<path d="M130.816 208.188L131.089 190.561L135.564 190.616L135.291 208.243L130.816 208.188Z" fill="#333333"/>
<path d="M143.313 190.07C144.787 189.852 146.042 189.907 147.024 190.125C148.061 190.398 148.88 190.834 149.425 191.544C149.971 192.253 150.408 193.181 150.517 194.327C150.626 195.036 150.571 195.691 150.462 196.292C150.353 196.892 150.08 197.438 149.753 197.983C149.425 198.474 148.989 198.966 148.443 199.402L153.846 206.442L148.88 207.097L144.787 201.094L143.914 201.203L144.787 207.643L140.366 208.243L138.02 190.78L143.313 190.07ZM143.75 193.618L143.041 193.727L143.586 197.82L144.241 197.71C144.896 197.601 145.387 197.383 145.769 196.946C146.151 196.51 146.206 195.964 146.097 195.146C146.042 194.545 145.769 194.109 145.387 193.836C145.06 193.618 144.459 193.508 143.75 193.618Z" fill="#333333"/>
<path d="M166.396 202.513L157.392 205.351L152.044 188.542L161.048 185.705L162.14 189.197L157.392 190.725L158.265 193.563L162.685 192.144L163.777 195.637L159.357 197.056L160.393 200.384L165.141 198.856L166.396 202.513Z" fill="#333333"/>
<path d="M178.566 186.25C179.494 187.997 179.985 189.634 180.039 191.162C180.094 192.69 179.712 194.054 178.948 195.255C178.184 196.455 177.038 197.492 175.51 198.311L170.98 200.712L162.685 185.159L167.488 182.594C169.016 181.775 170.435 181.393 171.799 181.393C173.163 181.393 174.418 181.83 175.564 182.649C176.71 183.467 177.693 184.668 178.566 186.25ZM174.582 188.597C174.036 187.615 173.491 186.851 172.945 186.305C172.399 185.814 171.799 185.486 171.199 185.432C170.598 185.377 169.943 185.541 169.289 185.868L168.415 186.305L173.163 195.2L173.764 194.873C174.91 194.272 175.51 193.454 175.619 192.417C175.728 191.489 175.401 190.18 174.582 188.597Z" fill="#333333"/>
</svg>
