<?xml version="1.0" encoding="utf-8"?>
<!-- Generator: Adobe Illustrator 27.3.1, SVG Export Plug-In . SVG Version: 6.00 Build 0)  -->
<svg version="1.1" id="Layer_1" xmlns="http://www.w3.org/2000/svg" xmlns:xlink="http://www.w3.org/1999/xlink" x="0px" y="0px"
	 viewBox="0 0 100 100" style="enable-background:new 0 0 100 100;" xml:space="preserve">
<style type="text/css">
	.st0{fill:#BA5D5E;}
	.st1{fill:#FFFFFF;stroke:#FFFFFF;stroke-width:2;stroke-miterlimit:10;}
</style>
<path class="st0" d="M58.5,74.3c0,0.2,0,0.4,0,0.5c0,3.9,0,2.4,0,6.3c0,2.5-1.6,4.5-3.8,5.1c-0.3,0.1-0.7,0.1-1.1,0.1
	c-2.5,0-5.1,0-7.6,0c-2.2,0-4.2-1.7-4.7-3.8c-0.1-0.5-0.1-1-0.1-1.5c0-3.8,0-2.3,0-6.1c0-0.2,0-0.3,0-0.5c-0.2,0-0.4,0-0.5,0
	c-2.7,0-5.4,0-8.2,0c-1.4,0-2.6-1-2.8-2.3c-0.2-0.8,0.1-1.6,0.5-2.3c1.7-2.9,3.5-3.6,5.2-6.5c1.9-3.1,3.8-6.2,5.6-9.4
	c0.1-0.2,0.2-0.5,0.2-0.8c0-1.7,0-3.4,0-5.1c0-0.1,0-0.3,0-0.5c-0.7,0-1.3,0-1.9,0c-0.1,0-0.2,0.2-0.3,0.3c-2.6,4-5.3,8-7.9,11.9
	c-0.7,1.1-1.4,2.2-2.2,3.3c-1.1,1.5-2.6,2-4.4,1.7c-1.8-0.3-2.9-1.5-3.4-3.2c-0.3-1.3,0-2.5,0.7-3.5c1.3-1.9,2.6-3.9,3.9-5.8
	c2.6-3.9,5.2-7.9,7.9-11.8c1.2-1.7,2.7-3.1,4.7-3.9c1.1-0.4,2.2-0.6,3.3-0.6c5.5,0,11,0,16.5,0c3.1,0,5.6,1.2,7.5,3.5
	c0.6,0.8,1.2,1.6,1.8,2.5C71,47.2,74.5,52.6,78.1,58c0.8,1.2,1.1,2.5,0.7,3.9c-0.6,1.6-1.8,2.7-3.5,2.9c-1.8,0.3-3.3-0.4-4.3-1.9
	c-1.3-1.9-2.5-3.8-3.8-5.7c-2.1-3.1-4.1-6.2-6.2-9.3c-0.2-0.3-0.4-0.4-0.7-0.4c-0.5,0-1,0-1.5,0c0,0.2,0,0.3,0,0.5
	c0,1.7,0,3.4,0,5.1c0,0.3,0.1,0.5,0.2,0.8c3.6,6,7.2,9.9,10.9,15.9c0.8,1.4,0.6,2.8-0.5,3.8c-0.6,0.5-1.2,0.7-1.9,0.7
	c-2.7,0-5.4,0-8.1,0C58.9,74.3,58.8,74.3,58.5,74.3z"/>
<path class="st0" d="M50.1,13.7c5.9,0,10.7,4.8,10.7,10.7S56,35.1,50.1,35.1s-10.7-4.8-10.7-10.7C39.5,18.4,44.2,13.7,50.1,13.7z"/>
<path class="st1" d="M49.5,56.4c-0.1-0.1-0.1-0.1-0.2-0.2c-1.3-1.3-2.5-2.5-3.8-3.8c-0.1-0.1-0.2-0.2-0.2-0.3
	c-0.1-0.2,0-0.3,0.2-0.4c0.1-0.1,0.3-0.1,0.4,0c0.1,0,0.1,0.1,0.1,0.1c1.3,1.3,2.5,2.5,3.8,3.8c0.1,0.1,0.1,0.1,0.2,0.2
	c0.1-0.1,0.1-0.1,0.2-0.2c1.3-1.3,2.5-2.5,3.8-3.8c0.1-0.1,0.2-0.2,0.4-0.2c0.3,0,0.4,0.3,0.3,0.6c-0.1,0.1-0.1,0.1-0.2,0.2
	c-1.3,1.3-2.5,2.5-3.8,3.8c-0.1,0.1-0.1,0.2,0,0.3c1.3,1.3,2.5,2.5,3.8,3.8c0.2,0.2,0.3,0.5,0.1,0.6c-0.2,0.2-0.4,0.1-0.6-0.1
	c-1.3-1.3-2.5-2.5-3.8-3.8c-0.2-0.2-0.2-0.2-0.4,0c-1.3,1.3-2.5,2.5-3.8,3.8c-0.1,0.1-0.2,0.2-0.3,0.2c-0.2,0.1-0.3,0-0.4-0.2
	c-0.1-0.2-0.1-0.3,0.1-0.5c0.4-0.4,0.7-0.7,1.1-1.1c0.9-0.9,1.9-1.9,2.8-2.8C49.3,56.5,49.4,56.5,49.5,56.4z"/>
</svg>
