<svg width="45" height="56" viewBox="0 0 45 56" fill="none" xmlns="http://www.w3.org/2000/svg">
<path d="M28.9378 46.7439C28.9378 46.8981 28.9378 47.0524 28.9378 47.1295C28.9378 50.1378 28.9378 48.9808 28.9378 51.989C28.9378 53.9174 27.7037 55.4601 26.0067 55.9229C25.7753 56 25.4668 56.0001 25.1582 56.0001C23.2298 56.0001 21.2243 56.0001 19.296 56.0001C17.599 56.0001 16.0563 54.6888 15.6706 53.0689C15.5935 52.6832 15.5935 52.2976 15.5935 51.9119C15.5935 48.9808 15.5935 50.1378 15.5935 47.2067C15.5935 47.0524 15.5935 46.9753 15.5935 46.821C15.4392 46.821 15.2849 46.821 15.2078 46.821C13.1252 46.821 11.0425 46.821 8.88274 46.821C7.80285 46.821 6.87723 46.0496 6.72296 45.0469C6.56869 44.4298 6.8001 43.8127 7.10864 43.2728C8.41993 41.0359 9.80836 40.4959 11.1197 38.259C12.5852 35.8678 14.0508 33.4766 15.4392 31.0083C15.5163 30.854 15.5935 30.6226 15.5935 30.3912C15.5935 29.0799 15.5935 27.7686 15.5935 26.4574C15.5935 26.3802 15.5935 26.2259 15.5935 26.0717C15.0535 26.0717 14.5907 26.0717 14.1279 26.0717C14.0508 26.0717 13.9736 26.2259 13.8965 26.3031C11.891 29.3885 9.80836 32.4739 7.80285 35.4821C7.26291 36.3306 6.72296 37.1791 6.10588 38.0276C5.2574 39.1846 4.10037 39.5703 2.71194 39.3389C1.32351 39.1075 0.475027 38.1819 0.0893521 36.8706C-0.142053 35.8678 0.0893512 34.9422 0.629296 34.1709C1.63205 32.7053 2.63481 31.1626 3.63756 29.697C5.64307 26.6888 7.64858 23.6034 9.73122 20.5951C10.6568 19.2838 11.8139 18.2039 13.3566 17.5868C14.2051 17.2783 15.0535 17.124 15.902 17.124C20.1444 17.124 24.3869 17.124 28.6293 17.124C31.0205 17.124 32.9489 18.0496 34.4144 19.8237C34.8772 20.4408 35.34 21.0579 35.8029 21.7521C38.5797 25.8403 41.2794 30.0056 44.0563 34.1709C44.6734 35.0965 44.9048 36.0992 44.5962 37.1791C44.1334 38.4133 43.2078 39.2618 41.8965 39.416C40.5081 39.6474 39.3511 39.1075 38.5797 37.9505C37.577 36.4849 36.6513 35.0193 35.6486 33.5538C34.0287 31.1626 32.486 28.7714 30.8662 26.3802C30.7119 26.1488 30.5577 26.0717 30.3263 26.0717C29.9406 26.0717 29.5549 26.0717 29.1692 26.0717C29.1692 26.2259 29.1692 26.3031 29.1692 26.4574C29.1692 27.7686 29.1692 29.0799 29.1692 30.3912C29.1692 30.6226 29.2464 30.7769 29.3235 31.0083C32.1004 35.6364 34.8772 38.6447 37.7312 43.2728C38.3483 44.3527 38.194 45.4326 37.3456 46.2039C36.8827 46.5896 36.4199 46.7439 35.88 46.7439C33.7973 46.7439 31.7147 46.7439 29.6321 46.7439C29.2464 46.7439 29.1692 46.7439 28.9378 46.7439Z" fill="#BA5D5E"/>
<path d="M22.4571 0C27.008 0 30.7105 3.70248 30.7105 8.25344C30.7105 12.8044 27.008 16.5069 22.4571 16.5069C17.9061 16.5069 14.2036 12.8044 14.2036 8.25344C14.2807 3.62534 17.9061 0 22.4571 0Z" fill="#BA5D5E"/>
</svg>
