<?xml version="1.0" encoding="utf-8"?>
<!-- Generator: Adobe Illustrator 27.3.1, SVG Export Plug-In . SVG Version: 6.00 Build 0)  -->
<svg version="1.1" id="Layer_1" xmlns="http://www.w3.org/2000/svg" xmlns:xlink="http://www.w3.org/1999/xlink" x="0px" y="0px"
	 viewBox="0 0 100 100" style="enable-background:new 0 0 100 100;" xml:space="preserve">
<style type="text/css">
	.st0{fill:#BA5D5E;}
</style>
<g>
	<g>
		<g>
			<path class="st0" d="M51.1,61.9c0,0.2,0,0.4,0,0.5c0,3.9,0,2.4,0,6.3c0,2.5-1.6,4.5-3.8,5.1c-0.3,0.1-0.7,0.1-1.1,0.1
				c-2.5,0-5.1,0-7.6,0c-2.2,0-4.2-1.7-4.7-3.8c-0.1-0.5-0.1-1-0.1-1.5c0-3.8,0-2.3,0-6.1c0-0.2,0-0.3,0-0.5c-0.2,0-0.4,0-0.5,0
				c-2.7,0-5.4,0-8.2,0c-1.4,0-2.6-1-2.8-2.3c-0.2-0.8,0.1-1.6,0.5-2.3c1.7-2.9,3.5-3.6,5.2-6.5c1.9-3.1,3.8-6.2,5.6-9.4
				c0.1-0.2,0.2-0.5,0.2-0.8c0-1.7,0-3.4,0-5.1c0-0.1,0-0.3,0-0.5c-0.7,0-1.3,0-1.9,0c-0.1,0-0.2,0.2-0.3,0.3c-2.6,4-5.3,8-7.9,11.9
				c-0.7,1.1-1.4,2.2-2.2,3.3c-1.1,1.5-2.6,2-4.4,1.7c-1.8-0.3-2.9-1.5-3.4-3.2c-0.3-1.3,0-2.5,0.7-3.5c1.3-1.9,2.6-3.9,3.9-5.8
				c2.6-3.9,5.2-7.9,7.9-11.8c1.2-1.7,2.7-3.1,4.7-3.9c1.1-0.4,2.2-0.6,3.3-0.6c5.5,0,11,0,16.5,0c3.1,0,5.6,1.2,7.5,3.5
				c0.6,0.8,1.2,1.6,1.8,2.5c3.6,5.3,7.1,10.7,10.7,16.1c0.8,1.2,1.1,2.5,0.7,3.9c-0.6,1.6-1.8,2.7-3.5,2.9
				c-1.8,0.3-3.3-0.4-4.3-1.9c-1.3-1.9-2.5-3.8-3.8-5.7c-2.1-3.1-4.1-6.2-6.2-9.3c-0.2-0.3-0.4-0.4-0.7-0.4c-0.5,0-1,0-1.5,0
				c0,0.2,0,0.3,0,0.5c0,1.7,0,3.4,0,5.1c0,0.3,0.1,0.5,0.2,0.8c3.6,6,7.2,9.9,10.9,15.9c0.8,1.4,0.6,2.8-0.5,3.8
				c-0.6,0.5-1.2,0.7-1.9,0.7c-2.7,0-5.4,0-8.1,0C51.5,61.9,51.4,61.9,51.1,61.9z"/>
			<path class="st0" d="M42.7,1.3c5.9,0,10.7,4.8,10.7,10.7c0,5.9-4.8,10.7-10.7,10.7c-5.9,0-10.7-4.8-10.7-10.7
				C32.1,6,36.8,1.3,42.7,1.3z"/>
		</g>
	</g>
	<g>
		<g>
			<path class="st0" d="M89.9,48.7c-2.1,1.7-4.2,3.4-6.3,5l-0.8,0.6c-1.6,1.2-3.2,2.5-4.8,3.7c-12.5,10-23,22.2-31.2,36
				c-0.4,0.6-0.7,1.1-1,1.5c-1,1.2-2.3,1.9-3.6,1.9c0,0,0,0,0,0c-1.3,0-2.5-0.7-3.5-1.9c-0.7-0.9-1.3-2-1.9-3.1l-0.4-0.6
				c-3.5-6.2-8-13.3-13.8-19.6c-1.7-1.9-1.7-2.5-1.7-2.5c0,0,0.2-0.6,2.4-2.1c2.3-1.5,3.9-1.5,6.2,0.1c3.8,2.7,6.5,6.4,9,10.1
				l3.9,5.7l2.4-2.9c0.9-1.1,1.7-2.1,2.5-3.2c1.8-2.3,3.4-4.4,5.3-6.4c9-10,18.9-16.7,30.3-20.7C84.4,49.6,88,49,89.9,48.7z"/>
		</g>
	</g>
</g>
</svg>
