<?xml version="1.0" encoding="utf-8"?>
<!-- Generator: Adobe Illustrator 27.3.1, SVG Export Plug-In . SVG Version: 6.00 Build 0)  -->
<svg version="1.1" id="Layer_1" xmlns="http://www.w3.org/2000/svg" xmlns:xlink="http://www.w3.org/1999/xlink" x="0px" y="0px"
	 viewBox="0 0 100 100" style="enable-background:new 0 0 100 100;" xml:space="preserve">
<path d="M98.6,52.6c-2.1,4.3-4.1,8.7-6.3,13c-3.4,6.9-6.9,13.7-10.2,20.6c-0.8,1.5-1.8,2.3-3.6,2.2c-23.5,0-47,0-70.6,0
	c-3.3,0-5.7-1.7-6.5-4.6c-0.1-0.5-0.2-1.1-0.2-1.6c0-21.1,0-42.1,0-63.2c0-3.5,2.5-6,6.1-6c7.6,0,15.3,0,22.9,0c2.3,0,4,1,5.3,2.8
	c1.9,2.6,3.7,5.2,5.6,7.8c0.4,0.6,0.8,0.8,1.5,0.8c11.4,0,22.9,0,34.3,0c3,0,5.3,1.7,6.1,4.5c0.2,0.6,0.2,1.3,0.2,2
	c0,3.8,0,7.6,0,11.4c0,0.3,0,0.7,0,1.1c0.4,0,0.8,0,1.1,0.1c2.3,0,4.7-0.1,7,0.1c3.6,0.3,6,2.5,7,6c0,0.1,0.1,0.2,0.2,0.3
	C98.6,50.9,98.6,51.8,98.6,52.6z M8.7,82.8c0.3,0,0.5,0,0.6,0c22.4,0,44.9,0,67.3,0c0.6,0,0.9-0.2,1.1-0.7c1.9-3.9,3.8-7.7,5.7-11.5
	c3-6,6-12,9-18c0.9-1.7,0.1-3.1-1.9-3.2c-0.3,0-0.5,0-0.8,0c-21.1,0-42.2,0-63.2,0c-1.6,0-2.6,0.6-3.2,2c-3.3,7.2-6.7,14.3-10,21.5
	C11.9,76.1,10.3,79.4,8.7,82.8z M7.1,72.4c0.1,0,0.1,0,0.2,0c0.1-0.2,0.3-0.5,0.4-0.7c3.5-7.5,7.1-15,10.5-22.5
	c1.8-3.9,4.6-5.6,8.8-5.6c16.5,0,32.9,0,49.4,0c0.4,0,0.8,0,1.3,0c0-0.4,0-0.7,0-1c0-3.8,0-7.5,0-11.3c0-0.9-0.3-1.1-1.1-1.1
	c-11.4,0-22.8,0-34.2,0c-2.4,0-4.1-0.9-5.5-2.8c-1.8-2.6-3.7-5.2-5.6-7.8c-0.4-0.6-0.9-0.8-1.6-0.8c-7.1,0-14.2,0-21.4,0
	c-1.2,0-1.2,0-1.2,1.2c0,17.1,0,34.2,0,51.4C7.1,71.8,7.1,72.1,7.1,72.4z"/>
</svg>
