<?xml version="1.0" encoding="utf-8"?>
<!-- Generator: Adobe Illustrator 27.3.1, SVG Export Plug-In . SVG Version: 6.00 Build 0)  -->
<svg version="1.1" id="Layer_1" xmlns="http://www.w3.org/2000/svg" xmlns:xlink="http://www.w3.org/1999/xlink" x="0px" y="0px"
	 viewBox="0 0 100 100" style="enable-background:new 0 0 100 100;" xml:space="preserve">
<g>
	<g>
		<g>
			<path d="M50,96.3c-1.7,0-3.5-0.1-5.4-0.3c-2.8-0.3-5.6-0.8-8.3-1.6c-4.3-1.2-7.9-2.7-10.9-4.7c-0.5-0.3-1-0.4-2.1,0
				c-1.9,0.7-3.9,1.3-5.9,2c-0.8,0.3-1.6,0.5-2.4,0.8c-1.2,0.4-2.5,0.8-3.7,1.2C10,94.1,8.7,94.6,7.5,95l0,0c-0.1,0-0.3,0.1-0.4,0.1
				H7l-3,0.6l1.2-3.6c0.3-1,0.6-2,1-2.9c0.6-1.8,1.2-3.7,1.8-5.5l1.5-4.5c0.1-0.3,0.2-0.7,0.3-1c0.3-0.8,0.5-1.6,0.8-2.5
				c0.1-0.3,0.1-0.5-0.1-0.8c-1.6-2.6-2.9-5.4-4-8.4c-0.9-2.7-1.7-5.5-2.1-8.3c-0.5-3.3-0.8-6.3-0.7-9.3c0.1-3.1,0.5-6.3,1.3-9.5
				c1.7-6.8,4.8-13,9.3-18.5c4.2-5.1,9.4-9.2,15.3-12.2c3-1.5,6.1-2.7,9.2-3.5c4.4-1.1,8.8-1.6,13.1-1.4c2.9,0.1,5.8,0.6,8.7,1.3
				c6.8,1.7,13,4.8,18.5,9.3c5.1,4.2,9.2,9.3,12.2,15.2c1.5,3,2.7,6.1,3.5,9.2c1.1,4.4,1.6,8.9,1.4,13.3c-0.2,4-0.9,8-2.1,11.7
				c-1.7,5.3-4.4,10.2-7.8,14.6c-4,5-8.8,9.1-14.3,12.2c-2.5,1.4-5.1,2.5-7.7,3.4c-2.9,0.9-5.9,1.6-8.8,2l0,0
				C53.5,96.2,51.8,96.3,50,96.3z M24.6,86c0.9,0,1.8,0.2,2.7,0.8c2.8,1.8,6.1,3.2,10,4.3c2.5,0.7,5.1,1.2,7.7,1.5
				c3.5,0.4,6.7,0.4,9.7,0c2.8-0.3,5.5-1,8.2-1.8c2.4-0.8,4.8-1.9,7.1-3.1c5.1-2.9,9.6-6.6,13.3-11.3c3.2-4,5.6-8.6,7.2-13.5
				c1.1-3.4,1.8-7,2-10.8c0.2-4-0.2-8.1-1.3-12.2c-0.7-2.9-1.8-5.8-3.2-8.5c-2.8-5.5-6.6-10.2-11.3-14.1c-5.1-4.2-10.8-7.1-17.1-8.6
				c-2.6-0.6-5.4-1-8-1.2c-3.9-0.2-8,0.2-12,1.3c-2.9,0.7-5.8,1.8-8.5,3.2c-5.5,2.8-10.2,6.6-14.1,11.3c-4.2,5.1-7.1,10.8-8.6,17.1
				c-0.7,2.9-1.1,5.9-1.2,8.7c-0.1,2.7,0.1,5.6,0.7,8.6c0.4,2.6,1.1,5.2,2,7.8c1,2.8,2.2,5.4,3.6,7.7c0.7,1.2,0.9,2.5,0.4,3.8
				c-0.3,0.8-0.5,1.6-0.8,2.4c-0.1,0.3-0.2,0.7-0.3,1l-1.5,4.5c-0.6,1.8-1.2,3.7-1.8,5.5c0,0.1-0.1,0.3-0.1,0.4
				c0.3-0.1,0.6-0.2,0.9-0.3c1.2-0.4,2.5-0.8,3.7-1.2c0.8-0.3,1.6-0.5,2.4-0.8c1.9-0.6,3.9-1.3,5.8-1.9C22.9,86.2,23.7,86,24.6,86z"
				/>
		</g>
		<g>
			<path d="M50,96.3c-1.7,0-3.5-0.1-5.4-0.3c-2.8-0.3-5.6-0.8-8.3-1.6c-4.3-1.2-7.9-2.7-10.9-4.7c-0.5-0.3-1-0.4-2.1,0
				c-1.9,0.7-3.9,1.3-5.9,2c-0.8,0.3-1.6,0.5-2.4,0.8c-1.2,0.4-2.5,0.8-3.7,1.2C10,94.1,8.7,94.6,7.5,95l0,0c-0.1,0-0.3,0.1-0.4,0.1
				H7l-3,0.6l1.2-3.6c0.3-1,0.6-2,1-2.9c0.6-1.8,1.2-3.7,1.8-5.5l1.5-4.5c0.1-0.3,0.2-0.7,0.3-1c0.3-0.8,0.5-1.6,0.8-2.5
				c0.1-0.3,0.1-0.5-0.1-0.8c-1.6-2.6-2.9-5.4-4-8.4c-0.9-2.7-1.7-5.5-2.1-8.3c-0.5-3.3-0.8-6.3-0.7-9.3c0.1-3.1,0.5-6.3,1.3-9.5
				c1.7-6.8,4.8-13,9.3-18.5c4.2-5.1,9.4-9.2,15.3-12.2c3-1.5,6.1-2.7,9.2-3.5c4.4-1.1,8.8-1.6,13.1-1.4c2.9,0.1,5.8,0.6,8.7,1.3
				c6.8,1.7,13,4.8,18.5,9.3c5.1,4.2,9.2,9.3,12.2,15.2c1.5,3,2.7,6.1,3.5,9.2c1.1,4.4,1.6,8.9,1.4,13.3l0,0c-0.2,4-0.9,8-2.1,11.7
				c-1.7,5.3-4.4,10.2-7.8,14.6c-4,5-8.8,9.1-14.3,12.2c-2.5,1.4-5.1,2.5-7.7,3.4c-2.9,0.9-5.9,1.6-8.8,2
				C53.5,96.2,51.8,96.3,50,96.3z M24.6,86c0.9,0,1.8,0.2,2.7,0.8c2.8,1.8,6.1,3.2,10,4.3c2.5,0.7,5.1,1.2,7.7,1.5
				c3.5,0.4,6.7,0.4,9.7,0c2.8-0.3,5.5-1,8.2-1.8c2.4-0.8,4.8-1.9,7.1-3.1c5.1-2.9,9.6-6.6,13.3-11.3c3.2-4,5.6-8.6,7.2-13.5
				c1.1-3.4,1.8-7,2-10.8l0,0c0.2-4-0.2-8.1-1.3-12.2c-0.7-2.9-1.8-5.8-3.2-8.5c-2.8-5.5-6.6-10.2-11.3-14.1
				c-5.1-4.2-10.8-7.1-17.1-8.6c-2.6-0.6-5.4-1-8-1.2c-3.9-0.2-8,0.2-12,1.3c-2.9,0.7-5.8,1.8-8.5,3.2c-5.5,2.8-10.2,6.6-14.1,11.3
				c-4.2,5.1-7.1,10.8-8.6,17.1c-0.7,2.9-1.1,5.9-1.2,8.7c-0.1,2.7,0.1,5.6,0.7,8.6c0.4,2.6,1.1,5.2,2,7.8c1,2.8,2.2,5.4,3.6,7.7
				c0.7,1.2,0.9,2.5,0.4,3.8c-0.3,0.8-0.5,1.6-0.8,2.4c-0.1,0.3-0.2,0.7-0.3,1l-1.5,4.5c-0.6,1.8-1.2,3.7-1.8,5.5
				c0,0.1-0.1,0.3-0.1,0.4c0.3-0.1,0.6-0.2,0.9-0.3c1.2-0.4,2.5-0.8,3.7-1.2c0.8-0.3,1.6-0.5,2.4-0.8c1.9-0.6,3.9-1.3,5.8-1.9
				C22.9,86.2,23.7,86,24.6,86z"/>
		</g>
	</g>
	<g>
		<g>
			<path d="M60.9,69L60.9,69c0-0.4-0.2-0.8-0.4-1.1c-0.3-0.3-0.7-0.4-1.1-0.5c-0.5,0-0.9,0-1.3,0c-0.2,0-0.5,0-0.7-0.2
				s-0.2-0.5-0.2-0.7c0-3.1,0-6.2,0-9.3v-6.6c0-2.6,0-5.2,0-7.8c0-1.2-0.6-1.8-1.8-1.8c-5,0-10,0-14.7,0c-1,0-1.7,0.7-1.7,1.7
				c0,2.5,0,4.9,0,7.3c0,0.9,0.6,1.6,1.6,1.6c0.4,0,0.8,0,1.3,0c0.2,0,0.5,0,0.7,0.2s0.2,0.5,0.2,0.7c0,2,0,4,0,6.1v1.9
				c0,0.5,0,1,0,1.5c0,1.5,0,3.1,0,4.6c0,0.2,0,0.4-0.2,0.6s-0.4,0.2-0.6,0.2s-0.4,0-0.6,0s-0.5,0-0.7,0c-1,0-1.7,0.7-1.7,1.7
				c0,2.9,0,5.1,0,7.3c0,0.3,0.1,0.7,0.3,1c0.3,0.5,0.8,0.8,1.6,0.8c4.9,0,9.8,0,13.9,0h4.1c0.2,0,0.3,0,0.5,0
				c0.9-0.1,1.5-0.7,1.6-1.6C60.9,74.1,60.9,71.5,60.9,69z M57.8,71.9c0,0.1,0,0.3,0,0.4c0,0.2,0,0.5,0,0.7v0.1c0,0.4,0,0.7,0,1.1
				c0,0.2,0,0.4-0.2,0.6S57.2,75,57,75c-4.5,0-9.2,0-14.2,0c-0.2,0-0.4,0-0.6-0.2S42,74.4,42,74.2c0-0.9,0-1.9,0-2.9
				c0-0.2,0-0.4,0.2-0.6s0.5-0.2,0.6-0.2c0.4,0,0.8,0,1.3,0c1.1,0,1.7-0.6,1.7-1.7c0-1.6,0-3.2,0-4.8v-0.4c0-0.7,0-1.5,0-2.2v-4.7
				c0-2.1,0-4.2,0-6.2c0-1.4-0.6-2-2-2c-0.1,0-0.2,0-0.3,0l0,0c-0.3,0-0.5,0-0.8,0c-0.2,0-0.4,0-0.6-0.2c-0.1-0.1-0.2-0.3-0.2-0.5
				c0-1,0-2.1,0-3c0-0.1,0-0.3,0.2-0.5s0.4-0.2,0.5-0.2c3.5,0,7,0,10.5,0c0.2,0,0.4,0.1,0.5,0.2c0.2,0.2,0.2,0.4,0.2,0.6l0,0
				c0,3.3,0,6.6,0,9.9v8.5c0,1.7,0,3.4,0,5.2c0,1.4,0.6,2,2,2c0.1,0,0.2,0,0.4,0c0.4,0,0.9-0.1,1.2,0.2C57.9,71,57.8,71.5,57.8,71.9
				z"/>
		</g>
		<g>
			<path d="M49.9,22.2L49.9,22.2c-2,0-3.8,0.8-5.2,2.2c-1.4,1.4-2.1,3.2-2.1,5.1s0.8,3.8,2.2,5.1c1.4,1.3,3.2,2.1,5.1,2
				c1,0,1.9-0.2,2.8-0.6c0.9-0.4,1.6-0.9,2.3-1.6c1.3-1.3,2.1-3.2,2.1-5.1C57.1,25.4,53.8,22.2,49.9,22.2z M49.9,33.5
				c-2.2,0-4.1-1.8-4.1-4.1c0-1.1,0.4-2.1,1.2-2.9c0.4-0.4,0.8-0.7,1.3-0.9c0.5-0.2,1-0.3,1.6-0.3c0.5,0,1.1,0.1,1.6,0.3
				c0.5,0.2,0.9,0.5,1.3,0.9c0.8,0.8,1.2,1.8,1.2,2.9C54,31.6,52.2,33.5,49.9,33.5z"/>
		</g>
	</g>
	<path d="M86.5,51.8c0,2.6-0.3,5.3-0.8,7.9c-0.2,1-1.1,1.7-2.1,1.6c-1-0.1-1.7-1-1.6-2s0.3-2,0.4-2.9c0.1-2.1,0.4-4.2,0.3-6.3
		c-0.1-2-0.5-4.1-0.8-6.1c-0.5-2.4-1.3-4.7-2.4-7c-0.3-0.6-0.5-1.3-0.2-2s0.9-1.1,1.7-1.1c0.8,0,1.4,0.5,1.8,1.2
		c1,2.2,1.9,4.5,2.5,6.9C86.1,45.1,86.5,48.4,86.5,51.8z"/>
	<path d="M79,29.2c0,1-0.9,1.9-1.9,1.9s-1.9-0.9-1.9-1.8c0-1,0.8-1.9,1.9-1.9C78.1,27.3,79,28.2,79,29.2z"/>
</g>
</svg>
