<svg xmlns="http://www.w3.org/2000/svg" width="80" height="85" stroke="#000" stroke-linecap="round" stroke-linejoin="round" fill="#fff" fill-rule="evenodd"><path d="M63.8384 56.5702C73.6433 59.4475 80 64.0475 80 69.2357 80 77.9443 62.0951 85 40 85S0 77.9443 0 69.2357c0-5.3127 6.6754-10.0094 16.8592-12.8661l1.12 1.5632q1.1936 1.6186 2.4698 3.1817c-7.1354 1.7847-11.7115 4.5379-11.7115 7.6091 0 5.3816 13.8472 9.7467 30.9362 9.7467s30.9292-4.3651 30.9292-9.7467c0-2.8775-3.9612-5.4646-10.2653-7.2494 1.2384-1.5841 2.4032-3.2303 3.5008-4.9248zm-10.6953 1.8743c-3.3445 3.4375-7.1984 6.4122-11.4448 8.8334-.5401.376-1.2743.3978-1.8393.0553-6.0592-3.5608-11.4414-8.0374-15.9246-13.2466-5.7997-6.7857-9.4492-14.3116-10.7024-21.5748-1.2686-7.3325-.0816-14.4018 3.8271-20.15 1.5962-2.3401 3.6017-4.4141 5.9338-6.1357C28.533 2.1311 34.8599-.041 41.1422.0006c6.4179.0898 12.5649 2.4311 17.2146 6.5576 1.7907 1.5212 3.3391 3.2727 4.5986 5.2018 4.2133 6.4815 5.1256 14.7408 3.271 23.1105-2.0569 8.78-6.5711 16.8947-13.0833 23.519h0zM39.9408 13.0674c7.4754 0 13.536 5.6518 13.536 12.624s-6.0606 12.624-13.536 12.624-13.536-5.6521-13.536-12.624c-.0024-3.3486 1.4235-6.5608 3.9621-8.9286s5.9835-3.6973 9.5739-3.6954z" stroke="none" fill="#000"/></svg>