<svg width="133" height="167" xmlns="http://www.w3.org/2000/svg" data-name="Layer 1">

 <title>gps</title>
 <g>
  <title>Layer 1</title>
  <path stroke="null" id="svg_1" fill-rule="evenodd" d="m106.81792,106.10816c16.40694,4.32935 27.0429,11.25007 27.0429,19.0554c0,13.10254 -29.95941,23.71778 -66.93087,23.71778s-66.93087,-10.61524 -66.93087,-23.71778c0,-7.99265 11.16962,-15.05907 28.2095,-19.3572c0.62053,0.79094 1.24107,1.58188 1.87401,2.352q1.99812,2.43526 4.13276,4.78726c-11.93909,2.68503 -19.59648,6.82706 -19.59648,11.44781c0,8.09672 23.17076,14.6636 51.765,14.6636s51.75259,-6.56688 51.75259,-14.6636c0,-4.32935 -6.62731,-8.22161 -17.1764,-10.90664c2.07259,-2.38323 4.02106,-4.86011 5.85785,-7.40985l0,0.03122zm-17.89622,2.82032a87.45815,73.33882 0 0 1 -19.1497,13.28986a2.69312,2.25834 0 0 1 -3.07785,0.08326a107.97303,90.54175 0 0 1 -26.64576,-19.92959c-9.70516,-10.20936 -15.81122,-21.53228 -17.90863,-32.45974c-2.12223,-11.03152 -0.13652,-21.66758 6.40392,-30.31588a44.51715,37.33026 0 0 1 9.92855,-9.2311c9.27079,-6.161 19.85711,-9.42883 30.36897,-9.36639a42.7176,35.82123 0 0 1 28.80522,9.86593a42.60591,35.72757 0 0 1 7.69463,7.82614c7.04927,9.75145 8.57579,22.17753 5.47312,34.77011a91.26823,76.5338 0 0 1 -21.89246,35.38413l0,0l0,0.08326zm-22.09103,-68.27056a22.64951,18.99295 0 1 1 -22.64951,18.99295a22.6371,18.98255 0 0 1 22.64951,-18.99295z" class="cls-1"/>
 </g>
</svg>