<svg width="55" height="56" viewBox="0 0 55 56" fill="none" xmlns="http://www.w3.org/2000/svg">
<g id="Group">
<path id="Vector" d="M54.1643 51.2497C54.1527 51.0647 54.1527 50.8798 54.1412 50.6949C54.0025 48.2214 53.4014 45.852 52.4537 43.552C51.1245 40.3273 49.1134 37.692 45.9002 36.1779C42.8373 34.7331 39.6704 33.4733 36.5497 32.1441C36.4919 32.121 36.411 32.1094 36.3301 32.1094C36.1568 32.0979 36.0296 32.1788 35.8562 32.3637C34.6773 33.6582 34.2612 35.3457 33.5677 36.8829C32.7933 38.6167 32.0883 40.3735 31.337 42.1303C31.2792 42.2575 31.2214 42.3846 31.1405 42.5464C29.7767 40.8011 28.4706 39.1137 27.1183 37.3799C27.1068 37.3915 27.0952 37.4146 27.0836 37.4262C27.0721 37.4146 27.0605 37.3915 27.049 37.3799C25.7082 39.1021 24.4022 40.7896 23.0268 42.5464C22.9458 42.373 22.8765 42.2575 22.8303 42.1303C22.0905 40.385 21.3855 38.6167 20.5996 36.8829C19.9061 35.3457 19.49 33.6582 18.311 32.3637C18.1377 32.1788 18.0105 32.0863 17.8372 32.1094C17.7563 32.1094 17.6754 32.1094 17.6176 32.1441C14.4853 33.4733 11.33 34.7331 8.26705 36.1779C5.06546 37.692 3.04279 40.3273 1.71361 43.552C0.765846 45.852 0.164825 48.2214 0.026128 50.6949C0.0145699 50.8798 0.01457 51.0647 0.00301185 51.2497C-0.0316625 51.8507 0.234174 52.2321 0.74273 52.4748C2.80007 53.3301 4.94988 53.8965 7.13436 54.3357C12.1043 55.3412 17.1206 55.7573 22.1483 55.9191C23.6162 55.9654 25.0841 55.9885 26.552 56C26.7253 56 26.8987 56 27.0721 56C27.2455 56 27.4188 56 27.5922 56C29.0601 56 30.528 55.9769 31.9958 55.9191C37.0236 55.7573 42.0514 55.3412 47.0098 54.3357C49.1827 53.8965 51.3325 53.3301 53.4014 52.4748C53.9447 52.2321 54.2105 51.8507 54.1643 51.2497ZM8.38264 40.6162C7.6198 40.9398 6.85697 40.4313 6.84541 39.5182C6.85697 39.1021 7.13436 38.7785 7.58513 38.5704C8.77561 38.0272 9.97765 37.484 11.1681 36.9523C11.1913 36.9639 11.2144 36.9639 11.2259 36.9754C11.4224 36.8829 11.642 36.7905 11.8385 36.698C13.3873 35.993 14.9361 35.2879 16.4733 34.606C16.6698 34.5135 16.8663 34.4789 17.0397 34.4789C17.5482 34.5366 17.9296 34.9412 17.9296 35.5191C17.9296 36.0508 17.6522 36.3859 17.1784 36.6055C15.8029 37.2297 14.4391 37.8769 13.0521 38.5011C11.5149 39.2177 9.95454 39.9227 8.38264 40.6162ZM45.8078 40.6162C44.2359 39.9227 42.6755 39.2177 41.1152 38.5126C39.7282 37.8885 38.3644 37.2412 36.9889 36.6171C36.5151 36.4091 36.2377 36.0623 36.2377 35.5306C36.2377 34.9412 36.6191 34.5482 37.1276 34.4904C37.3126 34.4904 37.4975 34.5251 37.694 34.6176C39.2428 35.2995 40.7916 36.0045 42.3288 36.7096C42.5253 36.802 42.7449 36.8945 42.9414 36.987C42.9645 36.9754 42.9876 36.9754 42.9992 36.9639C44.1896 37.5071 45.3917 38.0503 46.5822 38.582C47.0329 38.7785 47.3103 39.1137 47.3219 39.5297C47.3219 40.4313 46.5706 40.9514 45.8078 40.6162Z" fill="#427AA7"/>
<path id="Vector_2" d="M14.7279 17.3381C14.3581 17.6387 14.3003 18.3784 14.254 18.9332C13.9882 21.9383 15.1209 24.4579 17.028 26.6886C17.3285 27.0354 17.5828 27.4862 17.733 27.9254C18.4843 30.0752 19.6285 31.936 21.3507 33.4386C24.7141 36.3512 28.9675 36.4899 32.5043 33.7853C34.1918 32.4908 35.4169 30.838 36.1798 28.8731C36.5958 27.7867 37.1391 26.8505 37.8557 25.9374C39.5316 23.8222 40.3407 21.4066 40.0402 18.6789C39.9477 17.916 39.7512 17.1879 39.0577 16.7024C38.9537 16.6215 38.919 16.4135 38.919 16.2632C38.8959 15.6853 38.9075 15.1074 38.9075 14.4139C35.0817 15.9512 31.2329 16.8527 27.1875 16.818C23.1422 16.7834 19.2356 15.9743 15.4561 14.4833C15.4098 14.5989 15.3983 14.6335 15.4214 14.6567C15.4214 14.7491 15.4098 14.8185 15.4098 14.9109C15.3867 15.7778 15.5485 16.6215 14.7279 17.3381Z" fill="#427AA7"/>
<path id="Vector_3" d="M13.1331 11.5591C22.5068 6.97053 31.7648 6.97053 41.0691 11.5129C41.4852 10.7616 41.543 10.0219 41.4505 9.24748C41.2656 7.92986 40.6414 6.7856 39.7746 5.80316C36.7117 2.33573 32.805 0.555786 28.2743 0.0703462C25.2692 -0.241723 22.449 0.509554 19.7906 1.82718C17.5946 2.9252 15.6066 4.28905 14.1387 6.30016C13.3181 7.40974 12.7517 8.62334 12.8326 10.0334C12.8442 10.5304 13.0176 11.0043 13.1331 11.5591ZM27.13 0.521112C28.8175 0.509554 30.216 1.86185 30.2276 3.52622C30.2276 5.22526 28.8522 6.62379 27.1762 6.63535C25.4772 6.64691 24.0902 5.25993 24.1249 3.54934C24.1133 1.88497 25.4656 0.53267 27.13 0.521112Z" fill="#427AA7"/>
<path id="Vector_4" d="M13.8033 12.2642C18.1723 14.3447 22.6106 15.5351 27.3379 15.512C31.9264 15.4774 36.2376 14.2753 40.491 12.2642C31.545 7.97615 22.7378 7.96459 13.8033 12.2642Z" fill="#427AA7"/>
</g>
</svg>
