<svg width="54" height="54" viewBox="0 0 54 54" fill="none" xmlns="http://www.w3.org/2000/svg">
<g id="Group">
<path id="Vector" d="M27 42.4719C35.5449 42.4719 42.4719 35.5449 42.4719 27C42.4719 18.4551 35.5449 11.5281 27 11.5281C18.4551 11.5281 11.5281 18.4551 11.5281 27C11.5281 35.5449 18.4551 42.4719 27 42.4719Z" fill="#4284C5"/>
<path id="Vector_2" d="M27 9.48535C17.345 9.48535 9.48535 17.345 9.48535 27C9.48535 36.655 17.345 44.5147 27 44.5147C36.655 44.5147 44.5147 36.655 44.5147 27C44.5147 17.345 36.655 9.48535 27 9.48535ZM37.7576 38.3655L35.3545 34.676L33.743 35.722L36.2733 39.5953C33.9126 41.3341 31.0571 42.4226 27.9613 42.6205V37.8707H26.0388V42.6205C22.9147 42.4226 20.0451 41.3199 17.6702 39.5671L20.1723 35.722L18.5608 34.676L16.1859 38.3231C13.4293 35.6938 11.634 32.0608 11.3655 28.0178H15.4084V25.9681H11.3655C11.5916 22.5189 12.9204 19.3807 15.0267 16.8927L17.8115 20.1581L19.2676 18.9142L16.3555 15.5073C18.9283 13.1325 22.2927 11.6058 26.0105 11.3796V16.1293H27.933V11.3796C31.1419 11.5775 34.0822 12.7367 36.4854 14.5744L33.3896 18.5042L34.9021 19.6916L37.9555 15.8183C40.6273 18.4335 42.3377 21.9958 42.6063 25.9681H38.0969V28.0178H42.6063C42.3377 32.0749 40.5283 35.722 37.7435 38.3514L37.7576 38.3655Z" fill="black"/>
<path id="Vector_3" d="M33.743 51.2718C33.743 51.2718 33.6299 51.2718 33.5733 51.2859C33.5592 51.2859 33.5451 51.3001 33.5309 51.3001C31.4529 51.8514 29.2477 52.1624 27 52.1624C13.1325 52.1624 1.8377 40.8676 1.8377 27C1.8377 18.5183 6.06441 11.012 12.5105 6.46021L12.0157 10.0367C11.945 10.5456 12.3126 11.0262 12.8356 11.0969L13.0477 11.1251C13.5707 11.1958 14.0513 10.8424 14.122 10.3194L14.8429 5.00418L14.9278 4.41047C14.9984 3.87329 14.6733 3.37853 14.1786 3.23717C14.122 3.22303 14.0796 3.20889 14.0231 3.20889L8.31205 2.43141C7.73247 2.34659 7.20943 2.75654 7.12462 3.33612C7.0398 3.90157 7.44975 4.43874 8.02933 4.52356L11.3937 4.99005C4.50943 9.88115 0 17.9246 0 27C0 41.8854 12.1147 54.0001 27 54.0001C29.389 54.0001 31.7215 53.6891 33.9267 53.0953C33.9833 53.0953 34.0398 53.0671 34.0964 53.0388C34.4356 52.8974 34.6618 52.5723 34.6618 52.1906C34.6618 51.6817 34.2519 51.2718 33.743 51.2718Z" fill="black"/>
<path id="Vector_4" d="M46.4796 48.6849L43.2283 48.5435C49.7734 43.6241 54.0001 35.7927 54.0001 27C54.0001 12.1147 41.8854 0 27 0C25.1623 0 23.367 0 21.8262 0.452357C21.7414 0.480629 21.5152 0.579582 21.5152 0.579582C21.3173 0.650263 20.9922 0.862305 20.8932 1.14503C20.8508 1.24398 20.8367 1.34293 20.8367 1.45602C20.8367 1.96492 21.2466 2.37487 21.7414 2.37487C21.8121 2.37487 21.8686 2.37487 21.9252 2.37487C23.5649 2.0356 25.2613 1.85183 27 1.85183C40.8676 1.85183 52.1624 13.1466 52.1624 27.0142C52.1624 35.4393 47.9922 42.9173 41.6027 47.4692L41.7582 43.7938C41.7864 43.2142 41.3341 42.7194 40.7545 42.6912C40.1749 42.6629 39.6801 43.1152 39.6519 43.6948L39.4257 48.8686L39.3974 49.4482C39.3833 49.9713 39.7367 50.4095 40.2032 50.5226H40.2173C40.2173 50.5226 40.3445 50.5508 40.4152 50.5508H40.4294L46.3807 50.8194C46.9037 50.8336 47.3419 50.4378 47.3702 49.9147V49.6885C47.3985 49.1655 47.0027 48.7273 46.4796 48.699V48.6849Z" fill="black"/>
<path id="Vector_5" d="M27.9332 22.2219H25.2615V30.5198H34.351V27.9895H27.9332V22.2219Z" fill="black"/>
</g>
</svg>
