<?xml version="1.0" encoding="utf-8"?>
<!-- Generator: Adobe Illustrator 27.3.1, SVG Export Plug-In . SVG Version: 6.00 Build 0)  -->
<svg version="1.1" id="Layer_1" xmlns="http://www.w3.org/2000/svg" xmlns:xlink="http://www.w3.org/1999/xlink" x="0px" y="0px"
	 viewBox="0 0 400 400" style="enable-background:new 0 0 400 400;" xml:space="preserve">
<style type="text/css">
	.st0{fill:url(#SVGID_1_);}
	.st1{fill:url(#SVGID_00000060710089570341130210000016400825306651160724_);}
	.st2{fill:url(#SVGID_00000165225886864556344250000011337683810334130869_);}
	.st3{fill:url(#SVGID_00000088101703464304543780000010364724644680819630_);}
	.st4{fill:url(#SVGID_00000061433144502128115840000001270529347496479393_);}
	.st5{fill:url(#SVGID_00000154420164489266196090000007395396949552426657_);}
	.st6{fill:url(#SVGID_00000115505067735533175960000007399902483273065090_);}
	.st7{fill:url(#SVGID_00000005234854080560020680000008532712325498672813_);}
	.st8{fill:url(#SVGID_00000046316416024525893490000006363887005651947410_);}
	.st9{fill:url(#SVGID_00000181078951784067964850000011635144927000813701_);}
	.st10{fill:#D60D26;}
	.st11{fill:url(#SVGID_00000039122201889857639820000008996011200523122590_);}
	.st12{fill:url(#SVGID_00000107590694835429993940000012569364238696161707_);}
	.st13{fill:url(#SVGID_00000170976906403288453130000005682114295139984256_);}
	.st14{fill:url(#SVGID_00000103958766303115032430000012907536309971296679_);}
	.st15{fill:url(#SVGID_00000157988221865004983900000003656452195987912343_);}
	.st16{fill:url(#SVGID_00000164477337831339071680000006438614610023860635_);}
	.st17{fill:url(#SVGID_00000002352354748242167820000008991220981745192890_);}
	.st18{fill:url(#SVGID_00000008109477678922311710000017985868953730505355_);}
	.st19{fill:url(#SVGID_00000020369287647663607370000001122460681709721260_);}
	.st20{fill:url(#SVGID_00000008847861674813983670000002922196992915230848_);}
	.st21{fill:url(#SVGID_00000010279772114448785920000009561117213580109207_);}
	.st22{fill:url(#SVGID_00000123414045287632080680000004811906419828459928_);}
	.st23{fill:#595959;}
	.st24{fill:#9E9E9E;}
	.st25{fill:url(#SVGID_00000106867637107519167440000002619015518890786208_);}
	.st26{fill:url(#SVGID_00000071542929768975148400000006214583652301185983_);}
	.st27{fill:url(#SVGID_00000111179152384407356390000017793406877226979247_);}
	.st28{fill:url(#SVGID_00000123403552493537213330000004739701603982887813_);}
	.st29{fill:url(#SVGID_00000173854199065769508540000008028970272498194868_);}
	.st30{fill:url(#SVGID_00000105397987237439833380000000610496182655350439_);}
	.st31{fill:url(#SVGID_00000174562327583923380720000018013169282804731834_);}
	.st32{fill:url(#SVGID_00000052101811657426503240000016259554036142495916_);}
	.st33{fill:url(#SVGID_00000167365179259837724430000007874776543993427339_);}
	.st34{fill:url(#SVGID_00000178185062188499459670000012536739153632972704_);}
	.st35{fill:url(#SVGID_00000018954102206850024560000017176617182214885031_);}
	.st36{fill:url(#SVGID_00000083059533614249044880000013208133097241317298_);}
	.st37{fill:url(#SVGID_00000086652805322746462430000011922393137822556294_);}
</style>
<g>
	<g>
		
			<linearGradient id="SVGID_1_" gradientUnits="userSpaceOnUse" x1="116.721" y1="4175.0415" x2="283.9359" y2="4175.0415" gradientTransform="matrix(1 0 0 -2.0828 0 8897.8252)">
			<stop  offset="0" style="stop-color:#D1D1D1"/>
			<stop  offset="1" style="stop-color:#A8ABAA"/>
		</linearGradient>
		<path class="st0" d="M282.4,75c-1.9-16.3-4.9-24.7-10.2-31.4c-2.2,0.5-4.6,0.1-6.6-1.4L246.3,28c-2-1.5-3.2-3.7-3.6-6.1
			c-0.9-0.3-1.9-0.6-2.8-0.9v17.9h-79.1V21c-1,0.3-1.9,0.6-2.8,0.9c-0.3,2.4-1.5,4.6-3.6,6.1l-19.3,14.1c-2,1.5-4.4,1.9-6.6,1.4
			c-5.3,6.8-8.3,15.2-10.2,31.4c-5,43,3.5,110.6,3.2,127.3c-1.1,88.8-1.8,142.9,4,161.6c1.1,3.6,3.9,6.5,7.8,8.9
			c0.8-0.4,1.8-0.6,3.1-0.6c6.9,0,10.2,4.5,17.8,3.2c5-0.9,6.7,3.3,7.3,6.2c4.5,0.7,9,1.2,13.3,1.6c0.7-1,1.8-1.6,3.1-1.6h44.6
			c1.3,0,2.4,0.6,3.1,1.6c3.2-0.3,6.5-0.7,9.9-1.1c0.5-2.9,2.1-7.6,7.4-6.7c7.6,1.3,11-3.2,17.8-3.2c2.1,0,3.6,0.7,4.6,1.7
			c4.8-2.6,8.3-5.9,9.6-10c5.9-18.7,5.2-72.8,4.1-161.6C278.9,185.6,287.3,118,282.4,75z"/>
		
			<linearGradient id="SVGID_00000144334999202150286740000014266895376383711893_" gradientUnits="userSpaceOnUse" x1="160.8" y1="371.675" x2="239.9" y2="371.675" gradientTransform="matrix(1 0 0 -1 0 399)">
			<stop  offset="0" style="stop-color:#525956"/>
			<stop  offset="1" style="stop-color:#000000"/>
		</linearGradient>
		<path style="fill:url(#SVGID_00000144334999202150286740000014266895376383711893_);" d="M239.9,38.9V21c-22.6-7-56.5-7-79.1,0
			v17.9H239.9z"/>
		
			<radialGradient id="SVGID_00000101822265045372363020000015004222096966053266_" cx="200.3748" cy="6020.0205" r="82.5846" gradientTransform="matrix(1 0 0 -3.8388 0 23307.5625)" gradientUnits="userSpaceOnUse">
			<stop  offset="0.2445" style="stop-color:#FFFFFF"/>
			<stop  offset="1" style="stop-color:#D2D6D5"/>
		</radialGradient>
		<path style="fill:url(#SVGID_00000101822265045372363020000015004222096966053266_);" d="M277.5,77.6c-3.1-27-9.2-31.5-24.4-44.2
			c-20.6-17.2-84.8-17.2-105.4,0c-15.2,12.7-21.4,17.2-24.4,44.2c-4.7,41.4,3.2,106.5,3.1,122.5c-1,85.5-1.7,137.6,3.8,155.6
			c6.4,20.8,70.3,19.6,70.3,19.6s63.9,1.1,70.3-19.6c5.5-18,4.8-70.1,3.8-155.6C274.2,184.1,282.1,119,277.5,77.6z"/>
		
			<linearGradient id="SVGID_00000041985463992518860950000008549450772121922954_" gradientUnits="userSpaceOnUse" x1="142.4" y1="226.35" x2="258.2" y2="226.35" gradientTransform="matrix(1 0 0 -1 0 399)">
			<stop  offset="0" style="stop-color:#000000"/>
			<stop  offset="1" style="stop-color:#1B1C1C"/>
		</linearGradient>
		<path style="fill:url(#SVGID_00000041985463992518860950000008549450772121922954_);" d="M168.9,166.9
			c-13.4,1.9-22.9,5.6-26.5,7.1l1,5.9c0,0,10.4-5.4,26.8-7.8c14.1-2.1,46.1-2.1,60.2,0c16.3,2.4,26.8,7.8,26.8,7.8l1-5.9
			c-3.5-1.5-13.1-5.2-26.5-7.1C217.1,164.9,183.6,164.9,168.9,166.9z"/>
		
			<linearGradient id="SVGID_00000029043873990498677030000002031659441668687749_" gradientUnits="userSpaceOnUse" x1="133.1937" y1="284.45" x2="267.2487" y2="284.45" gradientTransform="matrix(1 0 0 -1 0 399)">
			<stop  offset="0" style="stop-color:#000000"/>
			<stop  offset="1" style="stop-color:#1B1C1C"/>
		</linearGradient>
		<path style="fill:url(#SVGID_00000029043873990498677030000002031659441668687749_);" d="M138.3,122.5c5.2-2.3,14.2-6,28.3-9.1
			c20.3-4.4,47.2-4.4,67.4,0c14.1,3.1,23.1,6.8,28.3,9.1c2.3,1,3.7,1.8,4.4,2.6v-0.2c0,0,1-4.3,0.3-5.4c-0.5-1-2.1-1.9-4.8-3.1
			c-5.2-2.3-14.2-6-28.3-9.1c-20.3-4.4-47.2-4.4-67.4,0c-14.1,3.1-23.1,6.8-28.3,9.1c-2.7,1.2-4.3,2.1-4.8,3.1
			c-0.6,1.1,0.3,5.4,0.3,5.4v0.2C134.6,124.3,136,123.5,138.3,122.5z"/>
		
			<linearGradient id="SVGID_00000111880004406808758520000009248322053960769684_" gradientUnits="userSpaceOnUse" x1="133.8523" y1="256.95" x2="266.821" y2="256.95" gradientTransform="matrix(1 0 0 -1 0 399)">
			<stop  offset="0" style="stop-color:#363B39"/>
			<stop  offset="1" style="stop-color:#1B1C1C"/>
		</linearGradient>
		<path style="fill:url(#SVGID_00000111880004406808758520000009248322053960769684_);" d="M168.9,166.9c14.7-2.1,48.2-2.1,62.9,0
			c13.4,1.9,22.9,5.6,26.5,7.1l8.6-48.9c-0.7-0.8-2.2-1.6-4.4-2.6c-5.2-2.3-14.2-6-28.3-9.1c-20.3-4.4-47.2-4.4-67.4,0
			c-14.1,3.1-23.1,6.8-28.3,9.1c-2.3,1-3.7,1.8-4.4,2.6l8.6,48.9C146,172.5,155.5,168.8,168.9,166.9z"/>
		
			<linearGradient id="SVGID_00000103963848695469974300000004373509610156053393_" gradientUnits="userSpaceOnUse" x1="128.718" y1="209.1" x2="141.818" y2="209.1" gradientTransform="matrix(1 0 0 -1 0 399)">
			<stop  offset="0" style="stop-color:#363B39"/>
			<stop  offset="1" style="stop-color:#1B1C1C"/>
		</linearGradient>
		<path style="fill:url(#SVGID_00000103963848695469974300000004373509610156053393_);" d="M130.6,251.8l11.3,4.6l-1.9-60.9
			l-10.8-72.1c0,0-0.9,18.5,0,45c0.6,16.8,2.3,39.9,2.2,54.7C131.3,237.3,130.9,246.9,130.6,251.8z"/>
		
			<linearGradient id="SVGID_00000084493435252288432160000005739669735213166238_" gradientUnits="userSpaceOnUse" x1="258.8476" y1="209.15" x2="271.9476" y2="209.15" gradientTransform="matrix(1 0 0 -1 0 399)">
			<stop  offset="0" style="stop-color:#363B39"/>
			<stop  offset="1" style="stop-color:#1B1C1C"/>
		</linearGradient>
		<path style="fill:url(#SVGID_00000084493435252288432160000005739669735213166238_);" d="M270.1,251.7l-11.3,4.6l1.9-60.8
			l10.8-72.1c0,0,0.9,18.5,0,45c-0.6,16.8-2.3,39.8-2.2,54.7C269.3,237.2,269.7,247,270.1,251.7z"/>
		
			<linearGradient id="SVGID_00000155125960718756183140000018073673389344240023_" gradientUnits="userSpaceOnUse" x1="129.6513" y1="97.2" x2="143.2034" y2="97.2" gradientTransform="matrix(1 0 0 -1 0 399)">
			<stop  offset="0" style="stop-color:#363B39"/>
			<stop  offset="1" style="stop-color:#1B1C1C"/>
		</linearGradient>
		<path style="fill:url(#SVGID_00000155125960718756183140000018073673389344240023_);" d="M130.2,257.4l11.7,5.9l1.3,50.9
			c0,0-1,6.3-5.4,16.8c-5,11.9-7.6,15.2-7.6,15.2S128.9,276.5,130.2,257.4z"/>
		
			<linearGradient id="SVGID_00000006702951581132369280000003627910086367716278_" gradientUnits="userSpaceOnUse" x1="257.4724" y1="97.25" x2="271.0233" y2="97.25" gradientTransform="matrix(1 0 0 -1 0 399)">
			<stop  offset="0" style="stop-color:#363B39"/>
			<stop  offset="1" style="stop-color:#1B1C1C"/>
		</linearGradient>
		<path style="fill:url(#SVGID_00000006702951581132369280000003627910086367716278_);" d="M270.5,257.4l-11.7,5.9l-1.3,50.9
			c0,0,1,6.3,5.4,16.7c5,11.9,7.6,15.2,7.6,15.2S271.7,276.4,270.5,257.4z"/>
		<path class="st10" d="M154.3,375.4c-7.6,1.3-11-3.2-17.8-3.2c-1.2,0-2.2,0.2-3.1,0.6c7,4.4,17.5,7.1,28.2,8.8
			C161,378.7,159.3,374.5,154.3,375.4z"/>
		<path class="st10" d="M243,375.4c-5.3-0.9-6.9,3.8-7.4,6.7c10.9-1.5,22.1-4,29.8-8.2c-1-1-2.5-1.7-4.6-1.7
			C254,372.2,250.7,376.7,243,375.4z"/>
		
			<linearGradient id="SVGID_00000045590854607187956070000018423975776432179894_" gradientUnits="userSpaceOnUse" x1="148.9428" y1="303.1291" x2="167.5759" y2="361.5678" gradientTransform="matrix(1 0 0 -1 0 399)">
			<stop  offset="0" style="stop-color:#D2DBDA"/>
			<stop  offset="1" style="stop-color:#B5B5B5"/>
		</linearGradient>
		<path style="fill:url(#SVGID_00000045590854607187956070000018423975776432179894_);" d="M146.7,104c0,0,13.1-23.8,14.8-32.7
			c1.4-6.8-0.8-27.6-0.8-27.6s-1.4,19.9-2.8,26.4C156.1,78.8,146.7,104,146.7,104z"/>
		
			<linearGradient id="SVGID_00000125579136279329576330000007868680951397980817_" gradientUnits="userSpaceOnUse" x1="250.2246" y1="299.6615" x2="235.3938" y2="358.5626" gradientTransform="matrix(1 0 0 -1 0 399)">
			<stop  offset="0" style="stop-color:#D2DBDA"/>
			<stop  offset="1" style="stop-color:#B5B5B5"/>
		</linearGradient>
		<path style="fill:url(#SVGID_00000125579136279329576330000007868680951397980817_);" d="M254.1,104c0,0-13-23.8-14.8-32.7
			c-1.4-6.8,0.8-27.6,0.8-27.6s1.4,19.9,2.8,26.4C244.7,78.8,254.1,104,254.1,104z"/>
		
			<linearGradient id="SVGID_00000021095934670836198790000001544177377440986047_" gradientUnits="userSpaceOnUse" x1="200.0951" y1="270.2719" x2="237.3298" y2="243.7958" gradientTransform="matrix(1 0 0 -1 0 399)">
			<stop  offset="0" style="stop-color:#363B39"/>
			<stop  offset="1" style="stop-color:#000000"/>
		</linearGradient>
		<path style="fill:url(#SVGID_00000021095934670836198790000001544177377440986047_);" d="M262.4,122.5c-5.2-2.3-14.2-6-28.3-9.1
			c-4.9-1.1-10.3-1.9-15.8-2.4c-14.2,15.3-31.1,43.1-38,54.9c16.6-1,39.9-0.6,51.6,1c13.4,1.9,22.9,5.6,26.5,7.1l8.6-48.9
			C266.1,124.3,264.6,123.5,262.4,122.5z"/>
		
			<linearGradient id="SVGID_00000150070492880579791780000000515628897838457224_" gradientUnits="userSpaceOnUse" x1="151.3072" y1="217.7691" x2="339.9252" y2="-91.8245" gradientTransform="matrix(1 0 0 -1 0 399)">
			<stop  offset="0" style="stop-color:#FFFFFF"/>
			<stop  offset="0.9958" style="stop-color:#DBDBDB"/>
		</linearGradient>
		<path style="fill:url(#SVGID_00000150070492880579791780000000515628897838457224_);" d="M200.3,172.6c-41.3-0.9-55.2,10-55.2,10
			s0.5,154.1,3.7,164c2.1,6.7,28.2,4.3,44.7,5.5h13.6c16.5-1.2,42.5,1.3,44.7-5.5c3.2-9.9,3.7-164,3.7-164S241.6,171.7,200.3,172.6z
			"/>
		
			<linearGradient id="SVGID_00000037673518855172850320000002845697978507850424_" gradientUnits="userSpaceOnUse" x1="113.3085" y1="401.5197" x2="148.8091" y2="299.294" gradientTransform="matrix(1 0 0 -1 0 399)">
			<stop  offset="0" style="stop-color:#F7F7F7"/>
			<stop  offset="1" style="stop-color:#DBDBDB"/>
		</linearGradient>
		<path style="fill:url(#SVGID_00000037673518855172850320000002845697978507850424_);" d="M154.4,31.2c0,0-24.9,12.6-27.5,40.5
			c-2.7,28.5-2.3,42.9-2.3,42.9S133.1,46.3,154.4,31.2z"/>
		
			<linearGradient id="SVGID_00000082349168730546451860000012066749999127922867_" gradientUnits="userSpaceOnUse" x1="510.21" y1="401.5245" x2="545.7106" y2="299.2987" gradientTransform="matrix(-1 0 0 -1 797.7031 399)">
			<stop  offset="0" style="stop-color:#F7F7F7"/>
			<stop  offset="1" style="stop-color:#DBDBDB"/>
		</linearGradient>
		<path style="fill:url(#SVGID_00000082349168730546451860000012066749999127922867_);" d="M246.4,31.2c0,0,24.9,12.6,27.5,40.5
			c2.7,28.5,2.3,42.9,2.3,42.9S267.7,46.3,246.4,31.2z"/>
		
			<linearGradient id="SVGID_00000152954133255382179780000015932273183457741700_" gradientUnits="userSpaceOnUse" x1="269.6228" y1="269.631" x2="283.9243" y2="241.9408" gradientTransform="matrix(1 0 0 -1 0 399)">
			<stop  offset="0" style="stop-color:#363B39"/>
			<stop  offset="1" style="stop-color:#1B1C1C"/>
		</linearGradient>
		<path style="fill:url(#SVGID_00000152954133255382179780000015932273183457741700_);" d="M271.1,127.1c0,0,6.4,1.3,6.6,6.8
			c0.1,5.5-6.4,16.7-6.6,9.6C270.9,136.5,270.5,129.3,271.1,127.1z"/>
		
			<linearGradient id="SVGID_00000105412264963074678920000005699987094999404702_" gradientUnits="userSpaceOnUse" x1="273.1754" y1="261.7146" x2="294.6998" y2="261.7146" gradientTransform="matrix(1 0 0 -1 0 399)">
			<stop  offset="0" style="stop-color:#FFFFFF"/>
			<stop  offset="1" style="stop-color:#D2D6D5"/>
		</linearGradient>
		<path style="fill:url(#SVGID_00000105412264963074678920000005699987094999404702_);" d="M294.5,139.2c-0.1-3.5-16.8-8-17.3-6.7
			c-3.6,0-4.1,2.7-3.7,4.5c7.9-0.8,15.2,1.4,20.5,5.3C294.5,141.5,295,140.5,294.5,139.2z"/>
		
			<linearGradient id="SVGID_00000043449256714104172290000007558741410456310672_" gradientUnits="userSpaceOnUse" x1="273.0533" y1="258.8971" x2="294.5772" y2="258.8971" gradientTransform="matrix(1 0 0 -1 0 399)">
			<stop  offset="0" style="stop-color:#363B39"/>
			<stop  offset="1" style="stop-color:#1B1C1C"/>
		</linearGradient>
		<path style="fill:url(#SVGID_00000043449256714104172290000007558741410456310672_);" d="M273.1,137c0.2,1.3,0.6,2.3,0.6,2.3
			c7.4-1.1,14.4,0.7,19.8,4.1c0,0,0.4-0.4,0.9-1C288.8,138.4,281.2,136.1,273.1,137z"/>
		
			<linearGradient id="SVGID_00000023982311320045832720000015301855916944317322_" gradientUnits="userSpaceOnUse" x1="600.7253" y1="269.6309" x2="615.0268" y2="241.9409" gradientTransform="matrix(-1 0 0 -1 731.1025 399)">
			<stop  offset="0" style="stop-color:#363B39"/>
			<stop  offset="1" style="stop-color:#1B1C1C"/>
		</linearGradient>
		<path style="fill:url(#SVGID_00000023982311320045832720000015301855916944317322_);" d="M128.9,127.1c0,0-6.4,1.3-6.6,6.8
			c-0.1,5.5,6.4,16.7,6.6,9.6C129.1,136.5,129.5,129.3,128.9,127.1z"/>
		
			<linearGradient id="SVGID_00000152949179480245263630000007636808707125495464_" gradientUnits="userSpaceOnUse" x1="604.2779" y1="261.7146" x2="625.8023" y2="261.7146" gradientTransform="matrix(-1 0 0 -1 731.1025 399)">
			<stop  offset="0" style="stop-color:#FFFFFF"/>
			<stop  offset="1" style="stop-color:#D2D6D5"/>
		</linearGradient>
		<path style="fill:url(#SVGID_00000152949179480245263630000007636808707125495464_);" d="M105.5,139.2c0.1-3.5,16.8-8,17.3-6.7
			c3.6,0,4.1,2.7,3.7,4.5c-7.9-0.8-15.2,1.4-20.5,5.3C105.5,141.5,105,140.5,105.5,139.2z"/>
		
			<linearGradient id="SVGID_00000178174431761708397500000017989094294123501478_" gradientUnits="userSpaceOnUse" x1="604.156" y1="258.8971" x2="625.6796" y2="258.8971" gradientTransform="matrix(-1 0 0 -1 731.1025 399)">
			<stop  offset="0" style="stop-color:#363B39"/>
			<stop  offset="1" style="stop-color:#1B1C1C"/>
		</linearGradient>
		<path style="fill:url(#SVGID_00000178174431761708397500000017989094294123501478_);" d="M126.9,137c-0.2,1.3-0.6,2.3-0.6,2.3
			c-7.4-1.1-14.4,0.7-19.8,4.1c0,0-0.4-0.4-0.9-1C111.2,138.4,118.8,136.1,126.9,137z"/>
		<path class="st23" d="M121.7,199.7c-0.9,0-1.7,0.8-1.7,1.7v14.2c0,0.9,0.8,1.7,1.7,1.7V199.7z"/>
		<path class="st23" d="M120.9,270.8c-0.9,0-1.7,0.8-1.7,1.7v14.2c0,1,0.8,1.7,1.7,1.7V270.8z"/>
		<path class="st23" d="M278.9,199.7c1,0,1.7,0.8,1.7,1.7v14.2c0,0.9-0.8,1.7-1.7,1.7V199.7z"/>
		<path class="st23" d="M279.8,270.8c1,0,1.7,0.8,1.7,1.7v14.2c0,1-0.8,1.7-1.7,1.7V270.8z"/>
		<g>
			<g>
				<path class="st24" d="M163,98.9c2.8-0.2,4.1-1.8,6.9-2c0.2,0,0.4-0.2,0.4-0.4c0-0.2-0.2-0.4-0.4-0.4c-2.8,0.2-4.1,1.8-6.9,2
					c-0.2,0-0.4,0.2-0.4,0.4S162.8,98.9,163,98.9z"/>
				<path class="st24" d="M169.9,97.7c-2.8,0.2-4.1,1.8-6.9,2c-0.2,0-0.4,0.2-0.4,0.4c0,0.2,0.2,0.4,0.4,0.4c2.8-0.2,4.1-1.8,6.9-2
					c0.2,0,0.4-0.2,0.4-0.4S170.1,97.7,169.9,97.7z"/>
				<path class="st24" d="M169.9,99.3c-2.8,0.2-4.1,1.8-6.9,2c-0.2,0-0.4,0.2-0.4,0.4c0,0.2,0.2,0.4,0.4,0.4c2.8-0.2,4.1-1.8,6.9-2
					c0.2,0,0.4-0.2,0.4-0.4C170.3,99.5,170.1,99.3,169.9,99.3z"/>
			</g>
		</g>
		<g>
			<g>
				<path class="st24" d="M237.6,98.9c-2.8-0.2-4.1-1.8-6.9-2c-0.2,0-0.4-0.2-0.4-0.4c0-0.2,0.2-0.4,0.4-0.4c2.8,0.2,4.1,1.8,6.9,2
					c0.2,0,0.4,0.2,0.4,0.4S237.8,98.9,237.6,98.9z"/>
				<path class="st24" d="M230.7,97.7c2.8,0.2,4.1,1.8,6.9,2c0.2,0,0.4,0.2,0.4,0.4c0,0.2-0.2,0.4-0.4,0.4c-2.8-0.2-4.1-1.8-6.9-2
					c-0.2,0-0.4-0.2-0.4-0.4S230.5,97.7,230.7,97.7z"/>
				<path class="st24" d="M230.7,99.3c2.8,0.2,4.1,1.8,6.9,2c0.2,0,0.4,0.2,0.4,0.4c0,0.2-0.2,0.4-0.4,0.4c-2.8-0.2-4.1-1.8-6.9-2
					c-0.2,0-0.4-0.2-0.4-0.4S230.5,99.3,230.7,99.3z"/>
			</g>
		</g>
		
			<linearGradient id="SVGID_00000102523832464919167570000017648520175711283631_" gradientUnits="userSpaceOnUse" x1="174.9" y1="16.0445" x2="225.8" y2="16.0445" gradientTransform="matrix(1 0 0 -1 0 399)">
			<stop  offset="0" style="stop-color:#363B39"/>
			<stop  offset="1" style="stop-color:#000000"/>
		</linearGradient>
		<path style="fill:url(#SVGID_00000102523832464919167570000017648520175711283631_);" d="M222.6,381.6H178c-1.3,0-2.4,0.6-3.1,1.6
			c14,1.3,25.5,1.1,25.5,1.1s11.4,0.2,25.4-1.1C225,382.2,223.9,381.6,222.6,381.6z"/>
		
			<radialGradient id="SVGID_00000040558369792255159090000006831658722738617275_" cx="257.4" cy="363.55" r="14.1629" gradientTransform="matrix(1 0 0 -1 0 399)" gradientUnits="userSpaceOnUse">
			<stop  offset="0" style="stop-color:#FFFFFF"/>
			<stop  offset="1" style="stop-color:#D2D6D5"/>
		</radialGradient>
		<path style="fill:url(#SVGID_00000040558369792255159090000006831658722738617275_);" d="M253,33.5c7.1,5.9,12.2,10,15.9,15.5
			c1-1.3,1.5-5.1,3.2-5.4c-3.9-4.9-9-8.9-15.7-14.5c-3.5-2.9-8.2-5.2-13.7-7.2c0.2,1.5,0.8,4.2,1.8,6.4
			C247.8,29.8,250.7,31.5,253,33.5z"/>
		
			<radialGradient id="SVGID_00000118391946812688172480000004129761816317030801_" cx="579.433" cy="363.55" r="14.1512" gradientTransform="matrix(-1 0 0 -1 722.7969 399)" gradientUnits="userSpaceOnUse">
			<stop  offset="0" style="stop-color:#FFFFFF"/>
			<stop  offset="1" style="stop-color:#D2D6D5"/>
		</radialGradient>
		<path style="fill:url(#SVGID_00000118391946812688172480000004129761816317030801_);" d="M147.7,33.5c-7.1,5.9-12.2,10-15.9,15.5
			c-1-1.3-1.5-5.1-3.2-5.4c3.9-4.9,9-8.9,15.7-14.5c3.5-2.9,8.2-5.2,13.7-7.2c-0.2,1.5-0.8,4.2-1.8,6.4
			C153,29.8,150.1,31.5,147.7,33.5z"/>
		
			<linearGradient id="SVGID_00000151526587252443302260000000646270197529996160_" gradientUnits="userSpaceOnUse" x1="129.6527" y1="113.05" x2="142.4626" y2="113.05" gradientTransform="matrix(1 0 0 -1 0 399)">
			<stop  offset="0" style="stop-color:#363B39"/>
			<stop  offset="1" style="stop-color:#000000"/>
		</linearGradient>
		<path style="fill:url(#SVGID_00000151526587252443302260000000646270197529996160_);" d="M141.9,263.3l-11.7-5.9
			c-0.7,10.4-0.6,36.1-0.4,57.1c5.6-6.5,10-16.8,12.7-29.2L141.9,263.3z"/>
		
			<linearGradient id="SVGID_00000063630817848984853550000014748937899128113328_" gradientUnits="userSpaceOnUse" x1="128.718" y1="224.1" x2="140.2739" y2="224.1" gradientTransform="matrix(1 0 0 -1 0 399)">
			<stop  offset="0" style="stop-color:#363B39"/>
			<stop  offset="1" style="stop-color:#000000"/>
		</linearGradient>
		<path style="fill:url(#SVGID_00000063630817848984853550000014748937899128113328_);" d="M131.3,226.4c3.6-5.1,6.6-11.4,8.9-18.7
			l-0.4-12.2L129,123.4c0,0-0.9,18.5,0,45c0.6,16.8,2.3,39.9,2.2,54.7C131.4,224.3,131.4,225.4,131.3,226.4z"/>
		
			<linearGradient id="SVGID_00000081618850511862600570000008791761423864968590_" gradientUnits="userSpaceOnUse" x1="455.43" y1="113.15" x2="468.2423" y2="113.15" gradientTransform="matrix(-1 0 0 -1 726.7773 399)">
			<stop  offset="0" style="stop-color:#363B39"/>
			<stop  offset="1" style="stop-color:#000000"/>
		</linearGradient>
		<path style="fill:url(#SVGID_00000081618850511862600570000008791761423864968590_);" d="M259.1,263.2l11.7-5.9
			c0.7,10.4,0.6,36,0.4,57.1c-5.6-6.5-10-16.8-12.7-29.2L259.1,263.2z"/>
		
			<linearGradient id="SVGID_00000165945588669168586110000015386077892918249619_" gradientUnits="userSpaceOnUse" x1="454.504" y1="224.05" x2="466.0598" y2="224.05" gradientTransform="matrix(-1 0 0 -1 726.7773 399)">
			<stop  offset="0" style="stop-color:#363B39"/>
			<stop  offset="1" style="stop-color:#000000"/>
		</linearGradient>
		<path style="fill:url(#SVGID_00000165945588669168586110000015386077892918249619_);" d="M269.6,226.4c-3.6-5.1-6.6-11.4-8.9-18.6
			l0.4-12.2l10.8-72.1c0,0,0.9,18.5,0,45c-0.6,16.8-2.3,39.8-2.2,54.7C269.6,224.2,269.6,225.3,269.6,226.4z"/>
		
			<linearGradient id="SVGID_00000050660427833450972450000006148226494639730828_" gradientUnits="userSpaceOnUse" x1="180.2483" y1="332" x2="216.2483" y2="332" gradientTransform="matrix(1 0 0 -1 0 399)">
			<stop  offset="0" style="stop-color:#D2DBDA"/>
			<stop  offset="1" style="stop-color:#B5B5B5"/>
		</linearGradient>
		
			<rect x="180.2" y="66.2" style="fill:url(#SVGID_00000050660427833450972450000006148226494639730828_);" width="36" height="1.6"/>
		
			<linearGradient id="SVGID_00000155130452383210830550000006962294908176412605_" gradientUnits="userSpaceOnUse" x1="180.2483" y1="328.1" x2="216.2483" y2="328.1" gradientTransform="matrix(1 0 0 -1 0 399)">
			<stop  offset="0" style="stop-color:#D2DBDA"/>
			<stop  offset="1" style="stop-color:#B5B5B5"/>
		</linearGradient>
		
			<rect x="180.2" y="70.1" style="fill:url(#SVGID_00000155130452383210830550000006962294908176412605_);" width="36" height="1.6"/>
		
			<linearGradient id="SVGID_00000075849663470529912320000000584232692027189159_" gradientUnits="userSpaceOnUse" x1="180.2483" y1="324.2" x2="216.2483" y2="324.2" gradientTransform="matrix(1 0 0 -1 0 399)">
			<stop  offset="0" style="stop-color:#D2DBDA"/>
			<stop  offset="1" style="stop-color:#B5B5B5"/>
		</linearGradient>
		<rect x="180.2" y="74" style="fill:url(#SVGID_00000075849663470529912320000000584232692027189159_);" width="36" height="1.6"/>
		
			<linearGradient id="SVGID_00000120555231484403607510000007547880639521149838_" gradientUnits="userSpaceOnUse" x1="180.2483" y1="320.2" x2="216.2483" y2="320.2" gradientTransform="matrix(1 0 0 -1 0 399)">
			<stop  offset="0" style="stop-color:#D2DBDA"/>
			<stop  offset="1" style="stop-color:#B5B5B5"/>
		</linearGradient>
		<rect x="180.2" y="78" style="fill:url(#SVGID_00000120555231484403607510000007547880639521149838_);" width="36" height="1.6"/>
		<g>
			
				<linearGradient id="SVGID_00000040564207878927444740000006939635943768341397_" gradientUnits="userSpaceOnUse" x1="143.2778" y1="38.5872" x2="257.016" y2="38.5872" gradientTransform="matrix(1 0 0 -1 0 399)">
				<stop  offset="0" style="stop-color:#363B39"/>
				<stop  offset="1" style="stop-color:#1B1C1C"/>
			</linearGradient>
			<path style="fill:url(#SVGID_00000040564207878927444740000006939635943768341397_);" d="M148.7,343.7
				c-4.8,11.1-5.4,22.1-5.4,22.2c-0.6,2.7,11,5.1,27.7,8.7c12.8,3.3,45.8,3.4,58.5,0.1c16.7-3.5,28-5.8,27.5-9.2
				c0,0-0.3-10.4-5-21.4c-8.6,3.1-25.4,8.4-51.7,8.5C175.8,352.5,157.9,347.1,148.7,343.7z"/>
			
				<linearGradient id="SVGID_00000134964765442069773170000002325436353120817819_" gradientUnits="userSpaceOnUse" x1="182.3802" y1="75.7527" x2="206.8639" y2="38.2084" gradientTransform="matrix(1 0 0 -1 0 399)">
				<stop  offset="0" style="stop-color:#5E5E5E"/>
				<stop  offset="1" style="stop-color:#000000"/>
			</linearGradient>
			<path style="fill:url(#SVGID_00000134964765442069773170000002325436353120817819_);" d="M253,343.8c-8.6,3.2-25.4,8.5-51.7,8.6
				c-5.4,0-10.4-0.2-15.1-0.7c-15,3.6-26.9,16.5-29.7,19.6c4.2,1.4,9.8,2,15.6,3.2c12.8,3.3,45.8,3.2,58.5-0.1
				c16.7-3.6,27.5-9.3,27.4-9.3C258.6,366.8,257.7,354.9,253,343.8z"/>
		</g>
		<g>
		</g>
	</g>
</g>
</svg>
