<?xml version="1.0" encoding="utf-8"?>
<!-- Generator: Adobe Illustrator 27.3.1, SVG Export Plug-In . SVG Version: 6.00 Build 0)  -->
<svg version="1.1" id="Layer_1" xmlns="http://www.w3.org/2000/svg" xmlns:xlink="http://www.w3.org/1999/xlink" x="0px" y="0px"
	 viewBox="0 0 100 100" style="enable-background:new 0 0 100 100;" xml:space="preserve">
<g>
	<path d="M54.3,55.1c-3.6-2.9-7.2-5.8-10.8-8.7c-0.4-0.3-0.5-0.7-0.5-1.2c0-5.9,0-11.8,0-17.7c0-0.4,0-0.8-0.1-1.2
		c-0.3-1.1-1.5-1.9-2.6-1.8c-1.3,0.2-2.3,1.2-2.3,2.5c0,3.4,0,6.7,0,10l0,0c0,3.3,0,6.6,0,9.9c0,0.9,0.4,1.6,1.1,2.2
		c4.1,3.2,8.1,6.5,12.2,9.7c1.2,1,2.8,0.9,3.7-0.2C55.8,57.7,55.6,56.1,54.3,55.1z"/>
	<path d="M95.8,70.8c-1.5-2.7-3.1-5.4-4.6-8l-0.1-0.2c-0.7-1.3-1.5-2.6-2.3-3.9c-0.5-0.9-1.1-1.8-1.6-2.7c-1.2-2.2-2.6-4.5-3.9-6.7
		c-1.2-2.1-3.4-3.5-5.7-4c-1-9.1-5.3-17-12.9-23.7C59.6,17,53.5,14.2,46.6,13c-1.2-0.2-2.3-0.4-3.5-0.5c-1.8-0.1-3.5-0.1-5.3,0
		c-1.3,0.1-2.6,0.4-4,0.6c-7.9,1.4-14.6,5-20.2,10.7c-5.5,5.6-8.9,12.3-10.2,20c-0.2,1.2-0.4,2.4-0.5,3.6v5.3c0.2,1.3,0.4,2.6,0.6,4
		c1.4,7.8,4.9,14.4,10.5,20c5.4,5.4,11.9,8.9,19.4,10.2c9,1.6,17.3,0.4,24.9-3.9c1.5,1,3.3,1.6,5.2,1.6c2.3,0,10.2,0,14.5,0h2.2
		c0.6,0,1.2,0,1.8,0c0.9,0,1.9,0,2.9,0c1.5,0,2.7,0,3.9,0c3.5-0.1,6.2-1.9,7.8-5.1c0.3-0.6,0.5-1.2,0.6-1.8
		C97.1,77.3,97.3,73.5,95.8,70.8z M54.6,77.3c0.1,0.6,0.3,1.2,0.5,1.7c-4.4,2.3-9.5,3.5-14.8,3.5c-18-0.1-32.6-14.8-32.5-32.6
		C8.1,32,22.6,17.5,40.5,17.5c16.4,0,30.1,12.4,32.2,28.2c-1.9,0.7-3.4,2.1-4.5,4c-1.2,2.1-2.5,4.2-3.7,6.4L61.7,61
		c-0.5,0.8-1,1.7-1.4,2.5l-0.2,0.3c-1.4,2.5-3,5.1-4.4,7.7C54.6,73.3,54.3,75.3,54.6,77.3z M93.5,76.4c-0.2,2-2.1,4-4,4.3
		c-0.8,0.1-1.6,0.1-2.5,0.1c-0.2,0-0.3,0-0.5,0c-1.4,0-2.9,0-4.3,0h-1.6c0,0-0.1,0-0.1,0h-2.3h-1c-4.6,0-11.4,0-13.5,0
		c-0.6,0-1.1,0-1.4-0.2c0,0-0.1,0-0.1,0c-1.6-0.4-2.8-1.4-3.4-2.9c-0.1-0.2-0.2-0.4-0.2-0.7c-0.4-1.3-0.2-2.7,0.5-4
		c4.4-7.7,8.5-14.8,12.4-21.5c0.4-0.7,0.9-1.2,1.5-1.7c0.9-0.6,1.9-1,2.9-1c0.7,0,1.4,0.2,2,0.4c1,0.4,1.8,1.2,2.4,2.2
		c2.6,4.6,5.3,9.3,7.8,13.4l0.3,0.6c1.4,2.5,2.9,5,4.3,7.4C93.4,74.1,93.6,75.2,93.5,76.4z"/>
	<path d="M78.4,54.2c-0.2-0.2-0.4-0.4-0.7-0.5c-0.5-0.3-1.2-0.5-1.8-0.5l0,0c-1.7,0-3,1.1-3.5,2.7c0,0.2-0.1,0.3-0.1,0.5
		c0,0.2,0,0.3,0,0.5c0,1.1,0,2.1,0,3.2v2.9c0,1,0,2.1,0,3.1c0,0.9,0.4,1.8,1,2.5c0,0,0.1,0.1,0.1,0.1c0.7,0.7,1.6,1.1,2.6,1.1
		c1,0,1.9-0.4,2.6-1.1s1.1-1.6,1.1-2.6c0-3.3,0-6.3,0-9.2C79.5,55.8,79.1,54.9,78.4,54.2z M76.7,62.7L76.7,62.7c0,1.1,0,2.1,0,3.2
		c0,0.4-0.2,0.6-0.4,0.8c-0.2,0.2-0.5,0.2-0.7,0.1c-0.4-0.2-0.5-0.4-0.5-0.8c0-0.4,0-0.9,0-1.3c0-2.7,0-5.3,0-7.9l0,0
		c0-0.2,0.1-0.4,0.2-0.6c0.2-0.2,0.4-0.2,0.6-0.2c0.2,0,0.4,0.1,0.6,0.2c0.2,0.2,0.2,0.4,0.2,0.6c0,0.9,0,1.9,0,2.8V60
		c0,0.4,0,0.9,0,1.4C76.7,61.9,76.7,62.3,76.7,62.7z"/>
	<path d="M75.9,70.9L75.9,70.9c-2,0-3.6,1.6-3.6,3.6c0,2,1.6,3.6,3.6,3.6c1,0,1.9-0.4,2.5-1.1c0.7-0.7,1.1-1.6,1.1-2.6
		c0-1-0.4-1.9-1.1-2.6C77.7,71.3,76.9,70.9,75.9,70.9z M75.9,75.3L75.9,75.3c-0.5,0-0.8-0.4-0.8-0.8c0-0.4,0.4-0.8,0.8-0.8l0,0
		c0.2,0,0.4,0.1,0.6,0.3c0.2,0.2,0.2,0.4,0.2,0.6C76.7,75,76.3,75.3,75.9,75.3z"/>
</g>
</svg>
