<svg width="39" height="50" viewBox="0 0 39 50" fill="none" xmlns="http://www.w3.org/2000/svg">
<g id="Group">
<path id="Vector" d="M38.317 13.6359C38.317 12.7587 38.0505 12.5019 37.154 12.5019C35.0072 12.5019 32.8604 12.5068 30.7088 12.4971C30.3115 12.4971 29.8947 12.468 29.5119 12.3662C27.3894 11.7896 25.8871 9.83664 25.8241 7.82072C25.829 7.77226 25.8338 7.72865 25.8387 7.68019C25.8338 5.46559 25.829 3.25583 25.8144 1.04123C25.8144 0.304643 25.5334 0.00419331 24.8162 0.00419331C17.5715 0.00419331 10.3219 -0.000652621 3.07723 0.0138852C2.29703 0.0138852 1.60401 0.31918 1.03219 0.866773C0.353757 1.51613 0 2.29148 0 3.24129C0.00484596 17.7549 4.73249e-06 32.2686 0.00485069 46.7822C0.00485069 46.8888 0.0145568 47.0003 0.0194028 47.1069C0.0533244 48.5364 1.64764 50.0048 3.04813 49.9999C13.6365 49.9805 24.225 49.9951 34.8085 49.9951C36.8293 49.9951 38.3073 48.5267 38.3122 46.4963C38.317 35.5396 38.3122 24.5829 38.3122 13.6262L38.317 13.6359ZM6.52755 9.89963C6.61962 9.87056 6.70682 9.84633 6.79889 9.81725C9.31394 9.81725 11.8242 9.81725 14.3392 9.81725C14.3877 9.84148 14.4361 9.87056 14.4846 9.89479C15.1727 10.2243 15.226 10.7961 14.6203 11.3389C14.5718 11.368 14.5233 11.397 14.4749 11.4261C11.8726 11.4261 9.26547 11.4261 6.66319 11.4261C6.61473 11.397 6.56631 11.368 6.51785 11.3437C6.34824 11.0917 6.05744 10.8397 6.05259 10.5829C6.0429 10.36 6.35788 10.1274 6.53234 9.89963H6.52755ZM6.5227 15.1042C6.61477 15.08 6.71167 15.0557 6.80374 15.0267C10.7047 15.0267 14.6009 15.0267 18.5019 15.0267C18.5552 15.0509 18.6036 15.0751 18.6569 15.1042C19.0785 15.172 19.1803 15.4434 19.1706 15.8311C19.1658 16.2091 19.0882 16.4998 18.6569 16.5483C18.6085 16.5774 18.56 16.6113 18.5116 16.6404C14.5621 16.6404 10.6175 16.6404 6.66804 16.6355C6.61473 16.6064 6.5663 16.5822 6.513 16.5531C6.34823 16.2963 6.06229 16.0492 6.05259 15.7875C6.0429 15.5646 6.35309 15.332 6.5227 15.0993V15.1042ZM32.2741 39.5811C32.245 39.6732 32.2208 39.7653 32.1917 39.8573C31.9785 40.0415 31.7604 40.2208 31.5472 40.4049C31.3195 40.434 31.0868 40.497 30.8591 40.497C23.0619 40.497 15.2648 40.497 7.46763 40.497C7.23987 40.497 7.00725 40.4388 6.77949 40.4098C6.56627 40.2692 6.35306 40.1287 6.135 39.993C6.10592 39.8573 6.08167 39.7216 6.05259 39.586C6.05259 33.8629 6.05745 28.1398 6.0623 22.4167C6.08652 22.3247 6.11562 22.2326 6.13985 22.1405C6.26584 22.0097 6.3967 21.8788 6.5227 21.7432C6.75046 21.7044 6.97332 21.6317 7.20108 21.6317C15.1533 21.6268 23.1104 21.6268 31.0626 21.6317C31.2662 21.6317 31.4696 21.7044 31.6732 21.748C31.8476 21.9224 32.0221 22.0921 32.1966 22.2665C32.2208 22.3198 32.245 22.3683 32.2644 22.4216C32.2741 24.8252 32.2886 27.2336 32.2886 29.6372C32.2886 32.9518 32.279 36.2713 32.2741 39.586V39.5811Z" fill="#282828"/>
<path id="Vector_2" d="M30.6857 10.8301C31.2672 10.7914 31.8584 10.8253 32.4448 10.8253C34.073 10.8253 35.7012 10.8544 37.3246 10.801C37.6396 10.7914 38.0127 10.5297 38.2163 10.268C38.3229 10.1275 38.2163 9.6574 38.0515 9.49264C35.0179 6.42031 31.965 3.36735 28.9072 0.319247C28.4468 -0.136273 28.1367 -0.097505 27.6181 0.391937C27.5891 0.479164 27.56 0.571237 27.531 0.658464C27.5164 2.97968 27.5503 5.30089 27.4777 7.61726C27.4292 9.16312 28.9993 10.9464 30.6808 10.8301H30.6857Z" fill="#282828"/>
<path id="Vector_3" d="M8.22369 33.0485C8.26731 33.0485 8.30602 33.0485 8.34963 33.0485C8.58709 33.0631 8.82458 33.0873 9.05718 33.0873C12.6238 33.0873 16.1904 33.0873 19.7619 33.0873C20.8619 33.0873 21.9668 33.0679 23.0669 33.0534C23.1153 33.0195 23.1589 32.9904 23.2073 32.9565C23.7016 32.8838 23.7114 32.5058 23.7162 32.1375C23.721 31.4445 23.721 30.7516 23.7162 30.0586C23.7114 29.3026 23.44 29.0361 22.6646 29.0312C18.0076 29.0312 13.3556 29.0312 8.69859 29.0312C7.962 29.0312 7.58399 29.4238 7.57914 30.1797C7.5743 30.7661 7.58884 31.3476 7.57914 31.934C7.56945 32.4477 7.75843 32.8305 8.22849 33.0534L8.22369 33.0485Z" fill="#282828"/>
<path id="Vector_4" d="M8.81462 27.3449C11.1116 27.3449 13.4134 27.3449 15.7104 27.3449C18.0316 27.3449 20.3528 27.3449 22.6692 27.3449C23.4106 27.3449 23.7111 27.0396 23.7159 26.303C23.7159 25.673 23.7159 25.043 23.7159 24.4179C23.7159 23.6862 23.367 23.3227 22.6159 23.3227C17.9541 23.3227 13.2923 23.3227 8.63047 23.3179C8.16041 23.3179 7.78728 23.4923 7.72428 23.943C7.61767 24.6602 7.59826 25.3871 7.57888 26.114C7.55949 27.0056 7.91327 27.3449 8.80977 27.3449H8.81462Z" fill="#282828"/>
<path id="Vector_5" d="M22.7039 34.7646C17.9984 34.7646 13.2978 34.7646 8.59239 34.7646C8.00603 34.7646 7.59899 35.162 7.58446 35.7532C7.56507 36.4025 7.52632 37.0616 7.59901 37.7013C7.64262 38.0792 7.6814 38.5687 8.2193 38.6801C8.31138 38.7044 8.40342 38.7334 8.4955 38.7577C13.3075 38.7577 18.1196 38.7577 22.9316 38.7577L23.0818 38.6801C23.5616 38.5735 23.707 38.2149 23.7167 37.7788C23.7264 37.1052 23.7264 36.4365 23.7167 35.7629C23.707 35.0263 23.4453 34.7598 22.7039 34.7598V34.7646Z" fill="#282828"/>
<path id="Vector_6" d="M29.6973 29.0316C28.5246 29.0171 27.3567 29.0268 26.184 29.0316C25.6945 29.0316 25.4232 29.3127 25.4135 29.7924C25.3989 30.6356 25.4038 31.4837 25.4135 32.3317C25.4135 32.826 25.6945 33.0731 26.1743 33.0828C26.7606 33.0925 27.347 33.0828 27.9285 33.0828C28.4906 33.0828 29.0576 33.0925 29.6197 33.0828C30.2255 33.0731 30.6035 32.6951 30.6083 32.0846C30.6132 31.3916 30.618 30.6986 30.6083 30.0008C30.5986 29.3417 30.3321 29.0364 29.6924 29.0316H29.6973Z" fill="#282828"/>
<path id="Vector_7" d="M29.6868 34.7693C28.519 34.7596 27.3463 34.7644 26.1784 34.7693C25.6986 34.7693 25.4176 35.0164 25.4127 35.5155C25.4079 36.3151 25.3691 37.1196 25.4321 37.9191C25.4515 38.1857 25.7519 38.428 25.9215 38.68C26.0136 38.7042 26.1057 38.7333 26.1978 38.7575C27.4093 38.7575 28.6159 38.7575 29.8274 38.7575C29.8759 38.7333 29.9291 38.7042 29.9776 38.68C30.4525 38.5685 30.6076 38.2196 30.6124 37.7786C30.6173 37.0856 30.6221 36.3927 30.6124 35.6997C30.6027 35.1715 30.2151 34.7693 29.6868 34.7644V34.7693Z" fill="#282828"/>
<path id="Vector_8" d="M30.6132 24.3941C30.6083 23.706 30.2401 23.328 29.5471 23.3232C28.4616 23.3135 27.3809 23.3232 26.2954 23.3232C25.7284 23.3232 25.4183 23.6139 25.4135 24.1809C25.4038 24.9611 25.3989 25.7413 25.4135 26.5215C25.4232 27.0545 25.7188 27.3453 26.2615 27.3453C27.4536 27.3453 28.6457 27.3308 29.8378 27.3211C29.8863 27.2871 29.9299 27.2581 29.9783 27.2241C30.4096 27.1224 30.6229 26.8607 30.618 26.41C30.6083 25.7364 30.618 25.0677 30.6132 24.3941Z" fill="#282828"/>
</g>
</svg>
