<?xml version="1.0" encoding="utf-8"?>
<!-- Generator: Adobe Illustrator 27.3.1, SVG Export Plug-In . SVG Version: 6.00 Build 0)  -->
<svg version="1.1" id="Layer_1" xmlns="http://www.w3.org/2000/svg" xmlns:xlink="http://www.w3.org/1999/xlink" x="0px" y="0px"
	 viewBox="0 0 400 400" style="enable-background:new 0 0 400 400;" xml:space="preserve">
<style type="text/css">
	.st0{fill:#EE2724;}
</style>
<g>
	<path class="st0" d="M285.8,170c-6.9-0.2-13.9,0-21.3,0c0-15.1,0-28.8,0-42.4c-0.1-37.5-28-66.3-64.4-66.5
		c-36.8-0.2-64.9,28.5-65.1,66.6c-0.1,13.6,0,27.3,0,42.4c-6.9,0-12.8-0.3-18.6,0.1c-13.1,0.8-14.3,2.1-14.4,15.3
		c-0.1,15.3,0.1,30.7-0.1,46c-0.6,54.6,30.7,92.7,84.2,102.2c1.6,0.3,3.1,1,4.5,1.4c0,11.4,0,22.4,0,34.1c-9,0-17.5,0.1-26,0
		c-6.4-0.1-10.9,2.1-10.8,9c0.1,6.5,4.5,8.3,10.5,8.3c23-0.1,46.1-0.1,69.1,0c6,0,10.3-1.9,10.4-8.4c0.1-6.9-4.4-9.1-10.8-8.9
		c-8.1,0.2-16.2,0-24.3,0c0-12.4,0-23.3,0-34.7c3.2-0.5,5.9-1,8.7-1.5c44.3-7.2,78.7-46.2,79.5-90.5c0.4-20.2,0.3-40.4,0.4-60.5
		C297.5,172.8,295,170.3,285.8,170z M152.3,124.2c0.6-23.9,19.2-43.5,42.4-45.8c23.9-2.3,45.3,12.5,50.6,36.1
		c-9.8,0-18.8,0.1-27.9,0c-5.8,0-10.5,1.7-10.7,8.2c-0.2,7,4.6,9,10.8,8.9c9.6-0.1,19.2,0,29.3,0c0.2,3.5,0.4,6.2,0.7,10.5
		c-10.2,0-20.1-0.5-29.8,0.2c-3.6,0.3-8.4,2.5-10.3,5.4c-3.5,5.3,1.4,11.2,8.9,11.4c9.9,0.2,19.8,0.1,30.6,0.1
		c0.2,3.5,0.3,6.4,0.5,10.7c-9.9,0-19.1,0-28.4,0c-6.1,0-12.2,0.6-12.3,8.3c-0.1,7.7,5.6,9.7,12.3,9.5c7.4-0.2,14.7-0.5,22.1-0.6
		c5.6-0.1,6.5,3.6,5.7,8c-0.7,4.1,3,10.9-5.2,11c-29.4,0.2-58.8,0.1-89.6,0.1c0-8.3,0-15.3,0-22.3
		C152.2,164,151.8,144.1,152.3,124.2z M278.2,253.2c-5.4,39.1-43.5,66.9-84,64c-41.4-3-73.7-35.7-74.5-75.9
		c-0.4-17.5-0.1-35.1-0.1-53.1c5.5,0,9.6,0,15.2,0c0,13.1,0.5,26-0.1,38.9c-1.7,34.7,16.5,62.8,47,71.6
		c43.9,12.8,85.4-21.8,83.3-69.1c-0.6-13.5-0.1-27.1-0.1-41.6c5.4,0,9.6,0,13.7,0c0.5,0.5,1.1,1,1.1,1.4
		C279.4,210.8,281.1,232.3,278.2,253.2z"/>
	<path class="st0" d="M389.5,205.7c-0.4-6.7-3.1-13.9-6.6-19.7c-7.8-12.8-20.7-16.9-35-16.9c4.2-97.4-80.2-157-150.5-155.5
		C121,15.4,47.4,81.1,52.2,169.3c-1.8,0.2-2.9,0.4-4,0.5c-24.2,2-38.2,17-38.2,41.2c0,13.9,0.1,27.8,0.4,41.7
		c0.6,20.1,15.8,35.3,35.9,36.1c4.3,0.2,8.5-0.2,12.8,0.1c8.2,0.7,11.1-2.9,11-11c-0.2-31-0.1-62,0-93c0.1-13.3-0.8-26.9,1.1-40
		C80.9,76.2,141,26.7,208.4,31.3c69,4.7,121.3,61.4,121.5,131.9c0.1,34.1-0.1,68.2,0,102.3c0.1,25.4-3.6,23.8,25.1,22.8
		c18.7-0.6,33.7-16.2,34.3-34.9C389.9,237.5,390.4,221.6,389.5,205.7z"/>
</g>
</svg>
