<svg width="54" height="61" viewBox="0 0 54 61" fill="none" xmlns="http://www.w3.org/2000/svg">
<path d="M47.4207 15.9771C43.2621 11.2391 37.5517 8.08053 31.3293 7.08388V2.83662H35.7207V0H18.2793V2.83662H21.8172V7.22188C9.15517 9.67517 0 20.6537 0 33.3954C0 48.0999 12.1034 60.075 27 60.075C41.8966 60.075 54 48.1152 54 33.3954C54 27.0016 51.6724 20.8223 47.4207 15.9924V15.9771ZM29.0017 6.80789C27.5431 6.70056 25.9603 6.68522 24.1293 6.86922V2.83662H29.0017V6.80789ZM25.7121 9.38384V28.7495C23.5862 29.3168 22.1276 31.2028 22.1276 33.3954C22.1276 36.0481 24.3155 38.2254 27.0155 38.2254C27.7138 38.2254 28.4121 38.072 29.0793 37.75L42.0052 52.3318C37.6759 55.6897 32.4931 57.4684 27.0155 57.4684C13.5776 57.4684 2.65345 46.6739 2.65345 33.3954C2.65345 20.117 12.7707 10.0738 25.7121 9.39918V9.38384ZM31.8879 33.3801C31.8879 31.2028 30.4138 29.3168 28.3034 28.7342V9.38384C41.2603 10.0585 51.3621 20.5617 51.3621 33.3801C51.3621 39.9273 48.7241 46.0452 43.9448 50.6298L31.05 36.0634C31.6086 35.2507 31.8879 34.3308 31.8879 33.3648V33.3801Z" fill="black"/>
</svg>
