<svg width="51" height="50" viewBox="0 0 51 50" fill="none" xmlns="http://www.w3.org/2000/svg">
<g id="Group">
<path id="Vector" d="M0.0330803 16.8168C0.0330803 25.6927 0.0707462 34.5732 0.000116128 43.4491C-0.0140099 45.1395 1.26205 46.4767 3.03721 46.4626C11.9131 46.3873 20.7889 46.4297 29.6647 46.4297H30.3334C26.4299 39.5691 29.7636 33.2878 33.6012 30.6697C36.271 28.8475 39.2281 28.3484 42.4017 28.9181C45.6177 29.4973 48.0521 31.2536 49.9968 33.9799V16.1152H0.0330803V16.8168ZM12.3604 41.575C12.2662 42.3472 11.5128 42.8322 10.7171 42.8511C10.1002 42.8652 9.47867 42.8511 8.86184 42.8511C8.26855 42.8511 7.67524 42.8558 7.08195 42.8511C6.11196 42.8322 5.41036 42.1259 5.39623 41.1465C5.38211 40.2566 5.38682 39.3667 5.39623 38.4767C5.40094 37.4408 5.73998 36.8146 6.73351 36.7204C8.16495 36.5791 9.61993 36.645 11.0608 36.7204C11.8848 36.7628 12.4122 37.3843 12.464 38.1471C12.544 39.2866 12.5016 40.4496 12.3651 41.5844L12.3604 41.575ZM37.5282 22.3919C37.5329 21.3701 37.8861 20.7344 38.8749 20.6356C40.2875 20.4943 41.7284 20.5226 43.1457 20.612C43.9509 20.6638 44.5536 21.2665 44.6054 22.0811C44.6713 23.2206 44.6383 24.3837 44.4971 25.5185C44.4029 26.2813 43.6307 26.7662 42.8396 26.7804C42.2228 26.7945 41.6012 26.7804 40.9844 26.7804C40.4146 26.7804 39.8449 26.7851 39.2798 26.7804C38.2439 26.7662 37.547 26.0882 37.5329 25.057C37.5188 24.1671 37.5235 23.2771 37.5329 22.3872L37.5282 22.3919ZM26.816 22.3919C26.8207 21.3701 27.1739 20.7344 28.1627 20.6356C29.5753 20.4943 31.0161 20.5226 32.4334 20.612C33.2386 20.6638 33.8413 21.2665 33.8931 22.0811C33.959 23.2206 33.9261 24.3837 33.7848 25.5185C33.6907 26.2813 32.9184 26.7662 32.1274 26.7804C31.5105 26.7945 30.889 26.7804 30.2722 26.7804C29.7024 26.7804 29.1327 26.7851 28.5676 26.7804C27.5317 26.7662 26.8348 26.0882 26.8207 25.057C26.8066 24.1671 26.8113 23.2771 26.8207 22.3872L26.816 22.3919ZM26.816 30.3401C26.8254 29.3042 27.4705 28.612 28.5253 28.5791C29.6648 28.5414 30.8043 28.565 31.939 28.5697C32.5276 28.5697 32.909 28.9134 33.0314 29.4502C33.1256 29.8504 32.457 30.3495 31.9061 30.3495C30.8231 30.3495 29.7401 30.3495 28.5959 30.3495C28.5959 31.0041 28.5959 31.5455 28.5959 32.0918C28.5959 32.5909 28.4829 33.1135 29.1421 33.3819C29.2975 33.4431 29.4481 33.9376 29.3587 34.0835C29.1797 34.3802 28.8596 34.7286 28.5535 34.7804C27.6824 34.9358 26.8395 34.1024 26.8207 33.1559C26.8019 32.2142 26.8066 31.2724 26.816 30.3354V30.3401ZM16.1038 22.3495C16.1132 21.3842 16.424 20.7957 17.3704 20.6968C18.8207 20.5461 20.2992 20.5838 21.7636 20.645C22.5876 20.6779 23.115 21.3136 23.1715 22.0717C23.2515 23.1877 23.2233 24.3319 23.0726 25.4431C22.9502 26.3236 22.2297 26.771 21.3304 26.7804C20.7371 26.7898 20.1391 26.7804 19.5458 26.7804C18.9996 26.7804 18.4534 26.7804 17.9072 26.7804C16.7959 26.771 16.1085 26.0788 16.0991 24.9487C16.0944 24.0823 16.0944 23.2112 16.0991 22.3448L16.1038 22.3495ZM16.1038 30.4013C16.1085 29.4172 16.4381 28.8098 17.4128 28.7062C18.8395 28.5555 20.2992 28.5885 21.74 28.6591C22.5735 28.7015 23.1338 29.3419 23.1856 30.1377C23.2562 31.2772 23.2092 32.4402 23.0726 33.575C22.9879 34.2907 22.2109 34.7898 21.4669 34.8134C20.8501 34.8322 20.2286 34.8134 19.6117 34.8134C19.0184 34.8134 18.4251 34.8181 17.8319 34.8134C16.8101 34.7992 16.1179 34.1024 16.1085 33.0665C16.099 32.1765 16.099 31.2866 16.1085 30.3966L16.1038 30.4013ZM16.1038 38.439C16.1085 37.4502 16.4428 36.8381 17.4175 36.7392C18.8489 36.5932 20.3086 36.6356 21.7542 36.7063C22.5641 36.7439 23.1197 37.3561 23.1668 38.1283C23.2421 39.2725 23.2092 40.4355 23.0726 41.5703C22.9784 42.3472 22.225 42.8322 21.4246 42.8511C20.803 42.8652 20.1862 42.8511 19.5646 42.8511C18.9713 42.8511 18.3734 42.8558 17.7801 42.8464C16.8666 42.8275 16.1273 42.1024 16.1085 41.1889C16.0896 40.2707 16.0991 39.3525 16.1038 38.4343V38.439ZM5.39155 22.3778C5.39626 21.3701 5.70701 20.7815 6.69583 20.6826C8.1414 20.5367 9.6152 20.6073 11.0749 20.6638C11.9225 20.6968 12.4122 21.3513 12.464 22.1C12.544 23.2395 12.4922 24.4025 12.3557 25.5373C12.2662 26.2624 11.5034 26.7615 10.7594 26.7851C10.119 26.8039 9.47396 26.7851 8.82887 26.7851C8.25913 26.7851 7.68938 26.7898 7.12434 26.7851C6.09785 26.771 5.40568 26.0788 5.39155 25.0476C5.38213 24.1576 5.38213 23.2677 5.39155 22.3778ZM5.39155 30.4061C5.39626 29.4172 5.72585 28.8145 6.70055 28.7109C8.12727 28.5555 9.58696 28.5885 11.0278 28.6591C11.8613 28.7015 12.4216 29.3419 12.4734 30.1377C12.5487 31.2772 12.4969 32.4402 12.3604 33.575C12.2709 34.2954 11.5034 34.7945 10.7594 34.8181C10.1426 34.8369 9.52104 34.8181 8.9042 34.8181C8.31091 34.8181 7.71763 34.8228 7.12434 34.8181C6.09785 34.804 5.41036 34.1118 5.39623 33.0759C5.38682 32.1859 5.38682 31.296 5.39623 30.4061H5.39155Z" fill="#282828"/>
<path id="Vector_2" d="M49.9976 7.96945C49.9505 6.86762 49.3996 5.714 48.0341 5.5539C46.3484 5.35143 44.6203 5.50681 42.9393 5.50681C42.8781 6.28374 42.9017 7.1266 42.7274 7.93178C42.3602 9.67399 40.811 10.6864 39.276 10.7099C37.5903 10.7381 36.2436 9.70695 35.8904 8.03066C35.7115 7.17839 35.7351 6.28845 35.6644 5.3891H28.6626C28.592 6.22253 28.5732 7.02772 28.4507 7.81877C28.1776 9.55627 26.6238 10.6393 25.1076 10.7099C23.3418 10.7899 21.9904 9.77758 21.6043 7.9977C21.4207 7.15485 21.4489 6.2602 21.383 5.40322H14.3765C14.3059 6.25078 14.3059 7.06538 14.1646 7.85173C13.8303 9.74933 12.0128 10.903 10.2706 10.6958C8.48127 10.4839 7.19579 9.11837 7.17225 7.18781C7.16283 6.58039 7.17225 5.97297 7.17225 5.36084C5.57601 5.36084 4.08806 5.32788 2.60012 5.37026C1.14514 5.41264 0.0809915 6.47209 0.0527394 7.66809C0.000944035 9.8435 0.0386284 12.0236 0.0386284 14.2508H50.0164C50.0164 12.1319 50.0777 10.0507 49.9929 7.97416L49.9976 7.96945Z" fill="#282828"/>
<path id="Vector_3" d="M40.2546 30.3779C34.995 30.2461 29.9237 34.5828 30.3758 41.0572C30.6818 45.4598 34.7078 50.0837 40.0003 49.999C45.5236 50.0837 50.0062 45.6623 49.9827 40.2143C49.9591 34.6251 45.7825 30.5192 40.2546 30.3779ZM46.4088 37.9024C44.0356 40.2944 41.6719 42.6911 39.2516 45.0407C38.5453 45.7282 38.2345 45.7941 37.4953 45.0031C36.4311 43.8636 35.2963 42.79 34.1945 41.6834C33.5588 41.0431 33.5118 40.6758 33.9967 40.2096C34.3593 39.8659 34.9809 39.9554 35.4894 40.4639C36.45 41.4245 37.3917 42.4039 38.3852 43.4209C40.6972 41.1043 42.915 38.9053 45.1045 36.6828C45.5612 36.2214 46.0274 36.146 46.5265 36.4851C46.9268 36.7535 46.8703 37.4409 46.4088 37.9024Z" fill="#282828"/>
<path id="Vector_4" d="M10.5275 8.92982C11.5729 8.98162 12.4769 8.24236 12.5099 7.14994C12.5664 5.37007 12.5617 3.58077 12.5099 1.8009C12.4817 0.746153 11.5823 -0.0401958 10.6029 0.00689093C9.55754 0.0539776 8.95954 0.741444 8.95483 1.89507C8.95483 2.73792 8.95483 3.58077 8.95483 4.42362C8.95483 5.26648 8.99723 6.16112 8.94544 7.02281C8.87481 8.17643 9.7459 8.89215 10.5275 8.92982Z" fill="#282828"/>
<path id="Vector_5" d="M24.8194 8.92966C25.8647 8.97675 26.7641 8.23748 26.797 7.14036C26.8535 5.36049 26.8488 3.57119 26.797 1.79131C26.7688 0.736572 25.8647 -0.0450673 24.8853 0.00201946C23.84 0.0538149 23.2467 0.74128 23.242 1.8949C23.242 2.73776 23.242 3.58061 23.242 4.42346C23.242 5.26631 23.2843 6.16096 23.2325 7.02265C23.1619 8.16215 24.033 8.89199 24.8194 8.92495V8.92966Z" fill="#282828"/>
<path id="Vector_6" d="M39.0998 8.92935C40.1451 8.97643 41.0445 8.23717 41.0822 7.14476C41.1387 5.36488 41.134 3.57559 41.0822 1.79571C41.0539 0.740967 40.1499 -0.0406727 39.1704 0.00641399C38.1251 0.0582094 37.5271 0.745676 37.5271 1.8993C37.5271 2.74215 37.5271 3.58501 37.5271 4.42786C37.5271 5.29425 37.5695 6.16536 37.5177 7.02704C37.4471 8.17125 38.3182 8.89639 39.1045 8.93406L39.0998 8.92935Z" fill="#282828"/>
<path id="Vector_7" d="M10.6977 22.3682H7.22266V24.9768H10.6977V22.3682Z" fill="#282828"/>
<path id="Vector_8" d="M32.1297 22.3633H28.6406V24.9813H32.1297V22.3633Z" fill="#282828"/>
<path id="Vector_9" d="M42.8517 22.354H39.3438V24.972H42.8517V22.354Z" fill="#282828"/>
<path id="Vector_10" d="M7.21875 41.0521H10.7031V38.4341H7.21875V41.0521Z" fill="#282828"/>
<path id="Vector_11" d="M10.7216 30.3965H7.20898V33.0004H10.7216V30.3965Z" fill="#282828"/>
<path id="Vector_12" d="M21.4133 30.3779H17.9336V32.9912H21.4133V30.3779Z" fill="#282828"/>
<path id="Vector_13" d="M21.4067 22.373H17.9082V24.9534H21.4067V22.373Z" fill="#282828"/>
<path id="Vector_14" d="M21.4384 38.4341H17.9258V41.0286H21.4384V38.4341Z" fill="#282828"/>
</g>
</svg>
