<svg width="40" height="40" viewBox="0 0 40 40" fill="none" xmlns="http://www.w3.org/2000/svg">
<g id="Group">
<path id="Vector" d="M0.0264447 13.4437C0.0264447 20.5391 0.0565553 27.6383 9.28339e-05 34.7338C-0.0111997 36.0851 1.00889 37.1541 2.42798 37.1428C9.52343 37.0826 16.6189 37.1165 23.7143 37.1165H24.2488C21.1283 31.6321 23.7934 26.6107 26.8611 24.5178C28.9954 23.0611 31.3593 22.6621 33.8964 23.1176C36.4673 23.5806 38.4134 24.9846 39.968 27.164V12.8828H0.0264447V13.4437ZM9.88102 33.2356C9.80573 33.853 9.20347 34.2407 8.56733 34.2557C8.07422 34.267 7.57735 34.2557 7.08425 34.2557C6.60996 34.2557 6.13567 34.2595 5.66138 34.2557C4.88597 34.2407 4.3251 33.676 4.31381 32.8931C4.30252 32.1817 4.30628 31.4702 4.31381 30.7588C4.31757 29.9307 4.5886 29.4301 5.38284 29.3548C6.52714 29.2419 7.69027 29.2946 8.8421 29.3548C9.50083 29.3887 9.92241 29.8855 9.96382 30.4953C10.0278 31.4062 9.99395 32.336 9.88478 33.2432L9.88102 33.2356ZM30.0005 17.9004C30.0042 17.0836 30.2865 16.5755 31.077 16.4964C32.2063 16.3835 33.3581 16.4061 34.4911 16.4776C35.1348 16.519 35.6166 17.0008 35.658 17.652C35.7107 18.5629 35.6843 19.4927 35.5714 20.3998C35.4961 21.0096 34.8788 21.3973 34.2464 21.4086C33.7533 21.4199 33.2565 21.4086 32.7633 21.4086C32.3079 21.4086 31.8524 21.4124 31.4007 21.4086C30.5726 21.3973 30.0155 20.8553 30.0042 20.031C29.9929 19.3195 29.9967 18.6081 30.0042 17.8967L30.0005 17.9004ZM21.437 17.9004C21.4408 17.0836 21.7231 16.5755 22.5135 16.4964C23.6428 16.3835 24.7946 16.4061 25.9276 16.4776C26.5713 16.519 27.0531 17.0008 27.0945 17.652C27.1472 18.5629 27.1209 19.4927 27.0079 20.3998C26.9327 21.0096 26.3153 21.3973 25.683 21.4086C25.1899 21.4199 24.693 21.4086 24.1999 21.4086C23.7444 21.4086 23.289 21.4124 22.8373 21.4086C22.0091 21.3973 21.452 20.8553 21.4407 20.031C21.4294 19.3195 21.4332 18.6081 21.4407 17.8967L21.437 17.9004ZM21.437 24.2543C21.4445 23.4262 21.9602 22.8729 22.8034 22.8465C23.7143 22.8164 24.6252 22.8353 25.5324 22.839C26.0029 22.839 26.3078 23.1138 26.4057 23.5429C26.481 23.8629 25.9465 24.2619 25.5061 24.2619C24.6403 24.2619 23.7745 24.2619 22.8598 24.2619C22.8598 24.7851 22.8598 25.218 22.8598 25.6546C22.8598 26.0536 22.7695 26.4714 23.2965 26.686C23.4207 26.7349 23.5411 27.1302 23.4696 27.2469C23.3266 27.484 23.0706 27.7625 22.826 27.8039C22.1296 27.9282 21.4558 27.2619 21.4407 26.5053C21.4257 25.7525 21.4295 24.9996 21.437 24.2506V24.2543ZM12.8735 17.8666C12.8811 17.0949 13.1295 16.6244 13.8861 16.5453C15.0455 16.4249 16.2274 16.455 17.398 16.5039C18.0568 16.5303 18.4783 17.0384 18.5235 17.6445C18.5875 18.5366 18.5649 19.4513 18.4445 20.3396C18.3466 21.0435 17.7707 21.4011 17.0517 21.4086C16.5775 21.4162 16.0994 21.4086 15.6251 21.4086C15.1885 21.4086 14.7518 21.4086 14.3152 21.4086C13.4268 21.4011 12.8773 20.8478 12.8698 19.9444C12.866 19.2518 12.866 18.5554 12.8698 17.8628L12.8735 17.8666ZM12.8735 24.3033C12.8773 23.5166 13.1408 23.031 13.92 22.9482C15.0605 22.8277 16.2274 22.8541 17.3792 22.9105C18.0455 22.9444 18.4934 23.4563 18.5348 24.0925C18.5913 25.0034 18.5536 25.9332 18.4445 26.8403C18.3767 27.4125 17.7556 27.8115 17.1609 27.8303C16.6678 27.8454 16.1709 27.8303 15.6778 27.8303C15.2035 27.8303 14.7293 27.8341 14.255 27.8303C13.4381 27.819 12.8848 27.2619 12.8773 26.4338C12.8697 25.7224 12.8697 25.0109 12.8773 24.2995L12.8735 24.3033ZM12.8735 30.7287C12.8773 29.9382 13.1445 29.4489 13.9237 29.3698C15.068 29.2532 16.2349 29.287 17.3905 29.3435C18.038 29.3736 18.4821 29.8629 18.5198 30.4803C18.58 31.395 18.5536 32.3247 18.4445 33.2319C18.3692 33.853 17.7669 34.2407 17.127 34.2557C16.6302 34.267 16.137 34.2557 15.6402 34.2557C15.1659 34.2557 14.6879 34.2595 14.2136 34.252C13.4833 34.2369 12.8923 33.6572 12.8773 32.927C12.8622 32.193 12.8698 31.4589 12.8735 30.7249V30.7287ZM4.31006 17.8891C4.31383 17.0836 4.56225 16.6131 5.35272 16.534C6.50832 16.4174 7.68649 16.4738 8.85338 16.519C9.53093 16.5453 9.92241 17.0686 9.96382 17.6671C10.0278 18.578 9.98641 19.5077 9.87725 20.4149C9.80573 20.9946 9.19593 21.3936 8.60119 21.4124C8.08927 21.4275 7.57359 21.4124 7.0579 21.4124C6.60243 21.4124 6.14697 21.4162 5.69527 21.4124C4.87468 21.4011 4.32135 20.8478 4.31006 20.0234C4.30253 19.312 4.30253 18.6006 4.31006 17.8891ZM4.31006 24.307C4.31383 23.5166 4.57731 23.0348 5.35649 22.9519C6.49703 22.8277 7.66392 22.8541 8.81575 22.9105C9.48201 22.9444 9.92995 23.4563 9.97135 24.0925C10.0316 25.0034 9.99018 25.9332 9.88102 26.8403C9.8095 27.4162 9.19593 27.8152 8.60119 27.8341C8.10809 27.8491 7.61122 27.8341 7.11811 27.8341C6.64383 27.8341 6.16956 27.8378 5.69527 27.8341C4.87468 27.8228 4.3251 27.2694 4.31381 26.4413C4.30628 25.7299 4.30628 25.0185 4.31381 24.307H4.31006Z" fill="black"/>
<path id="Vector_2" d="M39.9679 6.3705C39.9302 5.48969 39.4898 4.56747 38.3982 4.43948C37.0506 4.27762 35.6692 4.40184 34.3254 4.40184C34.2765 5.02293 34.2953 5.69671 34.156 6.34039C33.8624 7.73312 32.624 8.54242 31.3969 8.56124C30.0493 8.58383 28.9727 7.75947 28.6904 6.41943C28.5474 5.73812 28.5662 5.02669 28.5098 4.30774H22.9124C22.856 4.97399 22.8409 5.61767 22.7431 6.25005C22.5247 7.63902 21.2826 8.50478 20.0705 8.56124C18.6589 8.62523 17.5786 7.81594 17.27 6.39308C17.1232 5.7193 17.1457 5.00411 17.093 4.31903H11.492C11.4355 4.99658 11.4355 5.64778 11.3226 6.2764C11.0553 7.79335 9.60237 8.71557 8.20963 8.54995C6.77925 8.38056 5.75163 7.28895 5.7328 5.74565C5.72528 5.26007 5.7328 4.77449 5.7328 4.28515C4.45675 4.28515 3.26727 4.2588 2.0778 4.29268C0.91467 4.32656 0.0639791 5.1735 0.0413942 6.12959C-1.16117e-05 7.86864 0.0301136 9.61144 0.0301136 11.3919H39.9829C39.9829 9.69802 40.0318 8.03426 39.9641 6.37426L39.9679 6.3705Z" fill="black"/>
<path id="Vector_3" d="M32.1814 24.2841C27.9768 24.1787 23.9228 27.6455 24.2842 32.8212C24.5289 36.3407 27.7472 40.0371 31.9781 39.9693C36.3935 40.0371 39.977 36.5025 39.9582 32.1474C39.9393 27.6793 36.6005 24.397 32.1814 24.2841ZM37.1012 30.2992C35.204 32.2114 33.3144 34.1274 31.3796 36.0057C30.815 36.5552 30.5666 36.6079 29.9756 35.9756C29.1249 35.0646 28.2177 34.2064 27.3369 33.3218C26.8288 32.8099 26.7911 32.5163 27.1788 32.1436C27.4687 31.8689 27.9655 31.9404 28.3721 32.3469C29.14 33.1148 29.8928 33.8977 30.687 34.7108C32.5352 32.8588 34.3082 31.101 36.0585 29.3243C36.4236 28.9554 36.7963 28.8952 37.1953 29.1662C37.5152 29.3808 37.4701 29.9303 37.1012 30.2992Z" fill="black"/>
<path id="Vector_4" d="M8.41641 7.1386C9.25206 7.18 9.97478 6.58903 10.0011 5.71574C10.0463 4.29289 10.0425 2.86251 10.0011 1.43966C9.97855 0.596485 9.25957 -0.0321301 8.47663 0.00551156C7.64098 0.0431532 7.16294 0.592721 7.15917 1.51494C7.15917 2.18873 7.15917 2.86251 7.15917 3.5363C7.15917 4.21008 7.19306 4.92527 7.15166 5.61411C7.0952 6.53633 7.79156 7.10849 8.41641 7.1386Z" fill="black"/>
<path id="Vector_5" d="M19.8421 7.13847C20.6777 7.17611 21.3967 6.58513 21.423 5.70808C21.4682 4.28523 21.4644 2.85485 21.423 1.432C21.4004 0.588823 20.6777 -0.0360272 19.8948 0.00161438C19.0591 0.0430202 18.5848 0.592587 18.5811 1.51481C18.5811 2.18859 18.5811 2.86238 18.5811 3.53616C18.5811 4.20995 18.6149 4.92514 18.5735 5.61398C18.5171 6.52491 19.2134 7.10835 19.8421 7.1347V7.13847Z" fill="black"/>
<path id="Vector_6" d="M31.2563 7.13861C32.0919 7.17625 32.8109 6.58528 32.841 5.71199C32.8861 4.28914 32.8824 2.85876 32.841 1.4359C32.8184 0.59273 32.0957 -0.032121 31.3127 0.00552063C30.4771 0.0469264 29.999 0.596494 29.999 1.51871C29.999 2.1925 29.999 2.86628 29.999 3.54007C29.999 4.23267 30.0329 4.92904 29.9915 5.61789C29.935 6.53258 30.6314 7.11226 31.26 7.14237L31.2563 7.13861Z" fill="black"/>
<path id="Vector_7" d="M8.55139 17.8813H5.77344V19.9667H8.55139V17.8813Z" fill="black"/>
<path id="Vector_8" d="M25.6838 17.8774H22.8945V19.9703H25.6838V17.8774Z" fill="black"/>
<path id="Vector_9" d="M34.2535 17.8701H31.4492V19.963H34.2535V17.8701Z" fill="black"/>
<path id="Vector_10" d="M5.76953 32.8175H8.555V30.7246H5.76953V32.8175Z" fill="black"/>
<path id="Vector_11" d="M8.56977 24.2993H5.76172V26.3809H8.56977V24.2993Z" fill="black"/>
<path id="Vector_12" d="M17.1176 24.2842H14.3359V26.3733H17.1176V24.2842Z" fill="black"/>
<path id="Vector_13" d="M17.1132 17.8853H14.3164V19.948H17.1132V17.8853Z" fill="black"/>
<path id="Vector_14" d="M17.1401 30.7246H14.332V32.7987H17.1401V30.7246Z" fill="black"/>
</g>
</svg>
