<?xml version="1.0" encoding="utf-8"?>
<!-- Generator: Adobe Illustrator 27.3.1, SVG Export Plug-In . SVG Version: 6.00 Build 0)  -->
<svg version="1.1" id="Layer_1" xmlns="http://www.w3.org/2000/svg" xmlns:xlink="http://www.w3.org/1999/xlink" x="0px" y="0px"
	 viewBox="0 0 100 100" style="enable-background:new 0 0 100 100;" xml:space="preserve">
<style type="text/css">
	.st0{fill:#BA5D5E;}
</style>
<g>
	<g>
		<path d="M43.3,85.3c-3.9,0-4.5-3.6-4.5-5.8c0-13.2,0-18.7,0-31.9c0-0.2,0-0.4,0-0.6c-1,0-1.9,0-2.9,0c0,0.1,0,0.3,0,0.4
			c0,4.8,0,9.6,0,14.5c0,0.6,0,1.2-0.2,1.8c-0.5,2-3.2,3.9-5.8,2.6c-1.6-0.8-2.5-2.2-2.5-3.9c0-6.1,0-12.1,0-18.2
			c0-4.6,3.6-7.9,7.3-8.3c0.7-0.1,1.5-0.1,2.2-0.1c8.9,0,17.7,0,26.6,0c3.8,0,6.4,1.7,8.2,5c0.6,1,0.8,2.2,0.8,3.3
			c0,6.1,0,12.2,0,18.3c0,2.2-1.8,3.8-3.3,4.2c-1.9,0.5-3.7-0.4-4.7-2.2c-0.4-0.7-0.5-1.5-0.5-2.3c0-4.7,0-9.3,0-14
			c0-0.4,0-0.7,0-1.1c-1,0-1.9,0-3,0c0,0.2,0,0.4,0,0.5c0,13.2,0,18.7,0,31.9c0,1.7-0.7,3.1-2,4c-1.3,1-3.3,0.8-3.4,0.8
			c-2.7-0.1-4.2-2.2-4.3-4.3c0-0.6,0-1.1,0-1.7c0-6.2,0-4.8,0-11c0-0.2,0-0.3,0-0.5c-1,0-1.9,0-2.9,0c0,0.5,0,0.9,0,1.3
			c0,6.4,0,5.2,0,11.5C48.6,84.8,45.2,85.3,43.3,85.3z"/>
		<path d="M50.8,14.7c0.2,0.1,0.4,0.2,0.6,0.2c1.9,0.1,3.5,1,4.9,2.2c2.1,1.8,3.1,4,3.3,6.7c0.4,4.4-2.2,8.2-5.8,9.7
			c-5.7,2.4-11.8-0.7-13.4-6.3c-1.3-5.2,1.5-9.8,5.6-11.7c0.9-0.4,1.9-0.7,2.9-0.6c-0.2-0.1-0.3-0.1-0.5-0.2
			C49.3,14.7,50.1,14.7,50.8,14.7z"/>
	</g>
</g>
<path class="st0" d="M54.4,98.1c-1,0.1-1.9,0.1-2.9,0.2c-0.2,0-0.3,0-0.5,0c-0.8,0-1.7,0-2.5,0c-3.3-0.1-6.6-0.5-9.8-1.3
	c-9.5-2.3-17.6-7.1-24.2-14.3C9.1,76.7,5.4,69.9,3.4,62.3c-1.1-4.2-1.6-8.4-1.6-12.7c0-3.7,0.4-7.3,1.3-10.9
	c3-12,9.6-21.5,19.8-28.5c5.5-3.8,11.5-6.2,18-7.5C44,2,47.2,1.7,50.4,1.8c3.7,0,7.3,0.5,10.9,1.3c9.6,2.4,17.8,7.3,24.5,14.6
	c4.5,5,7.8,10.6,9.9,17c1,2.9,1.7,5.9,2,8.9c0.1,0.6,0.2,1.3,0.3,1.9c0.1,1,0.1,1.9,0.2,2.9c0,0.2,0,0.4,0,0.6
	c0.1,2.6-0.1,5.2-0.5,7.8c-0.7,4.9-2.1,9.6-4.3,14.1c-2.8,5.9-6.7,10.9-11.5,15.2c-4.8,4.3-10.3,7.5-16.4,9.5c-3,1-6,1.7-9.1,2.1
	C55.7,97.9,55,98,54.4,98.1z M75.4,78.9C56.3,62,37.2,45.2,18.1,28.3C8.3,42,8.2,64,23.9,78.4C40,93.1,62.7,90.6,75.4,78.9z
	 M24.5,21c19.1,16.9,38.2,33.8,57.3,50.6c9.2-13,9.8-34.5-5.2-49.1C61,7.5,38.1,9,24.5,21z"/>
</svg>
