<?xml version="1.0" encoding="utf-8"?>
<!-- Generator: Adobe Illustrator 27.3.1, SVG Export Plug-In . SVG Version: 6.00 Build 0)  -->
<svg version="1.1" id="Layer_1" xmlns="http://www.w3.org/2000/svg" xmlns:xlink="http://www.w3.org/1999/xlink" x="0px" y="0px"
	 viewBox="0 0 100 100" style="enable-background:new 0 0 100 100;" xml:space="preserve">
<style type="text/css">
	.st0{fill:#B95D5E;}
</style>
<g>
	<g>
		<path class="st0" d="M33.2,71.7c-3.9,0-4.5-3.6-4.5-5.8c0-13.2,0-18.7,0-31.9c0-0.2,0-0.4,0-0.6c-1,0-1.9,0-2.9,0
			c0,0.1,0,0.3,0,0.4c0,4.8,0,9.6,0,14.5c0,0.6,0,1.2-0.2,1.8c-0.5,2-3.2,3.9-5.8,2.6c-1.6-0.8-2.5-2.2-2.5-3.9c0-6.1,0-12.1,0-18.2
			c0-4.6,3.6-7.9,7.3-8.3c0.7-0.1,1.5-0.1,2.2-0.1c8.9,0,17.7,0,26.6,0c3.8,0,6.4,1.7,8.2,5c0.6,1,0.8,2.2,0.8,3.3
			c0,6.1,0,12.2,0,18.3c0,2.2-1.8,3.8-3.3,4.2c-1.9,0.5-3.7-0.4-4.7-2.2c-0.4-0.7-0.5-1.5-0.5-2.3c0-4.7,0-9.3,0-14
			c0-0.4,0-0.7,0-1.1c-1,0-1.9,0-3,0c0,0.2,0,0.4,0,0.5c0,13.2,0,18.7,0,31.9c0,1.7-0.7,3.1-2,4c-1.3,1-3.3,0.8-3.4,0.8
			c-2.7-0.1-4.2-2.2-4.3-4.3c0-0.6,0-1.1,0-1.7c0-6.2,0-4.8,0-11c0-0.2,0-0.3,0-0.5c-1,0-1.9,0-2.9,0c0,0.5,0,0.9,0,1.3
			c0,6.4,0,5.2,0,11.5C38.4,71.2,35,71.7,33.2,71.7z"/>
		<path class="st0" d="M40.7,1c0.2,0.1,0.4,0.2,0.6,0.2c1.9,0.1,3.5,1,4.9,2.2c2.1,1.8,3.1,4,3.3,6.7c0.4,4.4-2.2,8.2-5.8,9.7
			c-5.7,2.4-11.8-0.7-13.4-6.3C29,8.3,31.8,3.7,35.9,1.8c0.9-0.4,1.9-0.7,2.9-0.6c-0.2-0.1-0.3-0.1-0.5-0.2C39.2,1,39.9,1,40.7,1z"
			/>
	</g>
	<g>
		<g>
			<path class="st0" d="M86.3,50.4c-2.1,1.7-4.2,3.4-6.3,5L79.2,56c-1.6,1.2-3.2,2.5-4.8,3.7c-12.5,10-23,22.2-31.2,36
				c-0.4,0.6-0.7,1.1-1,1.5c-1,1.2-2.3,1.9-3.6,1.9c0,0,0,0,0,0c-1.3,0-2.5-0.7-3.5-1.9c-0.7-0.9-1.3-2-1.9-3.1l-0.4-0.6
				c-3.5-6.2-8-13.3-13.8-19.6c-1.7-1.9-1.7-2.5-1.7-2.5c0,0,0.2-0.6,2.4-2.1c2.3-1.5,3.9-1.5,6.2,0.1c3.8,2.7,6.5,6.4,9,10.1
				l3.9,5.7l2.4-2.9c0.9-1.1,1.7-2.1,2.5-3.2c1.8-2.3,3.4-4.4,5.3-6.4c9-10,18.9-16.7,30.3-20.7C80.8,51.3,84.4,50.7,86.3,50.4z"/>
		</g>
	</g>
</g>
</svg>
