<svg width="57" height="56" viewBox="0 0 57 56" fill="none" xmlns="http://www.w3.org/2000/svg">
<path d="M20.165 19.5754C19.4337 18.8597 18.7802 18.2217 18.1267 17.5994C17.7066 17.1948 17.5821 16.6969 17.9244 16.2457C18.5935 15.3433 18.5001 14.5186 17.9089 13.6162C17.5199 13.0405 17.2554 12.387 16.9597 11.749C16.5863 10.94 16.9909 10.2865 17.8777 10.2865C22.8723 10.2865 27.8669 10.2709 32.877 10.2865C35.242 10.302 37.2959 12.3714 37.3425 14.7209C37.3581 15.6078 37.327 16.5102 37.3581 17.3971C37.3736 17.9261 37.2181 18.3307 36.8135 18.673C36.5023 18.9375 36.2223 19.2175 35.8955 19.5132C37.8716 20.5401 38.525 21.5048 38.2605 22.9362C37.996 24.2899 37.0002 25.0679 35.4132 25.2235C34.8997 26.1415 34.4952 27.0595 33.935 27.853C33.4838 28.4754 32.8614 28.9577 32.2702 29.4712C31.8501 29.829 31.5856 30.4981 31.7723 31.0271C31.8034 31.1049 31.8812 31.1827 31.959 31.2138C32.5502 31.4783 33.1104 31.8051 33.8261 31.7584C34.8997 31.6962 35.9577 31.7429 37.0313 31.7429C38.6184 31.7584 39.832 32.972 39.8009 34.5591C39.8009 34.9481 39.9254 35.197 40.1743 35.4615C41.388 36.7219 42.0103 38.2311 42.0103 39.9893C42.0103 42.1832 42.0103 44.3771 42.0103 46.6643C42.2593 46.6643 42.4771 46.6643 42.695 46.6643C46.7248 46.6643 50.7392 46.6643 54.769 46.6643C55.7337 46.6643 55.9982 46.9444 55.9982 47.9246C55.9982 49.0138 55.9982 50.1029 55.9982 51.1921C55.9982 51.9234 55.6715 52.2501 54.9402 52.2657C54.3801 52.2657 53.8199 52.2657 53.2131 52.2657C53.2131 53.1681 53.2131 54.0239 53.2131 54.8797C53.2131 55.6888 52.9019 55.9999 52.0773 55.9999C36.0355 55.9999 19.9938 55.9999 3.93653 55.9999C3.09632 55.9999 2.80069 55.6888 2.80069 54.833C2.80069 54.0083 2.80069 53.1681 2.80069 52.2657C2.20943 52.2657 1.68041 52.2657 1.13584 52.2657C0.311188 52.2657 0 51.9545 0 51.1454C0 50.0251 0 48.8893 0 47.769C0 46.9911 0.326747 46.6799 1.10472 46.6799C5.16572 46.6799 9.22672 46.6799 13.3033 46.6799C13.5211 46.6799 13.7234 46.6799 14.019 46.6799C14.019 46.4309 14.019 46.2286 14.019 46.0264C14.019 44.0503 14.019 42.0587 14.019 40.0827C14.0034 38.2622 14.6725 36.7219 15.9173 35.3993C16.0884 35.2126 16.2129 34.9014 16.2129 34.6525C16.2284 32.9565 17.3954 31.7584 19.1069 31.7429C20.056 31.7429 21.0207 31.7117 21.9699 31.7584C22.6545 31.7895 23.2924 31.6806 23.8525 31.3227C24.0237 31.2138 24.2726 31.0116 24.2571 30.8715C24.2104 30.4514 24.5372 29.9535 23.9926 29.6112C22.4522 28.6621 21.4564 27.2929 20.8807 25.5969C20.834 25.4413 20.6006 25.239 20.4295 25.2235C19.0136 25.099 17.9089 24.1188 17.7533 22.8118C17.5977 21.3647 18.3756 20.1667 19.776 19.731C19.8693 19.6999 19.9471 19.6532 20.165 19.5754ZM36.5179 42.93C36.5646 42.7589 36.6112 42.6189 36.6424 42.4633C37.0625 39.9115 37.4981 37.3753 37.9182 34.8236C38.0427 34.0768 37.6226 33.61 36.8135 33.61C30.9476 33.61 25.0662 33.61 19.2003 33.61C18.3756 33.61 18.0022 34.1079 18.1422 34.9014C18.4068 36.4573 18.6557 37.9977 18.9202 39.5537C19.1069 40.6739 19.3092 41.7942 19.4959 42.93C25.2062 42.93 30.8543 42.93 36.5179 42.93ZM1.89825 50.383C19.3403 50.383 36.7357 50.383 54.1156 50.383C54.1156 49.7451 54.1156 49.1538 54.1156 48.5781C36.689 48.5781 19.3092 48.5781 1.89825 48.5781C1.89825 49.1849 1.89825 49.7606 1.89825 50.383ZM51.3304 52.3279C35.7555 52.3279 20.2272 52.3279 4.71449 52.3279C4.71449 52.9659 4.71449 53.5571 4.71449 54.1328C20.2739 54.1328 35.7866 54.1328 51.3304 54.1328C51.3304 53.5104 51.3304 52.9347 51.3304 52.3279ZM19.3248 12.2003C19.5426 12.6515 19.7137 13.1338 19.9938 13.5384C20.6162 14.4564 20.694 15.3588 20.0094 16.2613C19.8227 16.5102 19.9005 16.6969 20.1183 16.8992C20.6473 17.3971 21.1297 17.9261 21.6587 18.4085C21.8143 18.5485 22.0632 18.6418 22.2655 18.6574C23.3702 18.673 24.4905 18.6885 25.5952 18.6574C26.9644 18.6263 28.2403 18.2373 29.3606 17.4127C29.9207 17.0081 30.4808 16.5724 31.041 16.1679C31.8034 15.6078 32.4102 15.81 32.737 16.7125C32.8925 17.1326 33.017 17.5682 33.1726 17.9728C33.4527 18.6885 34.0128 18.813 34.5418 18.284C34.7908 18.035 35.0553 17.8016 35.2731 17.5371C35.3976 17.3815 35.491 17.1793 35.5065 16.977C35.5376 16.2768 35.5376 15.5766 35.5065 14.8765C35.4598 13.3828 34.3551 12.138 32.8614 12.1225C28.3959 12.0758 23.9148 12.1069 19.4492 12.1225C19.4026 12.1536 19.387 12.1691 19.3248 12.2003ZM33.7172 20.5557C32.4102 20.2756 31.6322 19.5443 31.2899 18.4707C30.403 18.9686 29.5628 19.5132 28.676 19.9177C27.4001 20.509 26.0153 20.5868 24.6305 20.5401C23.8992 20.5245 23.1679 20.5401 22.5144 20.5401C22.5144 21.816 22.4055 22.9985 22.53 24.1654C22.8412 26.8261 25.0351 28.7554 27.7579 28.9266C30.2786 29.0978 32.7992 27.3551 33.3593 24.8345C33.6705 23.4653 33.6083 22.0027 33.7172 20.5557ZM36.4245 44.8594C30.7765 44.8594 25.2218 44.8594 19.6515 44.8594C19.527 46.4309 19.7604 46.6954 21.2852 46.6954C25.7352 46.6954 30.1852 46.6954 34.6508 46.6954C34.8997 46.6954 35.1642 46.711 35.4132 46.6954C36.0511 46.6643 36.409 46.3064 36.4401 45.6685C36.4245 45.404 36.4245 45.1395 36.4245 44.8594ZM18.0022 46.6487C17.5821 43.5991 17.1776 40.6117 16.7575 37.6243C16.6952 37.6243 16.633 37.6243 16.5863 37.6243C16.0884 38.3867 15.9017 39.2425 15.8861 40.1294C15.8706 42.1365 15.8861 44.1281 15.8861 46.1353C15.8861 46.3064 15.9017 46.4776 15.9173 46.6487C16.5863 46.6487 17.2087 46.6487 18.0022 46.6487ZM40.1432 46.6643C40.1432 44.2993 40.1743 41.9965 40.1277 39.6781C40.1121 38.9468 39.9098 38.2156 39.303 37.4531C38.8674 40.6117 38.4628 43.6147 38.0583 46.6643C38.8362 46.6643 39.4586 46.6643 40.1432 46.6643ZM26.1709 31.6962C27.4468 31.6962 28.6604 31.6962 29.8585 31.6962C29.8585 31.3072 29.8585 30.9649 29.8585 30.7004C28.6137 30.7004 27.4001 30.7004 26.1709 30.7004C26.1709 30.996 26.1709 31.3383 26.1709 31.6962ZM20.5073 23.3252C20.5073 22.6873 20.5073 22.096 20.5073 21.4892C19.9316 21.5981 19.6204 21.9249 19.6359 22.4539C19.6515 22.9518 19.9627 23.2474 20.5073 23.3252ZM35.5221 21.4892C35.5221 22.1272 35.5221 22.7184 35.5221 23.3252C36.0978 23.2319 36.409 22.9051 36.3934 22.3761C36.3778 21.8782 36.0667 21.567 35.5221 21.4892Z" fill="black"/>
<path d="M0.0154602 10.2709C0.0154602 8.40378 0.0154602 6.53665 0.0154602 4.66953C0.0310196 2.05555 2.0693 0.0172684 4.68328 0.00170898C6.5504 0.00170898 8.41753 0.00170898 10.2847 0.00170898C12.8986 0.0172684 14.9369 2.05555 14.9525 4.66953C14.968 8.40378 14.968 12.138 14.9525 15.8723C14.9525 18.4863 12.8986 20.5245 10.2847 20.5401C8.41753 20.5557 6.5504 20.5557 4.68328 20.5401C2.0693 20.5245 0.0310196 18.4863 0.0154602 15.8723C-9.91821e-05 14.0052 0.0154602 12.138 0.0154602 10.2709ZM1.88259 10.2398C1.88259 12.0447 1.88259 13.8496 1.88259 15.67C1.88259 17.4749 3.0651 18.673 4.86999 18.673C6.59708 18.6885 8.32417 18.673 10.0668 18.673C11.9028 18.673 13.0853 17.4905 13.0853 15.6389C13.0853 12.0602 13.0853 8.48158 13.0853 4.90292C13.0853 3.05135 11.9028 1.86884 10.0668 1.86884C8.35529 1.86884 6.64376 1.86884 4.93223 1.86884C3.04954 1.86884 1.88259 3.05135 1.88259 4.93403C1.86703 6.70781 1.88259 8.46602 1.88259 10.2398Z" fill="black"/>
<path d="M52.2485 5.55646C54.3646 5.85209 55.5315 6.80122 55.9361 8.52831C56.4807 10.7844 54.7225 13.0561 52.4041 13.0716C48.6076 13.0872 44.8267 13.0872 41.0302 13.0716C39.2409 13.0716 37.7783 11.8269 37.4048 10.0376C37.0625 8.38827 37.965 6.63006 39.5676 5.92989C39.941 5.7743 40.1589 5.6187 40.2055 5.13636C40.3456 3.82937 41.5436 2.86469 42.8662 2.78689C43.084 2.77133 43.3952 2.6313 43.5041 2.46015C44.7178 0.452985 46.8494 -0.4339 48.981 0.204035C51.1438 0.857529 52.4197 2.77133 52.2952 5.15192C52.2641 5.29195 52.2641 5.40087 52.2485 5.55646ZM46.6782 11.2045C48.5298 11.2045 50.3658 11.2201 52.2174 11.2045C53.3221 11.189 54.1468 10.3799 54.1623 9.36851C54.1779 8.32603 53.3221 7.50139 52.2018 7.48583C51.7506 7.47027 51.2994 7.53251 50.8637 7.47027C50.5992 7.43915 50.288 7.29912 50.1169 7.1124C49.759 6.72342 49.9302 6.30331 50.1324 5.86765C50.8326 4.34283 50.1013 2.61574 48.5454 2.07116C47.005 1.52658 45.3713 2.39791 44.9356 3.98497C44.6711 4.94965 44.2977 5.15192 43.3797 4.82517C42.9751 4.68514 42.6172 4.71626 42.3061 5.02744C42.026 5.32307 41.9793 5.64982 42.1349 6.03881C42.4772 6.95681 42.1349 7.45471 41.1547 7.50139C40.2833 7.54807 39.6143 7.99929 39.3498 8.73058C38.8985 9.99089 39.801 11.2201 41.2013 11.2201C43.0218 11.2201 44.8422 11.2045 46.6782 11.2045Z" fill="black"/>
<path d="M14.6725 32.0229C14.2212 32.4742 13.8167 32.8787 13.3655 33.3144C13.241 33.2055 13.101 33.0965 12.9921 32.9876C11.016 31.0116 9.03997 29.02 7.04837 27.0595C6.6905 26.7016 6.51935 26.3282 6.53491 25.8303C6.56603 24.7256 6.55047 23.6209 6.55047 22.4695C7.15728 22.4695 7.74854 22.4695 8.41759 22.4695C8.41759 23.1541 8.47983 23.8543 8.40203 24.5233C8.29312 25.4258 8.63543 26.0326 9.27336 26.6394C10.9693 28.242 12.5875 29.9224 14.2368 31.5717C14.3613 31.6962 14.5013 31.8362 14.6725 32.0229Z" fill="black"/>
<path d="M44.889 28.989C44.4378 28.5222 44.0332 28.1021 43.6287 27.682C46.2738 24.5701 52.1397 24.1811 55.3604 27.6509C54.9403 28.071 54.5358 28.5066 54.0846 28.9578C52.8087 27.7442 51.2683 27.0752 49.479 27.0752C47.7208 27.0907 46.196 27.7442 44.889 28.989Z" fill="black"/>
<path d="M40.1899 20.5401C40.1899 19.8866 40.1899 19.3109 40.1899 18.704C42.0415 18.704 43.8464 18.704 45.7291 18.704C45.7291 17.4593 45.7291 16.2457 45.7291 14.9854C46.3826 14.9854 46.9738 14.9854 47.6118 14.9854C47.6118 16.5724 47.6273 18.1595 47.5962 19.7465C47.5806 20.2289 47.2228 20.5245 46.7404 20.5245C44.5777 20.5401 42.3994 20.5401 40.1899 20.5401Z" fill="black"/>
<path d="M48.8097 36.6909C49.2765 37.1733 49.681 37.5934 50.0856 38.0135C49.152 38.9626 48.2185 39.9273 47.2538 40.892C47.1449 41.0009 46.9426 41.0787 46.787 41.0787C45.8379 41.0942 44.8888 41.0942 43.9241 41.0942C43.9241 40.4718 43.9241 39.8962 43.9241 39.2271C44.5776 39.2271 45.2311 39.2582 45.869 39.2115C46.1024 39.196 46.398 39.0871 46.5692 38.9315C47.3316 38.2002 48.0473 37.4533 48.8097 36.6909Z" fill="black"/>
<path d="M46.2424 30.327C47.7828 28.5065 51.1125 28.491 52.7618 30.327C52.3262 30.7315 51.8749 31.1205 51.4081 31.5562C50.1634 30.5604 48.8408 30.5448 47.5183 31.6029C47.0826 31.1672 46.6625 30.7471 46.2424 30.327Z" fill="black"/>
<path d="M50.4126 32.7231C50.4126 33.33 50.4126 33.8901 50.4126 34.4969C49.8213 34.4969 49.23 34.4969 48.6077 34.4969C48.6077 33.9212 48.6077 33.33 48.6077 32.7231C49.1989 32.7231 49.8057 32.7231 50.4126 32.7231Z" fill="black"/>
<path d="M30.8074 38.2468C30.8074 39.8183 29.5938 41.0631 28.0223 41.0786C26.4819 41.0786 25.2216 39.865 25.2216 38.3402C25.206 36.7531 26.4197 35.4928 27.9756 35.4928C29.5471 35.4773 30.8074 36.6909 30.8074 38.2468ZM28.0378 37.3444C27.5555 37.3288 27.1043 37.7645 27.0887 38.2468C27.0732 38.7292 27.5088 39.1804 27.9912 39.196C28.4735 39.2115 28.9247 38.7759 28.9403 38.2935C28.9714 37.8267 28.5357 37.3599 28.0378 37.3444Z" fill="black"/>
<path d="M24.3037 23.2943C24.3037 22.6875 24.3037 22.1273 24.3037 21.5205C24.895 21.5205 25.4862 21.5205 26.1086 21.5205C26.1086 22.0962 26.1086 22.6875 26.1086 23.2943C25.5018 23.2943 24.895 23.2943 24.3037 23.2943Z" fill="black"/>
<path d="M31.71 23.3254C31.1188 23.3254 30.5431 23.3254 29.9363 23.3254C29.9363 22.7186 29.9363 22.1273 29.9363 21.5205C30.5275 21.5205 31.1032 21.5205 31.71 21.5205C31.71 22.0806 31.71 22.6719 31.71 23.3254Z" fill="black"/>
<path d="M4.71436 7.50146C6.56592 7.50146 8.38637 7.50146 10.2379 7.50146C10.2379 8.09272 10.2379 8.68398 10.2379 9.30635C8.40193 9.30635 6.58148 9.30635 4.71436 9.30635C4.71436 8.7151 4.71436 8.1394 4.71436 7.50146Z" fill="black"/>
<path d="M4.71436 13.0249C4.71436 12.4181 4.71436 11.8424 4.71436 11.2356C6.55036 11.2356 8.37081 11.2356 10.2379 11.2356C10.2379 11.8113 10.2379 12.4025 10.2379 13.0249C8.41749 13.0249 6.58148 13.0249 4.71436 13.0249Z" fill="black"/>
<path d="M5.64795 5.55642C5.64795 4.93404 5.64795 4.37391 5.64795 3.76709C6.86158 3.76709 8.05965 3.76709 9.3044 3.76709C9.3044 4.34279 9.3044 4.93404 9.3044 5.55642C8.10633 5.55642 6.8927 5.55642 5.64795 5.55642Z" fill="black"/>
<path d="M6.58154 16.7747C6.58154 16.1679 6.58154 15.5922 6.58154 14.9854C7.1728 14.9854 7.76406 14.9854 8.38643 14.9854C8.38643 15.5766 8.38643 16.1523 8.38643 16.7747C7.79518 16.7747 7.21948 16.7747 6.58154 16.7747Z" fill="black"/>
</svg>
