<svg width="19" height="26" viewBox="0 0 19 26" fill="none" xmlns="http://www.w3.org/2000/svg">
<path id="Vector" d="M9.11459 6.44143C9.97663 6.44143 10.8034 6.76887 11.4129 7.35172C12.0225 7.93457 12.3649 8.72508 12.3649 9.54935C12.3649 9.95749 12.2808 10.3616 12.1175 10.7387C11.9542 11.1158 11.7147 11.4584 11.4129 11.747C11.1111 12.0356 10.7528 12.2645 10.3584 12.4207C9.96409 12.5769 9.54143 12.6573 9.11459 12.6573C8.25255 12.6573 7.42581 12.3298 6.81626 11.747C6.2067 11.1641 5.86426 10.3736 5.86426 9.54935C5.86426 8.72508 6.2067 7.93457 6.81626 7.35172C7.42581 6.76887 8.25255 6.44143 9.11459 6.44143ZM9.11459 0.847168C11.5283 0.847168 13.8432 1.764 15.5499 3.39598C17.2567 5.02796 18.2155 7.24139 18.2155 9.54935C18.2155 16.076 9.11459 25.7106 9.11459 25.7106C9.11459 25.7106 0.0136719 16.076 0.0136719 9.54935C0.0136719 7.24139 0.972515 5.02796 2.67927 3.39598C4.38602 1.764 6.70087 0.847168 9.11459 0.847168ZM9.11459 3.33351C7.39051 3.33351 5.73704 3.98839 4.51793 5.15409C3.29882 6.31978 2.61393 7.90081 2.61393 9.54935C2.61393 10.7925 2.61393 13.2789 9.11459 21.6205C15.6152 13.2789 15.6152 10.7925 15.6152 9.54935C15.6152 7.90081 14.9304 6.31978 13.7112 5.15409C12.4921 3.98839 10.8387 3.33351 9.11459 3.33351Z" fill="black"/>
</svg>
