<?xml version="1.0" encoding="utf-8"?>
<!-- Generator: Adobe Illustrator 27.3.1, SVG Export Plug-In . SVG Version: 6.00 Build 0)  -->
<svg version="1.1" id="Layer_1" xmlns="http://www.w3.org/2000/svg" xmlns:xlink="http://www.w3.org/1999/xlink" x="0px" y="0px"
	 viewBox="0 0 500 500" style="enable-background:new 0 0 500 500;" xml:space="preserve">
<g>
	<path d="M98.6,278.3c0-61.1,0-122.2,0-183.3c0-4,0.2-8.1,0.7-12.1c1-8.1,6.2-13.3,12.6-17.5c5.7-3.6,12.3-3,18.6-3
		c40.1-0.1,80.2-0.1,120.3-0.1c61.3,0,122.6,0,183.8,0c6.6,0,13.1,0.5,18.8,4.3c7.2,4.8,11.2,11.6,11.2,20
		c0.2,99.2,0.1,198.5,0.1,297.7c0,5.1,0.1,10.2-0.1,15.3c0,1.2-0.7,2.8-1.7,3.6c-16.1,14.2-32.3,28.2-48.4,42.4
		c-15.8,14-31.4,28.1-47.1,42.1c-0.9,0.8-1.9,1.6-2.8,2.5c-2.9,3-6.3,3.7-10.5,3.6c-24.7-0.3-49.4-0.3-74.2-0.3
		c-49.5,0-99.1,0-148.6,0c-4.3,0-8.7,0.2-12.9-0.5c-9.9-1.6-17.9-9.7-19.3-19.8c-0.8-5.9-0.8-12-0.8-18
		C98.6,396.4,98.6,337.4,98.6,278.3C98.6,278.3,98.6,278.3,98.6,278.3z M120,472.9c2.6,0,5,0,7.4,0c62,0,124-0.1,186-0.1
		c9.5,0,19,0,28.5,0.1c4.2,0,4.1,0.1,4.1-4c0-18.1-0.2-36.2,0.1-54.4c0.1-4.5,0.7-9.3,2.5-13.3c4.6-10.1,13.3-14.8,24.2-14.9
		c22.5-0.2,45-0.1,67.6-0.1c3.5,0,3.5,0,3.5-3.4c0-97.2,0-194.5,0-291.7c0-0.8,0-1.6,0-2.4c-0.1-4.7-0.4-5-5-5
		c-103.7,0-207.4,0-311.1,0c-2.6,0-5.1,0-7.7,0C120,213.4,120,343,120,472.9z"/>
	<path d="M379.9,27.4c-4.3,0-8.2,0-12.1,0c-100.5,0-200.9,0-301.4,0c-2.6,0-5.2,0.3-7.8,0.3c-1.6,0-2.2,0.8-2.3,2.3
		c0,1.1-0.1,2.1-0.1,3.2c0,125.5,0,251,0,376.5c0,6.7,0,6.8,6.5,6.8c5.2,0,10.4,0,15.6-0.1c1.6,0,2.2,0.5,2.2,2.1
		c-0.1,5.6-0.1,11.3-0.1,16.9c0,1.3-0.2,2.3-1.9,2.3c-8-0.3-16.1,0.2-23.9-1c-8.3-1.3-14.1-6.7-17.4-14.7c-1.9-4.5-2.1-9-2.1-13.7
		c0-124.6,0-249.2-0.1-373.8c0-6.4,1.3-12.4,4.7-17.6c3.2-4.9,7.8-8.6,13.7-9.6c5.4-0.9,11-1.3,16.6-1.3C171,6,271.9,6.1,372.8,6
		c12,0,21.4,4.3,26.5,15.6c1.3,2.8,1.6,6.2,1.9,9.4c0.4,3.7,0.2,7.5,0.3,11.3c0,1.6-0.5,2.2-2.2,2.2c-5.7-0.1-11.5-0.1-17.2,0
		c-1.9,0-2.2-0.7-2.1-2.4C380,37.4,379.9,32.7,379.9,27.4z"/>
	<path d="M174.3,233.1c0-3.1,0-5.8,0-8.8c3.7,0,7.4,0,11,0c3.7,0,3.8,0,3.8-3.7c0-13.7,0-27.4,0-41.2c0-3.5,0-7,0-10.8
		c10.1,0,20.3,0,30.6,0c0,18.3,0,36.8,0,55.6c6.5,0,12.9,0,19.4-0.1c0.5,0,1.4-0.8,1.4-1.4c0.2-1.5,0.1-3,0.2-4.6
		c0.1-24.9,0.1-49.9,0.2-74.8c0-1.7-0.1-3.3-0.2-5.2c10.3,0,20.3,0,30.6,0c0,28.6,0,57.1,0,86c6.7,0,13.1,0,19.6-0.1
		c0.5,0,1.4-1,1.5-1.6c0.2-2.3,0.1-4.7,0.1-7c0-35.3-0.1-70.7-0.1-106c0-1.4,0-2.5,1.9-2.5c9.5,0,19,0,28.7,0c0,39,0,77.9,0,116.9
		c0.7,0.1,1.2,0.3,1.7,0.3c5.7,0,11.5,0,17.2,0c1.6,0,2.3-0.5,2.3-2.1c0-2.6,0-5.2,0-7.8c0-20.5,0.1-40.9,0.1-61.4
		c0-1.2-0.1-2.3-0.2-3.8c10.4,0,20.6,0,30.9,0c0,24.7,0,49.7,0,75c4.9,0,9.8,0,14.8,0c0,3.1,0,5.9,0,8.9
		C317.7,233.1,246.1,233.1,174.3,233.1z"/>
	<path d="M411.2,358.3c0,4.5,0,8.8,0,13.3c-2.1,0-3.9,0-5.8,0c-82.4,0-164.8,0-247.3,0c-6.2,0-6.2,0-6.1-6c0-2.4,0-4.8,0-7.3
		C238.6,358.3,324.9,358.3,411.2,358.3z"/>
	<path d="M151.8,271.2c0-4.2-0.1-8,0.1-11.7c0-0.5,1.4-1.5,2.1-1.5c4.3-0.1,8.6-0.1,12.9-0.1c78.2,0,156.4,0,234.7,0
		c3,0,6.1,0,9.4,0c0,4.3,0,8.8,0,13.3C324.8,271.2,238.5,271.2,151.8,271.2z"/>
	<path d="M152,320.9c0-4.3,0-8.3,0-12.4c86.4,0,172.8,0,259.2,0c0,4,0,8.1,0,12.4C324.7,320.9,238.5,320.9,152,320.9z"/>
	<path d="M151.8,422c0-4.1,0-8.2,0-12.4c1.3-0.1,2.7-0.2,4.1-0.2c55.4,0,110.9,0,166.3,0c4.6,0,4.6,0,4.5,4.6c0,1.3-0.1,2.7,0,4
		c0,1.2,0.1,2.5,0.2,4C268.5,422,210.2,422,151.8,422z"/>
</g>
</svg>
