<?xml version="1.0" encoding="utf-8"?>
<!-- Generator: Adobe Illustrator 27.3.1, SVG Export Plug-In . SVG Version: 6.00 Build 0)  -->
<svg version="1.1" id="Layer_1" xmlns="http://www.w3.org/2000/svg" xmlns:xlink="http://www.w3.org/1999/xlink" x="0px" y="0px"
	 viewBox="0 0 400 400" style="enable-background:new 0 0 400 400;" xml:space="preserve">
<style type="text/css">
	.st0{fill:url(#SVGID_1_);}
	.st1{fill:url(#SVGID_00000089540132823707709600000015857364621428885123_);}
	.st2{fill:url(#SVGID_00000079484587710067946260000010234083316466752931_);}
	.st3{fill:url(#SVGID_00000140718832932194321290000018138078747337197494_);}
	.st4{fill:url(#SVGID_00000131366740299172710450000012484558024670589114_);}
	.st5{fill:url(#SVGID_00000089550045842965322640000017209134615046638502_);}
	.st6{fill:url(#SVGID_00000021798882580845007970000012276779149942142862_);}
	.st7{fill:url(#SVGID_00000134223535250657028060000005202333996139646907_);}
	.st8{fill:url(#SVGID_00000168080247233517231080000001672266289721693841_);}
	.st9{fill:url(#SVGID_00000126321763468953399530000014981296216308884879_);}
	.st10{fill:url(#SVGID_00000067918670188156754090000013714165520231520650_);}
	.st11{fill:url(#SVGID_00000041284593504709105630000006161306142735696808_);}
	.st12{fill:url(#SVGID_00000158738264943573316560000002436965246224001410_);}
	.st13{fill:url(#SVGID_00000039830046122196469740000001534552818798939318_);}
	.st14{fill:url(#SVGID_00000010273078780868491950000010655655948149352623_);}
	.st15{fill:#A80707;}
	.st16{fill:url(#SVGID_00000041254535705845225700000003056195319842580111_);}
	.st17{fill:url(#SVGID_00000125604036462553761390000015263685164471629701_);}
	.st18{fill:url(#SVGID_00000113331806781203089710000017018479811844689793_);}
	.st19{fill:#D36E6E;}
	.st20{fill:url(#SVGID_00000143578189942069991650000014766244870318288770_);}
	.st21{fill:url(#SVGID_00000013891828024255768010000014779265082508865437_);}
	.st22{fill:url(#SVGID_00000048500788389579336900000014548435643097382551_);}
	.st23{fill:#595959;}
	.st24{fill:url(#SVGID_00000035505120383503086520000014569863399875714185_);}
	.st25{fill:url(#SVGID_00000147900173155689525780000004416837319096406150_);}
	.st26{fill:url(#SVGID_00000003095012622388132180000002456172982692308888_);}
	.st27{fill:url(#SVGID_00000041994011711628333340000015502834621264865199_);}
	.st28{fill:url(#SVGID_00000057142244117604310050000006683030130671635336_);}
	.st29{fill:url(#SVGID_00000045578985811125690120000010373318921255255965_);}
	.st30{fill:url(#SVGID_00000088812039090711222630000005360264450863001232_);}
	.st31{fill:url(#SVGID_00000047741466719816122220000012603726365530181010_);}
	.st32{fill:url(#SVGID_00000174563807102475835760000014206135034937248959_);}
	.st33{fill:url(#SVGID_00000174578330771047680990000015923997789071515556_);}
	.st34{fill:url(#SVGID_00000173853202479464139120000017661595196278010287_);}
	.st35{fill:url(#SVGID_00000004539091584121806250000004783732401242899108_);}
	.st36{fill:url(#SVGID_00000023973690854995728070000015940337371799845270_);}
	.st37{fill:url(#SVGID_00000057148276076402287490000013925161927556888198_);}
	.st38{fill:url(#SVGID_00000109734632838426111810000011001483849515038357_);}
	.st39{fill:url(#SVGID_00000054954871198400395510000000697222392531480741_);}
	.st40{fill:url(#SVGID_00000105419013755133499610000012867497732916030637_);}
	.st41{fill:url(#SVGID_00000100341965651865136770000001301699054911482755_);}
	.st42{fill:url(#SVGID_00000145053282263328672530000010483510928206087068_);}
</style>
<g>
	<g>
		
			<linearGradient id="SVGID_1_" gradientUnits="userSpaceOnUse" x1="116.7212" y1="-4049.8784" x2="283.9359" y2="-4049.8784" gradientTransform="matrix(1 0 0 2.0828 0 8637.1064)">
			<stop  offset="0" style="stop-color:#BF0000"/>
			<stop  offset="1" style="stop-color:#BF0000"/>
		</linearGradient>
		<path class="st0" d="M282.4,75c-1.9-16.3-4.9-24.7-10.2-31.4c-2.2,0.5-4.6,0.1-6.6-1.4L246.3,28c-2-1.5-3.2-3.7-3.6-6.1
			c-0.9-0.3-1.9-0.6-2.8-0.9v17.9h-79.1V21c-1,0.3-1.9,0.6-2.8,0.9c-0.3,2.4-1.5,4.6-3.6,6.1l-19.3,14.1c-2,1.5-4.4,1.9-6.6,1.4
			c-5.3,6.8-8.3,15.2-10.2,31.4c-5,43,3.5,110.6,3.2,127.3c-1.1,88.8-1.8,142.9,4,161.6c1.1,3.6,3.9,6.5,7.8,8.9
			c0.8-0.4,1.8-0.6,3.1-0.6c6.9,0,10.2,4.5,17.8,3.2c5-0.9,6.7,3.3,7.3,6.2c4.5,0.7,9,1.2,13.3,1.6c0.7-1,1.8-1.6,3.1-1.6h44.6
			c1.3,0,2.4,0.6,3.1,1.6c3.2-0.3,6.5-0.7,9.9-1.1c0.5-2.9,2.1-7.6,7.4-6.7c7.6,1.3,11-3.2,17.8-3.2c2.1,0,3.6,0.7,4.6,1.7
			c4.8-2.6,8.3-5.9,9.6-10c5.9-18.7,5.2-72.8,4.1-161.6C278.9,185.6,287.3,118,282.4,75z"/>
		
			<linearGradient id="SVGID_00000128482226382736348350000002647663622247981998_" gradientUnits="userSpaceOnUse" x1="160.8" y1="-342.7055" x2="239.9" y2="-342.7055" gradientTransform="matrix(1 0 0 1 0 370)">
			<stop  offset="0" style="stop-color:#525956"/>
			<stop  offset="1" style="stop-color:#000000"/>
		</linearGradient>
		<path style="fill:url(#SVGID_00000128482226382736348350000002647663622247981998_);" d="M239.9,38.9V21c-22.6-7-56.5-7-79.1,0
			v17.9H239.9z"/>
		
			<radialGradient id="SVGID_00000160873045969455915680000008435834747134858687_" cx="200.3747" cy="-5854.2212" r="82.5849" gradientTransform="matrix(1 0 0 3.8388 0 22671.0586)" gradientUnits="userSpaceOnUse">
			<stop  offset="0.2445" style="stop-color:#BF0000"/>
			<stop  offset="1" style="stop-color:#C95555"/>
		</radialGradient>
		<path style="fill:url(#SVGID_00000160873045969455915680000008435834747134858687_);" d="M277.5,77.6c-3.1-27-9.2-31.5-24.4-44.2
			c-20.6-17.2-84.8-17.2-105.4,0c-15.2,12.7-21.4,17.2-24.4,44.2c-4.7,41.4,3.2,106.5,3.1,122.5c-1,85.5-1.7,137.6,3.8,155.6
			c6.4,20.8,70.3,19.6,70.3,19.6s63.9,1.1,70.3-19.6c5.5-18,4.8-70.1,3.8-155.6C274.2,184.1,282.1,119,277.5,77.6z"/>
		
			<linearGradient id="SVGID_00000163032595299346181180000007952594901755891633_" gradientUnits="userSpaceOnUse" x1="142.4" y1="-197.3806" x2="258.2" y2="-197.3806" gradientTransform="matrix(1 0 0 1 0 370)">
			<stop  offset="0" style="stop-color:#000000"/>
			<stop  offset="1" style="stop-color:#1B1C1C"/>
		</linearGradient>
		<path style="fill:url(#SVGID_00000163032595299346181180000007952594901755891633_);" d="M168.9,166.9
			c-13.4,1.9-22.9,5.6-26.5,7.1l1,5.9c0,0,10.4-5.4,26.8-7.8c14.1-2.1,46.1-2.1,60.2,0c16.3,2.4,26.8,7.8,26.8,7.8l1-5.9
			c-3.5-1.5-13.1-5.2-26.5-7.1C217.1,164.9,183.6,164.9,168.9,166.9z"/>
		
			<linearGradient id="SVGID_00000120549696042313099260000015557788736891125913_" gradientUnits="userSpaceOnUse" x1="133.1938" y1="-255.4805" x2="267.2487" y2="-255.4805" gradientTransform="matrix(1 0 0 1 0 370)">
			<stop  offset="0" style="stop-color:#000000"/>
			<stop  offset="1" style="stop-color:#1B1C1C"/>
		</linearGradient>
		<path style="fill:url(#SVGID_00000120549696042313099260000015557788736891125913_);" d="M138.3,122.5c5.2-2.3,14.2-6,28.3-9.1
			c20.3-4.4,47.2-4.4,67.4,0c14.1,3.1,23.1,6.8,28.3,9.1c2.3,1,3.7,1.8,4.4,2.6v-0.2c0,0,1-4.3,0.3-5.4c-0.5-1-2.1-1.9-4.8-3.1
			c-5.2-2.3-14.2-6-28.3-9.1c-20.3-4.4-47.2-4.4-67.4,0c-14.1,3.1-23.1,6.8-28.3,9.1c-2.7,1.2-4.3,2.1-4.8,3.1
			c-0.6,1.1,0.3,5.4,0.3,5.4v0.2C134.6,124.3,136,123.5,138.3,122.5z"/>
		
			<linearGradient id="SVGID_00000120548105574176598420000001831229016042960809_" gradientUnits="userSpaceOnUse" x1="133.8523" y1="-227.9805" x2="266.821" y2="-227.9805" gradientTransform="matrix(1 0 0 1 0 370)">
			<stop  offset="0" style="stop-color:#363B39"/>
			<stop  offset="1" style="stop-color:#1B1C1C"/>
		</linearGradient>
		<path style="fill:url(#SVGID_00000120548105574176598420000001831229016042960809_);" d="M168.9,166.9c14.7-2.1,48.2-2.1,62.9,0
			c13.4,1.9,22.9,5.6,26.5,7.1l8.6-48.9c-0.7-0.8-2.2-1.6-4.4-2.6c-5.2-2.3-14.2-6-28.3-9.1c-20.3-4.4-47.2-4.4-67.4,0
			c-14.1,3.1-23.1,6.8-28.3,9.1c-2.3,1-3.7,1.8-4.4,2.6l8.6,48.9C146,172.5,155.5,168.8,168.9,166.9z"/>
		
			<linearGradient id="SVGID_00000165201927169916228550000016225396525525375135_" gradientUnits="userSpaceOnUse" x1="128.718" y1="-180.1306" x2="141.818" y2="-180.1306" gradientTransform="matrix(1 0 0 1 0 370)">
			<stop  offset="0" style="stop-color:#363B39"/>
			<stop  offset="1" style="stop-color:#1B1C1C"/>
		</linearGradient>
		<path style="fill:url(#SVGID_00000165201927169916228550000016225396525525375135_);" d="M130.6,251.8l11.3,4.6l-1.9-60.9
			l-10.8-72.1c0,0-0.9,18.5,0,45c0.6,16.8,2.3,39.9,2.2,54.7C131.3,237.3,130.9,246.9,130.6,251.8z"/>
		
			<linearGradient id="SVGID_00000075138296968984884190000011967709627824912575_" gradientUnits="userSpaceOnUse" x1="258.8476" y1="-180.1806" x2="271.9476" y2="-180.1806" gradientTransform="matrix(1 0 0 1 0 370)">
			<stop  offset="0" style="stop-color:#363B39"/>
			<stop  offset="1" style="stop-color:#1B1C1C"/>
		</linearGradient>
		<path style="fill:url(#SVGID_00000075138296968984884190000011967709627824912575_);" d="M270.1,251.7l-11.3,4.6l1.9-60.8
			l10.8-72.1c0,0,0.9,18.5,0,45c-0.6,16.8-2.3,39.8-2.2,54.7C269.3,237.2,269.7,247,270.1,251.7z"/>
		
			<linearGradient id="SVGID_00000114052134016420291990000002954492225199200187_" gradientUnits="userSpaceOnUse" x1="129.6513" y1="-68.2306" x2="143.2034" y2="-68.2306" gradientTransform="matrix(1 0 0 1 0 370)">
			<stop  offset="0" style="stop-color:#363B39"/>
			<stop  offset="1" style="stop-color:#1B1C1C"/>
		</linearGradient>
		<path style="fill:url(#SVGID_00000114052134016420291990000002954492225199200187_);" d="M130.2,257.4l11.7,5.9l1.3,50.9
			c0,0-1,6.3-5.4,16.8c-5,11.9-7.6,15.2-7.6,15.2S128.9,276.5,130.2,257.4z"/>
		
			<linearGradient id="SVGID_00000019659946855783658060000004973612843254368701_" gradientUnits="userSpaceOnUse" x1="257.4724" y1="-68.2805" x2="271.0233" y2="-68.2805" gradientTransform="matrix(1 0 0 1 0 370)">
			<stop  offset="0" style="stop-color:#363B39"/>
			<stop  offset="1" style="stop-color:#1B1C1C"/>
		</linearGradient>
		<path style="fill:url(#SVGID_00000019659946855783658060000004973612843254368701_);" d="M270.5,257.4l-11.7,5.9l-1.3,50.9
			c0,0,1,6.3,5.4,16.7c5,11.9,7.6,15.2,7.6,15.2S271.7,276.4,270.5,257.4z"/>
		
			<linearGradient id="SVGID_00000028320442483867385760000015485495363733378718_" gradientUnits="userSpaceOnUse" x1="133.4" y1="22.1306" x2="161.6" y2="22.1306" gradientTransform="matrix(1 0 0 -1 0 399)">
			<stop  offset="0" style="stop-color:#5E5E5E"/>
			<stop  offset="1" style="stop-color:#000000"/>
		</linearGradient>
		<path style="fill:url(#SVGID_00000028320442483867385760000015485495363733378718_);" d="M154.3,375.4c-7.6,1.3-11-3.2-17.8-3.2
			c-1.2,0-2.2,0.2-3.1,0.6c7,4.4,17.5,7.1,28.2,8.8C161,378.7,159.3,374.5,154.3,375.4z"/>
		
			<linearGradient id="SVGID_00000132077182102101799790000011056991839791423142_" gradientUnits="userSpaceOnUse" x1="235.6" y1="21.8806" x2="265.4" y2="21.8806" gradientTransform="matrix(1 0 0 -1 0 399)">
			<stop  offset="0" style="stop-color:#5E5E5E"/>
			<stop  offset="1" style="stop-color:#000000"/>
		</linearGradient>
		<path style="fill:url(#SVGID_00000132077182102101799790000011056991839791423142_);" d="M243,375.4c-5.3-0.9-6.9,3.8-7.4,6.7
			c10.9-1.5,22.1-4,29.8-8.2c-1-1-2.5-1.7-4.6-1.7C254,372.2,250.7,376.7,243,375.4z"/>
		
			<radialGradient id="SVGID_00000040574324076401236360000018140874167032599480_" cx="154.3331" cy="-296.1805" r="21.9919" gradientTransform="matrix(1 0 0 1 0 370)" gradientUnits="userSpaceOnUse">
			<stop  offset="0" style="stop-color:#D36E6E"/>
			<stop  offset="1" style="stop-color:#D88888"/>
		</radialGradient>
		<path style="fill:url(#SVGID_00000040574324076401236360000018140874167032599480_);" d="M146.7,104c0,0,13.1-23.8,14.8-32.7
			c1.4-6.8-0.8-27.6-0.8-27.6s-1.4,19.9-2.8,26.4C156.1,78.8,146.7,104,146.7,104z"/>
		
			<radialGradient id="SVGID_00000026853470989865908320000001474404326400794244_" cx="246.4669" cy="-296.1805" r="21.9919" gradientTransform="matrix(1 0 0 1 0 370)" gradientUnits="userSpaceOnUse">
			<stop  offset="0" style="stop-color:#D36E6E"/>
			<stop  offset="1" style="stop-color:#D88888"/>
		</radialGradient>
		<path style="fill:url(#SVGID_00000026853470989865908320000001474404326400794244_);" d="M254.1,104c0,0-13-23.8-14.8-32.7
			c-1.4-6.8,0.8-27.6,0.8-27.6s1.4,19.9,2.8,26.4C244.7,78.8,254.1,104,254.1,104z"/>
		
			<linearGradient id="SVGID_00000044860623445224785730000005430932171834436480_" gradientUnits="userSpaceOnUse" x1="200.0951" y1="-241.3025" x2="237.3298" y2="-214.8264" gradientTransform="matrix(1 0 0 1 0 370)">
			<stop  offset="0" style="stop-color:#363B39"/>
			<stop  offset="1" style="stop-color:#000000"/>
		</linearGradient>
		<path style="fill:url(#SVGID_00000044860623445224785730000005430932171834436480_);" d="M262.4,122.5c-5.2-2.3-14.2-6-28.3-9.1
			c-4.9-1.1-10.3-1.9-15.8-2.4c-14.2,15.3-31.1,43.1-38,54.9c16.6-1,39.9-0.6,51.6,1c13.4,1.9,22.9,5.6,26.5,7.1l8.6-48.9
			C266.1,124.3,264.6,123.5,262.4,122.5z"/>
		<path class="st15" d="M200.3,172.6c-41.3-0.9-55.2,10-55.2,10s0.5,154.1,3.7,164c2.1,6.7,28.2,4.3,44.7,5.5h13.6
			c16.5-1.2,42.5,1.3,44.7-5.5c3.2-9.9,3.7-164,3.7-164S241.6,171.7,200.3,172.6z"/>
		
			<linearGradient id="SVGID_00000090997967084830620050000001730846929679721370_" gradientUnits="userSpaceOnUse" x1="113.3085" y1="-372.5503" x2="148.8091" y2="-270.3246" gradientTransform="matrix(1 0 0 1 0 370)">
			<stop  offset="0" style="stop-color:#D88888"/>
			<stop  offset="1" style="stop-color:#D36E6E"/>
		</linearGradient>
		<path style="fill:url(#SVGID_00000090997967084830620050000001730846929679721370_);" d="M154.4,31.2c0,0-24.9,12.6-27.5,40.5
			c-2.7,28.5-2.3,42.9-2.3,42.9S133.1,46.3,154.4,31.2z"/>
		
			<linearGradient id="SVGID_00000162321078019085684180000008983609955308144278_" gradientUnits="userSpaceOnUse" x1="-2550.6946" y1="-372.5551" x2="-2515.1941" y2="-270.3293" gradientTransform="matrix(-1 0 0 1 -2263.2014 370)">
			<stop  offset="0" style="stop-color:#D88888"/>
			<stop  offset="1" style="stop-color:#D36E6E"/>
		</linearGradient>
		<path style="fill:url(#SVGID_00000162321078019085684180000008983609955308144278_);" d="M246.4,31.2c0,0,24.9,12.6,27.5,40.5
			c2.7,28.5,2.3,42.9,2.3,42.9S267.7,46.3,246.4,31.2z"/>
		
			<linearGradient id="SVGID_00000077311775748271275560000014637692204132598697_" gradientUnits="userSpaceOnUse" x1="269.6227" y1="-240.6615" x2="283.9242" y2="-212.9713" gradientTransform="matrix(1 0 0 1 0 370)">
			<stop  offset="0" style="stop-color:#363B39"/>
			<stop  offset="1" style="stop-color:#1B1C1C"/>
		</linearGradient>
		<path style="fill:url(#SVGID_00000077311775748271275560000014637692204132598697_);" d="M271.1,127.1c0,0,6.4,1.3,6.6,6.8
			c0.1,5.5-6.4,16.7-6.6,9.6C270.9,136.5,270.5,129.3,271.1,127.1z"/>
		<path class="st19" d="M294.5,139.2c-0.1-3.5-16.8-8-17.3-6.7c-3.6,0-4.1,2.7-3.7,4.5c7.9-0.8,15.2,1.4,20.5,5.3
			C294.5,141.5,295,140.5,294.5,139.2z"/>
		
			<linearGradient id="SVGID_00000094600038499991986480000000205355494443475074_" gradientUnits="userSpaceOnUse" x1="273.0533" y1="-229.9277" x2="294.5772" y2="-229.9277" gradientTransform="matrix(1 0 0 1 0 370)">
			<stop  offset="0" style="stop-color:#363B39"/>
			<stop  offset="1" style="stop-color:#1B1C1C"/>
		</linearGradient>
		<path style="fill:url(#SVGID_00000094600038499991986480000000205355494443475074_);" d="M273.1,137c0.2,1.3,0.6,2.3,0.6,2.3
			c7.4-1.1,14.4,0.7,19.8,4.1c0,0,0.4-0.4,0.9-1C288.8,138.4,281.2,136.1,273.1,137z"/>
		
			<linearGradient id="SVGID_00000011016176449894825030000016305055958060844167_" gradientUnits="userSpaceOnUse" x1="-2460.1792" y1="-240.6615" x2="-2445.8777" y2="-212.9715" gradientTransform="matrix(-1 0 0 1 -2329.802 370)">
			<stop  offset="0" style="stop-color:#363B39"/>
			<stop  offset="1" style="stop-color:#1B1C1C"/>
		</linearGradient>
		<path style="fill:url(#SVGID_00000011016176449894825030000016305055958060844167_);" d="M128.9,127.1c0,0-6.4,1.3-6.6,6.8
			c-0.1,5.5,6.4,16.7,6.6,9.6C129.1,136.5,129.5,129.3,128.9,127.1z"/>
		<path class="st19" d="M105.5,139.2c0.1-3.5,16.8-8,17.3-6.7c3.6,0,4.1,2.7,3.7,4.5c-7.9-0.8-15.2,1.4-20.5,5.3
			C105.5,141.5,105,140.5,105.5,139.2z"/>
		
			<linearGradient id="SVGID_00000129898939416853479780000017381981798308951703_" gradientUnits="userSpaceOnUse" x1="-2456.7485" y1="-229.9277" x2="-2435.2251" y2="-229.9277" gradientTransform="matrix(-1 0 0 1 -2329.802 370)">
			<stop  offset="0" style="stop-color:#363B39"/>
			<stop  offset="1" style="stop-color:#1B1C1C"/>
		</linearGradient>
		<path style="fill:url(#SVGID_00000129898939416853479780000017381981798308951703_);" d="M126.9,137c-0.2,1.3-0.6,2.3-0.6,2.3
			c-7.4-1.1-14.4,0.7-19.8,4.1c0,0-0.4-0.4-0.9-1C111.2,138.4,118.8,136.1,126.9,137z"/>
		<path class="st23" d="M121.7,199.7c-0.9,0-1.7,0.8-1.7,1.7v14.2c0,0.9,0.8,1.7,1.7,1.7V199.7z"/>
		<path class="st23" d="M120.9,270.8c-0.9,0-1.7,0.8-1.7,1.7v14.2c0,1,0.8,1.7,1.7,1.7V270.8z"/>
		<path class="st23" d="M278.9,199.7c1,0,1.7,0.8,1.7,1.7v14.2c0,0.9-0.8,1.7-1.7,1.7V199.7z"/>
		<path class="st23" d="M279.8,270.8c1,0,1.7,0.8,1.7,1.7v14.2c0,1-0.8,1.7-1.7,1.7V270.8z"/>
		<g>
			<g>
				
					<linearGradient id="SVGID_00000023987986551885928180000008442400876565911960_" gradientUnits="userSpaceOnUse" x1="162.6" y1="301.5305" x2="170.3" y2="301.5305" gradientTransform="matrix(1 0 0 -1 0 399)">
					<stop  offset="1.117318e-02" style="stop-color:#C95555"/>
					<stop  offset="1" style="stop-color:#C95555"/>
				</linearGradient>
				<path style="fill:url(#SVGID_00000023987986551885928180000008442400876565911960_);" d="M163,98.9c2.8-0.2,4.1-1.8,6.9-2
					c0.2,0,0.4-0.2,0.4-0.4c0-0.2-0.2-0.4-0.4-0.4c-2.8,0.2-4.1,1.8-6.9,2c-0.2,0-0.4,0.2-0.4,0.4S162.8,98.9,163,98.9z"/>
				
					<linearGradient id="SVGID_00000057861747483563421270000008678616680658140554_" gradientUnits="userSpaceOnUse" x1="162.6" y1="299.9305" x2="170.3" y2="299.9305" gradientTransform="matrix(1 0 0 -1 0 399)">
					<stop  offset="1.117318e-02" style="stop-color:#C95555"/>
					<stop  offset="1" style="stop-color:#C95555"/>
				</linearGradient>
				<path style="fill:url(#SVGID_00000057861747483563421270000008678616680658140554_);" d="M169.9,97.7c-2.8,0.2-4.1,1.8-6.9,2
					c-0.2,0-0.4,0.2-0.4,0.4c0,0.2,0.2,0.4,0.4,0.4c2.8-0.2,4.1-1.8,6.9-2c0.2,0,0.4-0.2,0.4-0.4S170.1,97.7,169.9,97.7z"/>
				
					<linearGradient id="SVGID_00000127738034816192916580000001319922647599252888_" gradientUnits="userSpaceOnUse" x1="162.6" y1="298.3305" x2="170.3" y2="298.3305" gradientTransform="matrix(1 0 0 -1 0 399)">
					<stop  offset="1.117318e-02" style="stop-color:#C95555"/>
					<stop  offset="1" style="stop-color:#C95555"/>
				</linearGradient>
				<path style="fill:url(#SVGID_00000127738034816192916580000001319922647599252888_);" d="M169.9,99.3c-2.8,0.2-4.1,1.8-6.9,2
					c-0.2,0-0.4,0.2-0.4,0.4c0,0.2,0.2,0.4,0.4,0.4c2.8-0.2,4.1-1.8,6.9-2c0.2,0,0.4-0.2,0.4-0.4S170.1,99.3,169.9,99.3z"/>
			</g>
		</g>
		<g>
			<g>
				
					<linearGradient id="SVGID_00000087373346969813714060000013102815959950965183_" gradientUnits="userSpaceOnUse" x1="230.2999" y1="301.5305" x2="238" y2="301.5305" gradientTransform="matrix(1 0 0 -1 0 399)">
					<stop  offset="1.117318e-02" style="stop-color:#C95555"/>
					<stop  offset="1" style="stop-color:#C95555"/>
				</linearGradient>
				<path style="fill:url(#SVGID_00000087373346969813714060000013102815959950965183_);" d="M237.6,98.9c-2.8-0.2-4.1-1.8-6.9-2
					c-0.2,0-0.4-0.2-0.4-0.4c0-0.2,0.2-0.4,0.4-0.4c2.8,0.2,4.1,1.8,6.9,2c0.2,0,0.4,0.2,0.4,0.4S237.8,98.9,237.6,98.9z"/>
				
					<linearGradient id="SVGID_00000075874907082169780890000018186171230728181664_" gradientUnits="userSpaceOnUse" x1="230.3" y1="299.9305" x2="238.0001" y2="299.9305" gradientTransform="matrix(1 0 0 -1 0 399)">
					<stop  offset="1.117318e-02" style="stop-color:#C95555"/>
					<stop  offset="1" style="stop-color:#C95555"/>
				</linearGradient>
				<path style="fill:url(#SVGID_00000075874907082169780890000018186171230728181664_);" d="M230.7,97.7c2.8,0.2,4.1,1.8,6.9,2
					c0.2,0,0.4,0.2,0.4,0.4c0,0.2-0.2,0.4-0.4,0.4c-2.8-0.2-4.1-1.8-6.9-2c-0.2,0-0.4-0.2-0.4-0.4S230.5,97.7,230.7,97.7z"/>
				
					<linearGradient id="SVGID_00000057112083892017099880000012666792963696337280_" gradientUnits="userSpaceOnUse" x1="230.3" y1="298.3305" x2="238.0001" y2="298.3305" gradientTransform="matrix(1 0 0 -1 0 399)">
					<stop  offset="1.117318e-02" style="stop-color:#C95555"/>
					<stop  offset="1" style="stop-color:#C95555"/>
				</linearGradient>
				<path style="fill:url(#SVGID_00000057112083892017099880000012666792963696337280_);" d="M230.7,99.3c2.8,0.2,4.1,1.8,6.9,2
					c0.2,0,0.4,0.2,0.4,0.4c0,0.2-0.2,0.4-0.4,0.4c-2.8-0.2-4.1-1.8-6.9-2c-0.2,0-0.4-0.2-0.4-0.4S230.5,99.3,230.7,99.3z"/>
			</g>
		</g>
		
			<linearGradient id="SVGID_00000078743375751055829870000002023820303219057343_" gradientUnits="userSpaceOnUse" x1="174.9" y1="12.925" x2="225.8" y2="12.925" gradientTransform="matrix(1 0 0 1 0 370)">
			<stop  offset="0" style="stop-color:#363B39"/>
			<stop  offset="1" style="stop-color:#000000"/>
		</linearGradient>
		<path style="fill:url(#SVGID_00000078743375751055829870000002023820303219057343_);" d="M222.6,381.6H178c-1.3,0-2.4,0.6-3.1,1.6
			c14,1.3,25.5,1.1,25.5,1.1s11.4,0.2,25.4-1.1C225,382.2,223.9,381.6,222.6,381.6z"/>
		
			<radialGradient id="SVGID_00000114787818747569778330000000750988788731928764_" cx="257.4" cy="-334.5805" r="14.1629" gradientTransform="matrix(1 0 0 1 0 370)" gradientUnits="userSpaceOnUse">
			<stop  offset="0" style="stop-color:#F2BBBB"/>
			<stop  offset="0.2147" style="stop-color:#EEB1B1"/>
			<stop  offset="0.5853" style="stop-color:#E39595"/>
			<stop  offset="1" style="stop-color:#D36E6E"/>
		</radialGradient>
		<path style="fill:url(#SVGID_00000114787818747569778330000000750988788731928764_);" d="M253,33.5c7.1,5.9,12.2,10,15.9,15.5
			c1-1.3,1.5-5.1,3.2-5.4c-3.9-4.9-9-8.9-15.7-14.5c-3.5-2.9-8.2-5.2-13.7-7.2c0.2,1.5,0.8,4.2,1.8,6.4
			C247.8,29.8,250.7,31.5,253,33.5z"/>
		
			<radialGradient id="SVGID_00000168834878970919417810000011532388648478103459_" cx="-2481.4717" cy="-334.5805" r="14.1512" gradientTransform="matrix(-1 0 0 1 -2338.1077 370)" gradientUnits="userSpaceOnUse">
			<stop  offset="0" style="stop-color:#F2BBBB"/>
			<stop  offset="0.2147" style="stop-color:#EEB1B1"/>
			<stop  offset="0.5853" style="stop-color:#E39595"/>
			<stop  offset="1" style="stop-color:#D36E6E"/>
		</radialGradient>
		<path style="fill:url(#SVGID_00000168834878970919417810000011532388648478103459_);" d="M147.7,33.5c-7.1,5.9-12.2,10-15.9,15.5
			c-1-1.3-1.5-5.1-3.2-5.4c3.9-4.9,9-8.9,15.7-14.5c3.5-2.9,8.2-5.2,13.7-7.2c-0.2,1.5-0.8,4.2-1.8,6.4
			C153,29.8,150.1,31.5,147.7,33.5z"/>
		
			<linearGradient id="SVGID_00000079467084806603458870000015396941824848519570_" gradientUnits="userSpaceOnUse" x1="129.6527" y1="-84.0806" x2="142.4627" y2="-84.0806" gradientTransform="matrix(1 0 0 1 0 370)">
			<stop  offset="0" style="stop-color:#363B39"/>
			<stop  offset="1" style="stop-color:#000000"/>
		</linearGradient>
		<path style="fill:url(#SVGID_00000079467084806603458870000015396941824848519570_);" d="M141.9,263.3l-11.7-5.9
			c-0.7,10.4-0.6,36.1-0.4,57.1c5.6-6.5,10-16.8,12.7-29.2L141.9,263.3z"/>
		
			<linearGradient id="SVGID_00000180343421215947155820000008325936375380834744_" gradientUnits="userSpaceOnUse" x1="128.718" y1="-195.1306" x2="140.2739" y2="-195.1306" gradientTransform="matrix(1 0 0 1 0 370)">
			<stop  offset="0" style="stop-color:#363B39"/>
			<stop  offset="1" style="stop-color:#000000"/>
		</linearGradient>
		<path style="fill:url(#SVGID_00000180343421215947155820000008325936375380834744_);" d="M131.3,226.4c3.6-5.1,6.6-11.4,8.9-18.7
			l-0.4-12.2L129,123.4c0,0-0.9,18.5,0,45c0.6,16.8,2.3,39.9,2.2,54.7C131.4,224.3,131.4,225.4,131.3,226.4z"/>
		
			<linearGradient id="SVGID_00000054980752873837204490000015476991843514432163_" gradientUnits="userSpaceOnUse" x1="-2605.4746" y1="-84.1805" x2="-2592.6624" y2="-84.1805" gradientTransform="matrix(-1 0 0 1 -2334.1272 370)">
			<stop  offset="0" style="stop-color:#363B39"/>
			<stop  offset="1" style="stop-color:#000000"/>
		</linearGradient>
		<path style="fill:url(#SVGID_00000054980752873837204490000015476991843514432163_);" d="M259.1,263.2l11.7-5.9
			c0.7,10.4,0.6,36,0.4,57.1c-5.6-6.5-10-16.8-12.7-29.2L259.1,263.2z"/>
		
			<linearGradient id="SVGID_00000049937938930580919560000002134479760691423118_" gradientUnits="userSpaceOnUse" x1="-2606.4006" y1="-195.0806" x2="-2594.8447" y2="-195.0806" gradientTransform="matrix(-1 0 0 1 -2334.1272 370)">
			<stop  offset="0" style="stop-color:#363B39"/>
			<stop  offset="1" style="stop-color:#000000"/>
		</linearGradient>
		<path style="fill:url(#SVGID_00000049937938930580919560000002134479760691423118_);" d="M269.6,226.4c-3.6-5.1-6.6-11.4-8.9-18.6
			l0.4-12.2l10.8-72.1c0,0,0.9,18.5,0,45c-0.6,16.8-2.3,39.8-2.2,54.7C269.6,224.2,269.6,225.3,269.6,226.4z"/>
		
			<linearGradient id="SVGID_00000004546047169016835340000002897068637239732639_" gradientUnits="userSpaceOnUse" x1="180.2" y1="-303.0305" x2="216.2" y2="-303.0305" gradientTransform="matrix(1 0 0 1 0 370)">
			<stop  offset="1.117318e-02" style="stop-color:#C95555"/>
			<stop  offset="1" style="stop-color:#C95555"/>
		</linearGradient>
		
			<rect x="180.2" y="66.2" style="fill:url(#SVGID_00000004546047169016835340000002897068637239732639_);" width="36" height="1.6"/>
		
			<linearGradient id="SVGID_00000145046732709770884880000004319523338158772636_" gradientUnits="userSpaceOnUse" x1="180.2" y1="-299.1306" x2="216.2" y2="-299.1306" gradientTransform="matrix(1 0 0 1 0 370)">
			<stop  offset="1.117318e-02" style="stop-color:#C95555"/>
			<stop  offset="1" style="stop-color:#C95555"/>
		</linearGradient>
		
			<rect x="180.2" y="70.1" style="fill:url(#SVGID_00000145046732709770884880000004319523338158772636_);" width="36" height="1.6"/>
		
			<linearGradient id="SVGID_00000041284695829193351130000006308467717695650239_" gradientUnits="userSpaceOnUse" x1="180.2" y1="-295.2306" x2="216.2" y2="-295.2306" gradientTransform="matrix(1 0 0 1 0 370)">
			<stop  offset="1.117318e-02" style="stop-color:#C95555"/>
			<stop  offset="1" style="stop-color:#C95555"/>
		</linearGradient>
		<rect x="180.2" y="74" style="fill:url(#SVGID_00000041284695829193351130000006308467717695650239_);" width="36" height="1.6"/>
		
			<linearGradient id="SVGID_00000070101026236231493090000011431007787802870199_" gradientUnits="userSpaceOnUse" x1="180.2" y1="-291.2306" x2="216.2" y2="-291.2306" gradientTransform="matrix(1 0 0 1 0 370)">
			<stop  offset="1.117318e-02" style="stop-color:#C95555"/>
			<stop  offset="1" style="stop-color:#C95555"/>
		</linearGradient>
		<rect x="180.2" y="78" style="fill:url(#SVGID_00000070101026236231493090000011431007787802870199_);" width="36" height="1.6"/>
		<g>
			
				<linearGradient id="SVGID_00000182504870031266560610000006238547183971454114_" gradientUnits="userSpaceOnUse" x1="143.2778" y1="-9.6177" x2="257.016" y2="-9.6177" gradientTransform="matrix(1 0 0 1 0 370)">
				<stop  offset="0" style="stop-color:#363B39"/>
				<stop  offset="1" style="stop-color:#1B1C1C"/>
			</linearGradient>
			<path style="fill:url(#SVGID_00000182504870031266560610000006238547183971454114_);" d="M148.7,343.7
				c-4.8,11.1-5.4,22.1-5.4,22.2c-0.6,2.7,11,5.1,27.7,8.7c12.8,3.3,45.8,3.4,58.5,0.1c16.7-3.5,28-5.8,27.5-9.2
				c0,0-0.3-10.4-5-21.4c-8.6,3.1-25.4,8.4-51.7,8.5C175.8,352.5,157.9,347.1,148.7,343.7z"/>
			
				<linearGradient id="SVGID_00000006678279166962663470000008558053622424437927_" gradientUnits="userSpaceOnUse" x1="182.3802" y1="-46.7833" x2="206.8639" y2="-9.239" gradientTransform="matrix(1 0 0 1 0 370)">
				<stop  offset="0" style="stop-color:#5E5E5E"/>
				<stop  offset="1" style="stop-color:#000000"/>
			</linearGradient>
			<path style="fill:url(#SVGID_00000006678279166962663470000008558053622424437927_);" d="M253,343.8c-8.6,3.2-25.4,8.5-51.7,8.6
				c-5.4,0-10.4-0.2-15.1-0.7c-15,3.6-26.9,16.5-29.7,19.6c4.2,1.4,9.8,2,15.6,3.2c12.8,3.3,45.8,3.2,58.5-0.1
				c16.7-3.6,27.5-9.3,27.4-9.3C258.6,366.8,257.7,354.9,253,343.8z"/>
		</g>
	</g>
</g>
</svg>
