<svg width="269" height="219" viewBox="0 0 269 219" fill="none" xmlns="http://www.w3.org/2000/svg">
<path d="M199.412 143.903C200.066 142.594 200.667 141.339 201.376 139.974C197.829 140.411 194.446 140.847 191.062 141.284C187.461 141.775 183.859 142.266 180.257 142.757C176.001 143.303 171.744 143.849 167.488 144.504C166.669 144.613 165.578 144.285 164.977 145.322C164.977 145.377 164.868 145.322 164.759 145.377C164.814 145.213 164.868 145.049 164.977 144.776C135.946 148.596 106.969 152.416 77.8823 156.236C80.6109 159.511 83.394 162.403 86.5045 164.968C88.5782 166.659 90.8156 168.187 92.9984 169.77C94.2536 170.643 95.4541 171.516 96.7093 172.389C96.9275 172.498 97.1458 172.662 97.3641 172.662C97.6915 172.662 98.019 172.498 98.3464 172.444C98.3464 172.498 98.401 172.608 98.401 172.662C98.2918 172.826 98.1281 172.935 97.9644 173.153C102.603 175.882 107.514 177.956 112.589 179.593C117.61 181.23 122.794 182.212 128.087 182.54C132.017 182.812 136 182.649 139.929 182.649C140.148 182.649 140.366 182.376 140.584 182.212C140.639 182.158 140.748 182.158 140.857 182.103V182.649C141.839 182.54 142.712 182.321 143.64 182.321C144.459 182.321 145.059 182.048 145.386 181.23C145.332 181.503 145.332 181.776 145.277 182.103C146.15 181.994 147.024 181.83 147.897 181.666C148.115 181.612 148.333 181.284 148.552 181.284C150.025 181.503 150.844 181.121 151.335 179.811C151.335 179.756 151.444 179.756 151.498 179.756C151.717 180.793 151.717 180.848 152.754 180.575C154.009 180.248 155.264 179.92 156.464 179.538C157.501 179.156 158.865 179.265 159.193 177.683C159.302 177.737 159.357 177.846 159.466 177.901C159.357 178.174 159.247 178.392 159.084 178.72C176.819 172.28 190.025 160.711 199.193 144.449C198.975 144.231 198.757 144.067 198.593 143.958C198.593 143.903 198.648 143.849 198.702 143.794C198.92 143.685 199.139 143.794 199.412 143.903ZM96.0544 165.131C96.3273 165.459 96.5455 165.732 96.7638 166.059C96.873 165.732 96.9275 165.404 96.9821 165.131C97.255 165.459 97.4733 165.732 97.8007 166.114C96.4364 166.714 96.2727 166.605 96.0544 165.131ZM97.1458 158.856C96.7093 158.583 96.3273 158.146 95.9453 157.764C95.9998 157.71 96.0544 157.601 96.1636 157.546C96.8184 157.873 97.4187 158.201 98.2372 158.583C97.7461 158.747 97.3641 158.965 97.1458 158.856ZM122.248 165.95C122.248 165.95 121.266 169.443 120.83 170.588C120.284 169.77 118.265 166.496 118.265 166.496C118.265 166.496 114.39 166.605 113.353 166.605C114.445 165.241 115.372 164.04 116.3 162.894C115.864 161.311 115.427 159.838 114.99 158.255C115.809 158.528 119.356 159.783 119.356 159.783C119.356 159.783 122.521 157.71 123.285 157.164C123.285 157.437 123.34 157.601 123.34 157.764C123.285 158.965 123.231 161.311 123.231 161.311L123.122 162.294C123.122 162.294 126.178 164.095 127.051 164.749C125.85 165.077 122.248 165.95 122.248 165.95ZM145.223 167.423C145.223 167.423 143.695 172.717 143.149 174.408C142.276 173.153 139.329 168.242 139.329 168.242C139.329 168.242 133.49 168.351 131.907 168.351C133.49 166.332 134.963 164.477 136.328 162.785C135.673 160.438 135.018 158.201 134.363 155.8C135.564 156.236 140.966 158.092 140.966 158.092C140.966 158.092 145.714 154.927 146.86 154.163C146.86 154.545 146.914 154.818 146.914 155.036C146.86 156.837 146.751 160.384 146.751 160.384L146.532 161.857C146.532 161.857 151.116 164.586 152.426 165.568C150.625 166.114 145.223 167.423 145.223 167.423ZM164.977 160.275C164.977 160.275 163.995 163.767 163.613 164.913C163.067 164.095 161.048 160.82 161.048 160.82C161.048 160.82 157.174 160.929 156.137 160.929C157.228 159.565 158.156 158.365 159.084 157.219C158.647 155.636 158.211 154.163 157.774 152.58C158.593 152.853 162.14 154.108 162.14 154.108C162.14 154.108 165.305 152.034 166.069 151.489C166.069 151.762 166.123 151.925 166.123 152.089C166.069 153.29 166.014 155.636 166.014 155.636L165.905 156.618C165.905 156.618 168.961 158.419 169.834 159.074C168.579 159.401 164.977 160.275 164.977 160.275Z" fill="#437AA7"/>
<path d="M188.498 59.2639C183.095 53.534 176.983 48.6772 170.107 44.8572C163.286 41.0918 156.082 38.4179 148.388 36.999C146.642 36.6716 144.841 36.617 143.095 36.3988C141.84 36.235 140.584 36.0168 139.329 35.853C139.056 35.7985 138.784 36.0168 138.784 36.0168C138.347 35.853 138.02 35.6893 137.747 35.6893C134.254 35.7985 130.762 35.853 127.269 36.0713C122.521 36.3442 117.883 37.4902 113.354 38.7999C106.86 40.6553 100.802 43.493 95.1269 47.0946C89.0149 51.0237 83.5578 55.7168 78.8102 61.2831C78.9739 61.6105 79.1376 61.8833 79.3013 62.2108C79.2467 62.2108 79.1922 62.2653 79.1922 62.2653C78.9739 62.1016 78.7556 61.8833 78.5373 61.7196C74.1717 66.8493 70.6246 72.4155 67.7323 78.582C71.0611 78.1455 74.2262 77.7089 77.4459 77.3269C80.5564 76.9449 83.667 76.5083 86.7775 76.1263C89.9426 75.6898 93.1623 75.3078 96.3274 74.8712C99.4925 74.4346 102.658 73.9981 105.768 73.6161C108.933 73.1795 112.153 72.7975 115.318 72.4155C118.483 71.9789 121.594 71.4878 124.759 71.1058C127.924 70.6693 131.144 70.3418 134.309 69.9053C137.474 69.5233 140.639 69.0867 143.749 68.6501C146.915 68.2136 150.134 67.8861 153.299 67.3404C156.301 66.8493 159.357 66.6856 162.358 66.1944C165.523 65.7033 168.743 65.3213 171.908 64.9393C175.073 64.5027 178.238 64.1207 181.403 63.7388C184.568 63.3022 187.734 62.8656 191.117 62.429C190.135 61.1739 189.371 60.1916 188.498 59.2639ZM84.7038 73.6161C84.3764 73.6161 84.049 73.3432 83.5033 73.1249C84.3218 72.9612 84.813 72.9067 85.2495 72.7975C85.3587 72.9067 85.4678 73.0158 85.577 73.1249C85.3041 73.2886 85.0313 73.6161 84.7038 73.6161ZM87.9781 56.9174C87.7598 56.9174 87.3778 56.972 86.9958 57.0265C86.9412 56.9174 86.8867 56.8628 86.7775 56.7537C87.2141 56.4263 87.6507 56.0988 88.1964 55.6623C88.0872 56.1534 88.0327 56.4808 87.9781 56.9174ZM112.153 58.118C111.444 59.0457 109.97 60.9011 109.97 60.9011L109.261 61.6105C109.261 61.6105 110.625 64.8847 110.952 65.9216C109.861 65.485 106.423 64.0662 106.423 64.0662C106.423 64.0662 103.531 66.3036 102.549 66.9584C102.603 65.9762 102.93 62.1562 102.93 62.1562C102.93 62.1562 99.7654 59.9188 98.8923 59.3185C100.529 58.8819 102.057 58.4454 103.422 58.0634C103.967 56.5354 104.513 55.1166 105.113 53.534C105.604 54.2434 107.733 57.354 107.733 57.354C107.733 57.354 111.498 57.5177 112.426 57.5722C112.317 57.8451 112.262 58.0088 112.153 58.118ZM134.691 62.5382C133.217 61.9925 127.76 59.8642 127.76 59.8642C127.76 59.8642 123.231 63.4113 122.03 64.2845C122.085 62.4836 122.467 57.0265 122.467 57.0265C122.467 57.0265 117.828 53.916 116.409 52.8791C117.992 52.4426 123.231 51.4603 123.231 51.4603L123.558 49.9869C123.558 49.9869 124.65 46.6035 125.25 44.9118C125.359 44.6935 125.468 44.4207 125.632 44.0932C126.396 45.2392 129.779 49.8778 129.779 49.8778C129.779 49.8778 135.509 49.9869 136.764 49.9869C135.291 52.006 133.927 53.8614 132.508 55.826C133.217 57.8997 133.927 60.0825 134.691 62.5382ZM155.264 52.4972C154.5 53.4249 152.972 55.2257 152.972 55.2257L152.263 55.9351C152.263 55.9351 153.572 59.2094 153.845 60.3008C152.754 59.8642 149.37 58.3362 149.37 58.3362C149.37 58.3362 146.423 60.5191 145.441 61.1739C145.496 60.1916 145.932 56.3717 145.932 56.3717C145.932 56.3717 142.822 54.0797 141.949 53.4249C143.586 52.9883 145.114 52.6063 146.533 52.2789C147.133 50.7509 147.679 49.332 148.333 47.8041C148.77 48.5135 150.898 51.7332 150.898 51.7332C150.898 51.7332 154.664 52.006 155.591 52.006C155.482 52.1697 155.373 52.3334 155.264 52.4972Z" fill="#437AA7"/>
<path d="M46.1767 83.4388C46.5041 83.2751 46.8315 83.0022 47.2135 82.9477C49.9966 82.5657 52.7797 82.1837 55.5628 81.8563C56.6543 81.7471 57.8003 81.8563 58.8917 81.6925C60.4742 81.4743 62.0568 81.0377 63.6393 80.8194C65.8222 80.492 68.0596 80.3283 70.297 80.0554C72.9709 79.6734 75.6449 79.2369 78.3189 78.8549C82.0297 78.3637 85.7405 77.8726 89.4513 77.3814C92.9439 76.9449 96.4364 76.4537 99.9289 76.0172C103.094 75.5806 106.259 75.1986 109.37 74.762C110.516 74.5983 111.607 74.38 112.753 74.38C114.063 74.38 115.318 73.9981 116.573 73.8343C117.937 73.6706 119.302 73.4523 120.72 73.2886C121.157 73.2341 121.594 73.3978 121.976 73.3432C122.958 73.1249 123.995 72.8521 125.032 72.6883C130.216 71.9789 135.4 71.3241 140.584 70.6147C142.549 70.3418 144.513 70.0144 146.478 69.8507C149.261 69.6324 151.935 69.0321 154.718 68.7592C155.428 68.7047 156.191 68.5955 157.01 68.4864C156.901 68.7047 156.846 68.8138 156.792 68.9775C157.119 68.9775 157.501 69.0867 157.719 68.923C158.32 68.3773 158.865 68.2681 159.466 68.8684C159.52 68.923 159.629 68.8684 159.793 68.8138C159.575 68.6501 159.411 68.541 159.084 68.2681C160.393 68.1044 161.485 67.8861 162.576 67.777C167.215 67.1767 171.853 66.5218 176.546 65.9216C179.384 65.5396 182.167 65.2667 185.005 64.9393C186.369 64.7756 187.679 64.339 188.989 64.3936C190.298 64.5027 191.39 63.957 192.59 63.8479C197.611 63.3022 202.577 62.5382 207.543 61.8833C208.034 61.8287 208.525 61.7196 209.071 61.665C209.016 61.9379 209.016 62.1016 208.961 62.2653C209.071 62.2653 209.234 62.2653 209.234 62.2107C209.453 61.5559 209.944 61.5559 210.544 61.4467C213.163 61.1193 215.728 60.7373 218.293 60.4099C221.404 59.9733 224.514 59.6459 227.625 59.2093C228.28 59.1002 228.825 59.0456 229.153 59.8096C229.098 59.5913 228.989 59.3185 228.934 58.9911C231.99 58.6091 234.992 58.2271 237.993 57.8451C240.176 57.5722 242.359 57.1902 244.542 57.1357C253.819 56.8628 262.386 63.4113 264.187 73.2886C264.842 76.7812 265.169 80.3283 265.606 83.8754C266.152 87.9682 266.697 92.061 267.243 96.1538C267.734 99.7555 268.225 103.412 268.662 107.013C268.88 109.196 269.044 111.379 268.989 113.507C268.88 117.491 267.352 120.984 264.897 124.04C261.24 128.678 256.329 131.025 250.49 131.625C246.943 132.007 243.341 132.553 239.794 133.044C236.138 133.535 232.427 133.971 228.771 134.463C224.732 135.008 220.64 135.554 216.601 136.1C214.419 136.373 212.181 136.536 209.944 136.809C207.979 137.082 206.069 137.409 204.105 137.682C200.012 138.228 195.919 138.828 191.826 139.374C187.461 139.974 183.095 140.52 178.675 141.066C178.238 140.793 178.456 139.647 177.201 139.92C177.474 140.247 177.638 140.465 177.965 140.793C177.692 140.956 177.474 141.229 177.201 141.229C174.746 141.557 172.29 141.884 169.78 142.212C166.178 142.703 162.522 143.194 158.92 143.685C154.827 144.231 150.734 144.722 146.642 145.268C143.094 145.704 139.602 146.195 136.055 146.686C132.399 147.178 128.742 147.669 125.086 148.105C121.484 148.596 117.883 149.088 114.336 149.524C111.171 149.961 107.951 150.343 104.786 150.779C102.712 151.052 100.693 151.325 98.6192 151.598C95.0176 152.089 91.4159 152.525 87.8142 153.017C86.2317 153.235 84.7037 153.399 83.1211 153.617C82.9028 153.617 82.6846 153.671 82.4663 153.617C82.0843 153.508 81.8114 153.399 81.4294 153.781C81.1566 154.053 80.5017 153.944 79.956 154.053C79.192 154.163 78.428 154.272 77.664 154.381C77.4458 153.89 77.2275 153.453 76.9546 152.962C76.5726 153.235 76.2452 153.453 75.8632 153.781C76.2452 153.999 76.5181 154.163 77.0092 154.435C75.2629 154.654 73.7349 154.872 72.1524 155.09C68.4961 155.581 64.8399 156.073 61.1836 156.509C57.964 156.891 54.7443 157.491 51.47 157.764C51.1972 157.764 50.9243 157.601 50.5423 157.491C50.5423 157.546 50.4878 157.764 50.4878 157.928C48.7415 158.146 46.9952 158.419 45.249 158.637C41.5927 159.129 37.9365 159.62 34.2802 160.056C31.77 160.384 29.2597 160.711 26.804 161.039C20.9649 161.748 15.7807 160.22 11.3605 156.4C7.54051 153.126 5.41224 148.978 4.75739 144.012C4.48454 142.102 4.21169 140.192 3.9934 138.228C4.21169 138.228 4.42997 138.173 4.59368 138.173C4.42997 137.846 4.26626 137.573 4.21169 137.3C3.88426 135.936 3.55684 134.626 3.33855 133.262C2.95656 130.806 2.6837 128.351 2.35628 125.84C2.30171 125.458 2.46542 125.022 2.51999 124.585C2.51999 124.476 2.57456 124.422 2.57456 124.312C1.374 121.529 1.53771 118.473 1.04658 115.526C0.664581 113.398 0.446298 111.215 0.173443 109.087C-0.645119 102.211 1.42857 96.3721 6.50366 91.679C8.57735 89.769 10.9785 88.4593 13.7616 87.5316C13.5979 87.7499 13.5433 87.859 13.3796 88.0773C13.5979 88.0773 13.8162 88.1319 13.8707 88.0773C14.5801 86.9313 15.8353 86.9859 16.8721 86.8222C22.3292 86.0582 27.7317 85.4034 33.1888 84.6939C37.2816 84.1482 41.3744 83.6025 45.4672 83.0568C45.7401 83.0022 46.013 83.1114 46.2312 83.1659C46.1767 83.3297 46.1767 83.3842 46.1767 83.4388ZM31.4971 88.5685C29.3143 88.8413 27.186 89.1142 25.1123 89.387C22.0018 89.8236 18.8367 90.0965 15.7807 90.7513C8.63192 92.3339 3.39312 99.0461 3.44769 106.413C3.50226 108.651 3.88426 110.943 4.15711 113.18C4.59368 116.782 5.03025 120.438 5.52139 124.04C6.12167 128.842 6.77652 133.644 7.43137 138.446C7.48594 138.664 7.26765 138.883 7.21308 139.047C7.37679 139.483 7.64965 139.865 7.75879 140.247C7.9225 141.284 8.08622 142.375 8.19536 143.412C8.41364 145.65 9.06849 147.778 10.269 149.633C11.415 151.434 12.5065 153.18 14.3619 154.49C17.4178 156.564 20.6921 157.928 24.4029 157.819C26.9132 157.764 29.4234 157.273 31.8791 156.946C37.1725 156.236 42.5204 155.581 47.8138 154.872C48.3595 154.817 48.8506 154.763 49.3418 154.708C49.3963 154.981 49.4509 155.199 49.5601 155.527C49.8329 155.309 50.1603 155.145 50.1058 155.09C49.9421 154.49 50.3786 154.545 50.706 154.49C54.4714 153.999 58.1822 153.508 61.9476 153.017C62.3296 152.962 62.7116 153.18 62.8753 153.235C63.2028 153.071 63.4756 152.798 63.7485 152.798C64.7308 152.689 65.7676 152.689 66.7499 152.58C68.2233 152.362 69.6421 152.034 71.1155 151.871C71.8795 151.762 72.6981 151.925 73.5167 151.816C74.0624 151.762 74.6081 151.38 75.0446 151.216C75.3721 151.761 75.5903 152.089 75.8086 152.471C75.3721 151.489 75.4812 151.161 76.5726 151.107C77.5003 151.052 78.5917 150.343 79.3012 151.598C79.2466 151.325 79.192 151.052 79.0829 150.779C81.7023 150.452 84.2125 150.07 86.7228 149.742C87.6505 149.633 88.5782 149.415 89.5605 149.36C89.9425 149.36 90.379 149.579 90.8156 149.688C90.8156 149.633 90.8156 149.415 90.8702 149.197C93.3804 148.869 95.8907 148.542 98.401 148.214C102.494 147.669 106.587 147.123 110.679 146.577C111.28 146.468 111.88 146.468 112.207 147.341C112.317 146.905 112.371 146.632 112.48 146.359C114.772 146.086 117.01 145.759 119.192 145.486C119.356 145.813 119.465 146.032 119.629 146.25C119.684 146.25 119.738 146.195 119.793 146.195C119.738 145.922 119.684 145.704 119.629 145.431C121.921 145.158 124.158 144.886 126.45 144.558C129.725 144.122 132.944 143.685 136.219 143.248C139.766 142.757 143.258 142.321 146.805 141.884C150.898 141.338 154.991 140.793 159.084 140.247C163.122 139.701 167.215 139.21 171.253 138.664C174.909 138.173 178.566 137.682 182.222 137.191C186.697 136.591 191.226 136.045 195.701 135.445C199.794 134.899 203.886 134.353 207.979 133.808C211.581 133.317 215.183 132.88 218.784 132.389C221.895 131.952 225.005 131.516 228.17 131.134C231.663 130.697 235.155 130.261 238.648 129.769C242.413 129.278 246.179 128.678 249.999 128.296C253.71 127.859 257.093 126.823 259.931 124.367C263.478 121.311 265.388 117.436 265.715 112.798C265.715 112.47 265.988 112.198 266.152 111.87C266.043 111.761 265.77 111.597 265.715 111.379C265.551 110.288 265.442 109.196 265.333 108.105C264.624 102.539 263.914 96.9724 263.205 91.4062C263.15 91.1879 263.423 90.8604 263.369 90.6422C263.259 90.2056 262.932 89.8236 262.877 89.387C262.386 85.8399 261.95 82.2382 261.513 78.6911C261.459 78.0909 261.513 77.4906 261.459 76.8903C261.404 76.5629 261.186 76.29 261.131 75.9626C260.64 71.1058 258.676 67.013 254.801 63.957C252.564 62.2107 249.999 61.0102 247.27 60.6828C244.869 60.4099 242.359 60.7919 239.958 61.1193C234.282 61.8287 228.607 62.6473 222.877 63.3567C217.365 64.0661 211.799 64.7756 206.288 65.485C199.63 66.3581 192.972 67.2858 186.369 68.1044C184.077 68.3773 181.785 68.4864 179.548 68.7592C178.293 68.923 177.092 69.305 175.837 69.5232C171.799 70.1235 167.706 70.6147 163.668 71.1604C160.066 71.6515 156.464 72.0881 152.863 72.5246C148.715 73.0703 144.568 73.616 140.421 74.1618C137.31 74.5438 134.254 74.9258 131.143 75.3078C128.087 75.6897 125.032 76.1809 121.976 76.6174C118.265 77.1086 114.554 77.6543 110.789 78.0909C108.988 78.3091 107.187 78.964 105.659 78.2C105.222 78.5274 105.004 78.8549 104.677 78.9094C102.767 79.1823 100.802 79.4551 98.8921 79.6734C94.3081 80.2737 89.7788 80.874 85.1948 81.4197C81.102 81.9654 77.0092 82.5111 72.9164 83.0568C68.7144 83.6025 64.567 84.2574 60.3651 84.6394C59.0008 84.8031 57.3091 85.6216 55.9994 83.7662C56.054 84.4211 56.1086 84.8031 56.1631 85.2396C54.526 85.4579 52.9434 85.6762 51.3063 85.8945C47.1589 86.4402 43.0116 87.0951 38.8642 87.4771C36.4631 87.6953 34.1165 88.7867 31.6062 87.8045C31.4971 88.1319 31.4971 88.3502 31.4971 88.5685ZM220.858 62.2653C220.858 62.7019 220.913 62.9747 220.913 62.9747C221.513 62.9202 222.004 62.9202 222.495 62.8656C222.495 62.7565 222.495 62.6473 222.495 62.5382C222.004 62.5382 221.458 62.429 220.858 62.2653ZM3.01113 113.835C2.90199 113.835 2.73827 113.78 2.62913 113.78C2.30171 114.271 2.30171 114.762 3.01113 115.472C3.01113 114.762 3.01113 114.271 3.01113 113.835Z" fill="#437AA7"/>
<path d="M42.9027 56.2625C42.8482 56.5354 42.9027 56.8628 42.7936 57.0811C39.7922 62.3199 37.2274 67.777 35.2628 73.4523C34.226 76.3992 33.3528 79.4551 32.4251 82.4565C32.2614 83.0568 32.0431 83.2751 31.3883 83.3297C30.4606 83.3842 29.5874 83.548 28.5506 83.6571C28.6597 83.166 28.7143 82.6748 28.8235 82.2383C29.1509 81.0377 29.4237 79.8371 29.8057 78.6912C29.9694 78.0909 30.3514 77.5452 30.5697 76.9995C30.6243 76.9995 30.4606 76.9995 30.2969 76.9995C32.9163 68.541 36.4634 60.5191 41.0473 52.9883C42.0296 51.3512 43.0664 49.7686 44.1033 48.1861C44.267 47.9678 44.5944 47.8041 44.8673 47.6403C44.9219 47.5858 45.031 47.5312 45.031 47.4221C45.6313 45.1301 47.4321 43.6021 48.7418 41.8013C50.4881 39.5093 52.3981 37.2719 54.3626 35.1436C58.6191 30.5597 63.2031 26.3577 68.169 22.5378C75.045 17.299 82.412 12.8241 90.3248 9.38619C90.9796 9.11333 91.6891 8.56762 92.5076 8.78591C93.4899 7.47621 95.127 7.42164 96.4367 6.87593C98.2921 6.11194 100.311 5.6208 102.221 5.02052C104.022 4.47481 105.877 3.87453 107.678 3.32882C108.06 3.21968 108.497 3.38339 108.879 3.32882C109.152 3.27425 109.37 2.94683 109.588 2.89225C113.681 2.18283 117.828 1.47341 121.976 0.763993C122.194 0.709422 122.467 0.873135 122.631 0.873135C123.067 0.709422 123.504 0.600279 124.05 0.436566C124.05 0.818562 124.05 1.09142 124.05 1.36427C124.104 1.36427 124.213 1.36427 124.268 1.41884C124.377 1.09142 124.486 0.818563 124.65 0.272854C128.634 0.218283 132.726 0.109143 136.819 0.0545721C137.201 0.0545721 137.529 0.54571 138.074 0.873135C137.965 0.54571 137.911 0.327425 137.801 0C157.392 0.65485 175.51 6.16651 192.099 16.4804C208.252 26.576 220.967 40.0004 230.244 56.972C229.753 56.8082 229.48 56.6991 229.262 56.59C228.334 57.6268 226.588 57.4631 225.879 56.3171C225.606 55.826 225.224 55.3348 225.06 54.8437C224.896 54.4617 224.951 53.9706 224.896 53.5886C224.296 53.8068 224.132 53.3703 223.86 52.9883C219.603 46.1669 214.583 39.8913 208.907 34.2159C203.068 28.4314 196.683 23.2472 189.589 19.0452C185.66 16.6987 181.676 14.5158 177.529 12.6059C170.708 9.49533 163.613 7.09421 156.246 5.72994C151.335 4.80223 146.369 4.03824 141.349 3.71082C136.601 3.38339 131.799 3.49253 127.051 3.81996C122.522 4.14738 118.047 4.96595 113.517 5.51166C113.135 5.56623 112.699 5.34794 111.989 5.18423C112.317 5.45708 112.426 5.56623 112.59 5.67537C110.352 6.22108 108.169 6.76678 106.041 7.36706C97.7464 9.65904 89.8337 12.9333 82.3574 17.1898C77.0095 20.1912 71.989 23.6837 67.2959 27.6128C65.3859 29.25 63.5305 30.9962 61.6205 32.6334C61.4568 32.7971 61.1294 32.7425 60.8565 32.8516C60.6928 32.9062 60.5291 33.0154 60.3654 33.1245C60.7474 33.6702 60.2563 33.8885 59.9834 34.1613C53.6532 40.4916 48.2507 47.5312 43.6121 55.1711C43.5576 55.7714 43.1756 55.9897 42.9027 56.2625Z" fill="#437AA7"/>
<path d="M240.558 135.008C240.34 135.172 240.176 135.336 239.903 135.554C240.503 136.482 239.739 137.409 239.63 138.392C239.357 138.392 239.194 138.392 238.975 138.337C238.975 138.446 238.921 138.555 238.921 138.61C239.467 138.992 239.303 139.429 239.139 139.92C235.374 152.635 229.535 164.313 221.567 174.9C217.202 180.684 212.345 185.923 206.942 190.78C198.593 198.256 189.261 204.313 179.002 208.843C174.855 210.643 170.489 212.062 166.178 213.645C165.796 213.809 165.305 213.59 164.814 213.536C164.814 213.536 164.923 213.754 165.086 214.081C161.703 214.845 158.374 215.609 154.991 216.373C153.627 216.646 152.262 216.865 150.898 217.083C150.462 217.137 150.025 216.919 149.588 216.865C149.37 216.81 149.152 216.865 148.934 216.865C149.097 217.028 149.206 217.137 149.479 217.41C148.934 217.301 148.442 217.247 148.06 217.192C148.006 217.247 147.897 217.519 147.788 217.519C145.932 217.738 144.022 218.011 142.167 218.065C138.51 218.174 134.909 218.393 131.253 218.229C126.45 218.011 121.703 217.629 116.955 216.919C108.66 215.664 100.638 213.317 92.9438 210.098C83.8851 206.332 75.4266 201.421 67.6775 195.364C59.0553 188.651 51.5791 180.848 45.3035 171.844C45.0852 171.516 44.4849 171.189 45.0852 170.698C45.0852 170.698 44.9215 170.479 44.8124 170.37C44.1029 170.916 44.0484 170.097 43.8847 169.824C42.2475 167.205 40.665 164.586 39.0824 162.021C38.9733 161.857 38.9187 161.693 38.8641 161.475C38.9733 161.421 39.0824 161.366 39.137 161.366C40.1738 161.257 41.429 160.711 42.3021 161.093C43.0661 161.421 43.5027 162.676 43.9938 163.549C48.3595 170.807 53.4891 177.464 59.4373 183.467C62.1113 186.196 64.8944 188.761 67.8958 191.162C69.4784 192.417 71.0609 193.617 72.6435 194.818C74.3352 196.073 76.0815 197.274 77.8823 198.365C79.6286 199.511 81.4294 200.548 83.2302 201.585C89.5059 205.077 96.0544 207.915 102.93 210.043C103.531 210.207 104.131 210.425 104.731 210.698C105.004 210.807 105.222 211.025 105.495 211.244C105.768 211.244 106.15 211.08 106.532 211.189C110.57 212.062 114.608 213.099 118.701 213.754C125.468 214.845 132.289 215.337 139.165 214.791C143.695 214.409 148.17 213.918 152.699 213.372C154.609 213.154 156.464 212.608 158.374 212.226C158.538 212.171 158.756 212.171 159.084 212.171C158.811 212.553 158.593 212.826 158.374 213.099C158.756 213.263 159.084 213.427 159.466 213.645C159.411 213.099 159.357 212.553 159.302 212.008C160.83 211.844 162.14 210.916 163.722 211.244C163.831 211.135 163.94 210.862 164.159 210.807C167.215 209.77 170.216 208.788 173.327 207.751C173.381 207.915 173.545 208.188 173.654 208.406C173.709 208.406 173.763 208.351 173.818 208.351C173.763 208.079 173.709 207.806 173.654 207.533C174.636 207.26 175.455 206.442 176.546 206.66C176.71 206.496 176.874 206.223 177.147 206.06C180.803 204.15 184.568 202.403 188.115 200.33C191.39 198.474 194.5 196.237 197.72 194.163C197.774 194.272 197.829 194.436 197.884 194.654C197.938 194.654 197.993 194.654 198.047 194.654C198.047 194.327 198.102 193.945 198.156 193.399C198.32 193.781 198.375 193.945 198.429 194.163C198.593 193.017 199.302 192.581 200.066 192.526C200.285 192.199 200.394 191.926 200.612 191.762C203.45 189.197 206.451 186.741 209.18 184.013C215.565 177.683 221.022 170.588 225.551 162.839C229.917 155.472 233.791 146.905 236.629 136.263C236.793 135.609 237.065 135.336 237.775 135.281C238.648 135.227 239.521 135.063 240.394 134.954C240.394 134.899 240.449 134.954 240.558 135.008Z" fill="#437AA7"/>
<path d="M215.401 44.3115C216.601 45.7849 217.802 47.2037 218.893 48.7317C219.603 49.6594 220.039 50.7508 220.694 51.7331C222.004 53.6977 223.423 55.6076 224.896 57.7359C224.187 57.8451 223.75 58.0088 223.314 58.0088C223.095 58.0088 222.823 57.8996 222.713 57.7359C222.386 57.0811 222.113 56.3171 221.731 55.6622C221.458 55.2256 221.022 54.8437 220.694 54.4617C220.312 53.9705 219.985 53.4794 219.712 52.9882C219.494 52.5517 219.33 52.1151 219.166 51.624C218.948 51.4603 218.621 51.2965 218.457 51.0783C216.711 48.7317 215.019 46.276 213.164 43.984C211.908 42.4015 210.38 40.9827 209.016 39.5092C208.689 39.1818 208.034 38.7998 208.852 38.3087C208.852 38.3087 208.798 38.0904 208.689 37.8721C208.416 38.0904 208.252 38.2541 207.979 38.4178C203.559 33.8884 198.811 29.6865 193.573 26.0302C193.682 25.812 193.791 25.6482 193.9 25.4845C193.791 25.4845 193.682 25.4845 193.627 25.4845C192.263 25.43 191.39 24.7205 190.735 23.6291C190.626 23.4654 190.462 23.1926 190.407 23.2471C189.371 23.5746 188.77 22.7014 188.061 22.3194C187.188 21.8283 186.206 21.4463 185.824 20.3003C185.824 20.5186 185.824 20.7369 185.878 20.9552C185.714 20.846 185.551 20.7369 185.387 20.6823C178.074 16.5349 170.489 13.3152 162.467 11.0233C161.048 10.6413 159.63 10.2593 158.211 9.87727C154.063 8.78585 146.478 7.5853 141.676 7.42158C137.637 7.25787 133.599 7.14873 129.561 7.25787C123.231 7.47615 116.955 8.45843 110.789 9.93184C99.6016 12.6604 89.1786 17.0261 79.5195 23.2471C79.1375 23.52 78.6464 23.5746 78.2098 23.6837C78.1007 23.8474 78.1007 24.1748 77.8824 24.284C72.6436 27.7765 67.8414 31.8148 63.2574 36.1258C61.8386 37.4356 60.638 38.909 59.3283 40.2732C57.9095 41.6921 56.7089 43.3292 55.3992 44.8572C54.9081 45.4029 54.5806 46.3306 53.4347 45.6212C53.4347 45.7303 53.3801 45.894 53.3801 46.0032C53.5984 46.1123 53.8167 46.276 54.0895 46.4397C47.923 54.3525 43.0662 62.9201 39.4645 72.1426C38.9734 72.088 38.5368 71.9789 38.1003 71.9243C38.0457 72.0335 38.0457 72.088 37.9911 72.1972C38.264 72.5792 38.5368 72.9066 38.9188 73.4523C38.7551 73.9434 38.4822 74.7074 38.264 75.4169C37.6091 77.436 37.0088 79.4551 36.354 81.4196C35.9174 82.8385 35.8083 82.8931 34.062 82.7839C34.8806 80.2191 35.5354 77.7088 36.4631 75.2531C37.882 71.5423 39.3008 67.8315 40.9925 64.2298C44.2122 57.2993 48.305 50.86 53.1618 44.8572C53.7621 44.0932 54.2532 43.2746 54.9626 42.5652C55.7266 41.7466 56.3815 40.8735 57.1455 40.0549C57.8549 39.2364 58.6189 38.4178 59.3829 37.5993C60.1469 36.8353 60.8563 36.0713 61.6203 35.3073C62.3843 34.5433 63.2028 33.7793 64.0214 33.0153C64.84 32.2513 65.604 31.4873 66.4771 30.7779C66.9137 30.4505 67.3502 29.9048 68.0596 30.3413C68.1142 30.3959 68.3325 30.0685 68.6599 29.8502C68.2234 29.7956 68.0051 29.7956 67.8414 29.7411C67.8959 29.6319 67.8959 29.5773 67.9505 29.5228C88.7966 12.1692 111.771 6.22102 129.834 5.5116C129.67 5.67532 129.561 5.78446 129.343 6.00274C129.67 6.00274 129.998 6.11188 130.107 6.05731C131.198 5.02047 132.617 5.40246 133.872 5.40246C136.219 5.34789 138.565 5.45703 140.857 5.56617C141.239 5.56617 141.567 5.78446 142.003 5.94817C142.276 5.8936 142.603 5.72989 142.985 5.78446C146.533 6.22102 150.08 6.71216 153.681 7.2033C154.609 7.31244 155.537 7.53072 156.519 7.74901C156.41 7.91272 156.355 8.02186 156.246 8.18558C158.102 7.69444 159.684 8.56757 161.376 9.00414C163.122 9.44071 164.814 9.93184 166.56 10.4776C172.399 12.333 177.965 14.7886 183.422 17.6263C184.35 18.1175 185.169 18.8269 186.096 19.3726C188.225 20.6823 190.517 21.8283 192.59 23.1926C195.101 24.8843 197.556 26.7397 199.957 28.5951C200.394 28.9225 200.721 29.4682 201.267 30.0685C200.721 30.1231 200.503 30.1231 200.285 30.1231C200.285 30.2322 200.285 30.2868 200.285 30.3959C200.667 30.3959 201.049 30.3959 201.485 30.3413C201.594 30.3413 201.704 30.2322 201.813 30.1776C203.013 31.2145 204.214 32.1422 205.305 33.2882C208.689 36.7807 211.963 40.3278 215.292 43.8749C215.292 43.9295 215.346 44.1478 215.401 44.3115C214.801 44.0932 214.2 43.8749 213.546 43.6021C213.491 43.6566 213.436 43.7112 213.382 43.8203C213.818 44.2569 214.255 44.6389 214.637 44.9663C214.855 44.8026 215.128 44.5298 215.401 44.3115Z" fill="#437AA7"/>
<path d="M205.251 139.592C204.323 142.485 202.686 145.049 201.213 147.669C199.63 150.506 197.829 153.235 195.865 155.8C193.9 158.419 191.717 160.875 189.425 163.221C187.133 165.513 184.732 167.751 182.167 169.715C179.712 171.68 177.038 173.481 174.364 175.118C171.581 176.81 168.743 178.283 165.796 179.647C162.849 180.957 159.739 181.994 156.683 183.194C156.628 183.085 156.628 183.031 156.574 182.921C157.01 182.43 157.447 181.994 157.883 181.503C157.829 181.448 157.829 181.448 157.774 181.394C157.119 181.666 156.464 181.939 155.81 182.212C156.028 182.54 156.192 182.758 156.41 183.14C154.609 183.576 152.917 184.013 151.226 184.449C150.734 184.559 150.189 184.722 149.643 184.777C149.261 184.831 148.879 184.668 148.388 184.613C148.17 184.777 147.788 185.159 147.351 185.213C143.204 185.595 139.002 186.196 134.854 186.25C131.307 186.305 127.706 185.923 124.213 185.541C117.501 184.777 111.061 182.976 104.84 180.357C103.367 179.756 101.894 179.156 100.529 178.392C99.0013 177.519 97.3642 176.919 95.8908 175.936C94.3628 174.9 92.7257 174.026 91.1977 172.935C89.6697 171.898 88.1963 170.807 86.7775 169.661C85.3041 168.515 83.8852 167.26 82.5209 166.059C81.1567 164.804 79.847 163.549 78.5918 162.239C77.6096 161.257 76.7364 160.165 75.8087 159.129C75.5904 158.856 75.5359 158.474 75.4267 158.31C74.6082 158.037 74.3353 157.382 73.8987 156.782C75.0447 156.509 75.8633 156.455 76.7364 157.546C84.5401 166.878 94.0354 173.917 105.222 178.665C109.697 180.575 114.336 182.158 119.193 182.976C123.176 183.631 127.16 184.231 131.198 184.449C134.745 184.668 138.292 184.231 141.839 184.231C142.549 184.231 143.204 184.067 143.913 183.958C144.732 183.849 145.55 183.685 146.369 183.631C146.533 183.631 146.751 183.795 147.024 183.958C147.297 183.303 147.897 183.14 148.497 183.685C148.988 183.467 149.425 183.14 149.861 183.031C161.758 180.466 172.508 175.445 181.949 167.751C189.48 161.584 195.646 154.217 200.339 145.704C201.213 144.176 201.977 142.594 202.741 140.957C203.505 139.538 203.614 139.429 205.251 139.592Z" fill="#437AA7"/>
<path d="M91.5252 46.9855C91.5252 46.9855 91.6344 47.1492 91.7435 47.3129C82.903 53.4795 75.7543 61.2285 70.0243 70.3964C69.9152 70.3418 69.6969 70.2327 69.4786 70.1236C69.4786 70.2873 69.424 70.3964 69.424 70.451C69.7515 70.833 69.6423 71.1058 69.424 71.4878C68.2235 73.3978 67.1321 75.4169 66.3135 77.5452C65.8224 78.8003 65.0584 79.2369 63.6395 78.964C64.6764 76.9449 65.7132 74.9804 66.6955 72.9612C67.0775 72.1973 67.4049 71.4333 67.8415 70.7238C68.8238 69.0867 69.8606 67.5042 70.8429 65.867C71.2249 65.2122 71.6614 64.721 72.5346 64.9939C72.6983 65.0485 72.862 64.9393 73.0803 64.721C72.7529 64.5573 72.4254 64.4482 71.8252 64.1753C72.8074 63.1385 73.7897 62.2654 74.6628 61.2285C75.2631 60.5191 75.6451 59.646 76.1908 58.9365C79.0831 55.4986 82.2482 52.2789 85.8499 49.6049C87.2141 48.5681 88.4147 47.3129 89.8881 46.3852C91.4707 45.4575 92.9441 44.3661 94.4721 43.3838C96.0546 42.4016 97.6917 41.583 99.3834 40.6553C99.6563 40.5462 99.9837 40.5462 100.366 40.4916C100.42 40.437 100.529 40.1096 100.748 40.0005C104.513 38.145 108.388 36.5625 112.426 35.4711C113.408 35.1982 114.39 34.8162 115.427 34.5979C119.793 33.6157 124.159 32.6334 128.633 32.4697C129.616 32.4151 130.543 32.5788 131.526 32.5788C133.763 32.5242 136 32.4151 138.183 32.306C138.511 32.306 139.056 32.1968 139.111 32.3605C139.602 33.3428 140.148 32.4697 140.694 32.4697C141.621 32.5788 142.494 32.5788 143.422 32.688C144.677 32.8517 145.987 32.9608 147.242 33.2337C150.025 33.8339 152.863 34.3797 155.591 35.1436C158.375 35.9622 161.158 36.8899 163.886 38.0359C171.69 41.2556 178.784 45.6758 185.169 51.242C186.915 52.77 188.607 54.4072 190.189 56.0989C190.79 56.7537 191.554 57.2448 191.936 58.0088C192.645 59.4277 194.228 60.0825 194.828 61.5559C193.9 62.0471 193.136 61.9379 192.481 61.2285C190.462 59.0457 188.607 56.7537 186.424 54.7346C181.567 50.1506 176.219 46.167 170.326 43.0019C169.616 42.6199 169.016 41.965 168.306 41.6376C167.324 41.1464 166.233 40.819 165.196 40.3825C164.596 40.1096 164.05 39.7276 163.45 39.4547C162.576 39.1273 161.703 38.909 160.83 38.6362C156.737 37.4356 152.699 36.0168 148.497 35.1436C142.276 33.8339 136 33.5065 129.67 34.0522C126.014 34.3797 122.303 34.7617 118.702 35.4711C112.753 36.7262 106.969 38.6362 101.512 41.3647C98.4557 42.8927 95.5635 44.7481 92.6166 46.4398C92.3984 46.7672 91.9618 46.8218 91.5252 46.9855Z" fill="#437AA7"/>
<path d="M73.735 193.29C73.8442 192.963 74.0079 192.69 74.117 192.362C74.0624 192.308 74.0624 192.253 74.0079 192.199C73.6805 192.417 73.4076 192.635 73.0256 192.853C61.2929 184.177 51.6884 173.481 44.4305 160.766C44.5396 160.657 44.5396 160.602 44.5942 160.602C45.9039 160.111 46.5042 160.711 47.1045 161.857C49.7784 166.55 53.0527 170.861 56.4906 175.063C56.5452 175.118 56.5998 175.227 56.6544 175.336C56.4906 175.336 56.3815 175.336 56.4361 175.336C57.2001 176.155 58.0732 177.028 58.9463 177.901C62.4389 181.23 65.9314 184.559 69.4239 187.942C69.6422 188.16 69.7514 188.542 69.9151 188.924C70.6791 188.597 71.1702 189.361 71.7705 189.852C77.6096 194.381 83.8852 198.311 90.5428 201.476C91.0886 201.748 91.6343 202.13 92.2891 202.512C92.4528 202.567 92.8348 202.567 93.1077 202.676C99.8199 205.678 106.75 207.86 113.954 209.388C115.864 209.77 117.774 210.098 119.738 210.425C121.103 210.644 122.412 210.807 123.776 210.916C124.431 210.971 124.922 211.026 124.922 211.953C124.977 211.899 125.086 211.844 125.141 211.79C125.141 211.571 125.086 211.298 125.086 211.08C126.505 211.189 127.978 211.298 129.397 211.353C130.871 211.408 132.344 211.462 133.872 211.462C135.345 211.462 136.764 211.408 138.238 211.353C139.711 211.298 141.185 211.08 142.658 211.189C144.022 211.298 145.332 210.807 146.642 210.698C148.115 210.644 149.588 210.316 151.007 210.043C152.426 209.825 153.845 209.552 155.264 209.279C156.683 209.006 158.047 208.679 159.411 208.297C160.83 207.97 162.194 207.588 163.449 207.26C163.886 207.751 164.213 208.188 164.65 208.734C162.413 209.334 160.066 209.934 157.72 210.534C156.355 210.862 154.991 211.135 153.627 211.353C149.479 211.953 145.332 212.608 141.13 212.936C136.328 213.372 131.526 213.427 126.723 212.826C122.139 212.281 117.555 211.571 112.971 210.916C112.589 210.862 112.317 210.534 111.935 210.425C111.607 210.371 111.28 210.534 110.952 210.48C110.134 210.316 109.37 210.152 108.551 209.934C105.441 209.006 102.385 208.024 99.2742 207.042C98.9468 206.933 98.7285 206.605 98.401 206.387C98.2373 206.387 97.8553 206.496 97.6371 206.387C94.3082 204.968 90.9248 203.604 87.7052 202.076C83.1212 199.893 78.8101 197.165 74.6627 194.272C74.3899 193.89 74.0624 193.563 73.735 193.29Z" fill="#437AA7"/>
<path d="M223.477 159.347C223.859 159.511 224.132 159.62 224.459 159.729C224.514 159.62 224.569 159.511 224.569 159.401C224.296 159.238 224.023 159.129 223.695 158.91C224.077 158.201 224.405 157.546 224.732 156.837C227.734 151.107 230.189 145.213 232.045 139.046C232.372 138.064 232.645 137.027 232.973 136.045C233.027 135.881 233.245 135.718 233.409 135.663C233.846 135.609 234.282 135.609 234.883 135.554C234.282 137.573 233.737 139.483 233.136 141.338C232.536 143.248 231.881 145.104 231.172 146.959C230.462 148.76 229.698 150.561 228.88 152.362C228.061 154.163 227.188 155.963 226.26 157.71C225.333 159.456 224.241 161.093 223.259 162.785C222.277 164.422 221.349 166.059 220.258 167.642C219.166 169.279 218.02 170.861 216.82 172.389C215.619 173.972 214.364 175.5 213.054 177.028C211.799 178.447 210.544 179.865 209.234 181.23C207.87 182.649 206.397 184.067 204.978 185.377C203.504 186.741 202.031 188.051 200.503 189.306C198.975 190.561 197.447 191.762 195.864 192.908C194.282 194.054 192.699 195.145 191.062 196.237C189.37 197.328 187.679 198.31 185.987 199.347C184.459 200.22 182.931 201.094 181.349 201.858C179.602 202.731 177.856 203.549 176.055 204.368C174.254 205.186 172.399 206.005 170.543 206.551C168.743 207.096 167.051 207.969 165.414 208.297C164.923 207.806 164.486 207.424 163.995 206.933C164.377 206.823 164.704 206.714 165.032 206.551C169.125 204.968 173.217 203.386 177.31 201.803C178.183 201.476 178.947 200.657 179.984 201.366C179.875 201.203 179.711 200.984 179.711 200.984C183.695 198.583 187.788 196.346 191.608 193.726C195.1 191.38 198.32 188.597 201.649 186.032C201.813 185.923 202.085 185.923 202.304 185.923C202.413 185.923 202.522 185.868 202.631 185.868C202.304 185.268 203.286 185.323 203.177 184.722C203.177 184.559 203.45 184.34 203.668 184.177C204.705 183.249 205.905 182.485 206.833 181.448C210.271 177.41 213.709 173.426 216.929 169.224C219.166 166.223 221.076 162.949 223.095 159.838C223.259 159.674 223.423 159.456 223.477 159.347Z" fill="#437AA7"/>
<path d="M97.8551 166.114C96.4908 166.659 96.3271 166.55 96.0543 165.131C96.3271 165.459 96.5454 165.732 96.7637 166.059C96.8728 165.732 96.9274 165.404 96.982 165.131C97.2548 165.459 97.5277 165.732 97.8551 166.114Z" fill="#437AA7"/>
<path d="M96.1638 157.601C96.8187 157.928 97.419 158.255 98.2375 158.637C97.7464 158.747 97.3644 159.019 97.1461 158.91C96.7096 158.637 96.3276 158.201 95.9456 157.819C96.0001 157.71 96.1093 157.655 96.1638 157.601Z" fill="#437AA7"/>
<path d="M155.155 171.407C155.591 171.735 155.919 171.953 156.301 172.226C155.864 172.444 155.537 172.608 155.155 172.771C155.155 172.335 155.155 172.007 155.155 171.407Z" fill="#437AA7"/>
<path d="M86.7772 56.7536C87.2138 56.4262 87.6504 56.0988 88.1961 55.6622C88.0869 56.1534 88.0323 56.4808 87.9778 56.9174C87.7595 56.9719 87.3775 56.9719 86.9955 57.0265C86.8864 56.9174 86.8318 56.8628 86.7772 56.7536Z" fill="#437AA7"/>
<path d="M113.626 52.2243C114.117 52.1151 114.554 52.0606 115.209 51.9514C114.772 53.152 114.226 52.77 113.681 52.6063C113.681 52.4426 113.681 52.3334 113.626 52.2243Z" fill="#437AA7"/>
<path d="M85.6313 73.1249C85.3038 73.2886 85.031 73.616 84.7035 73.616C84.3761 73.616 84.0487 73.3432 83.503 73.1249C84.3216 72.9612 84.8127 72.9066 85.2493 72.7975C85.413 72.9066 85.5221 73.0158 85.6313 73.1249Z" fill="#437AA7"/>
<path d="M121.593 46.8763C121.975 46.9855 122.357 47.0946 122.958 47.2583C122.303 47.5312 121.866 47.7495 121.157 48.0223C121.375 47.4766 121.484 47.2038 121.593 46.8763Z" fill="#437AA7"/>
<path d="M147.406 63.6842C147.297 63.1931 147.242 62.9202 147.133 62.4836C147.624 62.5382 148.061 62.5928 148.715 62.6474C148.224 63.0839 147.897 63.3568 147.406 63.6842Z" fill="#437AA7"/>
<path d="M91.7979 146.686C91.7979 146.85 91.7979 147.123 91.7979 147.341C91.7433 147.396 91.6887 147.45 91.6342 147.45C88.3599 147.887 85.1402 148.324 81.866 148.706C80.9383 148.815 80.0106 148.76 79.0829 148.869C77.5549 149.088 76.0815 149.415 74.5535 149.688C72.4798 150.015 70.3515 150.288 68.2778 150.561C65.1127 150.998 61.8931 151.38 58.7279 151.816C57.3091 151.98 55.8357 152.198 54.4169 152.362C54.144 152.362 53.8711 152.144 53.5437 152.034C52.5069 153.126 50.9243 152.798 49.5055 153.017C45.9038 153.562 42.2476 153.999 38.6459 154.49C34.0619 155.09 29.5325 155.909 24.9486 156.236C17.909 156.673 11.5242 151.871 10.1053 144.776C9.45048 141.502 9.17762 138.173 8.74105 134.845C8.63191 133.917 8.52277 133.044 8.35906 132.116C8.63191 131.898 8.8502 131.734 9.12305 131.516C9.06848 131.461 9.06848 131.352 9.01391 131.297C8.79562 131.352 8.52277 131.407 8.24992 131.461C8.24992 131.243 8.35906 131.025 8.30449 130.806C7.86792 127.914 7.43135 125.022 6.99479 122.13C6.50365 118.473 6.01251 114.817 5.57595 111.161C5.24852 108.651 4.81195 106.086 5.4668 103.575C6.72193 98.6095 9.55962 94.9533 14.3619 93.207C16.4355 92.443 18.7821 92.1702 20.9649 91.8427C24.5666 91.297 28.1683 90.8605 31.7699 90.4239C35.3716 89.9328 39.0279 89.4962 42.6295 89.005C46.6678 88.4593 50.7606 87.9136 54.7988 87.4225C58.0185 87.0405 61.2382 86.6585 64.4579 86.2765C67.0227 85.9491 69.533 85.5125 72.0978 85.1851C75.6995 84.6939 79.3011 84.2574 82.8483 83.7662C86.5045 83.2751 90.1608 82.784 93.817 82.2928C94.5264 82.1837 95.1813 82.1291 96.1635 81.9654C95.7815 82.1837 95.6178 82.2928 95.5087 82.3474C95.5087 82.402 95.5633 82.4565 95.5633 82.5111C96.2181 82.2928 96.873 81.9654 97.5278 81.8017C98.2918 81.638 99.0558 81.5834 99.9289 81.4743C99.4924 82.6203 98.5647 82.6203 97.637 82.5657C97.637 82.6748 97.6915 82.784 97.6915 82.9477C98.2372 82.8931 98.8375 82.9477 99.3287 82.7294C99.8198 82.5657 100.202 82.1291 100.638 81.7471C100.638 81.7471 100.584 81.638 100.529 81.5288C100.584 81.4743 100.638 81.4197 100.693 81.4197C111.171 80.0554 121.594 78.6366 132.071 77.2723C132.126 77.2723 132.235 77.4906 132.344 77.3269C132.89 77.3269 133.599 77.5452 133.927 77.2723C134.8 76.5629 135.837 76.7812 136.819 76.6175C140.912 76.0172 145.059 75.526 149.206 74.9803C153.299 74.4346 157.392 73.8889 161.485 73.3432C165.578 72.7975 169.67 72.2518 173.763 71.7061C175.455 71.4878 177.201 71.2695 178.893 70.9967C178.893 71.1604 178.948 71.3241 178.948 71.3787C179.329 71.215 179.657 70.9421 179.984 70.8875C183.149 70.451 186.26 70.0144 189.425 69.5778C193.027 69.0867 196.683 68.6501 200.285 68.159C203.886 67.6678 207.488 67.2313 211.09 66.7401C215.183 66.1944 219.275 65.6487 223.368 65.103C225.005 64.8847 226.642 64.6664 228.334 64.4482C228.607 64.3936 228.934 64.6119 229.153 64.6665C229.371 64.5027 229.589 64.2845 229.862 64.2845C234.555 63.6296 239.303 62.9202 244.051 62.4836C246.943 62.2108 249.671 62.9748 252.291 64.5573C255.783 66.6856 258.021 69.687 258.948 73.5615C259.494 75.8535 259.658 78.3092 259.985 80.6557C260.476 84.312 260.967 87.9682 261.459 91.6244C261.95 95.1716 262.386 98.6641 262.877 102.211C263.205 104.831 263.532 107.45 263.914 110.069C264.46 114.49 263.259 118.364 260.367 121.693C257.584 124.858 253.928 126.168 249.835 126.659C245.633 127.095 241.486 127.75 237.284 128.296C236.356 128.405 235.483 128.569 234.555 128.623C233.355 128.623 232.209 129.06 231.063 129.115C229.808 129.224 228.552 129.442 227.297 129.606C223.641 130.097 219.93 130.588 216.274 131.025C213.218 131.407 210.107 131.898 207.051 132.28C204.105 132.662 201.103 133.044 198.156 133.426C195.046 133.808 191.99 134.19 188.879 134.626C185.169 135.117 181.458 135.609 177.692 136.1C173.272 136.7 168.906 137.246 164.486 137.846C159.466 138.501 154.445 139.21 149.425 139.865C147.078 140.192 144.732 140.356 142.385 140.684C139.984 141.011 137.583 141.393 135.182 141.72C133.381 141.939 131.58 142.102 129.779 142.375C127.269 142.703 124.813 143.085 122.303 143.412C119.302 143.849 116.3 144.34 113.299 144.613C108.988 145.049 104.731 145.759 100.475 146.304C97.9644 146.632 95.5087 147.014 92.9984 147.287C92.5073 147.287 92.1799 146.905 91.7979 146.686ZM93.1621 145.704C93.2167 145.65 93.3259 145.431 93.5441 145.377C95.0176 145.158 96.491 144.995 97.9644 144.776C102.003 144.231 106.095 143.74 110.134 143.194C114.172 142.648 118.21 142.102 122.194 141.557C126.287 141.011 130.379 140.52 134.472 139.974C139.002 139.374 143.531 138.774 148.06 138.173C153.081 137.519 158.101 136.864 163.177 136.209C168.361 135.554 173.545 134.845 178.729 134.135C181.84 133.753 184.896 133.371 188.006 132.935C192.099 132.389 196.192 131.789 200.285 131.243C203.886 130.752 207.543 130.261 211.144 129.824C215.183 129.278 219.221 128.787 223.259 128.241C226.861 127.75 230.517 127.259 234.119 126.768C234.773 126.659 235.483 126.768 235.974 126.768C236.956 126.55 237.775 126.277 238.593 126.168C242.141 125.677 245.742 125.24 249.289 124.804C252.291 124.476 255.128 123.821 257.53 121.802C260.804 119.019 262.495 115.417 262.223 111.106C261.95 107.559 261.349 104.012 260.913 100.519C260.367 96.1538 259.767 91.8427 259.221 87.4771C259.167 87.2588 259.385 86.9859 259.33 86.7676C259.276 86.4402 259.003 86.1128 258.948 85.7308C258.457 82.2383 258.075 78.8003 257.584 75.3078C256.875 70.2327 254.146 66.7401 249.453 64.7756C246.888 63.6842 244.214 63.9025 241.54 64.2299C240.34 64.3936 239.139 64.2845 237.939 64.4482C237.011 64.5573 236.083 64.9939 235.155 65.103C227.843 66.0853 220.476 67.013 213.163 67.9953C211.363 68.2136 209.562 68.4864 207.706 68.7593C205.96 68.9776 204.214 69.1413 202.522 69.3595C197.993 70.0144 193.463 70.6147 188.934 71.215C184.841 71.7607 180.748 72.2518 176.656 72.7975C172.508 73.3432 168.415 73.8889 164.268 74.4346C159.793 75.0349 155.264 75.5806 150.789 76.1809C146.205 76.7812 141.621 77.436 137.037 78.0363C132.289 78.6912 127.542 79.2914 122.794 79.8917C122.03 80.0009 121.102 80.3829 120.557 79.4006C120.557 79.346 120.393 79.4006 120.229 79.4006C120.229 79.6734 120.229 79.9463 120.229 80.2737C118.101 80.492 115.973 80.7103 113.899 80.9831C110.243 81.4743 106.641 82.2928 102.93 82.2383C102.657 82.2383 102.385 82.5111 102.112 82.5657C101.73 82.6748 101.293 82.7294 100.857 82.784C98.6192 83.0568 96.3273 83.3843 94.0353 83.6571C94.0353 83.4388 94.0353 83.3297 94.0353 83.2751C93.5987 83.4388 93.1621 83.7662 92.7256 83.8208C89.6696 84.2574 86.6136 84.6394 83.5577 85.0759C79.956 85.5671 76.2998 86.0037 72.6981 86.4948C69.0964 86.9859 65.4947 87.4225 61.8931 87.9136C57.8548 88.4593 53.8166 88.9505 49.7783 89.4962C45.6855 90.0419 41.5927 90.5876 37.4999 91.1333C33.7891 91.6244 30.1328 92.2247 26.422 92.5521C24.894 92.7159 23.2569 93.8073 21.6743 92.443C21.7835 92.6613 21.9472 92.9342 22.1109 93.207C16.9813 93.4799 12.2336 94.4621 9.12305 99.0461C8.8502 98.9369 8.68648 98.8278 8.52277 98.7732C8.4682 99.3189 8.57734 99.8101 8.35906 100.138C6.94022 102.811 6.44908 105.813 7.04936 109.36C7.5405 112.361 7.86792 115.363 8.19535 118.364C8.24992 118.855 8.68648 119.401 8.0862 119.892C7.97706 120.001 8.52277 120.711 8.57734 121.202C9.01391 124.367 9.3959 127.587 9.83247 130.752C10.3236 134.353 10.8147 138.01 11.2513 141.611C11.5787 144.504 12.3427 147.232 14.2527 149.524C14.7438 150.07 15.0167 150.779 15.5078 151.27C15.8898 151.652 16.5447 151.762 17.0358 152.034C18.8367 153.126 20.7466 153.999 22.8749 153.999C24.7303 153.999 26.6403 153.781 28.4957 153.617C31.4971 153.344 34.4439 153.017 37.4453 152.635C39.1916 152.416 40.9379 152.034 42.7387 151.762C46.9952 151.161 51.1972 150.616 55.4537 150.07C56.9817 149.852 58.5097 149.688 60.0376 149.47C65.9859 148.706 71.9341 147.942 77.8823 147.178C80.5563 146.85 83.1757 146.414 85.8496 146.086C87.7596 145.813 89.6696 145.54 91.5796 145.322C92.1799 145.54 92.6164 145.65 93.1621 145.704Z" fill="#437AA7"/>
<path d="M45.6317 100.301L51.4162 99.5917L61.239 116.563L59.0561 98.664L65.8775 97.8455L70.4614 135.063L64.8952 135.772L54.9088 117.436L57.3099 136.754L50.2702 137.628L45.6317 100.301Z" fill="#437AA7"/>
<path d="M74.9908 122.566L73.2991 108.76C72.3714 101.065 74.6088 96.263 82.9582 95.2261C91.3621 94.1893 94.7455 98.3367 95.7278 106.031L97.4195 119.838C98.3472 127.532 96.1097 132.443 87.6513 133.48C79.3565 134.517 75.9731 130.261 74.9908 122.566ZM89.2884 122.948L87.1056 105.049C86.8327 102.866 86.287 100.738 83.7222 101.011C81.2665 101.338 81.2119 103.521 81.4848 105.704L83.6676 123.603C83.9404 125.731 84.377 127.969 86.9418 127.641C89.5612 127.314 89.5612 125.022 89.2884 122.948Z" fill="#437AA7"/>
<path d="M115.373 118.091L122.249 116.181C122.959 120.984 124.268 122.675 126.342 122.402C128.034 122.184 128.252 120.711 128.088 119.456C127.706 116.4 125.905 114.708 123.122 112.907L119.575 110.506C116.41 108.487 113.9 105.922 113.354 101.447C112.59 95.1715 116.137 91.1878 122.577 90.4238C130.544 89.4416 132.454 95.4989 133.109 99.8646L126.124 101.611C125.633 98.3366 125.141 96.2084 123.013 96.4812C121.485 96.6449 120.994 98.3366 121.158 99.6463C121.485 102.429 123.122 103.685 125.469 105.322L128.907 107.668C132.454 110.015 135.455 112.962 136.056 118.146C136.71 123.439 133.382 127.969 127.488 128.733C120.503 129.442 116.683 126.331 115.373 118.091Z" fill="#437AA7"/>
<path d="M137.693 88.9505L145.933 87.9682L147.788 103.03L153.518 102.32L151.663 87.2588L159.958 86.2219L164.542 123.439L156.247 124.476L154.228 108.214L148.498 108.923L150.517 125.186L142.277 126.222L137.693 88.9505Z" fill="#437AA7"/>
<path d="M169.235 110.943L167.543 97.1361C166.615 89.4416 168.853 84.6394 177.202 83.6025C185.606 82.5657 188.989 86.7131 189.972 94.4075L191.663 108.214C192.591 115.908 190.354 120.82 181.895 121.857C173.546 122.894 170.162 118.637 169.235 110.943ZM183.478 111.325L181.24 93.4253C180.968 91.2424 180.422 89.1142 177.857 89.387C175.401 89.7145 175.347 91.8973 175.62 94.0801L177.802 111.979C178.075 114.108 178.512 116.345 181.077 116.018C183.751 115.69 183.751 113.398 183.478 111.325Z" fill="#437AA7"/>
<path d="M192.973 82.1291L199.958 81.256L204.815 102.648L204.924 80.6557L210.381 80.0008L215.947 101.12L215.565 79.2914L222.441 78.4183L222.55 116.181L215.402 117.054L209.508 95.0624L209.29 117.873L202.032 118.746L192.973 82.1291Z" fill="#437AA7"/>
<path d="M92.8349 39.7275L88.3601 43.0017L77.0093 36.8352L76.9548 36.8898C77.2822 37.2718 77.6096 37.7084 77.9916 38.0904C78.319 38.5269 78.6465 38.9089 78.9739 39.2909C79.3013 39.6729 79.5742 40.0549 79.7924 40.3278L84.049 46.1668L80.7747 48.568L70.3517 34.3795L74.8265 31.1053L86.0135 37.1081L86.0681 37.0535C85.7407 36.6715 85.4132 36.2895 85.0858 35.9075C84.7584 35.5255 84.431 35.1435 84.1581 34.7615C83.8853 34.3795 83.6124 34.0521 83.3941 33.7247L79.1376 27.9402L82.4118 25.5391L92.8349 39.7275Z" fill="#437AA7"/>
<path d="M105.277 24.2294C105.823 25.5391 106.205 26.7396 106.368 27.8856C106.532 29.0316 106.478 30.0685 106.259 31.0507C105.986 32.033 105.495 32.9061 104.786 33.6701C104.076 34.4341 103.149 35.089 101.948 35.5801C100.802 36.0713 99.6562 36.3441 98.6193 36.3441C97.5825 36.3441 96.6002 36.1258 95.7271 35.6893C94.8539 35.2527 94.0354 34.5433 93.2714 33.6701C92.5074 32.7424 91.8525 31.651 91.3068 30.3413C90.5428 28.595 90.1608 27.0125 90.1063 25.5391C90.0517 24.0657 90.4337 22.8105 91.1977 21.6646C91.9617 20.5731 93.1077 19.6454 94.6902 18.936C96.2728 18.2266 97.7462 18.0083 99.0559 18.172C100.366 18.3903 101.566 18.9906 102.603 19.9729C103.64 21.1188 104.513 22.4831 105.277 24.2294ZM95.6179 28.5405C96.0545 29.5773 96.5456 30.3959 97.0368 31.0507C97.5279 31.7056 98.0736 32.0876 98.6193 32.3059C99.165 32.5241 99.7653 32.4696 100.366 32.1967C101.02 31.9239 101.457 31.4873 101.675 30.9416C101.894 30.3959 101.948 29.741 101.839 28.9225C101.675 28.1039 101.402 27.2308 100.966 26.1394C100.256 24.5568 99.547 23.4654 98.7285 22.8105C97.9645 22.1557 97.0913 22.0465 96.1091 22.4831C95.5088 22.756 95.0722 23.1925 94.7994 23.7382C94.5811 24.284 94.5265 24.9934 94.6356 25.7574C94.8539 26.5759 95.1814 27.5036 95.6179 28.5405Z" fill="#437AA7"/>
<path d="M126.123 23.4108C126.287 24.3931 126.232 25.3754 125.905 26.3031C125.578 27.2308 124.977 27.9948 124.159 28.6496C123.34 29.3045 122.249 29.741 120.884 29.9593C120.23 30.0684 119.629 30.123 119.084 30.123C118.538 30.123 117.992 30.123 117.501 30.0139C117.01 29.9593 116.464 29.7956 115.864 29.6319L115.155 25.4299C116.028 25.7574 116.901 25.9756 117.828 26.0848C118.702 26.1939 119.466 26.1939 120.175 26.0848C120.557 26.0302 120.884 25.9211 121.157 25.7574C121.376 25.5936 121.539 25.4299 121.648 25.2116C121.758 24.9934 121.758 24.7751 121.703 24.5022C121.648 24.2294 121.539 24.0111 121.376 23.7928C121.212 23.6291 120.884 23.4108 120.448 23.2471C120.011 23.0834 119.466 22.8651 118.702 22.5922C118.047 22.374 117.501 22.1557 116.955 21.8828C116.464 21.6645 115.973 21.3371 115.591 21.0097C115.209 20.6823 114.882 20.2457 114.609 19.7546C114.336 19.2634 114.172 18.6631 114.009 17.8992C113.845 16.8077 113.899 15.88 114.281 15.0069C114.663 14.1883 115.209 13.4789 116.028 12.9332C116.846 12.3875 117.883 12.0055 119.084 11.8418C120.011 11.6781 120.884 11.6781 121.758 11.7327C122.631 11.8418 123.449 12.0055 124.213 12.2784L123.558 16.0983C122.849 15.8255 122.14 15.6618 121.485 15.6072C120.83 15.498 120.23 15.498 119.738 15.6072C119.411 15.6618 119.138 15.7709 118.92 15.88C118.702 15.9892 118.592 16.1529 118.483 16.3712C118.429 16.5349 118.374 16.7532 118.429 16.9715C118.483 17.2443 118.592 17.5172 118.811 17.6809C119.029 17.8446 119.302 18.0629 119.793 18.2266C120.23 18.3903 120.884 18.6631 121.703 18.936C122.522 19.2089 123.286 19.5363 123.886 19.9183C124.486 20.3003 124.977 20.7368 125.359 21.2825C125.741 21.8828 126.014 22.5922 126.123 23.4108Z" fill="#437AA7"/>
<path d="M142.767 28.7042L138.292 28.595L138.456 21.3371L133.817 21.228L133.654 28.4859L129.179 28.3767L129.506 10.7504L133.981 10.8595L133.872 17.4626L138.511 17.5717L138.62 10.9687L143.095 11.0778L142.767 28.7042Z" fill="#437AA7"/>
<path d="M162.085 23.7383C161.758 25.1025 161.321 26.3031 160.775 27.3399C160.23 28.3768 159.575 29.1953 158.756 29.7956C157.992 30.3959 157.065 30.8325 156.028 30.9962C154.991 31.1599 153.845 31.1053 152.59 30.8325C151.335 30.5596 150.298 30.0685 149.479 29.4682C148.661 28.8679 148.006 28.1039 147.569 27.1762C147.133 26.2485 146.86 25.2117 146.805 24.0657C146.751 22.9197 146.86 21.61 147.187 20.2457C147.624 18.3903 148.224 16.8623 149.097 15.7163C149.97 14.5158 151.007 13.6972 152.262 13.2607C153.517 12.8241 154.991 12.7695 156.683 13.1515C158.374 13.5335 159.684 14.1884 160.612 15.1706C161.539 16.0983 162.14 17.2989 162.358 18.7723C162.576 20.2457 162.467 21.8828 162.085 23.7383ZM151.771 21.3917C151.498 22.4831 151.389 23.4654 151.444 24.2294C151.444 25.048 151.662 25.7028 151.99 26.1939C152.317 26.6851 152.808 27.0125 153.463 27.1762C154.172 27.3399 154.773 27.2854 155.264 26.9579C155.755 26.6851 156.191 26.1394 156.573 25.4299C156.955 24.7205 157.228 23.7928 157.501 22.7014C157.883 21.0097 157.938 19.7 157.719 18.7177C157.501 17.7355 156.846 17.1352 155.864 16.8623C155.209 16.6986 154.609 16.8078 154.063 17.0806C153.517 17.408 153.081 17.8992 152.699 18.6086C152.317 19.318 151.99 20.2457 151.771 21.3917Z" fill="#437AA7"/>
<path d="M189.043 26.685L177.638 40.6552L172.999 38.3086L174.964 31.3235C175.019 31.0507 175.128 30.7778 175.237 30.3958C175.346 30.0139 175.455 29.6319 175.619 29.2499C175.728 28.8679 175.892 28.4313 176.001 28.0493C176.165 27.6673 176.274 27.2853 176.383 26.9579C176.219 27.2307 176.001 27.5582 175.783 27.8856C175.564 28.213 175.291 28.595 175.019 28.9224C174.746 29.2499 174.527 29.6319 174.255 29.9047C174.036 30.2321 173.818 30.4504 173.654 30.6687L169.125 36.3441L164.486 33.9975L169.016 16.5349L172.89 18.4994L170.544 26.5759C170.489 26.8487 170.38 27.1216 170.271 27.5582C170.162 27.9402 169.998 28.3767 169.889 28.8133C169.725 29.2499 169.616 29.6864 169.452 30.123C169.289 30.5596 169.179 30.9416 169.07 31.269C169.343 30.887 169.616 30.4504 169.943 30.0139C170.271 29.5773 170.598 29.1407 170.926 28.6496C171.253 28.213 171.581 27.7764 171.908 27.3944C172.181 27.0125 172.454 26.685 172.672 26.4667L177.311 20.7368L180.803 22.4831L178.839 29.5773C178.729 29.9047 178.62 30.2867 178.511 30.7778C178.402 31.269 178.238 31.7601 178.075 32.3058C177.911 32.8515 177.747 33.3972 177.583 33.8884C177.42 34.3795 177.256 34.8707 177.092 35.3072C177.311 34.9252 177.638 34.5432 177.965 34.0521C178.293 33.561 178.675 33.0698 179.002 32.5787C179.384 32.0875 179.657 31.7055 179.93 31.3235L185.114 24.6659L189.043 26.685Z" fill="#437AA7"/>
<path d="M99.1659 201.312L94.2546 198.692L94.8548 185.814L94.7457 185.759C94.5274 186.25 94.3091 186.687 94.0908 187.178C93.8726 187.669 93.6543 188.16 93.436 188.597C93.2177 189.033 92.9994 189.415 92.8357 189.797L89.4523 196.182L85.8506 194.272L94.0908 178.719L98.9476 181.339L98.4565 193.999L98.5111 194.054C98.7294 193.617 98.9477 193.126 99.1659 192.69C99.3842 192.198 99.6025 191.762 99.8208 191.325C100.039 190.889 100.203 190.507 100.421 190.179L103.804 183.849L107.406 185.759L99.1659 201.312Z" fill="#437AA7"/>
<path d="M121.158 198.692C120.776 200.057 120.34 201.257 119.739 202.24C119.139 203.222 118.484 204.04 117.666 204.641C116.847 205.241 115.919 205.623 114.882 205.787C113.846 205.95 112.7 205.841 111.444 205.514C110.189 205.186 109.207 204.695 108.388 204.04C107.57 203.385 106.97 202.621 106.533 201.694C106.097 200.766 105.933 199.729 105.878 198.583C105.878 197.437 106.042 196.128 106.424 194.763C106.915 192.908 107.624 191.434 108.498 190.288C109.371 189.143 110.462 188.324 111.772 187.942C113.027 187.56 114.5 187.56 116.192 187.997C117.884 188.433 119.139 189.143 120.067 190.125C120.994 191.107 121.485 192.308 121.704 193.781C121.813 195.2 121.649 196.837 121.158 198.692ZM110.953 195.964C110.68 197.055 110.517 197.983 110.517 198.802C110.517 199.62 110.68 200.275 111.008 200.766C111.335 201.257 111.826 201.585 112.481 201.803C113.191 201.967 113.791 201.912 114.282 201.639C114.773 201.366 115.264 200.875 115.646 200.166C116.028 199.456 116.356 198.583 116.683 197.437C117.12 195.746 117.229 194.436 117.011 193.454C116.792 192.471 116.192 191.816 115.21 191.544C114.555 191.38 113.955 191.434 113.409 191.707C112.863 191.98 112.427 192.471 111.99 193.181C111.554 193.945 111.226 194.872 110.953 195.964Z" fill="#437AA7"/>
<path d="M140.749 202.84C140.749 203.877 140.53 204.804 140.039 205.623C139.603 206.496 138.893 207.151 137.966 207.642C137.038 208.133 135.892 208.406 134.528 208.406C133.873 208.406 133.272 208.406 132.727 208.297C132.181 208.242 131.69 208.133 131.144 207.969C130.653 207.806 130.107 207.587 129.616 207.315L129.562 203.058C130.38 203.549 131.199 203.877 132.072 204.149C132.945 204.422 133.709 204.531 134.364 204.531C134.8 204.531 135.128 204.477 135.346 204.368C135.619 204.259 135.783 204.095 135.946 203.877C136.056 203.658 136.11 203.44 136.11 203.222C136.11 202.949 136.056 202.676 135.892 202.458C135.728 202.239 135.455 202.021 135.073 201.748C134.691 201.475 134.146 201.203 133.436 200.821C132.836 200.493 132.29 200.166 131.854 199.838C131.417 199.511 130.98 199.129 130.653 198.747C130.326 198.365 130.053 197.874 129.889 197.328C129.725 196.782 129.616 196.182 129.616 195.418C129.616 194.327 129.834 193.399 130.326 192.635C130.817 191.871 131.472 191.271 132.399 190.834C133.327 190.398 134.364 190.234 135.619 190.179C136.547 190.179 137.42 190.288 138.293 190.507C139.112 190.725 139.93 191.052 140.64 191.38L139.384 195.091C138.675 194.709 138.02 194.436 137.42 194.272C136.765 194.108 136.219 193.999 135.674 193.999C135.346 193.999 135.019 194.054 134.8 194.163C134.582 194.272 134.418 194.381 134.309 194.545C134.2 194.709 134.146 194.927 134.146 195.145C134.146 195.418 134.255 195.691 134.418 195.909C134.582 196.128 134.855 196.346 135.292 196.619C135.728 196.892 136.274 197.219 137.038 197.601C137.802 197.983 138.511 198.42 139.057 198.911C139.603 199.347 140.039 199.893 140.312 200.493C140.585 201.312 140.694 202.021 140.749 202.84Z" fill="#437AA7"/>
<path d="M158.703 205.186L154.283 206.059L152.864 198.965L148.334 199.893L149.753 206.987L145.388 207.86L141.895 190.616L146.261 189.743L147.57 196.182L152.1 195.254L150.79 188.815L155.21 187.942L158.703 205.186Z" fill="#437AA7"/>
<path d="M174.146 189.415C174.692 190.725 175.074 191.926 175.238 193.072C175.401 194.218 175.347 195.254 175.128 196.237C174.856 197.219 174.364 198.092 173.655 198.856C172.946 199.62 172.018 200.275 170.817 200.766C169.671 201.257 168.525 201.53 167.488 201.53C166.452 201.53 165.469 201.312 164.596 200.875C163.723 200.439 162.905 199.729 162.141 198.856C161.377 197.928 160.722 196.837 160.176 195.527C159.412 193.781 159.03 192.198 158.975 190.725C158.921 189.252 159.303 187.997 160.067 186.851C160.831 185.759 161.977 184.831 163.559 184.122C165.142 183.413 166.615 183.194 167.925 183.358C169.235 183.576 170.435 184.177 171.472 185.159C172.454 186.305 173.382 187.669 174.146 189.415ZM164.487 193.672C164.924 194.709 165.415 195.527 165.906 196.182C166.397 196.837 166.943 197.219 167.488 197.437C168.034 197.656 168.634 197.601 169.235 197.328C169.89 197.055 170.326 196.619 170.544 196.073C170.763 195.527 170.817 194.872 170.708 194.054C170.599 193.235 170.272 192.362 169.835 191.271C169.126 189.688 168.416 188.597 167.598 187.942C166.834 187.287 165.96 187.178 164.978 187.615C164.378 187.887 163.941 188.324 163.669 188.87C163.45 189.415 163.396 190.125 163.505 190.889C163.723 191.707 163.996 192.635 164.487 193.672Z" fill="#437AA7"/>
<path d="M188.062 167.969L196.029 184.122L191.936 187.396L186.37 182.703C186.152 182.539 185.933 182.321 185.661 182.048C185.388 181.775 185.06 181.557 184.787 181.23C184.46 180.957 184.133 180.629 183.86 180.357C183.587 180.084 183.259 179.811 183.041 179.538C183.205 179.811 183.423 180.084 183.641 180.466C183.86 180.848 184.078 181.175 184.296 181.557C184.515 181.939 184.733 182.321 184.897 182.649C185.06 182.976 185.224 183.249 185.333 183.522L188.662 190.016L184.624 193.235L170.599 181.885L173.982 179.156L180.367 184.613C180.586 184.777 180.804 184.995 181.131 185.268C181.459 185.541 181.786 185.814 182.113 186.141C182.441 186.469 182.823 186.796 183.15 187.069C183.478 187.396 183.751 187.669 184.023 187.887C183.751 187.505 183.532 187.014 183.205 186.578C182.877 186.141 182.659 185.595 182.386 185.104C182.113 184.613 181.895 184.122 181.677 183.74C181.459 183.303 181.295 182.976 181.131 182.649L177.857 176.045L180.913 173.644L186.534 178.337C186.807 178.556 187.134 178.829 187.516 179.156C187.898 179.483 188.28 179.811 188.717 180.193C189.153 180.575 189.535 180.957 189.972 181.284C190.354 181.666 190.736 181.994 191.063 182.321C190.845 181.939 190.572 181.503 190.245 181.011C189.972 180.466 189.644 179.975 189.371 179.429C189.099 178.883 188.826 178.447 188.607 178.065L184.733 170.588L188.062 167.969Z" fill="#437AA7"/>
</svg>
