<?xml version="1.0" encoding="utf-8"?>
<!-- Generator: Adobe Illustrator 27.3.1, SVG Export Plug-In . SVG Version: 6.00 Build 0)  -->
<svg version="1.1" id="Layer_1" xmlns="http://www.w3.org/2000/svg" xmlns:xlink="http://www.w3.org/1999/xlink" x="0px" y="0px"
	 viewBox="0 0 400 400" style="enable-background:new 0 0 400 400;" xml:space="preserve">
<style type="text/css">
	.st0{fill:#F8981D;}
</style>
<g>
	<path class="st0" d="M388.7,173.2c-13.9-42.9-27.8-85.7-41.8-128.6c-2.7-8.2-5.5-9.7-13.4-7.1c-105.3,34.2-210.7,68.5-316,102.7
		c-7.3,2.4-8.7,5.3-6.4,12.5c6.2,19.1,12.5,38.3,18.6,57.4c0.8,2.4,1.2,5.1,1.2,7.6c0.1,45.4,0,90.8,0.1,136.2c0,7,2.6,9.7,9.6,9.7
		c111.2,0,222.5,0,333.7,0c7,0,9.6-2.7,9.6-9.7c0-45.8,0-91.6,0-137.3c0-7.1-2.5-9.5-9.7-9.6c-16.8,0-33.7,0-50.5,0c-1,0-2,0-3,0
		c1.1-1.1,2.2-1.6,3.4-2c19.3-6.3,38.5-12.5,57.8-18.7c3.4-1.1,6.4-2.5,8.1-5.9c0-1.5,0-3,0-4.5C389.5,175.1,389,174.2,388.7,173.2z
		 M368.8,222.2c0,42.1,0,84.1,0,126.5c-1.4,0.1-2.7,0.2-4.1,0.2c-104.9,0-209.8,0-314.7,0c-2.6,0-4.3,0-4.3-3.6
		c0.1-40.1,0.1-80.2,0.1-120.2c0-0.8,0.1-1.7,0.2-2.9c13.8,0,27.3,0,41.1,0c0,1.7,0,3.1,0,4.6c0,24.9,0,49.7,0,74.6
		c0,1.4-0.1,2.7,0.1,4.1c0.4,3.4,2.9,6,6.2,6.4c3.4,0.5,6.8-1.4,7.9-4.8c0.5-1.6,0.6-3.4,0.6-5.1c0-25.2,0-50.5,0-75.7
		c0-1.3,0-2.7,0-4.2C191,222.2,279.8,222.2,368.8,222.2z M359.6,178.1c-28.7,9.3-57.3,18.6-86,27.8c-2.3,0.7-4.8,1.2-7.2,1.2
		c-72.6,0.1-145.2,0-217.8,0.1c-3.3,0-4.6-0.9-5.6-4.1c-4.9-15.6-10-31-15.1-46.5c-0.4-1.2-0.7-2.3-1.1-3.8c13-4.2,25.9-8.4,39-12.7
		c4,12,7.8,23.6,11.6,35.2c1.1,3.3,2.1,6.6,3.2,9.9c1.6,4.5,5.6,6.5,9.7,5.1c3.9-1.4,5.7-5.3,4.3-9.7c-4.3-13.4-8.7-26.8-13.1-40.1
		c-0.5-1.5-0.9-3-1.5-4.9c84.8-27.5,169.2-55,254-82.5c13.1,40.3,26.1,80.3,39.2,120.6C368.5,175.1,364.1,176.6,359.6,178.1z"/>
	<path class="st0" d="M135.6,256.5c1.5,0.3,3.2,0.4,4.8,0.4c65.8,0,131.6,0,197.4,0c0.7,0,1.5,0,2.2,0c5-0.3,8.3-3.4,8.2-7.7
		c-0.2-4.2-3.4-7-8.3-7.1c-1,0-2,0-3,0c-32.5,0-65.1,0-97.6,0c-32.9,0-65.8,0-98.7,0c-1.4,0-2.7,0-4.1,0.1c-3.7,0.4-6.4,3.1-6.6,6.8
		C129.7,252.7,131.9,255.7,135.6,256.5z"/>
	<path class="st0" d="M138.5,285.2c11.4,0,22.8,0,34.1,0c11.7,0,23.5,0.1,35.2,0c4.9,0,8-3.1,7.9-7.5c0-4.3-3.2-7.3-8-7.3
		c-7.4-0.1-14.8,0-22.3,0c-15.8,0-31.7,0-47.5,0c-5.9,0-9.5,4.7-7.7,9.8C131.6,283.9,134.7,285.2,138.5,285.2z"/>
	<path class="st0" d="M340,270.4c-6.2-0.1-12.4,0-18.5,0c-6.2,0-12.4,0-18.5,0c-4.9,0-8,2.9-8.1,7.3c0,4.3,3.1,7.5,7.9,7.5
		c12.5,0.1,25,0.1,37.4,0c4.7,0,8-3.3,8-7.5C348.1,273.4,344.8,270.4,340,270.4z"/>
	<path class="st0" d="M342.6,320.2c-5.3-0.4-10.6-0.4-15.8,0c-3.5,0.3-5.7,3.9-5.6,7.3c0.2,3.6,2.9,6.6,6.5,6.9c2.2,0.2,4.4,0,6.7,0
		c2.5,0,5,0.2,7.4,0c3.6-0.3,6.3-3.4,6.5-7C348.3,324,346,320.4,342.6,320.2z"/>
	<path class="st0" d="M303,320.1c-5.1-0.5-10.4-0.4-15.5,0c-3.6,0.3-6,4-5.8,7.4c0.2,3.6,2.9,6.5,6.6,6.8c2.2,0.2,4.4,0,6.7,0
		c2.3,0,4.7,0.2,7,0c3.8-0.3,6.4-3.1,6.7-6.7C309,324.1,306.7,320.5,303,320.1z"/>
	<path class="st0" d="M94.3,321.9c-4.5,0-7.3,3.5-7.3,8.8c0,5.5,2.6,8.8,7.2,8.8c4.7,0.1,7.7-3.4,7.6-8.9
		C101.8,325.4,98.8,321.9,94.3,321.9z"/>
	<path class="st0" d="M317.3,95c3.5-1.2,5.5-3.6,5.7-7c-0.1-5.9-5.2-8.8-11.4-6.8c-58.2,18.9-116.5,37.9-174.7,56.8
		c-5.8,1.9-11.6,3.6-17.3,5.6c-3.9,1.4-5.8,5.2-4.7,8.9c1.2,4,4.7,6.1,8.9,5.2c1.3-0.3,2.6-0.7,3.9-1.1
		c52.6-17.1,105.2-34.2,157.8-51.3C296.2,101.9,306.8,98.5,317.3,95z"/>
	<path class="st0" d="M197,148.5c-3.4,0.8-6.6,2-9.9,3.1c-19,6.2-38,12.3-57,18.5c-5.2,1.7-7.6,5.4-6.2,9.6
		c1.4,4.5,5.5,6.1,10.9,4.5c2.9-0.9,5.9-1.9,8.8-2.9c18.8-6.1,37.5-12.2,56.3-18.3c3.7-1.2,6-3.3,6.1-6.5
		C206,150.8,201.8,147.3,197,148.5z"/>
	<path class="st0" d="M289,133.9c12.9-4.2,25.9-8.2,38.7-12.7c3.6-1.3,4.9-5.5,3.6-9.1c-1.3-3.5-4.9-5.5-8.7-4.5
		c-3.5,0.9-6.8,2.1-10.3,3.2c-8.9,2.9-17.9,5.8-26.7,8.8c-3.9,1.3-5.8,4.7-5.1,8.4c0.7,3.7,3.6,6,7.4,6
		C288.3,133.9,288.7,134,289,133.9z"/>
	<path class="st0" d="M300.7,166.7c-4.4,1.1-8.8,2.6-13,4.3c-3.7,1.4-5.3,5.2-4.1,8.8c1.2,3.8,4.8,6.1,8.7,5
		c4.3-1.2,8.5-2.6,12.7-4.2c3.1-1.1,4.5-3.7,4.7-6.6C309.5,169.2,305.2,165.6,300.7,166.7z"/>
	<path class="st0" d="M320.8,164c-0.1,6.2,4.1,9.8,8.8,8.6c4.1-1,8-2.4,12-3.8c4.3-1.6,6.3-5.3,5.1-9.3c-1.2-3.9-5.2-6-9.5-4.7
		c-3.9,1.1-7.8,2.4-11.6,3.8C322.6,159.7,320.9,162,320.8,164z"/>
</g>
</svg>
