<?xml version='1.0' encoding='utf-8'?>
<!-- Generator: imaengine 6.0   -->
<svg xmlns:xlink="http://www.w3.org/1999/xlink" xmlns="http://www.w3.org/2000/svg" viewBox="0,0,395,544" style="enable-background:new 0 0 395 544;" version="1.1">
<defs/>
<g id="layer0">
<g transform="matrix(1 0 0 1 -177.713 13.4407)">
<path d="M323.75,353.5L323.75,369.25C323.75,384.125 312.375,395.5 297.5,395.5C290.5,395.5 283.5,392.875 279.125,387.625L207.375,315.875C196.875,305.375 196.875,288.75 207.375,279.125C212.625,273.875 218.75,271.25 225.75,271.25L241.5,271.25L367.5,145.25L367.5,129.5C367.5,114.625 378.875,103.25 393.75,103.25C400.75,103.25 407.75,105.875 412.125,111.125L483.875,182.875C494.375,193.375 494.375,210 483.875,219.625C478.625,224.875 472.5,227.5 465.5,227.5L449.75,227.5L410.375,266.875L516.255,372.755L516.255,143.505L496.13,163.63L483.88,151.38L516.255,119.005L516.255,43.755C516.255,38.505 512.755,35.005 507.505,35.005L192.505,35.005C187.255,35.005 183.755,38.505 183.755,43.755L183.755,455.005L227.505,455.005C242.38,455.005 253.755,466.38 253.755,481.255L253.755,525.005L507.505,525.005C512.755,525.005 516.255,521.505 516.255,516.255L516.255,449.755L371.875,305.375L323.75,353.5ZM504.87,102.38L469.87,137.38L457.62,125.13L492.62,90.13L504.87,102.38ZM448.87,81.38L461.12,93.63L443.62,111.13L431.37,98.88L448.87,81.38ZM297.49,61.255L402.49,61.255L402.49,78.755L297.49,78.755L297.49,61.255ZM209.99,105.005L349.99,105.005L349.99,122.505L209.99,122.505L209.99,105.005ZM209.99,148.755L314.99,148.755L314.99,166.255L209.99,166.255L209.99,148.755ZM209.99,192.505L279.99,192.505L279.99,210.005L209.99,210.005L209.99,192.505ZM209.99,236.255L236.24,236.255L236.24,253.755L209.99,253.755L209.99,236.255ZM489.99,498.755L279.99,498.755L279.99,481.255L489.99,481.255L489.99,498.755ZM489.99,463.755L279.99,463.755L279.99,446.255L489.99,446.255L489.99,463.755ZM454.99,428.755L209.99,428.755L209.99,411.255L454.99,411.255L454.99,428.755Z" fill="#FFFFFF"/>
<path d="M227.5,472.5L196,472.5L236.25,512.75L236.25,481.25C236.25,476 232.75,472.5 227.5,472.5L227.5,472.5Z" fill="#FFFFFF"/>
<path d="M225.75,288.75C220.5,288.75 217,292.25 217,297.5C217,300.125 217.875,301.875 219.625,303.625L291.375,375.375C294.875,378.875 300.125,378.875 303.625,375.375C305.375,373.625 306.25,371.875 306.25,369.25L306.25,353.5L241.5,288.75L225.75,288.75Z" fill="#FFFFFF"/>
<path d="M257.14,279.69L375.93,160.9L433.469,218.439L314.679,337.229L257.14,279.69Z" fill="#FFFFFF"/>
<path d="M566.12,447.12L398.12,279.12L384.12,293.12L552.12,461.12C555.62,464.62 561.745,464.62 566.12,461.12C569.62,456.745 569.62,450.62 566.12,447.12L566.12,447.12Z" fill="#FFFFFF"/>
<path d="M465.5,210C470.75,210 474.25,206.5 474.25,201.25C474.25,198.625 473.375,196.875 471.625,195.125L399.875,123.375C396.375,119.875 391.125,119.875 387.625,123.375C385.875,125.125 385,126.875 385,129.5L385,145.25L449.75,210L465.5,210Z" fill="#FFFFFF"/>
</g>
</g>
</svg>
