<?xml version="1.0" encoding="utf-8"?>
<!-- Generator: Adobe Illustrator 27.3.1, SVG Export Plug-In . SVG Version: 6.00 Build 0)  -->
<svg version="1.1" id="Layer_1" xmlns="http://www.w3.org/2000/svg" xmlns:xlink="http://www.w3.org/1999/xlink" x="0px" y="0px"
	 viewBox="0 0 100 100" style="enable-background:new 0 0 100 100;" xml:space="preserve">
<g>
	<g>
		<g>
			<path d="M87,48.1c0-1.2,0-2.5,0-3.7c0-1,0-1.9,0-2.8c0-1,0-2,0-2.9V25.2c0-1.9-0.7-2.6-2.6-3l-2.3-0.4c-3-0.5-6-1-8.9-1.9
				c-9.8-3-16.7-8.1-21-15.5c-0.4-0.8-1.2-1.2-2-1.2c-0.9,0-1.7,0.5-2.2,1.3c-2.8,4.7-6.7,8.4-12.1,11.5C30.3,19.2,24,21.2,16,22.2
				c-2.5,0.3-3,1-3,3.5V33c0,5,0,10.2,0,15.3c-0.1,7,1.6,13.5,5,19.5c6.4,11.3,16.2,20.4,30.9,28.7c0.8,0.5,1.6,0.4,2.4-0.1
				c0.9-0.6,1.8-1.1,2.8-1.7c1.8-1.1,3.7-2.2,5.4-3.4C68.3,85.3,75,78.7,80,71.3C84.9,63.8,87.2,56.2,87,48.1z M74.6,70.2L74.6,70.2
				C68.9,78,61.4,84.5,51,90.8c-0.3,0.2-0.7,0.3-1.1,0.3c-0.3,0-0.6-0.1-0.8-0.2c-12.1-7.3-20.3-14.9-25.9-24
				c-3.6-5.8-5.4-12.1-5.3-18.6c0-4.5,0-9,0-13.4c0-2,0-3.9,0-5.9v-2l0.7-0.1c13.2-2,23.3-7.2,30.6-15.6l0.7-0.8l0.6,0.8
				C58,19.7,68,24.8,81.3,26.8L82,27v2c0,1.2,0,2.5,0,3.7l0,2.6c0,3.9,0,8,0.1,12C82.3,55.5,79.8,63,74.6,70.2z"/>
		</g>
	</g>
	<g>
		<g>
			<path d="M57.9,65.9c-0.6,0-1.1,0-1.7,0c-0.4,0-0.9,0-1.3,0l-2.4,0l0-5.2c0-2.2,0-5.2,0-8.1c0-1.2,0.5-1.9,1.7-2.4
				c5.4-1.9,8.6-7.3,7.9-13.2c-0.7-5.4-5.4-9.8-10.8-10.3c-0.4,0-0.7,0-1.1,0c-5.6,0-10.8,4-12,9.4c-1.4,6,1.8,12,7.7,14.1
				c1.5,0.6,1.7,1.5,1.7,2.5c0,5.5,0,11,0,16.5v6.1c0,0.8,0.3,1.5,0.7,2c0.5,0.5,1.1,0.8,1.8,0.8c0.7,0,1.4-0.3,1.8-0.8
				c0.5-0.5,0.7-1.2,0.7-2c0-0.8,0-1.5,0-2.3l0-2h3.1c0.6,0,1.2,0,1.8,0c1.1,0,1.9-0.4,2.4-1.3c0.5-0.8,0.5-1.7,0.1-2.5
				C59.5,66.4,58.7,65.9,57.9,65.9z M50,45.9L50,45.9c-1.9,0-3.7-0.7-5-2.1c-1.4-1.4-2.1-3.2-2.1-5.1c0-3.9,3.2-7,7.1-7
				c3.9,0,7.1,3.2,7.1,7.1c0,1.9-0.8,3.7-2.1,5C53.7,45.2,51.9,45.9,50,45.9z"/>
		</g>
	</g>
</g>
</svg>
