<svg width="34" height="56" viewBox="0 0 34 56" fill="none" xmlns="http://www.w3.org/2000/svg">
<path id="petrol" d="M32.2924 31.8326C30.721 27.7883 28.41 24.1485 26.0296 20.5549C22.2049 14.789 19.1775 8.66481 17.502 1.91669C17.3749 1.40828 17.1785 0.91141 16.9359 0.449211C16.6239 -0.151649 16.2079 -0.151649 15.8843 0.460766C15.6186 0.969185 15.4222 1.51227 15.2604 2.05535C13.6773 7.7173 11.6206 13.1944 8.74336 18.3363C6.80212 21.8028 4.79156 25.2347 2.97742 28.7705C1.07085 32.4912 -0.107761 36.4546 0.00778885 40.6952C0.146449 45.8257 2.16857 50.0317 6.51325 52.8395C12.0943 56.4447 18.0682 56.8954 24.2733 54.5497C26.6305 53.66 28.6526 52.2387 30.2357 50.309C32.7778 47.2354 33.8061 43.5956 33.8639 39.6437C33.8986 36.9399 33.2631 34.3516 32.2924 31.8326ZM15.9075 46.4843C15.4106 47.1892 14.44 47.27 13.6196 46.6923C10.6962 44.6008 9.27489 41.689 8.92824 38.1763C8.89358 37.8181 8.87047 37.4599 8.84736 37.1017H8.88202C8.88202 36.5817 8.84736 36.0501 8.89358 35.5186C8.98602 34.4209 9.58688 33.7969 10.4535 33.8547C11.3548 33.9009 11.7823 34.5595 11.8401 35.6804C11.9094 37.0554 11.9788 38.4536 12.2676 39.794C12.6721 41.689 13.8045 43.168 15.3528 44.3235C16.1617 44.9359 16.3928 45.8026 15.9075 46.4843Z" fill="black"/>
</svg>
