<?xml version="1.0" encoding="utf-8"?>
<!-- Generator: Adobe Illustrator 27.3.1, SVG Export Plug-In . SVG Version: 6.00 Build 0)  -->
<svg version="1.1" id="Layer_1" xmlns="http://www.w3.org/2000/svg" xmlns:xlink="http://www.w3.org/1999/xlink" x="0px" y="0px"
	 viewBox="0 0 100 100" style="enable-background:new 0 0 100 100;" xml:space="preserve">
<path d="M98.9,64.7c-1-2.6-2.9-3.7-5.8-3.6c-1.3,0.1-2.7,0.1-4,0c-0.6,0-1.2,0-1.8,0h-1.6V60c0-1,0-1.9,0-2.9c0-2.2,0-4.5,0-6.8
	c0-1.8-0.7-2.5-2.5-2.7c-0.3,0-0.5,0-0.8,0c-0.1,0-0.2,0-0.3,0H52.4v-8.9c0.9,0,1.7,0,2.6,0c2.1,0,4,0,6,0c2.7,0,4.5-1.8,4.5-4.5
	c0-7.3,0-14.7,0-21.8c0-2.6-1.8-4.3-4.4-4.4c-1.3-0.1-2.7,0-4,0c-0.5,0-0.9,0-1.4,0l-4.1,0c-4,0-8.2,0-12.3,0
	c-3.1,0-4.9,1.7-4.9,4.7c0,7.3,0,14.6,0,21.6c0,2.8,1.8,4.6,4.7,4.7c1.5,0,3,0,4.5,0c0.6,0,1.2,0,1.9,0h2.1v8.7l-12.1,0
	c-5.6,0-10.5,0-18.1,0c-2.4,0-3.2,0.7-3.2,3.1l0,2.3c0,2.3,0,4.6,0,7c0,0.3,0,0.5,0,0.8c0,0.1,0,0.2,0,0.3c-0.8,0-1.5,0-2.3,0
	c-1.8,0-3.5,0-5.3,0c-2.9-0.1-4.8,1-5.6,3.6l0,24.1l0,0c1,2.4,2.7,3.4,5.6,3.4c0.1,0,0.1,0,0.2,0c4.4-0.1,8.9-0.1,13.2-0.1
	c2.2,0,4.3,0,6.5,0c0.7,0,1.5,0,2.2-0.2c2.2-0.6,3.3-2.3,3.3-5c0-5.7,0-11.5,0-17.1c0-0.3,0-0.6,0-0.9c0-1.2,0-2.5-0.1-3.8
	c-0.2-2.4-2-4-4.4-4.1c-1.3,0-2.7,0-4,0c-0.6,0-1.2,0-1.7,0h-3v-8.9h28.8l4.5,0H81v8.8c-0.9,0-1.7,0-2.6,0c-2,0-3.8,0-5.7,0
	c-3.1,0-4.9,1.7-4.9,4.8c-0.1,7.3-0.1,14.6,0,21.5c0,3,1.8,4.7,4.9,4.7c4.9,0,9.8,0,14.6,0c2.2,0,4.5,0,6.7,0c2.4,0,4-1.1,4.7-3.2
	c0,0,0,0,0.1,0c0,0,0.1,0,0.1,0l0.1,0L98.9,64.7L98.9,64.7z M60.9,34.3c-2.3,0-4.5-0.1-6.8-0.1c-1.4,0-2.7,0-4.1,0
	c-3.6,0-7.3,0-10.9,0V12.5h21.8V34.3z M94.3,65.7v21.4H72.5V65.7H94.3z M5.7,87.5V65.8h21.8v21.7H5.7z"/>
</svg>
