<?xml version="1.0" encoding="utf-8"?>
<!-- Generator: Adobe Illustrator 27.3.1, SVG Export Plug-In . SVG Version: 6.00 Build 0)  -->
<svg version="1.1" id="Layer_1" xmlns="http://www.w3.org/2000/svg" xmlns:xlink="http://www.w3.org/1999/xlink" x="0px" y="0px"
	 viewBox="0 0 400 400" style="enable-background:new 0 0 400 400;" xml:space="preserve">
<style type="text/css">
	.st0{fill:#6383C2;}
</style>
<g>
	<path class="st0" d="M387.7,43.3c-1.1-12.1-5.8-20-16.1-23.5c-4.1-1.4-8.9-1.4-13.4-1.4c-52.7-0.1-105.5-0.1-158.2-0.1c0,0,0,0,0,0
		c-23.3,0-46.6,0-69.9,0c-31.8,0.1-63.6,0.2-95.4,0.2c-5.7,0-10.4,2.4-14.5,6.1c-6.2,5.7-7.9,13.1-7.9,21.1
		c-0.1,70.6,0,141.1,0,211.7c0,15-0.2,30.1,0.1,45.1c0.2,10.8,4.4,19.7,15,23.7c4.1,1.6,9,1.8,13.5,1.8c73.5,0.1,147,0.1,220.5,0.1
		c10.6,0,21.2-0.2,31.8-0.1c1.6,0,3.7,0.7,4.8,1.8c14,13.8,27.8,27.7,41.8,41.5c6.8,6.7,14.9,10.5,24.8,10.3c9.6-0.3,18-6,20.9-15.1
		c1.2-3.9,2-8.1,2-12.2c0.1-103,0.1-206.1,0.1-309.1C387.7,44.5,387.8,43.9,387.7,43.3z M346,317.3c0,0.7,0,1.5,0,3
		c-1.6-1.6-2.6-2.8-3.7-3.8c-9.2-9.2-18.5-18.4-27.7-27.5c-0.7-0.7-1.9-1.2-2.9-1.3c-6.5-0.2-13-0.3-19.5-0.3
		c-72.9,0-145.8,0-218.7,0c-3,0-6.1,0.4-9.1,0.1c-2.4-0.2-4.9-0.9-7.1-1.9c-2.3-1.1-3.2-3.3-3.2-6c0.1-70.8,0-141.6,0-212.4
		c0-4.4,2.2-7.1,6.7-7.8c2.3-0.4,4.7-0.4,7-0.4c85.8,0,171.7,0.1,257.5,0.1c3.6,0,7.3-0.4,10.9-0.2c2.1,0.1,4.3,0.7,6.2,1.6
		c2.4,1.1,3.6,3.1,3.6,6.1C346,150.1,346,233.7,346,317.3z"/>
	<path class="st0" d="M260.9,101.9c-4.3-4.3-9-4.2-13.2,0.3c-17.1,18.2-34.1,36.4-51.1,54.5c-6.4,6.8-12.8,13.4-19.4,20.4
		c-1.3-1.3-2.4-2.3-3.5-3.3c-7.2-7.3-14.5-14.5-21.7-21.8c-4-3.9-8.4-4.1-12.4-0.1c-8.2,8.1-16.4,16.3-24.5,24.5
		c-3.8,3.8-3.9,8.3,0,12.2c18.4,18.5,36.8,36.9,55.3,55.2c4.8,4.8,8.9,4.5,13.7-0.4c22.3-23.1,44.5-46.3,66.8-69.5
		c11.1-11.6,22.2-23.3,33.4-34.8c4.2-4.3,4.7-9,0.1-13.5C276.4,117.8,268.8,109.7,260.9,101.9z"/>
</g>
</svg>
