<svg width="48" height="45" viewBox="0 0 48 45" fill="none" xmlns="http://www.w3.org/2000/svg">
<g id="Group">
<path id="Vector" d="M44.7977 34.4121C44.7938 38.43 41.7568 41.2512 38.1037 41.5926C33.5443 42.0163 30.2092 37.8728 30.4368 34.4435C30.3387 30.4609 33.5287 27.1963 37.4995 27.2199C41.7254 27.2434 44.8055 30.3432 44.7977 34.4121Z" fill="#030403"/>
<g id="Group_2">
<path id="Vector_2" d="M40.5356 38.179C40.1079 38.0377 39.6998 37.8572 39.28 37.7003C39.1701 37.6571 39.1113 37.614 39.1191 37.4727C39.1348 37.1353 39.1191 36.79 39.127 36.4525C39.127 36.3937 39.1623 36.3113 39.2094 36.276C39.8058 35.7894 39.8175 35.7698 40.0412 35.0478C40.1236 35.04 40.2099 35.0321 40.2923 35.0243C40.6729 34.9733 40.9319 34.7614 41.0496 34.4083C41.1751 34.0394 41.0653 33.7177 40.7906 33.4469C40.7475 33.4038 40.7161 33.3292 40.7082 33.2704C40.7004 33.0349 40.7004 32.7917 40.7082 32.5562C40.7161 32.0579 40.5983 31.5949 40.3119 31.1476C40.0608 30.767 39.7626 30.5512 39.6214 30.4727C39.5978 30.457 39.5703 30.4453 39.5468 30.4296C39.2094 30.2452 38.8484 30.1274 38.4521 30.1274H36.8276C36.3803 30.1274 35.9841 30.2687 35.5995 30.4884C35.5838 30.4963 35.572 30.5041 35.5563 30.512C35.2424 30.6885 34.9678 31.0691 34.9678 31.0691C34.9325 31.128 34.9089 31.1633 34.8854 31.2025C34.8422 31.2771 34.7991 31.3477 34.7598 31.4223C34.6264 31.6812 34.5479 31.952 34.5322 32.2463C34.5165 32.5759 34.5166 32.9055 34.5166 33.239C34.5166 33.341 34.4891 33.4077 34.4146 33.4744C34.0104 33.855 34.0418 34.4789 34.4656 34.832C34.6421 34.9772 34.854 35.0321 35.0816 35.0439C35.1247 35.0439 35.2072 35.0871 35.2072 35.1185C35.2896 35.6325 35.5877 35.9856 35.9997 36.272C36.0429 36.2995 36.0861 36.3819 36.0861 36.4408C36.0939 36.8017 36.086 37.1667 36.0939 37.5276C36.0939 37.6218 36.0586 37.661 35.9762 37.6885C35.5446 37.8494 35.109 38.0181 34.6774 38.1868C33.8181 38.5243 33.4297 39.0971 33.4297 40.0231V40.5803H33.9005C33.928 40.2115 33.924 39.8544 33.9868 39.5013C34.0535 39.156 34.289 38.8853 34.6186 38.744C35.1326 38.5164 35.6701 38.3242 36.192 38.1201C36.7491 39.1992 38.4403 39.207 39.0132 38.1201C39.5036 38.3124 39.998 38.4929 40.4807 38.693C40.9358 38.8774 41.1987 39.2227 41.2576 39.7053C41.2929 39.9918 41.2654 40.2782 41.2654 40.5803H41.7637C41.7637 40.3802 41.7559 40.184 41.7637 39.9839C41.8147 39.0579 41.2183 38.4105 40.5317 38.179H40.5356ZM40.5277 33.8903C40.6219 34.0355 40.6298 34.1924 40.5435 34.3455C40.4493 34.5063 40.2806 34.5652 40.0451 34.522C40.0451 34.4867 40.0373 34.4475 40.0373 34.4122V33.7451C40.257 33.6863 40.4257 33.7373 40.5277 33.8903ZM35.1875 34.5142C34.9835 34.5652 34.8266 34.522 34.7167 34.3729C34.6225 34.2474 34.6068 34.0512 34.6931 33.9178C34.8108 33.7334 34.9796 33.6902 35.1914 33.7255V34.5103H35.1836L35.1875 34.5142ZM35.6073 32.3758C35.5132 32.5955 35.4072 32.8152 35.3209 33.0428C35.2699 33.1683 35.1875 33.2351 35.0188 33.1958C35.0188 32.6073 34.9364 32.0148 35.2895 31.4851C35.6584 30.9279 36.1724 30.6258 36.8394 30.6022C37.3181 30.5865 37.8007 30.6022 38.2794 30.6022C39.3428 30.6022 40.0883 31.2614 40.1903 32.313C40.2178 32.5994 40.1982 32.8937 40.1982 33.2233C39.9117 33.1644 39.6331 33.1291 39.3742 33.0389C38.3736 32.7093 37.3927 32.3561 36.3999 32.0187C36.0193 31.8853 35.7682 31.9951 35.6073 32.3718V32.3758ZM38.6247 37.7238C38.5816 38.077 38.3226 38.281 37.993 38.3909C37.479 38.5517 36.9414 38.383 36.6942 37.971C36.6511 37.8965 36.6079 37.818 36.6079 37.7356C36.6001 37.406 36.6001 37.0764 36.6001 36.7076C36.914 36.943 37.2475 37.0764 37.6202 37.0764C37.993 37.0764 38.3187 36.9508 38.6326 36.7076C38.6326 37.0686 38.66 37.3982 38.6247 37.7199V37.7238ZM38.2284 36.378C37.8557 36.6409 37.3927 36.6409 37.016 36.3858C36.706 36.1739 36.4117 35.9542 36.1135 35.7266C35.8192 35.4991 35.6858 35.1891 35.6858 34.8242V34.0904C35.6034 33.6863 35.7525 33.239 35.9644 32.7917C36.1253 32.4542 36.1096 32.4464 36.4706 32.5719C37.3731 32.8858 38.2833 33.2037 39.1897 33.5136C39.5429 33.6314 39.5429 33.6235 39.5429 34.0041C39.535 34.3651 39.5429 34.73 39.5154 35.0831C39.4919 35.346 39.3388 35.5618 39.1348 35.7149C38.8327 35.9503 38.5345 36.17 38.2324 36.3819L38.2284 36.378Z" fill="white" stroke="white" stroke-miterlimit="10"/>
<path id="Vector_3" d="M37.6137 35.668C37.2841 35.6523 37.0094 35.5228 36.8132 35.256C36.7112 35.1147 36.7191 34.9774 36.8368 34.8871C36.9545 34.8008 37.08 34.8126 37.1899 34.946C37.4685 35.256 37.7785 35.256 38.057 34.946C38.1669 34.8204 38.2925 34.8008 38.4102 34.8793C38.5279 34.9656 38.5436 35.1069 38.4377 35.2481C38.2258 35.5189 37.9511 35.6523 37.6137 35.668Z" fill="white" stroke="white" stroke-miterlimit="10"/>
</g>
<path id="Vector_4" d="M7.16487 4.79958C7.2355 3.88535 7.19237 3.01035 7.39248 2.19421C7.78878 0.585475 9.33867 -0.0854867 10.4883 0.0165309C11.995 0.153862 13.1996 0.954308 13.4939 2.55912C13.6234 3.2654 13.6312 3.99522 13.6979 4.75642H19.2343C19.2343 4.21102 19.2343 3.64208 19.2343 3.07313C19.2461 1.53895 20.023 0.609017 21.722 0.0950058C22.801 -0.230666 24.3549 0.302964 24.9434 1.35845C25.2966 1.99018 25.4496 2.74746 25.6144 3.46551C25.7046 3.86573 25.6301 4.30127 25.6301 4.76035H31.2293C31.2293 4.2071 31.2253 3.63815 31.2293 3.06921C31.245 1.16619 32.7948 -0.0815628 34.4271 0.0243785C36.3419 0.149939 37.4523 1.2839 37.621 3.26932C37.6603 3.75194 37.6289 4.23849 37.6289 4.79958C38.6491 4.79958 39.6418 4.76427 40.6306 4.81136C41.588 4.85844 42.4826 5.06248 43.287 5.69812C44.3267 6.52211 44.8015 7.60507 44.8133 8.8489C44.8525 14.0479 44.829 19.2468 44.825 24.4419C44.825 24.5047 44.8054 24.5674 44.7937 24.6302C38.3234 21.0949 32.4221 21.4441 27.7803 27.5966C24.9356 31.3673 24.9669 35.6364 26.9249 39.9525C26.7915 39.9642 26.6346 39.9956 26.4737 39.9956C19.0107 39.9956 11.5438 39.9603 4.08081 40.0192C1.86389 40.0388 -0.0155974 37.9828 9.75949e-05 35.9306C0.0785726 26.7804 0.0432895 17.6263 0.0315183 8.47222C0.0315183 6.8831 1.67949 4.9997 3.11951 4.92907C3.79832 4.89768 4.47317 4.82705 5.14806 4.80351C5.81117 4.77997 6.47821 4.79958 7.16094 4.79958H7.16487ZM25.7007 8.00137C25.5202 8.57423 25.4378 9.10002 25.1985 9.53948C24.5079 10.7951 22.8795 11.521 21.6514 11.1521C20.2231 10.7205 19.1833 9.64542 19.2343 7.94251C19.25 7.44027 19.2343 6.93803 19.2343 6.43579H8.83639C8.83639 6.97727 8.83639 7.48343 8.83639 7.9896C8.82855 8.96661 9.4289 9.43746 10.0842 9.58656C10.8728 9.76705 11.6222 9.25697 11.9165 8.44867C11.9793 8.27603 12.1402 8.03668 12.2775 8.02098C12.7209 7.96605 13.1761 8.00137 13.643 8.00137C13.5841 8.33488 13.5488 8.57031 13.4939 8.79789C13.1329 10.3282 11.5242 11.4425 9.8762 11.1796C8.51073 10.9638 7.24729 9.89261 7.23552 8.10731C7.2316 7.54229 7.23552 6.97334 7.23552 6.40048C6.07409 6.40048 5.01075 6.38086 3.94349 6.40832C2.96647 6.43187 1.85998 7.05182 1.78935 8.02883C1.67556 9.59833 1.75798 11.1835 1.75798 12.7726H43.232C43.232 11.5759 43.2399 10.4027 43.232 9.2295C43.2202 7.40496 42.2432 6.4044 40.3716 6.40048C38.2841 6.40048 36.1967 6.40048 34.1093 6.40048H32.8341C32.8341 6.98119 32.8341 7.48735 32.8341 7.99352C32.8262 8.96661 33.4265 9.43746 34.0818 9.58656C34.8666 9.76313 35.616 9.25304 35.9103 8.44475C35.9731 8.27603 36.134 8.03668 36.2752 8.01706C36.7186 7.96213 37.1737 7.99744 37.6367 7.99744C37.574 8.33489 37.5426 8.57031 37.4916 8.79789C37.1267 10.3282 35.5179 11.4425 33.8699 11.1757C32.5084 10.956 31.245 9.88869 31.2332 8.09946C31.2332 7.53444 31.2332 6.9655 31.2332 6.43971H20.8313C20.8313 6.97334 20.8431 7.46381 20.8313 7.95036C20.8039 8.97053 21.4748 9.46493 22.1144 9.57871C22.9148 9.72782 23.6015 9.23735 23.9154 8.40551C23.9782 8.24071 24.1587 8.02883 24.3078 8.00921C24.7394 7.95428 25.1788 7.9896 25.6967 7.9896L25.7007 8.00137ZM9.61329 18.4464H6.48214V21.554H9.61329V18.4464ZM16.7859 21.5736V18.4464H13.6822V21.5736H16.7859ZM20.8548 21.554H23.9938V18.4385H20.8548V21.554ZM31.2018 21.5775V18.4307H28.0667V21.5775H31.2018ZM6.45863 27.9536H9.5937V24.8421H6.45863V27.9536ZM13.6783 24.8146V27.9576H16.7977V24.8146H13.6783ZM20.8823 24.8186V27.9497H23.9899V24.8186H20.8823ZM6.45863 34.3494H9.58977V31.2418H6.45863V34.3494ZM13.6626 34.3454H16.8095V31.2221H13.6626V34.3454ZM12.0343 4.77604C12.0343 4.23064 12.0656 3.72448 12.0264 3.21831C11.9636 2.33939 11.3751 1.73121 10.5118 1.60173C9.88012 1.50756 9.07573 1.95879 8.9227 2.66899C8.77753 3.33995 8.83641 4.05407 8.80502 4.77604H12.0303H12.0343ZM20.8901 4.76427H24.0331C24.0331 4.24241 24.0527 3.75587 24.0291 3.27325C23.9821 2.36293 23.3818 1.72336 22.4989 1.60173C21.8594 1.51148 21.051 1.97448 20.9176 2.67683C20.7921 3.3321 20.8901 4.03445 20.8901 4.76035V4.76427ZM32.8929 4.76427H36.0319C36.0319 4.24634 36.0516 3.75979 36.028 3.27717C35.9809 2.36686 35.3884 1.72729 34.5056 1.60173C33.866 1.51148 33.0577 1.96664 32.9243 2.67291C32.7988 3.32818 32.8969 4.03053 32.8969 4.76427H32.8929Z" fill="#000100"/>
<path id="Vector_5" d="M27.233 34.3806C27.1113 28.8128 31.7296 23.9042 37.6427 24.014C43.4655 24.12 47.9347 28.5263 47.9975 34.3099C48.0642 40.172 43.2968 44.7197 37.6309 44.8099C31.9179 44.9041 27.0211 39.9131 27.229 34.3806H27.233ZM28.8338 34.3413C28.7161 39.2656 32.7929 42.9265 37.0071 43.209C41.8882 43.5347 46.9224 39.2853 46.322 33.4899C45.9022 29.4445 42.5395 25.6738 37.5917 25.6188C32.7066 25.5639 28.7985 29.5112 28.8338 34.3413Z" fill="#030403"/>
</g>
</svg>
