<?xml version='1.0' encoding='utf-8'?>
<!-- Generator: imaengine 6.0   -->
<svg xmlns:xlink="http://www.w3.org/1999/xlink" xmlns="http://www.w3.org/2000/svg" viewBox="0,0,24,24" style="enable-background:new 0 0 24 24;" version="1.1">
<defs/>
<g id="layer0">
<path d="M9.14,6.08C9.14,8.47 5.32,12.08 5.32,12.08C5.32,12.08 1.5,8.47 1.5,6.08C1.53132,5.09852 1.9515,4.16975 2.66801,3.49826C3.38451,2.82678 4.33856,2.46765 5.32,2.5C6.30144,2.46765 7.25549,2.82677 7.97199,3.49826C8.6885,4.16975 9.10869,5.09852 9.14,6.08L9.14,6.08Z" stroke="#FFFFFF" stroke-width="1.91" fill="none"/>
<path d="M6.27,6.32C6.27,6.84467 5.84467,7.27 5.32,7.27C4.79533,7.27 4.37,6.84467 4.37,6.32C4.37,5.79533 4.79533,5.37 5.32,5.37C5.84467,5.37 6.27,5.79533 6.27,6.32Z" stroke="#FFFFFF" stroke-width="1" fill="#FFFFFF"/>
<path d="M22.5,14.62C22.5,17.01 18.68,20.62 18.68,20.62C18.68,20.62 14.86,17.04 14.86,14.62C14.9306,12.58 16.6399,10.9826 18.68,11.05C20.7201,10.9826 22.4294,12.58 22.5,14.62L22.5,14.62Z" stroke="#FFFFFF" stroke-width="1.91" fill="none"/>
<path d="M19.63,14.86C19.63,15.3847 19.2047,15.81 18.68,15.81C18.1553,15.81 17.73,15.3847 17.73,14.86C17.73,14.3353 18.1553,13.91 18.68,13.91C19.2047,13.91 19.63,14.3353 19.63,14.86Z" stroke="#FFFFFF" stroke-width="1" fill="#FFFFFF"/>
<path d="M19.3225,5.86058L14.9857,1.52288L15.5031,1.00643L14.6708,0.172288L10.816,4.02529L11.651,4.85852L12.1321,4.37746L13.9065,6.15103L5.925,19.1633L6.67836,19.9157L14.6581,6.90438L16.4679,8.71334L15.9878,9.19531L16.821,10.0276L20.6822,6.16736L19.8499,5.33413L19.3225,5.86058L19.3225,5.86058Z" fill="#FFFFFF"/>
<path d="M5.43406,13.3219L5.83537,21.8784L18.5733,21.8696" stroke="#FFFFFF" stroke-width="1.91" stroke-linecap="round" fill="none" stroke-linejoin="round"/>
</g>
</svg>
