<svg width="45" height="45" viewBox="0 0 45 45" fill="none" xmlns="http://www.w3.org/2000/svg">
<g id="Layer_1" clip-path="url(#clip0_2168_8371)">
<path id="Vector" d="M12.2353 12.08C12.2353 10.5087 10.9585 9.23193 9.38716 9.23193C7.8158 9.23193 6.53906 10.5087 6.53906 12.08C6.53906 13.6514 7.8158 14.9281 9.38716 14.9281C10.9585 14.9281 12.2353 13.6514 12.2353 12.08Z" fill="#282828"/>
<path id="Vector_2" d="M45 28.3828V28.3239C44.8232 23.2955 40.5412 19.3474 35.6897 19.5046C30.7006 19.3867 26.4186 23.2955 26.2418 28.3828C26.2418 32.9594 31.4273 38.636 33.529 40.7377H12.1781L12.0799 38.7145L27.715 13.2191L31.2702 16.7743L30.3274 17.7172L31.9577 19.3474L39.5395 11.7656L37.9092 10.1353L36.8682 11.1763L28.3632 2.65168L29.3845 1.63029L27.7543 0L20.1921 7.5622L21.842 9.19249L22.7848 8.24967L26.2615 11.7263L11.9424 35.0808L11.5103 25.7115C11.4906 25.2204 11.2746 24.8079 10.9406 24.4937C12.4531 23.0205 18.7778 16.5779 18.7778 11.5888V11.5299C18.6993 9.11392 17.6386 6.79616 15.8904 5.14622C14.103 3.47665 11.7852 2.6124 9.46748 2.67132C7.07115 2.59275 4.67481 3.49629 2.90703 5.14622C1.09996 6.83544 0.0785683 9.09428 0 11.6085C0 16.9511 7.26757 23.983 8.09254 24.749C7.85683 25.0829 7.69969 25.4758 7.71934 25.9079L8.50502 42.7215C8.5443 43.7233 9.36927 44.5089 10.371 44.5089H35.395C36.4361 44.5089 37.261 43.6447 37.261 42.6233C37.261 42.2108 37.1039 41.8573 36.8682 41.543C37.6931 40.7573 44.9607 33.7451 44.9607 28.3828H45ZM3.75164 11.6674C3.79092 10.2335 4.39983 8.89786 5.4605 7.89612C6.46224 6.97294 7.7979 6.4426 9.25142 6.4426C9.31034 6.4426 9.36927 6.4426 9.44784 6.4426C10.8817 6.40332 12.2567 6.91401 13.3173 7.89612C14.3387 8.85858 14.9673 10.2139 15.0262 11.6281C15.0065 14.0244 11.9424 18.0314 9.38891 20.7224C6.83544 18.0118 3.75164 14.0048 3.75164 11.6478V11.6674ZM35.4932 23.2366C35.4932 23.2366 35.6111 23.2366 35.67 23.2366C38.7145 23.1384 41.1109 25.4561 41.2287 28.4024C41.2091 30.7988 38.1449 34.8058 35.5914 37.4967C33.038 34.8058 29.9738 30.7988 29.9738 28.4221C30.072 25.5151 32.4684 23.2169 35.4736 23.2169L35.4932 23.2366Z" fill="#282828"/>
<path id="Vector_3" d="M35.6293 31.7025C37.2023 31.7025 38.4775 30.4274 38.4775 28.8544C38.4775 27.2815 37.2023 26.0063 35.6293 26.0063C34.0564 26.0063 32.7812 27.2815 32.7812 28.8544C32.7812 30.4274 34.0564 31.7025 35.6293 31.7025Z" fill="#282828"/>
</g>
<defs>
<clipPath id="clip0_2168_8371">
<rect width="45" height="44.5089" fill="white"/>
</clipPath>
</defs>
</svg>
