<svg width="60" height="50" viewBox="0 0 60 50" fill="none" xmlns="http://www.w3.org/2000/svg">
<g id="Group">
<g id="Group_2">
<path id="Vector" d="M11.3613 45.5232C10.0387 44.6396 8.81238 43.649 7.66107 42.5806C5.33166 40.436 3.32355 38.045 1.86432 35.2149C0.549678 32.6686 -0.173242 29.9724 0.0356012 27.0914C0.244445 24.2479 1.37166 21.8087 3.41726 19.8247C5.78148 17.5194 8.63835 16.4538 11.9343 16.5769C17.2277 16.7724 21.7767 20.8529 22.5961 26.0874C23.0486 28.9683 22.4863 31.7127 21.3082 34.3367C20.2426 36.7277 18.7217 38.8215 16.9439 40.7332C15.3749 42.4253 13.6345 43.9435 11.7362 45.2688C11.5889 45.3679 11.4792 45.4402 11.356 45.5259L11.3613 45.5232ZM17.7712 27.7046C17.7712 24.1863 14.9037 21.2947 11.3854 21.2947C7.84314 21.2813 4.96484 24.1622 4.95146 27.6912C4.95146 31.2094 7.81904 34.1011 11.3372 34.1011C14.8662 34.1144 17.7579 31.2335 17.7712 27.7046Z" fill="#282828"/>
<path id="Vector_2" d="M12.0355 49.9971C8.62972 49.9489 5.92011 49.7641 3.29618 48.9314C2.54916 48.6985 1.80215 48.3665 1.12742 47.9515C-0.109577 47.1804 -0.0854792 46.1736 1.11403 45.3409C2.15557 44.618 3.34437 44.2994 4.55727 44.0049C5.03654 43.8817 5.53723 43.8201 6.0165 43.7103C6.23605 43.6621 6.3967 43.7237 6.56806 43.871C7.96571 45.1321 9.42493 46.3102 11.0287 47.3035C11.2617 47.4508 11.4197 47.4749 11.6794 47.3169C13.2859 46.3128 14.7558 45.1348 16.1642 43.8603C16.3114 43.7264 16.4453 43.6755 16.6541 43.6996C18.199 43.9567 19.7306 44.2753 21.1148 45.0357C21.5057 45.2445 21.8752 45.5391 22.1805 45.8577C22.6329 46.3369 22.6089 46.8858 22.1938 47.4026C21.728 47.9782 21.0773 48.2969 20.416 48.578C18.9702 49.1778 17.4493 49.4964 15.9178 49.6811C14.397 49.8525 12.8789 49.9382 12.0328 49.9997L12.0355 49.9971Z" fill="#282828"/>
<path id="Vector_3" d="M11.3629 32.4356C8.75237 32.4356 6.6318 30.3151 6.62109 27.7179C6.62109 25.0833 8.74166 22.9761 11.3629 22.9761C13.9842 22.9761 16.0806 25.0966 16.0806 27.7179C16.094 30.3151 13.9735 32.4356 11.3629 32.4356Z" fill="#282828"/>
</g>
<g id="Group_3">
<path id="Vector_4" d="M50.3366 16.9063C49.5655 16.3922 48.8533 15.8166 48.1678 15.19C46.8077 13.9396 45.6323 12.542 44.7862 10.8873C44.0151 9.39328 43.5974 7.82427 43.7205 6.14549C43.8437 4.49081 44.505 3.05836 45.6938 1.90436C47.0781 0.554912 48.7462 -0.0689416 50.6686 0.0060279C53.7557 0.115805 56.4172 2.5068 56.8937 5.56983C57.1508 7.262 56.8322 8.8551 56.1467 10.3866C55.5229 11.7843 54.6259 13.0106 53.5978 14.1244C52.6794 15.1177 51.6619 15.9986 50.5588 16.7724C50.4731 16.8206 50.4116 16.8581 50.3393 16.9063H50.3366ZM54.0744 6.5016C54.0744 4.44261 52.3956 2.76383 50.35 2.75045C48.2776 2.75045 46.5988 4.42923 46.5988 6.48821C46.5988 8.54719 48.2776 10.226 50.3232 10.2394C52.3822 10.2528 54.0744 8.57129 54.0744 6.5016Z" fill="#282828"/>
<path id="Vector_5" d="M50.7316 19.5305C48.7449 19.5064 47.1518 19.3967 45.6202 18.9067C45.1785 18.7728 44.7501 18.5747 44.3592 18.331C43.6362 17.8785 43.6496 17.3029 44.3458 16.8102C44.9455 16.3925 45.6577 16.1971 46.3566 16.0257C46.6377 15.9534 46.9322 15.9159 47.2133 15.8544C47.3472 15.8303 47.4329 15.8544 47.5454 15.9534C48.354 16.6897 49.2134 17.3752 50.1425 17.9642C50.2764 18.0499 50.3755 18.0633 50.5227 17.9642C51.4652 17.3752 52.3247 16.6897 53.1466 15.9427C53.2323 15.8704 53.318 15.8329 53.4278 15.857C54.3355 16.0043 55.2297 16.1998 56.0383 16.6415C56.2713 16.7647 56.4801 16.9361 56.6622 17.1208C56.9192 17.4019 56.9085 17.7206 56.6756 18.0285C56.4051 18.3605 56.0249 18.5559 55.634 18.7139C54.7879 19.07 53.9071 19.2521 52.9994 19.3512C52.1158 19.4502 51.2349 19.4984 50.7316 19.5359V19.5305Z" fill="#282828"/>
<path id="Vector_6" d="M50.3349 9.2729C48.8141 9.2729 47.5664 8.03591 47.5664 6.5151C47.5664 4.99429 48.8034 3.74658 50.3349 3.74658C51.8664 3.74658 53.0927 4.98358 53.0927 6.5151C53.0927 8.04662 51.8557 9.25952 50.3349 9.2729Z" fill="#282828"/>
</g>
<path id="Vector_7" d="M37.3656 16.7617H35.3789V18.1219H37.3656V16.7617Z" fill="#282828"/>
<path id="Vector_8" d="M40.1273 16.7617H38.1406V18.1219H40.1273V16.7617Z" fill="#282828"/>
<path id="Vector_9" d="M42.8617 16.7617H40.875V18.1219H42.8617V16.7617Z" fill="#282828"/>
<path id="Vector_10" d="M29.1815 20.8291C29.3528 20.3873 29.5724 19.983 29.8428 19.6536L29.9901 19.4823L28.9352 18.6255L28.7879 18.7968C28.4211 19.2493 28.1266 19.7661 27.9043 20.3525L27.832 20.5613L29.1065 21.0272L29.1788 20.8317L29.1815 20.8291Z" fill="#282828"/>
<path id="Vector_11" d="M31.4068 17.0188C30.8418 17.2035 30.3036 17.4713 29.8137 17.8274L29.6289 17.9613L30.4268 19.051L30.6115 18.9171C30.9784 18.6467 31.3827 18.4379 31.8137 18.304L32.0226 18.2317L31.6183 16.9331L31.4094 17.0188H31.4068Z" fill="#282828"/>
<path id="Vector_12" d="M33.8353 16.7617C33.5033 16.7617 33.174 16.7617 32.8072 16.7751L32.5742 16.7885L32.6358 18.1487L32.8554 18.1353C33.1606 18.1219 33.4926 18.1219 33.8246 18.1219H34.585V16.7617H33.838H33.8353Z" fill="#282828"/>
<path id="Vector_13" d="M30.5396 26.2721L30.3548 26.1489L29.5703 27.2654L29.7551 27.3993C30.2584 27.742 30.81 27.9991 31.3856 28.1463L31.5945 28.1945L31.9747 26.8826L31.7418 26.821C31.3241 26.7112 30.9198 26.5264 30.5396 26.2694V26.2721Z" fill="#282828"/>
<path id="Vector_14" d="M29.7669 25.5469C29.4858 25.2148 29.277 24.8105 29.1163 24.3822L29.044 24.1626L27.7695 24.6285L27.8418 24.8373C28.0373 25.4264 28.3318 25.9538 28.712 26.417L28.8593 26.5884L29.9142 25.7182L29.7669 25.5469Z" fill="#282828"/>
<path id="Vector_15" d="M27.5739 23.6857L28.9233 23.5625V23.3537C28.9099 22.7165 28.9099 22.2506 28.9367 21.8945L28.9501 21.6749L27.6007 21.5518L27.5873 21.7847C27.5498 22.4219 27.5632 22.8129 27.5739 23.4394V23.6857Z" fill="#282828"/>
<path id="Vector_16" d="M40.0883 26.9443H38.1016V28.3045H40.0883V26.9443Z" fill="#282828"/>
<path id="Vector_17" d="M37.3461 26.9443H35.3594V28.3045H37.3461V26.9443Z" fill="#282828"/>
<path id="Vector_18" d="M32.5977 28.3045H34.5951V26.9443H32.6218L32.5977 28.3045Z" fill="#282828"/>
<path id="Vector_19" d="M48.3461 26.9443H46.3594V28.3045H48.3461V26.9443Z" fill="#282828"/>
<path id="Vector_20" d="M45.6039 26.9443H43.6172V28.3045H45.6039V26.9443Z" fill="#282828"/>
<path id="Vector_21" d="M42.8617 26.9443H40.875V28.3045H42.8617V26.9443Z" fill="#282828"/>
<path id="Vector_22" d="M54.8554 29.6056L55.6024 30.1706L56.4726 29.129L55.6399 28.5052C55.4926 28.4061 55.3347 28.3097 55.1874 28.224L54.759 27.9536L54.0977 29.1424L54.5153 29.3995C54.6251 29.461 54.7483 29.5333 54.8581 29.6083L54.8554 29.6056Z" fill="#282828"/>
<path id="Vector_23" d="M53.2756 28.7833L53.4844 28.869L53.9637 27.5945L53.7549 27.5088C53.2756 27.3241 52.7615 27.1768 52.1752 27.0805L51.9556 27.043L51.7227 28.379L51.9422 28.4165C52.4563 28.5156 52.8847 28.6361 53.2783 28.7833H53.2756Z" fill="#282828"/>
<path id="Vector_24" d="M49.9039 26.9443H49.1328V28.3045H49.8932C50.2252 28.3045 50.5546 28.3045 50.8491 28.3179L51.082 28.3313L51.1195 26.9711L50.9 26.9577C50.5679 26.9443 50.2386 26.9443 49.9066 26.9443H49.9039Z" fill="#282828"/>
<path id="Vector_25" d="M58.0915 35.2898C58.1156 35.6459 58.1156 36.061 58.1156 36.4653V36.9927H59.4758V36.4278C59.4758 36.0369 59.4758 35.6192 59.4517 35.2015L59.4383 34.9819L58.0781 35.0676L58.0915 35.2872V35.2898Z" fill="#282828"/>
<path id="Vector_26" d="M57.7717 33.5147L58.0047 34.4196L59.3274 34.1385L59.0703 33.1104L58.7142 32.1411L57.4531 32.6686L57.7717 33.5147Z" fill="#282828"/>
<path id="Vector_27" d="M56.23 30.8183C56.3906 30.9789 56.5111 31.1503 56.6584 31.3565C56.7815 31.5171 56.9047 31.6885 57.0386 31.9214L57.1483 32.1169L58.313 31.418L58.2033 31.2226C58.0426 30.9414 57.898 30.7326 57.7508 30.5371C57.5901 30.3283 57.4321 30.0954 57.2233 29.8999L57.076 29.7393L56.0586 30.6469L56.23 30.8183Z" fill="#282828"/>
<path id="Vector_28" d="M56.826 42.7682C56.5208 43.2207 56.2504 43.5768 55.9692 43.858L55.8086 44.0186L56.8019 44.9504L56.9626 44.7897C57.2946 44.447 57.6132 44.0427 57.9666 43.5153L58.0898 43.3198L56.9492 42.5835L56.826 42.7682Z" fill="#282828"/>
<path id="Vector_29" d="M57.8335 40.511C57.7853 40.7439 57.6996 40.9635 57.6246 41.1616C57.5523 41.3704 57.4774 41.59 57.3676 41.7855L57.2578 41.9943L58.4841 42.57L58.5832 42.3745C58.717 42.1175 58.8161 41.8604 58.9018 41.6141C58.9875 41.3945 59.0865 41.1241 59.1481 40.8296L59.1963 40.6208L57.8843 40.2646L57.8361 40.511H57.8335Z" fill="#282828"/>
<path id="Vector_30" d="M58.1159 37.7803V38.0132C58.1159 38.5514 58.0918 38.9932 58.0436 39.4483L58.0195 39.6679L59.369 39.8393L59.3931 39.6197C59.4547 39.1404 59.4788 38.6023 59.4654 38.0266V37.807H58.1159V37.783V37.7803Z" fill="#282828"/>
<path id="Vector_31" d="M50.5639 46.3693C50.2587 46.3934 49.9026 46.3934 49.5465 46.3934H48.8477V47.7536H49.5465C49.9026 47.7536 50.256 47.7536 50.6362 47.7295L50.8558 47.7161L50.7835 46.356L50.5639 46.3693Z" fill="#282828"/>
<path id="Vector_32" d="M52.9931 45.8686C52.5513 46.0534 52.0854 46.1632 51.6571 46.2488L51.4375 46.297L51.6945 47.6331L51.9141 47.5849C52.38 47.4858 52.9315 47.352 53.4697 47.1324L53.6786 47.0467L53.1886 45.7856L52.9931 45.8713V45.8686Z" fill="#282828"/>
<path id="Vector_33" d="M54.5999 45.0467L53.8047 45.5233L54.466 46.7121L55.3603 46.1605L56.1823 45.55L55.3362 44.4951L54.5999 45.0467Z" fill="#282828"/>
<path id="Vector_34" d="M42.5765 46.3936H40.5898V47.7537H42.5765V46.3936Z" fill="#282828"/>
<path id="Vector_35" d="M45.3343 46.3936H43.3477V47.7537H45.3343V46.3936Z" fill="#282828"/>
<path id="Vector_36" d="M48.0648 46.3936H46.0781V47.7537H48.0648V46.3936Z" fill="#282828"/>
<path id="Vector_37" d="M34.3148 46.3936H32.3281V47.7537H34.3148V46.3936Z" fill="#282828"/>
<path id="Vector_38" d="M37.0726 46.3936H35.0859V47.7537H37.0726V46.3936Z" fill="#282828"/>
<path id="Vector_39" d="M39.807 46.3936H37.8203V47.7537H39.807V46.3936Z" fill="#282828"/>
<path id="Vector_40" d="M26.057 46.3936H24.0703V47.7537H26.057V46.3936Z" fill="#282828"/>
<path id="Vector_41" d="M28.8109 46.3936H26.8242V47.7537H28.8109V46.3936Z" fill="#282828"/>
<path id="Vector_42" d="M31.5453 46.3936H29.5586V47.7537H31.5453V46.3936Z" fill="#282828"/>
</g>
</svg>
