<svg xmlns="http://www.w3.org/2000/svg" xmlns:xlink="http://www.w3.org/1999/xlink" version="1.1" width="1000" height="1000" viewBox="0 0 1000 1000" xml:space="preserve">
<desc>Created with Fabric.js 3.5.0</desc>
<defs>
</defs>
<rect x="0" y="0" width="100%" height="100%" fill="rgba(255,255,255,0)"/>
<g transform="matrix(0.4642 0 0 0.4642 500 587.0779)" id="168106">
<g style="" vector-effect="non-scaling-stroke">
		<g transform="matrix(33.3333 0 0 33.3333 -222.6668 -190.367)" id="SVGRepo_iconCarrier">
<path style="stroke: rgb(255,255,255); stroke-width: 1.91; stroke-dasharray: none; stroke-linecap: butt; stroke-dashoffset: 0; stroke-linejoin: miter; stroke-miterlimit: 10; is-custom-font: none; font-file-url: none; fill: none; fill-rule: nonzero; opacity: 1;" transform=" translate(-5.32, -6.289)" d="M 9.14 5.08 c 0 2.39 -3.82 6 -3.82 6 S 1.5 7.47 1.5 5.08 A 3.7 3.7 0 0 1 5.32 1.5 A 3.7 3.7 0 0 1 9.14 5.08 Z" stroke-linecap="round"/>
</g>
		<g transform="matrix(33.3333 0 0 33.3333 -222.6667 -222.6667)" id="SVGRepo_iconCarrier">
<circle style="stroke: rgb(255,255,255); stroke-width: 1; stroke-dasharray: none; stroke-linecap: butt; stroke-dashoffset: 0; stroke-linejoin: miter; stroke-miterlimit: 4; is-custom-font: none; font-file-url: none; fill: rgb(255,255,255); fill-rule: nonzero; opacity: 1;" cx="0" cy="0" r="0.95"/>
</g>
		<g transform="matrix(33.3333 0 0 33.3333 222.6665 127.7988)" id="SVGRepo_iconCarrier">
<path style="stroke: rgb(255,255,255); stroke-width: 1.91; stroke-dasharray: none; stroke-linecap: butt; stroke-dashoffset: 0; stroke-linejoin: miter; stroke-miterlimit: 10; is-custom-font: none; font-file-url: none; fill: none; fill-rule: nonzero; opacity: 1;" transform=" translate(-18.68, -15.834)" d="M 22.5 14.62 c 0 2.39 -3.82 6 -3.82 6 s -3.82 -3.58 -3.82 -6 a 3.7 3.7 0 0 1 3.82 -3.57 A 3.7 3.7 0 0 1 22.5 14.62 Z" stroke-linecap="round"/>
</g>
		<g transform="matrix(33.3333 0 0 33.3333 222.6666 95.3333)" id="SVGRepo_iconCarrier">
<circle style="stroke: rgb(255,255,255); stroke-width: 1; stroke-dasharray: none; stroke-linecap: butt; stroke-dashoffset: 0; stroke-linejoin: miter; stroke-miterlimit: 4; is-custom-font: none; font-file-url: none; fill: rgb(255,255,255); fill-rule: nonzero; opacity: 1;" cx="0" cy="0" r="0.95"/>
</g>
		<g transform="matrix(33.3333 0 0 33.3333 -47.667 191.6665)" id="SVGRepo_iconCarrier">
<path style="stroke: rgb(255,255,255); stroke-width: 1.91; stroke-dasharray: none; stroke-linecap: butt; stroke-dashoffset: 0; stroke-linejoin: miter; stroke-miterlimit: 10; is-custom-font: none; font-file-url: none; fill: none; fill-rule: nonzero; opacity: 1;" transform=" translate(-10.57, -17.75)" d="M 4.36 13 h 4.3 a 2.39 2.39 0 0 1 2.39 2.39 h 0 a 2.39 2.39 0 0 1 -2.39 2.39 H 3.89 A 2.39 2.39 0 0 0 1.5 20.11 h 0 A 2.39 2.39 0 0 0 3.89 22.5 H 19.64" stroke-linecap="round"/>
</g>
</g>
</g>
<g transform="matrix(1.7756 0 0 1.7756 500.0104 500.008)" id="SVGRepo_iconCarrier">
<path style="stroke: rgb(255,255,255); stroke-width: 1; stroke-dasharray: none; stroke-linecap: butt; stroke-dashoffset: 0; stroke-linejoin: miter; stroke-miterlimit: 4; is-custom-font: none; font-file-url: none; fill: rgb(255,255,255); fill-rule: nonzero; opacity: 1;" transform=" translate(-256.0005, -256)" d="M 417.096 22.08 h -86.188 C 325.377 9.113 312.504 0 297.54 0 h -83.072 c -14.963 0 -27.838 9.113 -33.366 22.08 H 94.92 c -19.996 0 -36.263 16.262 -36.263 36.249 v 88.17 c 0 4.882 3.956 8.839 8.839 8.839 s 8.839 -3.958 8.839 -8.839 v -88.17 c 0 -10.241 8.337 -18.571 18.585 -18.571 h 83.293 v 36.082 h -53.557 c -4.883 0 -8.839 3.958 -8.839 8.839 v 364.72 c 0 4.882 3.956 8.839 8.839 8.839 h 262.693 c 4.883 0 8.839 -3.958 8.839 -8.839 v -65.43 c 0 -4.882 -3.956 -8.839 -8.839 -8.839 c -4.883 0 -8.839 3.958 -8.839 8.839 v 56.591 H 133.494 V 93.519 h 44.718 v 5.606 c 0 4.882 3.956 8.839 8.839 8.839 h 137.904 c 4.883 0 8.839 -3.958 8.839 -8.839 v -5.606 h 44.712 v 260.987 c 0 4.882 3.956 8.839 8.839 8.839 s 8.839 -3.958 8.839 -8.839 V 84.68 c 0 -4.882 -3.956 -8.839 -8.839 -8.839 h -53.552 V 39.759 h 83.301 c 10.239 0 18.571 8.331 18.571 18.571 v 417.421 c 0 10.239 -8.33 18.571 -18.571 18.571 H 94.92 c -10.246 0 -18.585 -8.331 -18.585 -18.571 V 175.963 c 0 -4.882 -3.956 -8.839 -8.839 -8.839 s -8.839 3.958 -8.839 8.839 v 299.788 C 58.657 495.738 74.924 512 94.92 512 h 322.175 c 19.987 0 36.249 -16.262 36.249 -36.249 V 58.329 C 453.344 38.341 437.083 22.08 417.096 22.08 z M 316.116 90.286 H 195.891 V 36.254 c 0 -10.243 8.332 -18.575 18.576 -18.575 h 83.072 c 10.243 0 18.577 8.334 18.577 18.575 V 90.286 z" stroke-linecap="round"/>
</g>
<g transform="matrix(1.7756 0 0 1.7756 500.0207 167.4663)" id="SVGRepo_iconCarrier">
<path style="stroke: rgb(255,255,255); stroke-width: 1; stroke-dasharray: none; stroke-linecap: butt; stroke-dashoffset: 0; stroke-linejoin: miter; stroke-miterlimit: 4; is-custom-font: none; font-file-url: none; fill: rgb(255,255,255); fill-rule: nonzero; opacity: 1;" transform=" translate(-256.004, -68.715)" d="M 284.775 59.876 h -57.542 c -4.883 0 -8.839 3.958 -8.839 8.839 c 0 4.882 3.956 8.839 8.839 8.839 h 57.542 c 4.883 0 8.839 -3.958 8.839 -8.839 C 293.614 63.833 289.657 59.876 284.775 59.876 z" stroke-linecap="round"/>
</g>
<g transform="matrix(1.7756 0 0 1.7756 540.4927 356.6485)" id="SVGRepo_iconCarrier">
<path style="stroke: rgb(255,255,255); stroke-width: 1; stroke-dasharray: none; stroke-linecap: butt; stroke-dashoffset: 0; stroke-linejoin: miter; stroke-miterlimit: 4; is-custom-font: none; font-file-url: none; fill: rgb(255,255,255); fill-rule: nonzero; opacity: 1;" transform=" translate(-278.7975, -175.259)" d="M 337.414 166.42 H 220.18 c -4.883 0 -8.839 3.958 -8.839 8.839 s 3.956 8.839 8.839 8.839 h 117.235 c 4.883 0 8.839 -3.958 8.839 -8.839 S 342.297 166.42 337.414 166.42 z" stroke-linecap="round"/>
</g>
<g transform="matrix(1.1857 0 0 1.7756 580.576 423.6148)" id="757930">
<path style="stroke: rgb(255,255,255); stroke-width: 1; stroke-dasharray: none; stroke-linecap: butt; stroke-dashoffset: 0; stroke-linejoin: miter; stroke-miterlimit: 4; is-custom-font: none; font-file-url: none; fill: rgb(255,255,255); fill-rule: nonzero; opacity: 1;" transform=" translate(-278.7975, -175.259)" d="M 337.414 166.42 H 220.18 c -4.883 0 -8.839 3.958 -8.839 8.839 s 3.956 8.839 8.839 8.839 h 117.235 c 4.883 0 8.839 -3.958 8.839 -8.839 S 342.297 166.42 337.414 166.42 z" stroke-linecap="round"/>
</g>
<g transform="matrix(0.8563 0 0 1.7756 605.5808 489.3337)" id="533394">
<path style="stroke: rgb(255,255,255); stroke-width: 1; stroke-dasharray: none; stroke-linecap: butt; stroke-dashoffset: 0; stroke-linejoin: miter; stroke-miterlimit: 4; is-custom-font: none; font-file-url: none; fill: rgb(255,255,255); fill-rule: nonzero; opacity: 1;" transform=" translate(-278.7975, -175.259)" d="M 337.414 166.42 H 220.18 c -4.883 0 -8.839 3.958 -8.839 8.839 s 3.956 8.839 8.839 8.839 h 117.235 c 4.883 0 8.839 -3.958 8.839 -8.839 S 342.297 166.42 337.414 166.42 z" stroke-linecap="round"/>
</g>
</svg>