<?xml version="1.0" encoding="utf-8"?>
<!-- Generator: Adobe Illustrator 27.3.1, SVG Export Plug-In . SVG Version: 6.00 Build 0)  -->
<svg version="1.1" id="Layer_1" xmlns="http://www.w3.org/2000/svg" xmlns:xlink="http://www.w3.org/1999/xlink" x="0px" y="0px"
	 viewBox="0 0 400 400" style="enable-background:new 0 0 400 400;" xml:space="preserve">
<style type="text/css">
	.st0{fill:#4EB966;}
</style>
<g>
	<path class="st0" d="M314.4,186.4c-5.5,1.6-9,6.5-9.5,12.8c-0.8,10-0.9,20.3-3.1,30.1c-19.8,87.4-114.3,130.4-192.4,90.6
		c-44.4-22.6-69.1-60-72.9-110.1c-3.2-41.4,10.3-77,39.8-105.9c29.1-28.5,64.5-40.8,105.4-37.6c23.8,1.9,45.4,9.4,64.9,22.8
		c7.1,5,13.5,11,20.2,16.7c6.2,5.2,13.6,4.8,18.7-1.1c4.6-5.3,4.1-12.7-1.5-18.3c-14.1-14.2-30.4-25.1-48.5-33.5
		c-17.1-8-35.4-12.2-54.2-13.4c-43.3-2.9-81.8,10.2-114.8,38.2c-37.2,31.5-55.4,72.6-57.5,121.7c0.8,8.3,1.1,17.1,2.5,25.8
		c11.7,71.8,67.8,123.6,134.9,134c18.4,2.8,36.7,2.4,54.8-1.4c39.9-8.2,72.5-28.6,97.2-61c21.6-28.4,32.4-60.7,32.8-96.5
		C331.5,190.7,323.1,183.9,314.4,186.4z"/>
	<path class="st0" d="M380.1,54.7c-5-1.1-9.1,0.8-12.6,4.2c-6.3,6.2-12.5,12.5-18.9,18.6c-25.5,24.4-51.1,48.7-76.7,73
		c-33.7,32.2-67.4,64.5-101.1,96.8c-0.8,0.8-1.7,1.4-2.6,2.2c-0.7-0.6-1.2-1.1-1.7-1.5c-21.4-20.9-42.9-41.9-64.3-62.8
		c-1.9-1.8-3.7-3.7-5.7-5.3c-5.3-4.4-12.9-3.9-17.6,0.9c-4.9,5-5.2,12.2-0.8,17.6c1.4,1.7,2.9,3.2,4.5,4.7
		c22.6,22.2,45.1,44.4,67.7,66.7c5.8,5.7,11.7,11.4,17.9,17.5c1.7-1.8,2.8-3.2,4.1-4.5c32.8-31.5,65.7-63,98.6-94.4
		c32.9-31.5,65.8-62.9,98.7-94.4c6.1-5.9,12.4-11.7,18-18.1C394.3,68,390.2,56.8,380.1,54.7z"/>
</g>
</svg>
