<svg width="124" height="124" viewBox="0 0 124 124" fill="none" xmlns="http://www.w3.org/2000/svg">
<circle cx="62" cy="62" r="62" fill="#FFF3E2"/>
<path d="M61.1073 42.631C57.4909 42.631 53.8628 42.631 50.2348 42.631C48.6381 42.631 47.04 42.6296 45.4434 42.631C44.3135 42.631 43.5283 43.1262 43.0717 44.1983C41.4009 48.1203 39.7054 52.0319 38.0215 55.948C37.956 56.0999 37.9051 56.2577 37.8034 56.5323H84.0725C83.3164 54.7152 82.5573 52.8923 81.8026 51.0796C83.1739 50.2558 84.5306 49.4407 85.9105 48.6125C86.7423 50.5581 87.6221 52.5519 88.4393 54.5721C88.6632 55.1257 88.9381 55.2893 89.5095 55.2133C90.9942 55.0176 92.4891 54.889 93.9752 54.7021C95.0789 54.5633 95.8641 54.9153 96.3134 55.9422C96.7788 57.0041 96.9489 58.1434 96.7337 59.2901C96.4312 60.9056 95.0207 62.0084 93.1638 62.1661C92.8351 62.1939 92.5065 62.2085 92.0834 62.2362C92.2084 62.5459 92.2884 62.765 92.3829 62.9783C93.5244 65.5739 94.2849 68.2586 94.3431 71.1215C94.4303 75.3531 92.9064 78.9303 90.0577 81.9934C89.21 82.9048 88.3462 83.7783 87.0651 84.1026C87.0651 85.4128 87.0709 86.6748 87.0651 87.9354C87.0535 89.8927 85.8946 91.0525 83.946 91.0612C82.8089 91.0671 81.6717 91.0715 80.5346 91.0612C78.826 91.0452 77.654 89.9234 77.6016 88.2115C77.5638 86.9801 77.5943 85.7473 77.5943 84.4692H44.6058C44.6058 85.388 44.5549 86.3053 44.6145 87.2138C44.8065 90.1001 43.4134 91.349 40.6854 91.1591C39.8668 91.1021 39.0408 91.162 38.2178 91.146C36.371 91.1094 35.247 89.976 35.2252 88.1311C35.2121 86.9889 35.2383 85.8466 35.2048 84.7058C35.199 84.4911 35.0507 84.1771 34.8762 84.088C31.4575 82.3468 29.6064 79.3671 28.6001 75.8308C27.4528 71.8008 28.2177 67.9037 29.8143 64.1264C29.9365 63.8357 30.063 63.5479 30.1953 63.2616C30.3262 62.9783 30.4687 62.7007 30.6374 62.3589C30.2637 62.299 29.9583 62.2304 29.6515 62.2026C26.3186 61.9032 24.9342 59.9707 25.7646 56.7207C25.8809 56.265 26.1005 55.8107 26.3724 55.4251C26.8217 54.7853 27.4426 54.5472 28.2671 54.6656C29.8201 54.889 31.3906 54.9942 32.9494 55.1885C33.4642 55.2527 33.4889 54.8759 33.6096 54.5896C34.9881 51.3075 36.3565 48.0209 37.7277 44.7359C38.0913 43.8638 38.4417 42.9874 38.8242 42.1227C39.9642 39.5402 42.0203 38.1015 44.7556 38.0241C49.6633 37.8853 54.5783 37.9788 59.4903 37.9919C59.6765 37.9919 59.9906 38.1438 60.0284 38.2826C60.4079 39.7024 60.7424 41.1338 61.1073 42.6339V42.631ZM80.6422 64.6566C78.3708 64.6537 76.5997 66.424 76.5939 68.7027C76.5881 71.0003 78.4072 72.8495 80.6611 72.8364C82.9092 72.8232 84.7545 70.9813 84.7327 68.7698C84.7109 66.4488 82.931 64.6595 80.6422 64.6566ZM36.8145 68.6939C36.8029 70.9652 38.5755 72.8013 40.812 72.8335C43.0295 72.8656 44.9533 70.9565 44.9562 68.7216C44.9592 66.5102 43.156 64.677 40.9574 64.6566C38.6264 64.6347 36.8276 66.3875 36.816 68.6939H36.8145Z" fill="#F59E2C"/>
<path d="M72.982 50.1199C78.7394 50.1199 83.4067 45.4317 83.4067 39.6484C83.4067 33.8651 78.7394 29.1768 72.982 29.1768C67.2246 29.1768 62.5573 33.8651 62.5573 39.6484C62.5573 45.4317 67.2246 50.1199 72.982 50.1199Z" fill="#F59E2C"/>
<path d="M77.3205 34.9088C77.2725 34.9205 77.1795 34.9381 77.0908 34.9673C76.6225 35.1206 76.1557 35.2755 75.689 35.4303C73.2693 36.2322 70.8496 37.0297 68.4343 37.8419C68.2569 37.9018 68.0707 38.0435 67.9675 38.1997C67.7072 38.597 67.9035 39.0922 68.3732 39.2821C69.5961 39.7758 70.8191 40.2666 72.0449 40.7501C72.1889 40.8071 72.2601 40.8889 72.3154 41.0291C72.7894 42.2414 73.2707 43.4494 73.7506 44.6589C73.8975 45.0284 74.1665 45.2329 74.4951 45.2271C74.8398 45.2212 75.0971 45.0065 75.2266 44.6165C75.75 43.0214 76.2735 41.4264 76.797 39.8299C77.2202 38.5386 77.6462 37.2474 78.0665 35.9547C78.2424 35.4113 77.8993 34.903 77.3205 34.9074V34.9088Z" fill="#FFF3E2"/>
</svg>
