<svg width="124" height="124" viewBox="0 0 124 124" fill="none" xmlns="http://www.w3.org/2000/svg">
<circle cx="62" cy="62" r="62" fill="#EEFFF8"/>
<path d="M47.4118 63.8235H52.8823V69.2941H47.4118V63.8235ZM85.7059 47.4118V85.7059C85.7059 88.7421 83.2715 91.1765 80.2353 91.1765H41.9412C38.905 91.1765 36.4706 88.7147 36.4706 85.7059V47.4118C36.4706 44.4029 38.9323 41.9412 41.9412 41.9412H44.6765V36.4706H50.1471V41.9412H72.0294V36.4706H77.5V41.9412H80.2353C83.2715 41.9412 85.7059 44.4029 85.7059 47.4118ZM41.9412 52.8823H80.2353V47.4118H41.9412V52.8823ZM80.2353 85.7059V58.3529H41.9412V85.7059H80.2353ZM69.2941 69.2941V63.8235H74.7647V69.2941H69.2941ZM58.3529 69.2941V63.8235H63.8235V69.2941H58.3529ZM47.4118 74.7647H52.8823V80.2353H47.4118V74.7647ZM69.2941 80.2353V74.7647H74.7647V80.2353H69.2941ZM58.3529 80.2353V74.7647H63.8235V80.2353H58.3529Z" fill="#75EAB8"/>
</svg>
