<?xml version="1.0" encoding="utf-8"?>
<!-- Generator: Adobe Illustrator 27.3.1, SVG Export Plug-In . SVG Version: 6.00 Build 0)  -->
<svg version="1.1" id="Layer_1" xmlns="http://www.w3.org/2000/svg" xmlns:xlink="http://www.w3.org/1999/xlink" x="0px" y="0px"
	 viewBox="0 0 100 100" style="enable-background:new 0 0 100 100;" xml:space="preserve">
<g>
	<g>
		<g>
			<g>
				<g>
					<path d="M73.7,51c0,1-0.7,1.8-1.7,1.9h-0.1c-1,0-1.6-0.6-1.7-1.7c0-0.5-0.1-1.1-0.1-2V11.8c0-1.6-0.6-2.2-2.2-2.3
						c-0.7,0-1.3,0-1.9,0H53.4c-13.4,0-27.3,0-40.9,0c-0.2,0-0.5,0-0.7,0h-0.1c-1,0-1.8,0-2.4,0.6s-0.6,1.5-0.6,2.8v70.4
						c0,1.2,0.8,2,2,2H13h14.9c5.3,0,10.7,0,16,0c0.4,0,0.9,0,1.2,0.1c0.8,0.2,1.3,1.1,1.2,1.9c-0.1,0.9-0.8,1.5-1.7,1.5
						c-3.3,0-6.7,0-9.9,0H11.1c-2.6,0-4.7-1.5-5.4-3.8c-0.2-0.6-0.3-1.4-0.3-2.5c0-9.3,0-18.8,0-27.9V12.2c0-3.1,1.6-5.3,4.4-5.9
						c0.5-0.1,1-0.1,1.5-0.1h57c1.5,0,2.9,0.6,3.9,1.6s1.6,2.5,1.6,3.9c0,8.3,0,16.7,0,25v6.9c0,1.4,0,3.3,0,5.2L73.7,51z"/>
				</g>
			</g>
		</g>
	</g>
	<g>
		<path d="M94.1,51.4c-1.5-2.8-4-4.4-6.8-4.4c-0.5,0-1,0-1.6,0.2c-1.6,0.3-2.9,1-3.8,2c-1,1.1-2,2.3-2.9,3.5l-0.1,0.2
			c-0.3,0.4-0.6,0.7-0.9,1.1c-0.3,0.4-0.7,0.8-1,1.2l-0.2,0.3c-0.5,0.7-1.1,1.5-1.7,2.2c-1.5,1.7-3.5,2.2-5.8,2.6
			c-1.7,0.3-3-0.6-4.2-1.4l-0.2-0.1c-1.3-0.9-2.8-1.8-4.6-2.2c-0.7-0.2-1.3-0.2-1.9-0.2c-0.9,0-1.7,0.2-2.4,0.7
			c-2.9,1.9-5.7,3.9-8.5,5.8l-1.4,1c-1.5,1-2.2,2.6-2.2,4.6c0,1.7,0.4,3.5,1.3,5.6c2.6,6.1,6.8,11.4,12.9,16.3
			c2.1,1.7,4.2,2.8,6.4,3.5c1.9,0.5,4,0.9,5.8-0.9c1.4-1.4,2.9-2.9,4.3-4.4c0.8-0.8,1.6-1.6,2.4-2.4l1.2-1.2
			c1.2-1.2,1.7-2.5,1.6-3.9s-0.3-2.8-0.6-4c-0.4-1.4-0.7-3.1-0.3-4.9c0.8-3.4,2.3-5.6,4.8-6.9c0.4-0.2,0.8-0.4,1.2-0.6
			c0.7-0.4,1.4-0.7,1.9-1c2-1,4-2,5.6-3.6c1.4-1.4,2.1-3.1,2.3-5.1l0,0C94.7,52.8,94.4,51.8,94.1,51.4z M68.5,89.3
			c0,0.6-0.2,1-0.5,1.3S67.3,91,66.8,91c-0.1,0-0.2,0-0.3,0c-1.8-0.1-3.5-0.9-5.3-2.2c-6.3-4.6-10.6-9.7-13.1-15.8
			c-0.4-0.9-0.7-1.9-0.9-2.8L47.1,70c-0.1-0.4-0.1-0.7-0.2-1.1l-0.1-0.5c0-1,0.2-1.7,0.6-2.1c0.4-0.4,1.1-0.5,2-0.3s2.1,0.4,3.1,1
			c7.7,4.8,12.9,11.1,15.6,19C68.4,86.9,68.6,88,68.5,89.3z M75.9,82.5c-0.4,0.4-0.8,0.8-1.3,1.3L74.4,84c-0.4,0.5-0.9,0.9-1.3,1.4
			C72.7,85.8,72.4,86,72,86c-0.1,0-0.1,0-0.2,0c-0.4-0.1-0.7-0.4-0.9-1.1c-2.3-6.6-6.4-12.4-12.6-17.5c-1-0.9-2.3-1.6-3.3-2.2l0,0
			c-0.4-0.3-0.9-0.5-1.4-0.8s-0.8-0.7-0.8-1.1c0-0.4,0.2-0.7,0.7-1.1c1.1-0.8,2.4-1.7,3.8-2.6c0.8-0.5,1.7-0.4,2.5-0.2
			c1.6,0.4,3.1,1.2,4.7,2.5c4.5,3.6,7.9,7.5,10.3,12.1c1.2,2.3,1.8,4.2,1.9,6.2c0,0.1,0,0.2,0,0.3C76.8,81.3,76.5,82,75.9,82.5z
			 M90.3,57.5c-0.7,0.7-1.6,1.4-2.5,1.9c-1.1,0.6-2.2,1.2-3.3,1.8c-1,0.5-2.1,1.1-3.2,1.7C79.4,64,78,65.5,77,67.5
			c-0.4,0.8-0.9,1.1-1.2,1.1h-0.1c-0.5,0-0.9-0.3-1.4-0.8l-0.4-0.6c-0.6-0.8-1.2-1.5-1.8-2.2c-0.4-0.5-0.6-1.1-0.4-1.6
			c0.1-0.5,0.6-0.9,1.2-1.1c3.2-1,5.2-3.4,6.6-5.5l0.2-0.3c0.8-1.2,1.7-2.5,2.6-3.7s2-2.4,3.7-2.8c0.2,0,0.4-0.1,0.5-0.1h0.1
			c0.1,0,0.2,0,0.2,0l0,0c2,0.2,3.4,1.1,4.2,2.9C91.9,54.6,91.6,56.2,90.3,57.5z"/>
	</g>
	<g>
		<path d="M53.4,20.6c-3.5-3.4-8.3-5.4-13.1-5.4c-10.4,0.1-18.5,8-18.9,18.3c-0.2,5,1.7,9.8,5.2,13.5c3.6,3.8,8.6,5.9,13.5,5.9l0,0
			c10.5,0,18.8-8.3,18.9-18.8C59.1,28.9,57.1,24.1,53.4,20.6z M41.4,49.4c-0.4,0-0.8,0-1.1,0c-8,0-14.8-6.2-15.4-14.2
			c-0.3-4.4,1.1-8.5,4.1-11.7c2.9-3.1,7-5,11-5c3.5-0.2,7.2,1.1,10.3,3.7c3.2,2.8,5.2,6.7,5.5,10.6C56.3,41.4,49.9,48.8,41.4,49.4z"
			/>
	</g>
	<path d="M30.4,58.7c4,0,8,0.1,12.1,0c1.5,0,2.4,1.6,1.6,2.9c-0.4,0.6-0.9,0.9-1.7,0.9c-4.3,0-8.6,0-12.9,0c-3.7,0-7.4,0-11.1,0
		c-0.8,0-1.3-0.3-1.7-1c-0.4-0.6-0.3-1.3,0.1-2c0.3-0.6,0.8-0.8,1.5-0.8C22.2,58.7,26.3,58.7,30.4,58.7L30.4,58.7z"/>
	<path d="M27.5,73.7c-3,0-6.1,0-9.1,0c-1.3,0-2-0.6-2-1.9c0-1.2,0.7-1.9,2-1.9c6.1,0,12.2,0,18.3,0c1.9,0,2.4,1.8,1.8,2.9
		c-0.4,0.7-1,0.8-1.7,0.8C33.7,73.7,30.6,73.7,27.5,73.7z"/>
	<path d="M37.6,38.8c2.4-2,4.7-3.9,7-5.8c1.1-0.9,2.2-1.8,3.2-2.7c0.8-0.6,1.8-0.6,2.4,0.2c0.6,0.7,0.5,1.6-0.3,2.2
		c-3.4,2.8-6.7,5.7-10.1,8.5c-1.5,1.2-3.1,1.1-4.5-0.2c-1.7-1.6-3.4-3.3-5.1-5c-0.8-0.8-0.9-1.7-0.1-2.4c0.6-0.6,1.6-0.6,2.4,0.2
		c1.5,1.4,3,2.9,4.4,4.4C37.1,38.3,37.3,38.5,37.6,38.8z"/>
</g>
</svg>
