<?xml version="1.0" encoding="utf-8"?>
<!-- Generator: Adobe Illustrator 27.3.1, SVG Export Plug-In . SVG Version: 6.00 Build 0)  -->
<svg version="1.1" id="Layer_1" xmlns="http://www.w3.org/2000/svg" xmlns:xlink="http://www.w3.org/1999/xlink" x="0px" y="0px"
	 viewBox="0 0 100 100" style="enable-background:new 0 0 100 100;" xml:space="preserve">
<path d="M98.3,41.6c-0.6-0.8-1.3-1.6-1.9-2.4l-1.5-1.9c-0.6-0.8-1.3-1.6-2-2.4c-0.7-0.8-1.8-0.9-2.7-0.3c-0.8,0.7-1,1.7-0.3,2.6
	c0.2,0.3,0.4,0.5,0.6,0.8l4.9,6l-5.6,4.6L83,40.6c-2.9-3.6-5.9-7.2-8.8-10.7c-0.2-0.3-0.4-0.5-0.3-0.6c0-0.1,0.2-0.3,0.5-0.5
	c1.4-1,2.8-2.2,4.5-3.7c0.3-0.2,0.4-0.3,0.5-0.3c0.1,0,0.2,0.1,0.4,0.4c1.8,2.3,3.7,4.5,5.3,6.5c0.8,1,1.9,1.1,2.8,0.5
	c0.4-0.3,0.7-0.8,0.7-1.3c0.1-0.5-0.1-1.1-0.6-1.7c-2-2.4-3.8-4.7-5.6-6.9c-1.5-1.8-3.7-2-5.6-0.5c-1.1,0.9-2.1,1.7-3.2,2.6L72,25.7
	c-2.1,1.7-2.5,2.8-1.8,5.3c-1.7,1.1-4.6,2-7.1,2.1c-4.7,0.3-8.8,0.6-12.8,2.5c-0.1,0-0.3,0.1-0.9-0.1c-0.5-0.1-0.9-0.3-1.4-0.5
	c-0.8-0.3-1.7-0.7-2.6-0.8c-2.1-0.3-4.2-0.6-6.2-0.8c-0.8-0.1-1.6-0.2-2.3-0.3c-3.1-0.4-5.3-1-7.3-2.2c0.7-2.4,0.4-3.6-1.7-5.3
	l-1.8-1.5c-1-0.8-2-1.6-2.9-2.4c-2-1.6-4.2-1.4-5.8,0.6C11.9,28.8,6.7,35.2,1.5,41.5c-1.6,2-1.4,4.1,0.5,5.7c1,0.8,2,1.7,3.1,2.5
	c0.6,0.5,1.1,0.9,1.7,1.4c2.3,1.9,3.4,2,6,0.4c0.8,0.7,1.5,1.4,2.3,2.1c1.9,1.7,3.8,3.4,5.5,5.3c4.2,4.6,8.8,8.8,13.6,12.5
	c2.6,2,5.3,4.1,7.8,6.1c1.6,1.2,3.1,2.4,4.7,3.7c1.1,0.9,2.4,1.4,3.6,1.4c0.3,0,0.7,0,1-0.1c1.5-0.3,2.8-1.4,3.7-3
	c1.6,1,3.2,1.4,4.7,1c1.5-0.4,2.7-1.4,3.5-3c2.9,1.6,5.6,1.3,7.4-0.9c1.3-1.6,2.1-4.2-1-7.5l0.9-1c5.1-5.6,10.4-11.5,16.5-16.3
	c2.1,1.3,3.5,1.3,5,0.1c2.1-1.7,4-3.2,5.7-4.6C99.5,45.7,99.7,43.5,98.3,41.6z M20.9,25.1c1.6,1.4,3.3,2.7,4.7,3.8
	c0.2,0.2,0.3,0.3,0.3,0.4c0,0,0,0.1-0.2,0.4c-3.8,4.6-7.5,9.1-11.2,13.7l-4.3,5.3c0,0-0.1,0.1-0.1,0.1l-5.6-4.6l0.1-0.1
	c0.2-0.2,0.4-0.5,0.6-0.7L8.6,39c3.8-4.6,7.5-9.2,11.3-13.8c0.2-0.3,0.4-0.4,0.4-0.4C20.4,24.8,20.6,24.9,20.9,25.1z M67.7,65.7
	c-0.7,0.9-1.7,0.4-2.2,0c-4.1-3.2-8.2-6.5-12.4-9.7l-3.9-3c-0.2-0.2-0.4-0.3-0.6-0.5c-0.6-0.5-1.2-0.7-1.8-0.6
	c-0.5,0.1-0.9,0.3-1.2,0.7c-0.7,0.9-0.4,2.1,0.7,2.9c2,1.6,4,3.2,6,4.8l14.7,11.5c0.1,0.1,0.2,0.2,0.4,0.3c0.6,0.6,0.7,1.4,0.2,1.9
	c-0.5,0.6-1.2,0.7-1.9,0.2c-1.1-0.8-2.2-1.7-3.2-2.5l-17.8-14l-0.1-0.1c-0.2-0.2-0.4-0.3-0.6-0.4c-0.9-0.5-1.8-0.3-2.4,0.5
	c-0.6,0.8-0.6,1.7,0.1,2.5c0.2,0.3,0.5,0.5,0.8,0.7l13.9,10.9l2.6,2c0.6,0.5,1.2,1.3,0.5,2.2c-0.5,0.6-1.4,0.6-2.3-0.1
	c-4-3.1-8-6.2-12-9.4l-4.4-3.5c-0.2-0.2-0.4-0.3-0.7-0.5c-1-0.7-2.1-0.6-2.8,0.2c-0.3,0.4-0.5,0.9-0.4,1.4c0.1,0.5,0.3,1,0.8,1.4
	c1.5,1.2,3,2.4,4.6,3.6l4.1,3.2c1.4,1.1,2.8,2.2,4.2,3.3c0.4,0.3,1.3,1.2,0.6,2.2c-0.2,0.3-0.5,0.5-0.8,0.5c-0.4,0.1-1-0.1-1.5-0.6
	c-1.5-1.2-3-2.4-4.5-3.5c-3.9-3-7.8-6.1-11.7-9.2c-2.4-2-4.8-4.3-7.6-7.2c-2.9-3.1-6.1-6.3-9.8-9.1c-0.1-0.1-0.2-0.2-0.3-0.3
	L27,34.1c4.3,2.7,9.2,3.1,13.4,3.2c1.1,0,2.1,0.2,3.2,0.5c0.3,0.1,0.6,0.1,0.9,0.2c0,0,0,0,0,0c-0.5,0.2-1.1,0.4-1.6,0.6
	c-0.7,0.3-1.5,0.6-2.2,0.9c-2.6,1.1-3.9,3.7-3.1,6.3c0.7,2.5,3.2,4,5.9,3.6c0.8-0.1,1.6-0.3,2.4-0.4l0.9-0.2c1-0.2,1.8,0,2.5,0.6
	c3,2.4,6.1,4.8,9.1,7.2c3,2.3,6,4.7,8.9,7c0.5,0.4,0.8,0.8,0.8,1.2C68,65.1,67.9,65.4,67.7,65.7z M57.5,51c-2-1.5-3.9-3.1-5.9-4.6
	c-1.3-1.1-2.8-1.6-4.3-1.6c-0.5,0-1,0-1.5,0.1c-1.3,0.3-2.2,0.4-3.2,0.6c-0.8,0.1-1.3-0.2-1.5-0.9c-0.2-0.7,0.1-1.3,0.8-1.6
	c1.1-0.4,2.3-0.9,3.4-1.4c3.2-1.3,6.5-2.6,9.9-3.7c1.8-0.6,3.7-0.7,5.6-0.8c0.6,0,1.2-0.1,1.8-0.1c4-0.4,7.2-1.3,10-3l12,14.6
	c-3.9,2.8-7.2,6.3-10.4,9.7c-1.1,1.1-2.1,2.2-3.2,3.3L57.5,51z"/>
</svg>
