<?xml version="1.0" encoding="utf-8"?>
<!-- Generator: Adobe Illustrator 27.3.1, SVG Export Plug-In . SVG Version: 6.00 Build 0)  -->
<svg version="1.1" id="Layer_1" xmlns="http://www.w3.org/2000/svg" xmlns:xlink="http://www.w3.org/1999/xlink" x="0px" y="0px"
	 viewBox="0 0 400 400" style="enable-background:new 0 0 400 400;" xml:space="preserve">
<style type="text/css">
	.st0{fill:#EE2724;}
</style>
<g>
	<path class="st0" d="M64.8,84.6c5.9-3.2,12.4-5.2,18.7-7.7c3.8-1.5,6-4.9,5.4-8.5c-0.6-3.8-3.8-6.6-8.5-6.6
		c-0.9,0.2-2.7,0.6-4.4,1.2c-62.1,19.6-90.6,90.3-59.6,147.5c4.7,8.7,10.6,16.6,17.7,23.6c4.2,4.1,10.3,3.3,12.8-1.5
		c1.8-3.3,1-6.8-2.4-10.2C3.9,180.2,13.7,113,64.8,84.6z"/>
	<path class="st0" d="M377,101.2c-14-19.4-32.5-32.4-55.5-39c-4.9-1.4-8.7,0.6-10.2,5c-1.5,4.6,1,8.4,6.9,10.2
		c62.4,19.1,83,95.8,38.5,143.5c-1.2,1.3-2.5,2.4-3.4,3.9c-3,4.6-0.1,10.9,5.1,11.7c3.4,0.5,5.9-0.9,8.2-3.3
		c19.4-20.2,29-44.4,29.5-70.5C396.1,138.9,389.8,119,377,101.2z"/>
	<path class="st0" d="M82.8,116c3.2-1.1,5.6-2.6,6.3-6.1c1.5-6.7-4.3-11-11.6-8.7c-24.6,7.7-41.7,30.9-41.7,58.6
		c0.3,2,0.5,5.9,1.2,9.8c2.3,11.9,7.8,22.2,16.3,30.8c2.5,2.5,5.4,3,8.5,2c2.8-0.9,4.5-3.2,5-6.1c0.5-3.1-1-5.4-3.1-7.7
		c-10.2-11.1-14.5-24.1-11.5-39C55.8,132.7,66.3,121.5,82.8,116z"/>
	<path class="st0" d="M363.8,151.2c-1.8-22.8-21.3-45.4-43.5-50.5c-3.9-0.9-7.9,1.2-9.1,4.8c-1.4,4,0.3,8.1,4.2,9.8
		c1.8,0.8,3.7,1.3,5.5,2c18.2,7,29.7,26,27.6,45.4c-1.1,10.2-5.2,18.9-12.3,26.3c-2.2,2.3-3.6,4.8-2.8,8c1.7,6.3,8.7,8,13.5,3.2
		c11.6-11.6,17-25.8,17.5-42.7C364.1,155.7,364,153.4,363.8,151.2z"/>
	<path class="st0" d="M202.8,338.3c13.6-0.7,27.7-13.1,28.6-24.9c-21,0-41.9,0-62.9,0C171.2,328.5,186.1,339.2,202.8,338.3z"/>
	<path class="st0" d="M283.3,269.7c-2.4-7.9-3.7-16.3-4.1-24.6c-0.6-14.1-0.1-28.2-0.2-42.3c-0.1-9.3,0.3-18.6-0.7-27.8
		c-3.2-27.9-17.7-48.4-42.3-61.7c-8.4-4.6-17.6-7-27.4-8.4c0-3.3,0-6.5,0-10c-3.8,0-7.5,0-11.1,0h-6.4v9.6c-6,1.5-11.5,2.5-16.8,4.3
		c-32.4,11.2-53.5,41.1-53.5,75.3c0,20.4,0.1,40.8,0,61.2c-0.1,9.8-1.7,19.4-5.6,28.5c-4.1,9.5-10.3,16.8-20.8,19.4
		c-2.5,0.6-5.1,0.9-7.9,1.4c0,1.9,0,3.6,0,5.3c0,1.7,0,3.4,0,5.1c75.9,0,151.2,0,226.7,0c0-3.6,0-6.9,0-10.6
		C296.9,293.7,287.6,284.2,283.3,269.7z"/>
</g>
</svg>
