<svg width="41" height="43" viewBox="0 0 41 43" fill="none" xmlns="http://www.w3.org/2000/svg">
<g id="Layer_1" clip-path="url(#clip0_2168_8390)">
<path id="Vector" d="M10.3823 23.0626C10.1342 26.8416 9.89758 30.6217 9.65576 34.4018C9.637 34.6883 9.62137 34.9738 9.60156 35.305C16.8947 35.6715 24.1254 35.6725 31.406 35.305C31.406 35.1119 31.4112 35.0091 31.406 34.9074C31.233 32.18 31.0631 29.4537 30.8838 26.7264C30.7827 25.1909 30.765 23.6409 30.5378 22.1241C29.7133 16.6112 24.4902 12.8613 18.946 13.7333C14.1597 14.486 10.6991 18.2516 10.3833 23.0636L10.3823 23.0626ZM29.2724 27.2496C29.2724 27.2496 29.2661 27.2496 29.263 27.2496C29.2672 27.3358 29.2724 27.422 29.2745 27.5081C29.287 28.0823 29.0191 28.4405 28.5594 28.4643C28.0998 28.4882 27.8048 28.1778 27.7464 27.5902C27.7151 27.2808 27.686 26.9693 27.6912 26.6599C27.6985 26.2177 27.9424 25.9342 28.3833 25.8969C28.8221 25.8595 29.1129 26.09 29.1973 26.5281C29.2422 26.7648 29.2484 27.0088 29.2724 27.2486V27.2496ZM20.0853 15.7205C20.1416 15.2709 20.5544 15.0041 21.0964 15.0674C25.5898 15.5928 28.8513 19.0987 29.067 23.6357C29.1067 24.4631 28.9013 24.8213 28.3729 24.8504C27.8465 24.8784 27.5609 24.5555 27.5411 23.727C27.4494 19.7985 24.5329 17.4023 22.0418 16.796C21.6551 16.7015 21.259 16.6476 20.866 16.579C20.3428 16.4887 20.0321 16.1492 20.0853 15.7215V15.7205Z" fill="#282828"/>
<path id="Vector_2" d="M30.756 36.3931C23.6598 36.7398 16.5626 36.7357 9.46644 36.3972C7.6382 36.31 6.25503 37.4728 6.15392 39.2284C6.0549 40.9414 7.30674 42.2931 9.11518 42.3586C12.7571 42.4904 16.4011 42.5932 20.069 42.7084C23.7255 42.5942 27.4028 42.4914 31.0802 42.3575C32.9011 42.2911 34.1331 40.9269 34.0279 39.164C33.9278 37.4946 32.5071 36.3069 30.756 36.3931Z" fill="#282828"/>
<path id="Vector_3" d="M19.5464 9.90835C19.5495 10.6424 19.9217 11.0701 20.521 11.0556C21.1037 11.0421 21.4497 10.6309 21.4507 9.91457C21.4549 6.98997 21.4549 4.06641 21.4507 1.14181C21.4497 0.39638 21.088 -0.0126702 20.4762 -0.000211835C19.8862 0.0122465 19.5495 0.412991 19.5464 1.13558C19.5402 2.58905 19.5443 4.04253 19.5443 5.49601C19.5443 6.96713 19.5412 8.43722 19.5464 9.90835Z" fill="#282828"/>
<path id="Vector_4" d="M30.8443 15.9311C31.1987 15.7359 31.4759 15.6321 31.6927 15.4545C32.388 14.8835 33.0603 14.2855 33.7419 13.6989C34.6863 12.886 35.6369 12.0814 36.5719 11.2581C37.1545 10.7453 37.0805 9.9199 36.4353 9.62402C35.9902 9.42053 35.6035 9.55342 35.2439 9.86695C34.0442 10.9124 32.8341 11.9475 31.6281 12.9867C31.182 13.3709 30.7307 13.7477 30.2939 14.1423C29.9625 14.4423 29.853 14.8534 30.0677 15.223C30.2293 15.5013 30.5597 15.6819 30.8453 15.9321L30.8443 15.9311Z" fill="#282828"/>
<path id="Vector_5" d="M4.46283 11.2912C4.98087 11.749 5.50933 12.1965 6.03466 12.6481C7.14891 13.6074 8.26525 14.5657 9.37846 15.526C9.71304 15.8146 10.1175 15.9257 10.4792 15.6942C10.7502 15.5198 10.918 15.1844 11.1681 14.8751C10.9315 14.5293 10.8064 14.2345 10.5886 14.0445C8.97507 12.6305 7.34591 11.2341 5.71467 9.83979C5.22686 9.42244 4.64211 9.43282 4.27521 9.83668C3.89268 10.2561 3.96356 10.85 4.46283 11.2912Z" fill="#282828"/>
<path id="Vector_6" d="M7.59567 26.4531C7.58733 25.8852 7.18499 25.5302 6.51373 25.5281C4.71051 25.5219 2.90832 25.5219 1.10509 25.5281C0.421323 25.5302 -0.0112432 25.9164 0.000222462 26.4916C0.0106457 27.048 0.426535 27.4093 1.09258 27.4156C1.9942 27.4239 2.89581 27.4176 3.79743 27.4176C4.69904 27.4176 5.60065 27.4228 6.50227 27.4156C7.20063 27.4104 7.60714 27.046 7.59776 26.4531H7.59567Z" fill="#282828"/>
<path id="Vector_7" d="M39.9201 25.528C38.1002 25.5218 36.2792 25.5208 34.4593 25.528C33.7985 25.5311 33.3982 25.9049 33.4024 26.478C33.4065 27.05 33.8037 27.4072 34.4728 27.4144C35.3745 27.4238 36.2761 27.4165 37.1777 27.4165C38.096 27.4165 39.0153 27.4238 39.9336 27.4134C40.5892 27.4061 41.0051 27.0251 40.9989 26.4645C40.9926 25.9049 40.5757 25.5301 39.919 25.528H39.9201Z" fill="#282828"/>
<path id="Vector_8" d="M26.1857 12.3025C26.6266 12.2828 26.9341 12.0689 27.1175 11.6702C27.8169 10.1482 28.5246 8.62934 29.2157 7.10319C29.5003 6.47404 29.3168 5.93729 28.7758 5.70785C28.2536 5.48671 27.7554 5.70577 27.474 6.30377C27.0914 7.11668 26.7235 7.93582 26.3472 8.75184C26.0147 9.47339 25.6645 10.1866 25.3539 10.9175C25.0641 11.5996 25.4894 12.2817 26.1857 12.3035V12.3025Z" fill="#282828"/>
<path id="Vector_9" d="M13.9156 11.7163C14.172 12.2624 14.7171 12.4399 15.2195 12.198C15.6875 11.9727 15.8866 11.4453 15.6479 10.9158C14.9391 9.34089 14.2293 7.76595 13.4684 6.21696C13.3246 5.92419 12.9441 5.74665 12.7971 5.62207C11.8778 5.64595 11.4484 6.32182 11.7538 7.0091C12.4542 8.58716 13.1807 10.1548 13.9156 11.7173V11.7163Z" fill="#282828"/>
<path id="Vector_10" d="M32.7037 20.0922C32.7819 20.5573 33.1749 20.8729 33.6658 20.8657C33.7179 20.8626 33.7711 20.8646 33.8211 20.8511C35.5754 20.3694 37.3348 19.9022 39.0818 19.3935C39.5675 19.2523 39.777 18.7239 39.6363 18.2515C39.4987 17.7864 39.0359 17.4946 38.5418 17.5912C38.2198 17.6545 37.906 17.7615 37.5881 17.8487C36.2008 18.2297 34.8103 18.6024 33.4261 18.9959C32.8789 19.1506 32.6172 19.5783 32.7037 20.0933V20.0922Z" fill="#282828"/>
<path id="Vector_11" d="M2.21435 19.4993C3.70071 19.9125 5.18811 20.3205 6.67656 20.7285C6.87669 20.7835 7.07994 20.8282 7.20815 20.8593C7.80227 20.8915 8.21921 20.5738 8.29842 20.0921C8.38285 19.5782 8.11914 19.1494 7.574 18.9957C5.95527 18.5389 4.3334 18.0956 2.7105 17.6544C2.0382 17.4717 1.52641 17.7063 1.36485 18.2545C1.19495 18.8265 1.51807 19.3062 2.21539 19.5003L2.21435 19.4993Z" fill="#282828"/>
</g>
<defs>
<clipPath id="clip0_2168_8390">
<rect width="41" height="42.7083" fill="white"/>
</clipPath>
</defs>
</svg>
