<?xml version="1.0" encoding="utf-8"?>
<!-- Generator: Adobe Illustrator 27.3.1, SVG Export Plug-In . SVG Version: 6.00 Build 0)  -->
<svg version="1.1" id="Layer_1" xmlns="http://www.w3.org/2000/svg" xmlns:xlink="http://www.w3.org/1999/xlink" x="0px" y="0px"
	 viewBox="0 0 400 400" style="enable-background:new 0 0 400 400;" xml:space="preserve">
<style type="text/css">
	.st0{fill:#0E698D;}
</style>
<g>
	<path class="st0" d="M393.2,218.5c-1-15.2-3.5-30.1-8-44.7c-10.5-33.5-28.5-62.4-54.5-86c-39.1-35.4-85.1-52.6-138-50.9
		c-17.8,0.6-35.2,3.7-52.2,9.3c-40.5,13.3-73.4,37.3-98.2,72c-21,29.3-32.7,62-35.4,98.1c-1.6,21,0.5,41.5,5.6,61.8
		c4.1,16.3,10.7,31.6,18.7,46.3c1.6,3,4,5.8,6.7,7.9c8.7,6.6,18,5.3,27,0.6c9.9-5.2,19.5-10.9,29.3-16.2c3.9-2.1,5.6-6,3.6-10
		c-1.8-3.6-3.9-7.2-6.2-10.6c-2.4-3.7-6.2-4.6-10.2-2.6c-3.7,1.9-7.4,4.2-11,6.2c-0.5,0.3-1.1,0.5-1.8,0.8
		C54.1,274.7,49,247.1,51,218.1c1.2-18,5.9-35.1,13.6-51.6c3.9,2.3,7.5,4.4,11.1,6.6c3.9,2.3,7.8,1.8,10.3-2
		c2.3-3.5,4.2-7.2,6.2-10.8c1.4-2.5,1-4.9-0.6-7c-1.1-1.4-2.5-2.7-4-3.6c-2.7-1.8-5.5-3.3-8.3-4.9c-1.1-0.6-1.5-1.1-0.6-2.3
		c7.9-10.8,17.1-20.4,27.5-28.7C126.8,97.2,150.3,87,176.5,83c3.2-0.5,6.4-0.8,9.9-1.2c0.1,1.2,0.1,2,0.1,2.8c0,5.8,0,11.5,0,17.3
		c0,4,2.4,7.7,5.9,8c5.1,0.4,10.2,0.5,15.3-0.1c4-0.4,6-3.8,6-8.7c0.1-5.7,0-11.4-0.1-17.1c0-1.6,0.1-2.5,2.1-2.1
		c4.7,0.9,9.4,1.3,14,2.2c32.3,6.6,59.4,22.4,81.6,46.6c3.6,4,6.9,8.3,10.5,12.7c-1.1,0.8-1.9,1.5-2.8,2c-3.2,1.9-6.5,3.7-9.7,5.5
		c-3.7,2.1-5.1,5.9-3.2,9.6c2,3.9,4.2,7.7,6.5,11.4c1.8,2.8,4.6,3.8,7.8,3c1.6-0.4,3.1-1.2,4.5-2c3.4-2,6.8-4.2,10.3-6.4
		c0.2,0.3,0.3,0.4,0.4,0.6c0.5,1.1,0.9,2.1,1.4,3.2c11.4,26.1,15,53.3,10.4,81.5c-2.7,16.5-8.3,32-15.8,46.8c-0.8,1.6-1.6,1.7-3,0.8
		c-3.6-2.1-7.3-4.1-10.9-6c-3.9-2.1-7.9-1.1-10.2,2.7c-1.7,2.7-3.2,5.5-4.7,8.4c-3,5.9-1.8,9.6,3.9,12.9c7.8,4.5,15.7,8.7,23.3,13.4
		c5.2,3.2,10.5,4.9,16.7,4.9c5.4,0,10.1-1.4,14.3-4.5c4-2.9,7.1-6.5,9.2-10.9c3.1-6.5,6.2-13,8.9-19.7
		C389.9,274.4,395,247,393.2,218.5z"/>
	<path class="st0" d="M199.2,259c6.9,0.1,14.1-2.7,19.2-7.2c1-0.8,2.4-1.5,3.6-1.6c12.1-1,24.2-1.8,36.2-2.8
		c18.4-1.5,36.8-3.1,55.2-4.7c4.3-0.4,8.6-0.8,12.8-1.8c5.2-1.3,8.3-5.6,7.9-9.9c-0.7-6.4-5.3-10.9-11.8-11.5
		c-5.8-0.5-11.6-1-17.4-1.6c-10-1-20-2.2-30-3.2c-17.3-1.8-34.7-3.5-52-5.3c-1.6-0.2-3.3-1-4.6-2.1c-7.5-6.4-16.2-8.7-25.7-6.4
		c-15.3,3.6-24.5,18.1-22.4,32.8C172.6,250.4,187.3,259.5,199.2,259z"/>
	<path class="st0" d="M256.7,326.9c-2.7-5.4-7.4-7.9-13.6-7.9c-14.7,0-29.5,0-44.2,0c-14.7,0-29.4,0-44,0c-8.2,0-14.3,5.8-14.6,14
		c-0.2,5.1-0.1,10.2-0.1,15.3c0,4.7,2.1,8.3,5.5,11.5c3.2,3,7.2,3.4,11.2,3.4c15.3,0,30.7,0,46,0c13.4,0,26.7,0,40.1,0
		c8.9,0,15-5.8,15.4-14.7c0.2-4.6,0.3-9.2,0.1-13.8C258.3,332,257.8,329.2,256.7,326.9z"/>
</g>
</svg>
