<?xml version="1.0" encoding="utf-8"?>
<!-- Generator: Adobe Illustrator 27.3.1, SVG Export Plug-In . SVG Version: 6.00 Build 0)  -->
<svg version="1.1" id="Layer_1" xmlns="http://www.w3.org/2000/svg" xmlns:xlink="http://www.w3.org/1999/xlink" x="0px" y="0px"
	 viewBox="0 0 500 500" style="enable-background:new 0 0 500 500;" xml:space="preserve">
<g>
	<path d="M35.5,408c0-105,0-210.1,0-315.1c0.7-4.8,1.2-9.6,2-14.3c6.7-41.4,44.6-74,86.5-74.1c84.2-0.1,168.4-0.1,252.6,0.1
		c6.5,0,13.1,1,19.4,2.6c36.8,8.9,68.8,43,68.5,90.2c-0.4,69-0.2,137.9-0.1,206.9c0.1,32.4-10,61.2-31.3,85.7
		c-19.1,22-38.1,44-57.9,65.3c-24.4,26.2-54.9,39.9-90.8,40.1c-53.2,0.3-106.4,0.3-159.6,0c-40-0.2-74.6-27-85.4-65.6
		C37.5,422.7,36.8,415.2,35.5,408z M297.2,464.2c0.1-1.5,0.2-2.3,0.2-3.2c0.7-32.6,1.5-65.1,2.1-97.7c0.4-19.6,13-36.9,32.1-41.6
		c8.6-2.1,17.8-2,26.7-2.1c24.9-0.3,49.8-0.1,75.3-0.1c0.3-4.7,1-9.8,1-14.9c0.1-69.3,0.1-138.6,0-207.9c0-35.7-25.9-62.5-61.5-62.7
		c-81.9-0.3-163.9-0.3-245.9,0c-34.8,0.1-61.6,26.7-61.6,60.5c-0.1,103.6-0.1,207.2,0,310.8c0,25.7,16.5,48.3,40.8,56.9
		c10,3.6,20.3,3.4,30.7,3.3c50.4-0.2,100.8-0.3,151.2-0.5C291.5,465.1,294.3,464.5,297.2,464.2z M327.7,454.2
		c11.3-5.7,20.1-13,27.9-21.7c18.6-21,37.3-41.9,55.7-63.2c4.9-5.7,8.7-12.2,13.9-19.5c-3.6,0-5.5,0-7.3,0
		c-23.4,0-46.8,0.4-70.2-0.2c-12.4-0.3-18.5,5.8-18.6,18c-0.2,23.7-0.9,47.5-1.3,71.2C327.6,443.6,327.7,448.5,327.7,454.2z"/>
	<path d="M249.6,181.3c-30.8,0-61.6,0-92.5,0c-7.9,0-13.7-4.7-15.4-12.1c-1.4-6.3,2.1-13.6,8.4-16.2c2.6-1.1,5.7-1.7,8.5-1.7
		c60.8-0.1,121.6-0.1,182.3-0.1c7.1,0,13.1,2.3,15.9,9.3c2.3,5.7,2,11.7-2.9,15.7c-3.2,2.6-7.9,4.7-12,4.8
		C311.3,181.5,280.5,181.3,249.6,181.3z"/>
	<path d="M249.6,246.9c-31,0-62,0-93,0c-7.5,0-13.2-4.8-14.9-12c-1.4-6.3,2.1-13.5,8.4-16.2c2.5-1,5.3-1.5,8-1.5
		c61.1-0.1,122.2-0.1,183.3,0c9,0,15.3,4.8,16.3,12.1c1.2,8.1-2.7,14.7-10.2,17c-2.1,0.6-4.4,0.7-6.6,0.7
		C310.6,246.9,280.1,246.9,249.6,246.9z"/>
	<path d="M195.5,312.4c-12.6,0-25.3,0-37.9,0c-9.3,0-16-6.2-16.1-14.6c-0.1-8.3,6.1-15,15.2-15c26.1-0.2,52.2-0.2,78.4,0
		c9,0.1,15.4,6.7,15.3,15c-0.1,8.6-6.7,14.7-16,14.8C221.5,312.4,208.5,312.4,195.5,312.4z"/>
</g>
</svg>
