<?xml version="1.0" encoding="utf-8"?>
<!-- Generator: Adobe Illustrator 27.3.1, SVG Export Plug-In . SVG Version: 6.00 Build 0)  -->
<svg version="1.1" id="Layer_1" xmlns="http://www.w3.org/2000/svg" xmlns:xlink="http://www.w3.org/1999/xlink" x="0px" y="0px"
	 viewBox="0 0 100 100" style="enable-background:new 0 0 100 100;" xml:space="preserve">
<path d="M13.1,43.7c-6.2-6.3-4.4-14.1,0-18.2c4.8-4.4,12-4.3,16.8,0.2c4.4,4.2,5.8,11.8-0.2,18c2.7,0.9,5,2.4,6.9,4.6
	c1.2-0.4,2.4-0.8,3.6-1.2c-9-7.7-6.8-18.8-0.8-24.2c6.4-5.7,16-5.4,21.9,0.7c6,6.3,6.4,16.6-1.6,23.4c1.2,0.4,2.4,0.8,3.6,1.3
	c1.8-2.1,4.1-3.7,7-4.6c-3-2.9-4.4-6.4-4-10.5c0.3-3.1,1.8-5.8,4.1-7.9c4.8-4.3,11.9-4.2,16.6,0.3c4.3,4.1,6,11.8-0.1,18
	c3.1,1,5.6,2.8,7.5,5.4c1.8,2.5,2.7,5.3,2.8,8.4c0,2,0,4.1,0,6.1c0,1-0.4,1.6-1.3,2.1c-3.6,1.8-7.4,3.1-11.4,3.7
	c-0.6,0.1-1.4,0.1-1.8-0.2c-0.5-0.4-0.9-1.2-0.9-1.8c-0.1-0.9,0.7-1.4,1.6-1.6c1.3-0.3,2.6-0.4,3.8-0.8c1.8-0.6,3.6-1.3,5.4-2
	c0.3-0.1,0.8-0.6,0.8-0.9c0-2.2,0.1-4.3-0.2-6.5c-0.8-5-5-8.7-10.1-8.8c-3.5-0.1-6.9-0.1-10.4,0.1c-2.4,0.1-4.4,1.4-5.9,2.9
	c1.1,1.2,2.1,2.2,3.1,3.4c3,3.7,4.4,7.9,4.3,12.7c0,2.3,0,4.6,0,7c0,1.2-0.3,1.9-1.4,2.4c-15.3,7.6-30.6,7.5-45.8-0.1
	c-0.6-0.3-1.2-1.2-1.3-1.8c-0.1-3.2-0.1-6.4,0.1-9.5c0.3-5.4,2.7-9.8,6.9-13.3c0.2-0.1,0.3-0.3,0.6-0.5c-2-2.1-4.4-3.2-7.1-3.3
	c-3.2-0.1-6.4-0.1-9.6,0c-5.5,0.2-9.9,4.8-10,10.3c0,1.5,0,3.1,0,4.6c0,0.7,0.2,1,0.8,1.2c3,0.9,5.9,1.8,8.9,2.6
	c0.8,0.2,1.7,0.5,1.8,1.4c0.1,0.6-0.2,1.5-0.6,2c-0.3,0.4-1.2,0.5-1.7,0.4c-4.2-0.6-8.2-2-11.9-3.9c-0.5-0.2-1-0.9-1-1.4
	c-0.1-2.7-0.2-5.5,0.1-8.1c0.7-5.8,4-9.8,9.4-11.9C12.6,44,12.8,43.9,13.1,43.7z M50,50.2C50,50.3,50,50.2,50,50.2
	c-2,0-3.9,0.2-5.9,0.2c-6.8,0.1-13,5.1-14.1,11.8c-0.5,3.2-0.3,6.5-0.4,9.7c0,0.3,0.4,0.7,0.8,0.9c13,6,26.1,6,39.2,0.1
	c0.7-0.3,0.9-0.7,0.9-1.4c-0.1-2.1-0.1-4.2-0.1-6.4c0-6.8-4.7-12.8-11.3-14.2C56.1,50.3,53,50.5,50,50.2z M62.1,34.6
	c0-6.5-5.5-12-12-12.1c-6.5,0-12.1,5.5-12.1,12c0,6.6,5.5,12.1,12.1,12.1C56.6,46.7,62.1,41.2,62.1,34.6z M21.4,43.1
	c4.7,0,8.6-3.8,8.5-8.5c0-4.6-3.9-8.5-8.5-8.5c-4.7,0-8.6,3.8-8.6,8.5C12.9,39.3,16.7,43.1,21.4,43.1z M78.5,43.1
	c4.8,0,8.6-3.7,8.6-8.4c0-4.7-3.8-8.6-8.5-8.6c-4.7,0-8.6,3.8-8.6,8.5C70.1,39.3,73.9,43.1,78.5,43.1z"/>
</svg>
