<?xml version="1.0" encoding="utf-8"?>
<!-- Generator: Adobe Illustrator 27.3.1, SVG Export Plug-In . SVG Version: 6.00 Build 0)  -->
<svg version="1.1" id="Layer_1" xmlns="http://www.w3.org/2000/svg" xmlns:xlink="http://www.w3.org/1999/xlink" x="0px" y="0px"
	 viewBox="0 0 100 100" style="enable-background:new 0 0 100 100;" xml:space="preserve">
<style type="text/css">
	.st0{fill:#FFFFFF;}
	.st1{stroke:#000000;stroke-miterlimit:10;}
</style>
<g>
	<g>
		<g>
			<path d="M96.5,36.2L96.5,36.2c-2.4-2.6-5.2-5.4-9.1-9.2c-0.7-0.7-1.6-0.7-2.4,0l-0.9,0.8c-3.4,2.9-8.6,2.5-11.6-0.9
				c-2.9-3.3-2.8-8.3,0.4-11.5c1-1.1,0.9-1.9-0.2-3l-0.5-0.5c-0.9-0.9-1.8-1.9-2.7-2.8c-0.9-0.9-1.8-1.8-2.6-2.8l-2.6-2.5
				c-0.4-0.5-0.8-0.7-1.1-0.8C62.7,2.9,62.2,2.8,61,4L29.8,35.2c0,0-26.1,26.2-26.3,26.6c0,0-0.5,0.7-0.5,0.8c0,0.1,0,0.3,0,0.3
				C3,63.1,4,64.5,4.4,64.8c0.2,0.2,0.3,0.4,0.5,0.5c1,1.1,2,2.1,3.1,3.2c0.6,0.5,1.1,1.1,1.7,1.6c0.3,0.3,0.6,0.6,0.9,0.9l1.3,1.3
				c0.5,0.7,1.2,1,1.9,1.2c0.3,0,1.1-0.1,2-1c2.1-2,4.9-2.7,7.9-1.9c2.8,0.7,5,3,5.8,5.9c0.8,2.6,0.2,5.2-1.5,7.4l-0.4,0.3l-0.4,0.5
				c-0.9,1-0.9,1.8,0.1,2.7l5.2,5.2c0.3,0.3,0.6,0.6,0.9,0.9c0.6,0.6,1.1,1.2,1.7,1.7l0.3,0.3c0.3,0.4,0.7,0.7,1,0.8l0.1,0.1
				l0.5,0.4h0.2l0.1,0.1h0.3c0,0,0.1,0,0.1,0c0.1,0,0.1-0.1,0.2-0.1c0,0,0.1,0,0.1-0.1c0.3-0.2,0.6-0.4,0.8-0.6
				c0.3-0.2,0.6-0.5,0.9-0.6c15.5-15.6,31.5-31.7,47.7-47.8L96,39c0.1-0.1,0.2-0.1,0.2-0.2c0-0.1,0.1-0.1,0.1-0.2
				C97.2,37.8,97.3,36.9,96.5,36.2z M92.3,37.3L37.1,92.5L34.7,90c-0.7-0.7-1.4-1.5-2-2.2c-1.1-1-1.3-2.3-0.6-3.7
				c1.7-3.7,1.7-7.3,0-10.9c-2.9-5.8-10.2-8.2-16-5.4c-1.6,0.8-2.5,1.1-4.3-0.7c-0.3-0.3-0.7-0.7-1-1l-3.3-3.3L62.9,7.6l2.3,2.4
				c0.8,0.7,1.6,1.6,2.4,2.5c1.1,1.2,0.6,3,0.2,3.6c-1.6,3.6-1.6,7.1,0.1,10.6c1.3,2.9,3.8,5,6.9,5.9c3.1,1.1,6.3,0.9,9.1-0.5
				c1.6-0.8,3.3-0.5,4.5,0.8c0.5,0.6,2.6,2.5,2.6,2.5l1.7,1.6L92.3,37.3z"/>
		</g>
	</g>
	<g>
		<g>
			<path d="M56.3,39.3c-0.2,0.2-0.4,0.4-0.6,0.7L42,53.8c-0.8,0.8-1.6,1.1-2.5,1c-0.6,0-1.2-0.3-1.8-1c-0.8-0.9-0.8-2.4,0-3.2
				L52,36.2c0.8-0.8,1.4-1.2,2.1-1.2h0.1c1.2,0.1,1.9,0.5,2.4,1.4C57,37.4,56.9,38.3,56.3,39.3z"/>
		</g>
	</g>
	<g>
		<g>
			<path d="M58.2,57.8L58.2,57.8c-1.9,2.1-4.1,4.3-6.7,6.7c-0.2,0.2-0.7,0.4-1.2,0.6c0,0-0.1,0-0.2,0.1c-0.1,0-0.1,0-0.2,0.1
				c-1.2-0.3-1.9-0.8-2.3-1.7c-0.5-1.1-0.4-2,0.2-2.8c2.3-2.5,4.5-4.7,6.8-6.8c0.5-0.5,1.1-0.5,1.5-0.5c0.7,0,1.4,0.3,1.9,0.7
				C59.1,55.3,59.1,56.8,58.2,57.8z"/>
		</g>
	</g>
</g>
<g>
	<circle class="st0" cx="81.2" cy="55.3" r="15.1"/>
	<g>
		<g>
			<g>
				<path class="st1" d="M90.3,46.2c-1.2-1.2-2.6-2.2-4.2-2.8c-1.5-0.6-3.2-1-4.9-1h0c-7.1,0-12.9,5.8-12.9,12.9
					c0,3.4,1.4,6.7,3.8,9.1c2.4,2.4,5.7,3.8,9.1,3.8h0c7.1,0,12.9-5.8,12.9-12.9C94.1,51.9,92.7,48.6,90.3,46.2z M81.2,66.7
					L81.2,66.7c-3,0-5.9-1.2-8-3.3c-2.2-2.2-3.3-5-3.3-8C69.9,49,75,44,81.2,44h0c6.2,0,11.3,5.1,11.3,11.3
					C92.5,61.6,87.5,66.6,81.2,66.7z"/>
			</g>
		</g>
		<path d="M89.7,54.6c-0.2-0.2-0.5-0.3-0.8-0.3c-1.4,0-2.8,0-4.2,0h-2.4V49c0-0.5,0-1,0-1.5c0-0.6-0.4-1-1-1h0c-0.5,0-0.9,0.4-1,1
			c0,0.1,0,0.3,0,0.4v5.5c0,0.1,0,0.3,0,0.4c0,0.1,0,0.2,0,0.2l0,0.1h-6.2c-0.2,0-0.5,0-0.7,0.1c-0.5,0.1-0.7,0.5-0.7,0.9
			c0,0.5,0.2,0.9,0.8,1c0.2,0,0.5,0,0.7,0h0c1.8,0,3.7,0,5.5,0c0.2,0,0.3,0,0.4,0c0.1,0,0.2,0,0.2,0l0.1,0v2.4c0,1.3,0,2.7,0,4
			c0,0.7,0.4,1.2,1,1.2c0.3,0,0.5-0.1,0.7-0.2c0.2-0.2,0.3-0.6,0.3-1c0-0.9,0-1.9,0-2.8c0-0.4,0-0.8,0-1.2v-2.5h6.2
			c0.1,0,0.2,0,0.4,0c0.6,0,1.1-0.4,1.1-1C89.9,55.1,89.8,54.8,89.7,54.6z"/>
	</g>
</g>
</svg>
