<?xml version="1.0" encoding="utf-8"?>
<!-- Generator: Adobe Illustrator 27.3.1, SVG Export Plug-In . SVG Version: 6.00 Build 0)  -->
<svg version="1.1" id="Layer_1" xmlns="http://www.w3.org/2000/svg" xmlns:xlink="http://www.w3.org/1999/xlink" x="0px" y="0px"
	 viewBox="0 0 100 100" style="enable-background:new 0 0 100 100;" xml:space="preserve">
<g>
	<g>
		<path d="M96.9,35.8c-2.6-2.8-5.6-5.8-9.1-9.2c-0.9-0.9-2.1-0.9-3.1,0l-0.9,0.8c-3.2,2.7-8.1,2.3-10.9-0.9
			c-2.8-3.1-2.6-7.8,0.4-10.8c1.2-1.3,1.1-2.4-0.2-3.7l-0.5-0.5C70.8,9.6,69,7.8,67.3,6l-2.6-2.5c-0.4-0.5-0.9-0.8-1.3-0.9
			c-0.7-0.3-1.5-0.3-2.8,1L29.4,34.9C21,43.3,12.6,51.7,4.1,60.2C3.8,60.6,3.4,61,3,61.6l-0.1,0.3c-0.2,0.2-0.3,0.4-0.5,0.5v0.7
			c0.2,0.3,0.3,0.5,0.5,0.6c0.5,0.9,1.1,1.4,1.6,2c1,1.1,2,2.1,3.1,3.2c0.9,0.8,1.6,1.6,2.5,2.5l1.3,1.3c0.7,0.9,1.5,1.2,2.2,1.3
			c0.7,0,1.6-0.3,2.4-1.1c2-1.9,4.7-2.5,7.4-1.8c2.6,0.7,4.7,2.8,5.5,5.6c0.7,2.4,0.2,4.9-1.4,7c-0.1,0.1-0.2,0.2-0.3,0.3l-0.4,0.5
			c-1.1,1.2-1,2.3,0.1,3.4l5.2,5.2c0.9,0.9,1.7,1.8,2.6,2.6l0.3,0.3c0.3,0.4,0.7,0.7,1.1,0.9l0.5,0.4c0,0,0.1,0.1,0.3,0.1
			c0.1,0.1,0.1,0.1,0.1,0.1h0.7c0.1,0,0.1-0.1,0.2-0.1c0.1-0.1,0.3-0.2,0.4-0.3c0.6-0.4,1.2-0.9,1.7-1.2C55.8,80,71.7,64,87.7,48.1
			l8.6-8.7c0.3-0.2,0.3-0.3,0.4-0.4C97.8,37.9,97.8,36.7,96.9,35.8z M37.1,91.8L35,89.7c-0.7-0.7-1.4-1.5-2-2.2
			c-1-0.9-1.1-2-0.5-3.1c1.8-3.9,1.8-7.6,0-11.4c-3-6-10.6-8.6-16.7-5.6c-1.4,0.7-2.6,0.5-3.7-0.6c-0.3-0.3-0.7-0.7-1.1-1
			c-0.3-0.3-0.6-0.6-0.9-0.9l-2-2L62.9,8.3l2,2c0.8,0.7,1.6,1.6,2.4,2.5c0.9,1,0.4,2.6,0.1,3c-1.7,3.7-1.7,7.4,0.1,11.1
			c1.4,3,4,5.2,7.2,6.2c3.2,1.1,6.6,0.9,9.5-0.5c1.4-0.7,2.8-0.5,3.9,0.7c0.5,0.7,1.1,1.2,1.7,1.8c0.3,0.3,0.5,0.5,0.9,0.7l1.3,1.2
			L37.1,91.8z"/>
	</g>
	<g>
		<path d="M56.7,39.6c-0.2,0.2-0.4,0.4-0.6,0.7l-2.2,2.2c-3.8,3.8-7.7,7.7-11.6,11.6c-0.8,0.8-1.8,1.3-2.8,1.2
			c-0.9,0-1.6-0.5-2.2-1.2c-0.9-1.1-0.9-2.8,0-3.9c0.2-0.2,0.4-0.4,0.6-0.6l4.9-4.9c2.9-2.9,5.9-5.9,8.8-8.8
			c0.9-0.9,1.6-1.3,2.5-1.3h0.1c1.3,0.1,2.2,0.6,2.8,1.7C57.5,37.4,57.4,38.5,56.7,39.6z"/>
	</g>
	<g>
		<path d="M58.6,58.1c-1.9,2.1-4.1,4.3-6.7,6.7c-0.3,0.3-0.8,0.5-1.3,0.7c-0.2,0.1-0.4,0.1-0.6,0.2c-1.4-0.3-2.3-0.9-2.8-2
			c-0.4-0.9-0.7-2.2,0.3-3.3c2.3-2.5,4.5-4.7,6.8-6.8c0.5-0.5,1.2-0.7,1.9-0.7c0.8,0,1.6,0.3,2.3,0.9C59.6,55.1,59.7,57,58.6,58.1z"
			/>
	</g>
</g>
</svg>
