<?xml version="1.0" encoding="utf-8"?>
<!-- Generator: Adobe Illustrator 27.3.1, SVG Export Plug-In . SVG Version: 6.00 Build 0)  -->
<svg version="1.1" id="Layer_1" xmlns="http://www.w3.org/2000/svg" xmlns:xlink="http://www.w3.org/1999/xlink" x="0px" y="0px"
	 viewBox="0 0 100 100" style="enable-background:new 0 0 100 100;" xml:space="preserve">
<style type="text/css">
	.st0{fill:#BF4D41;}
</style>
<g>
	<g>
		<path class="st0" d="M22.1,9.3c-0.6,0-1.2,0-1.7,0c-2.2-0.1-3.9-1.8-3.9-3.9c0-2.2,1.7-3.9,3.9-4c0.4,0,0.9,0,1.3,0
			c19.1,0,38.2,0,57.3,0c3,0,4.9,2.4,4.1,5c-0.5,1.6-1.9,2.7-3.7,2.8c-0.5,0-1,0-1.7,0c0,0.4,0,0.8,0,1.2c0,3.3,0.1,6.5-0.1,9.8
			c-0.4,8.4-4.1,15.4-10.3,21c-2.1,1.9-4.5,3.5-6.9,5c-2.9,1.8-2.9,4.6,0,6.3c6.8,3.9,12,9.2,15,16.5c1.5,3.5,2.2,7.1,2.2,10.9
			c0,2.8,0,5.6,0,8.4c0,0.3,0,0.7,0,1.2c0.5,0,1,0,1.5,0c2.4,0.1,4.1,1.7,4.1,3.9c0,2.3-1.7,4-4.1,4c-19.5,0-39,0-58.5,0
			c-2.4,0-4.2-1.7-4.2-3.9c0-2.3,1.7-3.9,4.2-3.9c0.4,0,0.8,0,1.4,0c0-0.4,0-0.8,0-1.2c0-3.4-0.1-6.8,0.1-10.1
			c0.4-8.1,3.9-14.8,9.8-20.3c2.2-2,4.7-3.8,7.3-5.4c2.9-1.9,3-4.5,0-6.3c-5.5-3.2-10-7.3-13.2-12.9c-2.6-4.5-3.9-9.4-4-14.7
			C22.1,15.5,22.1,12.5,22.1,9.3z M73.2,89.4c0-3.1,0-6.1,0-9.1c0.1-5.7-1.7-10.7-5-15.2c-2.7-3.6-6.1-6.4-10-8.7
			c-2.8-1.6-4.4-3.9-4.4-7.1c0-3.3,1.7-5.5,4.4-7.1c0.7-0.4,1.4-0.8,2-1.2c6.3-4.3,10.8-9.9,12.4-17.5c1-4.6,0.4-9.3,0.5-13.9
			c0-0.1-0.1-0.1-0.1-0.2c-15.4,0-30.7,0-46.2,0c0,0.4,0,0.6-0.1,0.9c0,2.8,0,5.7,0,8.5c0,2.6,0.4,5.2,1.3,7.7
			c2.4,6.9,7,12,13.3,15.4c6.3,3.4,6.3,11.6,0,14.7c-1.9,1-3.7,2.3-5.3,3.8C30.9,65,27.5,70.7,27,77.7c-0.3,3.8-0.1,7.6-0.1,11.5
			c0,0,0.1,0.1,0.1,0.2C42.3,89.4,57.7,89.4,73.2,89.4z"/>
		<path class="st0" d="M50.1,53.3c1.2,2.4,2.9,4.4,5,5.9c0.6,0.4,1.3,0.8,1.9,1.2c7,4.1,11,9.7,12.9,17.9c0.8,3.3,0.5,6.7,0.5,10.1
			c-14.4,0-25.8,0-40.1,0c0-2.2-0.1-4.4,0-6.6c0.7-9.4,4.1-15.9,11.8-20.8c2.2-1.4,4.4-2.7,6-4.8C48.7,55.4,49.3,54.4,50.1,53.3z"/>
	</g>
</g>
</svg>
