<?xml version="1.0" encoding="utf-8"?>
<!-- Generator: Adobe Illustrator 16.0.0, SVG Export Plug-In . SVG Version: 6.00 Build 0)  -->
<!DOCTYPE svg PUBLIC "-//W3C//DTD SVG 1.1//EN" "http://www.w3.org/Graphics/SVG/1.1/DTD/svg11.dtd">
<svg version="1.1" id="Layer_1" xmlns="http://www.w3.org/2000/svg" xmlns:xlink="http://www.w3.org/1999/xlink" x="0px" y="0px"
	 width="669.168px" height="155.844px" viewBox="0 0 669.168 155.844" enable-background="new 0 0 669.168 155.844"
	 xml:space="preserve">
<g>
	<g>
		<g>
			<g>
				<g>
					<g>
						<g>
							<path fill="#231F20" d="M227.34,67.932c-1.188-2.808-2.808-5.184-4.968-7.344s-4.644-3.672-7.56-4.86
								c-2.916-1.188-6.156-1.836-9.612-1.836s-6.588,0.648-9.504,1.836c-2.916,1.188-5.4,2.809-7.56,4.86
								c-2.16,2.052-3.78,4.536-4.969,7.344c-1.188,2.808-1.728,5.724-1.728,8.964c0,3.132,0.54,6.048,1.728,8.856
								c1.188,2.808,2.809,5.184,4.969,7.344c2.159,2.16,4.644,3.672,7.56,4.86c2.916,1.188,6.048,1.836,9.504,1.836
								c2.916,0,5.508-0.433,7.884-1.188s4.536-1.836,6.48-3.24c1.943-1.296,3.456-2.916,4.859-4.644
								c1.297-1.729,2.377-3.564,3.024-5.508h-11.016c-0.973,1.836-2.484,3.24-4.429,4.428c-1.943,1.08-4.104,1.728-6.695,1.728
								c-1.62,0-3.133-0.216-4.645-0.863c-1.512-0.54-2.916-1.296-4.104-2.269c-1.297-0.972-2.269-2.16-3.24-3.672
								c-0.864-1.404-1.512-3.023-1.836-4.752h37.368c0.107-0.432,0.107-0.756,0.107-1.188c0.108-0.433,0.108-0.973,0.108-1.729
								C229.176,73.764,228.528,70.739,227.34,67.932z M191.809,72.575c0.432-1.512,0.972-2.916,1.836-4.212
								c0.863-1.296,1.836-2.376,3.023-3.239c1.188-0.973,2.484-1.62,3.996-2.16s3.132-0.756,4.752-0.756
								c1.729,0,3.24,0.216,4.645,0.756c1.403,0.54,2.699,1.188,3.779,2.16c1.08,0.863,2.053,2.052,2.809,3.239
								c0.756,1.296,1.404,2.7,1.728,4.212H191.809z"/>
							<path fill="#231F20" d="M223.561,41.363v9.072h16.956v48.06h10.476V50.327h17.064v-9.071h-44.496V41.363z"/>
							<path fill="#231F20" d="M287.928,55.296c-3.023,0-5.724,0.54-7.884,1.512c-2.268,0.972-4.104,2.16-5.508,3.672l-0.864-5.184
								h-8.424v43.199h10.26V77.76c0-2.269,0.324-4.212,0.864-5.94c0.648-1.62,1.513-3.132,2.592-4.212
								c1.188-1.08,2.484-1.943,4.104-2.592c1.62-0.54,3.348-0.864,5.4-0.864h5.075v-8.855H287.928z"/>
							<path fill="#231F20" d="M333.504,55.296l-0.54,4.752c-0.863-0.864-1.836-1.62-2.916-2.376
								c-1.079-0.756-2.268-1.404-3.563-1.944s-2.7-0.972-4.104-1.296c-1.403-0.324-3.023-0.54-4.644-0.54
								c-3.456,0-6.588,0.648-9.504,1.836c-2.809,1.188-5.292,2.808-7.344,4.86c-2.053,2.052-3.564,4.536-4.645,7.344
								s-1.62,5.724-1.62,8.964c0,3.132,0.54,6.156,1.729,8.964c1.08,2.809,2.7,5.185,4.752,7.344
								c2.052,2.053,4.428,3.673,7.344,4.86c2.808,1.188,5.94,1.836,9.396,1.836c1.62,0,3.132-0.107,4.644-0.54
								c1.512-0.324,2.809-0.756,4.104-1.296c1.297-0.54,2.484-1.188,3.564-1.944c1.08-0.756,2.052-1.512,2.916-2.376l0.54,4.752
								h8.748V55.296H333.504z M331.452,82.619c-0.756,1.729-1.728,3.24-2.916,4.429c-1.296,1.296-2.7,2.268-4.428,2.916
								c-1.729,0.647-3.456,1.08-5.4,1.08c-1.943,0-3.78-0.324-5.399-1.08c-1.729-0.648-3.133-1.62-4.429-2.916
								c-1.296-1.188-2.268-2.7-3.023-4.429c-0.756-1.728-1.08-3.672-1.08-5.724s0.324-3.996,1.08-5.724
								c0.756-1.729,1.728-3.132,2.916-4.429c1.296-1.296,2.7-2.159,4.428-2.916c1.728-0.647,3.456-1.08,5.4-1.08
								c1.943,0,3.779,0.324,5.399,1.08c1.729,0.648,3.132,1.62,4.428,2.916c1.297,1.188,2.269,2.7,3.024,4.429
								c0.756,1.728,1.08,3.563,1.08,5.616C332.532,78.947,332.101,80.892,331.452,82.619z"/>
							<path fill="#231F20" d="M380.484,55.296l-11.988,29.699h-0.107l-11.881-29.699h-10.907l18.359,43.308h9.288l18.36-43.308
								H380.484L380.484,55.296z"/>
							<path fill="#231F20" d="M436.212,67.932c-1.188-2.808-2.808-5.184-4.968-7.344c-2.16-2.052-4.644-3.672-7.56-4.86
								c-2.916-1.188-6.156-1.836-9.612-1.836s-6.588,0.648-9.504,1.836c-2.916,1.188-5.4,2.809-7.561,4.86
								c-2.159,2.052-3.779,4.536-4.968,7.344c-1.188,2.808-1.728,5.724-1.728,8.964c0,3.132,0.647,6.048,1.728,8.856
								c1.188,2.808,2.809,5.184,4.968,7.344c2.16,2.16,4.645,3.672,7.561,4.86c2.916,1.188,6.156,1.836,9.504,1.836
								c2.808,0,5.508-0.433,7.884-1.188s4.536-1.836,6.48-3.24c1.943-1.296,3.456-2.916,4.859-4.644
								c1.296-1.729,2.376-3.564,3.024-5.508h-11.016c-0.973,1.836-2.484,3.24-4.429,4.428c-1.943,1.08-4.212,1.728-6.696,1.728
								c-1.619,0-3.132-0.216-4.644-0.863c-1.512-0.54-2.916-1.296-4.104-2.269c-1.188-0.972-2.269-2.16-3.133-3.672
								c-0.863-1.404-1.512-3.023-1.836-4.752h37.368c0.108-0.432,0.108-0.756,0.216-1.188c0-0.433,0.108-0.973,0.108-1.729
								C438.048,73.764,437.4,70.739,436.212,67.932z M400.681,72.575c0.432-1.512,0.972-2.916,1.836-4.212
								c0.863-1.296,1.836-2.376,2.916-3.239c1.188-0.973,2.483-1.62,3.996-2.16c1.512-0.54,3.132-0.756,4.752-0.756
								c1.728,0,3.239,0.216,4.644,0.756s2.7,1.188,3.78,2.16c1.08,0.863,2.052,2.052,2.916,3.239
								c0.756,1.296,1.403,2.7,1.728,4.212H400.681z"/>
							<path fill="#231F20" d="M443.664,39.312v59.184h10.26V39.312H443.664z"/>
							<path fill="#231F20" d="M532.116,65.987c-0.756-2.592-1.944-4.859-3.456-6.588c-1.512-1.836-3.456-3.132-5.616-4.104
								c-2.268-0.973-4.752-1.404-7.668-1.404c-1.836,0-3.563,0.216-5.184,0.54s-3.024,0.864-4.428,1.404
								c-1.296,0.647-2.593,1.296-3.673,2.159c-1.08,0.757-2.052,1.62-2.916,2.484c-1.512-2.052-3.455-3.78-5.832-4.86
								c-2.375-1.188-4.968-1.728-7.991-1.728c-2.916,0-5.616,0.54-7.992,1.512c-2.376,1.08-4.32,2.269-5.94,3.78l-0.756-3.996
								h-8.316v43.308h10.261v-23.22c0-1.943,0.216-3.78,0.864-5.292c0.539-1.512,1.296-2.808,2.268-3.888s2.16-1.944,3.563-2.484
								c1.404-0.54,2.916-0.863,4.536-0.863c2.809,0,4.969,0.972,6.588,3.023c1.513,1.944,2.269,5.185,2.269,9.396v23.327h10.26
								V74.628c0-1.836,0.324-3.456,0.864-4.969c0.54-1.512,1.296-2.699,2.376-3.672c0.972-0.972,2.16-1.836,3.456-2.376
								s2.808-0.863,4.428-0.863c2.808,0,4.968,0.972,6.588,3.023c1.512,1.944,2.268,5.185,2.268,9.396v23.327h10.261V74.951
								C533.305,71.604,532.872,68.579,532.116,65.987z"/>
							<path fill="#231F20" d="M577.152,55.296l-0.54,4.752c-0.864-0.864-1.836-1.62-2.916-2.376s-2.269-1.404-3.564-1.944
								s-2.699-0.972-4.104-1.296s-3.024-0.54-4.644-0.54c-3.457,0-6.589,0.648-9.505,1.836c-2.808,1.188-5.292,2.808-7.344,4.86
								c-2.052,2.052-3.563,4.536-4.752,7.344c-1.08,2.808-1.62,5.724-1.62,8.964c0,3.132,0.54,6.156,1.729,8.964
								c1.08,2.809,2.699,5.185,4.752,7.344c2.052,2.053,4.428,3.673,7.344,4.86c2.808,1.188,5.939,1.836,9.396,1.836
								c1.619,0,3.132-0.107,4.644-0.54c1.512-0.324,2.808-0.756,4.104-1.296s2.484-1.188,3.564-1.944
								c1.08-0.756,2.052-1.512,2.916-2.376l0.54,4.752h8.748V55.296H577.152z M575.101,82.619c-0.757,1.729-1.729,3.24-3.024,4.429
								c-1.296,1.296-2.7,2.268-4.428,2.916c-1.729,0.647-3.456,1.08-5.4,1.08c-1.943,0-3.779-0.324-5.399-1.08
								c-1.729-0.648-3.132-1.62-4.429-2.916c-1.296-1.188-2.268-2.7-3.023-4.429c-0.756-1.728-1.08-3.672-1.08-5.724
								s0.324-3.996,1.08-5.724c0.756-1.729,1.728-3.132,2.916-4.429c1.296-1.296,2.7-2.159,4.428-2.916
								c1.729-0.647,3.456-1.08,5.4-1.08c1.943,0,3.779,0.324,5.399,1.08c1.729,0.648,3.132,1.62,4.429,2.916
								c1.296,1.188,2.268,2.7,3.023,4.429c0.756,1.728,1.08,3.563,1.08,5.616C576.181,78.947,575.856,80.892,575.101,82.619z"/>
							<path fill="#231F20" d="M614.412,90.504c-1.08,0-2.052-0.108-2.916-0.433c-0.864-0.216-1.728-0.756-2.376-1.403
								c-0.647-0.648-1.296-1.513-1.62-2.7c-0.432-1.188-0.647-2.592-0.647-4.32V63.936h13.823v-8.64h-13.823V42.983H599.4
								l-3.024,11.232l-7.02,1.943v7.885h7.235v17.819c0,3.456,0.433,6.372,1.297,8.532c0.863,2.16,2.052,3.996,3.563,5.184
								c1.512,1.188,3.24,2.16,5.292,2.593c2.052,0.432,4.212,0.756,6.588,0.756h8.316l0.107-8.424H614.412L614.412,90.504z"/>
							<path fill="#231F20" d="M669.168,67.932c-1.188-2.808-2.808-5.184-4.968-7.344c-2.16-2.052-4.644-3.672-7.56-4.86
								c-2.916-1.188-6.156-1.836-9.612-1.836s-6.588,0.648-9.504,1.836c-2.916,1.188-5.4,2.809-7.561,4.86
								c-2.159,2.052-3.779,4.536-4.968,7.344c-1.188,2.808-1.728,5.724-1.728,8.964c0,3.132,0.54,6.048,1.728,8.856
								c1.188,2.808,2.809,5.184,4.968,7.344c2.16,2.052,4.645,3.672,7.561,4.86c2.916,1.188,6.048,1.836,9.504,1.836
								c2.916,0,5.508-0.433,7.884-1.188s4.536-1.836,6.48-3.24c1.943-1.296,3.456-2.916,4.859-4.644
								c1.296-1.729,2.376-3.564,3.024-5.508H658.26c-0.972,1.836-2.483,3.24-4.428,4.428c-1.943,1.08-4.104,1.728-6.695,1.728
								c-1.62,0-3.133-0.216-4.645-0.863c-1.512-0.54-2.916-1.296-4.104-2.269c-1.297-0.972-2.269-2.16-3.24-3.672
								c-0.864-1.404-1.512-3.023-1.836-4.752h37.368c0.107-0.432,0.107-0.756,0.216-1.188c0.107-0.433,0.107-0.973,0.107-1.729
								C670.896,73.764,670.356,70.739,669.168,67.932z M633.528,72.575c0.432-1.512,0.972-2.916,1.836-4.212
								s1.836-2.376,2.916-3.239c1.188-0.973,2.484-1.62,3.996-2.16s3.132-0.756,4.752-0.756c1.728,0,3.24,0.216,4.644,0.756
								c1.404,0.54,2.7,1.188,3.78,2.16c1.08,0.863,2.052,2.052,2.808,3.239c0.757,1.188,1.404,2.7,1.729,4.212H633.528z"/>
						</g>
					</g>
				</g>
			</g>
			<g>
				<g>
					<g>
						<path fill="#2961A4" d="M455.221,112.968h-2.053l-4.859,11.556h2.268l0.864-2.16h5.292l0.863,2.16h2.269L455.221,112.968z
							 M452.305,120.42l1.836-4.429l0.107-0.323l0.108,0.323l1.836,4.429H452.305z"/>
						<path fill="#2961A4" d="M471.853,112.968v7.884l-6.265-7.884h-1.836v11.556h2.16v-7.884l6.264,7.884h1.836v-11.556H471.853z"
							/>
						<path fill="#2961A4" d="M486.433,112.968l-3.133,5.184l0,0l-3.132-5.184h-2.483l4.536,7.236v4.428h2.159v-4.536l4.536-7.128
							H486.433z"/>
						<path fill="#2961A4" d="M492.156,112.968v1.836h3.456v9.72h2.16v-9.72h3.456v-1.836H492.156z"/>
						<path fill="#2961A4" d="M505.008,112.968v11.556h2.16v-11.556H505.008z"/>
						<path fill="#2961A4" d="M521.856,112.968l-3.996,5.399l-3.996-5.399h-1.836v11.556h2.16v-8.1l3.456,4.644h0.54l3.456-4.644
							v8.1h2.159v-11.556H521.856z"/>
						<path fill="#2961A4" d="M530.82,122.688v-3.023h5.076v-1.837h-5.076v-3.132h5.832v-1.836h-7.884v11.557h7.991v-1.837h-5.939
							V122.688z"/>
						<path fill="#2961A4" d="M541.512,122.796l-0.972,3.563h1.513l1.512-3.563H541.512z"/>
						<path fill="#2961A4" d="M559.765,112.968h-2.053l-4.859,11.556h2.268l0.972-2.16h5.293l0.863,2.16h2.269L559.765,112.968z
							 M556.849,120.42l1.836-4.429l0.107-0.323l0,0l0.108,0.323l1.836,4.429H556.849z"/>
						<path fill="#2961A4" d="M576.396,112.968v7.884l-6.265-7.884h-1.836v11.556h2.16v-7.884l6.265,7.884h1.836v-11.556H576.396z"
							/>
						<path fill="#2961A4" d="M590.977,112.968l-3.133,5.184l0,0l-3.132-5.184h-2.483l4.535,7.236v4.428h2.16v-4.536l4.536-7.128
							H590.977z"/>
						<path fill="#2961A4" d="M611.496,112.968l-2.808,8.532l0,0l-2.376-8.425h-2.269l-2.376,8.425l0,0l-2.808-8.532h-2.269
							l3.996,11.556h2.053l2.592-8.1l2.592,8.1h2.053l3.995-11.556H611.496z"/>
						<path fill="#2961A4" d="M625.428,112.968v4.968h-5.832v-4.968h-2.159v11.556h2.159v-4.859h5.832v4.859h2.16v-11.556H625.428z"
							/>
						<path fill="#2961A4" d="M634.608,122.688v-3.023h5.076v-1.837h-5.076v-3.132h5.832v-1.836h-7.884v11.557h7.992v-1.837h-5.94
							V122.688z"/>
						<path fill="#2961A4" d="M651.672,120.203c0.324-0.107,0.648-0.323,0.973-0.539c0.324-0.217,0.54-0.433,0.756-0.757
							c0.216-0.323,0.324-0.647,0.432-0.972c0.108-0.324,0.217-0.756,0.217-1.188c0-0.539-0.108-1.079-0.324-1.512
							c-0.217-0.432-0.433-0.864-0.864-1.188c-0.324-0.324-0.756-0.54-1.296-0.756c-0.432-0.217-0.973-0.324-1.62-0.324h-4.968
							v11.556h2.16v-3.996h2.483l2.269,3.996h2.376L651.672,120.203z M650.7,118.476c-0.216,0.108-0.54,0.108-0.756,0.108h-2.808
							v-3.889h2.808c0.324,0,0.54,0,0.756,0.108c0.216,0.107,0.433,0.216,0.648,0.432s0.323,0.324,0.432,0.648
							c0.108,0.216,0.108,0.54,0.108,0.756s0,0.54-0.108,0.756s-0.216,0.432-0.432,0.648
							C651.132,118.26,650.916,118.367,650.7,118.476z"/>
						<path fill="#2961A4" d="M660.528,122.688v-3.023h5.076v-1.837h-5.076v-3.132h5.832v-1.836h-7.992v11.557h7.992v-1.837h-5.832
							V122.688z"/>
					</g>
				</g>
				<g>
					<polygon fill="#212058" points="194.832,119.556 187.813,115.56 187.813,123.552 					"/>
					<polygon fill="#252760" points="221.832,119.556 214.272,115.235 214.272,123.983 					"/>
					<polygon fill="#272F6A" points="248.94,119.556 240.732,114.804 240.732,124.308 					"/>
					<polygon fill="#263674" points="276.048,119.556 267.192,114.479 267.192,124.632 					"/>
					<polygon fill="#213F7D" points="303.048,119.556 293.652,114.155 293.652,124.956 					"/>
					<polygon fill="#254987" points="330.156,119.556 320.112,113.832 320.112,125.279 					"/>
					<polygon fill="#285490" points="357.156,119.556 346.681,113.508 346.681,125.604 					"/>
					<polygon fill="#2D5E99" points="384.265,119.556 373.141,113.075 373.141,126.035 					"/>
					<polygon fill="#3069A1" points="411.265,119.556 399.601,112.752 399.601,126.359 					"/>
					<polygon fill="#3473AA" points="438.372,119.556 426.061,112.428 426.061,126.684 					"/>
				</g>
			</g>
		</g>
	</g>
	<g>
		
			<linearGradient id="SVGID_1_" gradientUnits="userSpaceOnUse" x1="-820.25" y1="342.4648" x2="-831.411" y2="342.4648" gradientTransform="matrix(1.08 0 0 -1.08 1008.924 447.7292)">
			<stop  offset="0" style="stop-color:#2F6CB5"/>
			<stop  offset="0.2148" style="stop-color:#2759A2"/>
			<stop  offset="1" style="stop-color:#212058"/>
		</linearGradient>
		<path fill="url(#SVGID_1_)" d="M121.5,75.815c-0.216-0.647-0.54-1.08-0.972-1.62c-0.432-0.432-0.972-0.756-1.62-0.972
			c-0.648-0.324-1.404-0.432-2.16-0.432s-1.512,0.107-2.16,0.432c-0.647,0.216-1.08,0.54-1.512,0.972
			c-0.432,0.433-0.756,0.973-1.08,1.62c-0.216,0.648-0.432,1.296-0.432,2.16c0,0.648,0.107,1.296,0.216,1.729
			c0.216,0.539,0.432,1.079,0.756,1.403c0.108,0.216,0.324,0.433,0.433,0.54l0,0c0.216,0.216,0.323,0.324,0.539,0.54
			c0.433,0.324,0.757,0.54,1.188,0.648v-2.484c-0.216-0.108-0.432-0.216-0.54-0.432l-0.107-0.108
			c-0.108-0.107-0.217-0.324-0.324-0.432c-0.217-0.433-0.324-0.864-0.324-1.513c0-0.323,0.107-0.647,0.216-1.079
			c0.108-0.324,0.324-0.648,0.54-0.864c0.216-0.324,0.54-0.54,0.864-0.756c0.324-0.217,0.647-0.324,1.08-0.433v8.208
			c0.216,0,0.432,0,0.647,0c0.648,0,1.188-0.107,1.729-0.216c0.54-0.216,1.08-0.432,1.404-0.756c0.216-0.216,0.432-0.324,0.647-0.54
			c0.324-0.432,0.647-0.864,0.864-1.404c0-0.107,0.107-0.216,0.107-0.216c0.108-0.432,0.217-0.756,0.217-1.188
			c0-0.217,0-0.433,0-0.648C121.933,77.22,121.824,76.464,121.5,75.815z M120.097,78.624c0,0.107-0.108,0.216-0.108,0.432
			c-0.108,0.324-0.216,0.54-0.432,0.864l0,0c-0.108,0.107-0.324,0.323-0.54,0.432c-0.108,0.108-0.108,0.108-0.216,0.108
			c-0.324,0.216-0.541,0.323-0.973,0.432v-5.94c0.324,0.108,0.648,0.217,0.973,0.433c0.323,0.216,0.539,0.432,0.756,0.647
			c0.216,0.217,0.323,0.54,0.432,0.864s0.216,0.648,0.216,1.08C120.097,78.191,120.097,78.407,120.097,78.624z"/>
		
			<linearGradient id="SVGID_2_" gradientUnits="userSpaceOnUse" x1="-774.3799" y1="342.416" x2="-944.5179" y2="342.416" gradientTransform="matrix(1.08 0 0 -1.08 1008.924 447.7292)">
			<stop  offset="0" style="stop-color:#2F6CB5"/>
			<stop  offset="0.2148" style="stop-color:#2759A2"/>
			<stop  offset="1" style="stop-color:#212058"/>
		</linearGradient>
		<path fill="url(#SVGID_2_)" d="M43.849,76.248c-0.217-0.54-0.433-1.08-0.757-1.404c-0.107-0.216-0.323-0.433-0.432-0.54l0,0
			c-0.216-0.216-0.324-0.324-0.54-0.54c-0.324-0.324-0.756-0.54-1.188-0.648V75.6c0.216,0.108,0.432,0.216,0.54,0.432l0.107,0.108
			c0.108,0.108,0.216,0.324,0.324,0.432c0.216,0.433,0.324,0.864,0.324,1.513c0,0.323-0.108,0.647-0.216,1.079
			c-0.108,0.324-0.324,0.648-0.54,0.973c-0.217,0.324-0.54,0.54-0.864,0.756s-0.648,0.324-1.08,0.432v-8.1c-0.216,0-0.432,0-0.648,0
			c-0.647,0-1.296,0.108-1.728,0.216c-0.54,0.216-1.08,0.433-1.404,0.756c-0.216,0.108-0.432,0.324-0.647,0.54
			c-0.324,0.433-0.648,0.864-0.864,1.404c0,0.108-0.108,0.216-0.108,0.216c-0.107,0.433-0.216,0.756-0.216,1.188
			c0,0.216,0,0.432,0,0.647c0,0.756,0.108,1.513,0.432,2.16c0.217,0.648,0.541,1.08,0.973,1.62c0.432,0.432,0.972,0.756,1.62,0.972
			c0.647,0.324,1.403,0.433,2.159,0.433c0.757,0,1.513-0.108,2.16-0.433c0.648-0.216,1.08-0.54,1.513-0.972
			c0.432-0.432,0.756-0.972,1.08-1.62c0.216-0.647,0.432-1.296,0.432-2.16C44.172,77.327,44.064,76.788,43.849,76.248z M38.017,81
			c-0.324-0.108-0.648-0.217-0.973-0.433c-0.323-0.216-0.54-0.432-0.756-0.647c-0.216-0.217-0.324-0.54-0.432-0.864
			c-0.108-0.324-0.216-0.648-0.216-1.08c0-0.216,0-0.432,0.107-0.648c0-0.107,0.108-0.216,0.108-0.432
			c0.108-0.324,0.216-0.54,0.432-0.864l0,0c0.108-0.216,0.324-0.323,0.54-0.432c0.108-0.108,0.108-0.108,0.216-0.216
			c0.324-0.216,0.54-0.324,0.973-0.433V81z M82.62,114.695c-0.216-0.54-0.54-1.08-0.972-1.512s-0.973-0.756-1.62-1.08
			c-0.648-0.216-1.296-0.432-2.052-0.432c-0.648,0-1.296,0.107-1.729,0.216c-0.54,0.216-0.972,0.432-1.404,0.756
			c-0.216,0.108-0.432,0.324-0.539,0.432l0,0c-0.217,0.217-0.324,0.324-0.54,0.54c-0.324,0.324-0.54,0.757-0.648,1.188h2.484
			c0.107-0.216,0.216-0.433,0.432-0.54l0.108-0.108c0.107-0.107,0.323-0.216,0.432-0.323c0.432-0.217,0.972-0.324,1.512-0.324
			c0.324,0,0.648,0.107,1.08,0.216c0.324,0.108,0.648,0.324,0.973,0.54c0.323,0.216,0.539,0.54,0.756,0.864
			c0.216,0.323,0.323,0.647,0.432,1.08h-8.1c0,0.216,0,0.432,0,0.647c0,0.648,0.107,1.188,0.216,1.729
			c0.216,0.54,0.432,0.972,0.756,1.403c0.216,0.216,0.324,0.433,0.54,0.648c0.432,0.324,0.864,0.647,1.404,0.864
			c0.107,0,0.216,0.107,0.216,0.107c0.432,0.108,0.756,0.216,1.188,0.216c0.216,0,0.433,0,0.648,0c0.756,0,1.512-0.107,2.052-0.432
			c0.648-0.216,1.188-0.54,1.62-0.972c0.432-0.433,0.756-0.973,0.972-1.62c0.324-0.648,0.433-1.404,0.433-2.16
			C83.053,116.1,82.944,115.344,82.62,114.695z M80.568,118.8c-0.216,0.324-0.432,0.54-0.648,0.756
			c-0.216,0.216-0.54,0.324-0.863,0.54c-0.324,0.107-0.648,0.216-1.08,0.216c-0.217,0-0.433,0-0.648-0.107
			c-0.107,0-0.216-0.108-0.432-0.108c-0.324-0.108-0.54-0.216-0.864-0.432l0,0c-0.216-0.108-0.324-0.324-0.432-0.54
			c-0.108-0.108-0.108-0.108-0.216-0.217c-0.217-0.323-0.324-0.54-0.433-0.972h5.94C80.893,118.151,80.784,118.476,80.568,118.8z
			 M82.62,114.695c-0.216-0.54-0.54-1.08-0.972-1.512s-0.973-0.756-1.62-1.08c-0.648-0.216-1.296-0.432-2.052-0.432
			c-0.648,0-1.296,0.107-1.729,0.216c-0.54,0.216-0.972,0.432-1.404,0.756c-0.216,0.108-0.432,0.324-0.539,0.432l0,0
			c-0.217,0.217-0.324,0.324-0.54,0.54c-0.324,0.324-0.54,0.757-0.648,1.188h2.484c0.107-0.216,0.216-0.433,0.432-0.54l0.108-0.108
			c0.107-0.107,0.323-0.216,0.432-0.323c0.432-0.217,0.972-0.324,1.512-0.324c0.324,0,0.648,0.107,1.08,0.216
			c0.324,0.108,0.648,0.324,0.973,0.54c0.323,0.216,0.539,0.54,0.756,0.864c0.216,0.323,0.323,0.647,0.432,1.08h-8.1
			c0,0.216,0,0.432,0,0.647c0,0.648,0.107,1.188,0.216,1.729c0.216,0.54,0.432,0.972,0.756,1.403
			c0.216,0.216,0.324,0.433,0.54,0.648c0.432,0.324,0.864,0.647,1.404,0.864c0.107,0,0.216,0.107,0.216,0.107
			c0.432,0.108,0.756,0.216,1.188,0.216c0.216,0,0.433,0,0.648,0c0.756,0,1.512-0.107,2.052-0.432
			c0.648-0.216,1.188-0.54,1.62-0.972c0.432-0.433,0.756-0.973,0.972-1.62c0.324-0.648,0.433-1.404,0.433-2.16
			C83.053,116.1,82.944,115.344,82.62,114.695z M80.568,118.8c-0.216,0.324-0.432,0.54-0.648,0.756
			c-0.216,0.216-0.54,0.324-0.863,0.54c-0.324,0.107-0.648,0.216-1.08,0.216c-0.217,0-0.433,0-0.648-0.107
			c-0.107,0-0.216-0.108-0.432-0.108c-0.324-0.108-0.54-0.216-0.864-0.432l0,0c-0.216-0.108-0.324-0.324-0.432-0.54
			c-0.108-0.108-0.108-0.108-0.216-0.217c-0.217-0.323-0.324-0.54-0.433-0.972h5.94C80.893,118.151,80.784,118.476,80.568,118.8z
			 M43.849,76.248c-0.217-0.54-0.433-1.08-0.757-1.404c-0.107-0.216-0.323-0.433-0.432-0.54l0,0c-0.216-0.216-0.324-0.324-0.54-0.54
			c-0.324-0.324-0.756-0.54-1.188-0.648V75.6c0.216,0.108,0.432,0.216,0.54,0.432l0.107,0.108c0.108,0.108,0.216,0.324,0.324,0.432
			c0.216,0.433,0.324,0.864,0.324,1.513c0,0.323-0.108,0.647-0.216,1.079c-0.108,0.324-0.324,0.648-0.54,0.973
			c-0.217,0.324-0.54,0.54-0.864,0.756s-0.648,0.324-1.08,0.432v-8.1c-0.216,0-0.432,0-0.648,0c-0.647,0-1.296,0.108-1.728,0.216
			c-0.54,0.216-1.08,0.433-1.404,0.756c-0.216,0.108-0.432,0.324-0.647,0.54c-0.324,0.433-0.648,0.864-0.864,1.404
			c0,0.108-0.108,0.216-0.108,0.216c-0.107,0.433-0.216,0.756-0.216,1.188c0,0.216,0,0.432,0,0.647c0,0.756,0.108,1.513,0.432,2.16
			c0.217,0.648,0.541,1.08,0.973,1.62c0.432,0.432,0.972,0.756,1.62,0.972c0.647,0.324,1.403,0.433,2.159,0.433
			c0.757,0,1.513-0.108,2.16-0.433c0.648-0.216,1.08-0.54,1.513-0.972c0.432-0.432,0.756-0.972,1.08-1.62
			c0.216-0.647,0.432-1.296,0.432-2.16C44.172,77.327,44.064,76.788,43.849,76.248z M38.017,81
			c-0.324-0.108-0.648-0.217-0.973-0.433c-0.323-0.216-0.54-0.432-0.756-0.647c-0.216-0.217-0.324-0.54-0.432-0.864
			c-0.108-0.324-0.216-0.648-0.216-1.08c0-0.216,0-0.432,0.107-0.648c0-0.107,0.108-0.216,0.108-0.432
			c0.108-0.324,0.216-0.54,0.432-0.864l0,0c0.108-0.216,0.324-0.323,0.54-0.432c0.108-0.108,0.108-0.108,0.216-0.216
			c0.324-0.216,0.54-0.324,0.973-0.433V81z M43.849,76.248c-0.217-0.54-0.433-1.08-0.757-1.404c-0.107-0.216-0.323-0.433-0.432-0.54
			l0,0c-0.216-0.216-0.324-0.324-0.54-0.54c-0.324-0.324-0.756-0.54-1.188-0.648V75.6c0.216,0.108,0.432,0.216,0.54,0.432
			l0.107,0.108c0.108,0.108,0.216,0.324,0.324,0.432c0.216,0.433,0.324,0.864,0.324,1.513c0,0.323-0.108,0.647-0.216,1.079
			c-0.108,0.324-0.324,0.648-0.54,0.973c-0.217,0.324-0.54,0.54-0.864,0.756s-0.648,0.324-1.08,0.432v-8.1c-0.216,0-0.432,0-0.648,0
			c-0.647,0-1.296,0.108-1.728,0.216c-0.54,0.216-1.08,0.433-1.404,0.756c-0.216,0.108-0.432,0.324-0.647,0.54
			c-0.324,0.433-0.648,0.864-0.864,1.404c0,0.108-0.108,0.216-0.108,0.216c-0.107,0.433-0.216,0.756-0.216,1.188
			c0,0.216,0,0.432,0,0.647c0,0.756,0.108,1.513,0.432,2.16c0.217,0.648,0.541,1.08,0.973,1.62c0.432,0.432,0.972,0.756,1.62,0.972
			c0.647,0.324,1.403,0.433,2.159,0.433c0.757,0,1.513-0.108,2.16-0.433c0.648-0.216,1.08-0.54,1.513-0.972
			c0.432-0.432,0.756-0.972,1.08-1.62c0.216-0.647,0.432-1.296,0.432-2.16C44.172,77.327,44.064,76.788,43.849,76.248z M38.017,81
			c-0.324-0.108-0.648-0.217-0.973-0.433c-0.323-0.216-0.54-0.432-0.756-0.647c-0.216-0.217-0.324-0.54-0.432-0.864
			c-0.108-0.324-0.216-0.648-0.216-1.08c0-0.216,0-0.432,0.107-0.648c0-0.107,0.108-0.216,0.108-0.432
			c0.108-0.324,0.216-0.54,0.432-0.864l0,0c0.108-0.216,0.324-0.323,0.54-0.432c0.108-0.108,0.108-0.108,0.216-0.216
			c0.324-0.216,0.54-0.324,0.973-0.433V81z M82.62,114.695c-0.216-0.54-0.54-1.08-0.972-1.512s-0.973-0.756-1.62-1.08
			c-0.648-0.216-1.296-0.432-2.052-0.432c-0.648,0-1.296,0.107-1.729,0.216c-0.54,0.216-0.972,0.432-1.404,0.756
			c-0.216,0.108-0.432,0.324-0.539,0.432l0,0c-0.217,0.217-0.324,0.324-0.54,0.54c-0.324,0.324-0.54,0.757-0.648,1.188h2.484
			c0.107-0.216,0.216-0.433,0.432-0.54l0.108-0.108c0.107-0.107,0.323-0.216,0.432-0.323c0.432-0.217,0.972-0.324,1.512-0.324
			c0.324,0,0.648,0.107,1.08,0.216c0.324,0.108,0.648,0.324,0.973,0.54c0.323,0.216,0.539,0.54,0.756,0.864
			c0.216,0.323,0.323,0.647,0.432,1.08h-8.1c0,0.216,0,0.432,0,0.647c0,0.648,0.107,1.188,0.216,1.729
			c0.216,0.54,0.432,0.972,0.756,1.403c0.216,0.216,0.324,0.433,0.54,0.648c0.432,0.324,0.864,0.647,1.404,0.864
			c0.107,0,0.216,0.107,0.216,0.107c0.432,0.108,0.756,0.216,1.188,0.216c0.216,0,0.433,0,0.648,0c0.756,0,1.512-0.107,2.052-0.432
			c0.648-0.216,1.188-0.54,1.62-0.972c0.432-0.433,0.756-0.973,0.972-1.62c0.324-0.648,0.433-1.404,0.433-2.16
			C83.053,116.1,82.944,115.344,82.62,114.695z M80.568,118.8c-0.216,0.324-0.432,0.54-0.648,0.756
			c-0.216,0.216-0.54,0.324-0.863,0.54c-0.324,0.107-0.648,0.216-1.08,0.216c-0.217,0-0.433,0-0.648-0.107
			c-0.107,0-0.216-0.108-0.432-0.108c-0.324-0.108-0.54-0.216-0.864-0.432l0,0c-0.216-0.108-0.324-0.324-0.432-0.54
			c-0.108-0.108-0.108-0.108-0.216-0.217c-0.217-0.323-0.324-0.54-0.433-0.972h5.94C80.893,118.151,80.784,118.476,80.568,118.8z
			 M83.053,39.096c0-0.648-0.108-1.188-0.217-1.729c-0.216-0.54-0.432-1.079-0.756-1.403c-0.216-0.216-0.324-0.433-0.54-0.648
			c-0.432-0.324-0.864-0.647-1.403-0.864c-0.108,0-0.217-0.107-0.217-0.107c-0.432-0.108-0.756-0.216-1.188-0.216
			c-0.216,0-0.433,0-0.648,0c-0.756,0-1.512,0.107-2.16,0.432c-0.647,0.216-1.188,0.54-1.619,0.972
			c-0.433,0.433-0.757,0.973-0.973,1.62c-0.324,0.648-0.432,1.404-0.432,2.16s0.107,1.512,0.432,2.16
			c0.216,0.54,0.54,1.08,0.973,1.512c0.432,0.433,0.972,0.756,1.619,0.973c0.648,0.216,1.297,0.432,2.16,0.432
			c0.648,0,1.188-0.108,1.729-0.216c0.54-0.217,1.08-0.433,1.403-0.757c0.217-0.107,0.433-0.323,0.54-0.432l0,0
			c0.217-0.216,0.324-0.324,0.54-0.54c0.324-0.324,0.54-0.756,0.648-1.188H80.46c-0.107,0.216-0.216,0.432-0.432,0.54l-0.108,0.107
			c-0.107,0.108-0.324,0.216-0.432,0.324c-0.432,0.216-0.864,0.324-1.512,0.324c-0.324,0-0.648-0.108-1.08-0.216
			c-0.324-0.108-0.648-0.324-0.973-0.54c-0.323-0.217-0.539-0.54-0.756-0.864c-0.216-0.324-0.324-0.648-0.432-1.08h8.208
			C83.053,39.527,83.053,39.312,83.053,39.096z M74.952,38.124c0.108-0.324,0.216-0.648,0.433-0.973
			c0.216-0.324,0.432-0.54,0.647-0.756s0.54-0.324,0.864-0.54c0.324-0.107,0.647-0.216,1.08-0.216c0.216,0,0.432,0,0.647,0.108
			c0.108,0,0.216,0.107,0.433,0.107c0.323,0.108,0.539,0.216,0.863,0.433l0,0c0.108,0.107,0.324,0.323,0.433,0.539
			c0.107,0.108,0.107,0.108,0.216,0.217c0.216,0.323,0.324,0.54,0.432,0.972h-6.048V38.124z M82.62,114.695
			c-0.216-0.54-0.54-1.08-0.972-1.512s-0.973-0.756-1.62-1.08c-0.648-0.216-1.296-0.432-2.052-0.432
			c-0.648,0-1.296,0.107-1.729,0.216c-0.54,0.216-0.972,0.432-1.404,0.756c-0.216,0.108-0.432,0.324-0.539,0.432l0,0
			c-0.217,0.217-0.324,0.324-0.54,0.54c-0.324,0.324-0.54,0.757-0.648,1.188h2.484c0.107-0.216,0.216-0.433,0.432-0.54l0.108-0.108
			c0.107-0.107,0.323-0.216,0.432-0.323c0.432-0.217,0.972-0.324,1.512-0.324c0.324,0,0.648,0.107,1.08,0.216
			c0.324,0.108,0.648,0.324,0.973,0.54c0.323,0.216,0.539,0.54,0.756,0.864c0.216,0.323,0.323,0.647,0.432,1.08h-8.1
			c0,0.216,0,0.432,0,0.647c0,0.648,0.107,1.188,0.216,1.729c0.216,0.54,0.432,0.972,0.756,1.403
			c0.216,0.216,0.324,0.433,0.54,0.648c0.432,0.324,0.864,0.647,1.404,0.864c0.107,0,0.216,0.107,0.216,0.107
			c0.432,0.108,0.756,0.216,1.188,0.216c0.216,0,0.433,0,0.648,0c0.756,0,1.512-0.107,2.052-0.432
			c0.648-0.216,1.188-0.54,1.62-0.972c0.432-0.433,0.756-0.973,0.972-1.62c0.324-0.648,0.433-1.404,0.433-2.16
			C83.053,116.1,82.944,115.344,82.62,114.695z M80.568,118.8c-0.216,0.324-0.432,0.54-0.648,0.756
			c-0.216,0.216-0.54,0.324-0.863,0.54c-0.324,0.107-0.648,0.216-1.08,0.216c-0.217,0-0.433,0-0.648-0.107
			c-0.107,0-0.216-0.108-0.432-0.108c-0.324-0.108-0.54-0.216-0.864-0.432l0,0c-0.216-0.108-0.324-0.324-0.432-0.54
			c-0.108-0.108-0.108-0.108-0.216-0.217c-0.217-0.323-0.324-0.54-0.433-0.972h5.94C80.893,118.151,80.784,118.476,80.568,118.8z
			 M43.849,76.248c-0.217-0.54-0.433-1.08-0.757-1.404c-0.107-0.216-0.323-0.433-0.432-0.54l0,0c-0.216-0.216-0.324-0.324-0.54-0.54
			c-0.324-0.324-0.756-0.54-1.188-0.648V75.6c0.216,0.108,0.432,0.216,0.54,0.432l0.107,0.108c0.108,0.108,0.216,0.324,0.324,0.432
			c0.216,0.433,0.324,0.864,0.324,1.513c0,0.323-0.108,0.647-0.216,1.079c-0.108,0.324-0.324,0.648-0.54,0.973
			c-0.217,0.324-0.54,0.54-0.864,0.756s-0.648,0.324-1.08,0.432v-8.1c-0.216,0-0.432,0-0.648,0c-0.647,0-1.296,0.108-1.728,0.216
			c-0.54,0.216-1.08,0.433-1.404,0.756c-0.216,0.108-0.432,0.324-0.647,0.54c-0.324,0.433-0.648,0.864-0.864,1.404
			c0,0.108-0.108,0.216-0.108,0.216c-0.107,0.433-0.216,0.756-0.216,1.188c0,0.216,0,0.432,0,0.647c0,0.756,0.108,1.513,0.432,2.16
			c0.217,0.648,0.541,1.08,0.973,1.62c0.432,0.432,0.972,0.756,1.62,0.972c0.647,0.324,1.403,0.433,2.159,0.433
			c0.757,0,1.513-0.108,2.16-0.433c0.648-0.216,1.08-0.54,1.513-0.972c0.432-0.432,0.756-0.972,1.08-1.62
			c0.216-0.647,0.432-1.296,0.432-2.16C44.172,77.327,44.064,76.788,43.849,76.248z M38.017,81
			c-0.324-0.108-0.648-0.217-0.973-0.433c-0.323-0.216-0.54-0.432-0.756-0.647c-0.216-0.217-0.324-0.54-0.432-0.864
			c-0.108-0.324-0.216-0.648-0.216-1.08c0-0.216,0-0.432,0.107-0.648c0-0.107,0.108-0.216,0.108-0.432
			c0.108-0.324,0.216-0.54,0.432-0.864l0,0c0.108-0.216,0.324-0.323,0.54-0.432c0.108-0.108,0.108-0.108,0.216-0.216
			c0.324-0.216,0.54-0.324,0.973-0.433V81z M83.053,39.096c0-0.648-0.108-1.188-0.217-1.729c-0.216-0.54-0.432-1.079-0.756-1.403
			c-0.216-0.216-0.324-0.433-0.54-0.648c-0.432-0.324-0.864-0.647-1.403-0.864c-0.108,0-0.217-0.107-0.217-0.107
			c-0.432-0.108-0.756-0.216-1.188-0.216c-0.216,0-0.433,0-0.648,0c-0.756,0-1.512,0.107-2.16,0.432
			c-0.647,0.216-1.188,0.54-1.619,0.972c-0.433,0.433-0.757,0.973-0.973,1.62c-0.324,0.648-0.432,1.404-0.432,2.16
			s0.107,1.512,0.432,2.16c0.216,0.54,0.54,1.08,0.973,1.512c0.432,0.433,0.972,0.756,1.619,0.973
			c0.648,0.216,1.297,0.432,2.16,0.432c0.648,0,1.188-0.108,1.729-0.216c0.54-0.217,1.08-0.433,1.403-0.757
			c0.217-0.107,0.433-0.323,0.54-0.432l0,0c0.217-0.216,0.324-0.324,0.54-0.54c0.324-0.324,0.54-0.756,0.648-1.188H80.46
			c-0.107,0.216-0.216,0.432-0.432,0.54l-0.108,0.107c-0.107,0.108-0.324,0.216-0.432,0.324c-0.432,0.216-0.864,0.324-1.512,0.324
			c-0.324,0-0.648-0.108-1.08-0.216c-0.324-0.108-0.648-0.324-0.973-0.54c-0.323-0.217-0.539-0.54-0.756-0.864
			c-0.216-0.324-0.324-0.648-0.432-1.08h8.208C83.053,39.527,83.053,39.312,83.053,39.096z M74.952,38.124
			c0.108-0.324,0.216-0.648,0.433-0.973c0.216-0.324,0.432-0.54,0.647-0.756s0.54-0.324,0.864-0.54
			c0.324-0.107,0.647-0.216,1.08-0.216c0.216,0,0.432,0,0.647,0.108c0.108,0,0.216,0.107,0.433,0.107
			c0.323,0.108,0.539,0.216,0.863,0.433l0,0c0.108,0.107,0.324,0.323,0.433,0.539c0.107,0.108,0.107,0.108,0.216,0.217
			c0.216,0.323,0.324,0.54,0.432,0.972h-6.048V38.124z M43.849,76.248c-0.217-0.54-0.433-1.08-0.757-1.404
			c-0.107-0.216-0.323-0.433-0.432-0.54l0,0c-0.216-0.216-0.324-0.324-0.54-0.54c-0.324-0.324-0.756-0.54-1.188-0.648V75.6
			c0.216,0.108,0.432,0.216,0.54,0.432l0.107,0.108c0.108,0.108,0.216,0.324,0.324,0.432c0.216,0.433,0.324,0.864,0.324,1.513
			c0,0.323-0.108,0.647-0.216,1.079c-0.108,0.324-0.324,0.648-0.54,0.973c-0.217,0.324-0.54,0.54-0.864,0.756
			s-0.648,0.324-1.08,0.432v-8.1c-0.216,0-0.432,0-0.648,0c-0.647,0-1.296,0.108-1.728,0.216c-0.54,0.216-1.08,0.433-1.404,0.756
			c-0.216,0.108-0.432,0.324-0.647,0.54c-0.324,0.433-0.648,0.864-0.864,1.404c0,0.108-0.108,0.216-0.108,0.216
			c-0.107,0.433-0.216,0.756-0.216,1.188c0,0.216,0,0.432,0,0.647c0,0.756,0.108,1.513,0.432,2.16
			c0.217,0.648,0.541,1.08,0.973,1.62c0.432,0.432,0.972,0.756,1.62,0.972c0.647,0.324,1.403,0.433,2.159,0.433
			c0.757,0,1.513-0.108,2.16-0.433c0.648-0.216,1.08-0.54,1.513-0.972c0.432-0.432,0.756-0.972,1.08-1.62
			c0.216-0.647,0.432-1.296,0.432-2.16C44.172,77.327,44.064,76.788,43.849,76.248z M38.017,81
			c-0.324-0.108-0.648-0.217-0.973-0.433c-0.323-0.216-0.54-0.432-0.756-0.647c-0.216-0.217-0.324-0.54-0.432-0.864
			c-0.108-0.324-0.216-0.648-0.216-1.08c0-0.216,0-0.432,0.107-0.648c0-0.107,0.108-0.216,0.108-0.432
			c0.108-0.324,0.216-0.54,0.432-0.864l0,0c0.108-0.216,0.324-0.323,0.54-0.432c0.108-0.108,0.108-0.108,0.216-0.216
			c0.324-0.216,0.54-0.324,0.973-0.433V81z M82.62,114.695c-0.216-0.54-0.54-1.08-0.972-1.512s-0.973-0.756-1.62-1.08
			c-0.648-0.216-1.296-0.432-2.052-0.432c-0.648,0-1.296,0.107-1.729,0.216c-0.54,0.216-0.972,0.432-1.404,0.756
			c-0.216,0.108-0.432,0.324-0.539,0.432l0,0c-0.217,0.217-0.324,0.324-0.54,0.54c-0.324,0.324-0.54,0.757-0.648,1.188h2.484
			c0.107-0.216,0.216-0.433,0.432-0.54l0.108-0.108c0.107-0.107,0.323-0.216,0.432-0.323c0.432-0.217,0.972-0.324,1.512-0.324
			c0.324,0,0.648,0.107,1.08,0.216c0.324,0.108,0.648,0.324,0.973,0.54c0.323,0.216,0.539,0.54,0.756,0.864
			c0.216,0.323,0.323,0.647,0.432,1.08h-8.1c0,0.216,0,0.432,0,0.647c0,0.648,0.107,1.188,0.216,1.729
			c0.216,0.54,0.432,0.972,0.756,1.403c0.216,0.216,0.324,0.433,0.54,0.648c0.432,0.324,0.864,0.647,1.404,0.864
			c0.107,0,0.216,0.107,0.216,0.107c0.432,0.108,0.756,0.216,1.188,0.216c0.216,0,0.433,0,0.648,0c0.756,0,1.512-0.107,2.052-0.432
			c0.648-0.216,1.188-0.54,1.62-0.972c0.432-0.433,0.756-0.973,0.972-1.62c0.324-0.648,0.433-1.404,0.433-2.16
			C83.053,116.1,82.944,115.344,82.62,114.695z M80.568,118.8c-0.216,0.324-0.432,0.54-0.648,0.756
			c-0.216,0.216-0.54,0.324-0.863,0.54c-0.324,0.107-0.648,0.216-1.08,0.216c-0.217,0-0.433,0-0.648-0.107
			c-0.107,0-0.216-0.108-0.432-0.108c-0.324-0.108-0.54-0.216-0.864-0.432l0,0c-0.216-0.108-0.324-0.324-0.432-0.54
			c-0.108-0.108-0.108-0.108-0.216-0.217c-0.217-0.323-0.324-0.54-0.433-0.972h5.94C80.893,118.151,80.784,118.476,80.568,118.8z
			 M83.053,39.096c0-0.648-0.108-1.188-0.217-1.729c-0.216-0.54-0.432-1.079-0.756-1.403c-0.216-0.216-0.324-0.433-0.54-0.648
			c-0.432-0.324-0.864-0.647-1.403-0.864c-0.108,0-0.217-0.107-0.217-0.107c-0.432-0.108-0.756-0.216-1.188-0.216
			c-0.216,0-0.433,0-0.648,0c-0.756,0-1.512,0.107-2.16,0.432c-0.647,0.216-1.188,0.54-1.619,0.972
			c-0.433,0.433-0.757,0.973-0.973,1.62c-0.324,0.648-0.432,1.404-0.432,2.16s0.107,1.512,0.432,2.16
			c0.216,0.54,0.54,1.08,0.973,1.512c0.432,0.433,0.972,0.756,1.619,0.973c0.648,0.216,1.297,0.432,2.16,0.432
			c0.648,0,1.188-0.108,1.729-0.216c0.54-0.217,1.08-0.433,1.403-0.757c0.217-0.107,0.433-0.323,0.54-0.432l0,0
			c0.217-0.216,0.324-0.324,0.54-0.54c0.324-0.324,0.54-0.756,0.648-1.188H80.46c-0.107,0.216-0.216,0.432-0.432,0.54l-0.108,0.107
			c-0.107,0.108-0.324,0.216-0.432,0.324c-0.432,0.216-0.864,0.324-1.512,0.324c-0.324,0-0.648-0.108-1.08-0.216
			c-0.324-0.108-0.648-0.324-0.973-0.54c-0.323-0.217-0.539-0.54-0.756-0.864c-0.216-0.324-0.324-0.648-0.432-1.08h8.208
			C83.053,39.527,83.053,39.312,83.053,39.096z M74.952,38.124c0.108-0.324,0.216-0.648,0.433-0.973
			c0.216-0.324,0.432-0.54,0.647-0.756s0.54-0.324,0.864-0.54c0.324-0.107,0.647-0.216,1.08-0.216c0.216,0,0.432,0,0.647,0.108
			c0.108,0,0.216,0.107,0.433,0.107c0.323,0.108,0.539,0.216,0.863,0.433l0,0c0.108,0.107,0.324,0.323,0.433,0.539
			c0.107,0.108,0.107,0.108,0.216,0.217c0.216,0.323,0.324,0.54,0.432,0.972h-6.048V38.124z M82.62,114.695
			c-0.216-0.54-0.54-1.08-0.972-1.512s-0.973-0.756-1.62-1.08c-0.648-0.216-1.296-0.432-2.052-0.432
			c-0.648,0-1.296,0.107-1.729,0.216c-0.54,0.216-0.972,0.432-1.404,0.756c-0.216,0.108-0.432,0.324-0.539,0.432l0,0
			c-0.217,0.217-0.324,0.324-0.54,0.54c-0.324,0.324-0.54,0.757-0.648,1.188h2.484c0.107-0.216,0.216-0.433,0.432-0.54l0.108-0.108
			c0.107-0.107,0.323-0.216,0.432-0.323c0.432-0.217,0.972-0.324,1.512-0.324c0.324,0,0.648,0.107,1.08,0.216
			c0.324,0.108,0.648,0.324,0.973,0.54c0.323,0.216,0.539,0.54,0.756,0.864c0.216,0.323,0.323,0.647,0.432,1.08h-8.1
			c0,0.216,0,0.432,0,0.647c0,0.648,0.107,1.188,0.216,1.729c0.216,0.54,0.432,0.972,0.756,1.403
			c0.216,0.216,0.324,0.433,0.54,0.648c0.432,0.324,0.864,0.647,1.404,0.864c0.107,0,0.216,0.107,0.216,0.107
			c0.432,0.108,0.756,0.216,1.188,0.216c0.216,0,0.433,0,0.648,0c0.756,0,1.512-0.107,2.052-0.432
			c0.648-0.216,1.188-0.54,1.62-0.972c0.432-0.433,0.756-0.973,0.972-1.62c0.324-0.648,0.433-1.404,0.433-2.16
			C83.053,116.1,82.944,115.344,82.62,114.695z M80.568,118.8c-0.216,0.324-0.432,0.54-0.648,0.756
			c-0.216,0.216-0.54,0.324-0.863,0.54c-0.324,0.107-0.648,0.216-1.08,0.216c-0.217,0-0.433,0-0.648-0.107
			c-0.107,0-0.216-0.108-0.432-0.108c-0.324-0.108-0.54-0.216-0.864-0.432l0,0c-0.216-0.108-0.324-0.324-0.432-0.54
			c-0.108-0.108-0.108-0.108-0.216-0.217c-0.217-0.323-0.324-0.54-0.433-0.972h5.94C80.893,118.151,80.784,118.476,80.568,118.8z
			 M43.849,76.248c-0.217-0.54-0.433-1.08-0.757-1.404c-0.107-0.216-0.323-0.433-0.432-0.54l0,0c-0.216-0.216-0.324-0.324-0.54-0.54
			c-0.324-0.324-0.756-0.54-1.188-0.648V75.6c0.216,0.108,0.432,0.216,0.54,0.432l0.107,0.108c0.108,0.108,0.216,0.324,0.324,0.432
			c0.216,0.433,0.324,0.864,0.324,1.513c0,0.323-0.108,0.647-0.216,1.079c-0.108,0.324-0.324,0.648-0.54,0.973
			c-0.217,0.324-0.54,0.54-0.864,0.756s-0.648,0.324-1.08,0.432v-8.1c-0.216,0-0.432,0-0.648,0c-0.647,0-1.296,0.108-1.728,0.216
			c-0.54,0.216-1.08,0.433-1.404,0.756c-0.216,0.108-0.432,0.324-0.647,0.54c-0.324,0.433-0.648,0.864-0.864,1.404
			c0,0.108-0.108,0.216-0.108,0.216c-0.107,0.433-0.216,0.756-0.216,1.188c0,0.216,0,0.432,0,0.647c0,0.756,0.108,1.513,0.432,2.16
			c0.217,0.648,0.541,1.08,0.973,1.62c0.432,0.432,0.972,0.756,1.62,0.972c0.647,0.324,1.403,0.433,2.159,0.433
			c0.757,0,1.513-0.108,2.16-0.433c0.648-0.216,1.08-0.54,1.513-0.972c0.432-0.432,0.756-0.972,1.08-1.62
			c0.216-0.647,0.432-1.296,0.432-2.16C44.172,77.327,44.064,76.788,43.849,76.248z M38.017,81
			c-0.324-0.108-0.648-0.217-0.973-0.433c-0.323-0.216-0.54-0.432-0.756-0.647c-0.216-0.217-0.324-0.54-0.432-0.864
			c-0.108-0.324-0.216-0.648-0.216-1.08c0-0.216,0-0.432,0.107-0.648c0-0.107,0.108-0.216,0.108-0.432
			c0.108-0.324,0.216-0.54,0.432-0.864l0,0c0.108-0.216,0.324-0.323,0.54-0.432c0.108-0.108,0.108-0.108,0.216-0.216
			c0.324-0.216,0.54-0.324,0.973-0.433V81z M83.053,39.096c0-0.648-0.108-1.188-0.217-1.729c-0.216-0.54-0.432-1.079-0.756-1.403
			c-0.216-0.216-0.324-0.433-0.54-0.648c-0.432-0.324-0.864-0.647-1.403-0.864c-0.108,0-0.217-0.107-0.217-0.107
			c-0.432-0.108-0.756-0.216-1.188-0.216c-0.216,0-0.433,0-0.648,0c-0.756,0-1.512,0.107-2.16,0.432
			c-0.647,0.216-1.188,0.54-1.619,0.972c-0.433,0.433-0.757,0.973-0.973,1.62c-0.324,0.648-0.432,1.404-0.432,2.16
			s0.107,1.512,0.432,2.16c0.216,0.54,0.54,1.08,0.973,1.512c0.432,0.433,0.972,0.756,1.619,0.973
			c0.648,0.216,1.297,0.432,2.16,0.432c0.648,0,1.188-0.108,1.729-0.216c0.54-0.217,1.08-0.433,1.403-0.757
			c0.217-0.107,0.433-0.323,0.54-0.432l0,0c0.217-0.216,0.324-0.324,0.54-0.54c0.324-0.324,0.54-0.756,0.648-1.188H80.46
			c-0.107,0.216-0.216,0.432-0.432,0.54l-0.108,0.107c-0.107,0.108-0.324,0.216-0.432,0.324c-0.432,0.216-0.864,0.324-1.512,0.324
			c-0.324,0-0.648-0.108-1.08-0.216c-0.324-0.108-0.648-0.324-0.973-0.54c-0.323-0.217-0.539-0.54-0.756-0.864
			c-0.216-0.324-0.324-0.648-0.432-1.08h8.208C83.053,39.527,83.053,39.312,83.053,39.096z M74.952,38.124
			c0.108-0.324,0.216-0.648,0.433-0.973c0.216-0.324,0.432-0.54,0.647-0.756s0.54-0.324,0.864-0.54
			c0.324-0.107,0.647-0.216,1.08-0.216c0.216,0,0.432,0,0.647,0.108c0.108,0,0.216,0.107,0.433,0.107
			c0.323,0.108,0.539,0.216,0.863,0.433l0,0c0.108,0.107,0.324,0.323,0.433,0.539c0.107,0.108,0.107,0.108,0.216,0.217
			c0.216,0.323,0.324,0.54,0.432,0.972h-6.048V38.124z M127.656,0H28.188C12.637,0,0,12.636,0,28.188v99.468
			c0,15.553,12.637,28.188,28.188,28.188h99.468c15.552,0,28.188-12.636,28.188-28.188V28.188C155.844,12.636,143.316,0,127.656,0z
			 M77.977,22.248c9.72,0,17.604,7.884,17.604,17.712c0,4.535-1.728,8.748-4.644,11.88l0,0c-0.648,0.54-1.296,1.188-1.944,1.836
			c-2.376,2.376-5.184,5.616-7.452,9.72c-1.728,3.024-2.808,5.94-3.563,8.316c-0.756-2.484-1.836-5.292-3.564-8.316
			c-2.376-4.212-5.076-7.452-7.452-9.828c-0.647-0.647-1.296-1.188-1.943-1.728c0,0,0,0-0.108,0
			c-2.916-3.132-4.644-7.345-4.644-11.88C60.265,30.132,68.148,22.248,77.977,22.248z M51.84,90.936
			C51.84,90.936,51.732,90.936,51.84,90.936c-3.239,2.916-7.344,4.644-11.987,4.644c-9.721,0-17.712-7.884-17.712-17.604
			s7.884-17.712,17.712-17.712c4.536,0,8.748,1.728,11.88,4.644c0,0,0,0,0.107,0c0.54,0.648,1.188,1.297,1.836,1.944
			c2.377,2.376,5.616,5.184,9.721,7.452c3.023,1.728,5.832,2.808,8.315,3.563c-2.483,0.757-5.292,1.836-8.315,3.564
			c-4.212,2.376-7.452,5.076-9.828,7.452C52.92,89.748,52.38,90.396,51.84,90.936z M77.977,133.703
			c-9.721,0-17.712-7.884-17.712-17.712c0-4.536,1.728-8.748,4.644-11.88c0,0,0,0,0.108,0c0.647-0.54,1.296-1.188,1.943-1.836
			c2.376-2.376,5.185-5.616,7.452-9.72c1.729-3.024,2.809-5.94,3.564-8.316c0.756,2.484,1.836,5.292,3.563,8.316
			c2.376,4.212,5.076,7.452,7.452,9.828c0.648,0.647,1.296,1.188,1.944,1.728c0,0,0,0,0.107,0c2.916,3.132,4.645,7.344,4.645,11.88
			C95.58,125.819,87.696,133.703,77.977,133.703z M115.992,95.579c-4.536,0-8.748-1.728-11.88-4.644c0,0,0,0-0.108,0
			c-0.54-0.647-1.188-1.296-1.836-1.944c-2.376-2.376-5.615-5.184-9.72-7.451c-3.024-1.729-5.832-2.809-8.316-3.564
			c2.484-0.756,5.292-1.836,8.316-3.563c4.212-2.376,7.452-5.076,9.828-7.452c0.647-0.648,1.188-1.296,1.728-1.944c0,0,0,0,0.108,0
			c3.132-2.916,7.344-4.644,11.88-4.644c9.72,0,17.712,7.884,17.712,17.712C133.704,87.695,125.82,95.579,115.992,95.579z
			 M74.196,42.768c0.432,0.432,0.972,0.756,1.62,0.972c0.647,0.217,1.296,0.433,2.16,0.433c0.647,0,1.188-0.108,1.728-0.216
			c0.54-0.217,1.08-0.433,1.404-0.757c0.216-0.107,0.432-0.323,0.54-0.432l0,0c0.216-0.216,0.324-0.324,0.54-0.54
			c0.323-0.324,0.54-0.756,0.647-1.188h-2.483c-0.108,0.216-0.216,0.432-0.433,0.539l-0.107,0.108
			c-0.108,0.108-0.324,0.216-0.433,0.324c-0.432,0.216-0.863,0.324-1.512,0.324c-0.324,0-0.647-0.108-1.08-0.217
			c-0.323-0.107-0.647-0.323-0.972-0.54c-0.324-0.216-0.54-0.54-0.756-0.863c-0.217-0.324-0.324-0.648-0.433-1.08h8.208
			c0-0.216,0-0.433,0-0.648c0-0.647-0.107-1.188-0.216-1.728c-0.216-0.54-0.432-1.08-0.756-1.404
			c-0.216-0.216-0.324-0.432-0.54-0.647c-0.432-0.324-0.864-0.648-1.404-0.864c-0.107,0-0.216-0.108-0.216-0.108
			c-0.432-0.107-0.756-0.216-1.188-0.216c-0.216,0-0.433,0-0.648,0c-0.756,0-1.512,0.108-2.16,0.432
			c-0.647,0.217-1.188,0.54-1.62,0.973c-0.432,0.432-0.756,0.972-0.972,1.62c-0.324,0.647-0.432,1.403-0.432,2.159
			c0,0.757,0.107,1.513,0.432,2.16C73.44,41.796,73.765,42.336,74.196,42.768z M75.276,37.151c0.216-0.324,0.432-0.54,0.647-0.756
			c0.217-0.216,0.54-0.324,0.864-0.54c0.324-0.107,0.648-0.216,1.08-0.216c0.216,0,0.433,0,0.648,0.108
			c0.107,0,0.216,0.107,0.432,0.107c0.324,0.108,0.54,0.216,0.864,0.433l0,0c0.107,0.107,0.324,0.323,0.432,0.539
			c0.108,0.108,0.108,0.108,0.216,0.217c0.216,0.323,0.324,0.54,0.433,0.972h-5.94C74.952,37.8,75.168,37.476,75.276,37.151z
			 M81.648,113.184c-0.432-0.432-0.973-0.756-1.62-1.08c-0.648-0.216-1.296-0.432-2.052-0.432c-0.648,0-1.296,0.107-1.729,0.216
			c-0.54,0.216-0.972,0.432-1.404,0.756c-0.216,0.108-0.432,0.324-0.539,0.432l0,0c-0.217,0.217-0.324,0.324-0.54,0.54
			c-0.324,0.324-0.54,0.757-0.648,1.188h2.484c0.107-0.216,0.216-0.433,0.432-0.54l0.108-0.108c0.107-0.107,0.323-0.216,0.432-0.323
			c0.432-0.217,0.972-0.324,1.512-0.324c0.324,0,0.648,0.107,1.08,0.216c0.324,0.108,0.648,0.324,0.973,0.54
			c0.323,0.216,0.539,0.54,0.756,0.864c0.216,0.323,0.323,0.647,0.432,1.08h-8.1c0,0.216,0,0.432,0,0.647
			c0,0.648,0.107,1.188,0.216,1.729c0.216,0.54,0.432,0.972,0.756,1.403c0.216,0.216,0.324,0.433,0.54,0.648
			c0.432,0.324,0.864,0.647,1.404,0.864c0.107,0,0.216,0.107,0.216,0.107c0.432,0.108,0.756,0.216,1.188,0.216
			c0.216,0,0.433,0,0.648,0c0.756,0,1.512-0.107,2.052-0.432c0.648-0.216,1.188-0.54,1.62-0.972c0.432-0.433,0.756-0.973,0.972-1.62
			c0.324-0.648,0.433-1.404,0.433-2.16s-0.108-1.512-0.433-2.16C82.404,114.155,82.08,113.615,81.648,113.184z M80.568,118.8
			c-0.216,0.324-0.432,0.54-0.648,0.756c-0.216,0.216-0.54,0.324-0.863,0.54c-0.324,0.107-0.648,0.216-1.08,0.216
			c-0.217,0-0.433,0-0.648-0.107c-0.107,0-0.216-0.108-0.432-0.108c-0.324-0.108-0.54-0.216-0.864-0.432l0,0
			c-0.216-0.108-0.324-0.324-0.432-0.54c-0.108-0.108-0.108-0.108-0.216-0.217c-0.217-0.323-0.324-0.54-0.433-0.972h5.94
			C80.893,118.151,80.784,118.476,80.568,118.8z M43.2,74.735c-0.108-0.216-0.324-0.432-0.432-0.54l0,0
			c-0.216-0.216-0.324-0.323-0.54-0.54c-0.324-0.323-0.756-0.54-1.188-0.647v2.483c0.216,0.108,0.433,0.217,0.54,0.433l0.108,0.107
			c0.107,0.108,0.216,0.324,0.323,0.433c0.217,0.432,0.324,0.863,0.324,1.512c0,0.324-0.107,0.648-0.216,1.08
			c-0.108,0.324-0.324,0.647-0.54,0.972s-0.54,0.54-0.863,0.756c-0.324,0.217-0.648,0.324-1.08,0.433v-8.101
			c-0.217,0-0.433,0-0.648,0c-0.648,0-1.296,0.108-1.729,0.217c-0.539,0.216-1.079,0.432-1.403,0.756
			c-0.216,0.107-0.433,0.323-0.648,0.54c-0.323,0.432-0.647,0.863-0.864,1.403c0,0.108-0.107,0.217-0.107,0.217
			c-0.108,0.432-0.216,0.756-0.216,1.188c0,0.216,0,0.432,0,0.648c0,0.756,0.107,1.512,0.432,2.159
			c0.216,0.648,0.54,1.08,0.972,1.62c0.433,0.433,0.973,0.757,1.62,0.973c0.648,0.323,1.404,0.432,2.16,0.432
			s1.512-0.108,2.16-0.432c0.647-0.217,1.08-0.54,1.512-0.973c0.433-0.432,0.756-0.972,1.08-1.62
			c0.216-0.647,0.433-1.296,0.433-2.159c0-0.648-0.108-1.188-0.217-1.729C43.74,75.708,43.416,75.168,43.2,74.735z M38.017,81
			c-0.324-0.108-0.648-0.217-0.973-0.433c-0.323-0.216-0.54-0.432-0.756-0.647c-0.216-0.217-0.324-0.54-0.432-0.864
			c-0.108-0.324-0.216-0.648-0.216-1.08c0-0.216,0-0.432,0.107-0.648c0-0.107,0.108-0.216,0.108-0.432
			c0.108-0.324,0.216-0.54,0.432-0.864l0,0c0.108-0.216,0.324-0.323,0.54-0.432c0.108-0.108,0.108-0.108,0.216-0.216
			c0.324-0.216,0.54-0.324,0.973-0.433V81z M83.053,39.096c0-0.648-0.108-1.188-0.217-1.729c-0.216-0.54-0.432-1.079-0.756-1.403
			c-0.216-0.216-0.324-0.433-0.54-0.648c-0.432-0.324-0.864-0.647-1.403-0.864c-0.108,0-0.217-0.107-0.217-0.107
			c-0.432-0.108-0.756-0.216-1.188-0.216c-0.216,0-0.433,0-0.648,0c-0.756,0-1.512,0.107-2.16,0.432
			c-0.647,0.216-1.188,0.54-1.619,0.972c-0.433,0.433-0.757,0.973-0.973,1.62c-0.324,0.648-0.432,1.404-0.432,2.16
			s0.107,1.512,0.432,2.16c0.216,0.54,0.54,1.08,0.973,1.512c0.432,0.433,0.972,0.756,1.619,0.973
			c0.648,0.216,1.297,0.432,2.16,0.432c0.648,0,1.188-0.108,1.729-0.216c0.54-0.217,1.08-0.433,1.403-0.757
			c0.217-0.107,0.433-0.323,0.54-0.432l0,0c0.217-0.216,0.324-0.324,0.54-0.54c0.324-0.324,0.54-0.756,0.648-1.188H80.46
			c-0.107,0.216-0.216,0.432-0.432,0.54l-0.108,0.107c-0.107,0.108-0.324,0.216-0.432,0.324c-0.432,0.216-0.864,0.324-1.512,0.324
			c-0.324,0-0.648-0.108-1.08-0.216c-0.324-0.108-0.648-0.324-0.973-0.54c-0.323-0.217-0.539-0.54-0.756-0.864
			c-0.216-0.324-0.324-0.648-0.432-1.08h8.208C83.053,39.527,83.053,39.312,83.053,39.096z M74.952,38.124
			c0.108-0.324,0.216-0.648,0.433-0.973c0.216-0.324,0.432-0.54,0.647-0.756s0.54-0.324,0.864-0.54
			c0.324-0.107,0.647-0.216,1.08-0.216c0.216,0,0.432,0,0.647,0.108c0.108,0,0.216,0.107,0.433,0.107
			c0.323,0.108,0.539,0.216,0.863,0.433l0,0c0.108,0.107,0.324,0.323,0.433,0.539c0.107,0.108,0.107,0.108,0.216,0.217
			c0.216,0.323,0.324,0.54,0.432,0.972h-6.048V38.124z M43.849,76.248c-0.217-0.54-0.433-1.08-0.757-1.404
			c-0.107-0.216-0.323-0.433-0.432-0.54l0,0c-0.216-0.216-0.324-0.324-0.54-0.54c-0.324-0.324-0.756-0.54-1.188-0.648V75.6
			c0.216,0.108,0.432,0.216,0.54,0.432l0.107,0.108c0.108,0.108,0.216,0.324,0.324,0.432c0.216,0.433,0.324,0.864,0.324,1.513
			c0,0.323-0.108,0.647-0.216,1.079c-0.108,0.324-0.324,0.648-0.54,0.973c-0.217,0.324-0.54,0.54-0.864,0.756
			s-0.648,0.324-1.08,0.432v-8.1c-0.216,0-0.432,0-0.648,0c-0.647,0-1.296,0.108-1.728,0.216c-0.54,0.216-1.08,0.433-1.404,0.756
			c-0.216,0.108-0.432,0.324-0.647,0.54c-0.324,0.433-0.648,0.864-0.864,1.404c0,0.108-0.108,0.216-0.108,0.216
			c-0.107,0.433-0.216,0.756-0.216,1.188c0,0.216,0,0.432,0,0.647c0,0.756,0.108,1.513,0.432,2.16
			c0.217,0.648,0.541,1.08,0.973,1.62c0.432,0.432,0.972,0.756,1.62,0.972c0.647,0.324,1.403,0.433,2.159,0.433
			c0.757,0,1.513-0.108,2.16-0.433c0.648-0.216,1.08-0.54,1.513-0.972c0.432-0.432,0.756-0.972,1.08-1.62
			c0.216-0.647,0.432-1.296,0.432-2.16C44.172,77.327,44.064,76.788,43.849,76.248z M38.017,81
			c-0.324-0.108-0.648-0.217-0.973-0.433c-0.323-0.216-0.54-0.432-0.756-0.647c-0.216-0.217-0.324-0.54-0.432-0.864
			c-0.108-0.324-0.216-0.648-0.216-1.08c0-0.216,0-0.432,0.107-0.648c0-0.107,0.108-0.216,0.108-0.432
			c0.108-0.324,0.216-0.54,0.432-0.864l0,0c0.108-0.216,0.324-0.323,0.54-0.432c0.108-0.108,0.108-0.108,0.216-0.216
			c0.324-0.216,0.54-0.324,0.973-0.433V81z M82.62,114.695c-0.216-0.54-0.54-1.08-0.972-1.512s-0.973-0.756-1.62-1.08
			c-0.648-0.216-1.296-0.432-2.052-0.432c-0.648,0-1.296,0.107-1.729,0.216c-0.54,0.216-0.972,0.432-1.404,0.756
			c-0.216,0.108-0.432,0.324-0.539,0.432l0,0c-0.217,0.217-0.324,0.324-0.54,0.54c-0.324,0.324-0.54,0.757-0.648,1.188h2.484
			c0.107-0.216,0.216-0.433,0.432-0.54l0.108-0.108c0.107-0.107,0.323-0.216,0.432-0.323c0.432-0.217,0.972-0.324,1.512-0.324
			c0.324,0,0.648,0.107,1.08,0.216c0.324,0.108,0.648,0.324,0.973,0.54c0.323,0.216,0.539,0.54,0.756,0.864
			c0.216,0.323,0.323,0.647,0.432,1.08h-8.1c0,0.216,0,0.432,0,0.647c0,0.648,0.107,1.188,0.216,1.729
			c0.216,0.54,0.432,0.972,0.756,1.403c0.216,0.216,0.324,0.433,0.54,0.648c0.432,0.324,0.864,0.647,1.404,0.864
			c0.107,0,0.216,0.107,0.216,0.107c0.432,0.108,0.756,0.216,1.188,0.216c0.216,0,0.433,0,0.648,0c0.756,0,1.512-0.107,2.052-0.432
			c0.648-0.216,1.188-0.54,1.62-0.972c0.432-0.433,0.756-0.973,0.972-1.62c0.324-0.648,0.433-1.404,0.433-2.16
			C83.053,116.1,82.944,115.344,82.62,114.695z M80.568,118.8c-0.216,0.324-0.432,0.54-0.648,0.756
			c-0.216,0.216-0.54,0.324-0.863,0.54c-0.324,0.107-0.648,0.216-1.08,0.216c-0.217,0-0.433,0-0.648-0.107
			c-0.107,0-0.216-0.108-0.432-0.108c-0.324-0.108-0.54-0.216-0.864-0.432l0,0c-0.216-0.108-0.324-0.324-0.432-0.54
			c-0.108-0.108-0.108-0.108-0.216-0.217c-0.217-0.323-0.324-0.54-0.433-0.972h5.94C80.893,118.151,80.784,118.476,80.568,118.8z
			 M83.053,39.096c0-0.648-0.108-1.188-0.217-1.729c-0.216-0.54-0.432-1.079-0.756-1.403c-0.216-0.216-0.324-0.433-0.54-0.648
			c-0.432-0.324-0.864-0.647-1.403-0.864c-0.108,0-0.217-0.107-0.217-0.107c-0.432-0.108-0.756-0.216-1.188-0.216
			c-0.216,0-0.433,0-0.648,0c-0.756,0-1.512,0.107-2.16,0.432c-0.647,0.216-1.188,0.54-1.619,0.972
			c-0.433,0.433-0.757,0.973-0.973,1.62c-0.324,0.648-0.432,1.404-0.432,2.16s0.107,1.512,0.432,2.16
			c0.216,0.54,0.54,1.08,0.973,1.512c0.432,0.433,0.972,0.756,1.619,0.973c0.648,0.216,1.297,0.432,2.16,0.432
			c0.648,0,1.188-0.108,1.729-0.216c0.54-0.217,1.08-0.433,1.403-0.757c0.217-0.107,0.433-0.323,0.54-0.432l0,0
			c0.217-0.216,0.324-0.324,0.54-0.54c0.324-0.324,0.54-0.756,0.648-1.188H80.46c-0.107,0.216-0.216,0.432-0.432,0.54l-0.108,0.107
			c-0.107,0.108-0.324,0.216-0.432,0.324c-0.432,0.216-0.864,0.324-1.512,0.324c-0.324,0-0.648-0.108-1.08-0.216
			c-0.324-0.108-0.648-0.324-0.973-0.54c-0.323-0.217-0.539-0.54-0.756-0.864c-0.216-0.324-0.324-0.648-0.432-1.08h8.208
			C83.053,39.527,83.053,39.312,83.053,39.096z M74.952,38.124c0.108-0.324,0.216-0.648,0.433-0.973
			c0.216-0.324,0.432-0.54,0.647-0.756s0.54-0.324,0.864-0.54c0.324-0.107,0.647-0.216,1.08-0.216c0.216,0,0.432,0,0.647,0.108
			c0.108,0,0.216,0.107,0.433,0.107c0.323,0.108,0.539,0.216,0.863,0.433l0,0c0.108,0.107,0.324,0.323,0.433,0.539
			c0.107,0.108,0.107,0.108,0.216,0.217c0.216,0.323,0.324,0.54,0.432,0.972h-6.048V38.124z M82.62,114.695
			c-0.216-0.54-0.54-1.08-0.972-1.512s-0.973-0.756-1.62-1.08c-0.648-0.216-1.296-0.432-2.052-0.432
			c-0.648,0-1.296,0.107-1.729,0.216c-0.54,0.216-0.972,0.432-1.404,0.756c-0.216,0.108-0.432,0.324-0.539,0.432l0,0
			c-0.217,0.217-0.324,0.324-0.54,0.54c-0.324,0.324-0.54,0.757-0.648,1.188h2.484c0.107-0.216,0.216-0.433,0.432-0.54l0.108-0.108
			c0.107-0.107,0.323-0.216,0.432-0.323c0.432-0.217,0.972-0.324,1.512-0.324c0.324,0,0.648,0.107,1.08,0.216
			c0.324,0.108,0.648,0.324,0.973,0.54c0.323,0.216,0.539,0.54,0.756,0.864c0.216,0.323,0.323,0.647,0.432,1.08h-8.1
			c0,0.216,0,0.432,0,0.647c0,0.648,0.107,1.188,0.216,1.729c0.216,0.54,0.432,0.972,0.756,1.403
			c0.216,0.216,0.324,0.433,0.54,0.648c0.432,0.324,0.864,0.647,1.404,0.864c0.107,0,0.216,0.107,0.216,0.107
			c0.432,0.108,0.756,0.216,1.188,0.216c0.216,0,0.433,0,0.648,0c0.756,0,1.512-0.107,2.052-0.432
			c0.648-0.216,1.188-0.54,1.62-0.972c0.432-0.433,0.756-0.973,0.972-1.62c0.324-0.648,0.433-1.404,0.433-2.16
			C83.053,116.1,82.944,115.344,82.62,114.695z M80.568,118.8c-0.216,0.324-0.432,0.54-0.648,0.756
			c-0.216,0.216-0.54,0.324-0.863,0.54c-0.324,0.107-0.648,0.216-1.08,0.216c-0.217,0-0.433,0-0.648-0.107
			c-0.107,0-0.216-0.108-0.432-0.108c-0.324-0.108-0.54-0.216-0.864-0.432l0,0c-0.216-0.108-0.324-0.324-0.432-0.54
			c-0.108-0.108-0.108-0.108-0.216-0.217c-0.217-0.323-0.324-0.54-0.433-0.972h5.94C80.893,118.151,80.784,118.476,80.568,118.8z
			 M43.849,76.248c-0.217-0.54-0.433-1.08-0.757-1.404c-0.107-0.216-0.323-0.433-0.432-0.54l0,0c-0.216-0.216-0.324-0.324-0.54-0.54
			c-0.324-0.324-0.756-0.54-1.188-0.648V75.6c0.216,0.108,0.432,0.216,0.54,0.432l0.107,0.108c0.108,0.108,0.216,0.324,0.324,0.432
			c0.216,0.433,0.324,0.864,0.324,1.513c0,0.323-0.108,0.647-0.216,1.079c-0.108,0.324-0.324,0.648-0.54,0.973
			c-0.217,0.324-0.54,0.54-0.864,0.756s-0.648,0.324-1.08,0.432v-8.1c-0.216,0-0.432,0-0.648,0c-0.647,0-1.296,0.108-1.728,0.216
			c-0.54,0.216-1.08,0.433-1.404,0.756c-0.216,0.108-0.432,0.324-0.647,0.54c-0.324,0.433-0.648,0.864-0.864,1.404
			c0,0.108-0.108,0.216-0.108,0.216c-0.107,0.433-0.216,0.756-0.216,1.188c0,0.216,0,0.432,0,0.647c0,0.756,0.108,1.513,0.432,2.16
			c0.217,0.648,0.541,1.08,0.973,1.62c0.432,0.432,0.972,0.756,1.62,0.972c0.647,0.324,1.403,0.433,2.159,0.433
			c0.757,0,1.513-0.108,2.16-0.433c0.648-0.216,1.08-0.54,1.513-0.972c0.432-0.432,0.756-0.972,1.08-1.62
			c0.216-0.647,0.432-1.296,0.432-2.16C44.172,77.327,44.064,76.788,43.849,76.248z M38.017,81
			c-0.324-0.108-0.648-0.217-0.973-0.433c-0.323-0.216-0.54-0.432-0.756-0.647c-0.216-0.217-0.324-0.54-0.432-0.864
			c-0.108-0.324-0.216-0.648-0.216-1.08c0-0.216,0-0.432,0.107-0.648c0-0.107,0.108-0.216,0.108-0.432
			c0.108-0.324,0.216-0.54,0.432-0.864l0,0c0.108-0.216,0.324-0.323,0.54-0.432c0.108-0.108,0.108-0.108,0.216-0.216
			c0.324-0.216,0.54-0.324,0.973-0.433V81z M83.053,39.096c0-0.648-0.108-1.188-0.217-1.729c-0.216-0.54-0.432-1.079-0.756-1.403
			c-0.216-0.216-0.324-0.433-0.54-0.648c-0.432-0.324-0.864-0.647-1.403-0.864c-0.108,0-0.217-0.107-0.217-0.107
			c-0.432-0.108-0.756-0.216-1.188-0.216c-0.216,0-0.433,0-0.648,0c-0.756,0-1.512,0.107-2.16,0.432
			c-0.647,0.216-1.188,0.54-1.619,0.972c-0.433,0.433-0.757,0.973-0.973,1.62c-0.324,0.648-0.432,1.404-0.432,2.16
			s0.107,1.512,0.432,2.16c0.216,0.54,0.54,1.08,0.973,1.512c0.432,0.433,0.972,0.756,1.619,0.973
			c0.648,0.216,1.297,0.432,2.16,0.432c0.648,0,1.188-0.108,1.729-0.216c0.54-0.217,1.08-0.433,1.403-0.757
			c0.217-0.107,0.433-0.323,0.54-0.432l0,0c0.217-0.216,0.324-0.324,0.54-0.54c0.324-0.324,0.54-0.756,0.648-1.188H80.46
			c-0.107,0.216-0.216,0.432-0.432,0.54l-0.108,0.107c-0.107,0.108-0.324,0.216-0.432,0.324c-0.432,0.216-0.864,0.324-1.512,0.324
			c-0.324,0-0.648-0.108-1.08-0.216c-0.324-0.108-0.648-0.324-0.973-0.54c-0.323-0.217-0.539-0.54-0.756-0.864
			c-0.216-0.324-0.324-0.648-0.432-1.08h8.208C83.053,39.527,83.053,39.312,83.053,39.096z M74.952,38.124
			c0.108-0.324,0.216-0.648,0.433-0.973c0.216-0.324,0.432-0.54,0.647-0.756s0.54-0.324,0.864-0.54
			c0.324-0.107,0.647-0.216,1.08-0.216c0.216,0,0.432,0,0.647,0.108c0.108,0,0.216,0.107,0.433,0.107
			c0.323,0.108,0.539,0.216,0.863,0.433l0,0c0.108,0.107,0.324,0.323,0.433,0.539c0.107,0.108,0.107,0.108,0.216,0.217
			c0.216,0.323,0.324,0.54,0.432,0.972h-6.048V38.124z M43.849,76.248c-0.217-0.54-0.433-1.08-0.757-1.404
			c-0.107-0.216-0.323-0.433-0.432-0.54l0,0c-0.216-0.216-0.324-0.324-0.54-0.54c-0.324-0.324-0.756-0.54-1.188-0.648V75.6
			c0.216,0.108,0.432,0.216,0.54,0.432l0.107,0.108c0.108,0.108,0.216,0.324,0.324,0.432c0.216,0.433,0.324,0.864,0.324,1.513
			c0,0.323-0.108,0.647-0.216,1.079c-0.108,0.324-0.324,0.648-0.54,0.973c-0.217,0.324-0.54,0.54-0.864,0.756
			s-0.648,0.324-1.08,0.432v-8.1c-0.216,0-0.432,0-0.648,0c-0.647,0-1.296,0.108-1.728,0.216c-0.54,0.216-1.08,0.433-1.404,0.756
			c-0.216,0.108-0.432,0.324-0.647,0.54c-0.324,0.433-0.648,0.864-0.864,1.404c0,0.108-0.108,0.216-0.108,0.216
			c-0.107,0.433-0.216,0.756-0.216,1.188c0,0.216,0,0.432,0,0.647c0,0.756,0.108,1.513,0.432,2.16
			c0.217,0.648,0.541,1.08,0.973,1.62c0.432,0.432,0.972,0.756,1.62,0.972c0.647,0.324,1.403,0.433,2.159,0.433
			c0.757,0,1.513-0.108,2.16-0.433c0.648-0.216,1.08-0.54,1.513-0.972c0.432-0.432,0.756-0.972,1.08-1.62
			c0.216-0.647,0.432-1.296,0.432-2.16C44.172,77.327,44.064,76.788,43.849,76.248z M38.017,81
			c-0.324-0.108-0.648-0.217-0.973-0.433c-0.323-0.216-0.54-0.432-0.756-0.647c-0.216-0.217-0.324-0.54-0.432-0.864
			c-0.108-0.324-0.216-0.648-0.216-1.08c0-0.216,0-0.432,0.107-0.648c0-0.107,0.108-0.216,0.108-0.432
			c0.108-0.324,0.216-0.54,0.432-0.864l0,0c0.108-0.216,0.324-0.323,0.54-0.432c0.108-0.108,0.108-0.108,0.216-0.216
			c0.324-0.216,0.54-0.324,0.973-0.433V81z M82.62,114.695c-0.216-0.54-0.54-1.08-0.972-1.512s-0.973-0.756-1.62-1.08
			c-0.648-0.216-1.296-0.432-2.052-0.432c-0.648,0-1.296,0.107-1.729,0.216c-0.54,0.216-0.972,0.432-1.404,0.756
			c-0.216,0.108-0.432,0.324-0.539,0.432l0,0c-0.217,0.217-0.324,0.324-0.54,0.54c-0.324,0.324-0.54,0.757-0.648,1.188h2.484
			c0.107-0.216,0.216-0.433,0.432-0.54l0.108-0.108c0.107-0.107,0.323-0.216,0.432-0.323c0.432-0.217,0.972-0.324,1.512-0.324
			c0.324,0,0.648,0.107,1.08,0.216c0.324,0.108,0.648,0.324,0.973,0.54c0.323,0.216,0.539,0.54,0.756,0.864
			c0.216,0.323,0.323,0.647,0.432,1.08h-8.1c0,0.216,0,0.432,0,0.647c0,0.648,0.107,1.188,0.216,1.729
			c0.216,0.54,0.432,0.972,0.756,1.403c0.216,0.216,0.324,0.433,0.54,0.648c0.432,0.324,0.864,0.647,1.404,0.864
			c0.107,0,0.216,0.107,0.216,0.107c0.432,0.108,0.756,0.216,1.188,0.216c0.216,0,0.433,0,0.648,0c0.756,0,1.512-0.107,2.052-0.432
			c0.648-0.216,1.188-0.54,1.62-0.972c0.432-0.433,0.756-0.973,0.972-1.62c0.324-0.648,0.433-1.404,0.433-2.16
			C83.053,116.1,82.944,115.344,82.62,114.695z M80.568,118.8c-0.216,0.324-0.432,0.54-0.648,0.756
			c-0.216,0.216-0.54,0.324-0.863,0.54c-0.324,0.107-0.648,0.216-1.08,0.216c-0.217,0-0.433,0-0.648-0.107
			c-0.107,0-0.216-0.108-0.432-0.108c-0.324-0.108-0.54-0.216-0.864-0.432l0,0c-0.216-0.108-0.324-0.324-0.432-0.54
			c-0.108-0.108-0.108-0.108-0.216-0.217c-0.217-0.323-0.324-0.54-0.433-0.972h5.94C80.893,118.151,80.784,118.476,80.568,118.8z
			 M83.053,39.096c0-0.648-0.108-1.188-0.217-1.729c-0.216-0.54-0.432-1.079-0.756-1.403c-0.216-0.216-0.324-0.433-0.54-0.648
			c-0.432-0.324-0.864-0.647-1.403-0.864c-0.108,0-0.217-0.107-0.217-0.107c-0.432-0.108-0.756-0.216-1.188-0.216
			c-0.216,0-0.433,0-0.648,0c-0.756,0-1.512,0.107-2.16,0.432c-0.647,0.216-1.188,0.54-1.619,0.972
			c-0.433,0.433-0.757,0.973-0.973,1.62c-0.324,0.648-0.432,1.404-0.432,2.16s0.107,1.512,0.432,2.16
			c0.216,0.54,0.54,1.08,0.973,1.512c0.432,0.433,0.972,0.756,1.619,0.973c0.648,0.216,1.297,0.432,2.16,0.432
			c0.648,0,1.188-0.108,1.729-0.216c0.54-0.217,1.08-0.433,1.403-0.757c0.217-0.107,0.433-0.323,0.54-0.432l0,0
			c0.217-0.216,0.324-0.324,0.54-0.54c0.324-0.324,0.54-0.756,0.648-1.188H80.46c-0.107,0.216-0.216,0.432-0.432,0.54l-0.108,0.107
			c-0.107,0.108-0.324,0.216-0.432,0.324c-0.432,0.216-0.864,0.324-1.512,0.324c-0.324,0-0.648-0.108-1.08-0.216
			c-0.324-0.108-0.648-0.324-0.973-0.54c-0.323-0.217-0.539-0.54-0.756-0.864c-0.216-0.324-0.324-0.648-0.432-1.08h8.208
			C83.053,39.527,83.053,39.312,83.053,39.096z M74.952,38.124c0.108-0.324,0.216-0.648,0.433-0.973
			c0.216-0.324,0.432-0.54,0.647-0.756s0.54-0.324,0.864-0.54c0.324-0.107,0.647-0.216,1.08-0.216c0.216,0,0.432,0,0.647,0.108
			c0.108,0,0.216,0.107,0.433,0.107c0.323,0.108,0.539,0.216,0.863,0.433l0,0c0.108,0.107,0.324,0.323,0.433,0.539
			c0.107,0.108,0.107,0.108,0.216,0.217c0.216,0.323,0.324,0.54,0.432,0.972h-6.048V38.124z M82.62,114.695
			c-0.216-0.54-0.54-1.08-0.972-1.512s-0.973-0.756-1.62-1.08c-0.648-0.216-1.296-0.432-2.052-0.432
			c-0.648,0-1.296,0.107-1.729,0.216c-0.54,0.216-0.972,0.432-1.404,0.756c-0.216,0.108-0.432,0.324-0.539,0.432l0,0
			c-0.217,0.217-0.324,0.324-0.54,0.54c-0.324,0.324-0.54,0.757-0.648,1.188h2.484c0.107-0.216,0.216-0.433,0.432-0.54l0.108-0.108
			c0.107-0.107,0.323-0.216,0.432-0.323c0.432-0.217,0.972-0.324,1.512-0.324c0.324,0,0.648,0.107,1.08,0.216
			c0.324,0.108,0.648,0.324,0.973,0.54c0.323,0.216,0.539,0.54,0.756,0.864c0.216,0.323,0.323,0.647,0.432,1.08h-8.1
			c0,0.216,0,0.432,0,0.647c0,0.648,0.107,1.188,0.216,1.729c0.216,0.54,0.432,0.972,0.756,1.403
			c0.216,0.216,0.324,0.433,0.54,0.648c0.432,0.324,0.864,0.647,1.404,0.864c0.107,0,0.216,0.107,0.216,0.107
			c0.432,0.108,0.756,0.216,1.188,0.216c0.216,0,0.433,0,0.648,0c0.756,0,1.512-0.107,2.052-0.432
			c0.648-0.216,1.188-0.54,1.62-0.972c0.432-0.433,0.756-0.973,0.972-1.62c0.324-0.648,0.433-1.404,0.433-2.16
			C83.053,116.1,82.944,115.344,82.62,114.695z M80.568,118.8c-0.216,0.324-0.432,0.54-0.648,0.756
			c-0.216,0.216-0.54,0.324-0.863,0.54c-0.324,0.107-0.648,0.216-1.08,0.216c-0.217,0-0.433,0-0.648-0.107
			c-0.107,0-0.216-0.108-0.432-0.108c-0.324-0.108-0.54-0.216-0.864-0.432l0,0c-0.216-0.108-0.324-0.324-0.432-0.54
			c-0.108-0.108-0.108-0.108-0.216-0.217c-0.217-0.323-0.324-0.54-0.433-0.972h5.94C80.893,118.151,80.784,118.476,80.568,118.8z
			 M43.849,76.248c-0.217-0.54-0.433-1.08-0.757-1.404c-0.107-0.216-0.323-0.433-0.432-0.54l0,0c-0.216-0.216-0.324-0.324-0.54-0.54
			c-0.324-0.324-0.756-0.54-1.188-0.648V75.6c0.216,0.108,0.432,0.216,0.54,0.432l0.107,0.108c0.108,0.108,0.216,0.324,0.324,0.432
			c0.216,0.433,0.324,0.864,0.324,1.513c0,0.323-0.108,0.647-0.216,1.079c-0.108,0.324-0.324,0.648-0.54,0.973
			c-0.217,0.324-0.54,0.54-0.864,0.756s-0.648,0.324-1.08,0.432v-8.1c-0.216,0-0.432,0-0.648,0c-0.647,0-1.296,0.108-1.728,0.216
			c-0.54,0.216-1.08,0.433-1.404,0.756c-0.216,0.108-0.432,0.324-0.647,0.54c-0.324,0.433-0.648,0.864-0.864,1.404
			c0,0.108-0.108,0.216-0.108,0.216c-0.107,0.433-0.216,0.756-0.216,1.188c0,0.216,0,0.432,0,0.647c0,0.756,0.108,1.513,0.432,2.16
			c0.217,0.648,0.541,1.08,0.973,1.62c0.432,0.432,0.972,0.756,1.62,0.972c0.647,0.324,1.403,0.433,2.159,0.433
			c0.757,0,1.513-0.108,2.16-0.433c0.648-0.216,1.08-0.54,1.513-0.972c0.432-0.432,0.756-0.972,1.08-1.62
			c0.216-0.647,0.432-1.296,0.432-2.16C44.172,77.327,44.064,76.788,43.849,76.248z M38.017,81
			c-0.324-0.108-0.648-0.217-0.973-0.433c-0.323-0.216-0.54-0.432-0.756-0.647c-0.216-0.217-0.324-0.54-0.432-0.864
			c-0.108-0.324-0.216-0.648-0.216-1.08c0-0.216,0-0.432,0.107-0.648c0-0.107,0.108-0.216,0.108-0.432
			c0.108-0.324,0.216-0.54,0.432-0.864l0,0c0.108-0.216,0.324-0.323,0.54-0.432c0.108-0.108,0.108-0.108,0.216-0.216
			c0.324-0.216,0.54-0.324,0.973-0.433V81z M82.62,114.695c-0.216-0.54-0.54-1.08-0.972-1.512s-0.973-0.756-1.62-1.08
			c-0.648-0.216-1.296-0.432-2.052-0.432c-0.648,0-1.296,0.107-1.729,0.216c-0.54,0.216-0.972,0.432-1.404,0.756
			c-0.216,0.108-0.432,0.324-0.539,0.432l0,0c-0.217,0.217-0.324,0.324-0.54,0.54c-0.324,0.324-0.54,0.757-0.648,1.188h2.484
			c0.107-0.216,0.216-0.433,0.432-0.54l0.108-0.108c0.107-0.107,0.323-0.216,0.432-0.323c0.432-0.217,0.972-0.324,1.512-0.324
			c0.324,0,0.648,0.107,1.08,0.216c0.324,0.108,0.648,0.324,0.973,0.54c0.323,0.216,0.539,0.54,0.756,0.864
			c0.216,0.323,0.323,0.647,0.432,1.08h-8.1c0,0.216,0,0.432,0,0.647c0,0.648,0.107,1.188,0.216,1.729
			c0.216,0.54,0.432,0.972,0.756,1.403c0.216,0.216,0.324,0.433,0.54,0.648c0.432,0.324,0.864,0.647,1.404,0.864
			c0.107,0,0.216,0.107,0.216,0.107c0.432,0.108,0.756,0.216,1.188,0.216c0.216,0,0.433,0,0.648,0c0.756,0,1.512-0.107,2.052-0.432
			c0.648-0.216,1.188-0.54,1.62-0.972c0.432-0.433,0.756-0.973,0.972-1.62c0.324-0.648,0.433-1.404,0.433-2.16
			C83.053,116.1,82.944,115.344,82.62,114.695z M80.568,118.8c-0.216,0.324-0.432,0.54-0.648,0.756
			c-0.216,0.216-0.54,0.324-0.863,0.54c-0.324,0.107-0.648,0.216-1.08,0.216c-0.217,0-0.433,0-0.648-0.107
			c-0.107,0-0.216-0.108-0.432-0.108c-0.324-0.108-0.54-0.216-0.864-0.432l0,0c-0.216-0.108-0.324-0.324-0.432-0.54
			c-0.108-0.108-0.108-0.108-0.216-0.217c-0.217-0.323-0.324-0.54-0.433-0.972h5.94C80.893,118.151,80.784,118.476,80.568,118.8z
			 M82.62,114.695c-0.216-0.54-0.54-1.08-0.972-1.512s-0.973-0.756-1.62-1.08c-0.648-0.216-1.296-0.432-2.052-0.432
			c-0.648,0-1.296,0.107-1.729,0.216c-0.54,0.216-0.972,0.432-1.404,0.756c-0.216,0.108-0.432,0.324-0.539,0.432l0,0
			c-0.217,0.217-0.324,0.324-0.54,0.54c-0.324,0.324-0.54,0.757-0.648,1.188h2.484c0.107-0.216,0.216-0.433,0.432-0.54l0.108-0.108
			c0.107-0.107,0.323-0.216,0.432-0.323c0.432-0.217,0.972-0.324,1.512-0.324c0.324,0,0.648,0.107,1.08,0.216
			c0.324,0.108,0.648,0.324,0.973,0.54c0.323,0.216,0.539,0.54,0.756,0.864c0.216,0.323,0.323,0.647,0.432,1.08h-8.1
			c0,0.216,0,0.432,0,0.647c0,0.648,0.107,1.188,0.216,1.729c0.216,0.54,0.432,0.972,0.756,1.403
			c0.216,0.216,0.324,0.433,0.54,0.648c0.432,0.324,0.864,0.647,1.404,0.864c0.107,0,0.216,0.107,0.216,0.107
			c0.432,0.108,0.756,0.216,1.188,0.216c0.216,0,0.433,0,0.648,0c0.756,0,1.512-0.107,2.052-0.432
			c0.648-0.216,1.188-0.54,1.62-0.972c0.432-0.433,0.756-0.973,0.972-1.62c0.324-0.648,0.433-1.404,0.433-2.16
			C83.053,116.1,82.944,115.344,82.62,114.695z M80.568,118.8c-0.216,0.324-0.432,0.54-0.648,0.756
			c-0.216,0.216-0.54,0.324-0.863,0.54c-0.324,0.107-0.648,0.216-1.08,0.216c-0.217,0-0.433,0-0.648-0.107
			c-0.107,0-0.216-0.108-0.432-0.108c-0.324-0.108-0.54-0.216-0.864-0.432l0,0c-0.216-0.108-0.324-0.324-0.432-0.54
			c-0.108-0.108-0.108-0.108-0.216-0.217c-0.217-0.323-0.324-0.54-0.433-0.972h5.94C80.893,118.151,80.784,118.476,80.568,118.8z"/>
	</g>
</g>
</svg>
