<svg width="54" height="54" viewBox="0 0 54 54" fill="none" xmlns="http://www.w3.org/2000/svg">
<g id="Group 1000001827">
<path id="Vector" d="M27.0001 21.6351C19.6661 21.6351 13.7174 27.5838 13.7174 34.9178C13.7174 42.2518 19.6525 48.2005 27.0001 48.2005C34.3477 48.2005 40.2556 42.2518 40.2556 34.9178C40.2556 27.5838 34.3205 21.6351 27.0001 21.6351ZM27.0001 45.9188C20.9292 45.9188 15.9855 40.9752 15.9855 34.9042C15.9855 28.8333 20.9292 23.9168 27.0001 23.9168C33.071 23.9168 37.9875 28.8333 37.9875 34.9042C37.9875 40.9752 33.071 45.9188 27.0001 45.9188Z" fill="black"/>
<path id="Vector_2" d="M27 45.9057C33.0757 45.9057 38.001 40.9804 38.001 34.9047C38.001 28.829 33.0757 23.9037 27 23.9037C20.9243 23.9037 15.999 28.829 15.999 34.9047C15.999 40.9804 20.9243 45.9057 27 45.9057Z" fill="#4284C5"/>
<path id="Vector_3" d="M52.8728 3.599H1.45325V18.2263H52.8728V3.599Z" fill="#4284C5"/>
<path id="Vector_4" d="M41.668 3.43612V0.814889C41.668 0.3667 41.3013 0 40.8531 0H39.1147C38.6665 0 38.2998 0.3667 38.2998 0.814889V3.42254H15.7138V0.814889C15.7138 0.3667 15.3471 0 14.8989 0H13.1605C12.7123 0 12.3456 0.3667 12.3456 0.814889V3.42254H0V53.7827H54V3.43612H41.668ZM13.1469 10.6615H14.8853C15.3335 10.6615 15.7002 10.2948 15.7002 9.84658V5.81288H38.2862V9.84658C38.2862 10.2948 38.6529 10.6615 39.1011 10.6615H40.8395C41.2877 10.6615 41.6544 10.2948 41.6544 9.84658V5.81288H51.6097V16.162H2.37676V5.81288H12.332V9.84658C12.332 10.2948 12.6987 10.6615 13.1469 10.6615ZM2.37676 51.4195V18.4029H51.6232V51.4195H2.37676Z" fill="black"/>
<path id="Vector_5" d="M31.9164 30.762C31.5633 30.6262 31.0201 30.5719 30.4904 31.1015L25.506 36.0859L23.5095 34.0895C23.5095 34.0895 23.3737 33.9537 23.2922 33.8993C23.0341 33.6956 22.6946 33.6141 22.3686 33.6549C22.0427 33.6956 21.7303 33.8722 21.5402 34.1302C21.1327 34.6599 21.2006 35.339 21.6896 35.8415L24.5281 38.68C24.8405 38.9924 25.1664 39.1418 25.5196 39.1554C25.8591 39.1554 26.1986 38.9924 26.511 38.6936L31.346 33.8586C31.6855 33.519 32.0251 33.1931 32.351 32.8536C32.6634 32.5412 32.7856 32.1066 32.7042 31.6855C32.6227 31.2781 32.3239 30.9521 31.93 30.7892L31.9164 30.762Z" fill="black"/>
</g>
</svg>
