<?xml version="1.0" encoding="utf-8"?>
<!-- Generator: Adobe Illustrator 27.3.1, SVG Export Plug-In . SVG Version: 6.00 Build 0)  -->
<svg version="1.1" id="Layer_1" xmlns="http://www.w3.org/2000/svg" xmlns:xlink="http://www.w3.org/1999/xlink" x="0px" y="0px"
	 viewBox="0 0 100 100" style="enable-background:new 0 0 100 100;" xml:space="preserve">
<g>
	<path d="M65.9,25.8c-0.7-5.9-3.3-10.9-7.7-14.8c-5.3-4.7-11.5-6.7-18.3-6c-5.5,0.6-10.3,2.8-14.2,6.7c-4.4,4.4-6.8,9.8-7.1,16.2
		c-0.1,3,0.4,6,1.5,9c2,5.4,5.6,9.6,10.8,12.6l0.4,0.2L30,50.3C20.3,53.7,12.9,60,8,69c-2.4,4.3-3.8,9-4.4,13.9
		c-0.1,1.3-0.2,2.7-0.3,4.5c0,1.2,0.6,2.1,1.6,2.3c0.2,0.1,0.5,0.1,0.7,0.1c0.5,0,1-0.1,1.3-0.4c0.5-0.4,0.9-1.1,0.9-2l0-0.5
		c0-1.3,0.1-2.7,0.3-4c0.6-4.5,2-8.8,4.3-12.8c4.1-7,9.8-12,17.2-15.1c3.4-1.4,6.9-2.3,10.3-2.5c0.6,0,1.1-0.1,1.7-0.1
		c1.3-0.1,2.7-0.1,4.1-0.3c5-0.7,9.4-2.7,12.9-6.2C64.4,40.5,66.8,33.7,65.9,25.8z M56.4,42c-3.8,4-8.9,6.2-14.1,6h0h0
		c-5,0.1-9.7-1.8-13.4-5.4c-3.8-3.7-6-8.8-6-13.9c0-5.2,2.2-10.3,6.2-14.1c3.9-3.7,9-5.6,14.3-5.3c10.8,0.6,18.1,10,18.1,18.4
		C62,32.9,60.1,38.1,56.4,42z"/>
	<path d="M94.6,74.4c-0.9-1-1.7-2-2.6-3c-0.8-1-0.8-2.1,0-3.2c0.4-0.5,0.8-1.1,1.2-1.6c0.5-0.5,0.9-1.1,1.4-1.6
		c0.5-0.7,1.1-1.3,1.6-2l0.1-0.1c0.2-0.2,0.5-0.6,0.2-1.1c-0.2-0.5-0.4-1-0.6-1.5c-0.2-0.4-0.3-0.9-0.5-1.3
		c-0.8-1.7-1.8-3.9-3.6-5.7c-0.3-0.3-0.6-0.6-1.2-0.5c-2.1,0.3-4.3,0.6-6.6,0.9c-1.6,0.2-2.5-0.4-3.1-2c-0.7-2-1.4-3.9-2.1-5.9
		c-0.2-0.6-0.6-0.9-1.2-0.9c-0.5,0-0.9-0.1-1.4-0.2c-2.4-0.4-4.3-0.6-6.1-0.4c-0.6,0.1-1.3,0.2-1.9,0.2c-0.8,0.1-1.5,0.2-2.3,0.3
		c-0.7,0.1-1,0.4-1.3,1c-0.7,2-1.4,4-2.1,5.8c-0.6,1.5-1.8,2.2-3.3,2c-1.1-0.2-2.1-0.3-3.2-0.5c-0.8-0.1-1.5-0.3-2.4-0.4l-1.3-0.2
		l-0.2,0.1c-0.1,0.1-0.2,0.2-0.4,0.3c-2.3,2.5-4,5.4-5.3,9.1c-0.1,0.3,0,0.7,0.2,0.9c0.8,1,1.6,2,2.5,3c0.6,0.7,1.2,1.4,1.7,2.1
		c1.1,1.3,1.1,2.3,0,3.6c-1.4,1.6-2.8,3.2-4.2,4.7l-0.1,0.1c-0.3,0.4-0.4,0.8-0.2,1.2c0.1,0.2,0.2,0.5,0.3,0.7
		c0.1,0.2,0.1,0.4,0.2,0.7c0.9,2.3,2.2,5.2,4.5,7.4c0.2,0.2,0.5,0.4,0.9,0.4c0.3,0,0.6,0,0.9-0.1c0.1,0,0.2,0,0.3-0.1
		c0.6-0.1,1.2-0.2,1.9-0.3c1.4-0.2,2.8-0.4,4.2-0.6c1.4-0.1,2.2,0.4,2.7,1.8l0.5,1.4c0.5,1.3,0.9,2.7,1.4,4.1
		c0.3,0.9,0.6,1.4,1.7,1.5l0.9,0.1c1.5,0.2,3,0.4,4.5,0.4c0.3,0,0.5,0,0.8,0c1-0.1,2-0.2,3-0.3c0.7-0.1,1.4-0.2,2.2-0.3
		c0.9-0.1,1.2-0.6,1.4-1.2c0.6-1.8,1.3-3.8,2.2-6.1c0.5-1.3,1.5-1.9,2.8-1.7c2.4,0.3,4.5,0.7,6.4,1c0.5,0.1,1.1,0.1,1.6-0.5
		c0.2-0.3,0.5-0.6,0.7-0.9c0.6-0.7,1.2-1.5,1.6-2.3c0.8-1.4,1.4-2.9,2.1-4.4l0.4-1c0.1-0.3-0.1-0.8-0.3-1
		C95.7,75.7,95.2,75.1,94.6,74.4z M54.6,64.7c-1-1.1-1.9-2.2-2.8-3.3c0,0-0.1-0.2-0.1-0.2c0.5-0.8,0.9-1.7,1.4-2.5
		c0.3-0.5,0.5-1,0.8-1.4c0.2-0.3,0.3-0.3,0.3-0.3l0.1-0.3l-0.1,0.3l1.8,0.3c1.1,0.2,2.2,0.3,3.2,0.5c3.1,0.5,6.2-1.3,7.4-4.2
		c0.6-1.5,1.2-3.1,1.7-4.5c0.1-0.4,0.3-0.4,0.5-0.5c2,0,3.9,0,5.9,0c0.3,0,0.5,0.2,0.7,0.7l0.4,1c0.4,1.1,0.7,2.2,1.2,3.3
		c1,2.5,3,3.9,5.7,4.1c1.5,0.1,3-0.1,4.5-0.3c0.5-0.1,0.9-0.1,1.4-0.2c0.6-0.1,0.8,0,1,0.4c0.3,0.6,0.7,1.2,1,1.8
		c0.4,0.7,0.8,1.4,1.2,2.1c0,0.1,0,0.2-0.1,0.3c-0.5,0.6-1,1.2-1.5,1.8c-0.5,0.5-0.9,1.1-1.4,1.6c-2.2,2.7-2.3,6.1-0.2,8.9
		c0.8,1.1,1.8,2.2,2.7,3.2l0.3,0.4c0.2,0.2,0.2,0.3,0.1,0.4L91,78.9c-0.6,1-1.1,2-1.7,3c0,0-0.2,0.1-0.3,0.1c-1-0.2-2-0.3-3-0.5
		c-0.6-0.1-1.2-0.2-1.8-0.3c-2.8-0.5-6,1.4-7.1,4.2c-0.4,0.9-0.7,1.9-1.1,2.9c-0.2,0.7-0.5,1.4-0.7,2c0,0.1-0.2,0.2-0.3,0.3
		c-2.2,0.3-4.4,0.3-6.5,0c-0.1,0-0.2-0.1-0.2-0.2c-0.3-0.9-0.6-1.8-0.9-2.7L67,86.2c-1-3-3.7-5-6.7-5c-0.1,0-0.3,0-0.4,0
		c-1.2,0.1-2.5,0.3-3.7,0.5l-0.9,0.2c-1.3,0.2-1.3,0.2-1.9-0.8c-0.4-0.6-0.7-1.3-1.1-1.9c-0.2-0.4-0.4-0.8-0.7-1.2
		c-0.1-0.2-0.1-0.3,0.1-0.6c0.9-1,1.9-2.2,2.9-3.4C57,71.1,56.9,67.4,54.6,64.7z"/>
	<path d="M71.6,78.8c0,0,0.1,0,0.1,0c5.1-0.1,9.2-4.2,9.1-9.2c0-2.4-1-4.7-2.8-6.4c-1.7-1.7-4-2.6-6.3-2.6c0,0-0.1,0-0.1,0
		c-2.4,0-4.7,1-6.4,2.8c-1.7,1.7-2.6,4-2.5,6.4C62.8,74.8,66.7,78.8,71.6,78.8z M76.4,69.8c0,1.3-0.5,2.5-1.4,3.3
		c-0.9,0.9-2,1.3-3.2,1.3c-1.3,0-2.5-0.5-3.4-1.5c-0.8-0.9-1.3-2-1.2-3.2c0.1-2.7,1.9-4.6,4.5-4.6c0,0,0.1,0,0.1,0
		c1.7,0,2.8,0.7,3.4,1.4C76,67.4,76.4,68.6,76.4,69.8L76.4,69.8z"/>
</g>
</svg>
