<?xml version="1.0" encoding="utf-8"?>
<!-- Generator: Adobe Illustrator 27.3.1, SVG Export Plug-In . SVG Version: 6.00 Build 0)  -->
<svg version="1.1" id="Layer_1" xmlns="http://www.w3.org/2000/svg" xmlns:xlink="http://www.w3.org/1999/xlink" x="0px" y="0px"
	 viewBox="0 0 100 100" style="enable-background:new 0 0 100 100;" xml:space="preserve">
<g>
	<path d="M95.7,47.2c0,1.9,0,3.8,0,5.7c-0.1,0.2-0.1,0.5-0.1,0.7c-0.5,7.1-2.6,13.8-6.3,19.8C82,85.2,71.5,92.4,57.9,95
		c-1.7,0.3-3.3,0.5-5,0.7c-1.9,0-3.8,0-5.7,0c-0.3-0.1-0.6-0.1-0.9-0.2c-1.9-0.3-3.8-0.4-5.7-0.8c-11-2.4-20-8-26.7-16.9
		C5.4,66.7,2.6,54.2,5.4,40.6c2.4-11.8,8.8-21.2,18.8-28.1C34.2,5.5,45.4,3,57.5,5c8.6,1.4,16.2,5,22.7,10.8
		c8,7.1,12.9,15.9,14.8,26.4C95.3,43.8,95.4,45.5,95.7,47.2z M89.6,50.1c0.1-21.8-17.7-39.6-39.5-39.6c-21.8,0-39.5,17.7-39.6,39.5
		c-0.1,21.8,17.7,39.6,39.5,39.7C71.7,89.7,89.5,71.9,89.6,50.1z"/>
	<path d="M47,37.7c0-4,0-8,0-12c0-1.6,1.1-2.8,2.7-3c1.5-0.2,2.9,0.8,3.3,2.3c0.1,0.4,0.1,0.8,0.1,1.2c0,7.1,0,14.3,0,21.4
		c0,0.7,0.2,1.1,0.7,1.6c4.4,3.5,8.8,7,13.2,10.6c1.5,1.2,1.7,3.2,0.5,4.5c-1.1,1.3-2.9,1.4-4.4,0.2c-2.8-2.2-5.6-4.5-8.4-6.7
		c-2-1.6-4-3.3-6.1-4.8c-1.2-0.9-1.8-2-1.7-3.6C47,45.4,47,41.6,47,37.7z"/>
</g>
</svg>
