<svg width="45" height="45" viewBox="0 0 45 45" fill="none" xmlns="http://www.w3.org/2000/svg">
<g id="Layer_1" clip-path="url(#clip0_2168_8468)">
<path id="Vector" d="M44.3599 0.107863C44.5372 0.279663 44.7158 0.450162 44.8932 0.621963C44.8853 0.838015 44.8697 1.05407 44.8697 1.27012C44.8697 7.14387 44.8671 13.0189 44.8697 18.8927C44.871 23.4441 44.8788 27.9955 44.8827 32.5469C44.6154 32.9816 44.2112 33.0662 43.7301 33.0649C37.8884 33.0558 32.0468 33.0584 26.2052 33.0584H25.4411C25.4411 33.5257 25.4176 33.9539 25.4463 34.3794C25.4894 35.0016 25.1021 35.3335 24.6066 35.2463C23.3926 35.0341 22.8254 35.5703 22.5738 36.6714C22.5099 36.95 22.3234 37.2011 22.133 37.589C22.4707 37.9001 22.8528 38.245 23.2257 38.599C23.6339 38.9855 23.626 39.3695 23.2244 39.7677C22.236 40.7426 21.2607 41.7304 20.2723 42.7066C19.8603 43.1126 19.2696 43.1035 18.8667 42.7066C18.2556 42.1018 17.5636 41.9573 16.7908 42.2732C16.7713 42.281 16.7543 42.2966 16.7348 42.3044C15.6629 42.7066 15.6668 42.7066 15.659 43.8259C15.6551 44.2606 15.7751 44.7643 15.1531 44.9178C15.1035 44.9452 15.0527 44.9725 15.0031 44.9998C13.4423 44.9998 11.8828 44.9998 10.322 44.9998C10.2686 44.9751 10.2164 44.9504 10.1629 44.9257C9.99603 44.6667 9.73655 44.4259 9.68569 44.146C9.60485 43.7061 9.66483 43.2402 9.66483 42.7404C8.92159 42.4189 8.17444 42.0949 7.40121 41.7591C7.08174 42.0857 6.7701 42.415 6.44673 42.7313C5.95123 43.2142 5.55484 43.2155 5.0789 42.7417C4.14007 41.8072 3.18951 40.8844 2.27154 39.9304C1.63 39.264 1.71737 39.0389 2.2585 38.5573C2.59752 38.2554 2.90264 37.9131 3.2221 37.5877C3.23645 37.5734 3.24297 37.5499 3.24427 37.5486C3.03564 37.0554 2.78007 36.5881 2.64055 36.0883C2.48799 35.543 2.22981 35.3374 1.64435 35.3842C1.18536 35.4207 0.623367 35.6094 0.285648 35.0719C0.157863 34.8675 0.0209501 34.6241 0.0170383 34.3964C-0.00773643 32.9868 0.0170383 31.576 8.71583e-05 30.1651C-0.0064325 29.5534 0.353453 29.2332 0.864594 29.3022C1.92339 29.4467 2.57014 29.1226 2.75921 28.0358C2.77355 27.9552 2.82049 27.8771 2.86613 27.8068C3.1869 27.3122 3.13996 26.9413 2.66924 26.504C1.51134 25.4289 1.53873 25.3534 2.66924 24.2224C3.43725 23.4558 4.20266 22.6853 4.97198 21.92C5.44792 21.4463 6.05555 21.4515 6.538 21.9265C7.14129 22.52 7.82672 22.6558 8.5943 22.3339C8.93854 22.1894 9.28669 22.0541 9.66614 21.9005C9.66614 21.4866 9.66092 21.0545 9.66614 20.6224C9.67657 19.9066 10.0547 19.5304 10.7706 19.5148C11.1396 19.507 11.5086 19.4992 11.8763 19.4927C11.9102 19.4562 11.9441 19.4198 11.978 19.382C11.9845 14.7421 11.991 10.1035 11.9976 5.46361C11.9989 3.94604 11.9793 2.42717 12.0158 0.9109C12.0223 0.638882 12.257 0.373372 12.3874 0.103958C12.4813 0.0766263 12.5739 0.0492944 12.6678 0.020661C12.819 0.0128519 12.9703 -0.00146484 13.1229 -0.00146484C23.334 -0.00146484 33.5463 -0.00146484 43.7574 -0.00146484C43.9087 -0.00146484 44.06 0.0154549 44.2112 0.0245655C44.2608 0.0518974 44.3103 0.0779278 44.3599 0.10526V0.107863ZM17.0946 27.9799C17.0646 28.0671 17.0347 28.1556 17.0034 28.2428C17.0034 30.8901 17.0047 33.5361 17.006 36.1834C17.0347 36.2315 17.062 36.2784 17.0907 36.3265C17.3958 36.9122 17.9839 36.8588 18.4181 36.2055C18.4546 36.087 18.5237 35.9686 18.5237 35.8515C18.5303 33.4072 18.5303 30.963 18.5237 28.52C18.5237 28.3794 18.4507 28.2402 18.4116 28.0996C17.7896 27.3916 17.6006 27.3747 17.0946 27.9812V27.9799ZM43.2945 1.55775C43.1642 1.55125 43.0351 1.53823 42.9047 1.53823C33.2595 1.53823 23.6156 1.53823 13.9704 1.53823C13.8413 1.53823 13.7109 1.55385 13.5818 1.56166C13.5362 1.75168 13.4501 1.9404 13.4501 2.13042C13.4436 7.76339 13.4436 13.3964 13.4462 19.0293C13.4462 19.2168 13.471 19.4029 13.4867 19.6111H15.0175C15.4934 19.7673 15.6668 20.12 15.6616 20.5938C15.6577 20.9191 15.616 21.2523 15.6773 21.5647C15.7164 21.7638 15.8729 22.0163 16.0463 22.1009C16.6448 22.3912 17.2746 22.6163 18.0504 22.9313C18.289 22.6541 18.5681 22.2935 18.8823 21.9695C19.3739 21.4606 19.8616 21.4489 20.3714 21.9434C21.3181 22.8649 22.2543 23.7968 23.1788 24.7404C23.6247 25.1959 23.6156 25.6775 23.1788 26.1421C22.8541 26.487 22.5047 26.8098 22.2334 27.0766C22.4955 27.7807 22.712 28.4328 22.9884 29.0588C23.0601 29.2202 23.3079 29.3764 23.4917 29.3998C23.8972 29.4506 24.3132 29.4142 24.7252 29.4168C25.1908 29.4194 25.4255 29.664 25.4398 30.1196C25.4541 30.5738 25.4581 31.0267 25.4672 31.481C25.6862 31.5304 25.9053 31.6228 26.1244 31.6228C31.6283 31.6306 37.1309 31.6293 42.6348 31.6267C42.8264 31.6267 43.0168 31.5903 43.2085 31.5708C43.2528 31.563 43.288 31.5421 43.3167 31.5083C43.3558 31.3066 43.4301 31.1061 43.4301 30.9044C43.4354 21.3161 43.4354 11.7278 43.4301 2.13953C43.4301 1.94561 43.3428 1.75298 43.2958 1.55906L43.2945 1.55775ZM8.81076 34.6202C9.57095 34.6202 10.309 34.6163 11.047 34.6202C11.5673 34.6241 12.2166 34.4549 12.5713 34.7009C12.9312 34.9508 12.9964 35.6198 13.1959 36.1027C13.3902 36.5725 13.7383 36.8914 14.2416 36.6805C14.6889 36.4931 14.8858 36.1209 14.6459 35.5742C13.5571 33.0948 12.5113 30.5959 11.4069 28.1217C11.2974 27.8758 10.9114 27.648 10.6323 27.6194C10.4328 27.5985 10.0964 27.8797 9.99473 28.1048C8.87595 30.5855 7.77935 33.0766 6.71012 35.5794C6.53931 35.9777 6.58625 36.4619 7.08565 36.6558C7.54855 36.8367 7.90061 36.6545 8.10142 36.1782C8.31526 35.6693 8.55779 35.1721 8.81076 34.6176V34.6202Z"/>
<path id="Vector_2" d="M44.8853 32.547C44.8801 27.9956 44.8736 23.4442 44.8723 18.8928C44.8696 13.019 44.8723 7.14398 44.8723 1.27023C44.8723 1.05417 44.8879 0.838122 44.8957 0.62207C44.9309 0.849836 44.9974 1.0789 44.9974 1.30667C45.0026 11.4715 45.0026 21.6351 44.9974 31.7999C44.9974 32.0498 44.9244 32.2984 44.8853 32.5483V32.547Z"/>
<path id="Vector_3" d="M12.6671 0.0234375C12.5732 0.0507694 12.4806 0.0781013 12.3867 0.106735C12.4806 0.0794028 12.5732 0.0520709 12.6671 0.0234375Z"/>
<path id="Vector_4" d="M11.9806 19.3833C11.9467 19.4197 11.9128 19.4562 11.8789 19.4939C11.9128 19.4575 11.9467 19.421 11.9806 19.3833Z"/>
<path id="Vector_5" d="M43.3151 31.5073C43.3112 23.2388 43.3086 14.9703 43.3034 6.70171C43.3034 4.98761 43.2969 3.27221 43.293 1.55811C43.3399 1.75203 43.4273 1.94466 43.4273 2.13858C43.4338 11.7269 43.4338 21.3152 43.4273 30.9034C43.4273 31.1052 43.353 31.3056 43.3138 31.5073H43.3151Z"/>
<path id="Vector_6" d="M13.5826 1.56055V19.4408C14.0963 19.502 14.5579 19.5566 15.0182 19.61H13.4874C13.473 19.4018 13.4469 19.2156 13.4469 19.0282C13.4443 13.3953 13.4443 7.76228 13.4509 2.12931C13.4509 1.93929 13.5369 1.74927 13.5826 1.56055Z"/>
<path id="Vector_7" d="M25.4688 31.48C31.1056 31.4865 36.7412 31.4904 42.3781 31.5008C42.6559 31.5008 42.9336 31.5451 43.2114 31.5698C43.0197 31.5893 42.8293 31.6258 42.6376 31.6258C37.1337 31.6284 31.6311 31.6297 26.1272 31.6218C25.9082 31.6218 25.6891 31.5294 25.4701 31.48H25.4688Z"/>
<path id="Vector_8" d="M18.4206 36.2045C18.418 33.5025 18.4167 30.8006 18.4141 28.0986C18.4532 28.2392 18.5262 28.3785 18.5262 28.519C18.5327 30.9633 18.5327 33.4075 18.5262 35.8505C18.5262 35.9689 18.4571 36.0874 18.4206 36.2045Z"/>
<path id="Vector_9" d="M17.0952 27.9785C17.0652 28.0657 17.0352 28.1542 17.0039 28.2414C17.0339 28.1542 17.0639 28.0657 17.0952 27.9785Z"/>
<path id="Vector_10" d="M38.9961 13.563C39.03 13.5968 39.0639 13.6307 39.0991 13.6645C39.0652 13.6307 39.0313 13.5968 38.9961 13.563Z"/>
<path id="Vector_11" d="M40.6472 8.58717C40.6225 8.53772 40.599 8.48826 40.5742 8.4375C40.599 8.48696 40.6225 8.53642 40.6472 8.58717Z"/>
<path id="Vector_12" d="M11.9162 33.0427H9.48047C9.87817 32.1056 10.2576 31.2128 10.6892 30.1963C11.1234 31.205 11.5055 32.09 11.9162 33.0427Z"/>
<path id="Vector_13" d="M34.203 6.78853C35.5083 6.84059 36.5175 7.4471 37.2855 8.46879C37.7406 9.0753 37.9871 9.7664 38.047 10.5317C38.1709 12.1169 37.5972 13.3638 36.3206 14.3139C35.5696 14.8723 34.7324 15.1143 33.8093 15.1143C31.1219 15.1143 28.4331 15.1143 25.7457 15.1143C25.5906 15.1143 25.4354 15.1248 25.2815 15.13C25.2594 15.1417 25.2385 15.1547 25.2163 15.1664C24.3857 15.1339 23.4925 15.9929 23.2878 16.7256C23.0818 17.4649 23.1561 18.1365 23.5916 18.7586C24.0219 19.3729 24.6061 19.7582 25.378 19.7595C28.5244 19.7673 31.6695 19.7647 34.8159 19.766C34.8511 19.766 34.8863 19.766 34.9815 19.766C34.546 19.3534 34.1665 18.9616 33.7532 18.6089C33.2068 18.1404 33.3646 17.1942 34.1405 17.0015C34.4769 16.9182 34.7833 17.0328 35.0297 17.2605C35.7586 17.9347 36.4771 18.6206 37.2021 19.3013C37.356 19.4458 37.5242 19.5746 37.6741 19.723C38.1944 20.2345 38.2387 21.0974 37.7276 21.6076C37.0261 22.3078 36.2763 22.9599 35.5474 23.6315C35.3283 23.8332 35.1223 24.0519 34.8837 24.2263C34.4221 24.5621 33.9136 24.4697 33.5876 24.018C33.3425 23.6783 33.3803 23.0744 33.791 22.7451C34.1874 22.4276 34.5316 22.0436 34.8993 21.6896C34.915 21.674 34.9306 21.6597 34.9463 21.6441C34.9293 21.6415 34.9137 21.6389 34.8967 21.6363C34.8198 21.6323 34.7416 21.6271 34.6646 21.6271C31.4609 21.6271 28.2571 21.6415 25.0534 21.6167C24.3492 21.6115 23.7103 21.2927 23.1235 20.9009C22.2108 20.2918 21.6214 19.425 21.4036 18.3825C21.1285 17.0653 21.3724 15.8172 22.2838 14.7525C23.1666 13.7217 24.2906 13.2467 25.6362 13.2467C28.3158 13.248 30.9954 13.2467 33.675 13.2467C33.8106 13.2467 33.9462 13.2376 34.0818 13.2323C34.1013 13.235 34.1222 13.2363 34.1418 13.2389C35.1171 13.0918 35.8304 12.5647 36.1029 11.6289C36.5201 10.1946 35.6934 8.74732 34.1691 8.67053C32.3906 8.57942 30.6055 8.61196 28.823 8.60415C28.7357 8.60415 28.5935 8.71478 28.5661 8.80198C28.1411 10.1621 27.1788 10.9742 25.8435 11.2983C24.6009 11.5989 23.4626 11.2905 22.5081 10.3963C21.9878 9.90957 21.611 9.33951 21.4389 8.6497C21.1624 7.5382 21.2954 6.48528 21.9709 5.53777C22.5302 4.75165 23.2761 4.18419 24.2371 4.03712C25.3767 3.86272 26.4759 4.00328 27.4043 4.80241C27.9572 5.27747 28.3758 5.83061 28.5675 6.54124C28.6131 6.71044 28.7344 6.73777 28.8973 6.73777C30.509 6.73256 32.122 6.73387 33.7336 6.73517C33.8692 6.73517 34.0048 6.74428 34.1405 6.74948C34.1626 6.7625 34.1835 6.77551 34.2057 6.78853H34.203ZM25.0181 9.52953C25.8944 9.53604 26.8932 8.86185 26.8906 7.67877C26.888 6.56337 26.1539 5.8228 24.9516 5.8176C23.9359 5.81369 23.2109 6.62454 23.177 7.62541C23.1405 8.68354 24.0441 9.55556 25.0195 9.52953H25.0181Z"/>
<path id="Vector_14" d="M34.8945 21.6377C34.9115 21.6403 34.9271 21.6429 34.9441 21.6455C34.9284 21.6611 34.9128 21.6754 34.8971 21.6911C34.8945 21.6728 34.8945 21.6559 34.8945 21.6377Z"/>
</g>
<defs>
<clipPath id="clip0_2168_8468">
<rect width="45" height="45"/>
</clipPath>
</defs>
</svg>
