<svg width="50" height="50" viewBox="0 0 50 50" fill="none" xmlns="http://www.w3.org/2000/svg">
<g id="Group">
<path id="Vector" d="M30.1098 48.4996C27.9892 46.1401 26.84 43.389 26.84 40.1954C26.84 39.2953 26.9112 38.3952 26.9468 37.5002C26.8196 37.4545 26.6976 37.3629 26.5705 37.3629C20.1834 37.3629 13.8014 37.3629 7.41428 37.3731C6.79388 37.2358 6.29557 36.6663 6.2498 36.0306C6.19895 35.3543 6.55995 34.861 7.28206 34.6169C7.37359 34.5864 7.46515 34.561 7.55668 34.5304C7.81603 34.5203 8.07539 34.505 8.33474 34.505C14.615 34.505 20.8903 34.505 27.1705 34.505C27.4045 34.505 27.6434 34.4796 27.8773 34.4643C27.9079 34.4338 27.9435 34.3982 27.974 34.3677C28.6351 33.2795 29.2962 32.1912 29.9471 31.1182C22.5328 31.1182 15.0727 31.1132 7.61261 31.1284C6.95661 31.1284 6.62606 30.7521 6.39214 30.2792C5.90904 29.2774 6.68205 28.2247 7.84149 28.2349C13.5878 28.2654 19.3341 28.2451 25.0805 28.2502C26.662 28.2502 28.2435 28.2654 29.8301 28.2756C29.881 28.3112 29.9267 28.3417 29.9776 28.3773C30.7403 28.4383 31.0099 28.779 31.2031 29.9283C31.9862 29.4147 32.7287 28.8045 33.5678 28.418C34.8035 27.8484 36.1155 27.4416 37.397 26.9636C37.4377 26.7653 37.5139 26.5669 37.5139 26.3635C37.519 21.3291 37.519 16.2998 37.5139 11.2654C37.5139 11.062 37.4377 10.8586 37.4021 10.6552C37.3563 10.3653 37.3156 10.0755 37.2597 9.79068C36.8529 7.8176 35.2103 6.49035 33.3643 6.36322C33.3186 6.3378 33.2728 6.30728 33.227 6.28186C31.7523 6.28186 30.2725 6.27169 28.7978 6.2666C28.7622 6.3022 28.7266 6.33271 28.691 6.36831C28.5741 9.48048 25.7263 12.2163 22.8175 12.2418C22.7616 12.2621 22.7057 12.2875 22.6447 12.313C22.7006 12.2875 22.7565 12.2621 22.8175 12.2418C20.1935 12.2418 17.5696 12.2316 14.9405 12.2316C14.8235 12.2316 14.7065 12.3028 14.5896 12.3384C14.2997 12.3028 13.9997 12.2977 13.7251 12.2214C10.9943 11.479 8.91445 9.32793 8.71104 6.36831C8.67545 6.33271 8.63987 6.3022 8.60427 6.2666C6.92105 6.3022 5.23273 6.22084 3.56477 6.39882C1.7595 6.59714 0.0559204 8.3363 0.0457499 10.2738C-0.0152731 21.8631 0.0101705 33.4524 0 45.0417C0 45.9011 0.0966 46.7045 0.488165 47.5131C1.10348 48.7742 2.82235 49.9998 4.22588 49.9998C13.0793 49.9998 21.9378 49.9998 30.7912 49.9998H31.671C31.0557 49.415 30.5522 48.9929 30.1149 48.5047L30.1098 48.4996ZM8.22797 15.6082C8.10592 15.6082 7.97874 15.6286 7.85669 15.6489C7.97874 15.6235 8.10592 15.6082 8.22797 15.6082ZM7.54141 15.7099C10.7909 15.7201 14.0455 15.7303 17.295 15.7303C21.5208 15.7303 25.7466 15.7201 29.9776 15.7099C30.8573 15.954 31.1929 16.7066 31.137 17.2813C31.0709 17.9627 30.6997 18.339 29.9776 18.4712C29.9267 18.5017 29.8759 18.5322 29.8301 18.5577C28.2028 18.5678 26.5756 18.578 24.9483 18.578C19.1969 18.578 13.4454 18.5627 7.69399 18.5577C7.60754 18.5577 7.516 18.5627 7.42955 18.5678C6.67693 18.3644 6.23964 17.805 6.25998 17.0677C6.28032 16.3151 6.68201 15.8879 7.5465 15.6998L7.54141 15.7099ZM7.72956 21.975C15.0218 21.9699 22.3141 21.9648 29.6063 21.975C30.5064 21.975 31.137 22.5903 31.1319 23.4141C31.1319 24.2582 30.4861 24.8532 29.5555 24.8532C25.9297 24.8532 22.3039 24.8532 18.6832 24.8532C15.0371 24.8532 11.391 24.8532 7.74483 24.8532C6.87525 24.8532 6.28031 24.2837 6.25489 23.4598C6.23455 22.6208 6.84981 21.98 7.72956 21.98V21.975ZM16.939 42.494C16.8983 43.0991 16.5068 43.4805 15.7796 43.6178C15.7287 43.6432 15.6778 43.6687 15.627 43.6992C12.9826 43.6992 10.3383 43.6992 7.69399 43.6992L7.40416 43.628C6.64137 43.4754 6.17348 42.9567 6.2701 42.2143C6.38197 41.365 6.65149 40.9226 7.40919 40.8616C10.2417 40.8616 13.0742 40.8616 15.9067 40.8667C15.8253 40.8463 15.7491 40.8158 15.6677 40.7955C15.7491 40.8209 15.8253 40.8463 15.9067 40.8667C16.7661 41.1718 17 41.5379 16.939 42.499V42.494Z"/>
<path id="Vector_2" d="M39.6792 29.8014C34.0448 29.6489 29.9308 34.3934 29.7274 39.1075C29.4375 45.7793 34.2228 49.9187 39.5013 49.9543C45.7866 49.995 49.9159 45.759 49.982 39.7228C50.0379 34.4595 45.6188 29.5675 39.6792 29.8065V29.8014ZM43.7627 38.9905C42.5219 40.2313 41.2607 41.4619 40.0403 42.7231C39.2978 43.4909 38.3418 43.5825 37.6146 42.7485C37.1061 42.1586 36.5162 41.6348 35.967 41.0856C35.1533 40.2669 35.0873 39.5499 35.7534 38.8023C36.2721 38.2226 37.1977 38.2684 37.9757 38.9295C38.2554 39.1685 38.4943 39.4533 38.8198 39.7838C39.8013 38.7973 40.7319 37.8565 41.6625 36.9259C42.288 36.3004 43.3406 36.2394 43.9051 36.7886C44.5153 37.3836 44.4492 38.2989 43.7576 38.9956L43.7627 38.9905Z" />
<path id="Vector_3" d="M15.1047 9.37898C15.1555 9.37898 15.2013 9.37898 15.2522 9.38407C17.6626 9.3739 20.073 9.38407 22.4834 9.34847C23.9581 9.32304 25.2294 8.30091 25.6515 6.9228C26.1804 5.19382 25.1989 2.88003 23.1139 2.52406C22.6512 2.44269 22.046 2.60542 21.7816 1.89857C21.4256 0.947629 20.6476 0.398422 19.6662 0.149245C17.8508 -0.308428 16.4726 0.306889 15.6946 1.7155C15.4251 2.20877 15.0895 2.40201 14.6369 2.43252C12.7197 2.55966 11.6365 4.20219 11.606 5.88033C11.5755 7.5432 12.8214 9.36373 15.1047 9.37898Z" />
</g>
</svg>
