<svg width="30" height="39" viewBox="0 0 30 39" fill="none" xmlns="http://www.w3.org/2000/svg">
<g id="employee">
<path id="Vector" d="M29.9963 38.1724H0.000727992C0.000727992 38.1246 0.000727992 38.0744 0.000727992 38.0254C0.000727992 35.5922 -0.00268953 33.1578 0.00528469 30.7245C0.00528469 30.434 0.0747743 30.1435 0.111228 29.853C0.131733 29.6867 0.145403 29.5204 0.173882 29.3552C0.227423 29.051 0.278686 28.7458 0.350454 28.445C0.417665 28.1648 0.501964 27.8891 0.59082 27.6157C0.801567 26.9721 1.04079 26.3364 1.37685 25.7486C1.73227 25.1266 2.09339 24.5001 2.52172 23.9271C3.19497 23.026 3.99923 22.2434 4.90031 21.5621C5.79912 20.8832 6.77311 20.3364 7.81774 19.924C8.52972 19.6438 9.26221 19.4114 10.022 19.2872C10.4299 19.22 10.8422 19.1824 11.2535 19.1425C11.5611 19.1129 11.8721 19.081 12.1796 19.0878C12.8825 19.1027 13.427 19.4342 13.5911 20.1815C13.6492 20.4446 13.5968 20.7089 13.5284 20.972C13.3553 21.6407 13.2037 22.3151 13.0397 22.9861C12.9087 23.5204 12.7731 24.0524 12.6376 24.5855C12.4656 25.2599 12.2867 25.9331 12.117 26.6087C11.9905 27.1122 11.8755 27.6191 11.7513 28.1238C11.6522 28.5248 11.5451 28.9246 11.4426 29.3256C11.3127 29.828 11.1794 30.3303 11.0598 30.835C11.0462 30.8954 11.0929 30.9922 11.1418 31.0423C11.9689 31.8751 12.8016 32.7032 13.6321 33.5325C14.0604 33.9609 14.4899 34.3881 14.9148 34.8198C14.982 34.8882 15.0162 34.887 15.0834 34.8198C16.3 33.5998 17.5144 32.3763 18.7435 31.1688C18.9178 30.9968 18.9429 30.8441 18.8882 30.6334C18.7435 30.0774 18.6091 29.5204 18.4667 28.9633C18.3061 28.3345 18.1398 27.7068 17.9826 27.0769C17.7992 26.341 17.6249 25.6028 17.4437 24.8669C17.3116 24.3315 17.1749 23.7983 17.0382 23.2641C16.8992 22.7161 16.7568 22.1693 16.619 21.6214C16.5313 21.2694 16.4253 20.9185 16.3718 20.5608C16.3205 20.2134 16.4481 19.8921 16.66 19.6153C16.8913 19.3123 17.2022 19.1243 17.5884 19.1129C17.9416 19.1027 18.297 19.1197 18.6501 19.1391C18.9429 19.1551 19.2368 19.1767 19.5262 19.2234C19.9123 19.2849 20.2997 19.3533 20.6779 19.4535C21.1324 19.5743 21.5835 19.7133 22.0255 19.875C23.8117 20.5323 25.3473 21.5724 26.654 22.9531C27.6792 24.0364 28.4732 25.2713 29.0496 26.6428C29.2399 27.0974 29.3709 27.5781 29.5178 28.0497C29.6078 28.3391 29.6899 28.6318 29.7525 28.928C29.8072 29.1866 29.8277 29.4532 29.863 29.7163C29.8983 29.9795 29.9382 30.2415 29.9678 30.5046C29.986 30.6584 29.9986 30.8133 29.9986 30.9671C30.0009 33.3491 29.9997 35.73 29.9997 38.112C29.9997 38.1257 29.9974 38.1394 29.9963 38.1678V38.1724Z"/>
<path id="Vector_2" d="M14.9872 16.3655C12.7453 16.3096 10.811 15.5088 9.22185 13.9231C7.76371 12.4661 6.94122 10.6867 6.833 8.63275C6.70542 6.20175 7.54157 4.09884 9.26628 2.37755C10.6538 0.994595 12.3375 0.178947 14.2923 0.0285761C16.8236 -0.167362 19.0176 0.644869 20.8141 2.44818C22.2335 3.87215 23.0241 5.61508 23.1505 7.61547C23.2986 9.95647 22.5673 12.0195 20.9588 13.7408C19.348 15.4644 17.3328 16.2903 14.9872 16.3655Z"/>
</g>
</svg>
