<svg width="38" height="43" viewBox="0 0 38 43" fill="none" xmlns="http://www.w3.org/2000/svg">
<g id="Layer 2">
<path id="Vector" d="M29.9723 28.8701C28.4465 28.3203 26.9009 27.5655 25.9687 27.003C25.7724 26.8782 25.5405 26.8052 25.291 26.8052C24.9532 26.8052 24.6468 26.9386 24.4196 27.1542C24.4185 27.1542 24.4175 27.1552 24.4165 27.1557C22.9521 28.5871 20.245 29.0182 19.3239 29.0182C19.2452 29.0182 19.0845 29.0193 19.0003 29.0198C18.9161 29.0193 18.7553 29.0182 18.6766 29.0182C17.755 29.0182 15.0479 28.5871 13.584 27.1557C13.583 27.1557 13.582 27.1547 13.581 27.1542C13.3537 26.9381 13.0473 26.8052 12.7095 26.8052C12.46 26.8052 12.2276 26.8782 12.0314 27.003C11.0996 27.5655 9.55351 28.3198 8.02774 28.8701C3.1801 30.6181 1 32.4005 1 33.6163V41.5789H37V33.6163C37 32.4005 34.8199 30.6181 29.9723 28.8701Z" stroke-width="1.64" stroke-miterlimit="6.55"/>
<path id="Vector_2" d="M26.7487 13.7357C26.7487 13.7357 27.1398 11.8051 27.2519 10.3154C27.399 8.361 29.8575 5.57323 28.7771 5.57323C26.875 5.57323 25.1291 5.02491 23.5495 4.35993C21.97 3.69494 20.5924 1 19.0859 1H19.0083C17.5018 1 16.1246 3.69595 14.5446 4.36043C12.9646 5.02542 11.2192 5.57374 9.31653 5.57374C8.23612 5.57374 10.6947 8.3615 10.8418 10.3159C10.9539 11.8056 11.345 13.7362 11.345 13.7362C11.345 13.7362 10.6333 14.0608 10.6333 15.3669C10.8829 18.6437 12.186 17.2315 12.4548 18.667C12.9017 21.0535 15.0148 22.7797 16.3301 23.3762C17.1974 23.7693 18.0942 23.9417 19.0463 23.9098C19.9979 23.9417 20.8947 23.7693 21.7626 23.3762C23.0778 22.7797 25.191 21.0535 25.6378 18.667C25.9067 17.2315 27.2098 18.6437 27.4593 15.3669C27.4593 14.0608 26.7477 13.7362 26.7477 13.7362L26.7487 13.7357ZM20.9403 6.44872C20.9403 7.35211 19.6961 8.29759 19.0468 8.29759C18.3976 8.29759 17.1533 7.35211 17.1533 6.44872V5.1715C17.1533 5.16541 17.1543 5.15984 17.1548 5.15375C17.1548 5.15172 17.1548 5.1502 17.1548 5.14817C17.1548 4.84586 17.3922 4.59985 17.6905 4.58362C17.6976 4.58209 17.7021 4.58057 17.7021 4.58057H19.0554L20.3753 4.58209C20.3839 4.58209 20.392 4.58057 20.4001 4.58057C20.6837 4.58057 20.8962 4.78803 20.9337 5.05991C20.9347 5.06498 20.9353 5.07006 20.9358 5.07513C20.9368 5.08426 20.9373 5.09339 20.9383 5.10252C20.9388 5.11266 20.9408 5.12179 20.9408 5.13244C20.9408 5.4657 20.9408 6.03279 20.9408 6.44821L20.9403 6.44872Z" stroke-width="1.64" stroke-miterlimit="6.55"/>
</g>
</svg>
