<svg width="49" height="55" viewBox="0 0 49 55" fill="none" xmlns="http://www.w3.org/2000/svg">
<g id="Group">
<path id="Vector" d="M40.1995 32.7644C41.4923 32.9287 42.5541 33.4529 43.2116 34.648C43.878 35.8564 43.9002 37.6734 42.6341 39.0728C43.8824 41.1297 43.4515 42.8223 42.0921 44.2928C42.8917 45.5812 43.0383 47.7136 41.2302 49.2907C41.941 50.7434 41.9766 52.1473 40.9237 53.4978C40.204 54.4174 39.2622 54.9505 38.1426 54.955C31.581 54.9905 25.0148 54.9772 18.4532 54.9683C18.1067 54.9683 17.7601 54.8661 17.4181 54.8128C17.3692 54.7728 17.3203 54.7328 17.267 54.6973C17.2181 54.4796 17.1204 54.2664 17.1204 54.0487C17.1115 46.3675 17.1293 38.6907 17.0938 31.0095C17.0938 30.2188 17.6535 29.8856 18.0178 29.428C19.6927 27.3444 20.861 25.0076 21.6252 22.4709C21.9361 21.4314 22.1139 20.3474 22.2782 19.2723C22.5537 17.473 23.9309 16.6645 25.5924 17.4108C27.7515 18.3793 28.9421 20.103 29.3064 22.3998C29.7506 25.1898 29.2975 27.9086 28.5422 30.5875C28.3468 31.2716 28.1113 31.9469 27.8981 32.6266C28.0091 32.6799 28.1202 32.7732 28.2313 32.7732C32.2207 32.7732 36.2101 32.7688 40.1995 32.7599V32.7644Z"/>
<path id="Vector_2" d="M0.97515 33.9243C1.335 32.3472 2.42786 31.7474 3.9339 31.7696C6.67496 31.8096 9.42047 31.7652 12.1615 31.7963C12.6591 31.8007 13.2189 31.8896 13.632 32.1339C14.1562 32.4405 14.5694 32.8625 14.565 33.64C14.5294 40.055 14.5427 46.4745 14.5427 52.8896C14.5427 54.0624 13.7475 54.9598 12.5836 54.9687C9.43379 54.9954 6.28402 55.0309 3.13868 54.951C1.8992 54.9199 1.24614 54.0047 0.970703 52.8363C0.975146 52.7386 0.979592 52.6364 0.988477 52.5386C0.988477 46.4301 0.988477 40.326 0.988477 34.2175C0.984035 34.1198 0.979588 34.0176 0.970703 33.9198L0.97515 33.9243ZM6.00858 35.1949L5.94194 35.3592C5.79978 35.3592 5.65317 35.377 5.51545 35.3592C4.94236 35.2704 4.47589 35.4925 4.37815 36.0345C4.29819 36.4654 4.36927 37.003 4.56919 37.3895C4.82241 37.8826 6.34177 37.9759 7.00816 37.6383C7.72785 37.274 7.98552 36.3233 7.40355 35.7813C7.05703 35.457 6.47949 35.3814 6.00413 35.1949H6.00858Z"/>
<path id="Vector_3" d="M18.2775 14.9411C18.4552 14.0437 18.6684 12.8797 18.9261 11.7291C19.0594 11.1427 19.0994 10.6585 18.5618 10.2009C17.6333 9.4101 16.7848 8.52603 15.8829 7.70415C15.4254 7.28655 15.2921 6.78454 15.4609 6.22922C15.6253 5.68279 16.0384 5.46954 16.6293 5.41179C17.9887 5.27407 19.3437 5.06083 20.6942 4.8387C20.9075 4.80316 21.1696 4.5988 21.2629 4.40333C21.8227 3.23937 22.3513 2.05765 22.8711 0.871485C23.0977 0.356147 23.4575 0.0140697 24.0173 0.000741958C24.617 -0.0170283 25.0879 0.285066 25.3412 0.835945C25.8654 1.9688 26.3807 3.1061 26.8694 4.25228C27.0827 4.74985 27.3403 4.99419 27.949 5.02529C29.2773 5.09192 30.6145 5.23409 31.9251 5.46954C32.9513 5.65169 33.1823 6.94003 32.3515 7.74414C31.6585 8.41497 30.921 9.04137 30.1658 9.64556C29.1085 10.4941 29.0107 10.7829 29.335 12.1245C29.5972 13.1996 29.8904 14.2836 29.9925 15.3809C30.0903 16.4294 28.9796 17.0424 28.1178 16.5937C26.9894 16.0073 25.8743 15.3898 24.7903 14.7279C24.2883 14.4213 23.8885 14.3991 23.3776 14.7056C22.3513 15.3232 21.3073 15.9096 20.2411 16.4605C19.0016 17.1046 18.2553 16.6159 18.2686 14.9455L18.2775 14.9411Z"/>
<path id="Vector_4" d="M41.0473 5.70464C41.3893 6.01562 41.8292 6.26884 42.0513 6.64646C42.5 7.42391 42.8865 8.25023 43.193 9.09432C43.4374 9.76959 43.8816 9.96506 44.5213 10.0139C45.3343 10.0761 46.1429 10.2494 46.9559 10.276C47.6311 10.2983 48.0754 10.6625 48.1376 11.2134C48.1909 11.6532 47.9821 12.2441 47.6756 12.5773C47.027 13.2881 46.2628 13.8923 45.512 14.4965C44.9256 14.9674 45.3654 15.5183 45.3921 15.9892C45.4321 16.74 45.7964 17.4686 45.8497 18.2194C45.8808 18.6681 45.6853 19.2234 45.4054 19.5832C45.0633 20.0141 44.4902 19.9964 43.9882 19.7209C43.0775 19.2189 42.189 18.6814 41.2605 18.2105C41.0561 18.1083 40.7007 18.1483 40.4831 18.2593C39.639 18.6814 38.8082 19.1301 38.0041 19.6188C37.4932 19.9253 36.9956 20.0319 36.4981 19.6943C35.925 19.3078 35.7917 18.7036 35.9117 18.0594C36.0849 17.1531 36.3248 16.2602 36.4892 15.3539C36.5292 15.1362 36.4581 14.8163 36.307 14.6653C35.6273 13.9767 34.8987 13.3325 34.1924 12.6661C33.6904 12.1997 33.4638 11.6754 33.7348 10.9735C33.9969 10.2938 34.5789 10.2449 35.1431 10.1694C36.0183 10.0495 36.9068 10.0006 37.7775 9.84955C38.0352 9.80513 38.3329 9.5519 38.4572 9.312C38.9104 8.45459 39.2969 7.55719 39.7189 6.67756C39.9588 6.18444 40.3187 5.8468 41.0473 5.7002V5.70464Z"/>
<path id="Vector_5" d="M12.2624 18.1486C12.2713 19.6991 11.3473 20.2544 10.2366 19.6591C9.36143 19.1926 8.5129 18.6773 7.63327 18.2153C7.45112 18.122 7.14459 18.0953 6.97133 18.1842C6.06505 18.6373 5.16765 19.1127 4.30579 19.6369C3.75047 19.9745 3.22624 20.0101 2.7731 19.5791C2.39548 19.2193 2.13782 18.8106 2.3555 18.1575C2.6576 17.2423 2.76422 16.2605 2.96413 15.3098C3.09297 14.7145 2.61761 14.4657 2.29331 14.1503C1.65358 13.5195 0.95609 12.9464 0.325245 12.3111C-0.314484 11.6669 0.0409208 10.4807 0.942762 10.303C1.74242 10.1476 2.55986 10.0676 3.37285 10.0143C4.16807 9.96097 4.83445 9.85879 5.12766 8.92141C5.38089 8.10842 5.81626 7.34874 6.17167 6.57129C6.38491 6.10482 6.75808 5.75386 7.26009 5.87381C7.69102 5.97598 8.2108 6.21588 8.43293 6.5624C8.93494 7.35762 9.38809 8.22392 9.6502 9.12577C9.86344 9.84546 10.3299 9.92543 10.8719 9.99651C11.7515 10.112 12.6489 10.1342 13.5108 10.3164C13.884 10.3963 14.346 10.7162 14.4882 11.0494C14.6659 11.4626 14.7147 12.0134 14.2349 12.4133C13.6885 12.8664 13.2265 13.4262 12.6445 13.826C11.6271 14.5235 11.6005 15.4164 11.9026 16.4693C12.0892 17.1135 12.1869 17.7843 12.2624 18.1442V18.1486Z"/>
<path id="Vector_6" d="M40.196 32.7646C36.2066 32.7691 32.2171 32.778 28.2277 32.778C28.1167 32.778 28.0056 32.6802 27.8945 32.6313C31.7196 32.6313 35.5491 32.6358 39.3741 32.6491C39.6496 32.6491 39.9206 32.7246 40.196 32.7691V32.7646Z"/>
<path id="Vector_7" d="M0.974609 33.9243C0.979052 34.0221 0.983492 34.1242 0.992377 34.222C0.987934 34.1242 0.983495 34.0221 0.974609 33.9243Z"/>
<path id="Vector_8" d="M6.00581 35.1948C6.48117 35.3814 7.0587 35.4569 7.40522 35.7812C7.9872 36.3232 7.72953 37.2739 7.00983 37.6382C6.34345 37.9714 4.82409 37.8826 4.57086 37.3895C4.37094 37.0029 4.29987 36.4654 4.37983 36.0345C4.47757 35.4925 4.94404 35.2703 5.51713 35.3592C5.65485 35.3814 5.80146 35.3592 5.94362 35.3592L6.01025 35.1948H6.00581Z"/>
</g>
</svg>
