<svg width="67" height="55" viewBox="0 0 67 55" fill="none" xmlns="http://www.w3.org/2000/svg">
<g id="Group">
<path id="Vector" d="M66.6063 24.8815C66.5191 19.9114 62.5518 15.7806 57.5872 15.5191C57.0967 15.4918 56.8678 15.3174 56.6662 14.8815C52.0068 4.84326 41.0695 -1.4347 29.7724 0.281928C20.6716 1.66613 14.1429 6.60348 10.023 14.7834C9.75593 15.312 9.48347 15.4973 8.89492 15.5245C4.67146 15.7043 0.785898 19.2738 0.18644 23.4373C-0.145986 25.7262 0.0719983 28.0259 0.0501998 30.3148C-0.00974595 36.9469 6.44799 41.6009 12.7314 39.4974C14.5025 38.9034 14.9876 37.6881 14.132 36.0151C10.8241 29.5464 10.6824 22.9905 13.7069 16.3964C18.3772 6.21656 30.9549 1.33915 41.2983 5.52446C50.8787 9.40459 56.7262 19.5572 54.6553 30.1295C53.0586 38.2767 46.2629 45.3448 38.1811 47.0178C37.6144 47.1377 37.2711 47.0723 36.9604 46.511C36.192 45.1377 34.9605 44.3039 33.44 43.977C30.4264 43.3339 27.7124 45.0287 26.835 48.0315C26.0884 50.5873 27.5543 53.5465 30.0721 54.5656C32.8786 55.6991 35.9141 54.5547 37.2547 51.8298C37.4782 51.3775 37.7289 51.1813 38.2248 51.0778C45.1022 49.6609 50.579 46.086 54.5953 40.3148C54.9114 39.857 55.2439 39.808 55.7234 39.8843C60.7861 40.6745 65.7562 36.9633 66.4755 31.9279C66.6772 30.5219 66.5082 29.1322 66.6172 27.7316C66.6172 26.778 66.6336 25.8188 66.6172 24.8651L66.6063 24.8815ZM32.2464 50.9579C31.3745 50.9688 30.6334 50.2386 30.6661 49.3884C30.6934 48.5492 31.391 47.8952 32.2411 47.9007C33.1022 47.9061 33.756 48.5601 33.756 49.4266C33.756 50.2931 33.1184 50.947 32.2519 50.9634L32.2464 50.9579Z"/>
<path id="Vector_2" d="M29.6484 42.2601C31.4359 42.6252 33.2233 42.7887 35.0598 42.587C43.6648 41.6552 50.1825 34.4562 50.1934 25.5243C50.2479 24.3635 50.019 22.9575 49.6648 21.5679C47.3596 12.6142 38.0625 6.88661 28.7382 9.54057C17.1196 12.8485 12.4057 26.9249 20.3894 36.6415C20.7709 37.1102 20.9017 37.4971 20.7382 38.0693C20.2423 39.8186 19.8009 41.5789 19.3213 43.3282C18.978 44.5816 19.1251 45.3391 19.9153 45.9113C20.8145 46.5707 21.6918 46.3473 22.5801 45.8241C24.4984 44.6852 26.444 43.5843 28.3731 42.4508C28.7873 42.2056 29.1797 42.1674 29.6484 42.2655V42.2601ZM24.5639 25.7259C24.6074 24.6796 25.5884 23.7532 26.6238 23.7695C27.6974 23.7859 28.6892 24.8104 28.6456 25.8567C28.5966 26.914 27.6483 27.8131 26.5856 27.7968C25.4848 27.7859 24.5203 26.7941 24.5639 25.7259ZM31.3377 25.8458C31.3159 24.6851 32.1934 23.7641 33.3269 23.7695C34.4222 23.7695 35.2887 24.6578 35.2941 25.775C35.2941 26.9085 34.4657 27.775 33.354 27.7968C32.2423 27.8186 31.3595 26.963 31.3377 25.8458ZM37.9862 25.7859C37.9862 24.7505 38.94 23.7968 39.9917 23.7695C41.0653 23.7423 42.0789 24.7287 42.0734 25.7968C42.068 26.8486 41.1361 27.7804 40.068 27.8022C38.9726 27.824 37.9862 26.8649 37.9862 25.7804V25.7859Z" />
</g>
</svg>
