<svg width="56" height="55" viewBox="0 0 56 55" fill="none" xmlns="http://www.w3.org/2000/svg">
<g id="Layer_1" clip-path="url(#clip0_2168_8105)">
<path id="Vector" d="M48.3085 26.5978C47.1753 26.4276 47.3115 25.4501 47.2434 24.7303C46.8835 20.9952 45.6628 17.6054 43.4597 14.5561C41.3247 11.5991 38.6109 9.33766 35.299 7.83002C33.2758 6.90597 31.1894 6.18133 28.9182 6.13756C27.7024 6.11324 26.4816 5.99166 25.2658 5.98679C22.9606 5.98193 20.7672 6.60931 18.6711 7.46526C15.4709 8.77351 12.762 10.8307 10.5881 13.5056C8.4774 16.1075 6.9503 19.0547 6.39101 22.391C6.08948 24.1856 5.80741 26.0434 5.93385 27.8477C6.21593 31.9086 7.54363 35.6437 10.0094 38.9557C11.9839 41.6062 14.4253 43.6829 17.3531 45.1662C19.4395 46.2216 21.6474 46.9705 24.011 47.1699C24.5509 47.2137 25.1248 47.1699 25.6111 47.3596C26.0148 47.5152 26.3066 47.9481 26.647 48.2545C26.647 49.5724 26.647 50.8953 26.647 52.2133C26.5108 52.9039 26.1218 53.1373 25.3923 53.1616C22.1192 53.2881 19.1088 52.3202 16.147 51.0995C12.5043 49.6016 9.43063 47.2915 6.80926 44.3832C4.19276 41.4798 2.30577 38.1483 1.17747 34.3987C0.516045 32.2053 0.141565 29.9827 0.0345701 27.6775C-0.0870145 25.1193 0.102657 22.5855 0.754351 20.1587C1.66867 16.7543 3.15686 13.5639 5.30648 10.714C7.08648 8.35526 9.168 6.29805 11.5948 4.6445C14.401 2.72833 17.4844 1.37144 20.8304 0.622482C23.0676 0.126417 25.3193 -0.0778455 27.5905 0.0291489C30.8441 0.184777 34.0248 0.773247 37.0157 2.09122C39.7003 3.27303 42.1515 4.8439 44.3789 6.79898C46.7376 8.87078 48.6003 11.3025 50.0982 14.0114C51.494 16.5355 52.457 19.2492 52.8704 22.1186C53.026 23.1886 53.0698 24.2731 53.2011 25.3479C53.2886 26.0872 52.9433 26.4568 52.2673 26.6027C50.9493 26.6027 49.6314 26.6027 48.3134 26.6027L48.3085 26.5978Z" />
<path id="Vector_2" d="M36.835 26.5979C35.9644 26.4861 35.8137 25.7663 35.7699 25.1341C35.6629 23.641 35.0063 22.3911 34.199 21.2093C32.8373 19.2153 30.8579 18.0919 28.5721 17.5131C24.8176 16.5648 20.4989 18.5199 18.6119 21.9291C16.6033 25.5572 16.8951 29.0831 19.3219 32.3319C20.8101 34.3259 22.8771 35.6195 25.4595 35.8627C26.0383 35.9162 26.4808 36.1837 26.6462 36.7867C26.6462 38.1096 26.6462 39.4276 26.6462 40.7504C26.3009 41.6988 25.7319 42.0051 24.7397 41.8301C22.026 41.3535 19.5067 40.41 17.3328 38.6835C14.8525 36.7186 13.0725 34.2675 12.1436 31.2036C11.6524 29.5889 11.3411 27.9597 11.3898 26.2818C11.4919 22.8531 12.6396 19.8087 14.7747 17.1144C16.1948 15.3198 17.9213 13.9288 19.9493 12.9318C21.919 11.964 24.0102 11.502 26.2279 11.4631C28.8493 11.4193 31.3199 11.9154 33.6251 13.1215C37.0052 14.8869 39.4563 17.5618 40.8132 21.1218C41.3287 22.4787 41.4357 23.996 41.7032 25.4453C41.8151 26.0532 41.5184 26.4326 40.9348 26.5931C39.5633 26.5931 38.1967 26.5931 36.8252 26.5931L36.835 26.5979Z" />
<path id="Vector_3" d="M28.3289 27.9209C29.2919 28.271 30.0554 28.5337 30.8093 28.8255C36.086 30.8584 41.3677 32.8864 46.6396 34.9339C49.2512 35.9503 51.8434 37.0008 54.4356 38.0562C54.6836 38.1583 54.8684 38.4209 55.0775 38.6106C54.849 38.7905 54.6496 39.0483 54.3918 39.1358C50.788 40.41 47.1745 41.6502 43.5805 42.9487C43.2644 43.0606 42.9677 43.4837 42.8413 43.8339C41.5573 47.3793 40.322 50.9393 39.0478 54.4847C38.97 54.6987 38.7414 54.9564 38.5469 54.9953C38.4107 55.0245 38.1238 54.7473 38.0411 54.5479C37.1025 52.2135 36.1833 49.8693 35.2738 47.5203C34.2136 44.7725 33.1777 42.0198 32.1224 39.272C30.9697 36.2616 29.8123 33.2511 28.6596 30.2407C28.4602 29.7203 28.2073 29.2097 28.0809 28.6747C28.0274 28.451 28.2365 28.1689 28.3241 27.916L28.3289 27.9209ZM45.4967 39.1261C45.7155 38.9559 46.0754 38.8003 46.0754 38.6446C46.0754 38.382 45.8857 38.0854 45.6961 37.8714C45.5599 37.7157 45.3021 37.6525 45.0881 37.5698C42.9191 36.7333 40.7451 35.9066 38.5809 35.0555C38.0703 34.8561 37.5548 34.7539 37.3456 35.357C37.1414 35.9406 37.6812 36.1497 38.1141 36.3199C39.6655 36.9279 41.2218 37.5163 42.778 38.1097C43.6486 38.4404 44.524 38.7614 45.4967 39.1261ZM33.3917 34.1314C33.3917 34.1314 33.3868 34.3795 33.4647 34.4135C34.0629 34.6518 34.6756 34.8609 35.2933 35.036C35.3808 35.0603 35.59 34.8804 35.6337 34.7588C35.7067 34.5545 35.7748 34.1557 35.7018 34.1168C35.1328 33.8202 34.5346 33.5624 33.9267 33.363C33.7954 33.3192 33.5571 33.5478 33.3966 33.684C33.3431 33.7278 33.3868 33.8834 33.3868 34.1363L33.3917 34.1314Z" />
<path id="Vector_4" d="M30.5132 27.1716C29.7156 27.016 28.9764 26.7874 28.2274 26.7534C27.2158 26.7047 26.4377 27.8671 26.7538 28.8398C26.9629 29.4866 27.1964 30.1285 27.4201 30.7754C24.6042 31.0088 22.6199 29.4671 22.547 27.016C22.474 24.56 24.361 22.8724 27.0796 22.9551C28.8937 23.0134 31.0141 24.9636 30.5132 27.1667V27.1716Z"/>
</g>
<defs>
<clipPath id="clip0_2168_8105">
<rect width="55.0827" height="55"/>
</clipPath>
</defs>
</svg>
