<svg width="40" height="40" viewBox="0 0 40 40" fill="none" xmlns="http://www.w3.org/2000/svg">
<g id="Frame">
<path id="Vector" d="M33.3346 1.6665V6.6665H38.3346V9.99984H33.3346V14.9998H30.0013V9.99984H25.0013V6.6665H30.0013V1.6665H33.3346ZM20.0013 21.6665C21.8346 21.6665 23.3346 20.1665 23.3346 18.3332C23.3346 16.4998 21.8346 14.9998 20.0013 14.9998C18.168 14.9998 16.668 16.4998 16.668 18.3332C16.668 20.1665 18.168 21.6665 20.0013 21.6665ZM23.3346 5.4165V11.6665H28.3346V16.6665H33.2013C33.2846 17.3165 33.3346 17.9832 33.3346 18.6665C33.3346 24.1998 28.8846 30.7498 20.0013 38.3332C11.118 30.7498 6.66797 24.1998 6.66797 18.6665C6.66797 10.3665 13.0013 4.99984 20.0013 4.99984C21.1346 4.99984 22.2513 5.13317 23.3346 5.4165Z" />
</g>
</svg>
