<svg width="35" height="41" viewBox="0 0 35 41" fill="none" xmlns="http://www.w3.org/2000/svg">
<g id="Group 34557">
<path id="Vector" d="M17.5066 33.8398C12.8394 33.8398 8.1715 33.839 3.50433 33.8398C2.42812 33.8398 1.5007 33.5042 0.779112 32.7165C-0.289389 31.5506 -0.264719 29.8373 0.889354 28.7533C2.19145 27.5305 3.40103 26.2499 4.15036 24.6286C4.77867 23.2676 5.16953 21.8598 5.18649 20.349C5.21347 18.0489 5.14177 15.7312 5.41237 13.4546C5.96126 8.8293 9.6987 4.90793 14.3651 3.76542C15.836 3.40551 15.779 3.71269 15.8006 2.01274C15.806 1.60512 15.87 1.15397 16.0627 0.802429C16.3818 0.219874 16.9492 -0.0772619 17.6624 0.0173195C18.3886 0.113575 18.9567 0.465117 19.1387 1.17155C19.2636 1.65868 19.269 2.17846 19.2875 2.68485C19.3152 3.45824 19.3707 3.53943 20.1532 3.706C23.7873 4.47939 26.4786 6.47062 28.2811 9.59181C29.0343 10.8959 29.449 12.3054 29.6849 13.7827C30.0434 16.0242 29.8792 18.2648 29.8283 20.5114C29.7913 22.1418 30.3248 23.6677 31.0834 25.1082C31.7926 26.4549 32.7871 27.5966 33.9605 28.596C35.4083 29.8297 35.335 31.9674 33.7955 33.0982C33.1271 33.5887 32.367 33.8448 31.5089 33.844C26.8417 33.8356 22.1738 33.8398 17.5066 33.8398Z"/>
<path id="Vector_2" d="M17.4661 35.4145C19.3047 35.4145 21.1434 35.412 22.9813 35.4153C23.8586 35.417 23.9596 35.5626 23.6566 36.3419C22.6582 38.9065 20.0618 40.6416 17.0374 40.5043C14.5597 40.3921 12.1105 38.5968 11.2547 36.1192C11.0651 35.5702 11.1622 35.4228 11.7874 35.4195C13.6808 35.4095 15.5735 35.4162 17.4668 35.4162V35.4136L17.4661 35.4145Z"/>
</g>
</svg>
