<svg width="51" height="50" viewBox="0 0 51 50" fill="none" xmlns="http://www.w3.org/2000/svg">
<path id="Vector" d="M48.5368 23.5333L26.4549 1.45139C25.5313 0.52778 24.2543 0 22.9301 0H4.99976C2.24777 0 0 2.25249 0 4.99976V22.9301C0 24.2543 0.523055 25.5313 1.47494 26.4549L23.5568 48.5368C25.5077 50.4877 28.6838 50.4877 30.6347 48.5368L48.5651 30.6065C50.516 28.6556 50.516 25.503 48.5415 23.5286L48.5368 23.5333ZM11.2483 15.004C9.17487 15.004 7.49729 13.3264 7.49729 11.253C7.49729 9.17958 9.17487 7.502 11.2483 7.502C13.3217 7.502 14.9993 9.17958 14.9993 11.253C14.9993 13.3264 13.3217 15.004 11.2483 15.004Z"/>
</svg>
