<svg width="59" height="55" viewBox="0 0 59 55" fill="none" xmlns="http://www.w3.org/2000/svg">
<g id="Group">
<path id="Vector" d="M54.9833 42.2364C54.9785 47.1678 51.251 50.6304 46.7674 51.0494C41.1714 51.5695 37.0779 46.484 37.3572 42.2749C37.2368 37.3868 41.1521 33.38 46.0258 33.4088C51.2125 33.4377 54.993 37.2423 54.9833 42.2364Z"/>
<g id="Group_2">
<path id="Vector_2" d="M49.7528 46.8592C49.2279 46.6859 48.727 46.4643 48.2117 46.2717C48.0768 46.2187 48.0046 46.1658 48.0143 45.9924C48.0335 45.5782 48.0143 45.1544 48.0239 44.7403C48.0239 44.668 48.0672 44.5669 48.125 44.5235C48.857 43.9264 48.8715 43.9023 49.146 43.0162C49.2471 43.0065 49.3531 42.9969 49.4542 42.9873C49.9214 42.9247 50.2392 42.6646 50.3837 42.2312C50.5378 41.7785 50.403 41.3836 50.0658 41.0513C50.0129 40.9983 49.9743 40.9068 49.9647 40.8346C49.955 40.5456 49.955 40.247 49.9647 39.9581C49.9743 39.3465 49.8298 38.7782 49.4783 38.2292C49.17 37.762 48.8041 37.4972 48.6307 37.4009C48.6018 37.3816 48.5681 37.3671 48.5392 37.3479C48.125 37.1215 47.6819 36.9771 47.1955 36.9771H45.2018C44.6528 36.9771 44.1664 37.1504 43.6944 37.4201C43.6752 37.4297 43.6607 37.4394 43.6414 37.449C43.2561 37.6657 42.919 38.1329 42.919 38.1329C42.8757 38.2051 42.8468 38.2484 42.8179 38.2966C42.7649 38.3881 42.712 38.4748 42.6638 38.5663C42.5001 38.8841 42.4037 39.2164 42.3845 39.5776C42.3652 39.9822 42.3653 40.3867 42.3653 40.796C42.3653 40.9213 42.3315 41.0031 42.24 41.085C41.744 41.5521 41.7825 42.3179 42.3026 42.7513C42.5194 42.9295 42.7794 42.9969 43.0587 43.0113C43.1117 43.0113 43.2129 43.0643 43.2129 43.1029C43.314 43.7337 43.6799 44.1672 44.1856 44.5187C44.2386 44.5524 44.2916 44.6536 44.2916 44.7258C44.3012 45.1689 44.2916 45.6167 44.3012 46.0598C44.3012 46.1754 44.2579 46.2235 44.1568 46.2573C43.627 46.4547 43.0924 46.6618 42.5627 46.8689C41.508 47.283 41.0312 47.9862 41.0312 49.1227V49.8066H41.6091C41.6428 49.3539 41.638 48.9156 41.7151 48.4822C41.7969 48.0584 42.0859 47.7261 42.4905 47.5527C43.1214 47.2734 43.7811 47.0374 44.4216 46.787C45.1054 48.1114 47.1811 48.121 47.8842 46.787C48.4862 47.023 49.093 47.2445 49.6854 47.4901C50.244 47.7165 50.5667 48.1403 50.6389 48.7326C50.6823 49.0842 50.6486 49.4357 50.6486 49.8066H51.2602C51.2602 49.5609 51.2505 49.3202 51.2602 49.0745C51.3228 47.938 50.5908 47.1434 49.748 46.8592H49.7528ZM49.7432 41.5955C49.8587 41.7737 49.8684 41.9663 49.7624 42.1541C49.6469 42.3516 49.4398 42.4238 49.1508 42.3708C49.1508 42.3275 49.1412 42.2793 49.1412 42.236V41.4173C49.4109 41.3451 49.618 41.4077 49.7432 41.5955ZM43.1888 42.3612C42.9383 42.4238 42.7457 42.3708 42.6109 42.1878C42.4953 42.0337 42.476 41.7929 42.5819 41.6292C42.7264 41.4028 42.9335 41.3499 43.1936 41.3932V42.3564H43.1839L43.1888 42.3612ZM43.704 39.7366C43.5884 40.0062 43.4584 40.2759 43.3525 40.5553C43.2899 40.7094 43.1887 40.7912 42.9816 40.7431C42.9816 40.0207 42.8805 39.2935 43.314 38.6433C43.7667 37.9595 44.3975 37.5887 45.2162 37.5598C45.8038 37.5405 46.3961 37.5598 46.9837 37.5598C48.2888 37.5598 49.2038 38.3688 49.329 39.6595C49.3627 40.0111 49.3386 40.3722 49.3386 40.7768C48.9871 40.7045 48.6452 40.6612 48.3273 40.5504C47.0993 40.1459 45.8953 39.7125 44.6768 39.2983C44.2097 39.1346 43.9015 39.2694 43.704 39.7317V39.7366ZM47.4075 46.3006C47.3545 46.734 47.0367 46.9845 46.6321 47.1193C46.0012 47.3167 45.3414 47.1097 45.038 46.604C44.9851 46.5125 44.9321 46.4162 44.9321 46.315C44.9225 45.9105 44.9225 45.506 44.9225 45.0533C45.3077 45.3422 45.7171 45.506 46.1746 45.506C46.6321 45.506 47.0318 45.3519 47.4171 45.0533C47.4171 45.4963 47.4508 45.9009 47.4075 46.2958V46.3006ZM46.9211 44.6488C46.4636 44.9714 45.8953 44.9714 45.433 44.6584C45.0525 44.3983 44.6913 44.1286 44.3253 43.8493C43.9641 43.57 43.8004 43.1895 43.8004 42.7417V41.8411C43.6992 41.3451 43.8822 40.796 44.1423 40.247C44.3397 39.8329 44.3205 39.8232 44.7636 39.9773C45.8712 40.3626 46.9885 40.7527 48.1009 41.1332C48.5344 41.2776 48.5344 41.268 48.5344 41.7351C48.5247 42.1782 48.5344 42.6261 48.5007 43.0595C48.4718 43.3822 48.2839 43.647 48.0335 43.8349C47.6627 44.1238 47.2967 44.3935 46.9259 44.6536L46.9211 44.6488Z" stroke-miterlimit="10"/>
<!-- <path id="Vector_3" d="M46.1634 43.777C45.7588 43.7577 45.4218 43.5988 45.181 43.2713C45.0558 43.0979 45.0654 42.9294 45.2098 42.8186C45.3543 42.7127 45.5084 42.7271 45.6433 42.8909C45.9852 43.2713 46.3656 43.2713 46.7076 42.8909C46.8424 42.7367 46.9965 42.7127 47.141 42.809C47.2855 42.9149 47.3048 43.0883 47.1747 43.2617C46.9147 43.594 46.5775 43.7577 46.1634 43.777Z" stroke="white" stroke-miterlimit="10"/> -->
</g>
<path id="Vector_4" d="M8.79392 5.89085C8.88061 4.76875 8.82767 3.69481 9.07328 2.6931C9.55969 0.718593 11.462 -0.104923 12.873 0.0202894C14.7223 0.188845 16.2008 1.17129 16.5619 3.14098C16.7209 4.00784 16.7305 4.90359 16.8124 5.83787H23.6076C23.6076 5.16847 23.6076 4.47016 23.6076 3.77186C23.622 1.88885 24.5756 0.747487 26.6608 0.116607C27.9852 -0.283111 29.8923 0.371848 30.6147 1.66732C31.0481 2.44268 31.2359 3.37214 31.4382 4.25345C31.549 4.74467 31.4575 5.27923 31.4575 5.84269H38.3298C38.3298 5.16365 38.3249 4.46535 38.3298 3.76705C38.349 1.43134 40.2513 -0.100107 42.2547 0.0299214C44.6048 0.18403 45.9677 1.57582 46.1748 4.01266C46.223 4.60501 46.1844 5.20218 46.1844 5.89085C47.4366 5.89085 48.655 5.84751 49.8686 5.9053C51.0437 5.96309 52.1417 6.21351 53.129 6.99369C54.4052 8.00502 54.9879 9.3342 55.0023 10.8608C55.0505 17.2419 55.0216 23.6229 55.0167 29.9992C55.0167 30.0762 54.9927 30.1533 54.9782 30.2303C47.0369 25.8912 39.7938 26.3198 34.0966 33.8711C30.6051 38.4992 30.6436 43.7389 33.0467 49.0363C32.883 49.0508 32.6904 49.0893 32.4929 49.0893C23.3331 49.0893 14.1685 49.046 5.00865 49.1182C2.28768 49.1423 -0.0191437 46.6188 0.000119785 44.1001C0.0964374 32.8694 0.0531321 21.634 0.0386845 10.3985C0.0386845 8.44808 2.06135 6.13646 3.82878 6.04977C4.66193 6.01125 5.49022 5.92456 6.31855 5.89567C7.13244 5.86677 7.95114 5.89085 8.7891 5.89085H8.79392ZM31.5441 9.82061C31.3226 10.5237 31.2215 11.1691 30.9278 11.7084C30.0802 13.2495 28.0816 14.1405 26.5742 13.6878C24.8212 13.158 23.545 11.8385 23.6076 9.74837C23.6268 9.13194 23.6076 8.51551 23.6076 7.89907H10.8455C10.8455 8.56366 10.8455 9.18491 10.8455 9.80616C10.8359 11.0053 11.5727 11.5832 12.377 11.7662C13.345 11.9878 14.2648 11.3617 14.6259 10.3696C14.703 10.1577 14.9005 9.86395 15.069 9.84469C15.6132 9.77726 16.1719 9.82061 16.7449 9.82061C16.6727 10.23 16.6294 10.5189 16.5619 10.7982C16.1189 12.6764 14.1444 14.0441 12.1217 13.7215C10.4458 13.4566 8.89508 12.1419 8.88064 9.95064C8.87582 9.25715 8.88064 8.55885 8.88064 7.85573C7.45513 7.85573 6.15002 7.83165 4.8401 7.86536C3.64095 7.89426 2.28288 8.65516 2.19619 9.85432C2.05653 11.7807 2.15768 13.7263 2.15768 15.6767H53.0615C53.0615 14.2079 53.0712 12.7679 53.0615 11.328C53.0471 9.08859 51.8479 7.86055 49.5507 7.85573C46.9887 7.85573 44.4267 7.85573 41.8646 7.85573H40.2994C40.2994 8.56848 40.2994 9.18973 40.2994 9.81098C40.2898 11.0053 41.0266 11.5832 41.8309 11.7662C42.794 11.9829 43.7139 11.3569 44.0751 10.3648C44.1521 10.1577 44.3496 9.86395 44.523 9.83987C45.0672 9.77245 45.6258 9.81579 46.1941 9.81579C46.117 10.23 46.0785 10.5189 46.0159 10.7982C45.568 12.6764 43.5935 14.0441 41.5708 13.7167C39.8997 13.447 38.349 12.137 38.3346 9.94101C38.3346 9.24752 38.3346 8.54922 38.3346 7.90389H25.5677C25.5677 8.55885 25.5821 9.16083 25.5677 9.758C25.534 11.0101 26.3574 11.6169 27.1424 11.7566C28.1249 11.9396 28.9677 11.3376 29.353 10.3166C29.43 10.1144 29.6515 9.85432 29.8345 9.83024C30.3643 9.76282 30.9036 9.80616 31.5393 9.80616L31.5441 9.82061ZM11.799 22.6405H7.95597V26.4547H11.799V22.6405ZM20.6025 26.4787V22.6405H16.7931V26.4787H20.6025ZM25.5965 26.4547H29.4492V22.6309H25.5965V26.4547ZM38.296 26.4836V22.6212H34.4481V26.4836H38.296ZM7.9271 34.3094H11.775V30.4904H7.9271V34.3094ZM16.7883 30.4567V34.3142H20.6169V30.4567H16.7883ZM25.6303 30.4615V34.3046H29.4444V30.4615H25.6303ZM7.9271 42.1593H11.7702V38.3451H7.9271V42.1593ZM16.7691 42.1544H20.6314V38.321H16.7691V42.1544ZM14.7704 5.86195C14.7704 5.19255 14.809 4.5713 14.7608 3.95005C14.6838 2.87129 13.9614 2.12483 12.9019 1.96591C12.1265 1.85032 11.1392 2.40415 10.9514 3.27583C10.7732 4.09934 10.8455 4.97583 10.807 5.86195H14.7656H14.7704ZM25.6399 5.84751H29.4974C29.4974 5.20699 29.5215 4.60982 29.4926 4.01747C29.4348 2.90019 28.698 2.1152 27.6144 1.96591C26.8294 1.85514 25.8374 2.42341 25.6736 3.28546C25.5195 4.08971 25.6399 4.95175 25.6399 5.84269V5.84751ZM40.3717 5.84751H44.2244C44.2244 5.21181 44.2485 4.61464 44.2196 4.02229C44.1618 2.905 43.4346 2.12001 42.351 1.96591C41.566 1.85514 40.5739 2.41378 40.4102 3.28064C40.2561 4.08489 40.3765 4.94694 40.3765 5.84751H40.3717Z"/>
<path id="Vector_5" d="M33.4267 42.1975C33.2774 35.3637 38.9457 29.3391 46.2033 29.4739C53.35 29.6039 58.8353 35.0122 58.9124 42.1108C58.9943 49.3057 53.1429 54.8873 46.1888 54.9981C39.1769 55.1137 33.1667 48.9879 33.4219 42.1975H33.4267ZM35.3916 42.1493C35.2471 48.1932 40.2508 52.6865 45.4231 53.0332C51.4141 53.4329 57.5928 48.2173 56.856 41.1043C56.3407 36.1391 52.2135 31.511 46.1407 31.4436C40.1449 31.3762 35.3482 36.221 35.3916 42.1493Z"/>
</g>
</svg>
