<svg width="38" height="48" viewBox="0 0 38 48" fill="none" xmlns="http://www.w3.org/2000/svg">
<g id="Group 34556">
<path id="Vector" d="M14.8034 23.41C14.8034 22.78 14.2934 22.27 13.6634 22.27C13.0334 22.27 12.5234 22.78 12.5234 23.41C12.5234 24.04 13.0334 24.55 13.6634 24.55C14.2934 24.55 14.8034 24.04 14.8034 23.41Z" stroke-width="0.5"/>
<path id="Vector_2" d="M27.9711 30.75V30.72C27.9011 28.74 26.2711 27.17 24.3011 27.17C24.2711 27.17 24.2311 27.17 24.2011 27.17C22.1911 27.12 20.5011 28.7 20.4311 30.72V30.75C20.4311 32.92 23.3511 35.73 23.6811 36.04L23.8711 36.22H12.5111C11.8911 36.22 11.3811 35.72 11.3811 35.1C11.4011 34.49 11.9011 34 12.5111 34H16.2811C17.7411 34 18.9211 32.82 18.9211 31.36C18.9211 29.9 17.7411 28.72 16.2811 28.72H13.9311L14.1611 28.51C14.4911 28.2 17.4111 25.37 17.4111 23.22V23.19C17.3811 22.21 16.9611 21.3 16.2511 20.63C15.5411 19.96 14.6111 19.61 13.6411 19.64C12.6711 19.61 11.7411 19.97 11.0311 20.63C10.3111 21.3 9.90109 22.21 9.87109 23.19V23.21C9.87109 25.36 12.7911 28.18 13.1211 28.5L13.3511 28.71H12.8811V30.22H16.2811C16.9011 30.22 17.4111 30.73 17.4111 31.35C17.4111 31.97 16.9011 32.48 16.2811 32.48H12.5111C11.8211 32.48 11.1611 32.75 10.6711 33.23C10.1711 33.71 9.89109 34.36 9.87109 35.06V35.08C9.87109 36.54 11.0511 37.72 12.5111 37.72H24.9511V36.21H24.5211L24.7111 36.03C25.0411 35.72 27.9611 32.89 27.9611 30.74L27.9711 30.75ZM11.3911 23.23C11.4111 22.66 11.6511 22.12 12.0711 21.73C12.4911 21.33 13.0411 21.13 13.6211 21.14H13.6411H13.6711C14.2511 21.12 14.8011 21.33 15.2211 21.72C15.6411 22.11 15.8811 22.65 15.9011 23.22C15.9011 24.19 14.6611 25.79 13.6411 26.88C12.6111 25.8 11.3911 24.19 11.3811 23.22L11.3911 23.23ZM21.9411 30.76C21.9911 29.6 22.9511 28.68 24.1011 28.68C24.1211 28.68 24.1511 28.68 24.1711 28.68H24.1911H24.2111C25.4011 28.64 26.4011 29.57 26.4511 30.76C26.4411 31.73 25.2111 33.34 24.1911 34.42C23.1711 33.34 21.9411 31.74 21.9311 30.76H21.9411Z" stroke-width="0.5"/>
<path id="Vector_3" d="M25.3503 30.9398C25.3503 30.3098 24.8403 29.7998 24.2103 29.7998C23.5803 29.7998 23.0703 30.3098 23.0703 30.9398C23.0703 31.5698 23.5803 32.0798 24.2103 32.0798C24.8403 32.0798 25.3503 31.5698 25.3503 30.9398Z" stroke-width="0.5"/>
<path id="Vector_4" d="M33.5222 3H25.7422C25.2122 1.78 24.0122 1 22.6922 1H15.1622C13.8322 1 12.6422 1.78 12.1122 3H4.33219C2.49219 3 1.00219 4.49 1.00219 6.33V14.32C1.00219 14.79 1.38219 15.17 1.85219 15.17C2.32219 15.17 2.70219 14.79 2.70219 14.32V6.33C2.70219 5.43 3.44219 4.69 4.34219 4.69H11.8422V7.87H7.03219C6.56219 7.87 6.18219 8.25 6.18219 8.72V41.77C6.18219 42.24 6.56219 42.62 7.03219 42.62H30.8322C31.3022 42.62 31.6822 42.24 31.6822 41.77V35.84C31.6822 35.37 31.3022 34.99 30.8322 34.99C30.3622 34.99 29.9822 35.37 29.9822 35.84V40.92H7.87219V9.56H11.8322V10.02C11.8322 10.49 12.2122 10.87 12.6822 10.87H25.1822C25.6522 10.87 26.0322 10.49 26.0322 10.02V9.56H29.9922V33.16C29.9922 33.63 30.3722 34.01 30.8422 34.01C31.3122 34.01 31.6922 33.63 31.6922 33.16V8.72C31.6922 8.25 31.3122 7.87 30.8422 7.87H26.0322V4.69H33.5322C34.4322 4.69 35.1722 5.42 35.1722 6.33V44.15C35.1722 45.05 34.4422 45.79 33.5322 45.79H4.33219C3.43219 45.79 2.69219 45.06 2.69219 44.15V16.99C2.69219 16.52 2.31219 16.14 1.84219 16.14C1.37219 16.14 0.992188 16.52 0.992188 16.99V44.15C0.992188 45.99 2.48219 47.48 4.32219 47.48H33.5122C35.3522 47.48 36.8422 45.99 36.8422 44.15V6.33C36.8422 4.49 35.3522 3 33.5122 3H33.5222ZM24.3222 4.33V9.18H13.5222V4.33C13.5222 3.43 14.2522 2.69 15.1622 2.69H22.6922C23.5922 2.69 24.3322 3.42 24.3322 4.33H24.3222Z" stroke-width="0.5"/>
<path id="Vector_5" d="M21.5327 6.43018H16.3227C15.8527 6.43018 15.4727 6.81018 15.4727 7.28018C15.4727 7.75018 15.8527 8.13018 16.3227 8.13018H21.5327C22.0027 8.13018 22.3827 7.75018 22.3827 7.28018C22.3827 6.81018 22.0027 6.43018 21.5327 6.43018Z" stroke-width="0.5"/>
<path id="Vector_6" d="M26.302 16.0801H15.682C15.212 16.0801 14.832 16.4601 14.832 16.9301C14.832 17.4001 15.212 17.7801 15.682 17.7801H26.302C26.772 17.7801 27.152 17.4001 27.152 16.9301C27.152 16.4601 26.772 16.0801 26.302 16.0801Z" stroke-width="0.5"/>
<path id="Vector_7" d="M27.1514 20.3398C27.1514 19.8798 26.9014 19.5098 26.5914 19.5098H19.5014C19.1914 19.5098 18.9414 19.8798 18.9414 20.3398C18.9414 20.7998 19.1914 21.1698 19.5014 21.1698H26.5914C26.9014 21.1698 27.1514 20.7998 27.1514 20.3398Z" stroke-width="0.5"/>
<path id="Vector_8" d="M21.7537 24.5199H26.8738C27.1038 24.5199 27.2838 24.1599 27.2838 23.6899C27.2838 23.2199 27.1038 22.8599 26.8738 22.8599H21.7537C21.5237 22.8599 21.3438 23.2199 21.3438 23.6899C21.3438 24.1599 21.5237 24.5199 21.7537 24.5199Z" stroke-width="0.5"/>
</g>
</svg>
