<svg width="54" height="55" viewBox="0 0 54 55" fill="none" xmlns="http://www.w3.org/2000/svg">
<path id="Vector" d="M47.211 30.1919C47.3283 29.3318 47.3842 28.4438 47.3842 27.5C47.3842 26.5562 47.3283 25.6682 47.1831 24.8081L52.997 20.2843C53.5108 19.8822 53.656 19.1115 53.3433 18.5362L47.8421 9.02518C47.4959 8.39409 46.781 8.19303 46.1499 8.39409L39.3029 11.1419C37.8731 10.0528 36.354 9.13688 34.6618 8.44994L33.6286 1.17283C33.5113 0.485885 32.9417 0 32.2547 0H21.2525C20.5655 0 20.0182 0.485885 19.9065 1.17283L18.8733 8.44994C17.1811 9.13688 15.6341 10.0807 14.2323 11.1419L7.3852 8.39409C6.75411 8.16511 6.03926 8.39409 5.69299 9.02518L0.219809 18.5362C-0.126454 19.1394 -0.00917379 19.8822 0.56607 20.2843L6.37992 24.8081C6.23472 25.6682 6.12304 26.612 6.12304 27.5C6.12304 28.388 6.17888 29.3318 6.32409 30.1919L0.510201 34.7157C-0.00360934 35.1178 -0.148814 35.8885 0.16394 36.4637L5.66508 45.9748C6.01134 46.6059 6.72619 46.807 7.35728 46.6059L14.2044 43.8581C15.6341 44.9472 17.1532 45.8631 18.8454 46.5501L19.8786 53.8272C20.0238 54.5141 20.5655 55 21.2525 55H32.2547C32.9417 55 33.5169 54.5141 33.6007 53.8272L34.6339 46.5501C36.3261 45.8631 37.8731 44.9472 39.2749 43.8581L46.122 46.6059C46.7531 46.8349 47.468 46.6059 47.8142 45.9748L53.3154 36.4637C53.6616 35.8326 53.5164 35.1178 52.9691 34.7157L47.211 30.1919ZM26.7592 37.8097C21.0849 37.8097 16.4495 33.1687 16.4495 27.5C16.4495 21.8313 21.0905 17.1903 26.7592 17.1903C32.4278 17.1903 37.0689 21.8313 37.0689 27.5C37.0689 33.1687 32.4278 37.8097 26.7592 37.8097Z" />
</svg>
