<svg width="39" height="35" viewBox="0 0 39 35" fill="none" xmlns="http://www.w3.org/2000/svg">
<path id="Vector" d="M19.5 7.77778V0H0V35H39V7.77778H19.5ZM7.8 31.1111H3.9V27.2222H7.8V31.1111ZM7.8 23.3333H3.9V19.4444H7.8V23.3333ZM7.8 15.5556H3.9V11.6667H7.8V15.5556ZM7.8 7.77778H3.9V3.88889H7.8V7.77778ZM15.6 31.1111H11.7V27.2222H15.6V31.1111ZM15.6 23.3333H11.7V19.4444H15.6V23.3333ZM15.6 15.5556H11.7V11.6667H15.6V15.5556ZM15.6 7.77778H11.7V3.88889H15.6V7.77778ZM35.1 31.1111H19.5V27.2222H23.4V23.3333H19.5V19.4444H23.4V15.5556H19.5V11.6667H35.1V31.1111ZM31.2 15.5556H27.3V19.4444H31.2V15.5556ZM31.2 23.3333H27.3V27.2222H31.2V23.3333Z" />
</svg>
