<svg width="48" height="45" viewBox="0 0 48 45" fill="none" xmlns="http://www.w3.org/2000/svg">
<g id="Group 34559">
<path id="Vector" d="M47.9864 2.84996C47.7645 2.80142 47.5356 2.71821 47.3137 2.71821C41.8843 2.70434 36.4548 2.70434 31.0253 2.6974V0H28.1476V2.57952C27.9396 2.62113 27.7246 2.70434 27.5166 2.70434C24.6875 2.71127 21.8652 2.70434 19.0361 2.70434C18.8697 2.70434 18.7032 2.70434 18.5368 2.72514C18.5091 2.72514 18.5021 2.88463 18.4883 2.96784C18.5299 3.05798 18.5576 3.162 18.6131 3.23827C19.4244 4.41015 19.7018 5.74845 19.7572 7.14223C19.7642 7.41266 19.7503 7.67616 19.7434 7.94659C19.4105 8.5152 19.8266 8.45279 20.1664 8.45279C23.7721 8.45279 27.3849 8.45972 30.9906 8.46666V18.23H21.3798C21.3452 18.2023 21.3036 18.2023 21.2689 18.23C21.2204 18.4172 21.1371 18.6045 21.1371 18.7847C21.1302 22.6055 21.1371 26.4262 21.1371 30.247C21.1371 30.4065 21.1718 30.5729 21.1926 30.7324C21.2481 30.7878 21.3036 30.8433 21.3521 30.8919C21.574 30.9127 21.8028 30.9473 22.0247 30.9473C23.8484 30.9543 25.6652 30.9612 27.4889 30.9681C27.4126 31.1554 27.3294 31.3357 27.2531 31.5229C26.3933 33.6794 25.5265 35.8359 24.6667 37.9925C23.994 39.6706 23.3214 41.3417 22.6488 43.0336C23.3769 43.3318 24.0911 43.6508 24.8331 43.9004C24.9995 43.9559 25.3809 43.8033 25.4433 43.6577C26.6498 40.683 27.8286 37.7012 29.0144 34.7195C29.1739 34.3104 29.3819 33.9221 29.6315 33.3743C30.5191 35.5863 31.3235 37.5834 32.1279 39.5943C32.6618 40.9257 33.168 42.264 33.7227 43.5814C33.7921 43.7479 34.118 43.9628 34.2497 43.9143C35.0194 43.6508 35.7614 43.311 36.538 42.992C35.4771 40.3848 34.4231 37.8261 33.4037 35.2604C32.8351 33.8389 32.3151 32.4035 31.7742 30.9681C32.0446 30.9681 32.3151 30.9543 32.5855 30.9543C37.4949 30.9543 42.4043 30.9543 47.3137 30.9543C47.5356 30.9543 47.7645 30.8711 47.9864 30.8225C47.9864 24.8314 48.0002 18.8402 48.0002 12.8421C48.0002 9.51372 47.9933 6.18531 47.9864 2.85689V2.84996Z"/>
<path id="Vector_2" d="M28.224 15.3317C28.224 14.0003 28.224 12.669 28.231 11.3307C28.1963 11.296 28.1616 11.2613 28.1339 11.2266C26.8441 11.2197 25.5544 11.2058 24.2646 11.2058C20.6658 11.2058 17.0669 11.2058 13.371 11.2058C15.9228 10.45 17.2195 8.86208 16.8589 6.19241C16.6092 4.33404 15.1323 3.04428 13.3294 2.84319C10.5141 2.52422 8.89842 4.2855 8.54477 6.34496C8.2258 8.238 9.20352 10.3529 11.894 11.2058C9.90388 11.2058 7.99004 11.2336 6.0762 11.1989C4.59921 11.1712 3.25398 11.5317 2.10984 12.4609C0.979562 13.3762 0.0919843 14.5551 0.0573133 16.0043C-0.0466997 19.8944 0.0226423 23.7914 0.0226423 27.6815C0.0226423 27.7994 0.0365107 27.9173 0.0434449 28.0559H4.25944C4.30798 27.8549 4.39119 27.6468 4.39119 27.4457C4.40506 24.8662 4.40506 22.2867 4.41199 19.7141H7.17874V44.9269H11.2768C11.3115 44.8922 11.3462 44.8575 11.3809 44.8228V30.996H14.1615C14.1615 31.5577 14.1615 32.0778 14.1615 32.5978C14.1615 36.6752 14.1753 40.7455 14.1823 44.8228C14.2169 44.8575 14.2516 44.8922 14.2794 44.9269H18.426V15.4565C18.8559 15.4565 19.2304 15.4565 19.6048 15.4565C22.4548 15.4496 25.3047 15.4426 28.1478 15.4288C28.1755 15.401 28.2102 15.3664 28.2379 15.3386L28.224 15.3317Z"/>
</g>
</svg>
