<svg version="1.2" xmlns="http://www.w3.org/2000/svg" viewBox="0 0 1000 1000" width="1000" height="1000">
	<title>7f592ddbe020cc36c4e1a34d5d405291-svg</title>
	<style>
		.s0 { fill: #ffffff } 
	</style>
	<g id="Layer">
		<g id="Layer">
			<path id="Layer" fill-rule="evenodd" class="s0" d="m181.4 13.2l15.9 7.2c20.3 9.6 53.1 20 77.3 25 71.7 14.5 143.6 6.3 207.4-23.8l17.6-8.5 17.9 8.5c63.6 30.1 135.5 38.3 207.2 23.8 24.2-5 56.9-15.4 77.3-24.8l15.7-7.3 75.3 71.2c41.4 39.1 75.6 71.7 75.9 72.4 0.4 0.8-4.2 8.5-10.1 16.9-13.1 18.8-26.5 46.6-32 66.5-3.5 12.5-4.1 20.7-4.3 46.8-0.1 44.3 5.8 71.3 34.4 159.1 25.8 79.2 35.6 133.3 32.6 181.2-6.6 104.9-62.4 180.4-175.5 236.9-43.7 21.9-84.7 37-172.7 64.1-86.8 26.6-114.3 37.4-132.5 51.4l-9.2 7.1-9-7.1c-17.8-13.6-46.2-24.8-120.8-47.6-69.4-21.3-91.6-28.7-129-43.3-117.5-46-187.7-106-215.7-184.4-11.5-32.2-14.9-53.1-15.1-92.4-0.2-51.2 6.3-85.6 30.5-160.1 31.2-96.8 36.4-119.6 36.4-163.9 0-26.1-0.8-33.2-4.4-47-5.8-21.1-18.6-48.1-32-67.3-6-8.4-10.6-16.1-10.2-16.9 0.4-0.7 34.5-33.3 75.9-72.4zm256.9 234.8c-33.3 1.9-69.5 5.2-83.9 7.7-19.2 3.2-29.2 8-36.1 17-5.7 7.7-17.8 43.4-30.8 92-4.8 17.9-9 33.2-9.4 34-0.6 0.7-3.9 0-7.5-1.6-8.8-3.6-42.8-3.6-51.6 0-13.2 5.6-19.3 20.9-13.2 33.4 4.4 8.8 12.5 14.2 26.3 17.6 5.9 1.4 10.7 2.7 10.7 3.1 0 0.2-2.5 5.8-5.8 12.5-12 25.7-11.5 41.6 3.9 117.7 7.3 35.8 7.6 40.2 7.6 71.5v33.4l11.2 11.1h35.6c23.4 0 37.2-0.8 40.5-2.3 8.2-3.7 10.5-10.8 10.5-32.2v-19.2h306.8v19.2c0 21.4 2.3 28.5 10.5 32.2 3.3 1.5 17.1 2.3 40.4 2.3h35.7l11.1-11.1v-33.6c0-29.5 0.6-36.6 5.8-61.9 6.7-33 12.6-67.5 14.4-84.4 1.5-13.8-2-29.9-9.6-45-2.9-5.4-4.8-10-4.4-10.2 0.3-0.2 6.7-2.3 14.1-4.6 7.5-2.3 15.4-6.3 17.9-8.6 12.4-13.4 7.3-34.9-10-41.4-8.2-3.3-42.4-2.7-50.4 0.8-5.2 2.1-6.9 2.1-7.5 0.3-0.6-1.3-5.2-18-10.5-37.3-13.8-50.3-23.8-80.2-29.7-87.7-9.6-12.6-26.7-17.6-76.7-22-23-2.1-142.3-4-165.9-2.7z"/>
			<path id="Layer" class="s0" d="m583 285.2c38 2.5 65.8 6.5 69.2 10 3.1 3.2 33.4 103.5 33.4 110.8 0 0.7-7.5-0.2-16.7-2.1-46.4-9.6-113.3-14-191.3-12.7-71.1 1.4-121.8 5.9-152.4 13.8-5.8 1.6-10.8 2.3-11.1 1.9-2.1-2.1 29.1-107.7 33.1-111.7 3.1-3.3 30.9-7.5 63.3-9.6 36-2.5 136.9-2.7 172.5-0.4z"/>
			<path id="Layer" class="s0" d="m332.5 540.9c14.9 8.3 15.5 30.9 1.1 40.5-14.7 9.6-37.2-2.5-37.2-20.1 0-5.8 4.8-14.4 10.8-19 5.9-4.6 18.4-5.4 25.3-1.4z"/>
			<path id="Layer" class="s0" d="m679.6 538.3c6.9 0 9.4 1.1 14.6 6.3 15.9 15.9 6 40.2-16.3 40-23-0.3-31.8-32.6-11.9-43.3 2.9-1.7 9.1-2.9 13.6-3z"/>
			<path id="Shape 1" class="s0" d="m878-95h100v100h-100z"/>
		</g>
	</g>
</svg>