<svg width="38" height="35" viewBox="0 0 38 35" fill="none" xmlns="http://www.w3.org/2000/svg">
<g id="Layer_1" clip-path="url(#clip0_2168_8231)">
<path id="Vector" d="M37.8109 11.4528L35.8149 2.95556C35.3967 1.20556 33.914 0 32.1841 0H5.77989C4.06903 0 2.56728 1.225 2.16808 2.95556L0.172085 11.4528C-0.284143 13.4361 0.134066 15.4583 1.35067 17.0528C1.50275 17.2667 1.71185 17.4222 1.88294 17.6167V31.1111C1.88294 33.25 3.5938 35 5.68484 35H32.2981C34.3892 35 36.1 33.25 36.1 31.1111V17.6167C36.2711 17.4417 36.4802 17.2667 36.6323 17.0722C37.8489 15.4778 38.2861 13.4361 37.8109 11.4528ZM32.1271 3.86944L34.1231 12.3667C34.3132 13.1833 34.1421 14 33.6478 14.6417C33.3817 14.9917 32.8114 15.5556 31.8609 15.5556C30.7013 15.5556 29.6938 14.6028 29.5608 13.3389L28.4582 3.88889C28.4582 3.88889 32.1271 3.86944 32.1271 3.88889V3.86944ZM20.8924 3.86944H24.6183L25.6448 12.6583C25.7399 13.4167 25.5118 14.175 25.0175 14.7389C24.5993 15.2444 23.991 15.5361 23.2116 15.5361C21.938 15.5361 20.8924 14.3889 20.8924 12.9889V3.88889V3.86944ZM12.3192 12.6583L13.3647 3.86944H17.0905V12.9889C17.0905 14.3889 16.045 15.5361 14.6383 15.5361C13.992 15.5361 13.4027 15.2444 12.9465 14.7389C12.4712 14.175 12.2431 13.4167 12.3192 12.6583ZM3.85993 12.3472L5.77989 3.88889H9.52476L8.42221 13.3389C8.27013 14.6028 7.28164 15.5556 6.12206 15.5556C5.19059 15.5556 4.6013 14.9917 4.35418 14.6417C3.84092 14.0194 3.66983 13.1833 3.85993 12.3667V12.3472ZM5.68484 31.0917V19.3667C5.83692 19.3861 5.96998 19.425 6.12206 19.425C7.77589 19.425 9.27764 18.725 10.3802 17.5778C11.5208 18.7444 13.0415 19.425 14.7714 19.425C16.5012 19.425 17.908 18.725 19.0105 17.6167C20.1321 18.725 21.6528 19.425 23.3637 19.425C24.9605 19.425 26.4812 18.7444 27.6218 17.5778C28.7244 18.725 30.2261 19.425 31.8799 19.425C32.032 19.425 32.1651 19.3861 32.3172 19.3667V31.0917H5.68484Z"/>
</g>
<defs>
<clipPath id="clip0_2168_8231">
<rect width="38" height="35" />
</clipPath>
</defs>
</svg>
