<?xml version="1.0" encoding="utf-8"?>
<!-- Generator: Adobe Illustrator 18.1.1, SVG Export Plug-In . SVG Version: 6.00 Build 0)  -->
<svg version="1.1" id="Layer_1" xmlns="http://www.w3.org/2000/svg" xmlns:xlink="http://www.w3.org/1999/xlink" x="0px" y="0px"
	 viewBox="0 0 100 100" enable-background="new 0 0 100 100" xml:space="preserve">
<g>
	<g>
		<path d="M63.7,47.1c5.3-2.3,10.8-2.8,16.6-2c0.1-0.4,0.2-0.6,0.2-0.9c0-7.4,0-14.9,0-22.3c0-0.9-0.4-1.4-1.2-1.7
			C67.4,15,55.4,9.7,43.4,4.5c-0.6-0.2-1.4-0.3-2,0C29.5,9.7,17.6,14.9,5.7,20.1c-1.2,0.5-1.6,1.2-1.5,2.5c0,6.6,0.1,13.2,0,19.9
			c-0.1,6.2,0.5,12.4,2.4,18.4c5.3,16,15.4,27.5,31.3,33.5c1.6,0.6,3.5,1.3,5.2,1.1c2.1-0.2,4.1-1.3,6.2-2c1.1-0.3,1.1-0.9,0.5-1.7
			c-4.2-6.7-5.7-13.9-4.3-21.7C47.4,59.2,53.7,51.6,63.7,47.1z"/>
		<path d="M75.5,75.4c-2,0-3.9,0.7-5.3,1.9l3.3,3c0.6-0.3,1.2-0.5,1.9-0.5c0.7,0,1.4,0.2,2,0.5l3.4-3C79.4,76.2,77.5,75.4,75.5,75.4
			z"/>
		<path d="M75.6,55.1c-11.5,0.1-20.4,9.1-20.4,20.4c0,10.2,7.8,20.3,20.4,20.2c12.3-0.1,20.2-9.6,20.4-20.3
			C96,64.2,86.6,55,75.6,55.1z M85,75.9c0.5,0,0.9,0.4,0.9,0.8v1.7h-0.4c-0.4-0.7-0.8-1.4-1.3-2C84.2,76.1,84.6,75.9,85,75.9z
			 M75.4,62.5c2.7,0,5,2.2,5,5c0,2.7-2.2,5-5,5s-5-2.2-5-5C70.5,64.7,72.7,62.5,75.4,62.5z M65.2,76.4c0-0.4,0.4-0.8,0.9-0.8
			c0.5,0,0.9,0.4,0.9,0.8c-0.5,0.6-0.9,1.1-1.2,1.8h-0.6V76.4z M64.8,83.7c0,0-0.1,0-0.1,0c-1.1,0-1.1-2.4-1.1-2.5
			c0,0,0-2.4,1.1-2.4c0,0,0.1,0,0.1,0c0,0,0,0,0.1,0h3.3c0.2,0,0.4,0.1,0.6,0.2c0.1,0.1,0.2,0.3,0.2,0.5c0,0.4-0.3,0.8-0.8,0.8h-2.3
			v0.2h2.3c0.2,0,0.4,0.1,0.5,0.2c0.1,0.1,0.2,0.3,0.2,0.5c0,0.2-0.1,0.4-0.2,0.5c-0.1,0.1-0.3,0.2-0.5,0.2h-2.3v0.2h2.3
			c0.3,0,0.5,0.2,0.7,0.4c0.1,0.1,0.1,0.2,0.1,0.4c0,0.4-0.3,0.8-0.8,0.8L64.8,83.7C64.9,83.7,64.8,83.7,64.8,83.7z M84.9,84.8
			C84.9,84.8,84.9,84.8,84.9,84.8H66.2c-0.4,0-0.7-0.2-0.9-0.4h2.8c0.8,0,1.4-0.6,1.4-1.4c0-0.1,0-0.2,0-0.4h2.1
			c0.1-0.3,0.2-0.5,0.3-0.7l-2.4-2.1c0,0,0-0.1,0-0.2c0-0.8-0.6-1.4-1.4-1.4h-1.5c0.1-0.2,0.2-0.3,0.3-0.5c0.2-0.3,0.5-0.6,0.8-0.9
			c0,0,0,0,0,0c0,0,0,0,0,0c1.9-2.1,4.7-3.4,7.7-3.4c3.1,0,5.8,1.3,7.7,3.4c0,0,0,0,0,0c0,0,0,0,0,0c0.3,0.3,0.5,0.6,0.8,1
			c0.2,0.2,0.3,0.5,0.5,0.7h-1.6c-0.7,0-1.3,0.6-1.4,1.3L79,81.9c0.1,0.2,0.2,0.4,0.3,0.6h2.4c-0.1,0.2-0.1,0.4-0.1,0.6h0
			c0,0.8,0.6,1.4,1.4,1.4h2.6C85.3,84.7,85.1,84.8,84.9,84.8z M87.5,81.5c0,0,0,2.4-1.1,2.4c0,0-0.1,0-0.1,0c0,0,0,0-0.1,0h-3.3
			c-0.4,0-0.8-0.3-0.8-0.8c0-0.3,0.1-0.5,0.3-0.6c0.1-0.1,0.3-0.1,0.4-0.1h2.3v-0.2h-2.3c-0.3,0-0.6-0.2-0.7-0.5
			c0-0.1-0.1-0.2-0.1-0.3c0-0.2,0.1-0.5,0.3-0.6c0.1-0.1,0.3-0.2,0.5-0.2h2.3v-0.2h-2.3c-0.4,0-0.8-0.3-0.8-0.8
			c0-0.2,0.1-0.5,0.3-0.6c0.1-0.1,0.3-0.2,0.4-0.2h3.3c0,0,0,0,0.1,0c0,0,0.1,0,0.1,0C87.5,79.1,87.5,81.5,87.5,81.5z"/>
	</g>
	<g>
		<path fill="#FFFFFF" d="M48.7,43.3h-9.3v9.4h-3.7v-9.4h-9.2v-3.4h9.2v-9.5h3.7v9.5h9.3V43.3z"/>
	</g>
</g>
</svg>
