<?xml version="1.0" encoding="utf-8"?>
<!-- Generator: Adobe Illustrator 18.1.1, SVG Export Plug-In . SVG Version: 6.00 Build 0)  -->
<svg version="1.1" id="Layer_1" xmlns="http://www.w3.org/2000/svg" xmlns:xlink="http://www.w3.org/1999/xlink" x="0px" y="0px"
	 viewBox="0 84.6 612 621" enable-background="new 0 84.6 612 621" xml:space="preserve">
<g>
	<g>
		<path d="M550.4,464.9c-56.9-37.7-122-53.2-189.8-59.6c-45.9-4.5-89.9,1.8-133.9,12c-47.7,12-93.6,27.5-132.1,59.6
			c-15.5,13.7-29.4,30.2-30.2,51.4c-1,33.9,0,67.9,0,102.7c177,0,355,0,532,0c0-1.8,1-2.7,1-4.5c0-29.4,0-58.7,0-88.9
			c0-16.5-3.7-31.2-14.7-43.2C573.4,484.1,563.4,473.1,550.4,464.9z"/>
		<path d="M331.2,326.3c63.2,0,113.8-50.4,113.8-113.8c-1-67.9-53.2-114.6-114.6-114.6c-62.4,0-113.8,51.4-113.8,113.8
			C216.6,274.9,268,327.1,331.2,326.3z"/>
	</g>
	<circle stroke="#FFFFFF" stroke-width="8" stroke-miterlimit="10" cx="158.7" cy="550.1" r="144"/>
	<g>
		<path fill="#FFFFFF" d="M212.9,558.3h-44.9v45.9h-18.3v-45.9h-44.9v-16.5h44.9v-45.9h18.3v45.9h44.9V558.3z"/>
	</g>
</g>
</svg>
