<?xml version="1.0" encoding="utf-8"?>
<!-- Generator: Adobe Illustrator 18.1.1, SVG Export Plug-In . SVG Version: 6.00 Build 0)  -->
<svg version="1.1" id="Layer_1" xmlns="http://www.w3.org/2000/svg" xmlns:xlink="http://www.w3.org/1999/xlink" x="0px" y="0px"
	 viewBox="0 0 100 100" enable-background="new 0 0 100 100" xml:space="preserve">
<g>
	<g id="Layer_5_">
		<g id="Layer_4_">
			<path id="Layer" fill="#010101" d="M25.7,22.4L27,23c1.6,0.8,4.2,1.6,6.1,2c5.7,1.1,11.3,0.5,16.4-1.9l1.4-0.7l1.4,0.7
				c5,2.4,10.7,3,16.3,1.9c1.9-0.4,4.5-1.2,6.1-2l1.2-0.6l5.9,5.6c3.3,3.1,6,5.7,6,5.7c0,0.1-0.3,0.7-0.8,1.3
				c-1,1.5-2.1,3.7-2.5,5.2c-0.3,1-0.3,1.6-0.3,3.7c0,3.5,0.5,5.6,2.7,12.5c2,6.2,2.8,10.5,2.6,14.3c-0.5,8.3-4.9,14.2-13.8,18.7
				c-3.4,1.7-6.7,2.9-13.6,5.1c-6.8,2.1-9,2.9-10.5,4.1l-0.7,0.6l-0.7-0.6c-1.4-1.1-3.6-2-9.5-3.8c-5.5-1.7-7.2-2.3-10.2-3.4
				c-9.3-3.6-14.8-8.4-17-14.5c-0.9-2.5-1.2-4.2-1.2-7.3c0-4,0.5-6.8,2.4-12.6c2.5-7.6,2.9-9.4,2.9-12.9c0-2.1-0.1-2.6-0.3-3.7
				c-0.5-1.7-1.5-3.8-2.5-5.3c-0.5-0.7-0.8-1.3-0.8-1.3c0-0.1,2.7-2.6,6-5.7L25.7,22.4z M46,41c-2.6,0.1-5.5,0.4-6.6,0.6
				c-1.5,0.3-2.3,0.6-2.8,1.3c-0.4,0.6-1.4,3.4-2.4,7.3c-0.4,1.4-0.7,2.6-0.7,2.7c0,0.1-0.3,0-0.6-0.1c-0.7-0.3-3.4-0.3-4.1,0
				c-1,0.4-1.5,1.6-1,2.6c0.3,0.7,1,1.1,2.1,1.4c0.5,0.1,0.8,0.2,0.8,0.2c0,0-0.2,0.5-0.5,1c-0.9,2-0.9,3.3,0.3,9.3
				c0.6,2.8,0.6,3.2,0.6,5.6v2.6l0.9,0.9h2.8c1.8,0,2.9-0.1,3.2-0.2c0.6-0.3,0.8-0.9,0.8-2.5v-1.5h24.2v1.5c0,1.7,0.2,2.2,0.8,2.5
				c0.3,0.1,1.3,0.2,3.2,0.2h2.8l0.9-0.9v-2.7c0-2.3,0-2.9,0.5-4.9c0.5-2.6,1-5.3,1.1-6.7c0.1-1.1-0.2-2.4-0.8-3.5
				c-0.2-0.4-0.4-0.8-0.3-0.8c0,0,0.5-0.2,1.1-0.4c0.6-0.2,1.2-0.5,1.4-0.7c1-1.1,0.6-2.8-0.8-3.3c-0.6-0.3-3.3-0.2-4,0.1
				c-0.4,0.2-0.5,0.2-0.6,0c0-0.1-0.4-1.4-0.8-2.9c-1.1-4-1.9-6.3-2.3-6.9c-0.8-1-2.1-1.4-6-1.7C57.3,41,47.9,40.9,46,41L46,41z"/>
			<path id="Layer_1_" fill="#010101" d="M57.4,43.9c3,0.2,5.2,0.5,5.5,0.8c0.2,0.3,2.6,8.2,2.6,8.7c0,0.1-0.6,0-1.3-0.2
				c-3.7-0.8-8.9-1.1-15.1-1c-5.6,0.1-9.6,0.5-12,1.1c-0.5,0.1-0.9,0.2-0.9,0.1c-0.2-0.2,2.3-8.5,2.6-8.8c0.2-0.3,2.4-0.6,5-0.8
				C46.6,43.7,54.6,43.7,57.4,43.9L57.4,43.9z"/>
			<path id="Layer_2_" fill="#010101" d="M37.6,64.1c1.2,0.7,1.2,2.4,0.1,3.2c-1.2,0.8-2.9-0.2-2.9-1.6c0-0.5,0.4-1.1,0.9-1.5
				C36.1,63.8,37.1,63.7,37.6,64.1L37.6,64.1z"/>
			<path id="Layer_3_" fill="#010101" d="M65,63.9c0.5,0,0.7,0.1,1.2,0.5c1.3,1.3,0.5,3.2-1.3,3.2c-1.8,0-2.5-2.6-0.9-3.4
				C64.2,64,64.7,63.9,65,63.9L65,63.9z"/>
		</g>
	</g>
	<circle stroke="#FFFFFF" stroke-width="2" stroke-miterlimit="10" cx="30.2" cy="20.5" r="19.7"/>
	<g>
		<path fill="#FFFFFF" d="M37.6,21.6h-6.2v6.2H29v-6.2h-6.1v-2.2H29v-6.3h2.5v6.3h6.2V21.6z"/>
	</g>
</g>
</svg>
