<?xml version="1.0" encoding="utf-8"?>
<!-- Generator: Adobe Illustrator 18.1.1, SVG Export Plug-In . SVG Version: 6.00 Build 0)  -->
<svg version="1.1" id="Layer_1" xmlns="http://www.w3.org/2000/svg" xmlns:xlink="http://www.w3.org/1999/xlink" x="0px" y="0px"
	 viewBox="0 0 100 100" enable-background="new 0 0 100 100" xml:space="preserve">
<g>
	<g>
		<path d="M60,57.5c-6.2-4.1-13.3-5.8-20.7-6.5c-5-0.5-9.8,0.2-14.6,1.3c-5.2,1.3-10.2,3-14.4,6.5c-1.7,1.5-3.2,3.3-3.3,5.6
			c-0.1,3.7,0,7.4,0,11.2c19.3,0,38.7,0,58,0c0-0.2,0.1-0.3,0.1-0.5c0-3.2,0-6.4,0-9.7c0-1.8-0.4-3.4-1.6-4.7
			C62.5,59.6,61.4,58.4,60,57.5z"/>
		<path d="M98.4,64.8c0-1.9-1-3.5-2.3-4.9c-1.9-2.1-4.2-3.5-6.7-4.6c-5.1-2.4-10.5-3.8-16.2-4.2c-2.5-0.2-5.1,0-7.9,0
			c0.6,0.5,1,0.8,1.4,1.1c2.8,2.3,5.1,5,6,8.6c0.6,2.3,0.7,4.8,0.8,7.2c0.1,2.6,0,5.2,0,7.8c8.3,0,16.6,0,24.9,0
			C98.4,71.9,98.5,68.4,98.4,64.8z"/>
		<path d="M69.4,42.4c6.8,0,12.4-5.6,12.4-12.4c0-6.9-5.5-12.5-12.4-12.5c-6.9-0.1-12.5,5.5-12.6,12.4
			C56.8,36.8,62.5,42.4,69.4,42.4z"/>
		<path d="M36.1,42.4c6.9,0,12.4-5.5,12.4-12.4c-0.1-7.4-5.8-12.5-12.5-12.5c-6.8,0-12.4,5.6-12.4,12.4
			C23.6,36.8,29.2,42.5,36.1,42.4z"/>
	</g>
	<circle stroke="#FFFFFF" stroke-width="2" stroke-miterlimit="10" cx="17.3" cy="66.8" r="15.7"/>
	<g>
		<path fill="#FFFFFF" d="M23.2,67.7h-4.9v5h-2v-5h-4.9v-1.8h4.9v-5h2v5h4.9V67.7z"/>
	</g>
</g>
</svg>
