<?xml version="1.0" encoding="utf-8"?>
<!-- Generator: Adobe Illustrator 18.1.1, SVG Export Plug-In . SVG Version: 6.00 Build 0)  -->
<svg version="1.1" id="Layer_1" xmlns="http://www.w3.org/2000/svg" xmlns:xlink="http://www.w3.org/1999/xlink" x="0px" y="0px"
	 viewBox="0 0 100 100" enable-background="new 0 0 100 100" xml:space="preserve">
<g>
	<path d="M77.6,87.7c-20.1,0-39.9,0-60,0c0,1.3,0,2.7,0,4c0,4.1-1.8,5.9-5.9,5.9c-1.2,0-2.4,0-3.6,0c-3.5-0.1-5.4-1.9-5.4-5.4
		c0-4.2,0-8.4,0-12.6c0-8.6,0-17.1,0-25.7c0-0.8,0.1-1.7,0.4-2.4c3.2-9.3,6.4-18.6,9.6-27.9c1.4-4,4-5.8,8.1-5.8
		c17.8,0,35.6,0,53.4,0c4.4,0,6.8,1.7,8.2,5.8c3.2,9.3,6.5,18.7,9.7,28c0.2,0.7,0.4,1.5,0.4,2.3c0,12.6,0,25.2,0,37.8
		c0,1,0,2.1-0.4,2.9c-0.7,1.7-2,2.8-4,3c-1.9,0.1-3.7,0.2-5.6,0.1c-3.1-0.2-4.9-2.2-5-5.3C77.6,90.8,77.6,89.3,77.6,87.7z
		 M20.1,25.2c-2.5,7.5-5,14.9-7.5,22.4c23.4,0,46.6,0,70,0c-2.5-7.5-5-15-7.5-22.4C56.8,25.2,38.5,25.2,20.1,25.2z M27.6,65.3
		c0-4.2-3.2-7.6-7.4-7.6c-4.1,0-7.5,3.3-7.5,7.4c0,4.1,3.4,7.6,7.5,7.6C24.2,72.8,27.6,69.4,27.6,65.3z M82.6,65.2
		c0-4.1-3.3-7.4-7.5-7.5c-4.2,0-7.5,3.3-7.5,7.5c0,3.6,2.5,7.4,7.5,7.5C79.3,72.7,82.6,69.2,82.6,65.2z"/>
	<circle stroke="#FFFFFF" stroke-width="2" stroke-miterlimit="10" cx="76.9" cy="22.7" r="20.4"/>
	<g>
		<path fill="#FFFFFF" d="M84.6,23.9h-6.4v6.5h-2.5v-6.5h-6.3v-2.3h6.3v-6.5h2.5v6.5h6.4V23.9z"/>
	</g>
</g>
</svg>
