<?xml version="1.0" encoding="utf-8"?>
<!-- Generator: Adobe Illustrator 18.1.1, SVG Export Plug-In . SVG Version: 6.00 Build 0)  -->
<svg version="1.1" id="Layer_1" xmlns="http://www.w3.org/2000/svg" xmlns:xlink="http://www.w3.org/1999/xlink" x="0px" y="0px"
	 viewBox="0 0 100 100" enable-background="new 0 0 100 100" xml:space="preserve">
<g>
	<path d="M25.5,6.9c4.9,0,9.9,0,14.8,0c2.9,0,5.3,1,7.3,3c12.3,12.3,24.6,24.6,37,37c3.4,3.4,4.1,7.4,1.8,11.2
		c-0.5,0.8-1.1,1.6-1.8,2.2C74.7,70.2,64.8,80.1,54.9,90c-4.2,4.2-9.2,4.2-13.4,0C29.1,77.7,16.8,65.3,4.4,53c-2.1-2-3-4.4-3-7.3
		c0-9.8,0-19.6,0-29.4c0-5.7,3.6-9.4,9.3-9.4c2.5,0,4.9,0,7.4,0C20.6,6.9,23,6.9,25.5,6.9C25.5,6.9,25.5,6.9,25.5,6.9z M20.9,32.7
		c3.7,0,6.4-2.6,6.4-6.3c0-3.7-2.8-6.6-6.4-6.6c-3.6,0-6.5,2.9-6.5,6.5C14.3,29.9,17.2,32.7,20.9,32.7z"/>
	<circle stroke="#FFFFFF" stroke-width="2" stroke-miterlimit="10" cx="73.1" cy="50" r="25.5"/>
	<g>
		<path fill="#FFFFFF" d="M82.7,51.5h-8v8.1h-3.2v-8.1h-7.9v-2.9h7.9v-8.1h3.2v8.1h8V51.5z"/>
	</g>
</g>
</svg>
