<?xml version="1.0" encoding="utf-8"?>
<!-- Generator: Adobe Illustrator 18.1.1, SVG Export Plug-In . SVG Version: 6.00 Build 0)  -->
<svg version="1.1" id="Layer_1" xmlns="http://www.w3.org/2000/svg" xmlns:xlink="http://www.w3.org/1999/xlink" x="0px" y="0px"
	 viewBox="0 0 100 100" enable-background="new 0 0 100 100" xml:space="preserve">
<g>
	<g>
		<path d="M96,65.9c0-0.7-0.1-1.5-0.4-2.2c-2-5.7-4-11.5-6-17.2c-1-2.9-2.5-4-5.6-4c-10.9,0-21.7,0-32.6,0c-3.1,0-4.5,1-5.5,3.9
			c-2.1,5.9-4.2,11.9-6.2,17.8c-0.2,0.6-0.3,1.2-0.3,1.8c0,4.4,0,8.7,0,13.1c0,3.6,0,7.2,0,10.8c0,3.1,1.2,4.3,4.2,4.3
			c0.3,0,0.7,0,1,0c2.9,0,4.2-1.2,4.2-4.2c0-1.7,0-3.4,0-5.1c12.6,0,25.1,0,37.6,0c0,1.1,0,1.9,0,2.8c0,0.9,0,1.7,0,2.6
			c0.1,2.6,1.4,4,4,4c0.4,0,0.9,0,1.3,0c2.9,0,4.1-1.2,4.1-4.1C96,82,96,73.9,96,65.9z M47.7,56.3c0.9-2.7,1.9-5.5,2.8-8.3
			c0.3-0.8,0.7-1,1.4-1c10.6,0,21.2,0,31.8,0c0.4,0,1,0.3,1.2,0.7c1.6,4.4,3.1,8.8,4.7,13.5c-14.6,0-29,0-43.6,0
			C46.6,59.5,47.2,57.9,47.7,56.3z M49,75.4c-2.5,0-4.8-2.3-4.8-4.7c0-2.5,2.2-4.7,4.6-4.7c2.6,0,4.8,2.1,4.8,4.7
			C53.6,73.2,51.5,75.4,49,75.4z M86.7,75.5c-2.5,0.1-4.7-2.2-4.8-4.7c0-2.6,2.1-4.7,4.7-4.7c2.6,0,4.7,2.2,4.7,4.7
			C91.4,73.2,89.1,75.4,86.7,75.5z"/>
		<path d="M11.4,28.3c14.2,0,28.2,0,42.4,0c0,3.2,0,6.2,0,9.2c3.1,0,6.1,0,9.2,0c0-1.7,0-3.3,0-5C62.9,25.3,56.8,19,49.5,19
			c-11.2-0.1-22.5-0.1-33.7,0C8,19,1.9,25,1.9,32.8c-0.1,12.8-0.1,25.5,0,38.3c0,5,2.4,9.1,6.8,11.6c2.1,1.2,4.5,1.7,6.9,2.6
			c-2.1,2.4-5.8,4.3-3.9,8.9c1.1,0,2.5,0,3.8,0c0.4,0,0.8-0.3,1.1-0.6c2.7-2.7,5.3-5.4,8-8c0.5-0.5,1.4-0.8,2.1-0.9
			c2.7-0.1,5.3,0,8.1,0c0-7.7,0-15.5,0-23.3c-7.8,0-15.5,0-23.3,0C11.4,50.2,11.4,39.2,11.4,28.3z M15.9,66c2.6,0,4.7,2.1,4.7,4.7
			c0,2.5-2.2,4.7-4.6,4.7c-2.6,0-4.7-2.2-4.7-4.8C11.3,68.1,13.4,66,15.9,66z"/>
	</g>
	<circle stroke="#FFFFFF" stroke-width="2" stroke-miterlimit="10" cx="74.8" cy="29.2" r="23.4"/>
	<g>
		<path fill="#FFFFFF" d="M83.5,30.6h-7.3V38h-2.9v-7.4H66v-2.6h7.3v-7.5h2.9v7.5h7.3V30.6z"/>
	</g>
</g>
</svg>
