<?xml version="1.0" encoding="utf-8"?>
<!-- Generator: Adobe Illustrator 18.1.1, SVG Export Plug-In . SVG Version: 6.00 Build 0)  -->
<svg version="1.1" id="Layer_1" xmlns="http://www.w3.org/2000/svg" xmlns:xlink="http://www.w3.org/1999/xlink" x="0px" y="0px"
	 viewBox="0 0 100 100" enable-background="new 0 0 100 100" xml:space="preserve">
<g>
	<g>
		<path d="M83.3,57.2c0-11.1,0-22.2,0-33.4c0-5.8-4.4-9.9-9.7-9.5c-1.2,0.1-2.4,0-3.8,0c0-3,0-6,0-8.9c-3,0-5.8,0-8.8,0
			c0,3,0,5.9,0,8.8c-12,0-23.8,0-35.8,0c0-3,0-5.9,0-8.8c-2.9,0-5.8,0-8.7,0c0,2.9,0,5.8,0,8.9c-1.9,0-3.5,0-5.1,0
			c-4.1,0.1-7.9,3.8-8.1,7.9c-0.1,4.7-0.1,9.3-0.1,14c0,16.1-0.1,32.2-0.1,48.3c0,3.3,0.9,6.2,3.8,8.2c2,1.4,4.2,1.7,6.6,1.7
			c16.4,0,32.7,0,49.1,0c3.8,0,7.7,0,11.5,0c3.8,0,6.7-1.7,8.2-5.1c0.7-1.5,0.9-3.2,1-4.8C83.3,75.4,83.3,66.3,83.3,57.2z
			 M74.3,85.5c-20.8,0-41.5,0-62.3,0c0-14.8,0-29.5,0-44.3c20.7,0,41.5,0,62.3,0C74.3,55.9,74.3,70.7,74.3,85.5z"/>
		<path d="M65.4,50c-3,0-5.9,0-8.7,0c0,3,0,5.9,0,8.7c3,0,5.8,0,8.7,0C65.4,55.8,65.4,53,65.4,50z"/>
		<path d="M29.7,50c-3,0-5.8,0-8.7,0c0,2.9,0,5.7,0,8.7c3,0,5.9,0,8.7,0C29.7,55.8,29.7,52.9,29.7,50z"/>
		<path d="M65.4,67.9c-3,0-5.9,0-8.7,0c0,2.9,0,5.8,0,8.6c3,0,5.8,0,8.7,0C65.4,73.6,65.4,70.8,65.4,67.9z"/>
		<path d="M21,76.6c2.9,0,5.8,0,8.7,0c0-2.9,0-5.8,0-8.7c-2.9,0-5.8,0-8.7,0C21,70.9,21,73.7,21,76.6z"/>
		<path d="M47.5,50c-2.9,0-5.8,0-8.7,0c0,3,0,5.9,0,8.8c3,0,5.8,0,8.7,0C47.5,55.8,47.5,52.9,47.5,50z"/>
		<path d="M47.5,67.9c-3,0-5.8,0-8.7,0c0,2.9,0,5.7,0,8.7c3,0,5.8,0,8.7,0C47.5,73.6,47.5,70.8,47.5,67.9z"/>
	</g>
	<circle stroke="#FFFFFF" stroke-width="2" stroke-miterlimit="10" cx="76.9" cy="30.2" r="20"/>
	<g>
		<path fill="#FFFFFF" d="M84.4,31.3h-6.3v6.3h-2.5v-6.3h-6.2v-2.3h6.2v-6.4h2.5v6.4h6.3V31.3z"/>
	</g>
</g>
</svg>
