<?xml version="1.0" encoding="utf-8"?>
<!-- Generator: Adobe Illustrator 18.1.1, SVG Export Plug-In . SVG Version: 6.00 Build 0)  -->
<svg version="1.1" id="Layer_1" xmlns="http://www.w3.org/2000/svg" xmlns:xlink="http://www.w3.org/1999/xlink" x="0px" y="0px"
	 viewBox="0 0 100 100" enable-background="new 0 0 100 100" xml:space="preserve">
<g>
	<g id="layer0_1_">
		<g transform="matrix(1 0 0 1 -177.713 13.4407)">
			<path d="M220.9,52.7v2.8c0,2.7-2,4.7-4.7,4.7c-1.3,0-2.5-0.5-3.3-1.4L200.1,46c-1.9-1.9-1.9-4.9,0-6.6c0.9-0.9,2-1.4,3.3-1.4h2.8
				l22.6-22.6v-2.8c0-2.7,2-4.7,4.7-4.7c1.3,0,2.5,0.5,3.3,1.4l12.9,12.9c1.9,1.9,1.9,4.9,0,6.6c-0.9,0.9-2,1.4-3.3,1.4h-2.8
				l-7.1,7.1l19,19V15.1l-3.6,3.6l-2.2-2.2l5.8-5.8V-2.8c0-0.9-0.6-1.6-1.6-1.6h-56.4c-0.9,0-1.6,0.6-1.6,1.6v73.7h7.8
				c2.7,0,4.7,2,4.7,4.7v7.8h45.5c0.9,0,1.6-0.6,1.6-1.6V69.9l-25.9-25.9L220.9,52.7z M253.4,7.7l-6.3,6.3l-2.2-2.2l6.3-6.3
				L253.4,7.7z M243.3,3.9l2.2,2.2l-3.1,3.1l-2.2-2.2L243.3,3.9z M216.2,0.3H235v3.1h-18.8V0.3z M200.5,8.2h25.1v3.1h-25.1V8.2z
				 M200.5,16h18.8v3.1h-18.8V16z M200.5,23.8h12.5V27h-12.5V23.8z M200.5,31.7h4.7v3.1h-4.7V31.7z M250.7,78.7h-37.6v-3.1h37.6
				V78.7z M250.7,72.5h-37.6v-3.1h37.6V72.5z M244.4,66.2h-43.9V63h43.9V66.2z"/>
			<path d="M203.7,74H198l7.2,7.2v-5.6C205.2,74.6,204.6,74,203.7,74L203.7,74z"/>
			<path d="M203.3,41.1c-0.9,0-1.6,0.6-1.6,1.6c0,0.5,0.2,0.8,0.5,1.1l12.9,12.9c0.6,0.6,1.6,0.6,2.2,0c0.3-0.3,0.5-0.6,0.5-1.1
				v-2.8l-11.6-11.6H203.3z"/>
			<path d="M209,39.5l21.3-21.3l10.3,10.3l-21.3,21.3L209,39.5z"/>
			<path d="M264.3,69.5l-30.1-30.1l-2.5,2.5L261.8,72c0.6,0.6,1.7,0.6,2.5,0C265,71.2,265,70.1,264.3,69.5L264.3,69.5z"/>
			<path d="M246.3,27c0.9,0,1.6-0.6,1.6-1.6c0-0.5-0.2-0.8-0.5-1.1l-12.9-12.9c-0.6-0.6-1.6-0.6-2.2,0c-0.3,0.3-0.5,0.6-0.5,1.1v2.8
				L243.5,27H246.3z"/>
		</g>
	</g>
	<circle stroke="#FFFFFF" stroke-width="2" stroke-miterlimit="10" cx="27.3" cy="17.6" r="14.4"/>
	<g>
		<path fill="#FFFFFF" d="M32.7,18.4h-4.5v4.6h-1.8v-4.6h-4.5v-1.6h4.5v-4.6h1.8v4.6h4.5V18.4z"/>
	</g>
</g>
</svg>
