<?xml version="1.0" encoding="utf-8"?>
<!-- Generator: Adobe Illustrator 18.1.1, SVG Export Plug-In . SVG Version: 6.00 Build 0)  -->
<svg version="1.1" id="Layer_1" xmlns="http://www.w3.org/2000/svg" xmlns:xlink="http://www.w3.org/1999/xlink" x="0px" y="0px"
	 viewBox="0 0 100 100" enable-background="new 0 0 100 100" xml:space="preserve">
<g>
	<g>
		<path d="M57,55.5c-0.4-2.1,5.6-9.2,6.9-12.9c2-3.2,3.2-9.3,0.8-12.7c-1.4-2-0.8-4-0.8-6.6c0-20.6-36.1-20.6-36.1,0
			c0,2.1,0.4,4.7-0.6,6.3c-2.5,3.8-1.7,9.5,0.6,13.1c1,3.6,6.8,11,6.6,12.9C34.4,65.8,57.4,66.1,57,55.5z"/>
		<path d="M28.1,62.8c-4.9,3-11.6,5.5-16.9,7.5c-10.6,4-8.1,3.4-9.1,16.1h35C39,76.7,35.1,69.2,28.1,62.8z"/>
		<path d="M76.5,71.5l1.3-3.1c-5-1.7-11-4-15.3-6.7c-8.2,7.6-10.9,15.9-9.4,24.7h18.8l0.5-2.1L58.9,72.8L76.5,71.5z"/>
		<polygon points="97.8,75 87.3,74.2 83.2,64.4 79.2,74.2 68.7,75 76.8,81.8 74.2,92.1 83.3,86.6 92.3,92.1 89.8,81.8 		"/>
	</g>
	<g>
		<path fill="#FFFFFF" d="M89.1,80.1h-4.3v4.4h-1.7v-4.4h-4.3v-1.6h4.3v-4.4h1.7v4.4h4.3V80.1z"/>
	</g>
</g>
</svg>
