<?xml version="1.0" encoding="utf-8"?>
<!-- Generator: Adobe Illustrator 18.1.1, SVG Export Plug-In . SVG Version: 6.00 Build 0)  -->
<svg version="1.1" id="Layer_1" xmlns="http://www.w3.org/2000/svg" xmlns:xlink="http://www.w3.org/1999/xlink" x="0px" y="0px"
	 viewBox="0 0 100 100" enable-background="new 0 0 100 100" xml:space="preserve">
<g>
	<g>
		<path d="M40.8,36.7c-0.7,0.4-1.6,0.6-2.4,0.7c-5,0.1-9.9,0-14.9,0c-5.4,0-9,3.6-9,9c0,2.4,0,4.7,0,7.1c0,5.7,3.5,9.2,9.2,9.2
			c1.1,0,2.2,0,3.4,0c0,5.7,0,11.3,0,16.9c2.9,0,5.6,0,8.5,0c0-5.7,0-11.2,0-16.7c2.5-0.4,4.6,0.1,6.7,1.4c5.7,3.6,11.5,7,17.3,10.4
			c0.4,0.2,0.7,0.4,1.2,0.6c0-16.8,0-33.5,0-50.3c-0.5,0.3-0.9,0.5-1.2,0.7C53.3,29.3,47.1,33,40.8,36.7z"/>
		<path d="M73.6,73.7c4.5,3.4,9,6.7,13.5,10.1c1.7-2.3,3.4-4.5,5.1-6.7c-4.6-3.4-9-6.7-13.5-10.1C76.9,69.2,75.3,71.4,73.6,73.7z"/>
		<path d="M92.1,23c-1.7-2.3-3.4-4.5-5-6.7c-4.5,3.4-9,6.7-13.5,10.1c1.7,2.3,3.3,4.5,5,6.7C83.1,29.7,87.5,26.4,92.1,23z"/>
		<path d="M82.1,45.9c0,2.8,0,5.5,0,8.2c5.7,0,11.2,0,16.7,0c0-2.8,0-5.5,0-8.2C93.2,45.9,87.7,45.9,82.1,45.9z"/>
		<path d="M65.2,36.1c0,9.3,0,18.4,0,27.6C73.3,57.1,73.6,43.3,65.2,36.1z"/>
	</g>
	<circle stroke="#FFFFFF" stroke-width="2" stroke-miterlimit="10" cx="15.9" cy="63.8" r="14.7"/>
	<g>
		<path fill="#FFFFFF" d="M21.4,64.6h-4.6v4.7H15v-4.7h-4.6v-1.7H15v-4.7h1.8v4.7h4.6V64.6z"/>
	</g>
</g>
</svg>
