<?xml version="1.0" encoding="utf-8"?>
<!-- Generator: Adobe Illustrator 18.1.1, SVG Export Plug-In . SVG Version: 6.00 Build 0)  -->
<svg version="1.1" id="Layer_1" xmlns="http://www.w3.org/2000/svg" xmlns:xlink="http://www.w3.org/1999/xlink" x="0px" y="0px"
	 viewBox="0 0 100 100" enable-background="new 0 0 100 100" xml:space="preserve">
<g>
	<path d="M16.2,11.4c0-2.8,0-5.4,0-8.1c2.8,0,5.4,0,8.2,0c0,2.7,0,5.3,0,8c13.7,0,27.3,0,41,0c0-2.6,0-5.3,0-8c2.8,0,5.4,0,8.2,0
		c0,2.6,0,5.3,0,8c1.7,0.1,3.4,0.1,4.9,0.3c4.3,0.5,7.3,3.7,7.3,8.1c0.1,6.9,0,13.9,0,20.8c0,14.7,0,29.4,0,44.2
		c0,4.2-2.2,7.4-6.1,8.4c-0.9,0.2-1.8,0.3-2.7,0.3c-13.3,0-26.6,0-39.9,0c-8.1,0-16.2,0-24.3,0c-3.6,0-6.4-1.3-8-4.7
		C4.3,87.5,4,86.1,4,84.9c-0.1-14.5,0-29,0-43.5c0-7,0-14,0-21c0-5.3,3.4-8.9,8.7-8.9C13.8,11.4,14.9,11.4,16.2,11.4z M77.6,85.2
		c0-17.8,0-35.5,0-53.2c-21.8,0-43.6,0-65.3,0c0,17.8,0,35.5,0,53.2C34.1,85.2,55.8,85.2,77.6,85.2z"/>
	<circle stroke="#FFFFFF" stroke-miterlimit="10" cx="75.3" cy="75.9" r="20.7"/>
	<g>
		<path fill="#FFFFFF" d="M83.1,77.1h-6.5v6.6H74v-6.6h-6.4v-2.3H74v-6.6h2.6v6.6h6.5V77.1z"/>
	</g>
</g>
</svg>
