<?xml version="1.0" encoding="utf-8"?>
<!-- Generator: Adobe Illustrator 18.1.1, SVG Export Plug-In . SVG Version: 6.00 Build 0)  -->
<svg version="1.1" id="Layer_1" xmlns="http://www.w3.org/2000/svg" xmlns:xlink="http://www.w3.org/1999/xlink" x="0px" y="0px"
	 viewBox="0 0 100 100" enable-background="new 0 0 100 100" xml:space="preserve">
<g>
	<g>
		<path d="M44.1,52.4c-3.5,0.2-6.7,0.2-9.9,0.5C24.8,53.7,16,56.7,8,61.7c-3.3,2-5.3,5.2-5.7,8.9C1.8,75.8,1.9,81,1.8,86.3
			c15.2,0,30,0,45,0c-3.4-5.1-5.4-10.6-5.9-16.5C40.4,63.8,41.4,58.1,44.1,52.4z"/>
		<path d="M40.4,47.5c10.9,0.1,19.7-8.5,19.8-19.3c0.1-10.7-8.6-19.4-19.3-19.5C30.2,8.6,21.4,17.2,21.3,28
			C21.3,38.6,29.9,47.4,40.4,47.5z"/>
		<path d="M93,66.7c0.2-0.5-0.2-1.2-0.1-1.7c0.1-0.7,0.4-1.4,0.8-1.9c1.5-1.4,3-2.7,4.6-4.1c-1-1.8-1.9-3.4-2.9-5
			c-0.6-1.1-1.1-2.7-2.1-3.1c-0.9-0.3-2.4,0.5-3.6,1c-2.1,0.9-3.8,0.8-5.9-0.5c-2.3-1.3-3.1-2.9-3.5-5.2c-0.6-3.5-0.7-3.5-4.2-3.5
			c-0.5,0-1,0-1.5,0c-1.5,0.1-3.4-0.4-4.4,0.3c-0.9,0.7-0.9,2.7-1.1,4.1c-0.2,1.9-0.9,3.3-2.9,3.9c-0.7,0.2-1.3,0.9-2,1.2
			c-0.7,0.3-1.5,0.4-2.1,0.3c-2-0.5-3.9-1.3-5.9-1.9c-1.7,2.8-3.2,5.6-4.9,8.4c1,0.9,1.9,1.8,2.9,2.6c2,1.3,3,3,2.4,5.4
			c-0.1,0.6-0.1,1.2,0.1,1.8c0.2,1.1-0.2,1.7-1,2.4c-1.5,1.2-2.9,2.5-4.4,3.8c1.7,2.8,3.3,5.6,4.9,8.4c2.1-0.7,4.1-1.4,6-2
			c1.2-0.4,6.1,2.4,6.5,3.6c0.1,0.2,0.1,0.5,0.2,0.7c0.3,1.5,0.5,3.1,1,4.6c0.1,0.4,0.7,1,1.1,1c2.6,0.1,5.2,0.1,7.8,0
			c0.4,0,0.9-0.5,1-0.9c0.5-1.8,0.8-3.6,1.2-5.3c0.2-0.9,5-4.1,5.9-3.9c0.3,0.1,0.6,0.2,0.8,0.3c1.9,0.6,3.7,1.3,5.7,1.9
			c1.6-2.9,3.2-5.6,4.8-8.4c-0.7-0.7-1.4-1.3-2.1-1.8C94.2,71.4,91.9,69.9,93,66.7z M74.9,76.7c-5.3,0-9.9-4.5-9.8-9.7
			c0.1-5.3,4.5-9.6,9.8-9.6c5.3,0,9.7,4.4,9.7,9.7C84.6,72.2,80.2,76.6,74.9,76.7z"/>
	</g>
	<g>
		<path d="M80.5,68.7h-4.8v4.8h-1.9v-4.8h-4.7V67h4.7v-4.9h1.9V67h4.8V68.7z"/>
	</g>
</g>
</svg>
