<?xml version="1.0" encoding="utf-8"?>
<!-- Generator: Adobe Illustrator 18.1.1, SVG Export Plug-In . SVG Version: 6.00 Build 0)  -->
<svg version="1.1" id="Layer_1" xmlns="http://www.w3.org/2000/svg" xmlns:xlink="http://www.w3.org/1999/xlink" x="0px" y="0px"
	 viewBox="0 0 100 100" enable-background="new 0 0 100 100" xml:space="preserve">
<g>
	<path d="M98,46.9c-2.3,2.3-4.3,4.3-6.4,6.4c-2,2-4,4-6,5.9c-0.6,0.5-0.8,1.1-0.8,1.9c0,5.2,0,10.5,0,15.7c0,0.4,0,0.9,0,1.5
		c-1.8,0-3.5,0-5.2,0c-3.8,0-7.5,0-11.3,0c-1.2,0-2.1,0.3-3,1.2c-3.6,3.7-7.2,7.3-10.8,10.9c-0.3,0.3-0.6,0.5-0.9,0.9
		c-0.4-0.3-0.7-0.6-1-0.9c-3.7-3.7-7.4-7.5-11.1-11.2c-0.6-0.6-1.2-0.8-2-0.8c-5.3,0-10.5,0-15.8,0c-0.4,0-0.8,0-1.3-0.1
		c0-0.5,0-1,0-1.4c0-5.3,0-10.5,0-15.8c0-0.5-0.3-1.2-0.7-1.6c-3.7-3.8-7.5-7.5-11.3-11.2c-0.3-0.3-0.6-0.6-0.9-1
		c2.1-2.1,4.2-4.2,6.2-6.3c2-2,4-3.9,6-6c0.4-0.4,0.7-1.1,0.7-1.7c0.1-5.2,0-10.5,0-15.7c0-0.4,0-0.9,0-1.5c0.5,0,0.9,0,1.3,0
		c5.1,0,10.1,0,15.2,0c1.2,0,2-0.3,2.9-1.2C45.9,10.8,49.8,7,53.8,3c0.3,0.3,0.6,0.6,0.9,0.9c3.7,3.7,7.4,7.5,11.1,11.2
		c0.6,0.6,1.2,0.8,2.1,0.8c5.2,0,10.5,0,15.7,0c0.4,0,0.8,0,1.4,0c0,0.5,0,0.9,0,1.3c0,5.3,0,10.6,0,15.9c0,0.6,0.3,1.3,0.7,1.7
		c3.7,3.7,7.4,7.4,11.2,11.1C97.2,46.3,97.5,46.5,98,46.9z M44.1,25.8c18.2,9,17.8,34,0.1,42.5c8.9,4.5,20.9,1.8,27.6-6.3
		c7-8.4,7.1-20.4,0.4-29.3C65.9,24.2,54.2,21.3,44.1,25.8z"/>
	<circle stroke="#FFFFFF" stroke-width="2" stroke-miterlimit="10" cx="22.8" cy="76.3" r="20.8"/>
	<g>
		<path fill="#FFFFFF" d="M30.5,77.4H24V84h-2.6v-6.6H15v-2.3h6.5v-6.6H24v6.6h6.5V77.4z"/>
	</g>
</g>
</svg>
