<?xml version="1.0" encoding="utf-8"?>
<!-- Generator: Adobe Illustrator 18.1.1, SVG Export Plug-In . SVG Version: 6.00 Build 0)  -->
<svg version="1.1" id="Layer_1" xmlns="http://www.w3.org/2000/svg" xmlns:xlink="http://www.w3.org/1999/xlink" x="0px" y="0px"
	 viewBox="0 0 512 512" enable-background="new 0 0 512 512" xml:space="preserve">
<g>
	<g>
		<path d="M170.7,113.7c121.6,58.9,219.1,0,219.1,0C270.4,52,170.7,113.7,170.7,113.7z"/>
		<path d="M395.8,106.7c0,0,13.5-24.4-19.4-56c0,0-93.9-87.7-191.3,0c-11,9.9-29.3,33.4-19.8,56C165.3,106.7,273.1,43,395.8,106.7z
			 M280.6,15.8c14.1,0,25.5,11.4,25.5,25.5s-11.4,25.5-25.5,25.5c-14.1,0-25.5-11.4-25.5-25.5S266.5,15.8,280.6,15.8z"/>
		<path d="M183.3,131.9v17.7c-18.3,11-5.4,51.7-5.4,51.7c4.2,13.9,23.5,37.4,23.5,37.4c22,69.8,79.2,68.6,79.2,68.6
			c66.1-7.3,78.2-70.4,78.2-70.4c14.1-12.7,22-29.9,22-29.9c17.4-50.9-3.1-56-3.1-56v-19.2C276.2,175.1,183.3,131.9,183.3,131.9z"/>
		<path d="M503.9,432c0,0-4-74-49.9-108.8c0,0-19.3-15-51.3-27.4l-47.4-19.2L346,289l-31.1,75.8l-34.3-43.2L247,364.1l-32.7-75.6
			l-9.3-11.8l-79.4,33.9c0,0-34.7,14.9-53.7,59.6c0,0-13.6,28.9-14.7,63c0,0-4.1,12.3,18,16.8c0,0,72.3,26.4,209.5,24.3
			c0,0,134.1,1.5,198.9-23.9c0,0,12-4,16.8-6.6C500.5,443.9,505.3,441.4,503.9,432z M200.1,314.4l-73.7,32.7c-4.5,2-9.9,0-11.9-4.6
			c-0.5-1.2-0.8-2.4-0.8-3.6c0-3.5,2-6.8,5.3-8.2l73.7-32.7c4.5-2,9.9,0,11.9,4.6c0.5,1.2,0.8,2.4,0.8,3.6
			C205.5,309.6,203.5,312.9,200.1,314.4z M446.3,342.5c-2,4.5-7.4,6.6-11.9,4.6l-73.7-32.7c-3.3-1.5-5.3-4.8-5.3-8.2
			c0-1.2,0.2-2.4,0.8-3.6c2-4.5,7.4-6.6,11.9-4.6l73.7,32.7c3.3,1.5,5.3,4.8,5.3,8.2C447.1,340.1,446.8,341.3,446.3,342.5z"/>
	</g>
	<g>
		<circle stroke="#FFFFFF" stroke-width="8" stroke-miterlimit="10" cx="96.5" cy="411.6" r="88.7"/>
		<g>
			<path fill="#FFFFFF" d="M129.8,416.7h-27.7v28.2H90.8v-28.2H63.2v-10.2h27.7v-28.2h11.3v28.2h27.7V416.7z"/>
		</g>
	</g>
</g>
</svg>
