<?xml version="1.0" encoding="utf-8"?>
<!-- Generator: Adobe Illustrator 18.1.1, SVG Export Plug-In . SVG Version: 6.00 Build 0)  -->
<svg version="1.1" id="Layer_1" xmlns="http://www.w3.org/2000/svg" xmlns:xlink="http://www.w3.org/1999/xlink" x="0px" y="0px"
	 viewBox="0 0 100 100" enable-background="new 0 0 100 100" xml:space="preserve">
<g>
	<g>
		<path d="M71.3,6c-0.1,0-0.3,0-0.5,0.1c-2,0.5-4.3,1-7,1.7c-1.7,0.5-3.5,0.9-5.2,1.3c-1.8,0.5-3.7,1-5.5,1.4
			c-1.8,0.5-3.6,0.9-5.4,1.3c-1.8,0.4-3.6,0.9-5.4,1.3c-2.2,0.6-4.5,1.1-6.6,1.7c-1.8,0.4-3.6,0.9-5.4,1.4c-2,0.5-3.9,1-5.9,1.5
			c-1.9,0.5-3.8,1-5.8,1.4c-0.5,0.1-1,0.4-1.2,0.8c-0.2,0.3-0.2,0.6-0.1,0.9c0,0,0,0,0,0.1c-0.1,0.4-0.1,0.8-0.1,1.2v60.3
			c0,1.5,0.6,2.1,2.4,2.1h51c1.5,0,2.1-0.5,2.1-1.8c0-4.4,0-8.8,0-13.1V7.6C72.8,6.6,72.2,6,71.3,6z M54.8,26.7c0-1.2,1-2.2,2.2-2.2
			h5.3c1.2,0,2.2,1,2.2,2.2V32c0,1.2-1,2.2-2.2,2.2h-5.3c-1.2,0-2.2-1-2.2-2.2V26.7z M62.4,51.1c-0.1,0.6-0.1,1.2-0.2,1.9
			c-0.7,0-1.4-0.1-2.1-0.1c0.3-3.8,0.5-7.6,0.8-11.3c0.7,0,1.4,0.1,2.1,0.2c-0.2,3-0.4,6-0.6,9c0.3,0,0.5,0,0.7,0.1
			c0,1.3,0,2.6,0,3.9c0,0.4-0.3,0.7-0.7,0.8c-0.6,0.1-1.3,0.1-1.9,0.1V55c0.5,0,1,0,1.5,0c0.3,0,0.5-0.1,0.5-0.5L62.4,51.1
			L62.4,51.1z M40.1,26.7c0-1.2,1-2.2,2.1-2.2h5.3c1.2,0,2.2,1,2.2,2.2V32c0,1.2-1,2.2-2.2,2.2h-5.3c-1.2,0-2.1-1-2.1-2.2V26.7z
			 M34.8,39.9c2.2,0,3.9,1.8,3.9,4c0,2.2-1.8,3.9-4,3.9c-2.2,0-4-1.8-4-4C30.8,41.6,32.5,39.9,34.8,39.9z M39.4,76.1
			c-0.4,0.4-1.1,0.4-1.5,0c-0.4-0.4-0.4-1.1,0-1.5c0.1,0,0.1-0.1,0.2-0.1c0.2-0.3,0.2-0.5-0.2-0.6c-1.2-0.3-2.4-0.6-3.5-0.9
			c-0.6-0.1-1.2-0.3-1.9-0.4c0,0.6,0,1.1,0,1.7c0,0.1,0.1,0.1,0.2,0.2c0.6,0.4,0.6,1.2,0.2,1.6c-0.4,0.5-1.2,0.5-1.6,0
			c-0.4-0.5-0.4-1.2,0.1-1.6c0.1-0.1,0.2-0.3,0.2-0.5c0-0.4,0-0.9,0-1.4c-0.5,0.1-1,0.2-1.5,0.3c-1.3,0.3-2.6,0.6-3.9,1
			c-0.1,0-0.3,0.1-0.3,0.2c0,0.1,0.1,0.3,0.2,0.4c0.5,0.5,0.5,1.2,0.1,1.6c-0.4,0.5-1.2,0.4-1.6,0c-0.4-0.5-0.4-1.2,0.2-1.6
			c0.3-0.2,0.2-0.5,0.2-0.8c0-0.4,0.1-0.5,0.5-0.6c1.8-0.4,3.6-0.9,5.4-1.3c0.2-0.1,0.3-0.2,0.3-0.5c0-0.3-0.1-0.6,0.1-0.8
			c0.1-0.2,0.2-0.3,0.2-0.5c0-0.3-0.1-0.4-0.4-0.4c-1.2,0-2.4-0.1-3.5-0.5c-1.9-0.7-2.7-2.3-2.1-4.3c0.1-0.3,0.2-0.6,0.4-0.9
			c1-1.8,1.3-3.8,1.2-5.8v-0.2c0-0.1,0-0.1,0-0.2v-0.2c0,0,0,0,0-0.1v-0.3c0-0.1,0-0.1,0-0.2c0-0.1,0-0.1,0-0.2c0-0.1,0-0.1,0-0.2
			c0-0.1,0-0.1,0-0.2c0-0.1,0-0.2,0-0.2c0-0.1,0-0.1,0-0.2c0-0.1,0-0.1,0-0.2c0-0.1-0.1-0.3-0.1-0.5c0-0.1,0-0.1,0-0.2
			c0-0.1,0-0.1,0-0.2c0-0.1,0-0.3-0.1-0.4c0-0.2-0.1-0.3-0.1-0.5c0-0.1,0-0.2,0-0.2c0-0.1,0-0.1-0.1-0.2c0-0.1-0.1-0.3-0.1-0.4
			c0-0.1,0-0.1,0-0.2c-0.1-0.2-0.1-0.4-0.2-0.7c0,0,0,0,0,0c-0.1-0.3-0.2-0.6-0.3-0.9c0,0,0,0,0,0c0-0.1,0-0.1-0.1-0.2
			c0,0,0-0.1,0-0.1C25.2,50,25,49.5,25,49.5c-0.1-0.1-0.1-0.3-0.2-0.5c-0.2-0.5-0.1-1,0.4-1.2c0.5-0.2,1,0,1.2,0.5
			c0.5,1.2,1,2.5,1.4,3.8c0.7,2.3,1.1,4.6,1.1,7c0,2-0.4,3.9-1.4,5.7c0,0.1-0.1,0.1-0.1,0.2c0,0.1,0,0.1-0.1,0.2c0.2,0,0.3,0,0.5,0
			c3.1,0.1,6.1,0.3,9.2,0.4c0.6,0,1.1,0,1.7,0.1c0.2,0,0.3,0.1,0.3,0.3c0,0.6,0,1.2,0.1,1.8c0,0.6-0.2,0.9-0.7,1
			c-1.5,0.3-3,0.5-4.5,0.7c-0.2,0-0.4,0-0.6,0.1c-0.1,0-0.4,0.1-0.4,0.1c0,0,0,0,0,0c0,0.2-0.2,0.6,0.2,0.7c0.1,0,0.1,0.3,0.1,0.5
			c0,0.9-0.1,0.6,0.7,0.8c1.7,0.4,3.5,0.8,5.2,1.2c0.3,0,0.4,0.2,0.3,0.4c0,0.4,0,0.8,0.4,1.1C39.9,74.9,39.9,75.7,39.4,76.1z
			 M46.2,76.1c-1.1,0.2-2.2-0.4-2.5-1.5c-0.7-2.4-1.3-4.8-1.9-7.2c-0.2-0.9-0.4-1.7-0.6-2.5c-0.1-0.3-0.2-0.4-0.6-0.4
			c-2,0-4.1,0-6.2,0c-1,0-1.7-0.4-2.3-1.1c-0.7-0.7-0.9-1.6-1.2-2.4c-1-2.8-1.3-5.7-1-8.6c0.2-1.7,1-3.1,2.7-3.7
			c0.9-0.3,1.8-0.1,2.5,0.4c1.3,1,2.6,2.1,3.9,3.1c0.1,0.1,0.2,0.1,0.3,0.2c1.2-1,2.4-1.9,3.7-2.8c0.2-0.2,0.5-0.3,0.7-0.5
			c0.2-0.1,0.4-0.1,0.6-0.1h0.1c0.2,0,0.4,0,0.6,0.1c0.1,0.1,0.3,0.2,0.4,0.3c0.1,0.1,0.2,0.3,0.3,0.5c0.1,0.3,0.1,0.6,0.1,0.9
			c-0.1,0.1-0.1,0.3-0.3,0.4c0,0,0,0-0.1,0.1c-0.6,0.6-1.3,1.1-2,1.6c-0.4,0.3-0.8,0.6-1.2,1v0c-0.1,0-0.2,0.1-0.3,0.1
			c-0.4,0.3-0.9,0.7-1.3,1c-0.2,0.1-0.4,0.3-0.7,0.4c-0.5,0.3-0.8,0.2-1.2-0.2c-1.4-1.5-2.7-3-4.1-4.6c-0.7-0.8-1.9-0.9-2.6-0.2
			c-0.8,0.7-0.8,1.8-0.1,2.6c1.4,1.6,2.8,3.2,4.3,4.7c0.4,0.4,0.7,0.9,0.8,1.4c0.1,0.8,0.2,0.8,1,0.8h4.5c1.3,0,2.1,0.6,2.4,1.9
			c1,3.8,2,7.5,2.9,11.3C48.2,74.6,47.5,75.9,46.2,76.1z M65.9,59.2h-2.1v16.9H48.4c-0.3,0-0.4-0.1-0.4-0.3v0c0,0,0,0,0-0.1
			c0-0.3,0-0.5,0-0.8h0V59.2h-3.8v-0.4H42c-1.1,0-2.2,0-3.2,0c-0.8,0-1.4-0.2-1.9-0.8c-1.5-1.7-3-3.4-4.5-5
			c-0.1-0.1-0.2-0.2-0.3-0.3c-0.4-0.6-0.4-1.4,0.2-1.9c0.5-0.5,1.4-0.5,1.9,0.1c0.7,0.7,1.3,1.4,2,2.1c0.8,0.9,1.7,1.9,2.5,2.8
			c0.1,0.1,0.3,0.2,0.5,0.2h4.9v-0.2h14c0-0.2,0-0.4,0-0.4c-0.1-0.1-0.4-0.3-0.5-0.3c-0.3,0.4-0.6,0.2-1,0.2c-1.1,0-2.1,0-3.1,0
			c-0.5,0-0.5-0.3-0.7-0.6c0,0.1,0,0.2,0,0.3h-4.2c0-0.1,0-0.2,0.1-0.3c0.1-0.2,0.4-0.5,0.4-0.5c0.7-0.6,1.5-0.7,2.3-0.5
			c0.1,0,0.2,0.2,0.4,0.3c0.1,0.1,0.3,0.3,0.5,0.3c0.5,0,0.9,0.2,1,0.7c0,0,0,0,0.1,0c0-0.2,0-0.3,0.1-0.5h0.4c1,0,2.1,0,3.1,0
			c0.5,0,0.7,0.4,1.2,0.6c0,0,0,0.2,0.1,0.3c0,0.1,0,0.2,0.1,0.4h7.6V59.2z"/>
		<path d="M96.3,24l-1.5-0.5c-1.5-0.6-3.1-1.1-4.6-1.7c-1.1-0.4-2.2-0.8-3.2-1.2c-2.6-1-5.3-2-8-2.9c-0.2,0-0.4-0.1-0.6-0.1
			c-0.4,0-0.9,0.1-1.1,0.2c-0.4,0.2-0.6,0.6-0.6,1.1v65.8h0.1c0.3,0.6,0.8,0.9,1.7,0.9h17c1.6,0,2.2-0.5,2.2-2V25.7
			C97.7,24.7,97.4,24.3,96.3,24z M88.2,70.3c0,1.2-1,2.2-2.2,2.2h-5.3c-1.2,0-2.2-1-2.2-2.2V65c0-1.2,1-2.2,2.2-2.2h5.3
			c1.2,0,2.2,1,2.2,2.2V70.3z M88.2,54.6c0,1.2-1,2.1-2.2,2.1h-5.3c-1.2,0-2.2-1-2.2-2.1v-5.3c0-1.2,1-2.2,2.2-2.2h5.3
			c1.2,0,2.2,1,2.2,2.2V54.6z M88.2,38.1c0,1.2-1,2.2-2.2,2.2h-5.3c-1.2,0-2.2-1-2.2-2.2v-5.3c0-1.2,1-2.2,2.2-2.2h5.3
			c1.2,0,2.2,1,2.2,2.2V38.1z"/>
	</g>
	<circle stroke="#FFFFFF" stroke-width="2" stroke-miterlimit="10" cx="18.8" cy="77.5" r="16.5"/>
	<g>
		<path fill="#FFFFFF" d="M24.9,78.5h-5.1v5.2h-2v-5.2h-5.1v-1.9h5.1v-5.2h2v5.2h5.1V78.5z"/>
	</g>
</g>
</svg>
