<?xml version="1.0" encoding="utf-8"?>
<!-- Generator: Adobe Illustrator 18.1.1, SVG Export Plug-In . SVG Version: 6.00 Build 0)  -->
<svg version="1.1" id="Layer_1" xmlns="http://www.w3.org/2000/svg" xmlns:xlink="http://www.w3.org/1999/xlink" x="0px" y="0px"
	 viewBox="0 0 100 100" enable-background="new 0 0 100 100" xml:space="preserve">
<g>
	<polygon points="83.6,62.6 83.6,45.2 62.2,45.2 62.2,36.7 75,36.7 75,6.5 40.4,6.5 40.4,36.7 53.4,36.7 53.4,45.2 31.6,45.2 
		31.6,62.6 18.8,62.6 18.8,92.8 53.4,92.8 53.4,62.6 40.4,62.6 40.4,53.8 75,53.8 75,62.6 62.2,62.6 62.2,92.8 96.8,92.8 96.8,62.6 
			"/>
	<circle stroke="#FFFFFF" stroke-width="2" stroke-miterlimit="10" cx="18.8" cy="77.9" r="15.6"/>
	<g>
		<path fill="#FFFFFF" d="M24.7,78.8h-4.9v4.9h-1.9v-4.9H13v-1.8h4.9v-5h1.9v5h4.9V78.8z"/>
	</g>
</g>
</svg>
