<?xml version="1.0" encoding="utf-8"?>
<!-- Generator: Adobe Illustrator 18.1.1, SVG Export Plug-In . SVG Version: 6.00 Build 0)  -->
<svg version="1.1" id="Layer_1" xmlns="http://www.w3.org/2000/svg" xmlns:xlink="http://www.w3.org/1999/xlink" x="0px" y="0px"
	 viewBox="0 0 512 512" enable-background="new 0 0 512 512" xml:space="preserve">
<image overflow="visible" width="1920" height="1080" xlink:href="500EEAFB.jpg"  transform="matrix(1 0 0 1 1358.2766 -1287.106)">
</image>
<g>
	<path d="M277.5,437.5c-50.2,0-100.4-0.1-150.6,0c-13.5,0-26.1-2-36.7-11.3c-8.6-7.6-14.2-17.1-14.8-28.4
		c-0.9-16.8-0.6-33.7-0.6-50.6c-0.1-35.5,0-71-0.1-106.5c0-2.3-0.8-5.2-2.3-6.8c-18.4-20.2-23.7-43.9-17.8-70
		c7.3-32.3,15.3-64.4,23.2-96.6c5.7-23.3,22.5-35.7,46.6-35.6c74.3,0.1,148.6-0.1,223-0.1c28.8,0,57.7-0.3,86.5,0.3
		c24.5,0.5,38.3,14.9,43.3,34.6c8.6,34.2,16.9,68.5,24.3,102.9c5.1,23.5-1.9,44.5-17.3,62.9c-2,2.4-3.5,6.2-3.5,9.3
		c-0.2,49.4-0.2,98.8-0.2,148.3c0,27.4-18.5,47.3-46,47.5C382.2,437.8,329.8,437.5,277.5,437.5C277.5,437.5,277.5,437.5,277.5,437.5
		z M120,257.2c0,45.2,0,90,0,134.8c105.4,0,210.3,0,315.1,0c0-45.3,0-90.1,0-135.2c-21.8,1.5-39.7-6.4-55.3-21
		c-14.6,13.5-31.2,21.4-51.1,21.3c-19.7-0.1-36.4-7.8-50.9-20.7c-28.5,27.6-73.7,27.3-102.4,0C147.5,255.2,147.5,255.2,120,257.2z
		 M211,76.8c-0.4,2.3-0.8,4-1,5.7c-2.6,21.4-5.2,42.8-7.7,64.2c-1.4,12.5-3.5,24.9-3.5,37.4c0,21.1,21.1,33.6,40.1,24.7
		c12-5.6,16-16.1,16.1-28.4c0.1-33.5,0.1-67.1,0.1-100.6c0-0.9-0.3-1.8-0.5-3C240.1,76.8,225.8,76.8,211,76.8z M300.4,76.9
		c-0.2,2.1-0.4,3.4-0.4,4.8c0,33.1,0,66.2,0,99.3c0,3.1,0.3,6.3,1.1,9.3c3.1,11,9.9,18.8,21.4,21c11.2,2.2,20.8-1.1,28.1-10.4
		c6.2-7.9,6.7-16.8,5.5-26.2c-2.7-22.2-5.4-44.3-8-66.5c-1.3-10.4-2.5-20.8-3.8-31.3C329.5,76.9,315.2,76.9,300.4,76.9z M165.1,76.6
		c-14.5,0-28-0.1-41.4,0.2c-1.4,0-3.5,2.6-3.9,4.3c-5.9,24.5-11.7,49.1-17.1,73.7c-2.3,10.3-4.8,20.8-4.8,31.1
		c0.1,11.3,7,20,17.6,24.3c9.9,4,19.3,1.7,27.2-5.5c6.5-6,9.2-13.8,10.1-22.5c2.1-19.1,4.4-38.1,6.6-57.1
		C161.4,109.2,163.2,93.3,165.1,76.6z M390.3,76.6c0.2,3.5,0.2,6.1,0.5,8.6c3.1,26.1,6.1,52.1,9.4,78.2c1.3,10.1,2.2,20.3,4.8,30.1
		c3.2,12.4,16.3,20,28.7,18.3c16.7-2.4,27.2-18.5,23.5-36.4c-2.3-10.7-5.1-21.3-7.7-32c-4.8-20.4-9.6-40.8-14.6-61.2
		c-0.5-2-2.5-5.3-3.9-5.3C417.6,76.5,404.3,76.6,390.3,76.6z"/>
	<g>
		<circle stroke="#FFFFFF" stroke-width="8" stroke-miterlimit="10" cx="97.7" cy="391.7" r="88.8"/>
		<g>
			<path fill="#FFFFFF" d="M131,396.8h-27.7V425H92v-28.3H64.3v-10.2H92v-28.3h11.3v28.3H131V396.8z"/>
		</g>
	</g>
</g>
</svg>
