<?xml version="1.0" encoding="utf-8"?>
<!-- Generator: Adobe Illustrator 18.1.1, SVG Export Plug-In . SVG Version: 6.00 Build 0)  -->
<svg version="1.1" id="Layer_1" xmlns="http://www.w3.org/2000/svg" xmlns:xlink="http://www.w3.org/1999/xlink" x="0px" y="0px"
	 viewBox="0 0 100 100" enable-background="new 0 0 100 100" xml:space="preserve">
<g>
	<g>
		<path d="M54.1,25.7c0-5.8,0-11.5,0-17.1c-14.4,0-28.7,0-43.1,0c0,25.9,0,51.7,0,77.5c28.8,0,57.5,0,86.2,0c0-20.2,0-40.2,0-60.4
			C82.9,25.7,68.5,25.7,54.1,25.7z M36.9,17.1c2.9,0,5.7,0,8.6,0c0,2.9,0,5.6,0,8.5c-2.9,0-5.7,0-8.6,0C36.9,22.7,36.9,20,36.9,17.1
			z M19.7,17.1c2.8,0,5.6,0,8.4,0c0,2.8,0,5.6,0,8.5c-2.8,0-5.6,0-8.4,0C19.7,22.8,19.7,20,19.7,17.1z M19.7,34.3c2.9,0,5.6,0,8.5,0
			c0,2.8,0,5.7,0,8.6c-2.8,0-5.6,0-8.5,0C19.7,40.1,19.7,37.3,19.7,34.3z M19.7,51.7c2.8,0,5.6,0,8.5,0c0,2.8,0,5.6,0,8.5
			c-2.8,0-5.6,0-8.5,0C19.7,57.3,19.7,54.5,19.7,51.7z M28.2,77.4c-2.8,0-5.6,0-8.5,0c0-2.8,0-5.6,0-8.5c2.8,0,5.6,0,8.5,0
			C28.2,71.7,28.2,74.5,28.2,77.4z M45.5,77.4c-2.9,0-5.7,0-8.6,0c0-2.9,0-5.6,0-8.5c2.9,0,5.7,0,8.6,0
			C45.5,71.7,45.5,74.5,45.5,77.4z M45.5,60.1c-2.8,0-5.7,0-8.7,0c0-2.8,0-5.6,0-8.5c2.9,0,5.7,0,8.7,0
			C45.5,54.4,45.5,57.2,45.5,60.1z M45.5,42.9c-2.9,0-5.7,0-8.7,0c0-2.9,0-5.6,0-8.5c2.9,0,5.7,0,8.7,0C45.5,37.2,45.5,40,45.5,42.9
			z M88.6,77.4c-11.5,0-22.9,0-34.4,0c0-2.9,0-5.6,0-8.5c2.8,0,5.6,0,8.5,0c0-2.9,0-5.7,0-8.6c-2.8,0-5.6,0-8.4,0c0-3,0-5.8,0-8.7
			c2.8,0,5.6,0,8.5,0c0-2.9,0-5.6,0-8.6c-2.8,0-5.6,0-8.4,0c0-3,0-5.8,0-8.7c11.5,0,22.9,0,34.4,0C88.6,48.7,88.6,63,88.6,77.4z"/>
		<path d="M80,60.3c-2.9,0-5.6,0-8.4,0c0,2.9,0,5.6,0,8.5c2.9,0,5.7,0,8.4,0C80,65.9,80,63.1,80,60.3z"/>
		<path d="M80,43c-2.8,0-5.6,0-8.4,0c0,2.9,0,5.7,0,8.5c2.9,0,5.6,0,8.4,0C80,48.7,80,45.9,80,43z"/>
	</g>
	<circle stroke="#FFFFFF" stroke-width="2" stroke-miterlimit="10" cx="18.4" cy="75.8" r="15.7"/>
	<g>
		<path fill="#FFFFFF" d="M24.3,76.7h-4.9v5h-2v-5h-4.9v-1.8h4.9v-5h2v5h4.9V76.7z"/>
	</g>
</g>
</svg>
