<?xml version="1.0" encoding="utf-8"?>
<!-- Generator: Adobe Illustrator 18.1.1, SVG Export Plug-In . SVG Version: 6.00 Build 0)  -->
<svg version="1.1" id="Layer_1" xmlns="http://www.w3.org/2000/svg" xmlns:xlink="http://www.w3.org/1999/xlink" x="0px" y="0px"
	 viewBox="0 0 512 512" enable-background="new 0 0 512 512" xml:space="preserve">
<g>
	<g id="layer0">
		<g transform="matrix(1 0 0 1 -86.2467 -28.0585)">
			<path d="M346.2,235.1c55.4,0,100.5-45.1,100.5-100.5C446.7,79.1,401.6,34,346.2,34c-55.4,0-100.6,45.1-100.6,100.5
				C245.6,190,290.7,235.1,346.2,235.1L346.2,235.1z"/>
			<path d="M174.8,315.2c-0.3-8.8-8.2-15.9-18.1-15.9c-10,0-18.1,7.3-18.1,16.3v35.2h11.2C156.9,338.3,165.3,326.3,174.8,315.2
				L174.8,315.2z"/>
			<path d="M556.9,356.1v-35.2c0-9-8.1-16.3-18.1-16.3c-8.2,0-15.1,4.9-17.3,11.7c10.4,12.4,19.4,25.8,26.9,39.9H556.9z"/>
			<path d="M468.6,452.9c0-4.5,1.1-8.8,3-12.6h-48c-1.5-4.4-3.4-8.7-5.6-12.7l50.9-45.1c1.2-14.6,13.3-26.2,28.2-26.2h33.2
				c-3-5.1-6.2-10.1-9.6-15c-4.7-6.7-9.8-13.2-15.3-19.3c-0.3-0.3-0.4-0.7-0.7-1c-0.2-0.3-0.5-0.5-0.8-0.7
				c-38.7-42.4-94.4-69-156.1-69c-61.7,0-117.4,26.6-156.1,69c-0.3,0.3-0.6,0.5-0.8,0.8c-0.3,0.3-0.4,0.6-0.7,0.9
				c-5.4,6.1-10.5,12.5-15.2,19.2c-2.3,3.2-4.4,6.5-6.5,9.8h30.1c15.7,0,28.5,12.8,28.5,28.5c0,1.1-0.1,2.1-0.3,3.2l48.8,43.3
				c-2.7,4.6-4.9,9.4-6.7,14.5h-42.9c0.6,2.3,1,4.8,1,7.3c0,15.7-12.8,28.5-28.5,28.5l-57.5,0c4.1,5.3,10.4,8.8,17.6,8.8h378.3
				c0,0,0,0,0.1,0c0,0,0,0,0,0c4.4,0,8.4-1.3,11.8-3.5H497C481.3,481.3,468.6,468.6,468.6,452.9L468.6,452.9z M346.2,385.1
				c-13.9,0-27,3.5-38.5,9.6l-67.4-59.8c29.1-24.5,66.5-39.3,107.4-39.3s78.4,14.8,107.4,39.3l-68.6,60.9
				C374.6,389,360.8,385.1,346.2,385.1L346.2,385.1z"/>
			<path d="M213.6,447.6c0-2.7-0.7-5.1-2-7.3c-2.6-4.7-7.5-7.9-13.3-7.9h-45.6v-3.9h45.6c4,0,7.6-1.6,10.3-4.1
				c3-2.8,4.9-6.7,4.9-11.2c0-4.2-1.7-8-4.4-10.7c-2.8-2.8-6.6-4.5-10.8-4.5h-45.6v-3.5h45.6c8.4,0,15.2-6.8,15.2-15.2
				c0-4-1.6-7.6-4.1-10.3c-2.8-3-6.7-5-11.2-5h-59.8l-6.1,0c-0.5,0-1,0.1-1.5,0.2c-0.8-0.1-1.6-0.2-2.4-0.2c-24,0-23,49.1-23,49.1
				s-0.1,49.6,23,49.6c0.8,0,1.6-0.1,2.4-0.2c0.5,0.1,1,0.2,1.5,0.2h66C206.8,462.8,213.6,456,213.6,447.6L213.6,447.6z"/>
			<path d="M566.9,369.4c-0.8,0-1.6,0.1-2.4,0.2c-0.5-0.1-1-0.2-1.5-0.2h-66c-3.4,0-6.5,1.2-9.1,3.1c-3.7,2.8-6.2,7.2-6.2,12.2
				c0,8.4,6.8,15.2,15.2,15.2h45.6v3.5H497c-3.5,0-6.7,1.2-9.2,3.2c-3.6,2.8-6,7.1-6,12c0,2.1,0.4,4.1,1.2,5.9
				c2.3,5.5,7.7,9.4,14,9.4h45.6v3.9H497c-3.2,0-6.1,1-8.5,2.6c-4.1,2.7-6.7,7.4-6.7,12.6c0,8.4,6.8,15.2,15.2,15.2h66
				c0.5,0,1-0.1,1.5-0.2c0.8,0.1,1.6,0.2,2.4,0.2c23,0,23-49.6,23-49.6C589.9,418.5,590.9,369.4,566.9,369.4L566.9,369.4z"/>
		</g>
	</g>
	<g>
		<circle stroke="#FFFFFF" stroke-width="8" stroke-miterlimit="10" cx="261.5" cy="440" r="66"/>
		<g>
			<path fill="#FFFFFF" d="M286.3,443.8h-20.6v21h-8.4v-21h-20.6v-7.6h20.6v-21h8.4v21h20.6V443.8z"/>
		</g>
	</g>
</g>
</svg>
