<?xml version="1.0" encoding="utf-8"?>
<!-- Generator: Adobe Illustrator 18.1.1, SVG Export Plug-In . SVG Version: 6.00 Build 0)  -->
<svg version="1.1" id="Layer_1" xmlns="http://www.w3.org/2000/svg" xmlns:xlink="http://www.w3.org/1999/xlink" x="0px" y="0px"
	 viewBox="0 0 512 512" enable-background="new 0 0 512 512" xml:space="preserve">
<image overflow="visible" width="1920" height="1080" xlink:href="4D149A7E.jpg"  transform="matrix(1 0 0 1 1358.2766 -1287.106)">
</image>
<g>
	<g>
		<path stroke="#FFFFFF" stroke-miterlimit="10" d="M304,327.3c-11.1,0.4-8.8-12.9-8.8-12.9c-5.8-2.9-8.8-23.8-8.8-23.8
			c-2.4-10.5-12-8.9-12-8.9h-29.2c-15.4,0-14.1,8.7-14.1,8.7l-4.7,17.2c-1.5,6-5.6,6.8-5.6,6.8c3.4,13.7-8,13-8,13
			c8,37.9,49.7,35.1,49.7,35.1C301.2,358,304,327.3,304,327.3z"/>
		<path d="M217.3,316.7c-6.1,1.4-10.3-2.6-10.3-2.6c-1.4,6.7,4,9.5,4,9.5C218.7,325.3,217.3,316.7,217.3,316.7z"/>
		<path d="M309,314c0,0-4.2,4-10.3,2.6c0,0-1.4,8.6,6.3,6.8C305.1,323.5,310.4,320.7,309,314z"/>
		<path stroke="#FFFFFF" stroke-miterlimit="10" d="M211.5,312.4c0,0,9.2,2.3,11.1-7.6l4.9-16.9c0,0,1.6-9,14.6-9h16.3h1h16.3
			c12.9,0,14.6,9,14.6,9l4.9,16.9c1.9,9.9,11.1,7.6,11.1,7.6c8.6-0.9,4.7-23.9,4.7-23.9c-7.4-38.8-41.3-43.5-51.5-43.5
			c-10.8,0-45.1,4.6-52.5,43.5C206.8,288.5,202.9,311.5,211.5,312.4z"/>
		<path stroke="#FFFFFF" stroke-miterlimit="10" d="M348.4,438.7l-12.7-36.5c-11.7-41.2-48.3-39.6-48.3-39.6l-1.3,0.1
			c0.1,0.6,0.1,1.2,0.1,1.8c0,13.6-12.5,24.7-27.9,24.7c-15.4,0-27.9-11.1-27.9-24.7c0-0.6,0-1.2,0.1-1.8l-1.3-0.1
			c0,0-36.6-1.6-48.3,39.6l-12.7,36.5c0,0-5.5,17.7,18,18.1h144.2C354,456.4,348.4,438.7,348.4,438.7z"/>
		<path stroke="#FFFFFF" stroke-miterlimit="10" d="M234.7,361.2c-0.2,1.1-0.3,2.2-0.3,3.4c0,11.7,10.7,21.2,24,21.2
			c13.2,0,23.9-9.5,23.9-21.2c0-1.1-0.1-2.3-0.3-3.4c-6.5,3.6-14.7,5.8-23.6,5.8C249.4,366.9,241.2,364.8,234.7,361.2z"/>
	</g>
	<path d="M255.7,477.5c-53.7,0-107.5-0.1-161.2,0c-14.4,0-27.9-1.9-39.3-10.5c-9.3-7-15.2-15.8-15.8-26.2c-0.9-15.5-0.6-31-0.7-46.6
		c-0.1-32.7,0-134.7-0.1-167.3c0-2.1-0.8-4.8-2.4-6.3c-19.7-18.6-25.4-40.4-19-64.4C25,126.6,33.5,97,42,67.4
		C48.1,46,66.1,34.5,91.9,34.6c79.6,0.1,159.1-0.1,238.7-0.1c30.9,0,61.7-0.2,92.6,0.3c26.2,0.4,41,13.7,46.3,31.9
		c9.2,31.5,18.1,63,26,94.8c5.4,21.7-2.1,41-18.5,57.9c-2.2,2.2-3.8,5.7-3.8,8.6c-0.2,45.5-0.2,160.3-0.2,205.8
		c0,25.2-19.8,43.5-49.2,43.7C367.8,477.7,311.8,477.5,255.7,477.5C255.7,477.5,255.7,477.5,255.7,477.5z M87.2,242.2
		c0,41.6,0,152.1,0,193.4c112.8,0,225.2,0,337.4,0c0-41.7,0-152.3,0-193.8c-23.3,1.4-42.5-5.9-59.2-19.4
		c-15.6,12.4-33.4,19.7-54.7,19.6c-21.1-0.1-39-7.2-54.5-19c-30.5,25.4-78.9,25.2-109.6,0C116.6,240.3,116.6,240.3,87.2,242.2z
		 M184.5,76.1c-0.4,2.1-0.8,3.7-1.1,5.3c-2.8,19.7-5.6,39.4-8.2,59.1c-1.5,11.5-3.8,23-3.8,34.4c0,19.4,22.6,31,43,22.7
		c12.8-5.2,17.2-14.8,17.2-26.2c0.1-30.9,0.1-61.8,0.1-92.6c0-0.9-0.3-1.7-0.5-2.8C215.7,76.1,200.4,76.1,184.5,76.1z M280.3,76.1
		c-0.2,1.9-0.4,3.1-0.4,4.4c0,30.5,0,61,0,91.4c0,2.9,0.3,5.8,1.2,8.6c3.3,10.1,10.6,17.3,22.9,19.4c12,2,22.2-1,30-9.6
		c6.6-7.3,7.1-15.5,5.9-24.1c-2.9-20.4-5.7-40.8-8.6-61.2c-1.3-9.6-2.7-19.2-4.1-28.8C311.4,76.1,296.1,76.1,280.3,76.1z
		 M135.5,75.9c-15.5,0-29.9-0.1-44.4,0.2c-1.5,0-3.7,2.4-4.2,4c-6.3,22.6-12.6,45.2-18.4,67.9c-2.4,9.4-5.2,19.1-5.1,28.7
		c0.1,10.4,7.5,18.4,18.9,22.3c10.6,3.7,20.7,1.6,29.2-5.1c7-5.5,9.8-12.7,10.8-20.7c2.2-17.5,4.7-35.1,7.1-52.6
		C131.5,106,133.4,91.3,135.5,75.9z M376.5,75.9c0.2,3.2,0.2,5.6,0.5,7.9c3.3,24,6.6,48,10,72c1.3,9.3,2.4,18.7,5.1,27.7
		c3.5,11.4,17.5,18.4,30.7,16.8c17.9-2.2,29.2-17.1,25.1-33.5c-2.4-9.9-5.5-19.6-8.2-29.5c-5.2-18.8-10.3-37.6-15.6-56.3
		c-0.5-1.9-2.7-4.8-4.2-4.9C405.8,75.8,391.6,75.9,376.5,75.9z"/>
</g>
</svg>
