<?xml version="1.0" encoding="utf-8"?>
<!-- Generator: Adobe Illustrator 18.1.1, SVG Export Plug-In . SVG Version: 6.00 Build 0)  -->
<svg version="1.1" id="Layer_1" xmlns="http://www.w3.org/2000/svg" xmlns:xlink="http://www.w3.org/1999/xlink" x="0px" y="0px"
	 viewBox="0 0 100 100" enable-background="new 0 0 100 100" xml:space="preserve">
<g>
	<path d="M44.6,94.7c-2,0-4.1-1.1-6-2.9C29.8,82.9,20.9,74,12,65.1c-2.8-2.8-5.5-5.5-8.3-8.3c-4.1-4.2-4.1-9.5,0-13.6
		C15.3,31.6,26.9,19.9,38.6,8.3c4.1-4.1,9.4-4.1,13.5,0c11.6,11.6,23.2,23.2,34.8,34.8c4.3,4.3,4.3,9.5,0,13.8
		C75.3,68.5,63.8,80,52.3,91.5C50.4,93.5,48.2,94.7,44.6,94.7z M52.2,60.6c5.2-5,10.3-10.1,15.5-15.1c-5.2-5.1-10.3-10.1-15.5-15.3
		c0,3.5,0,7.1,0,10.8c-0.7,0-1.1,0-1.6,0c-5.9,0-11.8,0-17.7,0c-3.5,0-5.4,1.8-5.4,5.4c0,5.2,0,10.4,0,15.7c0,0.4,0,0.9,0,1.3
		c3.1,0,6,0,9,0c0-4.5,0-8.8,0-13.2c5.3,0,10.5,0,15.7,0C52.2,53.7,52.2,57.2,52.2,60.6z"/>
	<circle stroke="#FFFFFF" stroke-width="2" stroke-miterlimit="10" cx="81" cy="69.5" r="18.4"/>
	<g>
		<path fill="#FFFFFF" d="M87.9,70.5h-5.7v5.8h-2.3v-5.8h-5.7v-2.1h5.7v-5.9h2.3v5.9h5.7V70.5z"/>
	</g>
</g>
</svg>
