<?xml version="1.0" encoding="utf-8"?>
<!-- Generator: Adobe Illustrator 18.1.1, SVG Export Plug-In . SVG Version: 6.00 Build 0)  -->
<svg version="1.1" id="Layer_1" xmlns="http://www.w3.org/2000/svg" xmlns:xlink="http://www.w3.org/1999/xlink" x="0px" y="0px"
	 viewBox="0 0 100 100" enable-background="new 0 0 100 100" xml:space="preserve">
<g>
	<path d="M65.6,41.1c0-4.5,0-8.8,0-13.3c-4.5,0-8.8,0-13.3,0c0-5.6,0-11.1,0-16.7c-8-2-15.7-1.4-23.1,1.8
		c-9.8,4.3-16.4,11.6-19.6,21.8c-1.9,6-2.4,12.1-1,18.3c1.9,8.2,6.1,15.2,11.1,21.7c5.9,7.7,12.8,14.5,20,20.9
		c1.2,1.1,2.4,2.1,3.7,3.1c8.9-7.6,17.2-15.6,24.3-24.9c4.8-6.4,8.8-13.2,10.5-21.1c0.9-3.9,1-7.7,0.3-11.7
		C74.2,41.1,70,41.1,65.6,41.1z M52.3,46.1c-0.4,4.9-4.6,8.7-9.3,8.3c-5.1-0.4-8.9-4.6-8.5-9.3c0.4-5.2,4.7-8.8,9.9-8.3
		C48.9,37.1,52.7,41.5,52.3,46.1z"/>
	<path d="M78.9,14.4c0-4.5,0-8.9,0-13.2c-3,0-5.8,0-8.7,0c0,4.4,0,8.7,0,13.3c-4.6,0-8.9,0-13.3,0c0,3,0,5.8,0,8.8
		c4.4,0,8.8,0,13.3,0c0,4.5,0,8.9,0,13.3c3,0,5.9,0,8.9,0c0-4.5,0-8.8,0-13.4c4.5,0,8.8,0,13.2,0c0-3,0-5.8,0-8.8
		C87.7,14.4,83.4,14.4,78.9,14.4z"/>
</g>
</svg>
