<?xml version="1.0" encoding="utf-8"?>
<!-- Generator: Adobe Illustrator 18.1.1, SVG Export Plug-In . SVG Version: 6.00 Build 0)  -->
<svg version="1.1" id="Layer_1" xmlns="http://www.w3.org/2000/svg" xmlns:xlink="http://www.w3.org/1999/xlink" x="0px" y="0px"
	 viewBox="0 0 512 512" enable-background="new 0 0 512 512" xml:space="preserve">
<g>
	<path d="M440,17c0-5.4-1.7-7-8.4-7c-76.8,0.2-153.5,0.2-230.3,0c-7.2,0-8.8,1.9-8.7,7.4c0.3,28.2,0,56.4,0.3,84.6
		c0.1,5.6-2,7.5-9,7.4c-34.1-0.3-68.3-0.1-102.4-0.1c-9.3,0-9.3,0-9.3,7.7c0,107.9,0,215.8,0,323.8c0,0.8,0.1,1.5,0,2.3
		c-0.7,4.3,1.6,5.4,6.6,5.4c22.5-0.2,44.9-0.1,67.4-0.1c7.5,0,15,0,22.4,0c0.4-0.5,0.8-1,1.2-1.5c-8.9-6.9-17.7-13.9-26.8-20.7
		c-1.6-1.2-4.5-1.7-6.9-1.8c-8.9-0.2-17.9-0.3-26.8,0c-5.8,0.2-7.9-1.1-7.9-6.2c0.2-93.1,0.2-186.1,0-279.2c0-4.8,2.1-6.1,7.6-6.1
		c17.6,0.2,35.3,0.1,52.9,0.1c19.5,0,38.9,0,59.6,0c0-2.9,0-5.2,0-7.4c0-27.8,0-55.7,0-83.5c0-7.8,0.1-7.8,9.4-7.8
		c56.6,0,113.2,0,169.8,0c9.9,0,9.9,0,9.9,8.3c0,124.5,0,248.9,0,373.4c0,1.1-0.1,2.3,0,3.4c0.4,3.6-1.4,5.1-5.9,5
		c-9.4-0.2-18.8-0.1-28.2,0c-2.4,0-5.4,0.3-7,1.5c-9.2,6.9-18.1,14.1-27.1,21.1c0.4,0.5,0.8,0.9,1.2,1.4c2,0,4,0,6,0
		c27.3,0,54.5-0.2,81.8,0.2c7.2,0.1,8.7-1.7,8.7-7.3C439.8,299.7,439.8,158.4,440,17z"/>
	<path d="M229.4,403.1c-0.8,0.4-1.6,0.8-2.5,1.2c-13.6-14.3-27.2-28.6-39.7-41.7c-13.2,12.7-25.3,24.3-36.8,35.3
		c35.4,35.5,70.6,70.8,104,104.2c35.2-35,70.8-70.3,105.7-104.9c-10.9-11.1-22.5-23-36.5-37.3c-13.6,14.4-27.1,28.7-41.8,44.4
		c0-4.3,0-6.9,0-9.6c0-44.9-0.1-89.8,0.1-134.7c0-6.6-1.2-9.4-8.6-9c-11.6,0.7-23.4,0.6-35,0c-6.7-0.3-8.4,1.8-8.4,8.4
		c0.3,45.4,0.2,90.7,0.1,136.1C230.1,398,229.7,400.5,229.4,403.1z"/>
	<path d="M161.7,87.4c4.4,0,4.5-2.3,4.5-4.9c0-10,0-19.9,0-29.9c0-9.9,0-19.8,0-28.4c-25.5,20.6-51.4,41.6-77.3,62.6
		c0.1,0,0.4,0.4,0.7,0.4C113.7,87.3,137.7,87.3,161.7,87.4z"/>
</g>
</svg>
