<?xml version="1.0" encoding="utf-8"?>
<!-- Generator: Adobe Illustrator 18.1.1, SVG Export Plug-In . SVG Version: 6.00 Build 0)  -->
<svg version="1.1" id="Layer_1" xmlns="http://www.w3.org/2000/svg" xmlns:xlink="http://www.w3.org/1999/xlink" x="0px" y="0px"
	 viewBox="0 121 612 562" enable-background="new 0 121 612 562" xml:space="preserve">
<path d="M33.4,425.2c0-13.9,0-27.7,0-41.6c0.7-2.7,1.7-5.4,2-8.2c15.3-112.9,76.4-190,182.6-230.2c22-8.4,46.4-10.7,69.6-15.9
	c13.9,0,27.7,0,41.6,0c2.3,0.7,4.5,1.7,6.9,1.9c110.4,10.6,204.4,87.9,235.3,194.3c5.3,18.2,8.1,37.1,12.1,55.6c0,15.5,0,31,0,46.5
	c-0.7,2.7-1.7,5.4-2.1,8.2c-15,107.3-72.5,182.5-172.4,223.8c-24.4,10.1-51.5,13.4-77.4,19.9c-15.5,0-31,0-46.5,0
	c-1.9-0.7-3.7-1.7-5.6-1.9C160.2,661.1,82.2,594.9,44.8,480.9C38.9,463,37.1,443.8,33.4,425.2z M309.3,163.7
	C177.2,163.1,68.4,270.4,67.7,402.3C66.9,535,173.9,644.4,305.1,645.2c134.9,0.8,243.6-106,244.1-239.9
	C549.7,272.5,442.4,164.4,309.3,163.7z"/>
<path d="M219.4,476.6c59.9,0,118,0,177.7,0c0-13-0.1-25.4,0-37.9c0.1-12.2,5.3-18.8,14.5-18.3c10.8,0.6,14.5,7.9,14.7,17.4
	c0.2,17.1,0.4,34.2,0,51.3c-0.3,12.9-5.1,17.2-18.2,17.3c-66.3,0.1-132.7,0.1-199,0c-14.3,0-18.8-4.6-19-19
	c-0.2-16.3-0.2-32.6,0-48.8c0.2-11.9,5.8-18.8,15-18.1c11.4,0.8,14.6,8.4,14.3,18.7C219.2,451.2,219.4,463.3,219.4,476.6z"/>
<path d="M292.6,384.5c0-30.4,0-60.8,0-91.2c0-3.7-0.1-7.3,0-11c0.5-9.5,5.5-15.8,15-15.7c9.6,0.1,14.4,6.4,14.4,16.1
	c0,29.7,0,59.4-0.1,89.1c0,4,0,8,0,14.9c9.2-8.9,16.6-16.1,24-23.3c10.7-10.5,19.2-12.3,26.2-5.6c7.1,6.9,5.5,15.7-4.9,26.1
	c-15.3,15.2-30.6,30.4-46,45.5c-11.6,11.3-17,11.2-28.7-0.4c-15.9-15.7-31.9-31.4-47.7-47.3c-8.2-8.2-9.1-17.1-2.4-23.3
	c8.1-7.5,15.7-4.9,22.4,2.2c8.1,8.6,15.8,17.5,23.8,26.2C289.9,386.1,291.2,385.3,292.6,384.5z"/>
</svg>
