<?xml version="1.0" encoding="utf-8"?>
<!-- Generator: Adobe Illustrator 18.1.1, SVG Export Plug-In . SVG Version: 6.00 Build 0)  -->
<svg version="1.1" id="Layer_1" xmlns="http://www.w3.org/2000/svg" xmlns:xlink="http://www.w3.org/1999/xlink" x="0px" y="0px"
	 viewBox="0 0 512 512" enable-background="new 0 0 512 512" xml:space="preserve">
<g>
	<path d="M504.7,336.8c0-2.7-0.2-5.3-0.7-7.9c-2.9-15.4-18.2-24.8-33.2-20.5c-12.3,3.5-19.5,13.4-19.6,27.5
		c-0.1,28.5,0.1,57-0.2,85.5c0,4.2-1.6,8.9-3.8,12.6c-5,8.2-13.1,10-22.4,10c-113.7-0.2-227.3-0.2-341,0.1c-12,0-23.8-9.7-23.7-24.1
		c0.2-28.5,0.2-57,0-85.5c-0.1-18.9-17.4-31.4-35.1-25.6c-10.9,3.6-17.9,13.4-17.9,26.1c-0.1,29-0.1,58,0,87c0,3.5,0.1,7,0.6,10.5
		c6.6,39.1,37.5,65,77.3,65c57,0,114,0,171,0c56.8,0,113.7,0,170.5,0c12.5,0,24.6-2.2,35.8-8c28.1-14.6,41.8-38.3,42.3-69.6
		C505.1,392.2,504.8,364.5,504.7,336.8z"/>
	<path d="M155,179.8c23.2-23,46.2-46.2,69.3-69.2c1.3-1.3,2.7-2.4,5.1-4.6c0,3.5,0,5.4,0,7.4c0,67.5,0,134.9,0,202.4
		c0,2.7,0,5.3,0.2,8c1.2,19,21.5,30.6,38.4,21.8c10.6-5.5,14.6-14.7,14.6-26.4c-0.1-68.5-0.1-136.9-0.1-205.4c0-2.1,0-4.2,0-6.2
		c0.8-0.5,1.7-0.9,2.5-1.4c1,1.6,1.7,3.4,2.9,4.7c22.2,22.3,44.5,44.6,66.8,66.8c2,2,4.1,4,6.3,5.7c11.1,8.3,26.5,6.6,35.6-3.8
		c9.8-11.1,8.8-26.3-2.5-37.7c-39-39-78-78-117-117c-13.7-13.7-28.7-13.7-42.4-0.1c-38.5,38.5-77,77-115.6,115.6
		c-1.9,1.9-3.7,3.8-5.4,5.9c-7.2,9.3-6.9,22.9,0.4,32C124.8,191.5,142.5,192.3,155,179.8z"/>
</g>
</svg>
