<svg width="43" height="45" viewBox="0 0 43 45" fill="none" xmlns="http://www.w3.org/2000/svg">
<g id="Group 34555">
<path id="Vector" d="M5.44118 35.4857C3.03902 33.3512 3.44777 30.7514 5.1024 29.0771C6.14943 28.0178 9.18251 27.9122 10.3388 29.0538C10.9673 29.6749 11.5638 30.3279 11.6694 31.2289C11.8645 32.8847 11.5687 34.3957 9.99632 35.4317C10.7389 35.8172 11.3821 36.151 12.0266 36.4861C12.1063 36.4824 12.1861 36.4788 12.2659 36.4751C12.2721 31.9531 12.2819 27.4323 12.2831 22.9103C12.2831 20.3535 12.2721 17.7954 12.2659 15.2386C12.2328 15.2042 12.2009 15.1686 12.1677 15.1343C12.0904 15.1416 12.0045 15.1294 11.9357 15.1576C8.16248 16.6968 4.39169 18.2447 0.614765 19.7753C0.145871 19.9656 0.00471186 20.2491 0.00593933 20.7463C0.0218964 27.5182 0.0169866 34.2914 0.0169866 41.0634C0.0169866 41.1861 -0.0284299 41.3395 0.0292613 41.4255C0.154463 41.6145 0.331219 41.7679 0.58776 42.0453C0.652816 40.3723 1.21745 39.1068 2.04231 37.9554C2.88927 36.7734 4.10201 36.0491 5.44118 35.4845V35.4857ZM2.23871 21.9025C2.25467 21.6963 2.42406 21.3956 2.60081 21.322C4.94651 20.3449 7.30571 19.3997 9.66245 18.4509C9.73242 18.4227 9.8208 18.4411 9.93004 18.4362V20.8715C7.41004 21.8915 4.86427 22.9226 2.22152 23.9917C2.22152 23.1632 2.19084 22.5298 2.23871 21.9025Z" fill="#282828"/>
<path id="Vector_2" d="M42.9815 40.831C42.9815 34.2653 42.9815 27.7008 42.9815 21.135C42.9815 20.0315 42.9668 20.0684 41.9234 19.6498C39.347 18.6163 36.7877 17.5398 34.2161 16.494C33.1409 16.0558 32.0509 15.6507 30.9682 15.2309C30.9118 15.1892 30.8553 15.1487 30.7989 15.1069C30.7768 15.1511 30.7547 15.1953 30.7326 15.2395C30.7264 15.3009 30.7154 15.361 30.7154 15.4224C30.7154 22.295 30.7142 29.1664 30.7154 36.039C30.7154 36.1703 30.7534 36.3017 30.7804 36.476C31.4862 36.1053 32.1405 35.7604 32.8561 35.3847C31.8729 34.5034 31.1929 33.5288 31.1745 32.1491C31.1561 30.751 31.7538 29.7175 32.753 28.8521C34.021 27.7536 36.784 27.853 38.0765 29.2916C38.7148 30.0011 39.1015 30.8186 39.1751 31.7502C39.2954 33.2796 38.6424 34.485 37.3756 35.4424C38.6903 35.904 39.7594 36.595 40.5965 37.5954C41.5049 38.6805 42.1824 39.8797 42.261 41.3466C42.2708 41.5258 42.4279 41.6976 42.5163 41.8719C42.6697 41.7087 42.8661 41.5675 42.9606 41.3748C43.0343 41.2263 42.9803 41.0139 42.9803 40.8298L42.9815 40.831ZM40.6653 22.0397C40.6235 22.6252 40.6542 23.2168 40.6542 23.9459C39.9865 23.7054 39.3973 23.5139 38.8216 23.2831C37.0307 22.565 35.2448 21.8298 33.4563 21.1068C33.0746 20.9521 32.8561 20.7484 32.9027 20.2709C32.9629 19.6694 32.9175 19.0569 32.9175 18.3315C33.9719 18.7525 34.9403 19.1355 35.9051 19.5271C37.3155 20.0991 38.7173 20.6907 40.135 21.2431C40.5352 21.3989 40.696 21.6027 40.664 22.0409L40.6653 22.0397Z" fill="#282828"/>
<path id="Vector_3" d="M12.064 38.2953C11.1815 37.36 10.1 36.8015 8.80629 36.5781C7.13816 36.2896 5.64187 36.5818 4.2622 37.5589C2.88866 38.5322 2.22828 39.9328 1.86004 41.5064C1.63787 42.454 1.9386 43.1365 2.74382 43.6888C3.89887 44.4806 5.23435 44.7138 6.57475 44.8108C8.32513 44.9384 10.0816 44.8095 11.7399 44.197C12.9355 43.7551 13.7628 43.2911 13.6487 42.1594C13.6106 40.6054 13.0558 39.3485 12.064 38.2966V38.2953Z" fill="#282828"/>
<path id="Vector_4" d="M21.3678 36.4813C20.3331 36.3942 19.356 36.7047 18.4501 37.2497C16.9097 38.1777 16.0099 39.5574 15.6319 41.3053C15.3851 42.4468 15.7227 43.5098 16.7501 43.8977C17.9064 44.3347 19.1424 44.7103 20.3638 44.7815C21.7717 44.8625 23.2115 44.6477 24.6182 44.4341C25.4884 44.3016 26.3685 43.9701 26.9811 43.2913C27.7973 42.3855 27.3579 41.3299 27.0461 40.4007C26.2691 38.0856 23.9529 36.3525 21.3703 36.4838L21.3678 36.4813Z" fill="#282828"/>
<path id="Vector_5" d="M38.2375 37.2336C37.1548 36.5278 35.9274 36.4492 34.6643 36.4639C33.3055 36.4787 32.2057 37.0359 31.2176 37.878C30.3559 38.6132 29.8219 39.5731 29.4868 40.6447C28.9897 42.238 29.0634 43.3206 30.9782 44.0767C32.2401 44.5751 33.5522 44.8292 34.9356 44.8255C36.168 44.6634 37.4052 44.5284 38.6327 44.3308C40.1597 44.0853 41.0815 43.0861 41.0165 41.7408C40.9195 39.7401 39.8639 38.2929 38.2375 37.2336Z" fill="#282828"/>
<path id="Vector_6" d="M24.2272 32.1223C24.2186 30.9354 23.0771 29.282 21.4224 29.4796C19.8464 29.4796 18.5993 30.6113 18.7011 32.1199C18.803 33.626 19.7138 34.824 21.3881 34.8633C23.0795 34.9025 24.2358 33.3915 24.2272 32.1211V32.1223Z" fill="#282828"/>
<path id="Vector_7" d="M37.8369 32.0352C38.0369 30.6371 36.6168 29.3213 35.1524 29.3556C33.4462 29.3961 32.5146 30.5291 32.4446 32.0426C32.3709 33.6481 33.5825 34.7602 35.269 34.759C36.7518 34.7577 37.8369 33.6051 37.8356 32.0352H37.8369Z" fill="#282828"/>
<path id="Vector_8" d="M7.61386 29.4811C6.20963 29.4774 5.13437 30.619 5.01899 31.9925C4.89501 33.4581 6.38025 34.9274 7.69487 34.8844C9.12733 34.8378 10.3806 33.5956 10.4825 32.346C10.6163 30.7061 9.08805 29.2405 7.61386 29.4823V29.4811Z" fill="#282828"/>
<path id="Vector_9" d="M18.2032 6.64377C18.2375 6.67813 18.2719 6.7125 18.3063 6.74687C20.393 6.74687 22.4809 6.74687 24.5676 6.74687C24.602 6.7125 24.6363 6.67813 24.6707 6.64377C24.6781 6.23625 24.6756 5.8275 24.694 5.42121C24.7149 4.97809 24.505 4.79397 24.0729 4.80011C23.4604 4.80992 22.8479 4.80502 22.2354 4.80624C22.2047 4.76328 22.174 4.72032 22.1433 4.67736C22.136 3.39342 22.1274 2.11072 22.1225 0.826783C22.1212 0.354206 22.0255 0.0191068 21.4265 0.000694788C20.7907 -0.0189447 20.8754 0.381211 20.8729 0.765409C20.8655 2.06898 20.8582 3.37256 20.8508 4.67736C20.8189 4.70682 20.7882 4.73628 20.7563 4.76574C20.1266 4.77801 19.4981 4.78538 18.8684 4.80502C18.4351 4.81852 18.132 4.96336 18.1761 5.48749C18.2081 5.87169 18.1946 6.25834 18.2019 6.64499L18.2032 6.64377Z" fill="#282828"/>
<path id="Vector_10" d="M29.4761 37.5047C29.4823 27.9771 29.4823 18.4494 29.4761 8.9218C29.4761 8.73154 29.4037 8.54129 29.3656 8.35225C29.2846 8.26756 29.2036 8.18409 29.1226 8.0994C28.9287 8.06503 28.7335 7.99874 28.5396 7.99874C23.8457 7.99261 19.1506 7.99261 14.4568 7.99874C14.2628 7.99874 14.0689 8.0638 13.8737 8.0994C13.7927 8.14359 13.7117 8.18655 13.6307 8.23074C13.5926 8.4615 13.5202 8.69349 13.5202 8.92426C13.5141 18.4347 13.5141 27.9451 13.5202 37.4568C13.5202 37.6692 13.5865 37.8827 13.6221 38.0951C13.9486 38.7101 14.2751 39.325 14.6237 39.9793C15.5431 37.7563 16.2857 37.0174 19.1801 35.4339C18.1552 34.6803 17.5709 33.675 17.4518 32.4315C17.3291 31.1513 17.8102 30.0453 18.6989 29.1812C20.2627 27.6604 23.2823 27.9856 24.5049 29.4684C25.9361 31.2041 25.7949 34.0334 23.8359 35.3763C24.6902 35.9716 25.6734 36.4945 26.4418 37.2383C27.2114 37.9834 27.7663 38.9519 28.3738 39.7657C28.6635 39.2722 29.0121 38.6757 29.3607 38.0791C29.4012 37.8877 29.4761 37.6962 29.4773 37.5059L29.4761 37.5047ZM19.7656 19.5149H15.6658C15.7248 18.334 15.7837 17.1446 15.8426 15.954L15.9825 15.938C17.2444 15.9564 18.505 15.9761 19.7668 15.9945C19.7668 17.1679 19.7668 18.3414 19.7668 19.5136L19.7656 19.5149ZM18.9763 25.7885C17.9342 25.7909 16.8921 25.7725 15.8512 25.7615C15.8193 25.732 15.7874 25.7026 15.7542 25.6731L15.7432 22.2484C17.0885 22.2448 18.435 22.2411 19.7803 22.2362L19.7779 22.2374C19.7803 23.3863 19.784 24.5352 19.7865 25.6841C19.5164 25.721 19.2464 25.7885 18.9763 25.7885ZM27.2421 25.6731L27.1452 25.7615C25.8404 25.7652 24.5368 25.7688 23.232 25.7713C23.2271 24.5929 23.2222 23.4145 23.2185 22.2362H23.216C24.5306 22.2313 25.8453 22.2276 27.1587 22.2227C27.1992 22.4669 27.274 22.71 27.274 22.9542C27.2765 23.8601 27.2544 24.766 27.2421 25.6719V25.6731ZM27.2802 19.5149H23.2307C23.2307 18.3414 23.2307 17.1679 23.2307 15.9945C24.4926 15.9761 25.7532 15.9564 27.015 15.938C27.0617 15.9429 27.1083 15.9478 27.155 15.954C27.1967 16.1811 27.2728 16.4069 27.2753 16.6352C27.2888 17.5853 27.2814 18.5341 27.2814 19.5149H27.2802ZM26.6763 12.6815C23.2271 12.6815 19.7779 12.6717 16.3299 12.6926C15.7812 12.6963 15.5321 12.5637 15.5959 11.9745C15.6413 11.551 15.5824 11.1165 15.6155 10.6906C15.629 10.5163 15.7616 10.3506 15.8389 10.1812C19.6122 10.1812 23.3854 10.1812 27.1574 10.1812C27.2127 10.979 27.2667 11.7769 27.328 12.6815H26.675H26.6763Z" fill="#282828"/>
<path id="Vector_11" d="M30.7739 36.4873C30.7616 36.4996 30.7506 36.5119 30.7383 36.5241C30.7555 36.5376 30.7714 36.5499 30.7886 36.5634C30.7947 36.5511 30.8009 36.5389 30.807 36.5266C30.796 36.5143 30.7849 36.5008 30.7739 36.4885V36.4873Z" fill="#282828"/>
</g>
</svg>
