<svg width="56" height="50" viewBox="0 0 56 50" fill="none" xmlns="http://www.w3.org/2000/svg">
<g id="Group">
<path id="Vector" d="M55.7354 42.7652C55.7144 42.7652 55.6844 42.7592 55.6635 42.7532C55.4626 41.5059 54.7999 40.4685 54.1613 39.461C54.0144 39.2301 53.8675 39.0023 53.7265 38.7714C53.4807 38.3786 53.0609 38.2917 52.5752 38.5345C52.1194 38.7624 51.9815 39.1402 52.1884 39.6019L52.5932 40.4115C52.7041 40.6184 52.824 40.8283 52.938 41.0291C53.2018 41.4879 53.4747 41.9646 53.6576 42.4503C54.0953 43.5717 54.0324 44.834 53.4867 45.9104C52.95 46.9658 51.9935 47.7454 50.8601 48.0512C50.2095 48.2251 49.5169 48.2251 48.8453 48.2251H6.97372C6.62291 48.2251 6.22414 48.2251 5.86734 48.1801C4.48511 48.0722 3.2588 47.3796 2.50922 46.2762C1.82561 45.2718 1.63371 44.0365 1.98452 42.8881C2.2004 42.2045 2.59618 41.5479 2.97996 40.9122C3.06092 40.7743 3.14487 40.6394 3.22283 40.5074C7.90021 32.4539 12.5746 24.3345 17.0901 16.4849C17.6867 15.4685 18.2534 14.437 18.8021 13.4386C19.0809 12.9319 19.3598 12.4252 19.6416 11.9154C19.8395 11.5467 19.8455 11.1389 19.6536 10.845C19.5007 10.6112 19.2428 10.4882 18.961 10.5122C18.5802 10.5122 18.1784 10.8181 17.9776 11.1179C17.3029 12.0624 16.7093 13.1118 16.1336 14.1282L16.0886 14.2092C11.837 21.573 7.44146 29.1888 3.16286 36.6756C2.28135 38.1717 1.36986 39.7219 0.605288 41.296C-0.20126 42.993 -0.201263 44.915 0.602287 46.567C1.41183 48.2311 2.93798 49.4274 4.79094 49.8442C5.4026 49.9701 6.03225 50.0001 6.6529 50.0001C6.89877 50.0001 7.14463 49.9971 7.39049 49.9911C7.63935 49.9881 7.88522 49.9821 8.13408 49.9821H46.4736C46.7974 49.9821 47.1212 49.9821 47.4451 49.9881C48.4045 49.9971 49.397 50.0061 50.3804 49.9371C51.9096 49.7992 53.1958 49.1486 54.2003 48.0032C55.1447 46.9178 55.5495 45.6286 55.8463 44.3993L55.8523 44.3603C55.8523 43.8835 55.8523 43.3408 55.8973 42.9481L55.9183 42.7682H55.7354V42.7652Z" fill="#282828"/>
<path id="Vector_2" d="M38.9222 24.9669C38.2446 23.7945 37.57 22.6222 36.8953 21.4499C34.9075 17.9988 32.8536 14.4278 30.7638 10.9257C30.452 10.3051 29.9152 9.71742 29.3276 9.35762C28.0023 8.53608 26.3203 8.94385 25.4118 10.3081C24.7192 11.3305 24.0835 12.4189 23.4689 13.4743L23.1301 14.056C21.409 17.0273 19.685 20.0077 17.9639 22.988C16.2489 25.9593 14.5339 28.9277 12.8188 31.887C11.5295 34.1208 10.2193 36.4385 8.95099 38.6812C8.27637 39.9315 8.27937 41.0529 8.95999 42.1143C9.59863 43.0737 10.5551 43.5175 11.9733 43.5175H32.8566C36.6795 43.5175 40.6343 43.5175 44.5021 43.4755C45.4825 43.4755 46.3401 42.9448 46.9187 41.9794C47.7493 40.6091 47.2785 39.4098 46.7059 38.4173C44.7839 35.1372 42.853 31.7851 40.9881 28.5439C40.3014 27.3505 39.6148 26.1602 38.9312 24.9699L38.9222 24.9669ZM10.4801 39.8625C11.0498 38.7771 11.6705 37.7127 12.2701 36.6813C12.576 36.1536 12.8818 35.6289 13.1846 35.0982C15.1815 31.6172 17.2234 28.0791 19.1993 24.6581C21.1751 21.237 23.217 17.696 25.2139 14.2179C25.3878 13.9151 25.5557 13.6122 25.7236 13.3124C26.0504 12.7247 26.3892 12.1131 26.755 11.5224C27.0639 11.0727 27.4446 10.8388 27.8524 10.8388C28.0323 10.8388 28.2182 10.8838 28.4041 10.9767C28.656 11.0847 28.8958 11.3095 29.0577 11.5974C29.8523 12.9706 30.6498 14.3708 31.4204 15.7201C32.191 17.0723 32.9885 18.4695 33.7831 19.8457C34.3648 20.8562 34.9494 21.8636 35.5311 22.8711C37.6569 26.553 39.8577 30.3579 41.9925 34.1537L42.0045 34.1717C42.9729 35.8118 43.9744 37.5089 44.9578 39.2209L44.9728 39.2419C45.1227 39.4278 45.2457 39.6616 45.3356 39.9345C45.4795 40.2793 45.4675 40.6601 45.2966 40.9779C45.1227 41.3017 44.8049 41.5296 44.4331 41.5986C44.1423 41.6405 43.8574 41.6405 43.5546 41.6405H12.489C12.1562 41.6405 11.8114 41.6405 11.4696 41.5986C10.9988 41.5596 10.6181 41.3407 10.4322 40.9929C10.2523 40.6571 10.2703 40.2583 10.4861 39.8625H10.4801Z" fill="#282828"/>
<path id="Vector_3" d="M20.2562 8.83905C20.7299 9.15387 21.1797 9.05193 21.5965 8.53322C21.7314 8.35032 21.8723 8.16443 21.9682 7.97853C22.6699 6.70425 23.3984 5.38798 24.16 4.08971C25.1884 2.29072 27.2333 1.49316 29.2542 2.10782C30.3336 2.40465 31.1461 3.12725 31.8837 4.44651C34.1594 8.49424 36.624 12.8388 39.2206 17.1984L39.3255 17.3783C42.8546 23.4769 46.5035 29.7853 50.0865 35.9349C50.1854 36.1328 50.3354 36.4296 50.5632 36.5435C50.7641 36.6425 50.995 36.6964 51.2169 36.6964C51.3488 36.6964 51.4747 36.6785 51.5887 36.6395C51.8075 36.5585 51.9574 36.4056 52.0264 36.1987C52.0894 36.0128 52.0774 35.7999 51.9964 35.5781C51.9365 35.4282 51.8585 35.2992 51.7895 35.1823C51.7506 35.1133 51.7086 35.0504 51.6726 34.9754L46.4375 25.8485C44.8035 23.0031 43.1304 20.1247 41.5113 17.3393C39.8952 14.5598 38.2281 11.6875 36.5941 8.84804C36.4052 8.52423 36.2163 8.20041 36.0244 7.87659C35.0139 6.15255 33.9735 4.36855 32.8761 2.66851C31.7728 0.944471 30.0697 0.0479731 27.821 0H27.815C25.5932 0.0479731 23.8122 1.04941 22.6699 2.89638C22.1691 3.70592 21.6954 4.53946 21.2367 5.349C20.9608 5.83773 20.673 6.34445 20.3851 6.83617C20.2472 7.06704 20.1093 7.34289 19.9744 7.61573C19.7375 8.14944 19.8334 8.5632 20.2562 8.84804V8.83905Z" fill="#282828"/>
<path id="Vector_4" d="M27.981 29.7884C27.999 29.7884 28.02 29.7884 28.038 29.7884C29.4892 29.7884 30.8654 28.5081 30.9973 27.0119C31.0423 26.4423 31.0273 25.8516 31.0123 25.2819C31.0063 24.9941 30.9973 24.7002 30.9973 24.4094C30.9973 24.0076 31.0063 23.5879 31.0123 23.1831C31.0213 22.7753 31.0273 22.3555 31.0273 21.9358C30.8924 20.2567 29.5761 19.0634 27.8821 19.0964C26.233 19.1324 24.9407 20.3827 24.8717 22.0077C24.8058 23.6238 24.8058 25.2639 24.8717 26.88C24.9377 28.4781 26.3019 29.7554 27.978 29.7914L27.981 29.7884ZM29.5401 22.1157C29.5611 22.6284 29.5551 23.1531 29.5461 23.6628C29.5431 23.9237 29.5401 24.1815 29.5401 24.4424C29.5401 24.8172 29.5491 25.2039 29.5551 25.5787C29.5641 25.9535 29.5701 26.3373 29.5701 26.7031C29.5401 27.5936 29.0154 28.1723 28.1249 28.2952C27.3843 28.3822 26.6497 27.9294 26.4249 27.2518C26.3649 27.0179 26.3319 26.7361 26.3319 26.4782C26.2989 25.153 26.2989 23.8037 26.2989 22.4965C26.2989 22.1337 26.3409 21.8099 26.4189 21.546C26.6407 20.9253 27.1744 20.5805 27.8791 20.5805C28.008 20.5805 28.1399 20.5925 28.2778 20.6135C28.9884 20.7335 29.5041 21.3481 29.5341 22.1127L29.5401 22.1157Z" fill="#282828"/>
<path id="Vector_5" d="M27.821 38.2525C29.59 38.2525 31.0292 36.8853 31.0292 35.2062C31.0292 33.4103 29.692 32.031 27.9169 31.998C26.1719 31.998 24.8047 33.3923 24.8047 35.1733C24.8047 36.9543 26.1569 38.2525 27.818 38.2525H27.821ZM26.2349 35.0503C26.2649 34.1838 26.9695 33.5212 27.857 33.5212C27.875 33.5212 27.896 33.5212 27.9139 33.5212C28.4087 33.5362 28.8434 33.7251 29.1373 34.0489C29.4011 34.3397 29.533 34.7235 29.5061 35.1343C29.4911 35.566 29.2962 35.9858 28.9694 36.2916C28.6545 36.5855 28.2588 36.7414 27.854 36.7264C27.4222 36.7264 27.0115 36.5495 26.7026 36.2287C26.3908 35.9079 26.2229 35.4761 26.2349 35.0503Z" fill="#282828"/>
</g>
</svg>
