<svg width="42" height="55" viewBox="0 0 42 55" fill="none" xmlns="http://www.w3.org/2000/svg">
<g id="Group">
<path id="Vector" d="M0 20.3768C0.0827038 19.6095 0.15622 18.8284 0.252707 18.0473C0.321627 17.4821 0.395141 16.917 0.496223 16.361C0.565143 15.9705 0.675417 15.5845 0.785689 15.2032C0.918934 14.7483 1.04758 14.2935 1.22218 13.8524C1.53921 13.0529 1.83786 12.2396 2.22381 11.4723C4.1214 7.68634 6.91955 4.75036 10.5953 2.6506C12.502 1.56167 14.5467 0.831122 16.6878 0.385441C17.3816 0.238412 18.0937 0.160302 18.8013 0.095977C19.4675 0.0316519 20.143 -0.014295 20.8092 0.00408365C21.5857 0.0224623 22.3576 0.114356 23.1295 0.18787C23.6257 0.233817 24.1219 0.288953 24.6136 0.376251C25.0638 0.45436 25.5095 0.560037 25.946 0.688688C26.6122 0.886258 27.2785 1.08842 27.9263 1.33653C32.7553 3.18818 36.3896 6.40903 38.8662 10.944C39.4359 11.9823 39.9 13.0713 40.2584 14.197C40.5111 14.9872 40.727 15.7913 40.897 16.6C41.0348 17.2616 41.09 17.937 41.1543 18.6078C41.2186 19.2419 41.3105 19.876 41.2875 20.51C41.26 21.2681 41.1497 22.0308 41.0211 22.7844C40.5984 25.2471 39.5554 27.4755 38.3929 29.658C36.2886 33.6048 33.6696 37.207 30.899 40.7035C28.3214 43.9519 25.5784 47.0579 22.7435 50.0766C22.3392 50.5039 21.9257 50.922 21.5168 51.3493C21.2916 51.5836 21.0159 51.7261 20.7035 51.7353C20.5197 51.7399 20.3221 51.6572 20.1521 51.5653C19.9867 51.478 19.8443 51.3401 19.7111 51.2023C17.1105 48.4915 14.5926 45.7117 12.1942 42.8216C9.92445 40.0832 7.75577 37.2759 5.78007 34.3169C4.18573 31.9231 2.72003 29.4512 1.59434 26.8001C1.19002 25.8444 0.859203 24.8474 0.555956 23.8549C0.376765 23.276 0.303249 22.6695 0.206761 22.0676C0.119463 21.5162 0.0735154 20.9603 0.00459563 20.3814L0 20.3768ZM20.0832 4.56198C15.2634 5.02604 10.9628 6.85931 7.9074 10.8934C5.15061 14.5324 4.16275 18.6492 4.83817 23.1473C5.37574 26.7266 6.99306 29.7912 9.63499 32.2585C13.4899 35.8562 18.08 37.2024 23.2811 36.4167C26.8282 35.8791 29.8652 34.2894 32.3142 31.6704C36.0451 27.6777 37.327 22.9084 36.4126 17.5786C35.8245 14.1372 34.1704 11.215 31.5882 8.84879C28.0044 5.56361 23.7498 4.27252 20.0832 4.56657V4.56198Z" fill="#282828"/>
<path id="Vector_2" d="M38.7175 52.7461C38.4142 52.861 38.1064 52.9712 37.8078 53.0953C36.9991 53.4261 36.1445 53.5869 35.2945 53.7523C34.711 53.8672 34.1274 54.0004 33.5393 54.1015C33.0017 54.1934 32.4596 54.2531 31.9174 54.3267C31.4166 54.3956 30.9112 54.4691 30.4104 54.5242C29.9049 54.5794 29.3949 54.6253 28.8849 54.6667C28.2049 54.7172 27.5249 54.7586 26.8403 54.7999C26.5784 54.8183 26.3211 54.8413 26.0592 54.8504C25.5722 54.8688 25.0806 54.8688 24.5935 54.901C22.4019 55.0526 20.2056 54.9837 18.0094 54.9883C17.2145 54.9883 16.415 54.9377 15.6202 54.8964C14.8253 54.855 14.0304 54.8091 13.2401 54.754C12.5693 54.7034 11.8985 54.6345 11.2277 54.5702C10.635 54.5104 10.0423 54.4507 9.45414 54.3726C8.91198 54.2991 8.36981 54.2164 7.83223 54.1107C6.94546 53.9407 6.06329 53.7523 5.17652 53.5731C4.31732 53.3985 3.49488 53.1183 2.69541 52.7553C2.67704 52.7461 2.65865 52.7323 2.60352 52.7001C2.72757 52.6312 2.82406 52.5577 2.93893 52.5164C3.54083 52.3096 4.13813 52.0799 4.74922 51.9145C5.35112 51.7491 5.9714 51.6296 6.58708 51.5239C7.45087 51.3769 8.31927 51.2574 9.18306 51.1242C9.65631 51.0507 10.125 50.9588 10.5936 50.8944C10.9888 50.8439 11.3885 50.8209 11.7882 50.7934C12.5831 50.7428 13.378 50.6969 14.1683 50.6509C14.6645 50.6188 15.1607 50.5774 15.6523 50.5636C15.7764 50.5636 15.9326 50.6326 16.0199 50.7199C16.778 51.4918 17.5178 52.282 18.2667 53.0585C18.8043 53.6145 19.4797 53.9361 20.2286 54.0234C21.3359 54.1521 22.333 53.8304 23.1232 53.0172C23.84 52.282 24.5476 51.5377 25.2276 50.775C25.4252 50.5544 25.6319 50.5315 25.8846 50.5544C26.073 50.5682 26.2614 50.5866 26.4498 50.6004C27.139 50.6463 27.8282 50.6969 28.5174 50.7428C28.8068 50.7612 29.1009 50.7612 29.3903 50.7934C30.0428 50.8623 30.6952 50.945 31.3477 51.0277C31.8577 51.092 32.3723 51.1426 32.8777 51.2253C33.7185 51.3631 34.5593 51.4963 35.391 51.6709C36.0756 51.8134 36.7556 51.9926 37.431 52.1901C37.8675 52.3142 38.2856 52.498 38.7083 52.6542V52.7507L38.7175 52.7461Z" fill="#282828"/>
<path id="Vector_3" d="M19.5333 30.848C17.1394 30.5447 15.0994 29.5615 13.4178 27.8752C11.7407 26.189 10.7345 24.1581 10.4634 21.7643H10.1923C9.15853 21.7643 8.12473 21.7643 7.09094 21.7643C6.40633 21.7643 5.91011 21.3876 5.80443 20.7305C5.7447 20.3584 5.92389 20.0184 6.21336 19.7703C6.46147 19.5589 6.76012 19.4762 7.08175 19.4762C8.19365 19.4762 9.31015 19.4762 10.4037 19.4762C11.3548 14.3348 14.3872 11.3115 19.5287 10.3466C19.5287 9.61148 19.5287 8.83957 19.5287 8.06767C19.5287 7.67713 19.5103 7.28658 19.5333 6.90063C19.5608 6.45954 19.7492 6.09197 20.1627 5.88062C20.7049 5.60034 21.6146 5.79332 21.7754 6.72144C21.803 6.86847 21.8168 7.0155 21.8168 7.16253C21.8168 8.10902 21.8168 9.05552 21.8168 10.002C21.8168 10.4339 21.8168 10.4569 22.2211 10.4891C23.0206 10.558 23.7649 10.8015 24.5139 11.0956C26.2966 11.7939 27.7255 12.938 28.8788 14.4405C29.5037 15.2583 29.9815 16.1497 30.3261 17.1283C30.5788 17.8359 30.7396 18.5481 30.8361 19.2832C30.8591 19.4578 30.9602 19.4716 31.1026 19.4716C32.1364 19.4716 33.1702 19.4624 34.204 19.4762C34.4337 19.4762 34.6726 19.5313 34.884 19.614C35.3756 19.8116 35.5732 20.2711 35.518 20.8178C35.4721 21.2543 35.0494 21.6678 34.5945 21.7138C34.2178 21.7505 33.8364 21.7597 33.4596 21.7597C32.674 21.7643 31.8837 21.7643 31.098 21.7597C30.9142 21.7597 30.8637 21.8195 30.8407 21.9987C30.7304 22.8441 30.5099 23.6619 30.1929 24.4614C29.6966 25.7249 28.9615 26.8184 28.0288 27.7879C26.802 29.0652 25.3225 29.952 23.6363 30.462C23.1033 30.6228 22.5428 30.6917 21.9868 30.7744C21.803 30.802 21.8214 30.9031 21.8214 31.0226C21.8214 32.0747 21.8306 33.1223 21.8214 34.1745C21.8168 34.6431 21.6973 35.075 21.2425 35.3232C20.5119 35.7229 19.547 35.314 19.5333 34.2158C19.5241 33.1729 19.5333 32.1299 19.5333 31.0869V30.8434V30.848ZM12.7653 21.7689C13.0364 24.6544 15.6554 28.0682 19.5241 28.5277V25.0219C17.5392 24.4063 16.6616 23.0462 16.2665 21.7643H12.7653V21.7689ZM16.2802 19.4624C16.294 19.4257 16.3124 19.3981 16.3216 19.3659C16.7948 17.7991 17.8286 16.7791 19.377 16.2737C19.5103 16.2324 19.5378 16.1726 19.5378 16.044C19.5333 15.001 19.5378 13.958 19.5378 12.9196C19.5378 12.8507 19.5378 12.7772 19.5378 12.6945C17.4151 12.9931 15.7197 14.004 14.3964 15.6443C13.4959 16.7562 12.9491 18.0289 12.7607 19.467H16.2848L16.2802 19.4624ZM28.5939 19.4624C28.1804 16.0532 25.3317 13.1356 21.8352 12.6991V16.2186C23.6501 16.871 24.3944 17.6108 25.0928 19.4624H28.5939ZM25.0836 21.7689C25.0331 21.9114 24.9825 22.0492 24.932 22.1916C24.4128 23.5838 23.4295 24.489 22.0327 24.953C21.8765 25.0036 21.826 25.0587 21.826 25.2195C21.8352 25.872 21.826 26.5244 21.826 27.1768C21.826 27.6271 21.826 28.082 21.826 28.5644C21.9776 28.5231 22.1017 28.4633 22.2303 28.4541C23.039 28.3806 23.7787 28.0728 24.4771 27.6868C26.5401 26.5382 27.9001 24.8382 28.4607 22.5224C28.5204 22.2789 28.5434 22.0262 28.5847 21.7689H25.0882H25.0836Z" fill="#282828"/>
</g>
</svg>
