<svg width="44" height="41" viewBox="0 0 44 41" fill="none" xmlns="http://www.w3.org/2000/svg">
<g id="Group 34554">
<g id="Group 34553">
<path id="Vector" d="M0 40.8435V38.3458H1.71018C1.71018 37.7544 1.6884 37.2076 1.71476 36.662C1.78812 35.0917 2.89539 33.6027 4.59983 33.2864C4.96663 33.2187 5.34374 33.1763 5.71627 33.1752C9.47476 33.1671 13.2333 33.1717 16.9906 33.1694C19.0103 33.1683 20.5061 34.3168 20.9233 36.2253C21.0666 36.8764 20.9463 37.5859 20.9463 38.3137H22.6885C22.6885 39.1917 22.6885 40.0239 22.6885 40.8561C20.5497 40.8561 18.4108 40.8572 16.2719 40.8561C10.848 40.8526 5.42398 40.8481 0.00114623 40.8435H0Z" fill="black"/>
<path id="Vector_2" d="M12.1992 12.0618C14.3048 9.95736 16.4426 7.82766 18.5688 5.68764C18.8256 5.42974 18.9952 5.33231 19.3047 5.64523C22.411 8.7733 25.5311 11.8876 28.6064 14.9641C26.338 17.2245 24.0742 19.4791 21.8299 21.7166C18.6812 18.5598 15.4488 15.3183 12.1992 12.0618Z" fill="#020202"/>
<path id="Vector_3" d="M29.3438 26.1984C30.5668 24.9777 31.7761 23.7684 32.9911 22.5557C36.4206 25.9852 39.8891 29.4319 43.3278 32.9096C44.035 33.6248 44.1588 34.5453 43.8195 35.4989C43.4482 36.5409 42.6309 37.0257 41.5947 37.1873C40.7648 37.3169 40.0725 36.9535 39.5154 36.3999C36.1386 33.0494 32.7825 29.6784 29.4205 26.3142C29.3827 26.2763 29.3609 26.2236 29.3449 26.1995L29.3438 26.1984Z" fill="#010101"/>
<path id="Vector_4" d="M24.2219 0.00114623C27.507 3.29084 30.744 6.53238 33.9672 9.75903C33.4296 10.3035 32.8405 10.9007 32.21 11.5391C31.7298 11.1185 31.3091 10.6623 30.5446 10.6623C29.741 10.6623 29.3949 11.2147 28.8584 11.6732C28.3862 11.1941 27.9231 10.7173 27.4543 10.2473C25.8748 8.66438 24.2941 7.08372 22.7112 5.50536C22.5095 5.30362 22.302 5.11105 22.6218 4.85544C23.7818 3.92585 23.6328 2.7693 22.4258 1.7801C22.7467 1.47864 23.0688 1.1875 23.3772 0.8826C23.6729 0.589164 23.9549 0.280827 24.2219 0V0.00114623Z" fill="#010101"/>
<path id="Vector_5" d="M18.3787 22.1603C17.0101 23.3202 17.1201 24.3507 18.2893 25.3995C17.6944 25.999 17.0983 26.5996 16.4759 27.2266C16.4037 27.1601 16.32 27.0891 16.2432 27.0111C13.2183 23.9874 10.2003 20.9567 7.16277 17.9467C6.81431 17.6017 6.82463 17.4022 7.17079 17.0847C7.64648 16.6503 8.07517 16.1632 8.55773 15.6646C9.08041 16.1746 9.56069 16.8096 10.2851 16.6285C10.8811 16.4795 11.4061 16.0428 11.962 15.7333C14.0505 17.8252 16.2169 19.995 18.3787 22.1614V22.1603Z" fill="#010201"/>
</g>
<path id="Vector_6" d="M25.2355 22.1554C26.4093 20.9931 27.5257 19.8732 28.6673 18.7797C28.7648 18.6869 29.1052 18.6949 29.2107 18.7912C29.8571 19.3792 30.4681 20.0062 31.1409 20.6687C29.966 21.8344 28.8393 22.9669 27.6862 24.0719C27.5968 24.1579 27.2586 24.1246 27.1486 24.0238C26.5159 23.4449 25.9164 22.8294 25.2344 22.1565L25.2355 22.1554Z" fill="#010202"/>
</g>
</svg>
