<svg width="45" height="55" viewBox="0 0 45 55" fill="none" xmlns="http://www.w3.org/2000/svg">
<g id="Group">
<path id="Vector" d="M35.1273 6.89343C35.4122 8.44 36.3991 9.27433 37.8897 9.58975C37.9406 9.58466 37.9966 9.57957 38.0474 9.5694H44.6204V10.3681C44.6204 22.5881 44.6204 34.8131 44.6204 47.033C44.6204 48.488 43.9234 49.1901 42.4887 49.1901C30.9302 49.1901 19.3716 49.1901 7.81812 49.1901C6.43435 49.1901 5.80859 48.5592 5.80859 47.1602C5.80859 32.0354 5.80859 16.9105 5.80859 1.79077C5.80859 0.671537 6.44451 0 7.54848 0C16.6854 0 25.8275 2.3311e-07 34.9645 0.010175C34.9848 0.061049 35.0052 0.106836 35.0255 0.15771C35.0255 2.23846 35.0306 4.32429 35.0357 6.40504C35.0662 6.56784 35.0968 6.73063 35.1273 6.89343ZM20.9487 14.6822C21.7576 13.97 21.7627 13.8835 21.1013 13.2832L20.9334 13.1713C18.115 13.1611 15.2915 13.156 12.4731 13.1255C11.9338 13.1204 11.5777 13.3595 11.4811 13.8326C11.3793 14.3312 11.7405 14.5907 12.2035 14.6975C12.3459 14.7382 12.4833 14.8094 12.6257 14.8094C15.2356 14.8145 17.8403 14.8145 20.4501 14.8094C20.6129 14.8094 20.7808 14.728 20.9436 14.6822H20.9487ZM12.0763 10.8158C12.1271 10.8158 12.178 10.8158 12.2289 10.8158C17.2196 10.8158 22.2104 10.8158 27.2011 10.8158C27.2571 10.7802 27.313 10.7395 27.369 10.7039C27.9897 10.6632 27.837 10.1697 27.7963 9.84921C27.7302 9.34047 27.2927 9.29468 26.8654 9.29468C22.0883 9.29468 17.3112 9.2845 12.5341 9.32012C12.1882 9.32012 11.6998 9.57449 11.5319 9.85938C11.2623 10.3122 11.6998 10.6021 12.0763 10.8209V10.8158ZM19.7074 41.2639C19.7684 41.3402 19.8295 41.4827 19.8905 41.4827C20.9538 41.4674 22.0171 41.4521 23.0803 41.386C23.2533 41.3758 23.411 41.1113 23.5789 40.9637C23.6145 40.7959 23.6857 40.628 23.6857 40.4652C23.6908 37.1482 23.6908 33.8261 23.6857 30.5091C23.6857 30.3209 23.6043 30.1276 23.5585 29.9393C23.4771 29.8478 23.3957 29.6697 23.3143 29.6748C22.1137 29.6952 20.908 29.7409 19.7074 29.7816C19.6769 29.8376 19.6412 29.8986 19.6107 29.9546C19.6107 33.6175 19.6107 37.2856 19.6107 40.9485L19.7125 41.2741L19.7074 41.2639ZM30.8284 40.9383C30.8284 36.1002 30.8284 31.2672 30.8284 26.429C30.7928 26.368 30.7572 26.312 30.7216 26.251C30.5893 26.1543 30.457 25.9814 30.3197 25.9763C29.3327 25.9508 28.3407 25.9407 27.3537 25.9814C27.1807 25.9864 27.018 26.2561 26.8501 26.4087C26.8094 26.6275 26.7382 26.8411 26.7382 27.0599C26.7331 31.4707 26.7331 35.8865 26.7382 40.2973C26.7382 40.5161 26.8094 40.7297 26.8501 40.9485C26.9671 41.096 27.079 41.3707 27.196 41.3707C28.2847 41.4013 29.3785 41.3911 30.4672 41.3707C30.5537 41.3707 30.63 41.1978 30.7165 41.1011C30.7521 41.0451 30.7877 40.9841 30.8233 40.9281L30.8284 40.9383ZM38.0882 22.7407C37.9661 22.5982 37.8388 22.3337 37.7168 22.3337C36.5517 22.3439 35.3816 22.3998 34.2166 22.4405C34.181 22.4965 34.1505 22.5524 34.1149 22.6084C34.1047 24.1295 34.0793 25.6507 34.0793 27.1718C34.0793 31.8115 34.0945 36.4512 34.1047 41.096C34.1403 41.152 34.1759 41.213 34.2116 41.269C34.2726 41.3453 34.3387 41.4877 34.3998 41.4827C35.4631 41.4674 36.5314 41.442 37.5896 41.3911C37.7524 41.3809 37.8999 41.2079 38.0576 41.1113C38.1034 40.8722 38.1848 40.628 38.1848 40.3889C38.1899 34.7266 38.1899 29.0643 38.1848 23.397C38.1848 23.1782 38.1187 22.9594 38.078 22.7407H38.0882ZM31.0675 15.9846C30.9963 16.1983 30.9861 16.2746 30.9454 16.3306C29.2666 18.6199 27.2265 20.5531 24.8507 22.0793C21.2692 24.3788 17.3621 25.8796 13.1141 26.4341C12.6308 26.4952 12.2085 26.6834 12.2187 27.2939C12.234 27.9654 12.5087 28.0977 13.572 27.9604C16.66 27.5686 19.5955 26.6376 22.3834 25.2946C25.2679 23.9057 27.9083 22.1251 30.1111 19.7645C30.8691 18.9557 31.5865 18.1061 32.3292 17.2717C32.4055 17.5719 32.4768 17.8568 32.5582 18.1417C32.6853 18.5995 33.0313 18.7165 33.4434 18.625C33.886 18.5283 34.1149 18.218 34.0742 17.7601C33.9826 16.7172 33.83 15.6794 33.7893 14.6314C33.7689 14.0565 33.5197 13.8123 33.0262 13.9039C31.9171 14.1124 30.8233 14.4279 29.7092 14.6314C29.1343 14.7382 28.9664 15.1248 29.0631 15.5318C29.1852 16.0202 29.5973 16.2949 30.1671 16.1678C30.4367 16.1067 30.7114 16.0558 31.0675 15.9795V15.9846ZM12.3714 33.297C12.3714 35.8916 12.3612 38.4048 12.3968 40.9129C12.3968 41.0757 12.7631 41.3656 12.9717 41.3758C13.8314 41.4267 14.6963 41.386 15.5611 41.4013C16.1004 41.4114 16.3548 41.1876 16.3548 40.6432C16.3497 38.4099 16.3446 36.1714 16.3548 33.938C16.3548 33.5056 16.2428 33.2818 15.7545 33.2919C14.6658 33.3174 13.572 33.297 12.3714 33.297Z" fill="#282828"/>
<path id="Vector_2" d="M4.26831 47.832C4.21234 49.17 5.63683 50.7165 6.99008 50.7216C12.3064 50.742 17.6227 50.7369 22.9391 50.742C28.1791 50.7471 33.4191 50.7521 38.6541 50.7623L38.7863 50.8793C38.7456 51.8307 38.8016 52.8024 38.6439 53.7334C38.5014 54.5728 37.8095 55.0001 36.965 55.0001C25.203 55.0001 13.446 55.0001 1.68393 55.0001C0.671536 55.0001 0 54.3286 0 53.2958C0 38.0438 0 22.7969 0 7.54485C0 6.46124 0.544343 5.93724 1.6127 5.94741C2.45212 5.9525 3.29155 5.94741 4.13097 5.9525C4.13097 19.5918 4.13097 33.2362 4.13606 46.8755C4.13606 47.191 4.22252 47.5064 4.26831 47.8218V47.832Z" fill="#282828"/>
<path id="Vector_3" d="M38.0284 8.07389C36.9957 7.67708 36.5988 6.94449 36.6395 5.82018C36.7108 3.99889 36.6599 2.16742 36.6599 0.320695C36.782 0.320695 36.8888 0.290171 36.9244 0.320695C39.4325 2.84405 41.9304 5.37249 44.4334 7.89584C42.5358 7.90601 40.6331 7.91618 38.7355 7.93653C38.5015 7.93653 38.2675 8.01793 38.0284 8.06372V8.07389Z" fill="#282828"/>
</g>
</svg>
